<svg width="344" height="98" viewBox="0 0 344 98" fill="none" xmlns="http://www.w3.org/2000/svg">
<rect width="344" height="98" fill="#489E1C"/>
<mask id="mask0_1111_9758" style="mask-type:luminance" maskUnits="userSpaceOnUse" x="12" y="0" width="320" height="98">
<path d="M332 0H12V98H332V0Z" fill="white"/>
</mask>
<g mask="url(#mask0_1111_9758)">
<path d="M172.119 30.6293H180.334L180.732 32.5136C183.028 30.7808 185.877 29.9143 189.278 29.9143C193.872 29.9143 197.494 31.1924 200.144 33.7484C202.794 36.3044 204.119 39.7918 204.119 44.2107V61.8213H194.843V44.1457C194.843 42.1529 194.181 40.5933 192.856 39.467C191.531 38.2972 189.742 37.7124 187.489 37.7124C185.016 37.7124 183.033 38.0483 181.443 39.738L181.394 61.8213H172.119V30.6293Z" fill="white"/>
<path d="M172.119 30.6293H180.334L180.732 32.5136C183.028 30.7808 185.877 29.9143 189.278 29.9143C193.872 29.9143 197.494 31.1924 200.144 33.7484C202.794 36.3044 204.119 39.7918 204.119 44.2107V61.8213H194.843V44.1457C194.843 42.1529 194.181 40.5933 192.856 39.467C191.531 38.2972 189.742 37.7124 187.489 37.7124C185.016 37.7124 183.033 38.0483 181.443 39.738L181.394 61.8213H172.119V30.6293Z" fill="white"/>
<path d="M172.119 30.6293H180.334L180.732 32.5136C183.028 30.7808 185.877 29.9143 189.278 29.9143C193.872 29.9143 197.494 31.1924 200.144 33.7484C202.794 36.3044 204.119 39.7918 204.119 44.2107V61.8213H194.843V44.1457C194.843 42.1529 194.181 40.5933 192.856 39.467C191.531 38.2972 189.742 37.7124 187.489 37.7124C185.016 37.7124 183.033 38.0483 181.443 39.738L181.394 61.8213H172.119V30.6293Z" fill="white"/>
<path d="M257.667 29.8125L265.431 29.8994L265.397 37.0442L257.667 37.5775V47.705C257.667 49.2676 257.55 52.035 258.46 53.0463C260.924 55.4737 261.397 54.4835 265.555 54.9112C265.628 54.9188 265.701 54.9272 265.772 54.9425C266.332 55.0612 269.354 55.3427 270.001 59.4078C267.425 61.4529 263.292 61.9214 260.037 61.6359C256.983 61.3678 253.758 59.9703 251.815 58.1147C249.692 56.0467 248.631 53.358 248.631 50.0488V37.5775L243.312 37.0442L243.344 29.8125H248.631C248.631 29.8125 248.538 24.0155 248.631 23.5047C248.725 22.994 249.616 22.768 252.805 21.8349L257.667 20.5308V29.8125Z" fill="white"/>
<path d="M257.667 29.8125L265.431 29.8994L265.397 37.0442L257.667 37.5775V47.705C257.667 49.2676 257.55 52.035 258.46 53.0463C260.924 55.4737 261.397 54.4835 265.555 54.9112C265.628 54.9188 265.701 54.9272 265.772 54.9425C266.332 55.0612 269.354 55.3427 270.001 59.4078C267.425 61.4529 263.292 61.9214 260.037 61.6359C256.983 61.3678 253.758 59.9703 251.815 58.1147C249.692 56.0467 248.631 53.358 248.631 50.0488V37.5775L243.312 37.0442L243.344 29.8125H248.631C248.631 29.8125 248.538 24.0155 248.631 23.5047C248.725 22.994 249.616 22.768 252.805 21.8349L257.667 20.5308V29.8125Z" fill="white"/>
<path d="M257.667 29.8125L265.431 29.8994L265.397 37.0442L257.667 37.5775V47.705C257.667 49.2676 257.55 52.035 258.46 53.0463C260.924 55.4737 261.397 54.4835 265.555 54.9112C265.628 54.9188 265.701 54.9272 265.772 54.9425C266.332 55.0612 269.354 55.3427 270.001 59.4078C267.425 61.4529 263.292 61.9214 260.037 61.6359C256.983 61.3678 253.758 59.9703 251.815 58.1147C249.692 56.0467 248.631 53.358 248.631 50.0488V37.5775L243.312 37.0442L243.344 29.8125H248.631C248.631 29.8125 248.538 24.0155 248.631 23.5047C248.725 22.994 249.616 22.768 252.805 21.8349L257.667 20.5308V29.8125Z" fill="white"/>
<path d="M284.019 29.8125L291.783 29.8994L291.813 36.8959L284.019 37.5775V47.705C284.019 49.2676 283.902 52.035 284.814 53.0463C287.276 55.4737 287.34 54.4933 291.497 54.9215C291.571 54.929 291.644 54.9374 291.715 54.9525C292.272 55.0715 295.708 55.3427 296.355 59.4078C293.776 61.4529 289.644 61.9214 286.389 61.6359C283.335 61.3678 280.112 59.9703 278.169 58.1147C276.046 56.0467 274.983 53.358 274.983 50.0488V37.5775L269.726 36.809L269.696 29.8125H274.983C274.983 29.8125 274.889 24.0155 274.983 23.5047C275.077 22.994 275.968 22.768 279.159 21.8349L284.019 20.5308V29.8125Z" fill="white"/>
<path d="M284.019 29.8125L291.783 29.8994L291.813 36.8959L284.019 37.5775V47.705C284.019 49.2676 283.902 52.035 284.814 53.0463C287.276 55.4737 287.34 54.4933 291.497 54.9215C291.571 54.929 291.644 54.9374 291.715 54.9525C292.272 55.0715 295.708 55.3427 296.355 59.4078C293.776 61.4529 289.644 61.9214 286.389 61.6359C283.335 61.3678 280.112 59.9703 278.169 58.1147C276.046 56.0467 274.983 53.358 274.983 50.0488V37.5775L269.726 36.809L269.696 29.8125H274.983C274.983 29.8125 274.889 24.0155 274.983 23.5047C275.077 22.994 275.968 22.768 279.159 21.8349L284.019 20.5308V29.8125Z" fill="white"/>
<path d="M284.019 29.8125L291.783 29.8994L291.813 36.8959L284.019 37.5775V47.705C284.019 49.2676 283.902 52.035 284.814 53.0463C287.276 55.4737 287.34 54.4933 291.497 54.9215C291.571 54.929 291.644 54.9374 291.715 54.9525C292.272 55.0715 295.708 55.3427 296.355 59.4078C293.776 61.4529 289.644 61.9214 286.389 61.6359C283.335 61.3678 280.112 59.9703 278.169 58.1147C276.046 56.0467 274.983 53.358 274.983 50.0488V37.5775L269.726 36.809L269.696 29.8125H274.983C274.983 29.8125 274.889 24.0155 274.983 23.5047C275.077 22.994 275.968 22.768 279.159 21.8349L284.019 20.5308V29.8125Z" fill="white"/>
<path fill-rule="evenodd" clip-rule="evenodd" d="M50.3352 48.7476L54.5754 57.6659C55.782 60.2034 58.3498 61.8215 61.1699 61.8215H68.5898L45.5695 16.224C43.4145 11.9556 37.2943 11.9556 35.1391 16.224L12.1191 61.8215H19.5389C22.3592 61.8215 24.9268 60.2034 26.1334 57.6659L30.3737 48.7476H50.3352ZM46.191 40.0316L40.3544 27.7565L34.518 40.0316H46.191Z" fill="white"/>
<path fill-rule="evenodd" clip-rule="evenodd" d="M74.8653 58.5221C77.7942 61.6415 81.5976 63.201 86.2751 63.201C88.8982 63.201 91.2369 62.6664 93.2916 61.5968V63.3346C93.2916 65.0726 92.461 66.4095 90.7999 67.3451C89.1387 68.2808 86.756 68.7487 83.6523 68.7487C82.69 68.7487 81.7743 68.7095 80.9046 68.6309C77.5496 68.3271 73.554 70.863 73.554 74.2965C76.8763 75.9898 80.767 76.8365 85.226 76.8365C90.6468 76.8365 94.8653 75.6555 97.8818 73.2939C100.942 70.9765 102.472 67.7017 102.472 63.4684V30.516H94.3407L94.013 31.8529C91.8271 30.5604 89.2699 29.9143 86.3409 29.9143C81.6193 29.9143 77.7942 31.4518 74.8653 34.5265C71.9364 37.6012 70.4719 41.5891 70.4719 46.4909C70.4719 51.3925 71.9364 55.403 74.8653 58.5221ZM79.9144 46.5577C79.9144 44.0179 80.6795 41.9455 82.2098 40.3415C83.7396 38.7373 85.7069 37.9355 88.1112 37.9355C90.1659 37.9355 91.8927 38.5367 93.2916 39.7401V53.3755C91.8927 54.5784 90.1659 55.1801 88.1112 55.1801C85.7069 55.1801 83.7396 54.3781 82.2098 52.7738C80.6795 51.1696 79.9144 49.0977 79.9144 46.5577Z" fill="white"/>
<path d="M110.001 61.8213V30.6293H118.152L118.612 33.2935C120.803 31.0408 123.74 29.9143 127.421 29.9143C128.516 29.9143 129.612 30.0228 130.707 30.2393V38.9472C129.436 38.124 127.815 37.7124 125.843 37.7124C123.126 37.7124 120.867 37.9341 119.158 40.0135L119.204 61.8213H110.001Z" fill="white"/>
<path d="M110.001 61.8213V30.6293H118.152L118.612 33.2935C120.803 31.0408 123.74 29.9143 127.421 29.9143C128.516 29.9143 129.612 30.0228 130.707 30.2393V38.9472C129.436 38.124 127.815 37.7124 125.843 37.7124C123.126 37.7124 120.867 37.9341 119.158 40.0135L119.204 61.8213H110.001Z" fill="white"/>
<path d="M110.001 61.8213V30.6293H118.152L118.612 33.2935C120.803 31.0408 123.74 29.9143 127.421 29.9143C128.516 29.9143 129.612 30.0228 130.707 30.2393V38.9472C129.436 38.124 127.815 37.7124 125.843 37.7124C123.126 37.7124 120.867 37.9341 119.158 40.0135L119.204 61.8213H110.001Z" fill="white"/>
<path d="M151.381 29.9143C156.391 29.9143 160.472 31.4069 163.625 34.3915C166.778 37.334 168.354 41.1595 168.354 45.8678C168.354 50.5761 166.778 54.4227 163.625 57.4074C160.472 60.3501 156.391 61.8213 151.381 61.8213C146.414 61.8213 142.354 60.3501 139.201 57.4074C136.049 54.4227 134.472 50.5761 134.472 45.8678C134.472 41.1595 136.049 37.334 139.201 34.3915C142.354 31.4069 146.414 29.9143 151.381 29.9143ZM145.874 40.1298C144.492 41.6009 143.801 43.5137 143.801 45.8678C143.801 48.2221 144.492 50.1347 145.874 51.606C147.299 53.0774 149.135 53.8131 151.381 53.8131C153.627 53.8131 155.462 53.0774 156.887 51.606C158.313 50.1347 159.026 48.2221 159.026 45.8678C159.026 43.5137 158.313 41.6009 156.887 40.1298C155.462 38.6584 153.627 37.9227 151.381 37.9227C149.135 37.9227 147.299 38.6584 145.874 40.1298Z" fill="white"/>
<path d="M151.381 29.9143C156.391 29.9143 160.472 31.4069 163.625 34.3915C166.778 37.334 168.354 41.1595 168.354 45.8678C168.354 50.5761 166.778 54.4227 163.625 57.4074C160.472 60.3501 156.391 61.8213 151.381 61.8213C146.414 61.8213 142.354 60.3501 139.201 57.4074C136.049 54.4227 134.472 50.5761 134.472 45.8678C134.472 41.1595 136.049 37.334 139.201 34.3915C142.354 31.4069 146.414 29.9143 151.381 29.9143ZM145.874 40.1298C144.492 41.6009 143.801 43.5137 143.801 45.8678C143.801 48.2221 144.492 50.1347 145.874 51.606C147.299 53.0774 149.135 53.8131 151.381 53.8131C153.627 53.8131 155.462 53.0774 156.887 51.606C158.313 50.1347 159.026 48.2221 159.026 45.8678C159.026 43.5137 158.313 41.6009 156.887 40.1298C155.462 38.6584 153.627 37.9227 151.381 37.9227C149.135 37.9227 147.299 38.6584 145.874 40.1298Z" fill="white"/>
<path fill-rule="evenodd" clip-rule="evenodd" d="M236.61 35.0821C233.924 31.6368 230.121 29.9143 225.203 29.9143C220.614 29.9143 216.894 31.3848 214.044 34.3259C211.193 37.2668 209.766 41.0268 209.766 45.6066C209.766 46.6336 209.715 47.4408 209.86 48.3816C210.15 53.404 214.418 57.6898 216.619 58.7935C217.008 58.9886 221.139 62.3849 229.922 61.8208C233.762 61.8208 238.073 59.7202 239.776 59.0898C239.984 54.5185 234.15 53.9186 232.72 54.281C225.694 55.4387 224.623 54.3701 222.582 53.7566C219.635 52.1159 218.489 48.4748 218.714 48.478L239.708 48.5054C240.329 42.9595 239.296 38.4852 236.61 35.0821ZM232.872 42.6792L218.426 42.6299C218.88 41.0754 219.791 39.5065 220.99 38.624C222.189 37.6998 224.092 36.9459 225.705 36.9459C227.358 36.9459 229.143 37.5765 230.219 38.5009C231.336 39.3832 232.395 40.8383 232.872 42.6792Z" fill="white"/>
<path d="M315.027 29.9934C320.037 29.9934 324.119 31.4857 327.271 34.4706C330.426 37.4131 332.001 41.2386 332.001 45.9469C332.001 50.6552 330.426 54.5018 327.271 57.4865C324.119 60.4292 320.037 61.9004 315.027 61.9004C310.06 61.9004 306.001 60.4292 302.849 57.4865C299.697 54.5018 298.119 50.6552 298.119 45.9469C298.119 41.2386 299.697 37.4131 302.849 34.4706C306.001 31.4857 310.06 29.9934 315.027 29.9934ZM309.521 40.2089C308.14 41.68 307.447 43.5928 307.447 45.9469C307.447 48.3012 308.14 50.2138 309.521 51.6851C310.947 53.1565 312.782 53.8922 315.027 53.8922C317.274 53.8922 319.109 53.1565 320.535 51.6851C321.959 50.2138 322.673 48.3012 322.673 45.9469C322.673 43.5928 321.959 41.68 320.535 40.2089C319.109 38.7375 317.274 38.0018 315.027 38.0018C312.782 38.0018 310.947 38.7375 309.521 40.2089Z" fill="white"/>
<path d="M315.027 29.9934C320.037 29.9934 324.119 31.4857 327.271 34.4706C330.426 37.4131 332.001 41.2386 332.001 45.9469C332.001 50.6552 330.426 54.5018 327.271 57.4865C324.119 60.4292 320.037 61.9004 315.027 61.9004C310.06 61.9004 306.001 60.4292 302.849 57.4865C299.697 54.5018 298.119 50.6552 298.119 45.9469C298.119 41.2386 299.697 37.4131 302.849 34.4706C306.001 31.4857 310.06 29.9934 315.027 29.9934ZM309.521 40.2089C308.14 41.68 307.447 43.5928 307.447 45.9469C307.447 48.3012 308.14 50.2138 309.521 51.6851C310.947 53.1565 312.782 53.8922 315.027 53.8922C317.274 53.8922 319.109 53.1565 320.535 51.6851C321.959 50.2138 322.673 48.3012 322.673 45.9469C322.673 43.5928 321.959 41.68 320.535 40.2089C319.109 38.7375 317.274 38.0018 315.027 38.0018C312.782 38.0018 310.947 38.7375 309.521 40.2089Z" fill="white"/>
<path d="M211.451 90.7498V74.0148H213.705V88.7893H223.919V90.7498H211.451ZM227.004 90.7498V79.2744H229.138V90.7498H227.004ZM227.028 76.3337C226.772 76.0789 226.644 75.7441 226.644 75.3298C226.644 74.9152 226.772 74.5807 227.028 74.3256C227.3 74.0547 227.643 73.9193 228.059 73.9193C228.474 73.9193 228.81 74.0547 229.066 74.3256C229.338 74.5807 229.474 74.9152 229.474 75.3298C229.474 75.7441 229.338 76.0789 229.066 76.3337C228.81 76.5887 228.474 76.7164 228.059 76.7164C227.643 76.7164 227.3 76.5887 227.028 76.3337ZM233.407 79.2744H235.325L235.469 80.3262C236.396 79.4816 237.579 79.0593 239.018 79.0593C240.665 79.0593 241.968 79.5294 242.926 80.4698C243.902 81.3942 244.389 82.6611 244.389 84.271V90.7498H242.254V84.271C242.254 83.235 241.927 82.422 241.271 81.8324C240.633 81.2267 239.761 80.924 238.658 80.924C237.411 80.924 236.373 81.3782 235.541 82.2866V90.7498H233.407V79.2744ZM253.628 79.0353C255.417 79.0353 256.832 79.6568 257.87 80.9001C258.91 82.1273 259.365 83.7291 259.237 85.7055H249.982C250.192 86.7413 250.725 87.562 251.589 88.1678C252.469 88.7574 253.58 89.0523 254.921 89.0523C256.473 89.0523 257.726 88.6459 258.686 87.833V89.8413C257.534 90.6064 256.169 90.9888 254.585 90.9888C252.542 90.9888 250.894 90.4389 249.646 89.3392C248.416 88.2236 247.801 86.7493 247.801 84.9165C247.801 83.1951 248.336 81.7846 249.406 80.6849C250.494 79.5853 251.9 79.0353 253.628 79.0353ZM249.959 83.9602H257.127C257.049 83.0358 256.688 82.2946 256.048 81.7367C255.41 81.1788 254.604 80.9001 253.628 80.9001C252.668 80.9001 251.861 81.1788 251.205 81.7367C250.551 82.2946 250.135 83.0358 249.959 83.9602ZM265.045 90.7498H262.91V79.2744H264.828L264.972 80.3262C265.852 79.4816 266.978 79.0593 268.352 79.0593C270.128 79.0593 271.461 79.6411 272.357 80.8043C273.33 79.6411 274.713 79.0593 276.505 79.0593C278.071 79.0593 279.317 79.5135 280.245 80.4219C281.186 81.3304 281.66 82.5576 281.66 84.1035V90.7498H279.527V84.0796C279.527 83.1076 279.221 82.3425 278.615 81.7846C278.023 81.2109 277.216 80.924 276.192 80.924C274.914 80.924 273.897 81.4179 273.148 82.4063C273.292 82.9321 273.365 83.498 273.365 84.1035V90.7498H271.207V84.0796C271.207 83.1076 270.91 82.3425 270.318 81.7846C269.726 81.2109 268.928 80.924 267.92 80.924C266.752 80.924 265.794 81.3782 265.045 82.2866V90.7498ZM290.88 79.0353C292.67 79.0353 294.085 79.6568 295.125 80.9001C296.162 82.1273 296.617 83.7291 296.492 85.7055H287.234C287.442 86.7413 287.98 87.562 288.841 88.1678C289.721 88.7574 290.832 89.0523 292.174 89.0523C293.724 89.0523 294.981 88.6459 295.938 87.833V89.8413C294.789 90.6064 293.422 90.9888 291.84 90.9888C289.792 90.9888 288.146 90.4389 286.901 89.3392C285.669 88.2236 285.054 86.7493 285.054 84.9165C285.054 83.1951 285.589 81.7846 286.661 80.6849C287.746 79.5853 289.154 79.0353 290.88 79.0353ZM287.212 83.9602H294.38C294.3 83.0358 293.941 82.2946 293.301 81.7367C292.661 81.1788 291.854 80.9001 290.88 80.9001C289.92 80.9001 289.113 81.1788 288.457 81.7367C287.801 82.2946 287.385 83.0358 287.212 83.9602ZM299.417 84.9883C299.417 83.2509 299.961 81.8404 301.049 80.7567C302.135 79.6568 303.55 79.1071 305.292 79.1071C306.505 79.1071 307.538 79.3781 308.384 79.9198V73.5366H310.544V90.7498H308.624L308.528 90.0086C307.632 90.6144 306.553 90.917 305.292 90.917C303.55 90.917 302.135 90.3673 301.049 89.2674C299.961 88.1678 299.417 86.7413 299.417 84.9883ZM305.653 80.9719C304.469 80.9719 303.502 81.3463 302.75 82.0954C301.998 82.8446 301.623 83.8168 301.623 85.012C301.623 86.2073 301.998 87.1796 302.75 87.9287C303.502 88.6778 304.469 89.0523 305.653 89.0523C306.754 89.0523 307.666 88.7335 308.384 88.096V81.9282C307.666 81.2907 306.754 80.9719 305.653 80.9719ZM314.807 90.7498V79.2744H316.94V90.7498H314.807ZM314.83 76.3337C314.576 76.0789 314.446 75.7441 314.446 75.3298C314.446 74.9152 314.576 74.5807 314.83 74.3256C315.104 74.0547 315.445 73.9193 315.861 73.9193C316.279 73.9193 316.613 74.0547 316.869 74.3256C317.141 74.5807 317.276 74.9152 317.276 75.3298C317.276 75.7441 317.141 76.0789 316.869 76.3337C316.613 76.5887 316.279 76.7164 315.861 76.7164C315.445 76.7164 315.104 76.5887 314.83 76.3337ZM325.095 90.917C323.671 90.917 322.553 90.6144 321.737 90.0086C320.924 89.3871 320.514 88.5502 320.514 87.4984C320.514 86.3828 320.972 85.5061 321.881 84.8686C322.793 84.2312 324.055 83.9123 325.671 83.9123C326.405 83.9123 327.317 83.9921 328.405 84.1514V83.5538C328.405 81.8643 327.26 81.0195 324.974 81.0195C323.456 81.0195 322.265 81.3623 321.401 82.0476V80.1111C322.439 79.4417 323.758 79.1071 325.358 79.1071C327.038 79.1071 328.322 79.4736 329.218 80.2068C330.112 80.924 330.562 81.9601 330.562 83.3147V88.2157C330.562 88.9169 331.04 89.2674 332 89.2674V90.678C331.712 90.8215 331.344 90.8931 330.896 90.8931C329.92 90.8931 329.202 90.5506 328.738 89.8652C327.746 90.5665 326.533 90.917 325.095 90.917ZM326.101 85.6576C325.029 85.6576 324.19 85.8249 323.584 86.1597C322.976 86.4785 322.672 86.9166 322.672 87.4745C322.672 87.9846 322.912 88.3909 323.392 88.6938C323.888 88.9807 324.567 89.1241 325.431 89.1241C326.645 89.1241 327.637 88.7736 328.405 88.0721V85.8728C327.365 85.7292 326.597 85.6576 326.101 85.6576Z" fill="#B6D8A4"/>
</g>
</svg>
