<svg width="342" height="96" viewBox="0 0 342 96" fill="none" xmlns="http://www.w3.org/2000/svg">
<path d="M166.267 22.3588C167.023 20.4314 167.401 18.5039 167.401 16.1909C167.401 14.2634 167.023 12.3359 166.267 10.4084C165.512 8.48095 164.378 6.93897 163.244 5.01147C161.733 3.46948 160.221 2.313 158.332 1.15649C156.442 0.385498 154.175 0 151.908 0C149.641 0 147.373 0.385498 145.484 1.15649C143.595 1.92749 142.083 3.08399 140.571 4.62597C139.06 6.16796 137.926 7.70996 137.171 9.63744C136.415 11.5649 136.037 13.4924 136.037 15.8054C136.037 17.7329 136.415 19.6604 137.171 21.5879C137.926 23.5153 139.06 25.4429 140.194 26.5994C141.705 28.1414 143.217 29.2979 145.106 30.4543C146.996 31.2252 149.263 31.9964 151.53 31.9964C153.797 31.9964 155.687 31.6108 157.954 30.8399C158.71 30.8399 159.465 30.4543 159.843 30.0688L161.733 32.3819H167.779L163.244 27.3703C164.756 25.8282 165.512 24.2864 166.267 22.3588ZM156.065 25.8282C154.931 26.5994 153.419 26.9849 151.908 26.9849C150.397 26.9849 149.263 26.5994 148.129 26.2138C146.996 25.4429 145.862 24.6718 145.106 23.9009C144.35 22.7444 143.595 21.5879 143.217 20.4314C142.839 19.2749 142.461 17.7329 142.461 16.5764C142.461 15.4199 142.839 13.8779 143.217 12.7214C143.595 11.5649 144.35 10.4084 145.106 9.25194C145.862 8.09546 146.996 7.32446 148.129 6.93897C149.263 6.16795 150.774 6.16795 152.286 6.16795C153.797 6.16795 154.931 6.55347 156.065 6.93897C157.198 6.93897 157.954 7.70996 158.71 8.86645C159.465 10.0229 160.221 11.1794 160.599 12.3359C160.977 13.4924 161.355 15.0344 161.355 16.1909C161.355 17.3474 160.977 18.8894 160.599 20.0459C160.221 21.2024 159.843 21.9734 159.465 22.7444L157.198 20.4314H151.152L156.065 25.8282Z" fill="#777777"/>
<path d="M174.957 27.7562C176.091 29.298 177.602 30.4547 179.114 31.2256C181.003 31.9965 182.893 32.382 185.538 32.382C188.183 32.382 190.072 31.9965 191.962 31.2256C193.851 30.4547 195.363 29.298 196.496 27.7562C197.63 26.2141 198.386 24.6721 199.141 22.7445C199.519 20.8171 199.897 18.8896 199.897 16.5767V0.385742H193.851V16.5767C193.851 17.7331 193.851 19.2751 193.473 20.4316C193.095 21.5881 192.718 22.7445 192.34 23.9012C191.584 25.0577 190.828 25.8286 190.072 26.2141C188.939 26.985 187.805 26.985 186.294 26.985C184.782 26.985 183.648 26.5995 182.515 26.2141C181.381 25.8286 180.625 24.6721 180.247 23.9012C179.492 22.7445 179.114 21.9736 179.114 20.4316C178.736 19.2751 178.736 17.7331 178.736 16.5767V0.385742H172.69V16.5767C172.69 18.5041 173.068 20.8171 173.446 22.3592C173.068 24.2866 173.824 26.2141 174.957 27.7562Z" fill="#777777"/>
<path d="M116.386 20.4314H125.456L129.612 31.9964H136.036L123.944 0H117.898L105.806 32.3819H112.23L116.386 20.4314ZM120.921 7.70996L123.944 16.1909H117.898L120.921 7.70996Z" fill="#777777"/>
<path d="M211.989 20.4314H221.058L225.215 31.9964H231.64L219.546 0H213.5L201.408 31.9964H207.832L211.989 20.4314ZM216.523 7.70996L219.546 16.1909H213.5L216.523 7.70996Z" fill="#777777"/>
<path d="M23.8062 55.5116L13.9815 33.5381H0V79.7978H12.8478V55.5116L20.4054 72.859H27.2071L35.1427 55.5116V79.7978H47.6126V33.5381H34.009L23.8062 55.5116Z" fill="#777777"/>
<path d="M68.773 63.6072V46.2598H56.6809V79.7981H68.0174L78.5978 62.8363V79.7981H91.0677V46.2598H79.7315L68.773 63.6072Z" fill="#777777"/>
<path d="M132.259 50.5001C130.748 48.9581 129.236 47.8016 127.347 47.0307C125.457 46.2596 123.19 45.8743 120.923 45.8743C118.278 45.8743 116.01 46.2596 114.499 47.4161C112.61 48.5725 111.098 49.7292 109.964 51.6566V46.2596H99.3838V94.0614H111.854V75.1719C112.987 77.0995 114.121 78.256 116.01 79.4124C117.9 80.1836 120.167 80.9545 122.434 80.9545C125.079 80.9545 127.725 80.1836 129.992 78.6415C132.259 77.0995 133.771 75.1719 135.282 72.4734C136.416 69.7749 137.172 66.6911 137.172 63.607C137.172 60.9085 136.794 58.5956 136.038 56.668C134.904 53.9695 133.771 52.0422 132.259 50.5001ZM123.568 65.5346C123.19 66.3055 122.812 67.0767 122.434 67.8476C121.679 68.6185 120.923 69.3896 120.167 69.3896C119.411 69.7749 118.656 69.7749 117.522 69.7749C116.766 69.7749 115.633 69.3896 114.877 69.004C114.121 68.6185 113.365 67.8476 112.61 67.0764C111.854 66.3055 111.476 65.5346 111.098 64.3782V58.5956C111.476 58.21 111.854 57.4391 112.232 57.0536C112.61 56.668 112.987 56.2827 113.743 55.8971C114.121 55.5116 114.877 55.5116 115.255 55.1262C115.633 55.1262 116.388 54.7407 116.766 54.7407C117.9 54.7407 118.656 54.7407 119.411 55.1262C120.167 55.5116 120.923 55.8971 121.679 56.668C122.434 57.4391 122.812 57.8245 123.19 58.9812C123.568 59.7521 123.568 60.9085 123.568 61.6797C123.946 63.9926 123.946 64.7635 123.568 65.5346Z" fill="#777777"/>
<path d="M142.838 79.7981H155.308V56.6682H167.778V46.2598H142.838V79.7981Z" fill="#777777"/>
<path d="M204.053 50.8858C202.542 49.3437 200.653 47.8017 198.007 47.0308C195.74 46.2597 193.095 45.4888 190.072 45.4888C187.049 45.4888 184.404 45.8743 182.137 47.0308C179.869 47.8017 177.98 49.3437 176.09 50.8858C174.579 52.4278 173.445 54.3552 172.69 56.6681C171.934 58.5957 171.556 60.9086 171.556 63.2215C171.556 65.5347 171.934 67.8476 172.69 69.775C173.445 71.7026 174.579 73.6302 176.09 75.5575C177.602 77.0996 179.491 78.6416 182.137 79.4125C184.404 80.1836 187.049 80.9545 190.072 80.9545C193.095 80.9545 195.74 80.569 198.007 79.4125C200.274 78.6416 202.164 77.0996 204.053 75.5575C205.565 74.0155 206.699 72.0881 207.454 69.775C208.21 67.8476 208.588 65.5347 208.588 63.2215C208.588 60.9086 208.21 58.5957 207.454 56.6681C206.699 54.3552 205.565 52.4278 204.053 50.8858ZM195.362 66.6912C194.984 67.8476 194.228 68.6185 193.095 69.0041C192.339 69.3896 191.206 69.775 190.072 69.775C188.938 69.775 187.805 69.3896 187.049 69.0041C186.293 68.6185 185.537 67.4621 184.782 66.6912C184.404 65.5347 184.026 64.3782 184.026 62.8362C184.026 61.2942 184.404 60.1377 184.782 58.9812C185.159 57.8248 185.915 57.0536 187.049 56.6681C187.805 56.2827 188.938 55.8972 190.072 55.8972C191.206 55.8972 192.339 56.2827 193.095 56.6681C193.851 57.0536 194.606 58.2101 195.362 58.9812C195.74 60.1377 196.118 61.2942 196.118 62.8362C196.118 64.3782 195.74 65.92 195.362 66.6912Z" fill="#777777"/>
<path d="M247.89 50.5001C246.378 48.9581 244.867 47.8016 242.976 47.0307C241.087 46.2596 238.821 45.8743 236.554 45.8743C233.907 45.8743 231.642 46.2596 230.129 47.4161C228.24 48.5725 226.728 49.7292 225.595 51.6566V46.2596H215.014V94.0614H227.484V75.1719C228.618 77.0995 229.75 78.256 231.642 79.4124C233.531 80.1836 235.796 80.9545 238.064 80.9545C240.711 80.9545 243.355 80.1836 245.622 78.6415C247.89 77.0995 249.401 75.1719 250.913 72.4734C252.047 69.7749 252.802 66.6911 252.802 63.607C252.802 60.9085 252.423 58.5956 251.668 56.668C250.534 53.9695 249.401 52.0422 247.89 50.5001ZM239.577 65.5346C239.198 66.3055 238.822 67.0767 238.443 67.8476C238.064 68.6185 237.309 69.004 236.554 69.3896C235.796 69.7749 235.041 69.7749 233.907 69.7749C233.152 69.7749 232.018 69.3896 231.263 69.004C230.508 68.6185 229.75 67.8476 228.996 67.0764C228.24 66.3055 227.862 65.5346 227.484 64.3782V58.5956C227.862 58.21 228.24 57.4391 228.618 57.0536C228.996 56.668 229.374 56.2827 230.129 55.8971C230.508 55.5116 231.263 55.5116 231.642 55.1262C232.018 55.1262 232.773 54.7407 233.152 54.7407C234.286 54.7407 235.041 54.7407 235.796 55.1262C236.554 55.5116 237.309 55.8971 238.064 56.668C238.822 57.4391 239.198 57.8245 239.577 58.9812C239.953 59.7521 239.953 60.9085 239.953 61.6797C239.953 63.9926 239.577 64.7635 239.577 65.5346Z" fill="#777777"/>
<path d="M289.454 50.8858C287.943 49.3437 286.054 47.8017 283.408 47.0308C281.142 46.2597 278.496 45.4888 275.473 45.4888C272.45 45.4888 269.806 45.8743 267.538 47.0308C265.27 47.8017 263.381 49.3437 261.492 50.8858C259.98 52.4278 258.846 54.3552 258.091 56.6681C257.336 58.5957 256.957 60.9086 256.957 63.2215C256.957 65.5347 257.336 67.8476 258.091 69.775C258.846 71.7026 259.98 73.6302 261.492 75.5575C263.003 77.0996 264.892 78.6416 267.538 79.4125C269.806 80.1836 272.45 80.9545 275.473 80.9545C278.496 80.9545 281.142 80.569 283.408 79.4125C285.676 78.6416 287.565 77.0996 289.454 75.5575C290.966 74.0155 292.1 72.0881 292.855 69.775C293.61 67.8476 293.989 65.5347 293.989 63.2215C293.989 60.9086 293.61 58.5957 292.855 56.6681C292.1 54.3552 290.966 52.4278 289.454 50.8858ZM280.764 66.6912C280.385 67.8476 279.63 68.6185 278.496 69.0041C277.741 69.3896 276.607 69.775 275.473 69.775C274.339 69.775 273.205 69.3896 272.45 69.0041C271.695 68.6185 270.94 67.4621 270.182 66.6912C269.806 65.5347 269.427 64.3782 269.427 62.8362C269.427 61.2942 269.806 60.1377 270.182 58.9812C270.561 57.8248 271.316 57.0536 272.45 56.6681C273.205 56.2827 274.339 55.8972 275.473 55.8972C276.607 55.8972 277.741 56.2827 278.496 56.6681C279.251 57.0536 280.009 58.2101 280.764 58.9812C281.142 60.1377 281.519 61.2942 281.519 62.8362C281.519 64.3782 281.142 65.92 280.764 66.6912Z" fill="#777777"/>
<path d="M335.176 69.004V45.8743H306.457L306.079 57.8245C306.079 60.1376 305.702 62.065 305.323 63.607C304.945 65.1491 304.568 66.3055 303.811 67.0764C303.434 67.8476 302.679 68.6185 301.922 68.6185C301.167 69.004 300.412 69.004 299.656 69.004H298.522V88.2788H309.102V79.798H328.752V88.6644H340.088V69.3896H335.176V69.004ZM322.706 69.004H314.392C314.771 68.6185 315.526 67.8476 315.526 66.6911C315.905 65.92 316.281 64.7635 316.281 63.607C316.66 62.4506 316.66 60.9085 316.66 58.9812L317.039 55.8971H322.327V69.004H322.706Z" fill="#777777"/>
</svg>
