<svg width="344" height="100" viewBox="0 0 344 100" fill="none" xmlns="http://www.w3.org/2000/svg">
<rect width="344" height="100" fill="#1D6EC1"/>
<path d="M38.7742 10.9878H46.7902L57.3194 31.9378H28.2451L38.7742 10.9878Z" fill="white"/>
<path d="M24.7354 38.9214L12 64.2613H26.1185L32.425 50.8928H53.1395L59.446 64.2613H73.5644L60.8291 38.9214H24.7354Z" fill="white"/>
<path d="M217.243 6V64.2613H206.346V8.3943L217.243 6Z" fill="white"/>
<path d="M141.163 25.9522H151.503V35.4497H141.163V49.3368C141.163 51.1456 141.719 52.6354 142.833 53.806C144 54.9234 145.511 55.4821 147.367 55.4821C149.064 55.4821 150.442 55.0298 151.503 54.1253V63.2236C149.329 64.3942 146.863 64.9795 144.106 64.9795C140.022 64.9795 136.655 63.7823 134.004 61.388C131.406 58.9936 130.106 55.8811 130.106 52.0502V35.4497H123.743V25.9522H130.106V20.6849L141.163 15.2578V25.9522Z" fill="white"/>
<path d="M79.2832 25.9524V48.2196C79.2832 53.5401 80.821 57.6904 83.8967 60.6698C86.9721 63.6495 91.2409 65.1393 96.7027 65.1393C100.786 65.1393 104.206 64.0485 106.963 61.867L107.52 64.2613H117.304V25.9524H106.168V52.609C104.312 54.5777 101.82 55.562 98.6912 55.562C96.0398 55.562 93.9984 54.9235 92.5666 53.6466C91.1349 52.3696 90.419 50.5871 90.419 48.2994V25.9524H79.2832Z" fill="white"/>
<path fill-rule="evenodd" clip-rule="evenodd" d="M192.835 30.5813C188.964 26.8035 183.953 24.9148 177.802 24.9148C171.703 24.9148 166.719 26.8035 162.848 30.5813C158.977 34.3057 157.042 39.1476 157.042 45.1067C157.042 51.0658 158.977 55.9343 162.848 59.7119C166.719 63.4365 171.703 65.2987 177.802 65.2987C183.953 65.2987 188.964 63.4365 192.835 59.7119C196.706 55.9343 198.641 51.0658 198.641 45.1067C198.641 39.1476 196.706 34.3057 192.835 30.5813ZM168.495 45.1067C168.495 42.127 169.344 39.7063 171.041 37.844C172.791 35.9817 175.044 35.0506 177.802 35.0506C180.559 35.0506 182.813 35.9817 184.562 37.844C186.312 39.7063 187.187 42.127 187.187 45.1067C187.187 48.0864 186.312 50.5071 184.562 52.3694C182.813 54.2317 180.559 55.1628 177.802 55.1628C175.044 55.1628 172.791 54.2317 171.041 52.3694C169.344 50.5071 168.495 48.0864 168.495 45.1067Z" fill="white"/>
<path d="M226.72 64.2613V25.9524H237.855V64.2613H226.72Z" fill="white"/>
<path d="M227.435 8.55414C226.215 9.77788 225.605 11.3475 225.605 13.2629C225.605 15.2316 226.215 16.8278 227.435 18.0515C228.708 19.2753 230.325 19.8872 232.287 19.8872C234.249 19.8872 235.84 19.2753 237.059 18.0515C238.279 16.8278 238.889 15.2316 238.889 13.2629C238.889 11.3475 238.279 9.77788 237.059 8.55414C235.84 7.33038 234.249 6.71851 232.287 6.71851C230.325 6.71851 228.708 7.33038 227.435 8.55414Z" fill="white"/>
<path d="M257.418 25.9522H247.555V64.2611H258.691V37.7641C260.599 35.689 263.04 34.6515 266.01 34.6515C268.714 34.6515 270.862 35.3698 272.451 36.8064C274.042 38.1898 274.837 40.1053 274.837 42.5527V64.2611H285.973V42.6325C285.973 37.2055 284.382 32.9224 281.2 29.7832C278.019 26.6439 273.671 25.0745 268.156 25.0745C264.074 25.0745 260.654 26.1384 257.895 28.2667L257.418 25.9522Z" fill="white"/>
<path fill-rule="evenodd" clip-rule="evenodd" d="M327.799 31.4593C324.352 27.0962 319.475 24.9148 313.164 24.9148C307.278 24.9148 302.505 26.7769 298.846 30.5015C295.189 34.2259 293.358 38.988 293.358 44.7874C293.358 51.0126 295.479 55.9875 299.721 59.7119C304.016 63.4365 309.744 65.2987 316.903 65.2987C321.941 65.2987 326.341 64.208 330.105 62.0264V52.1299C327.244 54.2583 323.504 55.3224 318.892 55.3224C315.445 55.3224 312.501 54.7371 310.062 53.5666C307.676 52.3428 306.005 50.6401 305.052 48.4588H331.776C332.572 41.4356 331.246 35.7689 327.799 31.4593ZM320.958 40.7971H304.654C305.237 38.8284 306.297 37.2853 307.836 36.168C309.372 34.9974 311.175 34.4121 313.244 34.4121C315.365 34.4121 317.116 34.9974 318.494 36.168C319.925 37.2853 320.748 38.8284 320.958 40.7971Z" fill="white"/>
<path d="M202.633 93.7479V76.0883H204.996V91.6792H215.707V93.7479H202.633ZM218.942 93.7479V81.6385H221.18V93.7479H218.942ZM218.967 78.5354C218.699 78.2664 218.565 77.9132 218.565 77.4758C218.565 77.0385 218.699 76.6853 218.967 76.4163C219.252 76.1303 219.613 75.9874 220.049 75.9874C220.484 75.9874 220.836 76.1303 221.105 76.4163C221.39 76.6853 221.532 77.0385 221.532 77.4758C221.532 77.9132 221.39 78.2664 221.105 78.5354C220.836 78.8044 220.484 78.9391 220.049 78.9391C219.613 78.9391 219.252 78.8044 218.967 78.5354ZM225.657 81.6385H227.669L227.82 82.7485C228.792 81.857 230.032 81.4114 231.541 81.4114C233.267 81.4114 234.633 81.9075 235.639 82.8999C236.661 83.8753 237.173 85.2124 237.173 86.9111V93.7479H234.935V86.9111C234.935 85.8178 234.591 84.9601 233.904 84.3379C233.234 83.6987 232.32 83.3792 231.164 83.3792C229.856 83.3792 228.767 83.8585 227.895 84.8172V93.7479H225.657V81.6385ZM246.86 81.3862C248.739 81.3862 250.222 82.0421 251.31 83.354C252.401 84.6491 252.878 86.3394 252.743 88.4248H243.038C243.258 89.5181 243.818 90.3841 244.723 91.0233C245.646 91.6455 246.81 91.9567 248.218 91.9567C249.845 91.9567 251.159 91.5278 252.165 90.6701V92.7892C250.958 93.5965 249.525 94.0002 247.866 94.0002C245.722 94.0002 243.994 93.4199 242.686 92.2595C241.397 91.0822 240.75 89.5263 240.75 87.5923C240.75 85.7759 241.313 84.2874 242.435 83.1269C243.575 81.9664 245.05 81.3862 246.86 81.3862ZM243.013 86.5831H250.531C250.449 85.6077 250.071 84.8257 249.399 84.2369C248.73 83.6482 247.884 83.354 246.86 83.354C245.854 83.354 245.009 83.6482 244.321 84.2369C243.635 84.8257 243.198 85.6077 243.013 86.5831ZM258.833 93.7479H256.595V81.6385H258.606L258.757 82.7485C259.678 81.857 260.86 81.4114 262.302 81.4114C264.163 81.4114 265.562 82.0254 266.501 83.2531C267.523 82.0254 268.972 81.4114 270.851 81.4114C272.492 81.4114 273.8 81.8907 274.773 82.8494C275.761 83.8081 276.257 85.1032 276.257 86.7345V93.7479H274.019V86.7093C274.019 85.6834 273.699 84.8761 273.063 84.2874C272.442 83.6819 271.596 83.3792 270.524 83.3792C269.182 83.3792 268.117 83.9005 267.331 84.9433C267.482 85.4983 267.557 86.0953 267.557 86.7345V93.7479H265.294V86.7093C265.294 85.6834 264.983 84.8761 264.364 84.2874C263.742 83.6819 262.906 83.3792 261.85 83.3792C260.625 83.3792 259.619 83.8585 258.833 84.8172V93.7479ZM285.925 81.3862C287.802 81.3862 289.285 82.0421 290.376 83.354C291.464 84.6491 291.941 86.3394 291.809 88.4248H282.104C282.321 89.5181 282.883 90.3841 283.788 91.0233C284.709 91.6455 285.875 91.9567 287.283 91.9567C288.908 91.9567 290.225 91.5278 291.23 90.6701V92.7892C290.024 93.5965 288.59 94.0002 286.931 94.0002C284.785 94.0002 283.059 93.4199 281.752 92.2595C280.46 91.0822 279.816 89.5263 279.816 87.5923C279.816 85.7759 280.376 84.2874 281.5 83.1269C282.638 81.9664 284.115 81.3862 285.925 81.3862ZM282.078 86.5831H289.596C289.512 85.6077 289.134 84.8257 288.465 84.2369C287.793 83.6482 286.947 83.354 285.925 83.354C284.92 83.354 284.072 83.6482 283.386 84.2369C282.698 84.8257 282.261 85.6077 282.078 86.5831ZM294.878 87.6679C294.878 85.8348 295.448 84.3463 296.588 83.2026C297.729 82.0421 299.212 81.4619 301.038 81.4619C302.312 81.4619 303.393 81.7479 304.282 82.3196V75.5837H306.545V93.7479H304.533L304.433 92.9658C303.493 93.605 302.362 93.9245 301.038 93.9245C299.212 93.9245 297.729 93.3443 296.588 92.1838C295.448 91.0233 294.878 89.5181 294.878 87.6679ZM301.416 83.4296C300.174 83.4296 299.162 83.8248 298.373 84.6154C297.585 85.4059 297.192 86.4318 297.192 87.6932C297.192 88.9546 297.585 89.9804 298.373 90.771C299.162 91.5616 300.174 91.9567 301.416 91.9567C302.572 91.9567 303.528 91.6203 304.282 90.9476V84.4388C303.528 83.7661 302.572 83.4296 301.416 83.4296ZM311.016 93.7479V81.6385H313.253V93.7479H311.016ZM311.041 78.5354C310.773 78.2664 310.638 77.9132 310.638 77.4758C310.638 77.0385 310.773 76.6853 311.041 76.4163C311.326 76.1303 311.685 75.9874 312.122 75.9874C312.558 75.9874 312.91 76.1303 313.178 76.4163C313.464 76.6853 313.605 77.0385 313.605 77.4758C313.605 77.9132 313.464 78.2664 313.178 78.5354C312.91 78.8044 312.558 78.9391 312.122 78.9391C311.685 78.9391 311.326 78.8044 311.041 78.5354ZM321.804 93.9245C320.312 93.9245 319.139 93.605 318.284 92.9658C317.429 92.3099 317.002 91.4269 317.002 90.3169C317.002 89.1397 317.48 88.2145 318.435 87.5418C319.39 86.8691 320.714 86.5327 322.408 86.5327C323.178 86.5327 324.133 86.6169 325.274 86.785V86.1543C325.274 84.3716 324.074 83.4801 321.678 83.4801C320.085 83.4801 318.837 83.8418 317.932 84.5649V82.5214C319.02 81.8151 320.403 81.4619 322.081 81.4619C323.841 81.4619 325.189 81.8488 326.129 82.6223C327.066 83.3792 327.537 84.4725 327.537 85.902V91.0737C327.537 91.8138 328.04 92.1838 329.045 92.1838V93.6722C328.744 93.8236 328.357 93.8993 327.889 93.8993C326.865 93.8993 326.11 93.5376 325.626 92.8145C324.586 93.5546 323.313 93.9245 321.804 93.9245ZM322.86 88.3743C321.736 88.3743 320.856 88.5509 320.22 88.9041C319.582 89.2406 319.265 89.7029 319.265 90.2917C319.265 90.8299 319.516 91.2588 320.019 91.5783C320.538 91.881 321.251 92.0324 322.156 92.0324C323.429 92.0324 324.469 91.6625 325.274 90.9224V88.6014C324.184 88.45 323.379 88.3743 322.86 88.3743Z" fill="#99CBFF"/>
</svg>
