<svg width="250" height="100" viewBox="0 0 250 100" fill="none" xmlns="http://www.w3.org/2000/svg">
<rect width="250" height="100" fill="black"/>
<mask id="mask0_1111_9786" style="mask-type:luminance" maskUnits="userSpaceOnUse" x="12" y="12" width="226" height="76">
<path d="M238 12H12V88H238V12Z" fill="white"/>
</mask>
<g mask="url(#mask0_1111_9786)">
<path d="M105.227 79.0427C105.227 77.6552 104.305 76.5327 102.317 76.5327H98.3008V85.3063H102.317C104.305 85.3063 105.227 84.1829 105.227 82.7953C105.244 82.4209 105.158 82.0489 104.98 81.7187C104.801 81.3885 104.536 81.1125 104.213 80.9199C104.536 80.7268 104.801 80.4505 104.98 80.12C105.158 79.7896 105.243 79.4174 105.227 79.0427ZM102.146 83.7601H100.026V81.6994H102.146C102.989 81.6994 103.502 82.0424 103.502 82.7431C103.502 83.4171 102.975 83.7601 102.146 83.7601ZM102.146 80.1532H100.026V78.0788H102.146C102.989 78.0788 103.502 78.4218 103.502 79.1225C103.502 79.7965 102.975 80.1532 102.146 80.1532Z" fill="white"/>
<path d="M112.813 81.6196C112.813 83.1392 112.022 83.9316 110.706 83.9316C109.389 83.9316 108.587 83.1392 108.587 81.6196V76.5327H106.861V81.6334C106.858 82.1369 106.954 82.6362 107.145 83.1025C107.336 83.5688 107.618 83.993 107.975 84.3504C108.332 84.7078 108.756 84.9915 109.224 85.1851C109.692 85.3787 110.193 85.4783 110.7 85.4783C111.206 85.4783 111.708 85.3787 112.175 85.1851C112.643 84.9915 113.067 84.7078 113.424 84.3504C113.781 83.993 114.063 83.5688 114.254 83.1025C114.445 82.6362 114.542 82.1369 114.538 81.6334V76.5327H112.813V81.6196Z" fill="white"/>
<path d="M119.813 80.4696L117.416 76.5325H115.52L118.944 82.2138V85.3062H120.668V82.2138L124.065 76.5325H122.195L119.813 80.4696Z" fill="white"/>
<path d="M133.809 80.1401H129.569V76.5332H127.844V85.306H129.569V81.6863H133.809V85.306H135.534V76.5332H133.809V80.1401Z" fill="white"/>
<path d="M141.611 76.3604C140.702 76.3521 139.811 76.6123 139.051 77.1082C138.292 77.604 137.697 78.3131 137.344 79.1454C136.99 79.9777 136.893 80.8956 137.065 81.7827C137.238 82.6698 137.671 83.4861 138.311 84.1279C138.95 84.7697 139.767 85.2081 140.658 85.3874C141.549 85.5668 142.473 85.479 143.313 85.1352C144.154 84.7913 144.872 84.207 145.378 83.4564C145.884 82.7058 146.154 81.8226 146.154 80.9191C146.172 80.3191 146.068 79.7217 145.846 79.1632C145.625 78.6046 145.292 78.0967 144.867 77.6702C144.442 77.2438 143.934 76.9078 143.374 76.6826C142.814 76.4574 142.214 76.3478 141.611 76.3604ZM141.611 83.9318C141.002 83.9758 140.394 83.8365 139.866 83.5321C139.338 83.2277 138.915 82.7722 138.651 82.2251C138.387 81.678 138.295 81.0646 138.387 80.4648C138.479 79.865 138.75 79.3065 139.166 78.8622C139.581 78.4179 140.122 78.1084 140.717 77.9739C141.312 77.8393 141.934 77.8861 142.502 78.1081C143.07 78.3301 143.558 78.717 143.901 79.2184C144.245 79.7198 144.429 80.3124 144.429 80.9191C144.448 81.3021 144.39 81.6851 144.257 82.0453C144.125 82.4055 143.922 82.7357 143.659 83.0165C143.396 83.2973 143.08 83.5229 142.728 83.6801C142.376 83.8373 141.996 83.9229 141.611 83.9318Z" fill="white"/>
<path d="M152.923 83.4436L149.709 76.5325H147.695V85.3062H149.421V79.8093L151.962 85.3062H153.832L156.373 79.8093V85.3062H158.098V76.5325H156.136L152.923 83.4436Z" fill="white"/>
<path d="M160.146 85.306H166.283V83.7598H161.872V81.6854H166.191V80.1401H161.872V78.0785H166.283V76.5332H160.146V85.306Z" fill="white"/>
<path d="M172.562 76.5334H170.838V85.3061H172.562V76.5334Z" fill="white"/>
<path d="M180.794 82.6898L176.448 76.5325H174.578V85.3062H176.303V79.1481L180.649 85.3062H182.518V76.5325H180.794V82.6898Z" fill="white"/>
<path d="M189.036 76.5334H187.311V85.3061H189.036V76.5334Z" fill="white"/>
<path d="M194.127 77.9063C194.546 77.8746 194.965 77.9561 195.341 78.1423C195.716 78.3285 196.034 78.6123 196.261 78.9636H198.013C197.746 78.1687 197.224 77.483 196.527 77.0125C195.829 76.5419 194.996 76.3127 194.154 76.3601C192.021 76.3601 190.678 77.4963 190.678 79.1085C190.678 80.4171 191.428 81.4213 193.259 81.5929L194.76 81.7386C195.799 81.8441 196.235 82.1614 196.235 82.7951C196.235 83.4829 195.497 83.9314 194.391 83.9314C193.96 83.9773 193.525 83.9027 193.134 83.7161C192.743 83.5295 192.412 83.2382 192.179 82.8749H190.428C190.888 84.355 192.074 85.4776 194.391 85.4776C196.762 85.4776 197.959 84.1569 197.959 82.7291C197.959 81.3553 196.946 80.3906 195.26 80.2191L193.654 80.0604C192.864 79.9678 192.402 79.6377 192.402 79.0562C192.402 78.4345 192.969 77.9063 194.127 77.9063Z" fill="white"/>
<path d="M206.863 79.2283C206.863 77.7876 205.914 76.533 203.834 76.533H199.516V85.3058H201.241V81.9373H202.624L205.177 85.3058H207.324L204.704 81.8576C205.328 81.7625 205.893 81.441 206.292 80.9554C206.691 80.4698 206.894 79.8544 206.863 79.2283ZM201.241 80.3911V78.0792H203.716C204.612 78.0792 205.138 78.5277 205.138 79.2283C205.138 79.9289 204.612 80.3911 203.716 80.3911H201.241Z" fill="white"/>
<path d="M211.791 76.533L207.986 85.3057H209.75L210.607 83.3642H214.596L215.452 85.3057H217.283L213.477 76.533H211.791ZM211.291 81.8172L212.608 78.8321L213.912 81.8172H211.291Z" fill="white"/>
<path d="M218.295 85.306H224.432V83.7598H220.02V81.6854H224.339V80.1401H220.02V78.0785H224.432V76.5332H218.295V85.306Z" fill="white"/>
<path d="M228.003 76.5325H226.277V85.3053H232.414V83.76H228.003V76.5325Z" fill="white"/>
<path d="M217.174 12.4192H209.555V66.2572H217.174V12.4192Z" fill="white"/>
<path d="M232.413 12.4192H224.793V66.2572H232.413V12.4192Z" fill="white"/>
<path d="M162.309 39.4939H194.313V66.2573H201.934V39.4939V31.8617V12.4185H194.313V31.8617H162.309V12.4185H154.689V31.8617V39.4939V66.2573H162.309V39.4939Z" fill="white"/>
<path d="M150.117 49.0568C150.121 45.7951 149.192 42.5996 147.438 39.8434C145.684 37.0871 143.177 34.8837 140.21 33.4905C141.573 31.4572 142.357 29.0957 142.48 26.6558C142.603 24.2159 142.061 21.7882 140.911 19.6294C139.761 17.4706 138.045 15.6609 135.945 14.3916C133.846 13.1224 131.44 12.4407 128.983 12.4187H98.3008V66.2704L132.959 66.2532C137.528 66.2335 141.902 64.411 145.119 61.1863C148.337 57.9616 150.135 53.5987 150.117 49.0568ZM105.921 20.0526H128.983C130.55 20.0642 132.05 20.6914 133.154 21.7974C134.258 22.9034 134.878 24.3985 134.878 25.9569C134.878 27.5152 134.258 29.0104 133.154 30.1164C132.05 31.2224 130.55 31.8495 128.983 31.8611H105.921V20.0526ZM105.921 58.6373V39.4942H132.942C135.483 39.5133 137.913 40.5302 139.703 42.3231C141.493 44.1161 142.497 46.5397 142.497 49.0658C142.497 51.5918 141.493 54.0155 139.703 55.8084C137.913 57.6013 135.483 58.6182 132.942 58.6373H105.921Z" fill="white"/>
<path d="M33.4478 66.6946H11.5859V86.1902H33.4478V66.6946Z" fill="#F7B018"/>
<path d="M42.1836 66.7078V86.1905H63.7953V66.7078C63.7953 66.6786 42.1836 66.7078 42.1836 66.7078Z" fill="#F7B018"/>
<path d="M86.4056 66.6946H72.5332V86.1902H86.4056V66.6946Z" fill="#F7B018"/>
<path d="M86.4039 39.8618H59.6562V58.138H86.4039V39.8618Z" fill="#F7B018"/>
<path d="M50.9208 39.8618H11.5859V58.138H50.9208V39.8618Z" fill="#F7B018"/>
<path d="M35.5923 11.8096H11.5859V31.3052H35.5923V11.8096Z" fill="#F7B018"/>
<path d="M86.4034 11.8096H44.3281V31.3052H86.4034V11.8096Z" fill="#F7B018"/>
</g>
</svg>
