<svg width="364" height="84" viewBox="0 0 364 84" fill="none" xmlns="http://www.w3.org/2000/svg">
<path d="M4.5552 69.552V76.23H1.01221V60.27H4.5552V66.528H8.60433L11.9786 60.27H15.6059L11.5146 67.956L15.8168 76.23H12.063L8.51997 69.552H4.5552Z" fill="black"/>
<path d="M29.5248 60.5221C30.5371 60.9421 31.3807 61.5301 32.0555 62.2441C32.7726 63.0001 33.2787 63.8821 33.6583 64.8901C34.0379 65.8981 34.2066 67.0321 34.2066 68.2501C34.2066 69.4681 34.0379 70.6021 33.6583 71.6521C33.2787 72.6601 32.7726 73.5421 32.0555 74.2981C31.3385 75.0541 30.4949 75.6001 29.5248 76.0201C28.5126 76.4401 27.4159 76.6501 26.1506 76.6501C24.8852 76.6501 23.7464 76.4401 22.7763 76.0201C21.764 75.6001 20.9204 75.0121 20.2456 74.2981C19.5285 73.5421 19.0224 72.6601 18.6428 71.6521C18.2632 70.6441 18.0945 69.5101 18.0945 68.2501C18.0945 67.0321 18.2632 65.9401 18.6428 64.8901C19.0224 63.8821 19.5285 63.0001 20.2456 62.2441C20.9626 61.4881 21.8062 60.9421 22.7763 60.5221C23.7886 60.1021 24.8852 59.8921 26.1506 59.8921C27.4159 59.8921 28.5126 60.1021 29.5248 60.5221ZM28.133 73.2061C28.6813 72.9121 29.1874 72.5341 29.567 72.0301C29.9466 71.5261 30.2419 70.9381 30.4106 70.3081C30.5793 69.6781 30.6637 68.9641 30.6637 68.2501C30.6637 67.5781 30.5793 66.9061 30.4106 66.2341C30.2419 65.6041 29.9466 65.0161 29.567 64.5121C29.1874 64.0081 28.7234 63.6301 28.133 63.3361C27.5846 63.0421 26.9098 62.9161 26.1084 62.9161C25.3492 62.9161 24.6743 63.0421 24.0838 63.3361C23.4933 63.6301 23.0294 64.0081 22.6498 64.5121C22.2701 65.0161 21.9749 65.6041 21.8062 66.2341C21.6375 66.8641 21.5531 67.5361 21.5531 68.2501C21.5531 68.9641 21.6375 69.6361 21.8062 70.3081C21.9749 70.9381 22.2701 71.5261 22.6498 72.0301C23.0294 72.5341 23.4933 72.9121 24.0838 73.2061C24.6743 73.5001 25.307 73.6261 26.1084 73.6261C26.9098 73.6261 27.5846 73.5001 28.133 73.2061Z" fill="black"/>
<path d="M43.1485 60.27L46.9446 67.242H47.5772L51.3311 60.27H56.2238V76.23H52.723V64.764H52.0903L48.8004 70.77H45.5949L42.3049 64.764H41.6723V76.23H38.2136V60.27H43.1485Z" fill="black"/>
<path d="M72.2937 63.294H64.6594V76.23H61.1165V60.27H75.8367V76.23H72.2937V63.294Z" fill="black"/>
<path d="M83.9349 53.844V62.328H80.645V53.844H83.9349Z" fill="black"/>
<path d="M106.711 60.5221C107.682 60.9421 108.525 61.5301 109.242 62.2861C109.917 63.0421 110.465 63.9241 110.845 64.9321C111.225 65.9401 111.393 67.0741 111.393 68.2501C111.393 69.4261 111.225 70.5601 110.845 71.5681C110.465 72.5761 109.917 73.5001 109.242 74.2141C108.567 74.9701 107.724 75.5581 106.711 75.9781C105.741 76.3981 104.603 76.6081 103.422 76.6081C102.325 76.6081 101.313 76.4401 100.385 76.0621C99.4568 75.7261 98.6976 75.2221 98.0227 74.5921C97.3479 73.9621 96.7995 73.2061 96.3778 72.3661C95.956 71.4841 95.7029 70.5601 95.5764 69.5101H92.2865V76.2301H88.7856V60.2701H92.2865V66.5281H95.6607C95.7873 65.5621 96.0825 64.6801 96.5465 63.8821C96.9683 63.0841 97.5166 62.3701 98.1914 61.7821C98.8663 61.1941 99.6255 60.7321 100.511 60.3961C101.397 60.0601 102.367 59.8921 103.422 59.8921C104.603 59.8921 105.699 60.1021 106.711 60.5221ZM105.362 73.2061C105.91 72.9121 106.374 72.5341 106.754 72.0301C107.091 71.5261 107.386 70.9381 107.555 70.3081C107.724 69.6781 107.808 68.9641 107.808 68.2501C107.808 67.5781 107.724 66.9061 107.555 66.2341C107.386 65.6041 107.091 65.0161 106.754 64.5121C106.416 64.0081 105.952 63.6301 105.362 63.3361C104.813 63.0421 104.139 62.9161 103.379 62.9161C102.62 62.9161 101.945 63.0421 101.397 63.3361C100.849 63.6301 100.385 64.0081 100.005 64.5121C99.6255 65.0161 99.3724 65.6041 99.2037 66.2341C99.035 66.8641 98.9507 67.5361 98.9507 68.2501C98.9507 68.9641 99.035 69.6361 99.2037 70.3081C99.3724 70.9381 99.6677 71.5261 100.005 72.0301C100.385 72.5341 100.849 72.9121 101.397 73.2061C101.945 73.5001 102.62 73.6261 103.379 73.6261C104.139 73.6261 104.813 73.5001 105.362 73.2061Z" fill="black"/>
<path d="M127.885 60.27V63.294H122.486V76.23H118.943V63.294H113.544V60.27H127.885Z" fill="black"/>
<path d="M133.706 68.5861C133.748 70.2241 134.127 71.4841 134.887 72.3661C135.646 73.2481 136.742 73.6681 138.176 73.6681C139.147 73.6681 139.906 73.5001 140.454 73.1221C141.002 72.7441 141.424 72.2821 141.635 71.6101H145.262C144.967 73.0801 144.208 74.2981 143.027 75.2641C141.846 76.1881 140.201 76.6921 138.134 76.6921C136.869 76.6921 135.772 76.4821 134.76 76.0621C133.79 75.6421 132.946 75.0541 132.229 74.2981C131.554 73.5421 131.006 72.6601 130.669 71.6101C130.331 70.5601 130.12 69.4261 130.12 68.1661C130.12 66.9061 130.289 65.7721 130.669 64.7641C131.048 63.7561 131.554 62.8741 132.229 62.1601C132.904 61.4461 133.706 60.9001 134.718 60.4801C135.688 60.1021 136.785 59.8921 138.05 59.8921C139.231 59.8921 140.285 60.1021 141.213 60.4801C142.141 60.8581 142.9 61.4041 143.533 62.0761C144.166 62.7481 144.63 63.5461 144.967 64.4701C145.305 65.3941 145.473 66.3601 145.473 67.3681V68.5441H133.706V68.5861ZM135.182 63.6301C134.507 64.2601 134.085 65.0161 133.874 65.9401H141.888C141.804 65.0581 141.424 64.2601 140.792 63.6721C140.159 63.0421 139.231 62.7481 138.05 62.7481C136.785 62.7061 135.814 63.0001 135.182 63.6301Z" fill="black"/>
<path d="M155.343 76.1041C154.626 75.7261 154.078 75.2641 153.656 74.6761H153.023V82.5301H149.48V60.3121H152.939V61.8661H153.572C153.993 61.3201 154.584 60.8581 155.301 60.4801C156.018 60.1021 156.988 59.8921 158.169 59.8921C159.266 59.8921 160.236 60.1021 161.121 60.5221C162.007 60.9421 162.766 61.5301 163.357 62.2861C163.99 63.0421 164.454 63.9241 164.791 64.9321C165.128 65.9401 165.297 67.0741 165.297 68.2921C165.297 69.5101 165.128 70.6021 164.791 71.6521C164.454 72.6601 163.99 73.5421 163.357 74.2981C162.766 75.0541 162.007 75.6001 161.121 76.0201C160.236 76.4401 159.266 76.6501 158.169 76.6501C157.03 76.6501 156.06 76.4821 155.343 76.1041ZM155.385 63.3361C154.837 63.6301 154.373 64.0081 153.993 64.5121C153.614 65.0161 153.361 65.6041 153.192 66.2341C153.023 66.8641 152.939 67.5781 152.939 68.2921C152.939 68.9641 153.023 69.6361 153.192 70.3081C153.361 70.9381 153.614 71.5261 153.993 72.0301C154.373 72.5341 154.837 72.9121 155.385 73.2061C155.934 73.5001 156.608 73.6261 157.368 73.6261C158.085 73.6261 158.759 73.5001 159.308 73.2061C159.856 72.9541 160.32 72.5761 160.658 72.0721C161.037 71.6101 161.29 71.0221 161.459 70.3921C161.628 69.7621 161.712 69.0481 161.712 68.2501C161.712 67.4941 161.628 66.7801 161.459 66.1081C161.29 65.4361 160.995 64.8901 160.658 64.3861C160.278 63.9241 159.814 63.5461 159.308 63.2521C158.759 63.0001 158.127 62.8321 157.368 62.8321C156.608 62.8741 155.934 63.0421 155.385 63.3361Z" fill="black"/>
<path d="M180.566 69.552H172.805V76.23H169.262V60.27H172.805V66.528H180.566V60.27H184.109V76.23H180.566V69.552Z" fill="black"/>
<path d="M189.044 60.27H192.502V70.728H193.135L199.884 60.27H203.975V76.23H200.516V65.772H199.884L193.051 76.23H189.044V60.27Z" fill="black"/>
<path d="M208.868 60.27H212.326V70.728H212.959L219.708 60.27H223.799V76.23H220.34V65.772H219.708L212.875 76.23H208.868V60.27ZM220.129 57.078C219.201 57.876 217.936 58.296 216.291 58.296C214.646 58.296 213.381 57.876 212.453 57.078C211.525 56.28 211.061 55.104 210.977 53.676H213.76C213.803 54.348 214.013 54.894 214.435 55.314C214.815 55.734 215.448 55.944 216.291 55.944C217.135 55.944 217.767 55.734 218.147 55.314C218.527 54.894 218.78 54.348 218.822 53.676H221.606C221.563 55.104 221.057 56.238 220.129 57.078Z" fill="black"/>
<path d="M242.399 60.27L246.196 67.242H246.828L250.582 60.27H255.475V76.23H252.016V64.764H251.383L248.094 70.77H244.888L241.598 64.764H240.965V76.23H237.465V60.27H242.399Z" fill="black"/>
<path d="M269.731 74.7181C269.267 75.3061 268.634 75.8101 267.833 76.1461C267.032 76.4821 266.104 76.6501 264.965 76.6501C264.037 76.6501 263.236 76.5241 262.476 76.2301C261.759 75.9361 261.127 75.5581 260.663 75.0541C260.157 74.5501 259.777 74.0041 259.566 73.3741C259.313 72.7441 259.187 72.0721 259.187 71.4001C259.187 70.7701 259.313 70.1401 259.524 69.5101C259.735 68.8801 260.114 68.2921 260.621 67.7881C261.127 67.2841 261.759 66.8641 262.603 66.5281C263.404 66.1921 264.374 66.0241 265.555 66.0241H270.279V65.5621C270.279 64.6801 270.026 63.9661 269.478 63.4621C268.93 62.9161 268.086 62.6641 266.905 62.6641C265.893 62.6641 265.091 62.8321 264.585 63.2101C264.079 63.5881 263.784 64.0921 263.7 64.6801H260.157C260.199 63.9241 260.368 63.2521 260.705 62.6641C261.042 62.0761 261.506 61.5721 262.097 61.1521C262.687 60.7321 263.362 60.3961 264.164 60.1861C264.965 59.9761 265.809 59.8501 266.779 59.8501C267.791 59.8501 268.761 59.9761 269.605 60.1861C270.448 60.3961 271.207 60.7741 271.798 61.2361C272.388 61.6981 272.852 62.2861 273.19 63.0421C273.527 63.7561 273.696 64.6381 273.696 65.6041V76.1881H270.364V74.6341H269.731V74.7181ZM267.664 73.4581C268.171 73.2481 268.634 72.9961 269.014 72.6181C269.394 72.2821 269.689 71.8621 269.9 71.4001C270.111 70.9381 270.237 70.4341 270.237 69.8881V68.7121H266.146C265.007 68.7121 264.164 68.9221 263.615 69.3841C263.067 69.8461 262.772 70.4761 262.772 71.2741C262.772 72.0721 263.067 72.7021 263.615 73.1221C264.164 73.5421 264.965 73.7941 266.019 73.7941C266.61 73.7521 267.158 73.6681 267.664 73.4581Z" fill="black"/>
<path d="M290.862 60.27V63.294H281.921V76.23H278.378V60.27H290.862Z" fill="black"/>
<path d="M303.305 74.7181C302.841 75.3061 302.208 75.8101 301.407 76.1461C300.606 76.4821 299.678 76.6501 298.539 76.6501C297.611 76.6501 296.81 76.5241 296.05 76.2301C295.333 75.9361 294.701 75.5581 294.237 75.0541C293.731 74.5501 293.351 74.0041 293.14 73.3741C292.887 72.7441 292.76 72.0721 292.76 71.4001C292.76 70.7701 292.887 70.1401 293.098 69.5101C293.309 68.8801 293.688 68.2921 294.195 67.7881C294.701 67.2841 295.333 66.8641 296.177 66.5281C296.978 66.1921 297.948 66.0241 299.129 66.0241H303.853V65.5621C303.853 64.6801 303.6 63.9661 303.052 63.4621C302.504 62.9161 301.66 62.6641 300.479 62.6641C299.467 62.6641 298.666 62.8321 298.159 63.2101C297.653 63.5881 297.358 64.0921 297.274 64.6801H293.731C293.773 63.9241 293.942 63.2521 294.279 62.6641C294.616 62.0761 295.08 61.5721 295.671 61.1521C296.261 60.7321 296.936 60.3961 297.738 60.1861C298.539 59.9761 299.383 59.8501 300.353 59.8501C301.365 59.8501 302.335 59.9761 303.179 60.1861C304.022 60.3961 304.781 60.7741 305.372 61.2361C305.962 61.6981 306.426 62.2861 306.764 63.0421C307.101 63.7981 307.27 64.6381 307.27 65.6041V76.1881H303.938V74.6341H303.305V74.7181ZM301.281 73.4581C301.787 73.2481 302.251 72.9961 302.63 72.6181C303.01 72.2821 303.305 71.8621 303.516 71.4001C303.727 70.9381 303.853 70.4341 303.853 69.8881V68.7121H299.762C298.623 68.7121 297.78 68.9221 297.231 69.3841C296.683 69.8461 296.388 70.4761 296.388 71.2741C296.388 72.0721 296.683 72.7021 297.231 73.1221C297.78 73.5421 298.581 73.7941 299.636 73.7941C300.184 73.7521 300.732 73.6681 301.281 73.4581Z" fill="black"/>
<path d="M320.303 63.3781C319.755 63.0841 318.996 62.9161 318.025 62.9161C316.043 62.9161 314.904 63.5881 314.609 64.9741H311.319C311.488 63.3361 312.205 62.0761 313.47 61.1941C314.736 60.3541 316.338 59.8921 318.236 59.8921C319.249 59.8921 320.177 60.0181 320.978 60.2701C321.779 60.5221 322.454 60.8161 323.003 61.2361C323.551 61.6561 323.973 62.1181 324.268 62.6641C324.563 63.2101 324.69 63.7981 324.69 64.4281C324.69 65.3521 324.521 66.0661 324.183 66.5701C323.846 67.0741 323.466 67.4101 323.045 67.5781V68.2081C323.635 68.3761 324.141 68.7541 324.563 69.3001C324.985 69.8461 325.196 70.6441 325.196 71.6941C325.196 72.3661 325.027 73.0381 324.732 73.6261C324.437 74.2141 323.973 74.7601 323.382 75.1801C322.792 75.6001 322.075 75.9781 321.231 76.2301C320.387 76.4821 319.417 76.6081 318.321 76.6081C315.959 76.6081 314.187 76.1461 312.922 75.2221C311.699 74.2981 310.939 73.0381 310.771 71.4421H314.103C314.229 71.8621 314.44 72.1981 314.693 72.4921C314.946 72.7861 315.284 72.9961 315.621 73.1641C315.959 73.3321 316.38 73.4581 316.802 73.5001C317.224 73.5421 317.688 73.5841 318.194 73.5841C319.249 73.5841 320.092 73.4161 320.725 73.0801C321.358 72.7441 321.695 72.1981 321.695 71.4841C321.695 70.8541 321.484 70.3501 321.02 70.0141C320.556 69.6781 319.797 69.5101 318.658 69.5101H315.917V66.6121H318.489C319.46 66.6121 320.134 66.4441 320.556 66.1081C320.978 65.7721 321.189 65.3101 321.189 64.7641C321.147 64.1761 320.894 63.6721 320.303 63.3781Z" fill="black"/>
<path d="M329.287 60.27H332.746V70.728H333.378L340.127 60.27H344.218V76.23H340.76V65.772H340.127L333.294 76.23H329.287V60.27Z" fill="black"/>
<path d="M360.415 69.552H352.654V76.23H349.111V60.27H352.654V66.528H360.415V60.27H363.958V76.23H360.415V69.552Z" fill="black"/>
<mask id="mask0_706_3488" style="mask-type:luminance" maskUnits="userSpaceOnUse" x="0" y="1" width="364" height="45">
<path d="M364 1.46997H0V45.486H364V1.46997Z" fill="white"/>
</mask>
<g mask="url(#mask0_706_3488)">
<mask id="mask1_706_3488" style="mask-type:luminance" maskUnits="userSpaceOnUse" x="0" y="1" width="364" height="45">
<path d="M364 1.46997H0V45.486H364V1.46997Z" fill="white"/>
</mask>
<g mask="url(#mask1_706_3488)">
<path d="M39.943 34.104H27.2473C22.6076 34.104 19.3599 33.138 17.5462 31.248C15.6904 29.358 14.7625 26.796 14.7625 23.604C14.7625 16.506 18.9381 12.978 27.2473 12.978H39.9852C45.8902 12.978 49.6862 14.742 51.3734 18.228H66.8107C65.7984 13.272 63.352 9.28197 59.4294 6.13197C55.5068 3.02397 50.1502 1.46997 43.3595 1.46997H23.7886C17.1245 1.46997 11.4725 3.19197 6.87509 6.63597C2.27764 10.122 0 15.792 0 23.688C0 29.946 1.34971 34.566 4.04913 37.548C6.74855 40.53 9.65886 42.63 12.7801 43.764C15.9013 44.898 19.5708 45.486 23.7886 45.486H43.3173C50.3611 45.486 55.8443 43.89 59.7247 40.74C63.6051 37.548 66.0093 33.39 66.8528 28.266H51.6264C50.1502 32.172 46.2698 34.104 39.943 34.104Z" fill="black"/>
</g>
<mask id="mask2_706_3488" style="mask-type:luminance" maskUnits="userSpaceOnUse" x="0" y="1" width="364" height="45">
<path d="M364 1.46997H0V45.486H364V1.46997Z" fill="white"/>
</mask>
<g mask="url(#mask2_706_3488)">
<path d="M186.049 30.1559L167.659 2.09985H146.401V44.9399H161.164V16.0859L180.018 44.9399H192.376L210.766 16.0439V44.9399H225.486V2.09985H203.933L186.049 30.1559Z" fill="black"/>
</g>
<mask id="mask3_706_3488" style="mask-type:luminance" maskUnits="userSpaceOnUse" x="0" y="1" width="364" height="45">
<path d="M364 1.46997H0V45.486H364V1.46997Z" fill="white"/>
</mask>
<g mask="url(#mask3_706_3488)">
<path d="M290.272 6.00587C287.109 3.35987 282.047 2.01587 275.088 2.01587H234.048V44.9399H248.811V33.8939H275.256C282.005 33.8939 286.982 32.5079 290.188 29.6939C293.393 26.8799 294.996 22.8899 294.996 17.7239C295.038 12.5999 293.435 8.65187 290.272 6.00587ZM278.926 21.3779C278.04 21.9659 276.48 22.3019 274.244 22.3019H248.811V13.7339H274.244C276.437 13.7339 277.998 14.0279 278.884 14.6579C279.77 15.2879 280.233 16.4219 280.233 18.0179C280.233 19.6139 279.812 20.7479 278.926 21.3779Z" fill="black"/>
</g>
<mask id="mask4_706_3488" style="mask-type:luminance" maskUnits="userSpaceOnUse" x="0" y="1" width="364" height="45">
<path d="M364 1.46997H0V45.486H364V1.46997Z" fill="white"/>
</mask>
<g mask="url(#mask4_706_3488)">
<path d="M364 2.09985H343.67L329.034 14.7419L314.398 2.09985H294.068L318.869 23.5619L294.068 44.9399H314.525L329.034 32.3819L343.543 44.9399H364L339.241 23.5619L364 2.09985Z" fill="black"/>
</g>
</g>
<mask id="mask5_706_3488" style="mask-type:luminance" maskUnits="userSpaceOnUse" x="0" y="1" width="364" height="45">
<path d="M364 1.46997H0V45.486H364V1.46997Z" fill="white"/>
</mask>
<g mask="url(#mask5_706_3488)">
<mask id="mask6_706_3488" style="mask-type:luminance" maskUnits="userSpaceOnUse" x="70" y="1" width="71" height="45">
<path d="M85.2847 23.436C85.2847 17.472 90.1353 12.642 96.1246 12.642H114.725C120.715 12.642 125.565 17.472 125.565 23.436C125.565 29.4 120.715 34.23 114.725 34.23H96.1246C90.1353 34.23 85.2847 29.4 85.2847 23.436ZM94.3531 1.46999C90.1353 1.46999 86.4657 2.05799 83.3445 3.23399C80.2233 4.40999 77.7348 6.04799 75.9211 8.14799C74.1074 10.248 72.7577 12.6 71.872 15.162C71.0284 17.724 70.5645 20.538 70.5645 23.604C70.5645 26.67 70.9862 29.484 71.872 32.004C72.7156 34.566 74.0653 36.876 75.9211 38.934C77.7348 40.992 80.2233 42.588 83.3445 43.764C86.4657 44.898 90.1353 45.486 94.3531 45.486H116.328C120.504 45.486 124.173 44.898 127.294 43.722C130.416 42.546 132.904 40.908 134.802 38.85C136.658 36.792 138.05 34.482 138.978 31.92C139.864 29.358 140.328 26.586 140.328 23.562C140.328 20.538 139.864 17.766 138.978 15.162C138.092 12.6 136.7 10.248 134.844 8.14799C132.989 6.04799 130.5 4.40999 127.294 3.19199C124.131 1.97399 120.462 1.38599 116.328 1.38599H94.3531V1.46999Z" fill="white"/>
</mask>
<g mask="url(#mask6_706_3488)">
<path d="M51.4155 12.5159L122.824 -28.6021L159.477 34.4819L88.0264 75.5999L51.4155 12.5159Z" fill="url(#paint0_linear_706_3488)"/>
</g>
</g>
<defs>
<linearGradient id="paint0_linear_706_3488" x1="43.3079" y1="59.3138" x2="203.055" y2="-33.4427" gradientUnits="userSpaceOnUse">
<stop stop-color="#FD0000"/>
<stop offset="0.2062" stop-color="#FD0000"/>
<stop offset="0.4084" stop-color="#0B56C1"/>
<stop offset="0.4514" stop-color="#1D8F99"/>
<stop offset="0.4928" stop-color="#2CBE78"/>
<stop offset="0.5292" stop-color="#36E160"/>
<stop offset="0.5591" stop-color="#3DF551"/>
<stop offset="0.5789" stop-color="#3FFD4C"/>
<stop offset="1" stop-color="#3FFD4C"/>
</linearGradient>
</defs>
</svg>
