<svg width="344" height="100" viewBox="0 0 344 100" fill="none" xmlns="http://www.w3.org/2000/svg">
<rect width="343.999" height="100" transform="translate(0.000488281)" fill="#292C2E"/>
<path d="M245.756 78.8326V67.1139H247.331V77.4598H254.472V78.8326H245.756ZM256.628 78.8326V70.7969H258.12V78.8326H256.628ZM256.645 68.7377C256.467 68.5592 256.377 68.3248 256.377 68.0346C256.377 67.7444 256.467 67.51 256.645 67.3315C256.835 67.1417 257.075 67.0469 257.366 67.0469C257.657 67.0469 257.891 67.1417 258.07 67.3315C258.26 67.51 258.355 67.7444 258.355 68.0346C258.355 68.3248 258.26 68.5592 258.07 68.7377C257.891 68.9163 257.657 69.0056 257.366 69.0056C257.075 69.0056 256.835 68.9163 256.645 68.7377ZM261.105 70.7969H262.446L262.547 71.5335C263.194 70.9419 264.022 70.6462 265.027 70.6462C266.178 70.6462 267.089 70.9754 267.76 71.6339C268.441 72.2812 268.782 73.1685 268.782 74.2958V78.8326H267.29V74.2958C267.29 73.5703 267.06 73.0011 266.603 72.5882C266.155 72.164 265.547 71.952 264.776 71.952C263.904 71.952 263.178 72.2701 262.597 72.9062V78.8326H261.105V70.7969ZM275.24 70.6295C276.493 70.6295 277.482 71.0647 278.207 71.9353C278.934 72.7947 279.252 73.9163 279.162 75.3002H272.692C272.839 76.0257 273.212 76.6004 273.815 77.0245C274.431 77.4374 275.207 77.6439 276.145 77.6439C277.23 77.6439 278.106 77.3594 278.777 76.7902V78.1964C277.972 78.7321 277.017 79 275.911 79C274.481 79 273.329 78.6149 272.458 77.8448C271.598 77.0636 271.167 76.0312 271.167 74.7478C271.167 73.5424 271.542 72.5547 272.29 71.7846C273.05 71.0145 274.033 70.6295 275.24 70.6295ZM272.675 74.0781H277.687C277.632 73.4308 277.381 72.9119 276.933 72.5212C276.487 72.1305 275.923 71.9353 275.24 71.9353C274.57 71.9353 274.006 72.1305 273.547 72.5212C273.09 72.9119 272.799 73.4308 272.675 74.0781ZM283.222 78.8326H281.73V70.7969H283.071L283.171 71.5335C283.786 70.9419 284.573 70.6462 285.535 70.6462C286.775 70.6462 287.708 71.0536 288.334 71.8683C289.015 71.0536 289.981 70.6462 291.234 70.6462C292.328 70.6462 293.2 70.9643 293.849 71.6005C294.507 72.2366 294.838 73.096 294.838 74.1786V78.8326H293.346V74.1618C293.346 73.4811 293.133 72.9454 292.709 72.5547C292.295 72.1529 291.731 71.952 291.016 71.952C290.122 71.952 289.411 72.2979 288.887 72.99C288.988 73.3583 289.038 73.7544 289.038 74.1786V78.8326H287.53V74.1618C287.53 73.4811 287.322 72.9454 286.909 72.5547C286.495 72.1529 285.937 71.952 285.233 71.952C284.416 71.952 283.746 72.2701 283.222 72.9062V78.8326ZM301.283 70.6295C302.535 70.6295 303.523 71.0647 304.25 71.9353C304.976 72.7947 305.294 73.9163 305.206 75.3002H298.736C298.88 76.0257 299.255 76.6004 299.859 77.0245C300.473 77.4374 301.25 77.6439 302.189 77.6439C303.272 77.6439 304.15 77.3594 304.82 76.7902V78.1964C304.016 78.7321 303.06 79 301.954 79C300.523 79 299.373 78.6149 298.501 77.8448C297.64 77.0636 297.21 76.0312 297.21 74.7478C297.21 73.5424 297.584 72.5547 298.333 71.7846C299.092 71.0145 300.077 70.6295 301.283 70.6295ZM298.719 74.0781H303.731C303.674 73.4308 303.423 72.9119 302.976 72.5212C302.528 72.1305 301.965 71.9353 301.283 71.9353C300.613 71.9353 300.048 72.1305 299.591 72.5212C299.132 72.9119 298.841 73.4308 298.719 74.0781ZM307.252 74.798C307.252 73.5815 307.632 72.5938 308.392 71.8348C309.152 71.0647 310.141 70.6797 311.359 70.6797C312.208 70.6797 312.928 70.8695 313.521 71.2489V66.7791H315.03V78.8326H313.689L313.622 78.3136C312.995 78.7377 312.241 78.9497 311.359 78.9497C310.141 78.9497 309.152 78.5647 308.392 77.7946C307.632 77.0245 307.252 76.0257 307.252 74.798ZM311.61 71.9855C310.783 71.9855 310.108 72.2477 309.582 72.7723C309.056 73.2969 308.794 73.9777 308.794 74.8147C308.794 75.6518 309.056 76.3325 309.582 76.8571C310.108 77.3817 310.783 77.6439 311.61 77.6439C312.381 77.6439 313.018 77.4207 313.521 76.9743V72.6551C313.018 72.2088 312.381 71.9855 311.61 71.9855ZM318.01 78.8326V70.7969H319.502V78.8326H318.01ZM318.027 68.7377C317.849 68.5592 317.759 68.3248 317.759 68.0346C317.759 67.7444 317.849 67.51 318.027 67.3315C318.218 67.1417 318.457 67.0469 318.748 67.0469C319.039 67.0469 319.274 67.1417 319.452 67.3315C319.642 67.51 319.737 67.7444 319.737 68.0346C319.737 68.3248 319.642 68.5592 319.452 68.7377C319.274 68.9163 319.039 69.0056 318.748 69.0056C318.457 69.0056 318.218 68.9163 318.027 68.7377ZM325.203 78.9497C324.208 78.9497 323.426 78.7377 322.856 78.3136C322.286 77.8783 322.001 77.2924 322.001 76.5558C322.001 75.7746 322.32 75.1606 322.957 74.7143C323.594 74.2679 324.476 74.0446 325.605 74.0446C326.119 74.0446 326.756 74.1005 327.516 74.212V73.7935C327.516 72.6105 326.716 72.019 325.119 72.019C324.057 72.019 323.225 72.259 322.621 72.7388V71.3828C323.347 70.9141 324.269 70.6797 325.387 70.6797C326.56 70.6797 327.459 70.9364 328.086 71.4498C328.711 71.952 329.024 72.6775 329.024 73.6261V77.058C329.024 77.5491 329.36 77.7946 330.03 77.7946V78.7823C329.829 78.8828 329.571 78.933 329.259 78.933C328.576 78.933 328.074 78.693 327.751 78.2131C327.057 78.7043 326.208 78.9497 325.203 78.9497ZM325.907 75.2667C325.157 75.2667 324.57 75.3839 324.147 75.6183C323.722 75.8416 323.51 76.1484 323.51 76.539C323.51 76.8962 323.677 77.1808 324.013 77.3928C324.359 77.5937 324.834 77.6942 325.437 77.6942C326.286 77.6942 326.979 77.4487 327.516 76.9576V75.4174C326.789 75.3169 326.253 75.2667 325.907 75.2667Z" fill="#8C8C8C"/>
<path d="M261.911 21V56.4187H255.257V22.4556L261.911 21Z" fill="#F27349"/>
<path d="M267.7 56.4186V33.1296H274.501V56.4186H267.7ZM267.019 25.4151C267.019 24.2506 267.392 23.2964 268.136 22.5525C268.915 21.8085 269.902 21.4365 271.1 21.4365C272.299 21.4365 273.27 21.8085 274.015 22.5525C274.76 23.2964 275.132 24.2506 275.132 25.4151C275.132 26.6119 274.76 27.5823 274.015 28.3262C273.27 29.0702 272.299 29.4422 271.1 29.4422C269.902 29.4422 268.915 29.0702 268.136 28.3262C267.392 27.5823 267.019 26.6119 267.019 25.4151Z" fill="#F27349"/>
<path d="M280.426 33.1297H286.449L286.74 34.5367C288.424 33.2429 290.513 32.5959 293.008 32.5959C296.375 32.5959 299.031 33.5502 300.974 35.4585C302.917 37.367 303.889 39.9708 303.889 43.2701V56.4187H297.089V43.2216C297.089 41.7336 296.603 40.5692 295.63 39.7282C294.66 38.8549 293.348 38.4182 291.696 38.4182C289.883 38.4182 288.392 39.049 287.227 40.3105V56.4187H280.426V33.1297Z" fill="#F27349"/>
<path d="M320.495 32.499C324.349 32.499 327.33 33.8252 329.434 36.4776C331.538 39.0977 332.349 42.5425 331.863 46.8121H315.54C316.124 48.1383 317.143 49.1733 318.601 49.9174C320.09 50.629 321.888 50.9847 323.993 50.9847C326.81 50.9847 329.094 50.3379 330.844 49.044V55.0604C328.544 56.3866 325.855 57.0497 322.778 57.0497C318.406 57.0497 314.909 55.9175 312.285 53.6534C309.695 51.3891 308.399 48.3648 308.399 44.5802C308.399 41.0546 309.516 38.1596 311.752 35.8955C313.986 33.6312 316.901 32.499 320.495 32.499ZM315.298 42.1543H325.256C325.126 40.9575 324.625 40.0195 323.75 39.3403C322.908 38.6287 321.839 38.2728 320.544 38.2728C319.281 38.2728 318.179 38.6287 317.241 39.3403C316.302 40.0195 315.654 40.9575 315.298 42.1543Z" fill="#F27349"/>
<path d="M12.0005 56.9284C27.5883 55.5132 36.4029 54.7067 51.9907 53.2915V60.5822H12.0005V56.9284Z" fill="#F27349"/>
<path d="M109.236 22.45L116.037 21V34.1973C117.592 33.1299 119.519 32.5961 121.818 32.5961C125.186 32.5961 127.842 33.5504 129.785 35.4588C131.728 37.3672 132.7 39.971 132.7 43.2703V56.419H125.899V43.2218C125.899 41.7338 125.413 40.5694 124.441 39.7284C123.47 38.8551 122.158 38.4185 120.506 38.4185C118.693 38.4185 117.203 39.0492 116.037 40.3107V56.419H109.236V22.45Z" fill="white"/>
<path d="M12.0063 53.274L19.1961 52.6212V37.3687L28.8031 51.7489L35.6716 51.1253L44.7975 37.4172V50.2966L51.9873 49.6439V22.4075H47.0759L32.0211 44.8717L16.9133 22.456H12.0063V53.274Z" fill="white"/>
<path fill-rule="evenodd" clip-rule="evenodd" d="M66.8081 56.8559C63.8609 56.8559 61.5292 56.2089 59.8126 54.9152C58.1287 53.589 57.2866 51.8099 57.2866 49.578C57.2866 47.2814 58.1771 45.4863 59.9585 44.1924C61.7721 42.8986 64.2658 42.2517 67.4398 42.2517C68.7352 42.2517 70.2573 42.3972 72.0062 42.6883V42.0091C72.0062 40.8769 71.4881 40.0198 70.4516 39.4375C69.4477 38.823 68.0065 38.5157 66.1281 38.5157C63.2456 38.5157 60.9787 39.1465 59.3268 40.408V34.4402C61.5615 33.1787 64.282 32.5479 67.4882 32.5479C71.0832 32.5479 73.8684 33.308 75.844 34.8283C77.8195 36.3485 78.8074 38.4834 78.8074 41.2328V49.8206C78.8074 51.1792 79.6817 51.8584 81.4306 51.8584V56.1767C80.7181 56.5972 79.7142 56.8074 78.4187 56.8074C76.3783 56.8074 74.7428 56.1928 73.5121 54.9637C71.7957 56.2251 69.5611 56.8559 66.8081 56.8559ZM68.9456 46.958C67.4235 46.958 66.2253 47.1845 65.3508 47.6373C64.5087 48.0578 64.0877 48.6562 64.0877 49.4325C64.0877 50.1117 64.444 50.6455 65.1565 51.0335C65.869 51.3894 66.8243 51.5673 68.0226 51.5673C69.7067 51.5673 71.0346 51.1145 72.0062 50.2088V47.2977C70.7755 47.0713 69.7553 46.958 68.9456 46.958Z" fill="white"/>
<path d="M87.8876 53.6537C90.3165 55.9179 93.458 57.05 97.312 57.05C99.7733 57.05 102.008 56.5324 104.016 55.4974V49.3355C102.591 50.5 100.81 51.0822 98.6722 51.0822C96.47 51.0822 94.6725 50.5 93.2799 49.3355C91.9197 48.171 91.2395 46.6508 91.2395 44.7748C91.2395 42.8987 91.9197 41.3785 93.2799 40.2139C94.6725 39.0495 96.47 38.4672 98.6722 38.4672C100.81 38.4672 102.591 39.0495 104.016 40.2139V34.052C102.008 33.017 99.7733 32.4995 97.312 32.4995C93.458 32.4995 90.3165 33.6478 87.8876 35.9443C85.4586 38.2085 84.2441 41.152 84.2441 44.7748C84.2441 48.3975 85.4586 51.3572 87.8876 53.6537Z" fill="white"/>
<path d="M138.376 33.1299V56.419H145.177V33.1299H138.376Z" fill="white"/>
<path d="M138.813 22.5532C138.068 23.2971 137.696 24.2514 137.696 25.4158C137.696 26.6126 138.068 27.583 138.813 28.3269C139.591 29.0709 140.578 29.4429 141.777 29.4429C142.975 29.4429 143.946 29.0709 144.691 28.3269C145.436 27.583 145.809 26.6126 145.809 25.4158C145.809 24.2514 145.436 23.2971 144.691 22.5532C143.946 21.8092 142.975 21.4373 141.777 21.4373C140.578 21.4373 139.591 21.8092 138.813 22.5532Z" fill="white"/>
<path d="M151.101 33.1299H157.125L157.416 34.5369C159.101 33.2432 161.189 32.5962 163.683 32.5962C167.051 32.5962 169.707 33.5504 171.65 35.4589C173.594 37.3672 174.565 39.9711 174.565 43.2704V56.4191H167.764V43.2218C167.764 41.7339 167.278 40.5695 166.307 39.7285C165.335 38.8552 164.023 38.4186 162.372 38.4186C160.558 38.4186 159.068 39.0492 157.902 40.3107V56.4191H151.101V33.1299Z" fill="white"/>
<path fill-rule="evenodd" clip-rule="evenodd" d="M200.11 36.4779C198.006 33.8257 195.025 32.4995 191.172 32.4995C187.577 32.4995 184.662 33.6315 182.428 35.8958C180.193 38.1599 179.076 41.0549 179.076 44.5807C179.076 48.3651 180.371 51.3894 182.963 53.6537C185.585 55.9179 189.083 57.05 193.456 57.05C196.532 57.05 199.22 56.3869 201.52 55.0607V49.0443C199.771 50.3382 197.488 50.9852 194.67 50.9852C192.564 50.9852 190.768 50.6294 189.278 49.9177C187.821 49.1738 186.8 48.1388 186.218 46.8126H202.539C203.025 42.5429 202.216 39.098 200.11 36.4779ZM195.934 42.1546H185.974C186.331 40.958 186.978 40.0199 187.917 39.3406C188.857 38.629 189.957 38.2732 191.22 38.2732C192.516 38.2732 193.585 38.629 194.427 39.3406C195.301 40.0199 195.804 40.958 195.934 42.1546Z" fill="white"/>
<path d="M207.674 56.4191V33.1299H213.698L214.038 35.1192C215.658 33.4372 217.827 32.5962 220.547 32.5962C221.357 32.5962 222.167 32.6772 222.976 32.8388V39.3404C222.038 38.7258 220.839 38.4186 219.382 38.4186C217.373 38.4186 215.738 39.1947 214.475 40.7474V56.4191H207.674Z" fill="white"/>
<path d="M224.708 33.1299L234.812 53.0226L227.525 66.1227H234.861L251.572 33.1299H244.381L238.164 45.9874L231.897 33.1299H224.708Z" fill="white"/>
</svg>
