<svg width="354" height="98" viewBox="0 0 354 98" fill="none" xmlns="http://www.w3.org/2000/svg">
<rect width="354" height="98" fill="#00B2A9"/>
<path d="M198.871 63.4589V28.0021H193.353V18.4771H233.85C238.124 18.4771 239.902 20.3304 239.902 24.4758V52.0823C239.902 53.406 240.525 54.0231 241.861 54.0231H245.421V63.4607H234.651C230.377 63.4607 228.599 61.6967 228.599 57.462V29.9428C228.599 28.6192 227.976 28.0021 226.64 28.0021H210.173V63.4589H198.871Z" fill="white"/>
<path d="M256.712 39.0182C258.67 37.9587 260.985 37.1649 263.744 36.5477C269.352 35.2242 272.378 35.2242 276.384 35.2242H277.807V34.607C277.807 28.521 275.226 26.0505 269.44 26.0505C266.592 26.0505 263.388 26.8442 263.388 29.0489V31.4301H252.796V26.6676C252.796 22.7862 255.555 20.0517 259.471 18.9067C263.388 17.7598 266.326 17.4084 269.174 17.4084C283.682 17.4084 289.111 24.0243 289.111 35.3134V52.0715C289.111 53.3951 289.734 54.0123 291.07 54.0123H294.63V63.4498H284.393C280.567 63.4498 278.697 61.7731 278.697 58.5107V56.5699H278.519C278.697 56.5699 274.514 64.5076 264.456 64.5076C260.273 64.5076 256.712 63.2733 253.775 60.8921C250.837 58.4214 249.412 55.1591 249.412 51.1012C249.414 45.3681 252.796 41.0463 256.712 39.0182ZM267.482 55.9528C270.419 55.9528 272.911 54.7187 274.87 52.248C276.918 49.7793 277.896 47.0451 277.896 44.1341V42.8997H275.849C265.701 42.8997 260.629 45.2809 260.629 49.9562C260.629 53.2186 263.211 55.9528 267.482 55.9528Z" fill="white"/>
<path d="M305.06 24.2883C309.6 19.7023 315.564 17.4084 323.128 17.4084C325.445 17.4084 327.759 17.6724 330.07 18.2896C332.385 18.8194 334.522 19.8771 336.567 21.5538C338.615 23.1413 339.593 25.1694 339.593 27.5506V32.8429H329.715V30.3724C329.715 28.1678 326.33 26.8442 323.128 26.8442C319.211 26.8442 316.006 28.1678 313.426 30.813C310.934 33.4582 309.689 36.8117 309.689 40.8678C309.689 45.1899 311.022 48.6288 313.782 51.0992C316.541 53.4806 319.923 54.7146 323.929 54.7146C329.894 54.7146 335.144 50.8334 336.747 49.2459L337.372 48.6288L342 56.3896C341.644 56.8302 341.288 57.3599 338.795 59.2114C337.638 60.1819 336.304 60.9756 334.968 61.6821C332.208 63.0929 327.58 64.5038 322.955 64.5038C315.564 64.5038 309.602 62.2992 305.064 57.8005C300.524 53.302 298.3 47.6582 298.3 40.9533C298.296 34.3431 300.522 28.7849 305.06 24.2883Z" fill="white"/>
<path d="M63.1809 68.9846C65.0555 71.092 67.196 72.1931 69.6952 72.1931C73.0862 72.1931 75.5851 70.1764 77.1925 66.2358L78.7104 62.6625L63.6288 27.5589C63.1827 26.4598 62.2908 25.9093 61.1296 25.9093H22.3986C18.3511 25.9093 12 22.6633 12 16.0116C13.3074 16.0116 67.2854 16.0116 67.2854 16.0116C70.4979 16.0116 72.0159 17.2034 73.3535 20.4119L82.1906 43.7808L83.7958 50.0141H83.9743C84.4201 47.4468 84.9553 45.3397 85.4923 43.7808L93.2572 20.4099C94.149 17.4777 94.9972 16.0096 94.9972 16.0096C94.9972 16.0096 105.654 15.9879 107.675 16.0096L86.8302 69.8094C83.6176 77.8739 77.4601 82 70.4085 82C66.1241 82 61.9303 79.9833 60.2338 78.4265L58.8962 77.2346L63.1809 68.9846Z" fill="white"/>
<path d="M26.9492 36.9944C26.9492 37.0459 26.9492 37.0955 26.9492 37.147C26.9492 42.0359 31.8357 45.9945 36.6784 45.9945H59.8374L56.5519 38.6896C56.1019 37.66 55.0931 36.9944 53.9785 36.9944H26.9492Z" fill="white"/>
<path d="M146.111 82V28.9796C146.111 27.6078 145.485 26.9682 144.142 26.9682H140.563V17.0962H150.765C154.612 17.0962 156.492 18.5585 156.492 21.5756V23.404H156.67C156.939 23.0379 157.028 22.5813 158.729 20.8455C160.788 18.5605 164.814 16.183 171.167 16C177.341 16 182.173 18.285 185.842 22.7643C189.51 27.2437 191.39 33.1854 191.39 40.4063C191.39 47.7196 189.421 53.6616 185.484 58.1408C181.637 62.6201 176.626 64.8127 170.541 64.8127C163.562 64.8127 159.087 60.9727 157.924 59.3274L157.477 58.6879H157.298C157.388 59.7841 157.477 61.156 157.477 62.7108V82H146.111ZM160.071 50.8273C162.129 53.6615 164.903 55.0332 168.482 55.0332C175.014 55.0332 179.936 49.4574 179.936 40.5894C179.936 31.8136 175.372 25.9625 168.661 25.9625C162.129 25.9625 157.118 30.8985 157.118 40.6799C157.118 44.612 158.101 47.9933 160.071 50.8273Z" fill="white"/>
<path d="M126.471 36.2616L130.433 27.9454C131.09 26.7417 132.311 26.1875 134.285 26.1875H137.573V16H128.741C124.607 16 123.009 16.7404 121.223 20.0722L114.724 33.3001C114.124 34.3985 112.886 34.9528 110.959 35.0398H107.675V35.058V44.9421V44.9601H110.959C112.886 45.0491 114.122 45.6014 114.724 46.7L121.223 59.9277C123.009 63.2596 124.607 64.0001 128.741 64.0001H137.573V53.9056H134.285C132.311 53.9056 131.09 53.3512 130.433 52.1477L126.471 43.7383C125.439 41.7033 124.311 40.4997 123.088 40.0364V39.9615C124.309 39.5003 125.437 38.2967 126.471 36.2616Z" fill="white"/>
</svg>
