<svg width="489" height="320" viewBox="0 0 489 320" fill="none" xmlns="http://www.w3.org/2000/svg">
<path d="M190.513 160.813C192.059 157.883 193.805 155.062 195.738 152.371C205.764 138.43 220.498 128.59 237.215 124.667C253.933 120.744 271.506 123.005 286.687 131.03C288.259 131.866 289.783 132.746 291.257 133.671C292.732 134.597 294.158 135.556 295.535 136.549C297.205 137.768 298.807 139.047 300.342 140.386C300.438 140.467 300.528 140.553 300.613 140.646C310.614 149.496 317.923 160.981 321.707 173.789C325.49 186.596 325.594 200.21 322.008 213.074C318.422 225.938 311.289 237.533 301.425 246.536C291.561 255.539 279.364 261.586 266.227 263.985C253.09 266.385 239.542 265.041 227.133 260.107C214.723 255.173 203.951 246.847 196.049 236.082C188.146 225.317 183.431 212.545 182.442 199.227C181.453 185.909 184.23 172.582 190.456 160.767L190.513 160.813Z" stroke="#011222" stroke-linecap="round" stroke-linejoin="round"/>
<path d="M190.286 226.719C191.042 226.042 192.284 225.839 194.247 226.448C201.301 228.627 204.968 220.704 203.727 220.614C202.486 220.524 201.628 216.957 204.167 215.242C206.706 213.527 212.62 214.114 212.236 212.342C211.853 210.57 208.941 206.169 208.941 206.169C208.941 206.169 206.345 207.387 205.555 205.864C204.765 204.34 203.987 200.221 205.894 199.476C206.429 199.249 206.869 198.844 207.14 198.33C207.411 197.817 207.497 197.225 207.383 196.655L213.083 196.994L213.985 192.773L217.495 189.827L219.369 190.821C219.369 190.821 221.028 195.12 222.607 192.536L224.187 189.94L225.203 187.615C225.203 187.615 221.107 186.701 220.08 184.918L219.064 183.135L210.171 180.63L209.471 178.102L207.835 177.233L207.417 172.786L204.088 171.048L200.77 170.778L196.719 176.42C195.901 174.836 195.188 173.2 194.586 171.522C194.18 170.067 195.331 166.444 195.331 166.444C195.998 165.093 196.991 163.93 198.22 163.058C199.834 162.223 201.808 164.447 201.662 161.727L201.526 159.018L201.944 156.005L199.439 154.685L197.08 153.443L195.703 152.315" stroke="#011222" stroke-linecap="round" stroke-linejoin="round"/>
<path d="M323.893 183.508L322.899 183.316L318.385 188.304L314.323 189.951L311.411 188.417C310.203 187.785 308.996 190.809 308.996 190.809L309.775 191.52C310.553 192.231 309.413 196.418 309.413 196.418C307.172 196.081 304.908 195.923 302.642 195.944C300.848 196.158 300.001 196.091 299.257 197.603C298.512 199.115 299.065 199.42 299.065 199.42C298.412 201.325 297.973 203.297 297.756 205.3C297.756 207.252 294.844 203.776 294.844 203.776L293.422 206.473L290.228 209.001L286.075 211.89C286.075 211.89 280.038 213.628 279.564 212.319C279.09 211.01 276.663 209.949 276.663 209.949L277.701 207.974C277.701 207.974 279.033 203.866 280.32 202.997C281.606 202.128 279.801 195.842 279.801 195.842C280.986 194.713 282.038 193.452 282.938 192.084C283.728 190.572 284.495 190.583 284.495 190.583L288.434 191.125C288.434 191.125 292.948 194.274 294.438 195.064C294.438 195.064 297.078 192.231 296.819 190.55C296.559 188.868 297.744 188.789 297.744 188.789L293.591 185.008L292.914 182.639L290.431 179.253L291.233 177.729L292.745 174.863L292.079 171.737L289.382 168.114L287.87 164.819L286.222 159.504L285.703 156.558L280.85 154.38L278.706 155.508L274.53 157.766L272.555 153.838L271.777 151.863L275.298 148.76L274.068 146.198L273.661 143.286L274.011 139.404L274.722 136.921L271.822 135.398L266.676 136.143L266.856 140.081C265.158 141.088 263.367 141.927 261.507 142.587C259.25 143.207 259.532 143.174 256.835 143.997C254.138 144.821 254.961 144.607 253.664 145.047C252.366 145.487 251.102 145.995 251.102 145.995L251 150.091L248.867 157.517L247.547 156.648C246.238 155.768 244.274 158.905 244.274 158.905L243.349 164.548L245.956 165.914C247.503 166.224 249.073 166.409 250.65 166.467L254.375 168.43L257.478 173.915C258.493 175.024 259.366 176.256 260.074 177.583L258.64 180.291L256.88 183.677L255.04 182.706L253.348 181.815L251.553 180.867L248.619 182.774L246.983 187.356L244.726 189.365C243.247 190.696 242.231 188.236 242.231 188.236L239.816 191.272C237.39 194.296 239.388 192.897 240.629 194.454C240.914 194.883 241.302 195.234 241.757 195.475C242.212 195.715 242.721 195.838 243.236 195.831L247.648 201.101L251.113 199.837L251.598 198.19C252.095 196.52 251.598 198.19 256.688 200.187L258.37 205.051L257.365 206.18L257.117 210.694C257.117 210.694 260.051 212.116 262.263 213.312C264.475 214.509 265.005 217.578 265.005 217.578C265.042 219.254 264.698 220.917 264.001 222.442L265.13 225.647L269.294 233.784L268.583 237.452L266.168 238.975L265.209 243.851L269.655 248.071L267.906 251.389L266.664 253.748L265.209 256.501L264.08 262.088C264.08 262.088 264.351 263.115 264.622 264.277" stroke="#011222" stroke-linecap="round" stroke-linejoin="round"/>
<path d="M300.344 140.386C300.429 140.492 300.528 140.587 300.637 140.668L299.419 143.117L299.915 147.575L301.574 148.455C301.574 148.455 299.554 150.464 299.678 152.055C299.689 152.524 299.577 152.987 299.353 153.399C299.129 153.81 298.802 154.156 298.403 154.402L298.945 157.382L299.847 157.856C300.75 158.341 300.209 160.835 300.209 160.835L304.068 160.079L305.118 156.016L309.045 155.012C309.575 155.396 310.017 155.889 310.342 156.457C310.667 157.025 310.867 157.656 310.93 158.307C310.851 160.203 310.128 159.819 310.128 159.819H306.528L304.271 164.108L304.723 166.162L306.359 167.031" stroke="#011222" stroke-linecap="round" stroke-linejoin="round"/>
<path d="M306.348 167.076C306.167 166.974 307.33 172.211 307.33 172.211C307.33 172.211 308.774 176.037 310.354 176.725C311.934 177.413 315.5 174.976 315.5 174.976L319.484 174.412L320.387 169.638" stroke="#011222" stroke-linecap="round" stroke-linejoin="round"/>
<path d="M290.308 136.583L291.256 133.671C292.761 134.589 294.186 135.548 295.533 136.549L291.075 140.962L291.459 145.78C291.459 145.78 292.272 147.564 290.703 147.214C290.046 147.042 289.352 147.071 288.712 147.299C288.072 147.526 287.516 147.941 287.114 148.489C286.178 149.527 286.302 149.99 283.909 148.726C281.517 147.462 281.359 146.604 281.009 145.645C280.659 144.686 285.128 137.824 285.128 137.824L283.548 136.989C283.548 136.989 284.474 134.845 282.905 134.382L290.308 136.583Z" stroke="#011222" stroke-linecap="round" stroke-linejoin="round"/>
<path d="M237.278 124.688C245.466 122.767 253.929 122.312 262.275 123.345L261.406 126.482C261.406 126.482 262.23 127.848 258.924 127.543C255.617 127.239 253.1 126.923 253.1 126.923L250.471 131.899H245.855L244.343 131.098L243.045 129.202L240.235 126.494C239.217 125.946 238.23 125.343 237.278 124.688Z" stroke="#011222" stroke-linecap="round" stroke-linejoin="round"/>
<path d="M239.581 172.267L236.804 173.147L234.378 170.699C234.378 170.699 229.582 170.078 231.444 167.99C233.306 165.902 236.895 165.925 236.895 165.925L238.193 163.431L240.45 166.173L241.578 168.374L240.72 169.988L239.581 172.267Z" stroke="#011222" stroke-linecap="round" stroke-linejoin="round"/>
<path d="M235.586 182.751C236.154 182.071 236.573 181.279 236.817 180.427L236.986 179.366L241.5 181.747L239.051 186.408L235.586 182.751Z" stroke="#011222" stroke-linecap="round" stroke-linejoin="round"/>
<path d="M84.8331 280.799C84.8308 279.252 85.2876 277.739 86.1456 276.451C87.0036 275.163 88.2242 274.159 89.6531 273.566C91.082 272.972 92.6548 272.815 94.1727 273.116C95.6905 273.416 97.0851 274.16 98.1799 275.254C99.2748 276.347 100.021 277.74 100.324 279.258C100.626 280.775 100.472 282.348 99.8804 283.778C99.2888 285.208 98.2863 286.43 97 287.29C95.7136 288.15 94.2011 288.609 92.6538 288.609C91.6273 288.61 90.6106 288.409 89.6618 288.017C88.713 287.625 87.8508 287.05 87.1244 286.325C86.398 285.6 85.8218 284.738 85.4286 283.79C85.0354 282.842 84.8331 281.826 84.8331 280.799Z" stroke="#011222" stroke-linecap="round" stroke-linejoin="round"/>
<path d="M129.017 157.788C129.02 156.813 129.311 155.861 129.854 155.051C130.397 154.242 131.168 153.611 132.07 153.24C132.971 152.868 133.962 152.772 134.918 152.964C135.874 153.155 136.752 153.626 137.44 154.316C138.129 155.006 138.598 155.885 138.787 156.841C138.976 157.798 138.878 158.789 138.504 159.689C138.131 160.59 137.499 161.359 136.688 161.901C135.877 162.442 134.924 162.731 133.949 162.731C133.301 162.731 132.658 162.603 132.059 162.354C131.46 162.106 130.916 161.742 130.458 161.283C130 160.823 129.637 160.278 129.39 159.679C129.142 159.079 129.016 158.437 129.017 157.788Z" stroke="#011222" stroke-linecap="round" stroke-linejoin="round"/>
<path d="M326.614 99.9465C327.315 100.316 327.891 100.885 328.268 101.582C328.646 102.279 328.808 103.072 328.735 103.861C328.662 104.65 328.357 105.4 327.858 106.015C327.359 106.631 326.689 107.085 325.933 107.32C325.176 107.555 324.366 107.56 323.607 107.335C322.847 107.111 322.171 106.666 321.664 106.057C321.156 105.448 320.841 104.702 320.758 103.914C320.674 103.126 320.826 102.331 321.194 101.629C321.439 101.163 321.774 100.749 322.179 100.411C322.584 100.074 323.052 99.8199 323.555 99.6636C324.059 99.5073 324.588 99.4518 325.113 99.5003C325.638 99.5489 326.148 99.7005 326.614 99.9465Z" stroke="#011222" stroke-linecap="round" stroke-linejoin="round"/>
<path d="M270.696 314.068C270.694 313.09 270.982 312.132 271.524 311.318C272.067 310.503 272.839 309.868 273.742 309.492C274.646 309.117 275.641 309.018 276.601 309.208C277.56 309.399 278.442 309.87 279.134 310.562C279.826 311.254 280.297 312.136 280.488 313.095C280.678 314.055 280.579 315.05 280.204 315.954C279.828 316.857 279.193 317.629 278.378 318.172C277.564 318.714 276.606 319.002 275.628 319C274.32 319 273.065 318.48 272.14 317.556C271.216 316.631 270.696 315.376 270.696 314.068Z" stroke="#011222" stroke-linecap="round" stroke-linejoin="round"/>
<path d="M256.216 78.2607C256.118 79.2344 255.734 80.1573 255.111 80.9123C254.488 81.6672 253.656 82.2204 252.718 82.5018C251.781 82.7831 250.781 82.7799 249.846 82.4925C248.911 82.2052 248.081 81.6466 247.464 80.8876C246.846 80.1287 246.467 79.2034 246.376 78.2291C246.285 77.2548 246.484 76.2752 246.95 75.4146C247.416 74.554 248.127 73.851 248.993 73.3947C249.858 72.9384 250.84 72.7493 251.813 72.8514C253.114 72.9849 254.309 73.6298 255.135 74.6443C255.96 75.6587 256.349 76.9596 256.216 78.2607Z" stroke="#011222" stroke-linecap="round" stroke-linejoin="round"/>
<path d="M13.703 152.811C6.93426 152.811 1.4471 158.298 1.4471 165.067C1.4471 171.836 6.93426 177.323 13.703 177.323C20.4718 177.323 25.959 171.836 25.959 165.067C25.959 158.298 20.4718 152.811 13.703 152.811Z" stroke="#011222" stroke-linecap="round" stroke-linejoin="round"/>
<path d="M373.739 18.8296C376.295 13.9579 374.418 7.93644 369.546 5.38037C364.674 2.8243 358.653 4.7015 356.097 9.57323C353.541 14.445 355.418 20.4664 360.29 23.0225C365.162 25.5785 371.183 23.7013 373.739 18.8296Z" stroke="#011222" stroke-linecap="round" stroke-linejoin="round"/>
<path d="M140.259 26.8209C136.624 23.2351 130.77 23.2751 127.185 26.9101C123.599 30.5451 123.639 36.3987 127.274 39.9845C130.909 43.5702 136.762 43.5303 140.348 39.8953C143.934 36.2603 143.894 30.4066 140.259 26.8209Z" stroke="#011222" stroke-linecap="round" stroke-linejoin="round"/>
<path d="M435.145 279.23C430.976 279.23 427.595 282.611 427.595 286.78C427.595 290.95 430.976 294.33 435.145 294.33C439.315 294.33 442.695 290.95 442.695 286.78C442.695 282.611 439.315 279.23 435.145 279.23Z" stroke="#011222" stroke-linecap="round" stroke-linejoin="round"/>
<path d="M474.352 121.02C467.072 121.02 461.171 126.922 461.171 134.202C461.171 141.481 467.072 147.383 474.352 147.383C481.632 147.383 487.533 141.481 487.533 134.202C487.533 126.922 481.632 121.02 474.352 121.02Z" stroke="#011222" stroke-linecap="round" stroke-linejoin="round"/>
<path d="M357.322 220.264C355.221 220.264 353.519 221.967 353.519 224.067C353.519 226.168 355.221 227.87 357.322 227.87C359.422 227.87 361.125 226.168 361.125 224.067C361.125 221.967 359.422 220.264 357.322 220.264Z" stroke="#011222" stroke-linecap="round" stroke-linejoin="round"/>
<path d="M271.621 280.675C271.316 278.102 271.012 275.517 270.696 272.944" stroke="#011222" stroke-linecap="round" stroke-linejoin="round"/>
<path d="M251.889 111.385C251.929 113.976 251.968 116.578 252.02 119.17" stroke="#011222" stroke-linecap="round" stroke-linejoin="round"/>
<path d="M274.502 304.656L272.188 285.313" stroke="#011222" stroke-linecap="round" stroke-linejoin="round"/>
<path d="M251.477 87.2354L251.804 106.714" stroke="#011222" stroke-linecap="round" stroke-linejoin="round"/>
<path d="M175.845 239.37C177.933 238.434 180.02 237.508 182.131 236.605" stroke="#011222" stroke-linecap="round" stroke-linejoin="round"/>
<path d="M132.169 261.117C144.809 254.583 157.404 247.947 170.303 241.932" stroke="#011222" stroke-linecap="round" stroke-linejoin="round"/>
<path d="M113.389 270.642C118.118 268.385 122.813 265.947 127.496 263.543" stroke="#011222" stroke-linecap="round" stroke-linejoin="round"/>
<path d="M104.882 274.716C106.202 274.107 107.511 273.486 108.82 272.854" stroke="#011222" stroke-linecap="round" stroke-linejoin="round"/>
<path d="M161.082 181.205C165.724 181.762 170.366 182.322 175.008 182.887" stroke="#011222" stroke-linecap="round" stroke-linejoin="round"/>
<path d="M297.651 114.18C295.497 117.311 293.341 120.44 291.182 123.568" stroke="#011222" stroke-linecap="round" stroke-linejoin="round"/>
<path d="M204.365 120.141C206.563 122.899 208.759 125.659 210.953 128.422" stroke="#011222" stroke-linecap="round" stroke-linejoin="round"/>
<path d="M93.6597 173.678C114.327 175.935 134.991 178.234 155.65 180.573" stroke="#011222" stroke-linecap="round" stroke-linejoin="round"/>
<path d="M328.527 68.4989C319.097 82.5216 309.64 96.5259 300.154 110.512" stroke="#011222" stroke-linecap="round" stroke-linejoin="round"/>
<path d="M172.147 80.3839C182.051 92.5446 191.93 104.725 201.785 116.927" stroke="#011222" stroke-linecap="round" stroke-linejoin="round"/>
<path d="M31.1628 166.997C50.2201 168.968 69.2661 170.999 88.3008 173.091" stroke="#011222" stroke-linecap="round" stroke-linejoin="round"/>
<path d="M356.938 26.0388C348.322 39.0107 339.668 51.9517 330.975 64.8618" stroke="#011222" stroke-linecap="round" stroke-linejoin="round"/>
<path d="M142.118 43.6882C151.308 54.8423 160.46 66.0229 169.574 77.2297" stroke="#011222" stroke-linecap="round" stroke-linejoin="round"/>
<path d="M153.509 164.559C161.849 167.155 170.437 169.074 178.562 172.38" stroke="#011222" stroke-linecap="round" stroke-linejoin="round"/>
<path d="M312.49 115.015C307.473 120.037 302.849 125.494 297.4 130.094" stroke="#011222" stroke-linecap="round" stroke-linejoin="round"/>
<path d="M142.448 160.542C144.344 161.362 146.27 162.114 148.227 162.799" stroke="#011222" stroke-linecap="round" stroke-linejoin="round"/>
<path d="M319.558 108.572C318.252 109.627 316.983 110.729 315.752 111.878" stroke="#011222" stroke-linecap="round" stroke-linejoin="round"/>
<path d="M349.414 221.934L327.554 216.077" stroke="#011222" stroke-linecap="round" stroke-linejoin="round"/>
<path d="M359.48 246.672C347.766 240.149 335.973 233.728 323.898 227.87" stroke="#011222" stroke-linecap="round" stroke-linejoin="round"/>
<path d="M413.084 275.45C396.359 267.369 380.187 258.228 363.97 249.2" stroke="#011222" stroke-linecap="round" stroke-linejoin="round"/>
<path d="M422.631 280.144C421.254 279.49 419.889 278.824 418.534 278.158" stroke="#011222" stroke-linecap="round" stroke-linejoin="round"/>
<path d="M335.5 164.029L330.139 165.271" stroke="#011222" stroke-linecap="round" stroke-linejoin="round"/>
<path d="M420.51 145.916C394 151.784 367.468 157.686 340.824 162.844" stroke="#011222" stroke-linecap="round" stroke-linejoin="round"/>
<path d="M455.797 138.208C445.565 140.397 435.34 142.632 425.123 144.911" stroke="#011222" stroke-linecap="round" stroke-linejoin="round"/>
<path d="M377.885 216.577H216.348C213.034 216.577 210.348 219.263 210.348 222.577V278.99C210.348 282.304 213.034 284.99 216.348 284.99H377.885C381.198 284.99 383.885 282.304 383.885 278.99V222.577C383.885 219.263 381.198 216.577 377.885 216.577Z" fill="#004EFF"/>
<path d="M308.858 253.074C308.858 253.188 290.275 253.286 267.356 253.286C244.437 253.286 225.854 253.188 225.854 253.074C225.854 252.959 244.429 252.853 267.356 252.853C290.283 252.853 308.858 252.984 308.858 253.074Z" fill="#263238"/>
<path d="M309.094 261.385C309.094 261.508 290.404 261.598 267.355 261.598C244.305 261.598 225.607 261.508 225.607 261.385C225.607 261.263 244.297 261.173 267.355 261.173C290.412 261.173 309.094 261.239 309.094 261.385Z" fill="#263238"/>
<path d="M231.093 229.044L232.946 232.808L237.102 233.413L234.098 236.336L234.808 240.467L231.093 238.516L227.386 240.467L228.088 236.336L225.092 233.413L229.24 232.808L231.093 229.044Z" fill="white"/>
<path d="M244.828 229.044L246.681 232.808L250.829 233.413L247.824 236.336L248.535 240.467L244.828 238.516L241.113 240.467L241.823 236.336L238.818 233.413L242.966 232.808L244.828 229.044Z" fill="white"/>
<path d="M258.554 229.044L260.407 232.808L264.563 233.413L261.559 236.336L262.269 240.467L258.554 238.516L254.847 240.467L255.549 236.336L252.553 233.413L256.701 232.808L258.554 229.044Z" fill="#E0E0E0"/>
<path d="M272.279 229.044L274.14 232.808L278.288 233.413L275.283 236.336L275.994 240.467L272.279 238.516L268.572 240.467L269.282 236.336L266.277 233.413L270.425 232.808L272.279 229.044Z" fill="#E0E0E0"/>
<path d="M286.009 229.044L287.862 232.808L292.018 233.413L289.014 236.336L289.724 240.467L286.009 238.516L282.302 240.467L283.004 236.336L280.008 233.413L284.156 232.808L286.009 229.044Z" fill="#E0E0E0"/>
<path d="M255.312 272.351C255.312 272.474 248.903 272.563 240.991 272.563C233.079 272.563 226.67 272.474 226.67 272.351C226.67 272.229 233.088 272.139 240.991 272.139C248.895 272.139 255.312 272.237 255.312 272.351Z" fill="#E0E0E0"/>
<path d="M350.26 276.948C363.211 276.948 373.71 266.449 373.71 253.498C373.71 240.547 363.211 230.049 350.26 230.049C337.309 230.049 326.811 240.547 326.811 253.498C326.811 266.449 337.309 276.948 350.26 276.948Z" fill="white"/>
<path d="M344.742 227.273C345.24 224.88 346.946 223.615 349.208 222.692C350.346 222.24 351.577 222.069 352.795 222.194C354.013 222.319 355.183 222.737 356.205 223.411C357.569 224.325 358.655 225.705 360.239 226.146C362.827 226.881 365.693 224.807 368.191 225.803C368.94 226.1 369.562 226.648 369.95 227.354C370.339 228.059 370.47 228.877 370.322 229.669C370.173 230.46 369.754 231.175 369.136 231.691C368.518 232.208 367.739 232.493 366.934 232.498C368.624 233.004 369.277 235.34 368.396 236.866C367.904 237.602 367.21 238.181 366.397 238.533C365.585 238.885 364.689 238.995 363.815 238.85C362.065 238.534 360.436 237.743 359.104 236.564C357.724 235.462 356.475 234.196 355.021 233.209C353.591 232.141 351.831 231.61 350.049 231.706C347.673 231.976 345.738 233.894 344.799 236.091C343.983 238.346 343.633 240.743 343.77 243.137C343.904 245.526 343.745 247.923 343.297 250.273C343.231 250.551 343.125 250.853 342.864 250.951C342.48 251.098 342.129 250.706 341.917 250.363C339.502 246.449 337.879 242.1 337.14 237.56C336.716 234.939 336.642 232.433 337.957 230.122C339.271 227.812 342.856 225.966 344.734 227.264" fill="#263238"/>
<path d="M340.783 238.597L341.126 265.411C341.183 269.967 342.204 276.654 349.405 276.229C355.627 275.413 357.137 269.444 357.072 265.19C357.072 263.174 357.072 261.492 357.072 261.279C357.072 261.279 363.89 260.553 364.29 253.792C364.486 250.526 364.347 243.758 364.143 237.642C364.038 234.475 362.743 231.463 360.517 229.207C358.292 226.951 355.298 225.616 352.132 225.468H351.479C344.392 225.509 340.554 231.551 340.783 238.597Z" fill="#FFBE9D"/>
<path d="M357.055 261.182C353.928 261.094 350.898 260.076 348.352 258.259C348.352 258.259 350.205 263.223 356.99 262.937L357.055 261.182Z" fill="#EB996E"/>
<path d="M361.388 241.724C361.378 241.976 361.269 242.214 361.087 242.388C360.904 242.562 360.661 242.658 360.408 242.655C360.285 242.659 360.162 242.637 360.047 242.592C359.931 242.548 359.826 242.48 359.737 242.394C359.648 242.308 359.577 242.206 359.529 242.092C359.48 241.978 359.454 241.856 359.453 241.733C359.466 241.481 359.574 241.245 359.757 241.071C359.939 240.898 360.181 240.802 360.433 240.802C360.557 240.799 360.68 240.82 360.795 240.865C360.91 240.91 361.015 240.977 361.104 241.063C361.193 241.149 361.264 241.251 361.313 241.365C361.362 241.479 361.387 241.601 361.388 241.724Z" fill="#263238"/>
<path d="M362.499 240.9C362.368 241.014 361.682 240.442 360.629 240.393C359.575 240.345 358.8 240.826 358.694 240.696C358.588 240.565 358.775 240.418 359.118 240.189C359.582 239.901 360.124 239.761 360.67 239.789C361.212 239.813 361.733 240.011 362.156 240.353C362.458 240.606 362.597 240.826 362.499 240.9Z" fill="#263238"/>
<path d="M351.386 241.382C351.379 241.634 351.274 241.873 351.092 242.047C350.91 242.221 350.666 242.317 350.414 242.312C350.291 242.318 350.167 242.298 350.052 242.255C349.936 242.211 349.83 242.145 349.741 242.059C349.652 241.974 349.581 241.871 349.532 241.758C349.484 241.644 349.459 241.522 349.459 241.398C349.467 241.147 349.574 240.909 349.755 240.735C349.937 240.561 350.179 240.465 350.431 240.467C350.554 240.462 350.677 240.481 350.793 240.525C350.909 240.568 351.015 240.635 351.104 240.72C351.193 240.806 351.264 240.908 351.313 241.022C351.361 241.136 351.386 241.258 351.386 241.382Z" fill="#263238"/>
<path d="M352.27 240.606C352.148 240.72 351.454 240.149 350.4 240.1C349.347 240.051 348.571 240.541 348.465 240.402C348.359 240.263 348.547 240.124 348.89 239.896C349.354 239.607 349.895 239.467 350.441 239.495C350.983 239.522 351.504 239.719 351.927 240.059C352.237 240.32 352.335 240.549 352.27 240.606Z" fill="#263238"/>
<path d="M355.675 248.493C356.233 248.35 356.805 248.274 357.381 248.265C357.642 248.265 357.904 248.216 357.953 248.036C357.993 247.756 357.944 247.47 357.814 247.219L357.128 245.162C356.482 243.414 355.974 241.617 355.609 239.789C356.397 241.482 357.047 243.235 357.553 245.031L358.206 247.097C358.36 247.426 358.392 247.8 358.296 248.15C358.251 248.242 358.187 248.322 358.108 248.385C358.029 248.449 357.937 248.494 357.838 248.518C357.69 248.546 357.54 248.559 357.389 248.559C356.817 248.605 356.242 248.583 355.675 248.493Z" fill="#263238"/>
<path d="M356.164 252.11C356.017 252.2 355.487 251.196 354.254 250.943C353.021 250.689 352.025 251.359 351.943 251.22C351.861 251.081 352.074 250.902 352.515 250.657C353.094 250.336 353.768 250.232 354.417 250.363C355.041 250.488 355.591 250.851 355.952 251.375C356.213 251.775 356.23 252.078 356.164 252.11Z" fill="#263238"/>
<path d="M352.67 238.94C352.547 239.218 351.519 239.03 350.294 239.12C349.069 239.21 348.065 239.495 347.918 239.234C347.844 239.112 348.032 238.85 348.441 238.597C348.987 238.283 349.599 238.101 350.229 238.067C350.856 238.024 351.485 238.128 352.066 238.369C352.507 238.573 352.719 238.81 352.67 238.94Z" fill="#263238"/>
<path d="M362.254 237.871C362.067 238.099 361.356 237.813 360.499 237.765C359.642 237.716 358.866 237.846 358.743 237.593C358.678 237.471 358.801 237.242 359.135 237.03C359.575 236.783 360.078 236.672 360.581 236.711C361.084 236.75 361.564 236.938 361.96 237.25C362.254 237.511 362.344 237.756 362.254 237.871Z" fill="#263238"/>
<path d="M341.09 243.635C340.976 243.578 336.51 242.043 336.436 246.672C336.363 251.302 341.033 250.42 341.041 250.289C341.05 250.159 341.09 243.635 341.09 243.635Z" fill="#FFBE9D"/>
<path d="M339.656 248.51C339.656 248.51 339.574 248.567 339.435 248.624C339.241 248.701 339.025 248.701 338.831 248.624C338.537 248.428 338.299 248.158 338.142 247.841C337.984 247.525 337.912 247.172 337.933 246.819C337.93 246.42 338.014 246.024 338.178 245.66C338.225 245.517 338.306 245.387 338.414 245.282C338.522 245.177 338.654 245.099 338.799 245.056C338.892 245.032 338.99 245.042 339.077 245.084C339.164 245.126 339.233 245.197 339.272 245.284C339.329 245.415 339.272 245.505 339.321 245.513C339.37 245.521 339.427 245.44 339.386 245.244C339.365 245.129 339.304 245.025 339.215 244.95C339.086 244.854 338.926 244.81 338.766 244.827C338.581 244.865 338.41 244.95 338.267 245.073C338.124 245.196 338.015 245.353 337.949 245.529C337.742 245.927 337.638 246.371 337.647 246.819C337.62 247.231 337.713 247.641 337.916 247.999C338.12 248.358 338.423 248.649 338.79 248.836C338.914 248.874 339.045 248.884 339.174 248.866C339.302 248.848 339.425 248.801 339.533 248.73C339.648 248.624 339.672 248.518 339.656 248.51Z" fill="#EB996E"/>
<path d="M365.613 236.311C364.096 236.623 362.526 236.572 361.033 236.16C359.54 235.748 358.166 234.989 357.023 233.943C355.447 232.465 354.272 230.4 352.239 229.665C351.544 229.446 350.812 229.366 350.086 229.431C349.361 229.495 348.655 229.702 348.009 230.04C346.723 230.729 345.592 231.673 344.686 232.816C345.829 236.319 344.768 240.116 343.706 243.643C343.633 244.045 343.426 244.411 343.118 244.68C342.806 244.826 342.452 244.858 342.118 244.768C341.785 244.678 341.494 244.474 341.298 244.19C340.635 243.294 340.249 242.224 340.187 241.112C339.821 238.609 339.957 236.058 340.587 233.608C341.232 231.155 342.576 228.942 344.457 227.24C346.901 225.196 350.041 224.178 353.218 224.398C356.374 224.653 359.37 225.892 361.783 227.942C362.947 228.837 363.87 230.007 364.47 231.347" fill="#263238"/>
<path d="M325.195 41.4126H163.658C160.344 41.4126 157.658 44.0989 157.658 47.4126V103.826C157.658 107.14 160.344 109.826 163.658 109.826H325.195C328.509 109.826 331.195 107.14 331.195 103.826V47.4126C331.195 44.0989 328.509 41.4126 325.195 41.4126Z" fill="#004EFF"/>
<path d="M256.063 76.5381C256.063 76.6606 237.48 76.7504 214.561 76.7504C191.642 76.7504 173.059 76.6606 173.059 76.5381C173.059 76.4156 191.634 76.3258 214.561 76.3258C237.488 76.3258 256.063 76.3911 256.063 76.5381Z" fill="#263238"/>
<path d="M256.299 84.8254C256.299 84.9479 237.609 85.0377 214.56 85.0377C191.51 85.0377 172.812 84.9479 172.812 84.8254C172.812 84.703 191.502 84.6132 214.56 84.6132C237.617 84.6132 256.299 84.7111 256.299 84.8254Z" fill="#263238"/>
<path d="M178.298 52.4843L180.152 56.2483L184.307 56.8525L181.303 59.7755L182.013 63.907L178.298 61.9555L174.591 63.907L175.293 59.7755L172.297 56.8525L176.445 56.2483L178.298 52.4843Z" fill="white"/>
<path d="M192.033 52.4843L193.886 56.2483L198.034 56.8525L195.029 59.7755L195.74 63.907L192.033 61.9555L188.318 63.907L189.028 59.7755L186.023 56.8525L190.171 56.2483L192.033 52.4843Z" fill="white"/>
<path d="M205.759 52.4843L207.612 56.2483L211.768 56.8525L208.764 59.7755L209.474 63.907L205.759 61.9555L202.052 63.907L202.754 59.7755L199.758 56.8525L203.906 56.2483L205.759 52.4843Z" fill="white"/>
<path d="M219.484 52.4843L221.345 56.2483L225.493 56.8525L222.488 59.7755L223.199 63.907L219.484 61.9555L215.777 63.907L216.487 59.7755L213.482 56.8525L217.63 56.2483L219.484 52.4843Z" fill="white"/>
<path d="M233.216 52.4843L235.069 56.2483L239.225 56.8525L236.221 59.7755L236.931 63.907L233.216 61.9555L229.509 63.907L230.211 59.7755L227.215 56.8525L231.363 56.2483L233.216 52.4843Z" fill="white"/>
<path d="M202.518 95.7908C202.518 95.9051 196.108 96.0031 188.196 96.0031C180.284 96.0031 173.875 95.9051 173.875 95.7908C173.875 95.6765 180.293 95.5785 188.196 95.5785C196.1 95.5785 202.518 95.6765 202.518 95.7908Z" fill="#E0E0E0"/>
<path d="M297.465 100.388C310.416 100.388 320.915 89.889 320.915 76.9381C320.915 63.9873 310.416 53.4885 297.465 53.4885C284.514 53.4885 274.016 63.9873 274.016 76.9381C274.016 89.889 284.514 100.388 297.465 100.388Z" fill="white"/>
<path d="M285.733 60.8042L287.57 90.1979C287.707 92.3893 288.675 94.446 290.275 95.9493C291.875 97.4526 293.989 98.2894 296.184 98.2893C297.322 98.2882 298.449 98.0621 299.5 97.6238C300.55 97.1855 301.503 96.5438 302.305 95.7356C303.106 94.9274 303.74 93.9686 304.169 92.9145C304.598 91.8604 304.815 90.7318 304.806 89.5937C304.806 86.0011 304.741 82.6861 304.741 82.6861C304.741 82.6861 311.502 81.6329 311.583 74.8723C311.624 71.6717 311.175 65.1316 310.702 59.1385C310.437 55.8918 308.961 52.8633 306.566 50.6547C304.172 48.4462 301.034 47.2193 297.776 47.2178H297.466C295.795 47.3162 294.161 47.7487 292.661 48.4898C291.16 49.2308 289.823 50.2652 288.729 51.532C287.635 52.7987 286.806 54.272 286.292 55.8646C285.777 57.4572 285.587 59.1369 285.733 60.8042Z" fill="#EB996E"/>
<path d="M304.756 82.6128C301.628 82.6724 298.553 81.7998 295.922 80.1062C295.922 80.1062 298.012 85.0051 304.748 84.3601L304.756 82.6128Z" fill="#D1734A"/>
<path d="M309.117 63.4906C308.994 63.6212 308.3 63.0742 307.222 63.0823C306.145 63.0905 305.426 63.6049 305.312 63.4742C305.197 63.3436 305.377 63.1885 305.712 62.9517C306.159 62.6392 306.693 62.4737 307.239 62.4781C307.779 62.4792 308.304 62.6506 308.741 62.968C309.068 63.213 309.174 63.4334 309.117 63.4906Z" fill="#263238"/>
<path d="M299.009 63.4904C298.887 63.621 298.193 63.0821 297.123 63.0821C296.054 63.0821 295.319 63.6047 295.204 63.474C295.09 63.3434 295.27 63.1964 295.604 62.9515C296.054 62.6379 296.591 62.4723 297.139 62.4779C297.679 62.479 298.205 62.6504 298.642 62.9678C298.96 63.2128 299.066 63.4332 299.009 63.4904Z" fill="#263238"/>
<path d="M302.782 70.0224C303.329 69.8559 303.893 69.7545 304.464 69.7203C304.733 69.7203 304.978 69.6387 305.027 69.4591C305.057 69.1746 304.994 68.8882 304.848 68.6426C304.603 67.9975 304.341 67.328 304.031 66.6258C303.306 64.9137 302.717 63.1474 302.268 61.3431C303.134 62.9903 303.866 64.7052 304.456 66.4707C304.717 67.181 304.97 67.8506 305.207 68.5038C305.371 68.8231 305.42 69.1894 305.346 69.5407C305.306 69.6344 305.245 69.7181 305.169 69.7858C305.093 69.8536 305.003 69.9037 304.905 69.9326C304.758 69.9693 304.607 69.9884 304.456 69.9898C303.902 70.0755 303.339 70.0865 302.782 70.0224Z" fill="#263238"/>
<path d="M299.278 58.2568C299.172 58.5344 298.135 58.4038 296.918 58.5508C295.702 58.6977 294.714 59.0325 294.551 58.7794C294.485 58.6569 294.657 58.3875 295.049 58.118C295.576 57.7746 296.178 57.5644 296.804 57.5057C297.427 57.4282 298.06 57.501 298.649 57.7179C299.099 57.8976 299.319 58.118 299.278 58.2568Z" fill="#263238"/>
<path d="M308.832 59.1222C308.652 59.359 307.942 59.1222 307.076 59.1222C306.211 59.1222 305.492 59.2774 305.321 59.0324C305.149 58.7875 305.362 58.6731 305.68 58.4527C306.105 58.1806 306.604 58.0465 307.109 58.0689C307.615 58.0742 308.107 58.24 308.513 58.5425C308.815 58.7711 308.913 59.0079 308.832 59.1222Z" fill="#263238"/>
<path d="M293.074 53.3987C291.966 54.242 291.231 55.4839 291.024 56.8607C291.024 56.9097 291.024 56.9586 291.024 56.9995C290.763 58.9264 290.804 60.886 290.526 62.8129C290.339 64.7661 289.502 66.6001 288.15 68.0221C287.562 68.5691 286.517 68.9447 286.052 68.2997C285.888 68.0351 285.803 67.7292 285.807 67.4179C285.448 62.7639 284.174 58.6325 284.174 53.7662C284.175 53.1144 284.33 52.4721 284.626 51.8917C284.923 51.3113 285.353 50.8093 285.88 50.4267C286.901 49.7 288.142 48.9407 289.277 49.4796C290.412 50.0185 291.873 52.1332 292.755 53.0313" fill="#263238"/>
<path d="M288.012 63.866C287.897 63.817 283.374 62.4862 283.521 67.132C283.668 71.7778 288.273 70.6511 288.281 70.5204C288.289 70.3898 288.012 63.866 288.012 63.866Z" fill="#EB996E"/>
<path d="M286.81 68.7897C286.81 68.7897 286.729 68.8468 286.598 68.9203C286.404 68.9976 286.188 68.9976 285.994 68.9203C285.689 68.7408 285.438 68.4837 285.266 68.1752C285.094 67.8667 285.007 67.518 285.014 67.1648C284.99 66.7692 285.054 66.3732 285.202 66.0054C285.24 65.8592 285.314 65.7247 285.416 65.6137C285.519 65.5026 285.647 65.4184 285.79 65.3686C285.881 65.3408 285.979 65.346 286.067 65.3833C286.155 65.4206 286.228 65.4876 286.271 65.5727C286.337 65.7033 286.271 65.7931 286.337 65.8013C286.402 65.8095 286.435 65.7196 286.394 65.5319C286.361 65.4179 286.292 65.3176 286.198 65.2461C286.066 65.1579 285.905 65.1229 285.749 65.1481C285.56 65.1915 285.386 65.2826 285.243 65.4128C285.1 65.5429 284.993 65.7076 284.932 65.8911C284.747 66.2946 284.666 66.7381 284.696 67.1812C284.685 67.5941 284.797 68.0009 285.018 68.3498C285.239 68.6987 285.559 68.9741 285.937 69.1407C286.061 69.1753 286.191 69.18 286.318 69.1545C286.444 69.129 286.562 69.0739 286.663 68.9938C286.802 68.904 286.827 68.7978 286.81 68.7897Z" fill="#D1734A"/>
<path d="M289.148 50.1899C288.005 48.3446 291.124 45.691 293.402 44.9725C295.68 44.254 298.693 45.3644 300.955 46.1156C302.392 46.5892 303.821 47.2587 305.323 47.1934C306.331 47.092 307.319 46.8416 308.254 46.4504C309.189 46.0546 310.195 45.8545 311.21 45.8625C311.72 45.8704 312.219 46.0185 312.651 46.2907C313.083 46.5629 313.432 46.9486 313.659 47.4057C313.755 47.636 313.8 47.8841 313.792 48.1334C313.784 48.3827 313.722 48.6273 313.612 48.8508C313.501 49.0744 313.344 49.2716 313.151 49.4294C312.958 49.5871 312.733 49.7017 312.492 49.7653C312.813 49.5884 313.173 49.492 313.54 49.4846C313.907 49.4771 314.27 49.5588 314.599 49.7226C314.927 49.8864 315.211 50.1274 315.426 50.425C315.641 50.7225 315.781 51.0678 315.833 51.4311C315.885 51.7945 315.848 52.165 315.726 52.5111C315.604 52.8571 315.399 53.1683 315.13 53.418C314.861 53.6676 314.535 53.8483 314.181 53.9445C313.827 54.0407 313.454 54.0495 313.096 53.9703C313.749 53.4722 314.729 54.2887 314.68 55.1133C314.588 55.5198 314.391 55.8949 314.109 56.2015C313.827 56.5081 313.469 56.7354 313.071 56.8606C311.075 57.592 308.879 57.5571 306.907 56.7627C304.915 56.0931 303.061 55.048 301.085 54.3132C299.11 53.5783 295.795 52.2965 293.81 52.9986C292.349 53.513 291.361 55.2766 290.545 54.8847C290.155 54.6785 289.819 54.3832 289.565 54.0228C289.311 53.6624 289.146 53.2472 289.083 52.8108C288.966 51.9329 288.996 51.0415 289.173 50.1736" fill="#263238"/>
<path d="M313.071 49.6347C313.03 49.6347 312.834 49.9776 312.336 50.5165C311.626 51.2608 310.746 51.8212 309.772 52.1495C308.336 52.6695 306.754 52.608 305.363 51.978C303.795 51.2676 302.448 49.8633 300.897 48.5324C299.458 47.2027 297.645 46.3476 295.704 46.0829C294.9 45.9859 294.084 46.0729 293.319 46.3374C292.554 46.6019 291.859 47.037 291.287 47.6098C290.917 48.0061 290.631 48.4728 290.446 48.982C290.261 49.4912 290.18 50.0325 290.209 50.5736C290.239 50.8531 290.305 51.1275 290.405 51.3901C290.486 51.5697 290.544 51.6596 290.56 51.6514C290.469 51.2844 290.412 50.91 290.388 50.5328C290.392 49.5199 290.783 48.5469 291.482 47.8139C292.031 47.2994 292.687 46.9132 293.403 46.683C294.119 46.4528 294.877 46.3845 295.622 46.483C297.477 46.7848 299.199 47.6384 300.562 48.9325C302.081 50.2307 303.469 51.6759 305.151 52.4107C306.39 52.9412 307.767 53.0577 309.078 52.7429C310.388 52.4281 311.562 51.6988 312.425 50.6634C312.613 50.4433 312.775 50.2022 312.907 49.9449C313.005 49.7408 313.071 49.6428 313.071 49.6347Z" fill="#455A64"/>
<path d="M286.836 63.662C286.836 63.662 287.04 63.5314 287.212 63.164C287.434 62.6504 287.513 62.086 287.44 61.531C287.342 60.045 286.02 58.4447 285.856 56.3953C285.734 55.4442 285.914 54.4787 286.371 53.6355C286.76 52.9625 287.364 52.4393 288.085 52.1495C288.574 51.9497 289.105 51.8767 289.629 51.9372C289.821 51.9933 290.017 52.0315 290.216 52.0515C290.216 52.0515 290.053 51.8882 289.661 51.7658C289.102 51.6253 288.514 51.6537 287.971 51.8474C287.152 52.1273 286.456 52.6847 286.003 53.4232C285.484 54.3367 285.272 55.393 285.399 56.4361C285.521 57.4501 285.823 58.4343 286.289 59.3428C286.662 60.048 286.936 60.8007 287.106 61.58C287.23 62.2853 287.136 63.0116 286.836 63.662Z" fill="#455A64"/>
<path d="M299.279 71.2961C299.441 72.3149 299.945 73.2481 300.708 73.9416C301.097 74.2823 301.572 74.5103 302.082 74.601C302.591 74.6916 303.116 74.6415 303.599 74.456C304.387 74.0142 305.031 73.3534 305.452 72.5535L299.279 71.2961Z" fill="white"/>
<path d="M262.695 133.421H101.158C97.8445 133.421 95.1582 136.107 95.1582 139.421V195.835C95.1582 199.148 97.8445 201.835 101.158 201.835H262.695C266.009 201.835 268.695 199.148 268.695 195.835V139.421C268.695 136.107 266.009 133.421 262.695 133.421Z" fill="#004EFF"/>
<path d="M193.563 169.885C193.563 170 174.98 170.098 152.061 170.098C129.142 170.098 110.559 170 110.559 169.885C110.559 169.771 129.134 169.673 152.061 169.673C174.988 169.673 193.563 169.763 193.563 169.885Z" fill="#263238"/>
<path d="M193.801 178.165C193.801 178.287 175.111 178.377 152.062 178.377C129.012 178.377 110.314 178.287 110.314 178.165C110.314 178.042 129.004 177.952 152.062 177.952C175.119 177.952 193.801 178.05 193.801 178.165Z" fill="#263238"/>
<path d="M115.798 145.832L117.652 149.587L121.807 150.192L118.803 153.115L119.513 157.246L115.798 155.303L112.091 157.246L112.793 153.115L109.797 150.192L113.945 149.587L115.798 145.832Z" fill="white"/>
<path d="M129.533 145.832L131.386 149.587L135.534 150.192L132.529 153.115L133.24 157.246L129.533 155.303L125.818 157.246L126.528 153.115L123.523 150.192L127.671 149.587L129.533 145.832Z" fill="white"/>
<path d="M143.259 145.832L145.112 149.587L149.268 150.192L146.264 153.115L146.974 157.246L143.259 155.303L139.552 157.246L140.254 153.115L137.258 150.192L141.406 149.587L143.259 145.832Z" fill="white"/>
<path d="M156.984 145.832L158.845 149.587L162.993 150.192L159.988 153.115L160.699 157.246L156.984 155.303L153.277 157.246L153.987 153.115L150.982 150.192L155.13 149.587L156.984 145.832Z" fill="#E0E0E0"/>
<path d="M170.716 145.832L172.569 149.587L176.725 150.192L173.721 153.115L174.431 157.246L170.716 155.303L167.009 157.246L167.711 153.115L164.715 150.192L168.863 149.587L170.716 145.832Z" fill="#E0E0E0"/>
<path d="M140.018 189.13C140.018 189.253 133.608 189.342 125.696 189.342C117.784 189.342 111.375 189.253 111.375 189.13C111.375 189.008 117.793 188.918 125.696 188.918C133.6 188.918 140.018 189.016 140.018 189.13Z" fill="#E0E0E0"/>
<path d="M257.812 175.606C260.752 162.993 252.91 150.385 240.298 147.446C227.685 144.506 215.077 152.348 212.137 164.96C209.198 177.573 217.039 190.181 229.652 193.121C242.265 196.06 254.873 188.219 257.812 175.606Z" fill="white"/>
<path d="M259.11 167.387C258.473 166.873 257.567 166.807 256.914 166.309C255.558 165.297 255.95 163.223 255.656 161.565C255.346 159.753 254.113 158.259 253.133 156.666C252.154 155.074 251.019 152.853 251.745 151.163L238.551 175.356H259.249C259.249 175.356 259.878 171.551 259.984 170.457C260.09 169.363 259.984 168.081 259.11 167.387Z" fill="#263238"/>
<path d="M231.691 143.358C232.328 141.414 234.451 140.312 236.484 140.092C238.517 139.871 239.513 140.68 241.514 140.231C244.265 139.61 245.858 138.679 247.678 138.973C249.655 139.158 251.5 140.044 252.879 141.472C253.965 142.721 254.006 145.668 253.549 147.269C253.141 148.722 252.006 149.922 251.704 151.408C251.402 152.894 251.891 154.184 252.193 155.556C253.108 159.679 252.398 164.293 249.671 167.51C246.943 170.726 242.02 172.147 238.24 170.253" fill="#263238"/>
<path d="M242.895 183.382L242.78 177.364C242.78 177.364 248.765 176.483 250.129 168.718C250.815 164.864 250.733 158.512 250.496 153.319C250.284 148.648 245.336 143.896 240.698 144.337L225.561 146.942V149.449L225.977 183.676C226.003 185.902 226.905 188.029 228.489 189.594C230.072 191.159 232.209 192.037 234.436 192.037C235.563 192.035 236.678 191.808 237.716 191.37C238.754 190.932 239.695 190.291 240.482 189.485C241.27 188.68 241.889 187.725 242.303 186.677C242.718 185.629 242.919 184.509 242.895 183.382Z" fill="#A36957"/>
<path d="M247.916 158.055C247.914 158.316 247.81 158.566 247.625 158.751C247.44 158.936 247.19 159.04 246.928 159.042C246.802 159.05 246.675 159.033 246.555 158.991C246.435 158.949 246.324 158.883 246.23 158.798C246.136 158.713 246.06 158.61 246.006 158.495C245.952 158.38 245.921 158.255 245.916 158.128C245.918 157.867 246.021 157.618 246.204 157.432C246.387 157.246 246.635 157.138 246.896 157.132C247.024 157.124 247.152 157.142 247.273 157.184C247.394 157.227 247.505 157.293 247.6 157.379C247.695 157.465 247.772 157.569 247.826 157.685C247.881 157.801 247.911 157.927 247.916 158.055Z" fill="#263238"/>
<path d="M249.066 156.577C248.944 156.707 248.193 156.136 247.123 156.119C246.053 156.103 245.253 156.626 245.139 156.495C245.025 156.364 245.212 156.201 245.555 155.956C246.025 155.641 246.582 155.481 247.148 155.499C247.708 155.507 248.251 155.693 248.699 156.03C249.017 156.299 249.132 156.577 249.066 156.577Z" fill="#263238"/>
<path d="M237.506 157.875C237.504 158.135 237.4 158.384 237.217 158.568C237.034 158.753 236.786 158.859 236.526 158.863C236.399 158.871 236.272 158.853 236.152 158.811C236.032 158.769 235.922 158.703 235.828 158.618C235.734 158.533 235.657 158.43 235.603 158.315C235.549 158.2 235.519 158.075 235.514 157.948C235.516 157.688 235.619 157.438 235.802 157.252C235.985 157.066 236.233 156.959 236.493 156.952C236.621 156.945 236.749 156.963 236.869 157.005C236.989 157.048 237.1 157.114 237.195 157.2C237.289 157.286 237.365 157.39 237.419 157.506C237.472 157.622 237.502 157.747 237.506 157.875Z" fill="#263238"/>
<path d="M238.51 156.577C238.379 156.707 237.636 156.136 236.559 156.119C235.481 156.103 234.689 156.626 234.574 156.487C234.46 156.348 234.648 156.201 234.999 155.956C235.47 155.642 236.025 155.48 236.591 155.491C237.149 155.501 237.688 155.687 238.134 156.021C238.461 156.315 238.567 156.577 238.51 156.577Z" fill="#263238"/>
<path d="M242.264 164.644C242.832 164.474 243.419 164.377 244.012 164.358C244.289 164.358 244.551 164.284 244.6 164.097C244.626 163.813 244.567 163.529 244.428 163.28L243.652 161.182C242.933 159.399 242.357 157.561 241.93 155.687C242.791 157.407 243.514 159.192 244.093 161.027C244.347 161.77 244.6 162.472 244.828 163.141C244.993 163.475 245.04 163.855 244.959 164.219C244.915 164.316 244.851 164.402 244.77 164.471C244.69 164.54 244.596 164.59 244.493 164.619C244.341 164.658 244.185 164.674 244.028 164.668C243.441 164.732 242.849 164.723 242.264 164.644Z" fill="#263238"/>
<path d="M242.78 177.364C239.115 177.356 235.525 176.33 232.41 174.401C232.41 174.401 234.86 179.789 242.641 179.201L242.78 177.364Z" fill="#7C3B29"/>
<path d="M241.759 167.191C241.559 166.932 241.297 166.727 240.998 166.595C240.698 166.464 240.37 166.411 240.044 166.44C239.806 166.456 239.574 166.521 239.362 166.631C239.15 166.74 238.962 166.892 238.811 167.077C238.663 167.252 238.574 167.468 238.555 167.697C238.536 167.925 238.588 168.153 238.705 168.351C238.872 168.548 239.095 168.69 239.344 168.758C239.593 168.827 239.857 168.818 240.101 168.734C240.613 168.556 241.084 168.278 241.489 167.918C241.611 167.831 241.716 167.723 241.799 167.599C241.839 167.54 241.86 167.471 241.86 167.399C241.86 167.328 241.839 167.258 241.799 167.199" fill="#7C3B29"/>
<path d="M239.091 165.33C239.263 165.33 239.246 166.489 240.234 167.33C241.222 168.171 242.455 168.073 242.463 168.236C242.471 168.4 242.186 168.457 241.647 168.465C240.965 168.461 240.306 168.218 239.785 167.779C239.287 167.352 238.971 166.75 238.903 166.097C238.879 165.607 239.01 165.321 239.091 165.33Z" fill="#263238"/>
<path d="M238.861 152.405C238.747 152.698 237.677 152.535 236.412 152.666C235.146 152.796 234.117 153.123 233.962 152.862C233.897 152.731 234.077 152.462 234.493 152.184C235.043 151.841 235.667 151.634 236.314 151.58C236.96 151.514 237.612 151.604 238.216 151.841C238.682 152.037 238.91 152.266 238.861 152.405Z" fill="#263238"/>
<path d="M248.725 153.482C248.537 153.719 247.802 153.482 246.912 153.425C246.022 153.368 245.279 153.564 245.1 153.302C245.018 153.18 245.149 152.935 245.475 152.715C245.918 152.434 246.439 152.302 246.961 152.339C247.484 152.359 247.988 152.539 248.407 152.853C248.717 153.115 248.815 153.368 248.725 153.482Z" fill="#263238"/>
<path d="M234.534 140.565C235.304 141.802 235.816 143.182 236.041 144.621C236.265 146.06 236.197 147.53 235.84 148.942C235.483 150.355 234.845 151.681 233.964 152.841C233.084 154.001 231.978 154.972 230.713 155.695C229.788 156.079 228.972 156.684 228.337 157.459C227.668 158.528 227.954 159.908 228.076 161.174C228.235 162.881 228.053 164.603 227.541 166.24C227.03 167.877 226.199 169.397 225.096 170.71C223.61 167.82 222.116 164.889 221.462 161.729C221.249 160.101 220.905 158.493 220.434 156.92C220.091 156.005 219.576 155.156 219.274 154.225C218.794 152.489 218.874 150.647 219.503 148.959C220.56 145.855 222.8 143.294 225.736 141.833C228.672 140.373 232.066 140.132 235.179 141.161" fill="#263238"/>
<path d="M221.005 145.962C217.502 151.09 219.209 154.429 217.845 157.058C216.865 158.961 214.579 159.72 212.946 161.141C210.741 163.043 209.843 166.129 209.925 169.044C210.007 171.959 210.946 174.76 211.876 177.536L230.713 177.626C232.166 173.037 228.525 168.065 229.692 163.394C230.092 161.761 231.039 160.324 231.097 158.683C231.048 157.588 230.855 156.503 230.525 155.458C229.841 152.429 230.147 149.261 231.399 146.419" fill="#263238"/>
<path d="M253.565 143.701C253.565 143.701 253.443 143.456 253.141 143.064C252.7 142.529 252.141 142.104 251.508 141.823C250.566 141.407 249.539 141.219 248.511 141.276C247.251 141.369 246.011 141.644 244.829 142.092C243.555 142.533 242.379 143.015 241.196 143.292C240.179 143.56 239.124 143.654 238.077 143.57C237.368 143.511 236.678 143.317 236.043 142.998C235.873 142.907 235.709 142.803 235.554 142.688C235.499 142.652 235.447 142.611 235.398 142.566C235.398 142.566 235.635 142.713 236.076 142.925C236.71 143.211 237.391 143.379 238.085 143.423C239.116 143.487 240.151 143.38 241.147 143.105C242.281 142.819 243.482 142.337 244.764 141.888C245.964 141.436 247.224 141.161 248.503 141.071C249.56 141.024 250.613 141.231 251.573 141.676C252.218 141.979 252.779 142.436 253.206 143.007C253.316 143.164 253.411 143.331 253.492 143.505C253.527 143.565 253.552 143.632 253.565 143.701Z" fill="#455A64"/>
<path d="M250.848 156.879L251.02 157.001C251.094 157.051 251.163 157.108 251.224 157.173C251.309 157.257 251.388 157.347 251.461 157.442C251.912 158.061 252.193 158.787 252.277 159.549C252.355 160.068 252.393 160.592 252.392 161.116C252.392 161.68 252.392 162.276 252.392 162.904C252.386 163.559 252.46 164.211 252.612 164.848C252.772 165.522 253.121 166.136 253.616 166.62C254.17 167.052 254.767 167.427 255.396 167.738C255.997 168.063 256.495 168.549 256.833 169.142C257.342 170.173 257.463 171.353 257.176 172.466C256.994 173.203 256.737 173.92 256.409 174.605C256.294 174.85 256.205 175.029 256.139 175.16C256.114 175.228 256.078 175.291 256.033 175.348C256.033 175.348 256.033 175.274 256.107 175.144C256.18 175.013 256.245 174.801 256.335 174.572C256.631 173.882 256.863 173.166 257.029 172.433C257.141 171.932 257.177 171.417 257.135 170.906C257.105 170.32 256.944 169.747 256.662 169.232C256.337 168.674 255.862 168.218 255.29 167.918C254.647 167.599 254.04 167.213 253.478 166.766C252.946 166.262 252.577 165.611 252.416 164.897C252.264 164.244 252.19 163.575 252.196 162.904C252.196 162.276 252.196 161.672 252.236 161.116C252.246 160.598 252.216 160.079 252.147 159.565C252.076 158.821 251.818 158.107 251.395 157.491C251.077 157.067 250.832 156.903 250.848 156.879Z" fill="#455A64"/>
<path d="M218.792 176.801C218.792 176.801 218.792 176.801 218.735 176.703C218.678 176.605 218.654 176.54 218.596 176.409C218.482 176.148 218.319 175.756 218.147 175.234C217.942 174.603 217.792 173.955 217.698 173.298C217.564 172.424 217.564 171.535 217.698 170.661C217.866 169.598 218.274 168.587 218.89 167.705C219.669 166.763 220.579 165.938 221.593 165.256C222.116 164.868 222.59 164.418 223.006 163.917C223.425 163.388 223.721 162.771 223.871 162.112C224.106 160.699 224.039 159.252 223.675 157.867C223.291 156.461 223.088 155.013 223.071 153.556C223.097 152.856 223.252 152.167 223.528 151.523C223.813 150.909 224.212 150.355 224.704 149.89C225.618 149.066 226.679 148.42 227.831 147.987C228.884 147.546 229.897 147.171 230.778 146.795C231.578 146.455 232.328 146.007 233.008 145.464C233.515 145.048 233.951 144.552 234.298 143.995C234.519 143.643 234.686 143.26 234.796 142.86C234.869 142.582 234.885 142.435 234.894 142.435C234.888 142.581 234.869 142.726 234.836 142.868C234.742 143.278 234.585 143.672 234.371 144.035C234.029 144.61 233.593 145.124 233.081 145.554C232.4 146.115 231.644 146.579 230.836 146.934C229.954 147.342 228.941 147.701 227.896 148.142C226.77 148.58 225.732 149.219 224.834 150.028C224.362 150.472 223.981 151.005 223.716 151.596C223.447 152.218 223.3 152.886 223.283 153.564C223.301 154.999 223.502 156.425 223.879 157.81C224.254 159.227 224.318 160.709 224.067 162.153C223.912 162.84 223.602 163.482 223.161 164.031C222.732 164.542 222.248 165.002 221.715 165.403C220.707 166.086 219.802 166.911 219.029 167.852C218.422 168.712 218.014 169.697 217.837 170.735C217.608 172.248 217.733 173.794 218.205 175.25C218.36 175.772 218.507 176.164 218.613 176.434L218.735 176.736C218.756 176.757 218.775 176.778 218.792 176.801Z" fill="#455A64"/>
<path d="M234.713 142.427C234.713 142.427 234.672 142.427 234.583 142.427H234.215C233.889 142.427 233.399 142.345 232.778 142.321C231.022 142.223 229.262 142.416 227.569 142.892C226.393 143.241 225.288 143.794 224.303 144.525C223.189 145.354 222.297 146.445 221.706 147.701C221.141 149.13 220.898 150.667 220.996 152.2C221.109 153.859 221.051 155.525 220.825 157.173C220.68 158.018 220.381 158.829 219.943 159.565C219.496 160.271 218.899 160.87 218.196 161.32C216.84 162.219 215.362 162.757 214.244 163.705C213.19 164.608 212.48 165.849 212.235 167.215C212.006 168.405 212.034 169.63 212.317 170.808C212.555 171.78 212.914 172.718 213.386 173.6C213.738 174.27 214.128 174.919 214.554 175.544C214.905 176.058 215.191 176.45 215.371 176.711L215.591 177.013C215.632 177.087 215.656 177.12 215.656 177.128L215.566 177.03L215.33 176.744C215.134 176.483 214.832 176.099 214.513 175.585C214.071 174.967 213.668 174.324 213.305 173.658C212.82 172.769 212.45 171.822 212.203 170.841C211.903 169.643 211.867 168.395 212.096 167.183C212.34 165.772 213.064 164.488 214.146 163.549C215.297 162.578 216.783 162.031 218.106 161.149C218.783 160.714 219.357 160.138 219.788 159.459C220.211 158.744 220.501 157.958 220.645 157.14C220.861 155.516 220.919 153.876 220.817 152.241C220.725 150.678 220.978 149.114 221.56 147.661C222.159 146.364 223.078 145.24 224.229 144.395C225.213 143.662 226.319 143.109 227.495 142.762C229.206 142.291 230.984 142.117 232.754 142.247C233.374 142.247 233.856 142.345 234.182 142.386L234.558 142.443L234.713 142.427Z" fill="#455A64"/>
<path d="M224.785 177.618C225.24 177.387 225.656 177.087 226.018 176.728C226.431 176.295 226.768 175.795 227.014 175.25C227.33 174.525 227.517 173.752 227.569 172.964C227.629 172.005 227.535 171.043 227.292 170.114C227.008 169.046 226.667 167.994 226.271 166.962C225.82 165.818 225.455 164.642 225.177 163.443C224.875 162.141 224.875 160.786 225.177 159.483C225.343 158.827 225.619 158.203 225.994 157.638C226.371 157.102 226.803 156.606 227.284 156.16C228.231 155.287 229.251 154.592 230.182 153.882C231.088 153.244 231.911 152.495 232.632 151.653C233.238 150.914 233.73 150.088 234.093 149.204C234.622 147.909 234.88 146.52 234.852 145.121C234.852 144.876 234.852 144.656 234.812 144.468C234.806 144.306 234.79 144.146 234.763 143.986L234.722 143.692C234.722 143.627 234.722 143.594 234.722 143.594C234.845 144.095 234.916 144.606 234.934 145.121C234.984 146.516 234.745 147.906 234.232 149.204C233.872 150.112 233.379 150.962 232.77 151.727C232.052 152.585 231.23 153.351 230.321 154.005C229.39 154.723 228.37 155.417 227.447 156.283C226.977 156.718 226.556 157.202 226.19 157.728C225.818 158.27 225.542 158.872 225.373 159.508C225.075 160.778 225.075 162.1 225.373 163.37C225.646 164.559 226.004 165.726 226.443 166.864C226.84 167.902 227.175 168.963 227.447 170.041C227.69 170.986 227.778 171.965 227.708 172.939C227.645 173.743 227.444 174.531 227.112 175.266C226.853 175.818 226.499 176.321 226.067 176.752C225.795 177.023 225.484 177.251 225.144 177.43L224.875 177.552L224.785 177.618Z" fill="#455A64"/>
<path d="M235.52 145.783C237.512 147.179 239.716 148.632 242.141 148.461C243.563 148.222 244.95 147.81 246.273 147.236C247.644 146.779 249.237 146.566 250.461 147.326C251.278 147.26 251.629 146.183 251.278 145.464C250.85 144.784 250.173 144.298 249.392 144.109C245.032 142.623 240.68 144.305 235.781 144.623" fill="#263238"/>
<path d="M253.385 147.056C253.484 146.795 253.539 146.519 253.548 146.24C253.542 145.881 253.445 145.53 253.265 145.22C253.085 144.91 252.828 144.651 252.519 144.468C252.094 144.213 251.611 144.069 251.115 144.052C250.544 144.031 249.975 144.126 249.441 144.329C248.29 144.713 247.196 145.546 245.865 146.101C245.226 146.381 244.554 146.579 243.865 146.689C243.224 146.809 242.573 146.858 241.921 146.836C240.819 146.812 239.73 146.593 238.704 146.191C238.012 145.929 237.358 145.575 236.761 145.138C236.599 145.021 236.444 144.896 236.296 144.762C236.238 144.72 236.186 144.67 236.141 144.615C236.944 145.212 237.826 145.695 238.762 146.052C240.381 146.639 242.127 146.791 243.824 146.493C244.496 146.373 245.154 146.178 245.783 145.913C247.082 145.366 248.184 144.533 249.376 144.141C249.938 143.939 250.534 143.848 251.131 143.872C251.652 143.902 252.158 144.062 252.601 144.337C252.961 144.573 253.244 144.907 253.418 145.301C253.551 145.598 253.615 145.922 253.605 146.248C253.596 146.451 253.549 146.65 253.467 146.836C253.453 146.914 253.426 146.989 253.385 147.056Z" fill="#455A64"/>
</svg>
