<svg width="412" height="412" viewBox="0 0 412 412" fill="none" xmlns="http://www.w3.org/2000/svg">
<g opacity="0.2">
<path d="M55.681 260H47.6738V261.058H55.681V260Z" fill="#004EFF"/>
<path d="M18.0578 271.995H17C17.0027 268.824 18.2601 265.782 20.4976 263.535C22.7351 261.288 25.7709 260.017 28.9421 260H43.3276V261.058H28.9421C26.0514 261.075 23.2846 262.234 21.2455 264.283C19.2064 266.332 18.0605 269.104 18.0578 271.995Z" fill="#004EFF"/>
<path d="M153.834 263.702H28.9443C24.3702 263.702 20.6621 267.41 20.6621 271.984V292.547C20.6621 297.121 24.3702 300.829 28.9443 300.829H153.834C158.408 300.829 162.116 297.121 162.116 292.547V271.984C162.116 267.41 158.408 263.702 153.834 263.702Z" fill="#004EFF"/>
<path d="M74.4894 276.67L76.3087 280.351L80.3811 280.944L77.4299 283.81L78.128 287.872L74.4894 285.957L70.8507 287.872L71.5488 283.81L68.5977 280.944L72.67 280.351L74.4894 276.67Z" fill="white"/>
<path d="M91.0128 276.67L92.8322 280.351L96.9045 280.944L93.9534 283.81L94.6515 287.872L91.0128 285.957L87.3741 287.872L88.0722 283.81L85.1211 280.944L89.1935 280.351L91.0128 276.67Z" fill="white"/>
<path d="M107.534 276.67L109.354 280.351L113.426 280.944L110.485 283.81L111.173 287.872L107.534 285.957L103.896 287.872L104.594 283.81L101.643 280.944L105.715 280.351L107.534 276.67Z" fill="white"/>
<path d="M124.056 276.67L125.875 280.351L129.947 280.944L127.007 283.81L127.694 287.872L124.056 285.957L120.417 287.872L121.115 283.81L118.164 280.944L122.236 280.351L124.056 276.67Z" fill="white"/>
<path opacity="0.3" d="M140.578 279.061L141.445 280.827C141.523 280.981 141.637 281.113 141.777 281.212C141.917 281.312 142.079 281.376 142.249 281.398L144.196 281.684L142.789 283.059C142.666 283.178 142.575 283.325 142.521 283.487C142.468 283.649 142.454 283.822 142.482 283.99L142.81 285.936L141.075 285.069C140.92 284.994 140.75 284.955 140.578 284.953C140.409 284.952 140.242 284.992 140.091 285.069L138.346 285.989L138.642 284.011C138.67 283.843 138.657 283.67 138.603 283.508C138.55 283.346 138.458 283.199 138.336 283.08L136.929 281.705L138.875 281.42C139.05 281.399 139.217 281.335 139.361 281.233C139.506 281.132 139.622 280.996 139.7 280.838L140.567 279.071M140.567 276.681L138.748 280.362L134.676 280.954L137.627 283.831L136.929 287.882L140.567 285.968L144.206 287.882L143.508 283.831L146.459 280.954L142.387 280.362L140.567 276.681Z" fill="white"/>
<path opacity="0.2" d="M46.4595 294.969C53.4756 294.969 59.1632 289.282 59.1632 282.266C59.1632 275.25 53.4756 269.562 46.4595 269.562C39.4435 269.562 33.7559 275.25 33.7559 282.266C33.7559 289.282 39.4435 294.969 46.4595 294.969Z" fill="white"/>
<path d="M56.95 282.266C56.9527 284.6 56.1763 286.868 54.7438 288.711C53.3113 290.554 51.3047 291.866 49.042 292.439C46.7794 293.013 44.3901 292.814 42.2529 291.876C40.1158 290.937 38.353 289.312 37.244 287.258C36.4058 285.728 35.9691 284.011 35.9747 282.266C36.0612 279.542 37.204 276.959 39.1614 275.062C41.1188 273.166 43.7371 272.106 46.4623 272.106C49.1875 272.106 51.8059 273.166 53.7632 275.062C55.7206 276.959 56.8635 279.542 56.95 282.266Z" fill="white"/>
<path d="M55.6828 287.258C54.786 288.922 53.4556 290.313 51.8327 291.282C50.2097 292.251 48.3547 292.762 46.4645 292.762C44.5742 292.762 42.7192 292.251 41.0962 291.282C39.4733 290.313 38.1428 288.922 37.2461 287.258C39.9754 285.437 43.1832 284.465 46.4645 284.465C49.7457 284.465 52.9535 285.437 55.6828 287.258Z" fill="#263238"/>
<path d="M51.1318 278.722C51.1318 279.647 50.8576 280.551 50.3439 281.32C49.8302 282.089 49.1 282.688 48.2457 283.042C47.3914 283.396 46.4514 283.488 45.5444 283.308C44.6375 283.127 43.8045 282.682 43.1506 282.028C42.4968 281.374 42.0515 280.541 41.8711 279.634C41.6907 278.727 41.7833 277.787 42.1371 276.933C42.491 276.079 43.0902 275.349 43.8591 274.835C44.6279 274.321 45.5319 274.047 46.4565 274.047C47.6965 274.047 48.8857 274.54 49.7625 275.416C50.6392 276.293 51.1318 277.482 51.1318 278.722Z" fill="#FFC3BD"/>
</g>
<path d="M384.15 292.004L389.371 283.584L386.776 281.978C386.41 281.744 386.115 281.413 385.925 281.021C385.735 280.63 385.657 280.194 385.7 279.761C385.742 279.279 385.758 278.796 385.75 278.312C385.737 277.871 385.849 277.434 386.071 277.053C386.294 276.671 386.619 276.359 387.009 276.152L389.68 274.716L384.994 265.982L382.292 267.405C381.916 267.607 381.491 267.702 381.065 267.679C380.638 267.655 380.226 267.515 379.874 267.273C379.442 266.972 378.994 266.694 378.533 266.441C378.156 266.234 377.844 265.927 377.632 265.553C377.42 265.18 377.315 264.755 377.33 264.325L377.431 261.296L367.524 260.987L367.43 264.029C367.417 264.459 367.285 264.878 367.048 265.237C366.811 265.596 366.479 265.882 366.088 266.063C365.855 266.17 365.629 266.29 365.402 266.41C365.175 266.529 364.949 266.655 364.734 266.788C364.369 267.013 363.948 267.132 363.519 267.132C363.09 267.132 362.669 267.013 362.303 266.788L359.709 265.182L354.488 273.602L357.089 275.214C357.455 275.447 357.749 275.777 357.938 276.167C358.127 276.558 358.204 276.993 358.16 277.425C358.122 277.903 358.103 278.388 358.109 278.867C358.125 279.306 358.019 279.741 357.802 280.124C357.585 280.506 357.266 280.821 356.881 281.033L354.211 282.463L358.896 291.198L361.567 289.768C361.955 289.563 362.393 289.471 362.831 289.501C363.27 289.531 363.691 289.682 364.048 289.938C364.442 290.214 364.852 290.466 365.276 290.694C365.661 290.895 365.983 291.2 366.205 291.574C366.428 291.947 366.542 292.375 366.536 292.81L366.441 295.871L376.341 296.179L376.436 293.144C376.453 292.709 376.591 292.288 376.833 291.926C377.075 291.565 377.413 291.278 377.808 291.097C378.035 290.996 378.249 290.883 378.47 290.769C378.69 290.656 378.898 290.53 379.099 290.404C379.471 290.176 379.898 290.055 380.334 290.055C380.77 290.055 381.197 290.176 381.568 290.404L384.15 292.004ZM376.669 285.19C375.291 286.18 373.637 286.714 371.941 286.717C370.244 286.719 368.589 286.19 367.208 285.203C365.828 284.216 364.791 282.822 364.244 281.215C363.698 279.609 363.668 277.872 364.159 276.248C364.651 274.623 365.639 273.194 366.985 272.161C368.331 271.127 369.967 270.541 371.663 270.486C373.359 270.43 375.029 270.907 376.44 271.85C377.851 272.793 378.931 274.155 379.528 275.743C380.156 277.413 380.217 279.243 379.7 280.951C379.183 282.659 378.118 284.149 376.669 285.19Z" fill="#EBEBEB"/>
<path d="M353.368 261L359.376 257.53L358.318 255.691C358.166 255.426 358.091 255.123 358.101 254.817C358.111 254.511 358.206 254.214 358.375 253.959C358.563 253.671 358.735 253.372 358.891 253.065C359.027 252.791 359.236 252.561 359.495 252.4C359.754 252.239 360.053 252.153 360.359 252.152H362.487V245.224H360.359C360.054 245.222 359.755 245.135 359.496 244.974C359.237 244.813 359.028 244.584 358.891 244.311C358.735 244.002 358.563 243.701 358.375 243.411C358.206 243.157 358.111 242.861 358.101 242.556C358.091 242.251 358.166 241.949 358.318 241.685L359.376 239.846L353.368 236.357L352.304 238.202C352.149 238.466 351.923 238.681 351.653 238.825C351.383 238.968 351.079 239.034 350.773 239.015C350.603 239.015 350.433 239.015 350.257 239.015C350.081 239.015 349.917 239.015 349.747 239.015C349.443 239.034 349.14 238.969 348.871 238.827C348.602 238.684 348.378 238.47 348.223 238.209L347.152 236.357L341.138 239.827L342.202 241.672C342.355 241.937 342.43 242.238 342.42 242.543C342.41 242.848 342.315 243.144 342.146 243.398C341.956 243.687 341.781 243.985 341.623 244.292C341.489 244.566 341.282 244.797 341.023 244.958C340.765 245.12 340.466 245.205 340.162 245.205H338.033V252.133H340.143C340.447 252.133 340.745 252.218 341.003 252.378C341.261 252.538 341.469 252.768 341.604 253.04C341.761 253.348 341.935 253.646 342.127 253.934C342.296 254.189 342.391 254.486 342.401 254.792C342.411 255.098 342.335 255.4 342.183 255.666L341.119 257.511L347.133 260.981L348.198 259.136C348.354 258.874 348.579 258.66 348.849 258.517C349.119 258.375 349.423 258.31 349.728 258.33H350.238H350.755C351.059 258.31 351.363 258.375 351.633 258.517C351.903 258.66 352.129 258.874 352.285 259.136L353.368 261ZM350.219 254.362C349.098 254.362 348.002 254.03 347.07 253.407C346.138 252.784 345.412 251.899 344.983 250.863C344.554 249.828 344.442 248.688 344.66 247.589C344.879 246.489 345.419 245.479 346.211 244.686C347.004 243.894 348.014 243.354 349.114 243.135C350.213 242.917 351.353 243.029 352.388 243.458C353.424 243.887 354.309 244.613 354.932 245.545C355.555 246.477 355.887 247.573 355.887 248.694C355.887 250.198 355.29 251.639 354.227 252.702C353.164 253.765 351.722 254.362 350.219 254.362Z" fill="#EBEBEB"/>
<path d="M24.1924 140.139C24.4564 140.293 24.6722 140.518 24.8157 140.789C24.9591 141.059 25.0246 141.364 25.0049 141.669C25.0049 141.839 25.0049 142.009 25.0049 142.179C25.0049 142.349 25.0049 142.525 25.0049 142.695C25.0241 142.999 24.959 143.302 24.8167 143.571C24.6744 143.84 24.4606 144.064 24.1987 144.219L22.3535 145.271L25.8236 151.286L27.6625 150.221C27.9286 150.07 28.2315 149.996 28.5374 150.007C28.8432 150.018 29.1399 150.114 29.3944 150.284C29.6831 150.472 29.9816 150.644 30.2886 150.801C30.5612 150.937 30.7907 151.147 30.9518 151.406C31.1129 151.665 31.1994 151.963 31.2018 152.268V154.39H38.1293V152.268C38.1304 151.964 38.2156 151.665 38.3757 151.406C38.5358 151.147 38.7643 150.938 39.0362 150.801C39.344 150.646 39.6426 150.473 39.9304 150.284C40.1849 150.114 40.4816 150.018 40.7874 150.007C41.0933 149.996 41.3962 150.07 41.6623 150.221L43.5075 151.286L46.9776 145.271L45.1261 144.201C44.8632 144.047 44.6486 143.822 44.5062 143.553C44.3638 143.284 44.2993 142.98 44.3199 142.677C44.3199 142.506 44.3199 142.336 44.3199 142.166C44.3199 141.996 44.3199 141.826 44.3199 141.656C44.2995 141.352 44.3641 141.047 44.5064 140.777C44.6487 140.507 44.8632 140.281 45.1261 140.126L46.9776 139.062L43.5201 133.06L41.6812 134.124C41.4157 134.276 41.1131 134.352 40.8072 134.342C40.5014 134.332 40.2044 134.237 39.9493 134.068C39.6607 133.878 39.3622 133.703 39.0551 133.545C38.7816 133.409 38.5513 133.2 38.39 132.941C38.2288 132.682 38.1428 132.383 38.1419 132.077V129.955H31.2144V132.077C31.2114 132.383 31.124 132.682 30.9617 132.941C30.7994 133.2 30.5687 133.409 30.2949 133.545C29.9857 133.703 29.6851 133.878 29.3944 134.068C29.1406 134.237 28.8445 134.332 28.5397 134.342C28.2348 134.352 27.9331 134.276 27.6688 134.124L25.8236 133.06L22.3535 139.074L24.1924 140.139ZM34.7033 136.492C35.8243 136.492 36.9202 136.825 37.8523 137.447C38.7844 138.07 39.5108 138.955 39.9398 139.991C40.3688 141.027 40.4811 142.166 40.2624 143.266C40.0437 144.365 39.5038 145.375 38.7112 146.168C37.9185 146.961 36.9086 147.5 35.8091 147.719C34.7096 147.938 33.57 147.826 32.5343 147.397C31.4986 146.968 30.6134 146.241 29.9906 145.309C29.3678 144.377 29.0354 143.281 29.0354 142.16C29.0354 140.657 29.6325 139.215 30.6955 138.152C31.7584 137.089 33.2001 136.492 34.7033 136.492Z" fill="#EBEBEB"/>
<path d="M325.557 141.008C323.82 145.437 322.795 150.113 322.522 154.863H322.345H310.38H310.229V154.523C310.229 154.208 310.298 153.893 310.329 153.578C310.483 151.944 310.755 150.323 311.142 148.729C311.781 146.119 312.697 143.586 313.875 141.171C313.897 141.112 313.938 141.062 313.992 141.029C314.045 140.996 314.108 140.982 314.171 140.989H325.57L325.557 141.008Z" fill="#EBEBEB"/>
<path d="M325.186 172.036H313.888C313.829 172.044 313.768 172.03 313.718 171.998C313.667 171.966 313.63 171.917 313.611 171.86C312.311 169.144 311.367 166.272 310.802 163.314C310.529 161.885 310.344 160.44 310.248 158.988C310.254 158.939 310.254 158.891 310.248 158.843V158.496C310.311 158.496 310.374 158.496 310.437 158.496H322.34C322.56 158.496 322.547 158.496 322.566 158.723C322.642 159.712 322.705 160.701 322.799 161.683C322.957 163.248 323.209 164.803 323.555 166.337C323.963 168.217 324.5 170.066 325.161 171.873C325.172 171.927 325.181 171.981 325.186 172.036Z" fill="#EBEBEB"/>
<path d="M372.727 175.614L372.626 175.784C371.67 177.25 370.598 178.638 369.421 179.934C368.01 181.534 366.438 182.984 364.729 184.26C361.435 186.762 357.707 188.632 353.733 189.777C352.188 190.22 350.614 190.555 349.022 190.778L348.563 190.854H348.286L348.027 190.69L348.323 190.476C351.771 188.129 354.788 185.203 357.241 181.829C358.625 179.924 359.843 177.904 360.881 175.79C360.9 175.733 360.937 175.684 360.988 175.652C361.038 175.62 361.099 175.606 361.158 175.614H372.727Z" fill="#EBEBEB"/>
<path d="M361.416 154.888H345.539V141.033H357.933C357.988 141.026 358.044 141.04 358.09 141.071C358.137 141.102 358.17 141.149 358.185 141.203C359.319 143.811 360.163 146.535 360.704 149.327C360.992 150.784 361.202 152.256 361.334 153.735C361.353 154.088 361.384 154.478 361.416 154.888Z" fill="#EBEBEB"/>
<path d="M361.322 158.591C361.322 158.918 361.322 159.221 361.271 159.567C361.202 160.342 361.152 161.116 361.045 161.885C360.894 162.949 360.73 164.013 360.516 165.065C360.045 167.382 359.356 169.649 358.456 171.835C358.443 171.899 358.405 171.957 358.352 171.995C358.298 172.033 358.232 172.05 358.167 172.043H345.445V158.591H361.322Z" fill="#EBEBEB"/>
<path d="M341.956 141.096V154.989H326.457C326.457 154.636 326.489 154.296 326.52 153.949C326.602 153.175 326.665 152.394 326.791 151.626C326.98 150.448 327.181 149.27 327.421 148.099C327.94 145.753 328.691 143.464 329.663 141.266C329.679 141.21 329.714 141.163 329.763 141.131C329.812 141.1 329.87 141.087 329.927 141.096H341.943H341.956Z" fill="#EBEBEB"/>
<path d="M341.975 158.773C341.975 163.132 341.975 167.485 341.975 171.835V172.036H329.581C329.522 172.043 329.462 172.028 329.412 171.995C329.362 171.962 329.326 171.912 329.31 171.854C328.367 169.601 327.66 167.256 327.201 164.857C326.968 163.598 326.791 162.376 326.634 161.129C326.533 160.316 326.508 159.491 326.451 158.673C326.451 158.673 326.451 158.629 326.451 158.585H341.78C341.937 158.572 341.975 158.622 341.975 158.773Z" fill="#EBEBEB"/>
<path d="M378.251 154.989H365.24C364.972 150.195 363.941 145.476 362.186 141.008H374.309C374.368 141.001 374.428 141.014 374.479 141.044C374.531 141.075 374.57 141.122 374.592 141.178C375.982 143.93 376.993 146.858 377.596 149.881C377.913 151.49 378.123 153.119 378.226 154.756C378.257 154.825 378.251 154.9 378.251 154.989Z" fill="#EBEBEB"/>
<path d="M378.263 158.496C378.263 158.811 378.263 159.126 378.219 159.41C377.951 163.325 376.996 167.162 375.397 170.745C375.221 171.149 375.032 171.545 374.849 171.948C374.835 171.988 374.808 172.021 374.773 172.043C374.737 172.064 374.695 172.073 374.654 172.068H362.688H362.562C362.707 171.652 362.852 171.249 362.991 170.846C363.688 168.779 364.225 166.661 364.597 164.511C364.875 162.948 365.062 161.371 365.157 159.787C365.157 159.416 365.201 159.044 365.22 158.666C365.22 158.572 365.22 158.522 365.352 158.528H378.25L378.263 158.496Z" fill="#EBEBEB"/>
<path d="M372.369 137.468C372.369 137.468 372.369 137.468 372.369 137.519H360.8C360.743 137.526 360.685 137.515 360.635 137.486C360.585 137.458 360.546 137.414 360.523 137.361C359.005 134.337 357.099 131.524 354.855 128.992C353.539 127.528 352.088 126.191 350.522 124.999C349.747 124.369 348.941 123.84 348.148 123.267L348.016 123.166L348.173 123.059C348.173 122.984 348.129 122.908 348.097 122.814C352.956 123.369 357.637 124.966 361.823 127.495C366.008 130.024 369.599 133.426 372.35 137.468H372.369Z" fill="#EBEBEB"/>
<path d="M339.758 190.697C339.65 190.73 339.537 190.749 339.424 190.753C338.174 190.588 336.935 190.346 335.715 190.029C333.432 189.452 331.217 188.633 329.109 187.586C326.699 186.389 324.441 184.909 322.383 183.177C320.914 181.951 319.559 180.596 318.333 179.128C317.419 178.018 316.578 176.85 315.814 175.632L315.764 175.525H326.539C326.596 175.52 326.653 175.533 326.701 175.564C326.749 175.595 326.785 175.641 326.804 175.695C327.906 177.921 329.209 180.042 330.696 182.031C332.069 183.837 333.595 185.523 335.255 187.069C336.626 188.364 338.101 189.546 339.664 190.602L339.758 190.697Z" fill="#EBEBEB"/>
<path d="M339.614 123.147C339.129 123.506 338.563 123.903 338.008 124.331C336.16 125.768 334.442 127.365 332.876 129.105C330.752 131.421 328.941 134.006 327.491 136.794C327.397 136.971 327.315 137.147 327.214 137.317C327.196 137.345 327.172 137.369 327.143 137.388C327.115 137.406 327.084 137.419 327.05 137.424C326.862 137.424 326.666 137.424 326.471 137.424H316.111C321.88 129.281 329.633 124.382 339.514 122.883L339.451 123.015L339.614 123.147Z" fill="#EBEBEB"/>
<path d="M356.68 175.626C355.218 178.189 353.457 180.569 351.434 182.717C349.649 184.645 347.638 186.351 345.445 187.8V175.626H356.68Z" fill="#EBEBEB"/>
<path d="M341.957 175.632V187.567C337.475 184.493 333.783 180.404 331.182 175.632H341.957Z" fill="#EBEBEB"/>
<path d="M356.321 137.418H345.539V126.038C347.752 127.479 349.784 129.181 351.591 131.108C353.383 133.041 354.968 135.156 356.321 137.418Z" fill="#EBEBEB"/>
<path d="M341.957 126.378V137.506H331.609C334.14 133.038 337.684 129.226 341.957 126.378Z" fill="#EBEBEB"/>
<path d="M139.838 117.952H57.8984V173.17H139.838V117.952Z" fill="white"/>
<path d="M140.151 173.485H57.582V117.637H140.151V173.485ZM58.2118 172.855H139.522V118.267H58.2118V172.855Z" fill="#EBEBEB"/>
<path d="M65.8138 122.133C65.8138 122.507 65.703 122.872 65.4954 123.183C65.2878 123.494 64.9927 123.736 64.6475 123.879C64.3023 124.022 63.9224 124.059 63.5559 123.986C63.1894 123.914 62.8528 123.734 62.5885 123.469C62.3243 123.205 62.1444 122.868 62.0715 122.502C61.9986 122.135 62.036 121.756 62.179 121.41C62.322 121.065 62.5641 120.77 62.8748 120.562C63.1855 120.355 63.5508 120.244 63.9245 120.244C64.4255 120.244 64.9061 120.443 65.2604 120.797C65.6147 121.152 65.8138 121.632 65.8138 122.133Z" fill="#37474F"/>
<path d="M73.5228 122.133C73.5228 122.507 73.412 122.872 73.2044 123.183C72.9968 123.494 72.7017 123.736 72.3565 123.879C72.0112 124.022 71.6314 124.059 71.2649 123.986C70.8984 123.914 70.5617 123.734 70.2975 123.469C70.0333 123.205 69.8533 122.868 69.7804 122.502C69.7075 122.135 69.745 121.756 69.888 121.41C70.031 121.065 70.2731 120.77 70.5838 120.562C70.8945 120.355 71.2598 120.244 71.6335 120.244C72.1345 120.244 72.6151 120.443 72.9694 120.797C73.3237 121.152 73.5228 121.632 73.5228 122.133Z" fill="#EBEBEB"/>
<path d="M81.2239 122.133C81.2239 122.507 81.1131 122.872 80.9055 123.183C80.6979 123.494 80.4029 123.736 80.0576 123.879C79.7124 124.022 79.3325 124.059 78.966 123.986C78.5996 123.914 78.2629 123.734 77.9987 123.469C77.7345 123.205 77.5545 122.868 77.4816 122.502C77.4087 122.135 77.4461 121.756 77.5891 121.41C77.7321 121.065 77.9743 120.77 78.285 120.562C78.5957 120.355 78.961 120.244 79.3346 120.244C79.8357 120.244 80.3163 120.443 80.6706 120.797C81.0249 121.152 81.2239 121.632 81.2239 122.133Z" fill="#004EFF"/>
<path d="M139.838 125.956H57.8984V126.586H139.838V125.956Z" fill="#EBEBEB"/>
<path d="M328.654 142.853H82.2812V307.658H328.654V142.853Z" fill="#DBDBDB"/>
<path d="M326.872 144.862H84.0762V305.649H326.872V144.862Z" fill="#263238"/>
<path d="M360.748 320.014H50.1953V331.325H360.748V320.014Z" fill="#C7C7C7"/>
<path d="M50.1953 320.014L82.2822 307.658H328.661L360.748 320.014H50.1953Z" fill="#DBDBDB"/>
<path d="M85.1484 315.631L105.855 307.658H305.084L325.797 315.631H85.1484Z" fill="#263238"/>
<path d="M313.143 157.079H97.793V293.431H313.143V157.079Z" fill="#FBFAFF"/>
<path d="M313.144 157.079H97.6113V162.325H313.144V157.079Z" fill="#455A64"/>
<path d="M101.787 159.699C101.788 159.957 101.713 160.21 101.57 160.425C101.428 160.64 101.225 160.809 100.987 160.908C100.748 161.008 100.486 161.034 100.233 160.985C99.9796 160.935 99.7467 160.812 99.5638 160.63C99.3808 160.448 99.256 160.215 99.2052 159.962C99.1544 159.709 99.1798 159.447 99.2783 159.208C99.3768 158.97 99.5439 158.766 99.7584 158.622C99.9729 158.479 100.225 158.402 100.483 158.402C100.828 158.402 101.159 158.538 101.403 158.782C101.647 159.025 101.785 159.355 101.787 159.699Z" fill="#C7C7C7"/>
<path d="M107.127 159.699C107.128 159.958 107.052 160.211 106.91 160.426C106.767 160.641 106.563 160.809 106.325 160.909C106.086 161.008 105.824 161.035 105.57 160.984C105.317 160.934 105.084 160.81 104.901 160.627C104.719 160.445 104.594 160.212 104.544 159.958C104.494 159.705 104.521 159.442 104.62 159.204C104.719 158.965 104.887 158.762 105.103 158.619C105.318 158.476 105.571 158.401 105.829 158.402C106.173 158.404 106.502 158.541 106.745 158.784C106.988 159.027 107.125 159.356 107.127 159.699Z" fill="white"/>
<path d="M112.41 159.699C112.411 159.957 112.336 160.21 112.193 160.425C112.051 160.64 111.848 160.809 111.61 160.908C111.372 161.008 111.109 161.034 110.856 160.985C110.603 160.935 110.37 160.812 110.187 160.63C110.004 160.448 109.879 160.215 109.828 159.962C109.777 159.709 109.803 159.447 109.901 159.208C110 158.97 110.167 158.766 110.381 158.622C110.596 158.479 110.848 158.402 111.106 158.402C111.451 158.402 111.782 158.538 112.026 158.782C112.27 159.025 112.408 159.355 112.41 159.699Z" fill="#004EFF"/>
<path d="M346.597 182.415H65.4043V220.781H346.597V182.415Z" fill="white"/>
<path d="M346.913 221.096H65.0898V182.1H346.913V221.096ZM65.7196 220.466H346.283V182.73H65.7196V220.466Z" fill="#C7C7C7"/>
<path d="M346.598 182.415H308.232V220.781H346.598V182.415Z" fill="#004EFF"/>
<path d="M339.576 212.354L336.03 215.037L329.468 206.359L327.068 203.21C327.561 203.019 328.023 202.758 328.441 202.436C329.244 201.821 329.871 201.007 330.261 200.074L332.812 203.437L339.576 212.354Z" fill="white"/>
<path d="M332.586 191.944C331.464 190.479 329.947 189.366 328.213 188.735C326.479 188.104 324.602 187.982 322.801 188.384C321 188.785 319.352 189.693 318.05 191C316.749 192.308 315.848 193.96 315.455 195.763C315.062 197.565 315.192 199.442 315.83 201.173C316.469 202.904 317.589 204.416 319.059 205.531C320.528 206.646 322.286 207.318 324.125 207.467C325.964 207.616 327.807 207.236 329.437 206.372C330.763 205.659 331.907 204.65 332.781 203.424C333.979 201.741 334.606 199.718 334.571 197.652C334.536 195.586 333.84 193.585 332.586 191.944ZM328.429 202.423C328.011 202.746 327.548 203.006 327.056 203.198C325.704 203.731 324.201 203.732 322.848 203.199C321.496 202.667 320.396 201.641 319.771 200.329C319.146 199.018 319.042 197.517 319.48 196.132C319.918 194.746 320.865 193.578 322.131 192.864C323.396 192.15 324.886 191.943 326.298 192.284C327.711 192.626 328.941 193.491 329.741 194.704C330.54 195.918 330.85 197.389 330.606 198.822C330.363 200.255 329.585 201.542 328.429 202.423Z" fill="white"/>
<path d="M75.4871 189.96H73.4277V213.242H75.4871V189.96Z" fill="#263238"/>
<path d="M246.95 235.662L250.898 245.197L246.956 246.828L242.988 237.23L236.477 242.281V215.434L255.269 234.422L246.95 235.662Z" fill="#263238"/>
<path d="M236.704 211.863C236.487 211.295 236.38 210.69 236.39 210.081C236.378 209.474 236.485 208.871 236.704 208.305C236.927 208.87 237.035 209.474 237.019 210.081C237.032 210.69 236.925 211.295 236.704 211.863Z" fill="#263238"/>
<path d="M233.636 213.135C233.081 212.888 232.578 212.535 232.156 212.096C231.715 211.677 231.362 211.174 231.117 210.616C232.228 211.132 233.121 212.024 233.636 213.135Z" fill="#263238"/>
<path d="M232.365 216.202C231.798 216.419 231.196 216.526 230.589 216.517C229.98 216.53 229.374 216.423 228.807 216.202C229.374 215.979 229.98 215.872 230.589 215.887C231.196 215.875 231.799 215.982 232.365 216.202Z" fill="#263238"/>
<path d="M233.636 219.269C233.389 219.823 233.038 220.326 232.603 220.749C232.181 221.189 231.676 221.542 231.117 221.788C231.363 221.23 231.716 220.725 232.156 220.302C232.58 219.868 233.082 219.517 233.636 219.269Z" fill="#263238"/>
<path d="M241.043 216.202C241.611 215.982 242.216 215.875 242.825 215.887C243.432 215.872 244.036 215.979 244.601 216.202C244.035 216.422 243.432 216.529 242.825 216.517C242.216 216.527 241.612 216.42 241.043 216.202Z" fill="#263238"/>
<path d="M239.771 213.135C240.292 212.028 241.183 211.136 242.291 210.616C241.77 211.724 240.879 212.615 239.771 213.135Z" fill="#263238"/>
<path d="M188.789 109H184.486V109.568H188.789V109Z" fill="#004EFF"/>
<path d="M168.568 115.446H168C168.001 113.742 168.677 112.107 169.88 110.9C171.082 109.692 172.714 109.009 174.418 109H182.149V109.568H174.418C172.864 109.577 171.377 110.201 170.282 111.302C169.186 112.403 168.57 113.893 168.568 115.446Z" fill="#004EFF"/>
<path d="M241.534 110.99H174.418C171.96 110.99 169.967 112.982 169.967 115.44V126.491C169.967 128.949 171.96 130.942 174.418 130.942H241.534C243.992 130.942 245.985 128.949 245.985 126.491V115.44C245.985 112.982 243.992 110.99 241.534 110.99Z" fill="#004EFF"/>
<path d="M198.895 117.959L199.872 119.937L202.061 120.255L200.475 121.796L200.85 123.979L198.895 122.95L196.939 123.979L197.314 121.796L195.729 120.255L197.917 119.937L198.895 117.959Z" fill="white"/>
<path d="M207.776 117.959L208.753 119.937L210.942 120.255L209.356 121.796L209.731 123.979L207.776 122.95L205.82 123.979L206.195 121.796L204.609 120.255L206.798 119.937L207.776 117.959Z" fill="white"/>
<path d="M216.653 117.959L217.63 119.937L219.819 120.255L218.239 121.796L218.608 123.979L216.653 122.95L214.697 123.979L215.072 121.796L213.486 120.255L215.675 119.937L216.653 117.959Z" fill="white"/>
<path d="M225.533 117.959L226.511 119.937L228.7 120.255L227.119 121.796L227.489 123.979L225.533 122.95L223.578 123.979L223.953 121.796L222.367 120.255L224.556 119.937L225.533 117.959Z" fill="white"/>
<path opacity="0.3" d="M234.412 119.243L234.878 120.193C234.92 120.275 234.981 120.346 235.056 120.4C235.132 120.453 235.219 120.487 235.31 120.5L236.356 120.653L235.6 121.392C235.534 121.456 235.485 121.535 235.456 121.622C235.428 121.709 235.42 121.802 235.435 121.892L235.612 122.938L234.679 122.472C234.596 122.432 234.505 122.411 234.412 122.41C234.321 122.409 234.232 122.431 234.151 122.472L233.213 122.967L233.372 121.904C233.387 121.813 233.38 121.72 233.351 121.633C233.322 121.546 233.273 121.467 233.207 121.404L232.451 120.665L233.497 120.511C233.591 120.5 233.681 120.466 233.758 120.411C233.836 120.356 233.898 120.283 233.94 120.198L234.406 119.249M234.406 117.964L233.429 119.943L231.24 120.261L232.826 121.807L232.451 123.984L234.406 122.955L236.362 123.984L235.987 121.807L237.573 120.261L235.384 119.943L234.406 117.964Z" fill="white"/>
<path opacity="0.2" d="M183.831 127.793C187.601 127.793 190.658 124.736 190.658 120.966C190.658 117.195 187.601 114.139 183.831 114.139C180.06 114.139 177.004 117.195 177.004 120.966C177.004 124.736 180.06 127.793 183.831 127.793Z" fill="white"/>
<path d="M189.47 120.966C189.471 122.22 189.054 123.439 188.284 124.43C187.514 125.42 186.436 126.125 185.22 126.433C184.004 126.741 182.72 126.635 181.571 126.13C180.423 125.626 179.475 124.753 178.879 123.649C178.429 122.827 178.194 121.903 178.197 120.966C178.244 119.502 178.858 118.114 179.91 117.095C180.962 116.076 182.369 115.506 183.833 115.506C185.298 115.506 186.705 116.076 187.757 117.095C188.809 118.114 189.423 119.502 189.47 120.966Z" fill="white"/>
<path d="M188.787 123.649C188.305 124.543 187.59 125.29 186.718 125.811C185.846 126.332 184.849 126.607 183.833 126.607C182.817 126.607 181.82 126.332 180.948 125.811C180.076 125.29 179.361 124.543 178.879 123.649C180.346 122.67 182.07 122.148 183.833 122.148C185.596 122.148 187.32 122.67 188.787 123.649Z" fill="#263238"/>
<path d="M186.343 119.061C186.343 119.558 186.196 120.044 185.92 120.457C185.644 120.871 185.252 121.193 184.792 121.383C184.333 121.573 183.828 121.623 183.341 121.526C182.853 121.429 182.406 121.19 182.054 120.838C181.703 120.487 181.464 120.039 181.367 119.552C181.27 119.064 181.319 118.559 181.51 118.1C181.7 117.641 182.022 117.248 182.435 116.972C182.848 116.696 183.334 116.549 183.831 116.549C184.497 116.549 185.136 116.814 185.608 117.285C186.079 117.756 186.343 118.395 186.343 119.061Z" fill="#FFC3BD"/>
<path d="M364.842 105.241H348.217V106.071H364.842V105.241Z" fill="#004EFF"/>
<path d="M371.606 74H273.506C269.913 74 267 76.9127 267 80.5057V96.6577C267 100.251 269.913 103.163 273.506 103.163H371.606C375.199 103.163 378.112 100.251 378.112 96.6577V80.5057C378.112 76.9127 375.199 74 371.606 74Z" fill="#004EFF"/>
<path d="M309.282 84.1781L310.711 87.0778L313.91 87.5348L311.592 89.7948L312.14 92.977L309.282 91.4731L306.424 92.977L306.972 89.7948L304.654 87.5348L307.853 87.0778L309.282 84.1781Z" fill="white"/>
<path d="M322.261 84.1781L323.69 87.0778L326.889 87.5348L324.571 89.7948L325.119 92.977L322.261 91.4731L319.403 92.977L319.951 89.7948L317.633 87.5348L320.832 87.0778L322.261 84.1781Z" fill="white"/>
<path d="M335.239 84.1781L336.668 87.0778L339.867 87.5348L337.557 89.7948L338.097 92.977L335.239 91.4731L332.381 92.977L332.929 89.7948L330.611 87.5348L333.81 87.0778L335.239 84.1781Z" fill="white"/>
<path d="M348.218 84.1781L349.647 87.0778L352.846 87.5348L350.536 89.7948L351.076 92.977L348.218 91.4731L345.36 92.977L345.908 89.7948L343.59 87.5348L346.789 87.0778L348.218 84.1781Z" fill="white"/>
<path d="M361.194 84.1781L362.623 87.0778L365.822 87.5348L363.512 89.7948L364.053 92.977L361.194 91.4731L358.336 92.977L358.885 89.7948L356.566 87.5348L359.765 87.0778L361.194 84.1781Z" fill="white"/>
<path opacity="0.2" d="M294.324 95.6364C298.221 91.7395 298.221 85.4213 294.324 81.5244C290.427 77.6275 284.109 77.6275 280.212 81.5244C276.315 85.4213 276.315 91.7395 280.212 95.6364C284.109 99.5333 290.427 99.5333 294.324 95.6364Z" fill="white"/>
<path d="M295.505 88.5734C295.509 90.4076 294.901 92.1906 293.776 93.6396C292.652 95.0886 291.076 96.1206 289.298 96.572C287.52 97.0233 285.642 96.8682 283.963 96.1311C282.283 95.3941 280.898 94.1173 280.026 92.5034C279.368 91.2984 279.025 89.9465 279.029 88.5734C279.097 86.4338 279.995 84.4046 281.533 82.9151C283.07 81.4257 285.127 80.5928 287.267 80.5928C289.408 80.5928 291.465 81.4257 293.002 82.9151C294.54 84.4046 295.437 86.4338 295.505 88.5734Z" fill="white"/>
<path opacity="0.5" d="M294.509 92.5034C293.803 93.8082 292.757 94.8978 291.483 95.6572C290.208 96.4166 288.752 96.8175 287.268 96.8175C285.785 96.8175 284.329 96.4166 283.054 95.6572C281.779 94.8978 280.734 93.8082 280.027 92.5034C282.171 91.0727 284.691 90.3091 287.268 90.3091C289.846 90.3091 292.365 91.0727 294.509 92.5034Z" fill="#004EFF"/>
<path d="M290.937 85.7567C290.938 86.4834 290.724 87.1943 290.322 87.7993C289.919 88.4043 289.346 88.8763 288.675 89.1555C288.004 89.4348 287.266 89.5087 286.553 89.3679C285.84 89.2271 285.185 88.878 284.67 88.3648C284.156 87.8515 283.805 87.1972 283.663 86.4845C283.521 85.7719 283.593 85.0331 283.871 84.3616C284.148 83.6901 284.619 83.116 285.223 82.7121C285.827 82.3082 286.538 82.0926 287.264 82.0926C288.237 82.0926 289.17 82.4784 289.858 83.1653C290.547 83.8522 290.934 84.7842 290.937 85.7567Z" fill="#FFB573"/>
<path d="M192.621 249.407H124.443C121.946 249.407 119.922 251.431 119.922 253.928V265.154C119.922 267.651 121.946 269.675 124.443 269.675H192.621C195.118 269.675 197.143 267.651 197.143 265.154V253.928C197.143 251.431 195.118 249.407 192.621 249.407Z" fill="#004EFF"/>
<path d="M195.046 261.273L190.195 269.675H202.322L195.046 261.273Z" fill="#004EFF"/>
<path d="M149.306 256.481L150.299 258.496L152.523 258.819L150.911 260.384L151.293 262.596L149.306 261.551L147.32 262.596L147.701 260.384L146.09 258.819L148.313 258.496L149.306 256.481Z" fill="white"/>
<path d="M158.328 256.481L159.321 258.496L161.544 258.819L159.933 260.384L160.314 262.596L158.328 261.551L156.341 262.596L156.722 260.384L155.111 258.819L157.334 258.496L158.328 256.481Z" fill="white"/>
<path opacity="0.3" d="M167.347 257.786L167.821 258.75C167.862 258.835 167.924 258.908 168 258.964C168.077 259.019 168.166 259.055 168.259 259.068L169.316 259.229L168.548 259.98C168.481 260.045 168.431 260.125 168.402 260.214C168.373 260.302 168.366 260.396 168.381 260.488L168.56 261.551L167.613 261.048C167.529 261.003 167.436 260.979 167.341 260.979C167.248 260.979 167.157 261.003 167.076 261.048L166.123 261.551L166.302 260.488C166.317 260.396 166.31 260.302 166.281 260.214C166.251 260.125 166.201 260.045 166.134 259.98L165.366 259.229L166.429 259.073C166.523 259.06 166.611 259.025 166.688 258.969C166.764 258.914 166.826 258.841 166.868 258.756L167.341 257.792M167.341 256.487L166.348 258.502L164.125 258.825L165.736 260.39L165.355 262.602L167.341 261.556L169.328 262.602L168.947 260.39L170.558 258.825L168.335 258.502L167.341 256.487Z" fill="white"/>
<path opacity="0.3" d="M176.367 257.786L176.84 258.75C176.882 258.835 176.944 258.908 177.02 258.964C177.097 259.019 177.186 259.055 177.279 259.068L178.342 259.224L177.574 259.974C177.507 260.039 177.457 260.119 177.427 260.208C177.398 260.296 177.391 260.39 177.406 260.482L177.585 261.545L176.638 261.043C176.555 260.998 176.462 260.974 176.367 260.973C176.274 260.973 176.182 260.997 176.101 261.043L175.148 261.545L175.327 260.482C175.342 260.39 175.335 260.296 175.306 260.208C175.277 260.119 175.227 260.039 175.16 259.974L174.392 259.224L175.454 259.068C175.548 259.055 175.637 259.019 175.713 258.964C175.79 258.908 175.852 258.835 175.893 258.75L176.367 257.786ZM176.367 256.481L175.374 258.496L173.15 258.819L174.761 260.384L174.38 262.596L176.367 261.551L178.353 262.596L177.978 260.384L179.589 258.819L177.366 258.496L176.372 256.481H176.367Z" fill="white"/>
<path opacity="0.3" d="M185.386 257.786L185.86 258.75C185.901 258.835 185.963 258.908 186.04 258.964C186.116 259.019 186.205 259.055 186.299 259.068L187.361 259.224L186.593 259.974C186.526 260.039 186.476 260.119 186.447 260.208C186.418 260.296 186.41 260.39 186.426 260.482L186.605 261.545L185.658 261.043C185.574 260.998 185.481 260.974 185.386 260.973C185.293 260.973 185.202 260.997 185.121 261.043L184.168 261.545L184.347 260.482C184.362 260.39 184.355 260.296 184.326 260.208C184.296 260.119 184.246 260.039 184.179 259.974L183.411 259.224L184.474 259.068C184.567 259.055 184.656 259.019 184.733 258.964C184.809 258.908 184.871 258.835 184.913 258.75L185.386 257.786ZM185.386 256.481L184.393 258.496L182.17 258.819L183.781 260.384L183.4 262.596L185.386 261.551L187.373 262.596L186.992 260.384L188.603 258.819L186.379 258.496L185.386 256.481Z" fill="white"/>
<path opacity="0.2" d="M134.005 266.476C137.835 266.476 140.94 263.371 140.94 259.541C140.94 255.711 137.835 252.606 134.005 252.606C130.175 252.606 127.07 255.711 127.07 259.541C127.07 263.371 130.175 266.476 134.005 266.476Z" fill="white"/>
<path d="M139.733 259.541C139.734 260.815 139.31 262.054 138.528 263.06C137.746 264.066 136.651 264.782 135.416 265.095C134.181 265.408 132.876 265.3 131.71 264.787C130.543 264.275 129.581 263.388 128.975 262.267C128.518 261.431 128.279 260.494 128.282 259.541C128.258 258.774 128.388 258.01 128.665 257.294C128.941 256.578 129.359 255.925 129.893 255.374C130.427 254.822 131.067 254.384 131.773 254.085C132.48 253.785 133.24 253.631 134.007 253.631C134.775 253.631 135.535 253.785 136.242 254.085C136.948 254.384 137.588 254.822 138.122 255.374C138.656 255.925 139.074 256.578 139.35 257.294C139.627 258.01 139.757 258.774 139.733 259.541Z" fill="white"/>
<path d="M139.041 262.267C138.55 263.173 137.824 263.931 136.938 264.459C136.052 264.986 135.04 265.265 134.009 265.265C132.978 265.265 131.966 264.986 131.08 264.459C130.194 263.931 129.467 263.173 128.977 262.267C130.467 261.272 132.218 260.742 134.009 260.742C135.8 260.742 137.551 261.272 139.041 262.267Z" fill="#004EFF"/>
<path d="M136.558 257.584C136.558 258.088 136.408 258.582 136.128 259.002C135.847 259.421 135.448 259.749 134.982 259.942C134.516 260.135 134.003 260.185 133.507 260.087C133.012 259.988 132.558 259.745 132.201 259.388C131.844 259.031 131.601 258.577 131.502 258.082C131.404 257.587 131.454 257.073 131.647 256.607C131.841 256.141 132.168 255.742 132.587 255.462C133.007 255.181 133.501 255.031 134.005 255.031C134.341 255.031 134.673 255.096 134.983 255.224C135.293 255.352 135.575 255.54 135.812 255.777C136.049 256.014 136.237 256.296 136.365 256.606C136.493 256.916 136.558 257.248 136.558 257.584Z" fill="#B55B52"/>
</svg>
