<svg width="41" height="40" viewBox="0 0 41 40" fill="none" xmlns="http://www.w3.org/2000/svg">
<path d="M12.1673 18.3334L18.834 3.33337C20.1601 3.33337 21.4318 3.86016 22.3695 4.79784C23.3072 5.73552 23.834 7.00729 23.834 8.33337V15H33.2673C33.7505 14.9946 34.2291 15.0942 34.6699 15.2921C35.1108 15.4899 35.5033 15.7813 35.8204 16.1459C36.1375 16.5105 36.3715 16.9397 36.5062 17.4038C36.6409 17.8678 36.6732 18.3556 36.6007 18.8334L34.3007 33.8334C34.1801 34.6282 33.7764 35.3527 33.1638 35.8734C32.5513 36.394 31.7712 36.6758 30.9673 36.6667H12.1673M12.1673 18.3334V36.6667M12.1673 18.3334H7.16732C6.28326 18.3334 5.43542 18.6846 4.81029 19.3097C4.18517 19.9348 3.83398 20.7827 3.83398 21.6667V33.3334C3.83398 34.2174 4.18517 35.0653 4.81029 35.6904C5.43542 36.3155 6.28326 36.6667 7.16732 36.6667H12.1673" stroke="#004EFF" stroke-width="3" stroke-linecap="round" stroke-linejoin="round"/>
</svg>
