<svg width="400" height="400" viewBox="0 0 400 400" fill="none" xmlns="http://www.w3.org/2000/svg">
<path d="M119.152 79.136C97.5998 95.072 79.1518 115.528 68.5678 140.176C62.5678 154.184 58.8158 169.952 62.8158 184.656C66.8158 199.36 80.4798 212.184 95.6798 211.104C110.704 210.032 121.536 197.016 132.768 186.984C148.551 172.944 167.886 163.505 188.664 159.696C195.792 158.408 204.76 158.632 208.24 164.984C211.832 171.536 206.768 179.384 201.472 184.688C190.432 195.688 177.28 204.368 166.128 215.256C154.976 226.144 145.6 240.184 145.248 255.76C144.896 271.336 156.448 287.76 172.048 288.272C182.952 288.632 192.552 281.72 201.648 275.72C221.368 262.736 242.872 252.744 263.424 241.128C283.976 229.512 303.928 215.928 318.544 197.392C333.16 178.856 341.952 154.656 337.792 131.424C332.792 103.424 307.8 85.024 283.192 70.752C249.448 51.2 160.232 48.8 119.152 79.136Z" fill="#004CFA"/>
<g opacity="0.9">
<path d="M119.152 79.136C97.5998 95.072 79.1518 115.528 68.5678 140.176C62.5678 154.184 58.8158 169.952 62.8158 184.656C66.8158 199.36 80.4798 212.184 95.6798 211.104C110.704 210.032 121.536 197.016 132.768 186.984C148.551 172.944 167.886 163.505 188.664 159.696C195.792 158.408 204.76 158.632 208.24 164.984C211.832 171.536 206.768 179.384 201.472 184.688C190.432 195.688 177.28 204.368 166.128 215.256C154.976 226.144 145.6 240.184 145.248 255.76C144.896 271.336 156.448 287.76 172.048 288.272C182.952 288.632 192.552 281.72 201.648 275.72C221.368 262.736 242.872 252.744 263.424 241.128C283.976 229.512 303.928 215.928 318.544 197.392C333.16 178.856 341.952 154.656 337.792 131.424C332.792 103.424 307.8 85.024 283.192 70.752C249.448 51.2 160.232 48.8 119.152 79.136Z" fill="white"/>
</g>
<path d="M200 341.608C285.666 341.608 355.112 337.554 355.112 332.552C355.112 327.551 285.666 323.496 200 323.496C114.334 323.496 44.8882 327.551 44.8882 332.552C44.8882 337.554 114.334 341.608 200 341.608Z" fill="#F5F5F5"/>
<path d="M76.3678 170.68V198.072H124.304V225.272H76.3678V268H45.6558V143.464H130.816V170.664L76.3678 170.68Z" fill="#004CFA"/>
<path d="M200.176 244.312H154.264L145.728 268.504H114.4L162.328 144H192.576L240.656 268.512H208.704L200.176 244.312ZM191.2 218.344L177.24 178.496L163.28 218.344H191.2Z" fill="#004CFA"/>
<path d="M354.12 281.296C350.718 286.191 346.168 290.178 340.868 292.906C335.568 295.634 329.68 297.02 323.72 296.944C306.04 296.944 294.408 290.008 276.256 268.312C247.72 262.792 227.864 237.536 227.864 204.632C227.864 167.272 253.464 139.88 288.2 139.88C322.936 139.88 348.536 167.272 348.536 204.632C348.536 232.912 333.8 255.504 311.624 264.752C315.968 270.088 319.688 271.864 324.344 271.864C330.232 271.864 335.976 268.84 340.784 263.152L354.12 281.296ZM288.2 240.2C304.64 240.2 317.512 226.152 317.512 204.632C317.512 183.112 304.64 169.056 288.2 169.056C271.76 169.056 258.88 183.104 258.88 204.632C258.88 226.16 271.76 240.2 288.2 240.2Z" fill="#004CFA"/>
<path d="M281.736 144.152C281.683 144.156 281.63 144.149 281.58 144.132C281.53 144.116 281.484 144.089 281.445 144.055C281.364 143.985 281.315 143.886 281.308 143.78C281.3 143.674 281.335 143.569 281.405 143.489C281.475 143.409 281.574 143.359 281.68 143.352C285.014 142.898 288.386 142.78 291.744 143C291.796 143.003 291.848 143.016 291.895 143.039C291.942 143.062 291.985 143.095 292.02 143.134C292.055 143.173 292.081 143.219 292.099 143.269C292.116 143.319 292.123 143.371 292.12 143.424C292.108 143.529 292.057 143.626 291.977 143.696C291.897 143.766 291.794 143.803 291.688 143.8C288.386 143.581 285.07 143.696 281.792 144.144L281.736 144.152Z" fill="white"/>
<path d="M243.616 167.2C243.529 167.202 243.444 167.174 243.376 167.12C243.291 167.056 243.235 166.962 243.22 166.857C243.205 166.752 243.232 166.645 243.296 166.56C250.912 156.504 260.856 149.248 272.056 145.592C272.106 145.575 272.159 145.568 272.211 145.571C272.264 145.575 272.315 145.589 272.362 145.613C272.409 145.637 272.451 145.67 272.485 145.71C272.519 145.751 272.544 145.798 272.56 145.848C272.591 145.949 272.581 146.058 272.533 146.152C272.486 146.245 272.403 146.317 272.304 146.352C261.264 149.96 251.456 157.112 243.936 167.04C243.898 167.089 243.85 167.129 243.794 167.157C243.739 167.185 243.678 167.199 243.616 167.2Z" fill="white"/>
<path d="M75.0397 147.8H69.0157C68.9096 147.8 68.8079 147.758 68.7329 147.683C68.6579 147.608 68.6157 147.506 68.6157 147.4C68.6157 147.294 68.6579 147.192 68.7329 147.117C68.8079 147.042 68.9096 147 69.0157 147H75.0397C75.1458 147 75.2476 147.042 75.3226 147.117C75.3976 147.192 75.4397 147.294 75.4397 147.4C75.4397 147.506 75.3976 147.608 75.3226 147.683C75.2476 147.758 75.1458 147.8 75.0397 147.8Z" fill="white"/>
<path d="M49.7437 167.2C49.6377 167.2 49.5359 167.158 49.4609 167.083C49.3859 167.008 49.3438 166.906 49.3438 166.8V147.4C49.3438 147.294 49.3859 147.192 49.4609 147.117C49.5359 147.042 49.6377 147 49.7437 147H63.7838C63.8892 147.002 63.9897 147.045 64.0643 147.119C64.1389 147.194 64.1817 147.295 64.1838 147.4C64.1838 147.506 64.1416 147.608 64.0666 147.683C63.9916 147.758 63.8898 147.8 63.7838 147.8H50.1437V166.776C50.147 166.831 50.1391 166.885 50.1205 166.936C50.1018 166.988 50.0729 167.035 50.0354 167.074C49.998 167.114 49.9527 167.146 49.9026 167.167C49.8524 167.189 49.7984 167.2 49.7437 167.2Z" fill="white"/>
<path d="M189.872 147.8H182.856C182.749 147.8 182.648 147.758 182.573 147.683C182.498 147.608 182.456 147.506 182.456 147.4C182.458 147.295 182.5 147.194 182.575 147.119C182.65 147.045 182.75 147.002 182.856 147H189.872C189.977 147.002 190.078 147.045 190.152 147.119C190.227 147.194 190.27 147.295 190.272 147.4C190.272 147.506 190.229 147.608 190.154 147.683C190.079 147.758 189.978 147.8 189.872 147.8Z" fill="white"/>
<path d="M156.472 169.456C156.425 169.467 156.375 169.467 156.328 169.456C156.279 169.438 156.233 169.411 156.195 169.375C156.156 169.34 156.125 169.297 156.104 169.249C156.082 169.201 156.07 169.15 156.069 169.097C156.068 169.045 156.077 168.993 156.096 168.944L164.192 147.296C164.221 147.219 164.272 147.153 164.339 147.106C164.406 147.059 164.486 147.033 164.568 147.032H175.848C175.954 147.032 176.056 147.074 176.131 147.149C176.206 147.224 176.248 147.326 176.248 147.432C176.248 147.538 176.206 147.64 176.131 147.715C176.056 147.79 175.954 147.832 175.848 147.832H164.848L156.848 169.224C156.816 169.296 156.763 169.357 156.696 169.398C156.629 169.439 156.551 169.46 156.472 169.456Z" fill="white"/>
<path d="M296.64 232.8H300.696C301.394 227.073 301.582 221.296 301.256 215.536C300.704 206.496 302.224 205.936 298.928 200.432C298.563 199.732 298.039 199.127 297.4 198.664C297.077 198.437 296.696 198.306 296.301 198.285C295.907 198.263 295.514 198.353 295.168 198.544C294.512 198.936 296.704 220.576 296.64 232.8Z" fill="#263238"/>
<g opacity="0.1">
<path d="M296.64 232.8H300.696C301.394 227.073 301.582 221.296 301.256 215.536C300.704 206.496 302.224 205.936 298.928 200.432C298.563 199.732 298.039 199.127 297.4 198.664C297.077 198.437 296.696 198.306 296.301 198.285C295.907 198.263 295.514 198.353 295.168 198.544C294.512 198.936 296.704 220.576 296.64 232.8Z" fill="black"/>
</g>
<path d="M324.48 275.944L326.32 285.44L330.92 285.328L330.04 275.28L324.48 275.944Z" fill="#EBB376"/>
<path d="M331.312 285.304C331.292 285.297 331.274 285.285 331.261 285.267C331.248 285.25 331.241 285.229 331.24 285.208C331.237 285.187 331.24 285.165 331.25 285.146C331.26 285.127 331.277 285.113 331.296 285.104C331.368 285.104 333.016 284.304 333.752 284.584C333.888 284.634 334 284.734 334.064 284.864C334.111 284.932 334.137 285.013 334.137 285.096C334.137 285.179 334.111 285.26 334.064 285.328C333.656 285.564 333.175 285.644 332.712 285.552C332.239 285.511 331.77 285.428 331.312 285.304ZM331.672 285.192C332.472 285.368 333.632 285.464 333.864 285.192C333.864 285.152 333.936 285.096 333.864 284.952C333.847 284.911 333.821 284.875 333.788 284.846C333.754 284.816 333.715 284.795 333.672 284.784C333.608 284.759 333.541 284.746 333.472 284.744C332.849 284.776 332.238 284.928 331.672 285.192Z" fill="#004CFA"/>
<path d="M331.256 285.296C331.23 285.268 331.216 285.23 331.216 285.192C331.32 284.559 331.619 283.975 332.072 283.52C332.159 283.458 332.258 283.414 332.362 283.39C332.466 283.367 332.575 283.365 332.68 283.384C332.968 283.44 333.048 283.6 333.048 283.72C333.104 284.232 331.936 285.112 331.376 285.32H331.328C331.302 285.321 331.276 285.312 331.256 285.296ZM332.592 283.584C332.457 283.571 332.321 283.605 332.208 283.68C331.841 284.04 331.592 284.503 331.496 285.008C332.08 284.728 332.856 284.032 332.856 283.72C332.856 283.72 332.856 283.616 332.656 283.584H332.592Z" fill="#004CFA"/>
<path d="M330.912 284.632L326.008 284.2C325.919 284.193 325.829 284.216 325.754 284.265C325.679 284.315 325.622 284.387 325.592 284.472L324.36 288.384C324.314 288.545 324.332 288.718 324.409 288.867C324.486 289.016 324.618 289.129 324.776 289.184H324.912C326.688 289.312 328.264 289.352 330.464 289.552C333.064 289.784 332.376 290.04 335.424 290.352C337.264 290.536 337.824 288.48 337.024 288.304C333.496 287.504 333.216 286.432 331.952 285.032C331.665 284.778 331.296 284.636 330.912 284.632Z" fill="#263238"/>
<path opacity="0.1" d="M325.656 282.008L330.568 281.32L330.04 275.28L324.48 275.944L325.656 282.008Z" fill="black"/>
<path d="M297.704 227.2C297.704 227.2 326.672 227.264 328.056 235.2C329.44 243.136 331.432 279.2 331.432 279.2L324.72 280.192C324.72 280.192 319.984 260.24 317 239.848C317 239.848 286.288 242.568 284.68 238.296C283.072 234.024 284.336 227.592 284.336 227.592L297.704 227.2Z" fill="#004CFA"/>
<path opacity="0.3" d="M297.704 227.2C297.704 227.2 326.672 227.264 328.056 235.2C329.44 243.136 331.432 279.2 331.432 279.2L324.72 280.192C324.72 280.192 319.984 260.24 317 239.848C317 239.848 286.288 242.568 284.68 238.296C283.072 234.024 284.336 227.592 284.336 227.592L297.704 227.2Z" fill="black"/>
<path d="M324.072 281.096L332.296 279.92L332.176 276.96L323.384 278.008L324.072 281.096Z" fill="#004CFA"/>
<path opacity="0.4" d="M310.456 237.856C310.456 237.928 310.456 238 310.456 238.072C310.454 237.097 310.382 236.124 310.24 235.16C309.312 229.84 295.432 227.872 289.736 227.288L282.816 227.496C282.816 227.496 281.744 232.944 283.104 236.544C284.464 240.144 310.456 237.856 310.456 237.856Z" fill="black"/>
<path d="M298.728 209.904L297.128 222.928C297.728 224.176 299.12 227.232 298.216 227.216C297.088 227.216 290.064 232.016 290.064 232.016L277.384 226.952L278.256 223.376C278 222.248 276.856 215.584 275.856 209.72L275.768 209.184L274.784 202.904L274.432 200.656C274.328 199.688 274.072 198.896 273.992 198.368C273.964 198.247 273.964 198.121 273.992 198C274.028 197.718 274.172 197.46 274.392 197.28L274.44 197.24L274.688 197.048C279.304 193.712 291.264 196.784 294.768 197.696C295.256 197.816 296.216 198.416 296.208 198.92L296.824 200.728L298.128 204.568C298.256 204.944 298.36 205.328 298.456 205.72C298.789 207.088 298.881 208.504 298.728 209.904Z" fill="#263238"/>
<path d="M308.336 276.632L308.648 286.12L313.248 286L313.904 275.968L308.336 276.632Z" fill="#EBB376"/>
<path d="M313.528 286.12C313.508 286.111 313.492 286.097 313.482 286.078C313.472 286.059 313.468 286.037 313.472 286.016C313.476 285.993 313.486 285.972 313.502 285.955C313.518 285.938 313.538 285.926 313.56 285.92C313.632 285.92 315.408 285.528 316.064 285.96C316.185 286.036 316.271 286.157 316.304 286.296C316.331 286.376 316.333 286.462 316.308 286.542C316.284 286.622 316.235 286.693 316.168 286.744C315.718 286.89 315.23 286.862 314.8 286.664C314.36 286.523 313.934 286.341 313.528 286.12ZM313.904 286.12C314.704 286.48 315.752 286.816 316.04 286.6C316.08 286.6 316.128 286.528 316.096 286.376C316.089 286.332 316.071 286.29 316.045 286.254C316.018 286.218 315.984 286.189 315.944 286.168C315.883 286.132 315.819 286.103 315.752 286.08C315.141 285.967 314.514 285.969 313.904 286.088V286.12Z" fill="#004CFA"/>
<path d="M313.48 286.096C313.47 286.08 313.465 286.062 313.465 286.044C313.465 286.026 313.47 286.007 313.48 285.992C313.48 285.944 313.984 284.816 314.68 284.544C314.778 284.503 314.882 284.482 314.988 284.482C315.094 284.482 315.199 284.503 315.296 284.544C315.568 284.664 315.608 284.832 315.584 284.952C315.52 285.464 314.192 286.064 313.608 286.128H313.56C313.545 286.132 313.529 286.131 313.515 286.125C313.5 286.12 313.488 286.109 313.48 286.096ZM315.152 284.728C315.026 284.68 314.886 284.68 314.76 284.728C314.322 284.997 313.976 285.393 313.768 285.864C314.4 285.72 315.312 285.208 315.368 284.912C315.368 284.912 315.368 284.8 315.208 284.728H315.152Z" fill="#004CFA"/>
<path d="M313.28 285.384L308.592 283.88C308.507 283.852 308.416 283.854 308.332 283.886C308.249 283.918 308.18 283.978 308.136 284.056L306.064 287.6C306.02 287.674 305.99 287.756 305.978 287.841C305.966 287.926 305.97 288.013 305.992 288.097C306.013 288.18 306.052 288.258 306.104 288.327C306.156 288.396 306.221 288.453 306.296 288.496L306.416 288.56C308.12 289.072 309.616 289.456 311.752 290.16C314.232 290.96 313.512 291.056 316.416 292.032C318.168 292.616 319.128 290.72 318.416 290.384C315.144 288.856 315.12 287.712 314.192 286.072C313.983 285.738 313.658 285.493 313.28 285.384Z" fill="#263238"/>
<path d="M290.176 228C290.176 228 315.912 229.6 317.296 237.6C318.68 245.6 314.256 280.472 314.256 280.472L307.544 280.928C307.544 280.928 306.096 257.312 306.248 242.272C306.248 242.272 278.76 243.952 277.152 239.688C275.544 235.424 276.816 228.44 276.816 228.44L290.176 228Z" fill="#263238"/>
<path d="M290.176 228C290.176 228 315.912 229.6 317.296 237.6C318.68 245.6 314.256 280.472 314.256 280.472L307.544 280.928C307.544 280.928 306.096 257.312 306.248 242.272C306.248 242.272 282.56 244.8 276.936 240.912C270.752 236.64 277.216 226.968 277.216 226.968L290.176 228Z" fill="#004CFA"/>
<path opacity="0.2" d="M290.176 228C290.176 228 315.912 229.6 317.296 237.6C318.68 245.6 314.256 280.472 314.256 280.472L307.544 280.928C307.544 280.928 306.096 257.312 306.248 242.272C306.248 242.272 282.56 244.8 276.936 240.912C270.752 236.64 277.216 226.968 277.216 226.968L290.176 228Z" fill="black"/>
<path d="M306.792 281.76L315.04 281.232L315.312 278.016L306.248 278.648L306.792 281.76Z" fill="#004CFA"/>
<path d="M284 187.528C284.32 190.144 284.56 193.928 282.632 195.528C284.976 197.128 284.4 199.32 286.072 201.584C286.32 201.912 289.432 201.72 289.76 201.464C289.824 201.416 290.336 201.552 290.376 201.464C292.632 198.008 290.656 196.08 290.656 196.08C289.152 196.824 289.2 194.192 289.856 192.224L284 187.528Z" fill="#EBB376"/>
<path opacity="0.2" d="M289.448 194.984C289.42 194.056 289.555 193.129 289.848 192.248L288.8 191.392L285.6 189.6C284.848 191.344 287.264 194.264 289.448 194.984Z" fill="black"/>
<path d="M292.704 176.472C297.368 180.352 297.6 183.672 297.632 185.968C297.565 188.265 297.183 190.543 296.496 192.736C293.888 190.92 291.752 188.352 291.168 185.232C290.826 183.743 290.785 182.201 291.049 180.697C291.313 179.192 291.876 177.756 292.704 176.472Z" fill="#263238"/>
<path d="M284.168 181.416C283.432 185.688 283.032 187.496 284.648 190.12C287.048 194.12 292.48 194.12 294.472 190.12C296.256 186.552 297.2 180.168 293.448 177.52C292.629 176.933 291.673 176.566 290.671 176.453C289.67 176.339 288.656 176.484 287.726 176.873C286.797 177.262 285.982 177.882 285.359 178.674C284.736 179.466 284.326 180.405 284.168 181.4V181.416Z" fill="#EBB376"/>
<path d="M293.152 185.368C293.273 186.223 293.51 187.057 293.856 187.848C293.652 187.931 293.433 187.968 293.213 187.957C292.993 187.946 292.778 187.887 292.584 187.784L293.152 185.368Z" fill="#BA4D3C"/>
<path d="M292.104 189.336C292.275 189.37 292.449 189.391 292.624 189.4C292.646 189.394 292.665 189.381 292.678 189.363C292.692 189.345 292.699 189.323 292.699 189.3C292.699 189.277 292.692 189.255 292.678 189.237C292.665 189.219 292.646 189.206 292.624 189.2C292.185 189.188 291.755 189.073 291.369 188.864C290.983 188.656 290.651 188.36 290.4 188C290.393 187.988 290.384 187.977 290.373 187.969C290.362 187.96 290.349 187.954 290.336 187.95C290.323 187.947 290.309 187.946 290.295 187.947C290.281 187.949 290.268 187.953 290.256 187.96C290.244 187.967 290.233 187.976 290.225 187.987C290.216 187.998 290.21 188.01 290.206 188.024C290.202 188.037 290.201 188.051 290.203 188.065C290.205 188.079 290.209 188.092 290.216 188.104C290.434 188.424 290.713 188.697 291.037 188.909C291.361 189.12 291.723 189.265 292.104 189.336Z" fill="#263238"/>
<path d="M290.168 181.744C290.203 181.769 290.245 181.782 290.288 181.782C290.331 181.782 290.373 181.769 290.408 181.744C290.71 181.593 291.04 181.506 291.377 181.488C291.714 181.471 292.051 181.522 292.368 181.64C292.394 181.655 292.423 181.665 292.453 181.667C292.483 181.67 292.514 181.666 292.542 181.656C292.571 181.646 292.597 181.63 292.618 181.609C292.64 181.587 292.657 181.562 292.667 181.533C292.678 181.505 292.682 181.475 292.68 181.444C292.678 181.414 292.669 181.385 292.654 181.359C292.639 181.332 292.619 181.309 292.594 181.292C292.57 181.274 292.542 181.262 292.512 181.256C292.133 181.119 291.731 181.06 291.329 181.085C290.927 181.11 290.534 181.217 290.176 181.4C290.132 181.432 290.102 181.48 290.091 181.533C290.081 181.586 290.091 181.642 290.12 181.688C290.131 181.71 290.147 181.73 290.168 181.744Z" fill="#263238"/>
<path d="M296 183.336C296.034 183.367 296.078 183.386 296.125 183.39C296.171 183.393 296.217 183.381 296.256 183.356C296.295 183.33 296.323 183.292 296.338 183.248C296.353 183.204 296.352 183.156 296.336 183.112C296.243 182.797 296.075 182.508 295.846 182.272C295.618 182.035 295.336 181.857 295.024 181.752C294.998 181.745 294.971 181.743 294.945 181.746C294.918 181.75 294.893 181.758 294.87 181.772C294.847 181.785 294.826 181.803 294.81 181.824C294.794 181.846 294.783 181.87 294.776 181.896C294.761 181.949 294.768 182.006 294.795 182.054C294.822 182.102 294.867 182.137 294.92 182.152C295.165 182.242 295.385 182.388 295.563 182.578C295.741 182.768 295.871 182.998 295.944 183.248C295.955 183.282 295.974 183.312 296 183.336Z" fill="#263238"/>
<path d="M284.112 197.792C284.112 197.792 288.968 201.192 290.92 197.872V201.072L290.88 204.936L290.24 205.832L289.016 205.432L287.584 202.768L287 201.824L284.112 197.792Z" fill="#263238"/>
<path d="M282.904 195.2C282.904 195.2 288.272 202.648 289.64 204.968C291.008 207.288 290.096 196.168 290.096 196.168C290.096 196.168 290.896 195.312 292.288 196.592C292.288 196.592 293.824 201.536 293.656 201.936C293.488 202.336 291.664 202.504 291.664 202.504C291.664 202.504 292.72 203.736 292.512 204.44C292.067 205.353 291.292 206.062 290.344 206.424C289.704 206.504 285.424 204.384 285.192 203.784C284.96 203.184 286.288 202.328 286.288 202.328C286.288 202.328 283.216 202.448 282.792 201.328C282.368 200.208 280.752 195.16 280.752 195.16C280.885 195.003 281.052 194.878 281.24 194.794C281.427 194.709 281.632 194.667 281.837 194.671C282.043 194.675 282.246 194.724 282.43 194.816C282.615 194.907 282.776 195.038 282.904 195.2Z" fill="#004CFA"/>
<path opacity="0.5" d="M282.904 195.2C282.904 195.2 288.272 202.648 289.64 204.968C291.008 207.288 290.096 196.168 290.096 196.168C290.096 196.168 290.896 195.312 292.288 196.592C292.288 196.592 293.824 201.536 293.656 201.936C293.488 202.336 291.664 202.504 291.664 202.504C291.664 202.504 292.72 203.736 292.512 204.44C292.067 205.353 291.292 206.062 290.344 206.424C289.704 206.504 285.424 204.384 285.192 203.784C284.96 203.184 286.288 202.328 286.288 202.328C286.288 202.328 283.216 202.448 282.792 201.328C282.368 200.208 280.752 195.16 280.752 195.16C280.885 195.003 281.052 194.878 281.24 194.794C281.427 194.709 281.632 194.667 281.837 194.671C282.043 194.675 282.246 194.724 282.43 194.816C282.615 194.907 282.776 195.038 282.904 195.2Z" fill="white"/>
<path d="M282.288 184.504C282.413 185.333 282.858 186.08 283.528 186.584C284.424 187.24 285.272 186.536 285.336 185.488C285.4 184.44 285.024 183.088 283.968 182.816C283.736 182.768 283.497 182.779 283.271 182.847C283.044 182.916 282.839 183.039 282.672 183.206C282.505 183.374 282.383 183.58 282.316 183.807C282.249 184.033 282.239 184.273 282.288 184.504Z" fill="#EBB376"/>
<path d="M312.176 186.263L309.226 185.816C308.471 185.701 307.765 186.221 307.65 186.976L306.034 197.622C305.92 198.378 306.439 199.084 307.195 199.198L310.145 199.646C310.901 199.761 311.607 199.241 311.721 198.485L313.337 187.839C313.452 187.084 312.932 186.378 312.176 186.263Z" fill="#263238"/>
<path d="M303 198.752L305.112 197.496C305.112 197.496 305.952 194.792 306.832 194.52C307.505 194.042 308.202 193.599 308.92 193.192C310.024 192.664 310.592 193.432 310.584 195.12C310.576 196.808 311.192 197.792 309.536 198.584C307.88 199.376 307.136 199.68 307.136 199.68L304.352 201.776L303 198.752Z" fill="#EBB376"/>
<path opacity="0.2" d="M284.8 204.128C283.557 205.109 282.262 206.022 280.92 206.864C279.356 207.917 277.621 208.688 275.792 209.144L274.808 202.864C274.676 202.706 274.561 202.534 274.464 202.352V200.592V200L284.8 204.128Z" fill="black"/>
<path d="M304.8 201.856L303.824 202.48C301.896 203.688 300.2 204.712 298.504 205.68C295.712 207.194 292.807 208.491 289.816 209.56C286.824 208.672 283.8 208.112 280.944 206.904C280.784 206.832 280.616 206.768 280.456 206.688C279.099 206.133 277.804 205.439 276.592 204.616C275.922 204.138 275.328 203.561 274.832 202.904C274.7 202.746 274.585 202.574 274.488 202.392C274.248 202.027 274.057 201.631 273.92 201.216C273.555 200.153 273.597 198.993 274.04 197.96C274.15 197.673 274.301 197.404 274.488 197.16C274.517 197.116 274.549 197.073 274.584 197.032L274.736 196.968C278.256 195.368 280.448 196.552 282.304 199.144C284.752 199.88 287.104 201.64 290.784 201.632C292.854 201.646 294.912 201.313 296.872 200.648C298.16 200.224 299.64 199.648 301.496 198.848L302.856 198.256L303.176 198.648C303.824 199.513 304.344 200.467 304.72 201.48C304.762 201.602 304.788 201.728 304.8 201.856Z" fill="#263238"/>
<path opacity="0.1" d="M304.8 201.856L303.824 202.48C301.896 203.688 300.2 204.712 298.504 205.68C295.712 207.194 292.807 208.491 289.816 209.56C286.824 208.672 283.8 208.112 280.944 206.904C280.784 206.832 280.616 206.768 280.456 206.688C279.099 206.133 277.804 205.439 276.592 204.616C275.922 204.138 275.328 203.561 274.832 202.904C274.7 202.746 274.585 202.574 274.488 202.392C274.248 202.027 274.057 201.631 273.92 201.216C273.555 200.153 273.597 198.993 274.04 197.96C274.15 197.673 274.301 197.404 274.488 197.16C274.517 197.116 274.549 197.073 274.584 197.032L274.736 196.968C278.256 195.368 280.448 196.552 282.304 199.144C284.752 199.88 287.104 201.64 290.784 201.632C292.854 201.646 294.912 201.313 296.872 200.648C298.16 200.224 299.64 199.648 301.496 198.848L302.856 198.256L303.176 198.648C303.824 199.513 304.344 200.467 304.72 201.48C304.762 201.602 304.788 201.728 304.8 201.856Z" fill="white"/>
<path d="M305.656 202L304.448 203.488L301.36 198.64L302.904 197.496L305.656 202Z" fill="#004CFA"/>
<path opacity="0.5" d="M305.656 202L304.448 203.488L301.36 198.64L302.904 197.496L305.656 202Z" fill="white"/>
<path d="M290.72 175.464C287.848 173.24 283.128 175.528 281.056 178.52C280.05 180.042 279.56 181.848 279.658 183.67C279.756 185.492 280.437 187.234 281.6 188.64C282.96 190.2 285.016 190.808 286.888 191.68C286.424 189.102 286.812 186.443 287.992 184.104C289.231 181.766 291.197 179.893 293.592 178.768C292.769 177.557 291.805 176.448 290.72 175.464Z" fill="#263238"/>
<path d="M290.72 175.464C292.584 177.424 293.672 178.136 294.152 179.016C295.752 180.152 297.032 183.912 297.632 185.76C298.184 182.232 295.112 175.808 290.72 175.464Z" fill="#263238"/>
<path d="M294.488 185.032C294.408 185.376 294.528 185.696 294.752 185.752C294.976 185.808 295.224 185.568 295.304 185.224C295.384 184.88 295.264 184.56 295.048 184.512C294.832 184.464 294.576 184.688 294.488 185.032Z" fill="#263238"/>
<path d="M295.712 184.648L294.912 184.504C294.912 184.504 294.912 184.752 294.912 184.872C295.052 184.922 295.204 184.927 295.348 184.887C295.491 184.847 295.618 184.763 295.712 184.648Z" fill="#263238"/>
<path d="M290.616 184.12C290.536 184.464 290.656 184.784 290.88 184.832C291.104 184.88 291.352 184.656 291.432 184.312C291.512 183.968 291.432 183.648 291.168 183.592C290.904 183.536 290.696 183.776 290.616 184.12Z" fill="#263238"/>
<path d="M291.888 183.728L291.088 183.584V183.952C291.228 184.003 291.38 184.009 291.524 183.969C291.667 183.929 291.795 183.844 291.888 183.728Z" fill="#263238"/>
<path d="M246.712 277.216C237.912 287.92 217.04 307.296 217.04 307.296L213.04 304.664C213.04 304.664 228.288 278.888 235.68 274.008C229.456 264.128 209.2 229 209.2 229L223.6 223.784C223.6 223.784 239.896 255.056 247.456 269.768C248.073 270.946 248.332 272.28 248.2 273.603C248.067 274.927 247.55 276.183 246.712 277.216Z" fill="#7F3E3B"/>
<path d="M201.728 231.728C201.728 231.728 214.576 267.024 219.432 281.8C223.712 294.88 236.656 326.944 236.656 326.944L241.272 325.344C241.272 325.344 233.104 289.216 229.4 275.744C226.016 263.368 217.6 225.984 217.6 225.984L201.728 231.728Z" fill="#7F3E3B"/>
<path d="M217.872 308.616C218.568 312.352 219.08 312.888 220.984 316.192C221.4 316.904 219.56 317.832 218.248 316.376C216.064 313.976 216.04 313.88 214.184 311.848C212.584 310.088 210.688 308.152 209.384 306.776C209.345 306.734 209.31 306.689 209.28 306.64C209.191 306.48 209.168 306.29 209.218 306.114C209.267 305.937 209.384 305.787 209.544 305.696L213.336 303.536C213.418 303.489 213.513 303.472 213.606 303.487C213.699 303.501 213.784 303.547 213.848 303.616L217.352 307.488C217.628 307.808 217.808 308.199 217.872 308.616Z" fill="#263238"/>
<path d="M217.184 308.288C217.584 308.96 218.376 310.096 219.048 310.176C219.156 310.194 219.266 310.184 219.369 310.146C219.471 310.108 219.562 310.044 219.632 309.96C219.676 309.916 219.708 309.861 219.724 309.8C219.741 309.74 219.742 309.677 219.728 309.616C219.576 308.976 217.568 308.2 217.328 308.12C217.31 308.109 217.289 308.103 217.268 308.103C217.247 308.103 217.226 308.109 217.208 308.12C217.194 308.129 217.183 308.14 217.174 308.154C217.165 308.167 217.16 308.183 217.157 308.198C217.155 308.214 217.156 308.231 217.161 308.246C217.165 308.262 217.173 308.276 217.184 308.288ZM219.488 309.656C219.496 309.679 219.496 309.704 219.489 309.727C219.482 309.75 219.467 309.77 219.448 309.784C219.405 309.836 219.349 309.876 219.286 309.901C219.223 309.927 219.155 309.936 219.088 309.928C218.696 309.888 218.136 309.336 217.56 308.456C218.36 308.784 219.36 309.296 219.488 309.656Z" fill="#004CFA"/>
<path d="M217.184 308.288C217.188 308.301 217.195 308.314 217.205 308.323C217.214 308.333 217.227 308.34 217.24 308.344C217.824 308.6 219.352 308.752 219.696 308.344C219.752 308.265 219.778 308.168 219.77 308.071C219.761 307.974 219.718 307.884 219.648 307.816C219.581 307.725 219.496 307.648 219.398 307.59C219.301 307.532 219.193 307.495 219.08 307.48C218.403 307.512 217.752 307.752 217.216 308.168C217.207 308.184 217.202 308.202 217.202 308.22C217.202 308.238 217.207 308.256 217.216 308.272L217.184 308.288ZM219.528 308.048C219.542 308.068 219.549 308.092 219.549 308.116C219.549 308.14 219.542 308.164 219.528 308.184C219.32 308.44 218.2 308.416 217.544 308.184C217.983 307.862 218.511 307.683 219.056 307.672C219.139 307.68 219.218 307.705 219.29 307.747C219.362 307.788 219.424 307.844 219.472 307.912C219.501 307.952 219.521 307.999 219.528 308.048Z" fill="#004CFA"/>
<path d="M229.48 200.208C227.928 197.72 218.872 193.248 218.168 192.856L215.664 198.672C219.272 200.768 224.6 203.664 224.28 205.704L229.48 200.208Z" fill="#7F3E3B"/>
<path d="M222.4 193.424C219.24 191.656 211.728 186.224 208.2 189.776C208.2 189.776 206.08 194.528 211.4 197.696C213.576 198.992 217.168 201.304 218.6 202.152L222.4 193.424Z" fill="#004CFA"/>
<g opacity="0.2">
<path d="M222.4 193.424C219.24 191.656 211.728 186.224 208.2 189.776C208.2 189.776 206.08 194.528 211.4 197.696C213.576 198.992 217.168 201.304 218.6 202.152L222.4 193.424Z" fill="black"/>
</g>
<path d="M241.664 324.96C242.976 325.568 245.664 325.808 249.128 325.512C249.888 325.456 250.192 327.256 248.44 327.792C246.688 328.328 242.84 329.392 241.56 329.76C239.504 330.392 238.36 330.888 236.704 331.36C236.656 331.368 236.608 331.368 236.56 331.36C236.476 331.368 236.392 331.359 236.312 331.333C236.232 331.308 236.157 331.267 236.093 331.212C236.029 331.158 235.977 331.091 235.939 331.017C235.901 330.942 235.878 330.86 235.872 330.776L235.552 326.776C235.545 326.689 235.568 326.603 235.618 326.531C235.667 326.46 235.74 326.408 235.824 326.384L240.904 324.784C241.17 324.75 241.44 324.813 241.664 324.96Z" fill="#263238"/>
<path d="M192.8 193.728C193.368 193.464 193.952 193.2 194.528 192.928C197.571 191.64 200.685 190.529 203.856 189.6C204.272 189.488 204.664 189.392 205.032 189.312C206.376 189.016 207.736 188.784 209.096 188.616C209.584 188.55 210.081 188.628 210.526 188.839C210.97 189.051 211.344 189.388 211.6 189.808C213.256 192.544 217.04 200.6 223.664 223.832L201.712 231.752C201.024 230.104 199.736 225.04 197.512 218.536C196.56 215.76 195.44 212.736 194.112 209.592C192.239 205.085 190.033 200.723 187.512 196.544C189.225 195.515 190.99 194.575 192.8 193.728Z" fill="#004CFA"/>
<path opacity="0.2" d="M192.8 193.728C193.368 193.464 193.952 193.2 194.528 192.928C197.571 191.64 200.685 190.529 203.856 189.6C204.272 189.488 204.664 189.392 205.032 189.312C206.376 189.016 207.736 188.784 209.096 188.616C209.584 188.55 210.081 188.628 210.526 188.839C210.97 189.051 211.344 189.388 211.6 189.808C213.256 192.544 217.04 200.6 223.664 223.832L201.712 231.752C201.024 230.104 199.736 225.04 197.512 218.536C196.56 215.76 195.44 212.736 194.112 209.592C192.239 205.085 190.033 200.723 187.512 196.544C189.225 195.515 190.99 194.575 192.8 193.728Z" fill="black"/>
<path opacity="0.2" d="M190.776 202.4C192.016 204.8 193.12 207.24 194.12 209.6C194.384 210.232 194.64 210.856 194.92 211.48C195.942 208.051 195.942 204.397 194.92 200.968L190.776 202.4Z" fill="black"/>
<path d="M215.704 226.6C215.704 226.6 216.016 226.752 222.544 251.608L231.864 270.696L246.76 264.8L223.664 223.344L215.704 226.6Z" fill="#004CFA"/>
<g opacity="0.1">
<path d="M215.704 226.6C215.704 226.6 216.016 226.752 222.544 251.608L231.864 270.696L246.76 264.8L223.664 223.344L215.704 226.6Z" fill="white"/>
</g>
<path opacity="0.2" d="M229.6 266.016C225.76 258.568 221.392 249.808 217.6 243.864L219.088 241.36C223.504 244.352 227.784 258.4 229.6 266.016Z" fill="black"/>
<path d="M201.728 231.728L208.504 257.52C211.616 271.728 213.696 276.088 213.696 276.088L229.152 271.576L222.88 246.672C219.496 234.344 217.608 225.984 217.608 225.984L201.728 231.728Z" fill="#004CFA"/>
<g opacity="0.1">
<path d="M201.728 231.728L208.504 257.52C211.616 271.728 213.696 276.088 213.696 276.088L229.152 271.576L222.88 246.672C219.496 234.344 217.608 225.984 217.608 225.984L201.728 231.728Z" fill="white"/>
</g>
<path d="M242.512 325.224C242.803 325.158 243.063 324.994 243.248 324.76C243.308 324.671 243.343 324.568 243.35 324.461C243.357 324.355 243.336 324.248 243.288 324.152C243.272 324.094 243.239 324.042 243.193 324.002C243.148 323.962 243.092 323.937 243.032 323.928C242.496 323.832 241.432 325.072 241.28 325.216C241.269 325.232 241.262 325.252 241.262 325.272C241.262 325.292 241.269 325.312 241.28 325.328C241.289 325.345 241.303 325.36 241.32 325.37C241.337 325.38 241.357 325.385 241.376 325.384C241.76 325.374 242.141 325.32 242.512 325.224ZM242.864 324.168C242.906 324.158 242.95 324.158 242.992 324.168C243.016 324.173 243.037 324.185 243.054 324.202C243.071 324.219 243.083 324.241 243.088 324.264C243.123 324.325 243.142 324.394 243.142 324.464C243.142 324.534 243.123 324.603 243.088 324.664C242.69 325.024 242.169 325.216 241.632 325.2C241.984 324.792 242.41 324.455 242.888 324.208L242.864 324.168Z" fill="#004CFA"/>
<path d="M241.4 325.4H241.44C241.8 325.032 242.36 323.864 242.12 323.416C242.084 323.347 242.025 323.294 241.954 323.264C241.882 323.235 241.802 323.232 241.728 323.256C241.651 323.269 241.577 323.298 241.511 323.34C241.445 323.383 241.388 323.439 241.344 323.504C241.138 324.096 241.11 324.736 241.264 325.344C241.27 325.361 241.279 325.376 241.292 325.389C241.304 325.401 241.319 325.411 241.336 325.416L241.4 325.4ZM241.72 323.456H241.768C241.888 323.416 241.928 323.456 241.936 323.512C242.08 323.768 241.76 324.624 241.424 325.112C241.312 324.628 241.345 324.121 241.52 323.656C241.538 323.611 241.565 323.569 241.599 323.535C241.634 323.501 241.675 323.474 241.72 323.456Z" fill="#004CFA"/>
<path d="M187.608 198.984C187.28 199.784 187.024 200.512 186.76 201.272C186.496 202.032 186.256 202.776 186.024 203.544C185.56 205.064 185.144 206.6 184.8 208.168C184.053 211.363 183.667 214.631 183.648 217.912C183.648 217.992 183.648 218.072 183.648 218.16V218.456C183.656 218.65 183.68 218.842 183.72 219.032C183.785 219.375 183.879 219.712 184 220.04L184.176 220.488C184.232 220.632 184.32 220.744 184.368 220.88L184.568 221.264L184.784 221.6C185.31 222.401 185.916 223.146 186.592 223.824C187.786 225.003 189.082 226.073 190.464 227.024C193.098 228.849 195.897 230.424 198.824 231.728L200.464 228.896C199.328 227.984 198.12 227.04 196.976 226.096C195.832 225.152 194.696 224.184 193.64 223.192C192.61 222.258 191.65 221.25 190.768 220.176C190.404 219.733 190.088 219.253 189.824 218.744L189.752 218.584L189.712 218.456V218.32C189.715 218.293 189.715 218.267 189.712 218.24V218.136V218.088C189.834 216.697 190.029 215.314 190.296 213.944C190.576 212.544 190.888 211.128 191.272 209.728C191.656 208.328 192.072 206.92 192.496 205.52C192.712 204.816 192.936 204.12 193.176 203.424L193.872 201.4L187.608 198.984Z" fill="#7F3E3B"/>
<path d="M195.296 202.4C194.496 207.736 193.192 213.392 193.192 213.392L183.08 209.048C183.08 209.048 183.8 198.44 187.512 196.52C192 194.208 196.192 196.6 195.296 202.4Z" fill="#004CFA"/>
<path opacity="0.2" d="M195.296 202.4C194.496 207.736 193.192 213.392 193.192 213.392L183.08 209.048C183.08 209.048 183.8 198.44 187.512 196.52C192 194.208 196.192 196.6 195.296 202.4Z" fill="black"/>
<path d="M198.192 231.384C198.832 233.344 202.616 232.56 202.616 232.56L202.672 226.96L198.672 228.784L198.192 231.384Z" fill="#7F3E3B"/>
<path d="M202.68 227L202.632 232.568L205.968 232.456L206.224 227.856L202.68 227Z" fill="#7F3E3B"/>
<path d="M194.968 193.072L195.424 193.368C196.016 193.752 196.608 194.168 197.224 194.496C199.175 195.096 201.194 195.451 203.232 195.552C203.886 195.063 204.458 194.475 204.928 193.808C205.019 193.357 204.989 192.891 204.84 192.456C204.774 192.255 204.671 192.067 204.536 191.904C203.71 191.788 202.956 191.372 202.416 190.736C202.321 190.625 202.238 190.504 202.168 190.376C201.625 189.239 201.441 187.964 201.64 186.72L194.968 182.72C196 185.472 197.392 190.88 194.968 193.072Z" fill="#7F3E3B"/>
<path opacity="0.2" d="M197.904 186.008C198.264 187.352 200.696 189.712 201.64 188.464C201.588 187.892 201.588 187.316 201.64 186.744L197.688 184.344C197.658 184.907 197.732 185.471 197.904 186.008Z" fill="black"/>
<path d="M203.056 178.56L203.744 180.352C203.744 180.352 206.376 180.352 206.848 180.032C206.438 179.552 206.179 178.962 206.104 178.336C206.16 177.584 207.272 177.368 207.448 176.6C207.624 175.832 207.24 173.4 206.56 173.328C205.88 173.256 201.8 173.376 201.8 173.376C198.92 174.864 203.056 178.56 203.056 178.56Z" fill="#263238"/>
<path d="M196 174.4C196.367 173.739 196.861 173.158 197.453 172.688C198.045 172.219 198.724 171.871 199.45 171.665C200.177 171.458 200.938 171.397 201.688 171.485C202.439 171.572 203.164 171.807 203.824 172.176C207.72 174.32 207.56 180.592 206.224 184.248C204.728 188.304 199.344 189.608 196.544 186C194.688 183.6 195.04 181.152 195.28 176.944C195.316 176.051 195.563 175.179 196 174.4Z" fill="#7F3E3B"/>
<path d="M195.496 184.512L195.08 182.008L197.888 183.12C197.888 183.12 196.512 179.92 196.768 178.44C196.832 177.696 197.632 177.456 197.824 176.688C198.016 175.92 197.608 173.44 196.928 173.408C196.248 173.376 192.816 173.408 192.816 173.408C189.936 174.888 195.496 184.512 195.496 184.512Z" fill="#263238"/>
<path d="M201.968 178.552C202.184 178.552 202.336 178.872 202.296 179.216C202.256 179.56 202.048 179.816 201.824 179.792C201.6 179.768 201.448 179.464 201.488 179.12C201.528 178.776 201.752 178.528 201.968 178.552Z" fill="#263238"/>
<path d="M205.544 178.808C205.768 178.808 205.968 179.056 205.992 179.4C206.016 179.744 205.848 180.032 205.624 180.048C205.4 180.064 205.2 179.792 205.176 179.448C205.152 179.104 205.32 178.816 205.544 178.808Z" fill="#263238"/>
<path d="M203.672 182.52C203.941 182.623 204.229 182.666 204.516 182.647C204.803 182.627 205.083 182.546 205.336 182.408C204.769 181.436 204.336 180.392 204.048 179.304L203.672 182.52Z" fill="#BA4D3C"/>
<path d="M200.576 177.184C200.54 177.147 200.519 177.096 200.519 177.044C200.519 176.992 200.54 176.941 200.576 176.904C200.81 176.686 201.092 176.526 201.399 176.439C201.707 176.351 202.031 176.338 202.344 176.4C202.395 176.415 202.438 176.449 202.464 176.496C202.489 176.542 202.495 176.597 202.48 176.648C202.465 176.699 202.431 176.743 202.385 176.77C202.339 176.796 202.284 176.804 202.232 176.792C201.984 176.747 201.728 176.761 201.486 176.833C201.244 176.905 201.023 177.034 200.84 177.208C200.816 177.228 200.787 177.242 200.757 177.25C200.727 177.258 200.695 177.26 200.664 177.256C200.628 177.242 200.597 177.217 200.576 177.184Z" fill="#263238"/>
<path d="M206.592 177.6C206.459 177.386 206.277 177.206 206.062 177.075C205.847 176.945 205.603 176.867 205.352 176.848C205.308 176.839 205.269 176.818 205.237 176.787C205.206 176.755 205.185 176.715 205.176 176.672C205.173 176.646 205.174 176.619 205.182 176.593C205.189 176.568 205.201 176.544 205.217 176.523C205.233 176.502 205.254 176.485 205.277 176.472C205.3 176.459 205.326 176.451 205.352 176.448C205.675 176.463 205.989 176.555 206.267 176.719C206.546 176.882 206.781 177.11 206.952 177.384C206.965 177.405 206.973 177.428 206.977 177.453C206.981 177.477 206.98 177.502 206.974 177.526C206.968 177.549 206.957 177.572 206.943 177.591C206.928 177.611 206.909 177.628 206.888 177.64C206.874 177.646 206.859 177.649 206.844 177.649C206.829 177.649 206.814 177.646 206.8 177.64C206.765 177.654 206.727 177.658 206.69 177.651C206.653 177.644 206.619 177.626 206.592 177.6Z" fill="#263238"/>
<path d="M194.496 178.152C195.736 178.36 196.376 180.176 196.432 181.352C196.496 182.68 195.632 183.648 194.528 182.904C193.671 182.312 193.063 181.422 192.824 180.408C192.512 179.2 193.264 177.944 194.496 178.152Z" fill="#7F3E3B"/>
<path d="M203.896 184C203.709 184.498 203.556 185.009 203.44 185.528H203.16C201.888 185.44 201.328 184.976 201.096 184.496C200.984 184.259 200.932 183.998 200.944 183.736C200.943 183.587 200.965 183.439 201.008 183.296C201.769 183.695 202.606 183.93 203.464 183.984L203.896 184Z" fill="#2E353A"/>
<path d="M203.464 184L203.32 184.44C202.465 184.489 201.619 184.246 200.92 183.752C200.919 183.603 200.94 183.455 200.984 183.312C201.753 183.715 202.598 183.949 203.464 184Z" fill="white"/>
<path d="M203.2 185.512C201.928 185.424 201.368 184.96 201.136 184.48C201.618 184.524 202.089 184.651 202.528 184.856C202.816 184.998 203.051 185.228 203.2 185.512Z" fill="#DE5753"/>
<path d="M207.2 175.2C202.374 174.159 197.361 174.385 192.648 175.856C191.87 175.687 191.18 175.242 190.703 174.604C190.227 173.966 189.997 173.178 190.056 172.384C190.24 170.912 191.448 169.52 193.024 168.592C194.691 167.687 196.516 167.109 198.4 166.888C200.4 166.592 202.4 167.184 204.184 167.76C205.968 168.336 207.624 169.36 208.368 170.712C208.735 171.478 208.819 172.348 208.605 173.17C208.391 173.991 207.894 174.711 207.2 175.2Z" fill="#263238"/>
<path d="M227.824 198.88L212.992 206.504L213.032 209.632C213.032 209.632 228.488 206.584 230.24 204.192C230.526 203.387 230.547 202.511 230.299 201.694C230.052 200.876 229.549 200.159 228.864 199.648L227.824 198.88Z" fill="#7F3E3B"/>
<path d="M212.992 206.504L210.704 207.616C209.993 207.961 209.445 208.569 209.176 209.312L208.136 212.152C208.079 212.317 208.082 212.497 208.143 212.66C208.204 212.824 208.321 212.961 208.472 213.048L210.256 214.016C210.413 214.101 210.597 214.126 210.771 214.084C210.945 214.043 211.098 213.939 211.2 213.792L213.032 211.224L214.864 208.272C214.864 208.272 213.872 206.072 212.992 206.504Z" fill="#7F3E3B"/>
<path d="M215.68 209.304L214.392 209.56L212.808 206.12L213.968 205.584L215.68 209.304Z" fill="#263238"/>
<path d="M212.526 205.809L213.805 205.22C213.979 205.141 214.177 205.133 214.356 205.199C214.535 205.265 214.68 205.4 214.76 205.574L214.804 205.668L212.217 206.859L212.173 206.764C212.093 206.591 212.086 206.393 212.152 206.213C212.218 206.034 212.353 205.889 212.526 205.809Z" fill="#263238"/>
<path d="M156.232 147.584L153.128 149.904L147.768 143.984L143.872 139.68H143.864V139.672L147.888 137.048L151.464 141.568L156.232 147.584Z" fill="#CB7A63"/>
<path d="M155.664 146.632L152.536 149.832C152.471 149.896 152.431 149.981 152.423 150.071C152.414 150.162 152.437 150.253 152.488 150.328L154.968 153.704C155.029 153.782 155.104 153.847 155.191 153.896C155.277 153.944 155.372 153.975 155.47 153.986C155.569 153.997 155.668 153.988 155.763 153.961C155.858 153.933 155.947 153.886 156.024 153.824L156.08 153.776C162.176 148.976 163.72 146.576 164.304 145.912C165.984 144.088 164.304 143.016 163.624 143.456C160.424 145.456 158.912 145.968 157.288 146.096C156.711 146.141 156.154 146.325 155.664 146.632Z" fill="#263238"/>
<path d="M147.192 145.376L153.24 141.08L152.32 138.832L145.376 143.408L147.192 145.376Z" fill="#004CFA"/>
<path opacity="0.5" d="M147.192 145.376L153.24 141.08L152.32 138.832L145.376 143.408L147.192 145.376Z" fill="white"/>
<path d="M158.624 144.272C158.36 144.272 158.04 144.648 157.752 145.072C157.616 145.272 157.48 145.48 157.368 145.672C157.256 145.864 157.192 145.968 157.128 146.096C157.064 146.224 156.96 146.416 156.944 146.456C156.93 146.474 156.922 146.497 156.922 146.52C156.922 146.543 156.93 146.566 156.944 146.584C156.958 146.59 156.973 146.593 156.988 146.593C157.003 146.593 157.018 146.59 157.032 146.584C157.486 146.38 157.92 146.133 158.328 145.848C158.54 145.719 158.722 145.547 158.864 145.344C158.944 145.224 159.008 145.095 159.056 144.96C159.077 144.862 159.073 144.76 159.045 144.664C159.017 144.568 158.966 144.48 158.896 144.408C158.864 144.366 158.823 144.331 158.776 144.307C158.729 144.284 158.677 144.272 158.624 144.272ZM158.784 144.536C158.834 144.583 158.871 144.643 158.89 144.709C158.91 144.775 158.912 144.845 158.896 144.912C158.862 145.047 158.793 145.171 158.696 145.272C158.571 145.422 158.425 145.554 158.264 145.664C158.01 145.846 157.742 146.009 157.464 146.152L157.264 146.256C157.456 145.85 157.692 145.467 157.968 145.112C158.12 144.928 158.272 144.744 158.44 144.576C158.495 144.531 158.561 144.501 158.632 144.488C158.659 144.481 158.688 144.482 158.715 144.49C158.742 144.499 158.765 144.515 158.784 144.536Z" fill="#004CFA"/>
<path d="M156.16 144.288C156.087 144.372 156.032 144.47 155.999 144.576C155.966 144.682 155.955 144.794 155.968 144.904C155.957 144.97 155.957 145.038 155.968 145.104C156.168 145.65 156.514 146.132 156.968 146.496C156.985 146.506 157.004 146.511 157.024 146.511C157.044 146.511 157.063 146.506 157.08 146.496C157.098 146.501 157.118 146.501 157.136 146.496C157.142 146.481 157.142 146.463 157.136 146.448C157.15 146.326 157.15 146.202 157.136 146.08C157.143 145.847 157.127 145.614 157.088 145.384C157.016 144.824 156.832 144.272 156.56 144.136C156.544 144.072 156.368 144.056 156.16 144.288ZM156.56 144.288C156.744 144.376 156.888 144.808 156.968 145.288C157.015 145.579 157.031 145.874 157.016 146.168C156.679 145.878 156.407 145.521 156.216 145.12C156.177 145.031 156.153 144.937 156.144 144.84C156.133 144.701 156.17 144.563 156.248 144.448V144.4C156.464 144.28 156.536 144.32 156.56 144.328V144.288Z" fill="#004CFA"/>
<path d="M150.784 140.728L149.584 141.528L148.864 142L146.776 143.376L146.376 143.64C146.376 143.64 137.48 137.48 133.664 133.24C131.056 130.328 130.912 129.352 130.568 129.544C126.024 132.168 114.432 141.232 102 142.6H101.312C98.2568 142.538 95.2528 141.806 92.5117 140.456C92.8797 137.44 96.3597 130.728 96.6557 130.056L128.656 118.352C128.824 118.288 129.008 118.248 129.184 118.2C129.36 118.152 129.64 118.064 129.872 118.016C130.726 117.798 131.608 117.715 132.488 117.768C133.244 117.723 133.993 117.94 134.608 118.384C137.216 120.936 150.784 140.728 150.784 140.728Z" fill="#263238"/>
<g opacity="0.2">
<path d="M150.784 140.728L149.584 141.528L148.864 142L146.776 143.376L146.376 143.64C146.376 143.64 137.48 137.48 133.664 133.24C131.056 130.328 130.912 129.352 130.568 129.544C126.024 132.168 114.432 141.232 102 142.6H101.312C98.2568 142.538 95.2528 141.806 92.5117 140.456C92.8797 137.44 96.3597 130.728 96.6557 130.056L128.656 118.352C128.824 118.288 129.008 118.248 129.184 118.2C129.36 118.152 129.64 118.064 129.872 118.016C130.726 117.798 131.608 117.715 132.488 117.768C133.244 117.723 133.993 117.94 134.608 118.384C137.216 120.936 150.784 140.728 150.784 140.728Z" fill="black"/>
</g>
<path d="M90.048 85.968C90.68 88.936 91.344 93.272 89.248 95.296C91.7488 99.7595 94.7553 103.92 98.2081 107.696C102.728 99.96 98.5281 95.136 98.5281 95.136C95.1841 94.4 95.2481 93.056 95.7841 90.736L90.048 85.968Z" fill="#CB7A63"/>
<path d="M87.1997 95.656C87.454 94.8548 87.9694 94.1619 88.6637 93.688C89.3357 93.184 96.2717 93.152 98.0717 93.752C99.1219 94.0918 100.012 94.8029 100.576 95.752L87.1997 95.656Z" fill="#004CFA"/>
<path d="M156.92 147.888L160.016 145.344L151.016 133.88L146.552 136.472L156.92 147.888Z" fill="#CB7A63"/>
<path d="M161.784 140.208C161.368 140.336 160.984 141.2 160.688 141.904C160.616 142.08 160.56 142.24 160.512 142.384V142.464C160.456 142.632 160.416 142.752 160.408 142.8C160.392 142.818 160.383 142.84 160.383 142.864C160.383 142.888 160.392 142.91 160.408 142.928C160.427 142.943 160.451 142.951 160.476 142.951C160.5 142.951 160.524 142.943 160.544 142.928C160.911 142.689 161.258 142.421 161.584 142.128L161.8 141.928C162.044 141.713 162.227 141.437 162.328 141.128C162.372 141.025 162.404 140.918 162.424 140.808C162.432 140.701 162.412 140.593 162.368 140.495C162.323 140.397 162.254 140.312 162.168 140.248C162.111 140.213 162.047 140.191 161.98 140.184C161.914 140.178 161.847 140.186 161.784 140.208ZM162.008 140.472C162.069 140.513 162.117 140.569 162.148 140.635C162.179 140.702 162.192 140.775 162.184 140.848C162.14 141.121 162.011 141.373 161.816 141.568C161.595 141.817 161.354 142.047 161.096 142.256L160.712 142.552C160.738 142.499 160.767 142.449 160.8 142.4C160.809 142.354 160.823 142.308 160.84 142.264C161.039 141.672 161.328 141.113 161.696 140.608C161.744 140.55 161.808 140.505 161.88 140.48C161.899 140.469 161.921 140.463 161.943 140.462C161.965 140.46 161.987 140.464 162.008 140.472Z" fill="#004CFA"/>
<path d="M159.24 140.184C159.177 140.284 159.135 140.396 159.115 140.513C159.096 140.629 159.1 140.749 159.128 140.864C159.41 141.509 159.896 142.043 160.512 142.384C160.531 142.392 160.551 142.396 160.572 142.396C160.593 142.396 160.613 142.392 160.632 142.384L160.688 142.336C160.692 142.328 160.693 142.32 160.693 142.312C160.693 142.304 160.692 142.295 160.688 142.288C160.703 142.163 160.703 142.037 160.688 141.912C160.584 141.168 160.192 140.08 159.736 139.944C159.6 139.896 159.416 139.904 159.24 140.184ZM160.472 142.072C159.977 141.775 159.588 141.33 159.36 140.8C159.324 140.655 159.341 140.502 159.408 140.368V140.304C159.528 140.12 159.608 140.144 159.632 140.152C160 140.264 160.408 141.36 160.472 142.072Z" fill="#004CFA"/>
<path d="M156.336 140.424L152.52 144.568C152.52 144.568 136.28 130.688 134.736 126.488C133.712 127.688 119.112 142.84 100.936 145.16C100.712 145.16 100.488 145.208 100.256 145.224C97.2303 145.572 94.1652 145.247 91.2799 144.272C85.4879 142.112 83.9039 137 84.3279 132.656C84.3759 130.632 84.7999 127.008 84.7999 127.008L105.984 127.176C111.84 123.264 129.04 117.08 130.928 116.64C131.352 116.544 131.768 116.456 132.176 116.4C132.595 116.34 133.017 116.302 133.44 116.288C134.875 116.172 136.313 116.478 137.577 117.169C138.841 117.86 139.875 118.905 140.552 120.176L156.336 140.424Z" fill="#263238"/>
<path d="M151.816 145.192L157.472 139.568L156.096 137.352L149.544 143.424L151.816 145.192Z" fill="#004CFA"/>
<path opacity="0.5" d="M151.816 145.192L157.472 139.568L156.096 137.352L149.544 143.424L151.816 145.192Z" fill="white"/>
<path d="M158.944 143.2L155.848 147.296C155.784 147.369 155.749 147.463 155.749 147.56C155.749 147.657 155.784 147.751 155.848 147.824L158.96 151.08C159.034 151.155 159.123 151.214 159.22 151.255C159.318 151.296 159.422 151.317 159.528 151.317C159.634 151.317 159.738 151.296 159.836 151.255C159.933 151.214 160.022 151.155 160.096 151.08C160.119 151.061 160.141 151.039 160.16 151.016C165.984 145.072 167.288 142.264 167.824 141.496C169.36 139.32 167.448 138.416 166.76 138.984C163.656 141.552 162.368 141.92 160.656 142.272C160.019 142.438 159.431 142.757 158.944 143.2Z" fill="#263238"/>
<path d="M142.728 116.512L129.84 120.184L106.408 119.592L118.504 116.424L142.728 116.512Z" fill="#004CFA"/>
<path d="M142.584 115.368L119.152 115.48L120.376 100.624L143.808 100.504L142.584 115.368Z" fill="#004CFA"/>
<path d="M142.264 116.528L119.2 116.64C119.048 116.644 118.897 116.616 118.758 116.557C118.618 116.498 118.492 116.41 118.389 116.299C118.286 116.188 118.208 116.055 118.16 115.911C118.112 115.767 118.096 115.615 118.112 115.464L119.328 100.696C119.359 100.374 119.508 100.075 119.745 99.8549C119.983 99.6352 120.292 99.5103 120.616 99.504L143.704 99.392C143.856 99.3877 144.006 99.4159 144.146 99.4747C144.286 99.5335 144.412 99.6216 144.515 99.733C144.618 99.8444 144.696 99.9765 144.744 100.12C144.792 100.265 144.808 100.417 144.792 100.568L143.576 115.336C143.544 115.662 143.392 115.965 143.15 116.185C142.907 116.405 142.592 116.528 142.264 116.528Z" fill="#263238"/>
<path d="M142.584 115.368L119.152 115.48L120.376 100.624L143.808 100.504L142.584 115.368Z" fill="#004CFA"/>
<path opacity="0.9" d="M142.584 115.368L119.152 115.48L120.376 100.624L143.808 100.504L142.584 115.368Z" fill="white"/>
<path opacity="0.1" d="M123.8 99.472L119.304 116.608L120.848 116.6L125.288 99.464L123.8 99.472Z" fill="white"/>
<path opacity="0.1" d="M126.176 99.4559L121.68 116.6L124.736 116.584L129.176 99.4479L126.176 99.4559Z" fill="white"/>
<path opacity="0.2" d="M142.728 116.512L129.84 120.184L106.408 119.592L118.504 116.424L142.728 116.512Z" fill="white"/>
<path d="M106.408 119.592L107.704 120.744L129.064 121.344L129.84 120.184L106.408 119.592Z" fill="#004CFA"/>
<path d="M129.064 121.344L142.512 117.464L142.728 116.512L129.84 120.184L129.064 121.344Z" fill="#004CFA"/>
<path d="M116 112.352H118.488L117.064 115.76C116.237 116.007 115.372 116.099 114.512 116.032C114.253 115.994 114.009 115.889 113.803 115.727C113.597 115.566 113.437 115.353 113.338 115.111C113.24 114.868 113.206 114.604 113.241 114.345C113.275 114.086 113.377 113.84 113.536 113.632C113.824 113.247 114.195 112.932 114.622 112.711C115.048 112.489 115.519 112.367 116 112.352Z" fill="#CB7A63"/>
<path d="M120.648 114.488L119.984 115.672C119.884 115.85 119.731 115.992 119.545 116.077C119.359 116.162 119.152 116.185 118.952 116.144L117.008 115.744L118.432 112.336L120.208 113.136C120.435 113.238 120.613 113.425 120.703 113.657C120.793 113.889 120.788 114.148 120.688 114.376C120.677 114.414 120.664 114.452 120.648 114.488Z" fill="#CB7A63"/>
<path d="M92.848 110.824C94.8423 113.324 97.5613 115.146 100.632 116.04C104.376 117.024 111.656 116.688 115.2 115.872V113.112C113.752 112.8 100.6 114.024 95.896 105.912C95.016 104.408 91.656 98.32 89.824 97.592C86.848 96.4 85.72 99.568 86.4 101.4C87.2 103.584 91.288 108.92 92.848 110.824Z" fill="#CB7A63"/>
<g opacity="0.2">
<path d="M118.993 112.617H118.976L118.984 112.608L118.993 112.617Z" fill="black"/>
</g>
<path d="M106.4 100.576C110.4 109.512 100.992 112 105.192 126.64L84.7998 126.992C84.9838 119.16 87.7598 120.864 84.1838 106.112C83.5828 103.422 83.7746 100.615 84.7358 98.032C85.256 96.7611 86.2001 95.7095 87.4078 95.056C88.9118 94.256 95.5438 94.936 98.5678 95.152C101.848 94.712 105.808 99.456 106.4 100.576Z" fill="#004CFA"/>
<path d="M106.4 100.576C110.4 109.512 100.992 112 105.192 126.64L84.7998 126.992C84.9838 119.16 87.7598 120.864 84.1838 106.112C83.5828 103.422 83.7746 100.615 84.7358 98.032C85.256 96.7611 86.2001 95.7095 87.4078 95.056C88.9118 94.256 95.5438 94.936 98.5678 95.152C101.848 94.712 105.808 99.456 106.4 100.576Z" fill="#004CFA"/>
<path d="M102.616 82.864C102.56 83.256 102.712 83.576 102.96 83.608C103.208 83.64 103.448 83.376 103.504 83C103.56 82.624 103.408 82.288 103.168 82.256C102.928 82.224 102.672 82.496 102.616 82.864Z" fill="#263238"/>
<path d="M103.056 82.256L103.992 82.136C103.992 82.136 103.424 82.768 103.056 82.256Z" fill="#263238"/>
<path d="M102.68 83.376C102.879 84.2799 103.208 85.1502 103.656 85.96C103.444 86.0699 103.211 86.1313 102.973 86.1396C102.735 86.1479 102.498 86.1029 102.28 86.008L102.68 83.376Z" fill="#A02724"/>
<path d="M104 80.256C104.036 80.241 104.067 80.2169 104.091 80.186C104.115 80.1552 104.13 80.1186 104.136 80.08C104.145 80.0217 104.131 79.962 104.096 79.9141C104.062 79.8662 104.01 79.8338 103.952 79.824C103.604 79.7614 103.247 79.7833 102.91 79.8877C102.573 79.9922 102.267 80.1761 102.016 80.424C101.988 80.4415 101.965 80.4647 101.947 80.4922C101.93 80.5196 101.918 80.5505 101.914 80.5828C101.91 80.6151 101.912 80.6479 101.922 80.679C101.932 80.7101 101.948 80.7387 101.97 80.7629C101.992 80.7871 102.018 80.8062 102.048 80.8189C102.078 80.8317 102.111 80.8377 102.143 80.8367C102.176 80.8357 102.208 80.8275 102.237 80.8129C102.266 80.7983 102.291 80.7775 102.312 80.752C102.514 80.5586 102.76 80.4164 103.028 80.3371C103.297 80.2578 103.581 80.2437 103.856 80.296C103.881 80.2997 103.907 80.2981 103.932 80.2912C103.957 80.2843 103.98 80.2723 104 80.256Z" fill="#263238"/>
<path d="M90.2958 79.696C89.8878 84.336 89.6078 86.296 91.5678 89.008C94.5198 93.088 100.32 92.592 102.112 88.168C103.712 84.168 104.136 77.264 99.9198 74.752C98.99 74.2092 97.9384 73.9098 96.8622 73.8813C95.786 73.8529 94.72 74.0964 93.7629 74.5893C92.8058 75.0822 91.9885 75.8086 91.3866 76.7012C90.7848 77.5939 90.4178 78.6239 90.3198 79.696H90.2958Z" fill="#CB7A63"/>
<path d="M102.216 87.888C101.852 87.5843 101.576 87.1895 101.416 86.744C101.412 86.7319 101.411 86.7192 101.412 86.7066C101.413 86.694 101.417 86.6818 101.423 86.6707C101.429 86.6595 101.437 86.6497 101.447 86.6417C101.456 86.6336 101.468 86.6276 101.48 86.624C101.505 86.6189 101.532 86.6235 101.554 86.6368C101.576 86.6501 101.592 86.6712 101.6 86.696C101.734 87.0734 101.956 87.4135 102.248 87.688L102.216 87.888Z" fill="#263238"/>
<path d="M92.6317 88.8C92.2616 88.9635 91.9509 89.2371 91.7419 89.5835C91.5329 89.9299 91.4358 90.3324 91.4637 90.736L92.4557 89.344L92.6317 88.8Z" fill="#263238"/>
<path d="M92.6879 88.856C92.4024 89.1437 92.2135 89.5132 92.1476 89.9132C92.0816 90.3132 92.1419 90.7238 92.3199 91.088L92.7279 89.416L92.6879 88.856Z" fill="#263238"/>
<path d="M102.976 75.016C102.776 74.136 101.312 74.36 100.44 74.16C100.025 73.9996 99.566 73.9996 99.1517 74.16C98.9769 74.2828 98.8375 74.4495 98.7476 74.6433C98.6577 74.8371 98.6205 75.0512 98.6397 75.264C98.6846 75.6875 98.798 76.1009 98.9757 76.488C99.4889 78.0611 99.9057 79.6641 100.224 81.288C100.445 82.4292 100.485 83.5981 100.344 84.752C100.888 84.552 104.12 80.08 102.976 75.016Z" fill="#263238"/>
<path d="M100.552 74.4C99.2003 73.5623 97.6858 73.022 96.1092 72.8151C94.5325 72.6082 92.9299 72.7394 91.4079 73.2C89.8944 73.691 88.5387 74.5759 87.4801 75.7639C86.4215 76.9519 85.698 78.4001 85.3839 79.96C85.1206 81.9747 85.4369 84.0227 86.2959 85.864C87.1497 87.6949 88.1784 89.4391 89.3679 91.072C89.2079 93.008 87.5439 94.576 86.4079 96.152C85.1526 97.7845 84.477 99.7887 84.4879 101.848C84.5109 102.871 84.8139 103.869 85.3639 104.732C85.914 105.595 86.6901 106.291 87.6079 106.744C88.3359 107.056 88.1999 108.416 87.7679 109.08C88.046 109.068 88.3085 108.948 88.5008 108.747C88.693 108.546 88.8002 108.278 88.7999 108C88.6239 108.416 88.4239 109.056 88.2479 109.472C88.308 109.381 88.3899 109.306 88.4863 109.254C88.5827 109.202 88.6905 109.175 88.7999 109.176C89.0155 109.196 89.2324 109.196 89.4479 109.176C89.8654 109.013 90.2037 108.695 90.3919 108.288C91.1758 107.254 91.6626 106.026 91.7999 104.736C91.8221 104.115 91.6363 103.504 91.2719 103C91.5679 102.712 91.9919 102.84 92.3279 103.08C92.6477 103.345 92.8724 103.708 92.9679 104.112C93.1236 104.63 93.1886 105.172 93.1599 105.712C94.7599 103.44 94.8159 99.832 93.6479 97.328C93.2639 96.488 92.7039 95.576 93.0159 94.704C93.3839 93.664 93.0159 92.408 93.7679 91.592C95.6079 91.456 96.7839 89.736 97.6719 88.112C99.9005 83.9025 100.899 79.1504 100.552 74.4Z" fill="#263238"/>
<path d="M96.3036 82.904C96.2465 83.9781 96.6177 85.031 97.3356 85.832C98.2956 86.888 99.5276 86.208 99.8956 84.904C100.224 83.736 100.112 81.776 98.8476 81.208C98.5687 81.0859 98.2636 81.0359 97.9603 81.0625C97.657 81.0892 97.3653 81.1917 97.1119 81.3605C96.8586 81.5294 96.6518 81.7593 96.5106 82.029C96.3693 82.2987 96.2981 82.5996 96.3036 82.904Z" fill="#CB7A63"/>
<path d="M84.6238 125.44L84.1438 127.28C84.0718 127.432 84.2478 127.568 84.4798 127.56L105.48 127.2C105.664 127.2 105.816 127.104 105.824 126.992L105.312 125.048C105.312 124.92 105.16 124.816 104.96 124.824L84.9598 125.28C84.8948 125.276 84.8299 125.289 84.7711 125.317C84.7123 125.345 84.6616 125.387 84.6238 125.44Z" fill="white"/>
<path d="M103.296 127.408L102.744 127.464C102.632 127.464 102.544 127.464 102.544 127.36V124.96C102.544 124.888 102.64 124.824 102.744 124.808L103.296 124.752C103.408 124.752 103.496 124.752 103.496 124.856V127.256C103.488 127.336 103.4 127.4 103.296 127.408Z" fill="#004CFA"/>
<path d="M95.7759 127.456L95.2239 127.512C95.1199 127.512 95.0319 127.512 95.0239 127.408V125.008C95.0239 124.936 95.1119 124.872 95.2239 124.856L95.7679 124.8C95.8799 124.8 95.9679 124.8 95.9679 124.904V127.304C95.9999 127.392 95.8879 127.448 95.7759 127.456Z" fill="#004CFA"/>
<path d="M95.7759 127.456L95.2239 127.512C95.1199 127.512 95.0319 127.512 95.0239 127.408V125.008C95.0239 124.936 95.1119 124.872 95.2239 124.856L95.7679 124.8C95.8799 124.8 95.9679 124.8 95.9679 124.904V127.304C95.9999 127.392 95.8879 127.448 95.7759 127.456Z" fill="#004CFA"/>
<path opacity="0.2" d="M97.5996 100.952C97.5996 100.952 96.4876 103.184 99.6236 109.136L100.936 111.536C101.368 112.336 104.296 110.736 105.176 109.24C105.176 109.24 99.6316 105.888 97.5996 100.952Z" fill="black"/>
<path d="M127.08 112.472L129.384 112.592L127.92 115.704C127.92 115.704 124.32 116.632 123.92 114.416L124.72 113.512C125.01 113.173 125.373 112.903 125.781 112.723C126.19 112.543 126.634 112.457 127.08 112.472Z" fill="#CB7A63"/>
<path d="M131.344 114.704L130.672 115.776C130.57 115.937 130.42 116.061 130.243 116.131C130.067 116.202 129.872 116.214 129.688 116.168L127.904 115.696L129.376 112.584L130.976 113.448C131.08 113.499 131.173 113.57 131.25 113.658C131.326 113.745 131.384 113.847 131.421 113.957C131.458 114.068 131.472 114.184 131.462 114.3C131.453 114.416 131.421 114.529 131.368 114.632L131.344 114.704Z" fill="#CB7A63"/>
<path d="M106.032 113.752C107.56 115.856 109.688 117.824 112.272 118.136C114.272 118.384 123.768 116.904 125.16 115.592V113.36C125.16 113.36 115.232 113.408 113.96 113.272C112.104 113.088 110.936 111.816 109.368 109.096C108.568 107.744 106.056 102.184 105.096 100.944C103.56 98.952 99.1356 100.344 100.856 105.12C101.6 107.128 104.8 112 106.032 113.752Z" fill="#CB7A63"/>
<path d="M104.48 97.648C107.6 100.544 109.088 105.648 109.088 105.648L101.744 110.064C101.744 110.064 96.4398 102.52 97.4158 99.912C98.2158 97.888 99.5838 96.568 101.416 96.464C101.98 96.4449 102.542 96.5399 103.069 96.7434C103.595 96.9469 104.075 97.2545 104.48 97.648Z" fill="#004CFA"/>
<path d="M87.5116 127.696H86.9596C86.8476 127.696 86.7596 127.64 86.7676 127.568L86.9836 125.168C86.9836 125.096 87.0876 125.032 87.1996 125.032H87.7516C87.8636 125.032 87.9516 125.088 87.9436 125.152L87.7196 127.552C87.7099 127.598 87.683 127.639 87.6443 127.665C87.6056 127.692 87.5581 127.703 87.5116 127.696Z" fill="#004CFA"/>
<path d="M113.912 300.232L117.912 302.984L121.16 299.088L118.088 298.776C117.338 298.703 116.598 298.553 115.88 298.328L113.912 300.232Z" fill="#FF8B7B"/>
<path d="M121.144 299.088L117.144 302.472L119.496 304.352C119.627 304.444 119.787 304.485 119.946 304.468C120.105 304.45 120.253 304.375 120.36 304.256L123.2 301.6C123.262 301.537 123.297 301.452 123.297 301.364C123.297 301.276 123.262 301.191 123.2 301.128L121.144 299.088Z" fill="#FF8B7B"/>
<path d="M106.504 278.712L104.264 288.256L116.672 298.656L115.336 300.96C115.336 300.96 101.616 294.784 99.6556 291.36C97.6956 287.936 101.832 275.304 101.832 275.304L106.504 278.712Z" fill="#FF8B7B"/>
<path d="M103.28 273.6C104.992 274.448 109.008 277.4 105.568 287.456L98.3999 286.456C99.3039 280.168 100.576 272.8 103.28 273.6Z" fill="#263238"/>
<path opacity="0.1" d="M103.28 273.6C104.992 274.448 109.008 277.4 105.568 287.456L98.3999 286.456C99.3039 280.168 100.576 272.8 103.28 273.6Z" fill="black"/>
<path d="M80.848 302.968L80.048 306.224C80.048 306.224 72.128 303.824 69.472 310.496C66.816 317.168 73.736 331.344 94.8 326.432C94.8 326.432 100.48 327.968 105.336 326.744C112.536 324.936 121.696 320.712 122.688 314.024C124.344 302.824 102.072 306.824 102.072 306.824L101.272 304.728L80.848 302.968Z" fill="#004CFA"/>
<path opacity="0.1" d="M83.6558 307.664C83.6558 307.664 88.6398 310.184 90.4478 314.408L92.5998 315.208C92.5998 315.208 91.3358 309.432 83.6558 307.664Z" fill="black"/>
<path d="M99.8159 318.352C99.8159 318.352 99.9679 311.192 107.088 305.704H112.624L101.936 319.696L99.8159 318.352Z" fill="#004CFA"/>
<path d="M69.272 311.04C69.272 311.04 67.288 316.8 74.936 323.2C82.584 329.6 86.704 321.072 86.704 321.072L87.296 317.816L82.064 313.136L75.416 308.648L71.784 309.08L69.272 311.04Z" fill="#004CFA"/>
<path d="M69.2319 311.84C69.5734 314.347 70.5351 316.728 72.0299 318.769C73.5246 320.81 75.5052 322.446 77.7919 323.528C84.3599 326.656 86.0479 317.8 86.0479 317.8L73.9359 309.912L69.4639 310.496L69.2319 311.84Z" fill="#FF8B7B"/>
<path opacity="0.1" d="M69.2319 311.84C69.5734 314.347 70.5351 316.728 72.0299 318.769C73.5246 320.81 75.5052 322.446 77.7919 323.528C84.3599 326.656 86.0479 317.8 86.0479 317.8L73.9359 309.912L69.4639 310.496L69.2319 311.84Z" fill="black"/>
<path d="M121.6 332.864C120.243 330.39 118.043 328.485 115.4 327.496C115.121 327.357 114.886 327.144 114.72 326.88C114.649 326.781 114.59 326.673 114.544 326.56L113.192 322.144C113.165 322.064 113.165 321.976 113.192 321.896C113.199 321.839 113.218 321.785 113.247 321.735C113.276 321.686 113.314 321.643 113.36 321.608L117.144 319.416C117.222 319.358 117.31 319.316 117.404 319.292C117.498 319.268 117.596 319.264 117.692 319.278C117.787 319.292 117.88 319.325 117.963 319.375C118.046 319.424 118.118 319.49 118.176 319.568L118.256 319.704C119.016 321.536 119.624 323.2 120.656 325.464C121.824 328.136 121.848 327.32 123.264 330.44C124.096 332.328 122.096 333.6 121.6 332.864Z" fill="#263238"/>
<path d="M108.144 306.464C108.144 306.464 127.184 302.328 130.224 308.376C133.264 314.424 122.464 318.456 118.624 319.816C111.928 322.216 88.7036 329.472 88.7036 329.472L90.2156 324.736L101.296 318.4C101.296 318.4 101.8 312.08 108.144 306.464Z" fill="#FF8B7B"/>
<path d="M90.2558 328.88L91.9118 323.88C91.9419 323.789 91.9401 323.69 91.9067 323.6C91.8733 323.51 91.8102 323.434 91.7278 323.384L87.9998 321.136C87.9206 321.088 87.8326 321.056 87.741 321.042C87.6494 321.028 87.5559 321.033 87.466 321.055C87.3761 321.077 87.2914 321.117 87.2169 321.172C87.1424 321.227 87.0795 321.297 87.0318 321.376C87.0042 321.415 86.9827 321.458 86.9678 321.504C86.3998 323.32 85.9678 324.952 85.2238 327.2C84.3438 329.848 84.2558 329.072 83.1758 332.168C82.5358 334.032 84.5518 335.08 84.9198 334.32C86.5838 330.832 87.8078 330.816 89.5758 329.848C89.9119 329.618 90.1534 329.274 90.2558 328.88Z" fill="#263238"/>
<path opacity="0.1" d="M116.672 308.224C116.488 307.52 105.936 314.24 102.648 313.824C102.214 314.784 101.863 315.78 101.6 316.8L101.472 317.336C101.475 317.363 101.475 317.389 101.472 317.416C101.472 317.472 101.472 317.536 101.472 317.592C101.468 317.624 101.468 317.656 101.472 317.688C101.468 317.733 101.468 317.779 101.472 317.824C101.472 317.824 101.472 317.888 101.472 317.92V318.024V318.104C101.472 318.104 101.472 318.16 101.472 318.184C101.476 318.208 101.476 318.232 101.472 318.256V318.4L91.0718 324.312L99.2158 326.168C104.072 324.624 109.704 322.816 113.976 321.408L103.192 317.344C107.072 314.888 116.8 308.8 116.672 308.224Z" fill="black"/>
<path d="M114.752 326.88C108.856 326.136 97.6718 324.672 93.8158 323.84C86.8638 322.336 63.9358 316.448 69.7678 308.64C75.8558 300.48 88.0398 312.88 88.0398 312.88L113.2 321.904C113.172 321.984 113.172 322.072 113.2 322.152L114.552 326.568C114.606 326.68 114.673 326.784 114.752 326.88Z" fill="#FF8B7B"/>
<path opacity="0.1" d="M78.3358 308.288C76.5198 309.088 88.0398 312.864 88.0398 312.864C86.5262 311.386 84.8822 310.047 83.1278 308.864C81.3518 308.168 79.5518 307.76 78.3358 308.288Z" fill="black"/>
<path d="M97.7759 271.32L92.9759 270.184L86.8879 270.144C85.9616 270.136 85.0585 270.433 84.3182 270.99C83.5778 271.547 83.0414 272.332 82.7919 273.224C81.7008 277.561 80.8779 281.962 80.3279 286.4C79.6479 291.392 80.4879 297.112 80.6719 303.88L102.392 304.68C101.24 294.792 103.192 286.144 104.496 280.936C104.776 277.736 104.496 273.944 102.784 273.2L97.7759 271.32Z" fill="#263238"/>
<path opacity="0.3" d="M80.3277 286.4C80.7997 282.896 81.4317 278.944 82.1757 275.664C86.1757 274.824 88.5117 283.616 87.4877 288.064C86.4637 292.512 79.9517 290.104 79.9517 290.104C80.0557 288.8 80.1757 287.52 80.3277 286.4Z" fill="black"/>
<path d="M87.0317 267.2C87.4715 267.615 88.0197 267.896 88.6129 268.013C89.2061 268.129 89.8201 268.074 90.3837 267.856C89.8859 268.443 89.213 268.855 88.4637 269.032C89.1045 269.424 89.8453 269.622 90.5963 269.602C91.3474 269.583 92.0766 269.346 92.6957 268.92C92.2317 269.352 91.6077 269.912 91.1517 270.344C92.3654 270.656 93.6354 270.679 94.8595 270.41C96.0836 270.142 97.2274 269.59 98.1989 268.798C99.1704 268.006 99.9422 266.997 100.452 265.853C100.962 264.708 101.197 263.46 101.136 262.208C101.08 261.128 99.4877 260.608 98.4797 260.224C97.4724 259.854 96.3863 259.752 95.3277 259.928C94.4825 260.105 93.659 260.373 92.8717 260.728C92.9197 260.552 92.5997 266.4 87.0317 267.2Z" fill="#004CFA"/>
<path d="M94.5438 262.4L96.4958 265.136L99.1518 268.856C98.8438 269.196 98.5999 269.589 98.4318 270.016C98.0238 270.96 97.6318 271.664 99.6478 272.904C99.8595 273.03 100.031 273.213 100.143 273.433C100.255 273.652 100.302 273.899 100.28 274.144C100.184 274.752 99.6158 275.352 97.5118 275.072C95.4858 274.767 93.6104 273.823 92.1598 272.376C91.4318 271.712 91.5678 271.176 92.2078 270.432C94.0398 268.312 94.4798 265.032 94.5438 262.4Z" fill="#FF8B7B"/>
<path opacity="0.2" d="M98.5196 267.936L96.8716 265.272L96.7756 265.504C96.6563 265.847 96.5601 266.197 96.4876 266.552C96.2556 267.776 97.2876 269.464 98.3356 270.248L98.4476 270.008C98.6153 269.608 98.8389 269.233 99.1116 268.896C99.126 268.876 99.1452 268.859 99.1676 268.848L98.5196 267.936Z" fill="black"/>
<path d="M101.952 262.576C104.2 259.288 104.064 257.248 106.04 255.592C107.024 255.296 108.44 257.192 106.984 260.008C105.528 262.824 101.952 262.576 101.952 262.576Z" fill="#263238"/>
<path d="M95.1995 257.76C94.4795 261.808 93.8795 264.16 95.4155 266.632C97.7355 270.384 103.12 269.64 105.016 265.832C106.728 262.432 107.592 256.376 104.04 253.92C103.244 253.38 102.325 253.049 101.367 252.96C100.41 252.87 99.4449 253.024 98.5628 253.407C97.6807 253.79 96.9098 254.39 96.3218 255.151C95.7338 255.912 95.3478 256.81 95.1995 257.76Z" fill="#FF8B7B"/>
<path d="M94.2475 261.32L96.2875 262.92L97.0235 259.384L98.9675 258.584L101.584 255.56C101.584 255.56 96.9835 253.552 95.5755 253.16C95.0875 253.032 93.1755 254.168 92.8315 254.704C92.3934 255.465 92.1763 256.333 92.2046 257.211C92.2329 258.088 92.5054 258.941 92.9915 259.672C93.3543 260.262 93.775 260.814 94.2475 261.32Z" fill="#004CFA"/>
<path d="M92.7998 260.44C92.7995 261.359 93.1352 262.247 93.7438 262.936C94.5438 263.816 95.6878 263.04 95.9278 261.896C96.1678 260.752 95.7518 259.312 94.7278 258.864C93.7038 258.416 92.7998 259.288 92.7998 260.44Z" fill="#FF8B7B"/>
<path d="M101.08 260.8C100.992 261.128 101.08 261.448 101.296 261.52C101.512 261.592 101.736 261.376 101.848 261.048C101.911 260.923 101.924 260.779 101.884 260.645C101.844 260.51 101.753 260.397 101.632 260.328C101.416 260.24 101.176 260.448 101.08 260.8Z" fill="#263238"/>
<path d="M104.8 261.968C104.704 262.296 104.8 262.624 105.016 262.688C105.232 262.752 105.48 262.544 105.568 262.224C105.656 261.904 105.568 261.568 105.36 261.504C105.152 261.44 104.864 261.64 104.8 261.968Z" fill="#263238"/>
<path d="M103.519 261.832C103.544 262.799 103.695 263.759 103.968 264.688C103.732 264.752 103.485 264.762 103.245 264.716C103.005 264.671 102.779 264.571 102.583 264.424L103.519 261.832Z" fill="#FF5652"/>
<path d="M101.743 266.264C101.362 266.155 101.006 265.97 100.698 265.72C100.39 265.47 100.136 265.159 99.9515 264.808C99.9422 264.796 99.9358 264.781 99.9328 264.766C99.9297 264.751 99.93 264.736 99.9337 264.721C99.9373 264.706 99.9443 264.692 99.954 264.68C99.9637 264.668 99.9759 264.658 99.9898 264.652C100.004 264.645 100.019 264.642 100.034 264.641C100.05 264.641 100.065 264.645 100.079 264.651C100.093 264.658 100.105 264.667 100.115 264.679C100.125 264.691 100.132 264.705 100.135 264.72C100.341 265.1 100.631 265.427 100.984 265.677C101.336 265.926 101.741 266.092 102.167 266.16C102.181 266.161 102.194 266.165 102.207 266.171C102.219 266.177 102.23 266.186 102.239 266.196C102.248 266.206 102.254 266.218 102.259 266.231C102.263 266.244 102.265 266.258 102.263 266.272C102.263 266.285 102.259 266.298 102.253 266.31C102.246 266.322 102.238 266.332 102.227 266.341C102.216 266.349 102.204 266.355 102.191 266.358C102.178 266.362 102.165 266.362 102.151 266.36C102.014 266.336 101.877 266.304 101.743 266.264Z" fill="#263238"/>
<path d="M100.696 259.384C100.679 259.379 100.663 259.371 100.649 259.36C100.635 259.349 100.624 259.336 100.616 259.32C100.6 259.298 100.59 259.274 100.584 259.248C100.578 259.223 100.577 259.196 100.581 259.17C100.586 259.144 100.596 259.119 100.61 259.097C100.624 259.074 100.642 259.055 100.664 259.04C100.919 258.851 101.217 258.729 101.531 258.684C101.846 258.64 102.166 258.674 102.464 258.784C102.512 258.804 102.551 258.841 102.572 258.889C102.593 258.937 102.594 258.991 102.576 259.04C102.565 259.064 102.55 259.086 102.531 259.104C102.512 259.123 102.49 259.137 102.465 259.147C102.441 259.157 102.415 259.161 102.388 259.161C102.362 259.16 102.336 259.155 102.312 259.144C102.077 259.065 101.827 259.043 101.582 259.081C101.337 259.118 101.104 259.214 100.904 259.36C100.877 259.387 100.842 259.404 100.804 259.408C100.766 259.413 100.728 259.404 100.696 259.384Z" fill="#263238"/>
<path d="M105.4 259.832C105.392 259.8 105.392 259.767 105.4 259.736C105.419 259.685 105.458 259.645 105.507 259.622C105.557 259.6 105.613 259.598 105.664 259.616C105.963 259.717 106.233 259.892 106.448 260.124C106.663 260.356 106.817 260.638 106.896 260.944C106.907 260.996 106.898 261.05 106.869 261.095C106.841 261.14 106.796 261.172 106.744 261.184C106.692 261.196 106.637 261.186 106.592 261.158C106.547 261.129 106.515 261.084 106.504 261.032C106.437 260.791 106.313 260.571 106.141 260.39C105.969 260.208 105.756 260.072 105.52 259.992C105.488 259.977 105.46 259.955 105.439 259.927C105.418 259.899 105.405 259.866 105.4 259.832Z" fill="#263238"/>
<path d="M103.936 306.608L90.6477 305.32C90.6477 305.32 90.5998 305.064 91.7438 305.008H92.0477C92.2717 305.008 93.1758 304.936 94.3838 304.88H94.7758C98.2478 304.72 103.736 304.488 103.736 304.488L103.904 306.288L103.936 306.608Z" fill="#004CFA"/>
<path opacity="0.2" d="M103.904 306.248L93.9196 305.24C93.9196 305.24 93.5196 304.952 94.3836 304.864H94.7756C98.2476 304.704 103.736 304.472 103.736 304.472L103.904 306.248Z" fill="white"/>
<path d="M97.6477 301.016L99.6477 301.528L96.9997 305.6C96.9997 305.6 92.7837 304.28 93.5597 302.4L94.5837 301.76C95.4557 301.28 96.5757 300.696 97.6477 301.016Z" fill="#FF8B7B"/>
<path d="M101.512 304.208L99.608 306.264L97 305.632L99.648 301.528L101.512 304.208Z" fill="#FF8B7B"/>
<path d="M86.0956 284.328C84.8556 288.104 83.5116 288.6 85.0316 290.584C86.5516 292.568 95.1996 299.328 96.7996 301.328L94.0956 303.392C90.8956 301.621 87.6956 299.891 84.4956 298.2C82.1436 296.968 79.6396 295.616 78.4076 293.256C76.6476 289.88 77.6076 286.648 79.6076 282.28C81.4956 281.952 86.0956 284.328 86.0956 284.328Z" fill="#FF8B7B"/>
<path d="M85.5359 270.24C89.7919 269.44 92.0479 273.008 90.2559 278.576C89.5575 281.136 88.5866 283.615 87.3599 285.968L77.2959 283.632C78.7519 278.136 81.1839 271.088 85.5359 270.24Z" fill="#263238"/>
<path d="M101.056 307.28L125.128 306.304C125.251 306.298 125.367 306.248 125.456 306.163C125.544 306.077 125.598 305.963 125.608 305.84C125.612 305.782 125.603 305.725 125.582 305.671C125.562 305.617 125.53 305.568 125.489 305.527C125.448 305.486 125.399 305.454 125.345 305.434C125.291 305.413 125.234 305.404 125.176 305.408L101.096 306.4C100.973 306.408 100.858 306.46 100.771 306.547C100.684 306.634 100.632 306.749 100.624 306.872C100.624 306.928 100.635 306.983 100.657 307.034C100.679 307.085 100.711 307.131 100.752 307.169C100.792 307.208 100.84 307.237 100.893 307.256C100.945 307.275 101 307.283 101.056 307.28Z" fill="#263238"/>
<path d="M89.4877 306.096L100.872 307.272C100.995 307.282 101.117 307.245 101.215 307.17C101.312 307.095 101.378 306.985 101.4 306.864C101.412 306.807 101.413 306.749 101.401 306.692C101.39 306.635 101.366 306.581 101.332 306.535C101.298 306.488 101.254 306.448 101.204 306.42C101.153 306.391 101.097 306.373 101.04 306.368L89.6557 305.2C89.5335 305.188 89.4113 305.223 89.3134 305.297C89.2155 305.371 89.1492 305.479 89.1277 305.6C89.1149 305.657 89.1144 305.715 89.1261 305.772C89.1377 305.829 89.1614 305.882 89.1955 305.929C89.2295 305.976 89.2732 306.015 89.3236 306.044C89.374 306.073 89.4299 306.091 89.4877 306.096Z" fill="#004CFA"/>
<path opacity="0.4" d="M89.4877 306.096L100.872 307.272C100.995 307.282 101.117 307.245 101.215 307.17C101.312 307.095 101.378 306.985 101.4 306.864C101.412 306.807 101.413 306.749 101.401 306.692C101.39 306.635 101.366 306.581 101.332 306.535C101.298 306.488 101.254 306.448 101.204 306.42C101.153 306.391 101.097 306.373 101.04 306.368L89.6557 305.2C89.5335 305.188 89.4113 305.223 89.3134 305.297C89.2155 305.371 89.1492 305.479 89.1277 305.6C89.1149 305.657 89.1144 305.715 89.1261 305.772C89.1377 305.829 89.1614 305.882 89.1955 305.929C89.2295 305.976 89.2732 306.015 89.3236 306.044C89.374 306.073 89.4299 306.091 89.4877 306.096Z" fill="black"/>
<path d="M101.752 306.352L124.208 305.44C124.603 305.403 124.974 305.236 125.263 304.965C125.553 304.694 125.744 304.335 125.808 303.944L127.336 292.576C127.368 292.399 127.36 292.217 127.311 292.044C127.261 291.87 127.173 291.711 127.053 291.577C126.932 291.443 126.782 291.339 126.615 291.272C126.448 291.206 126.268 291.178 126.088 291.192L103.632 292.104C103.237 292.14 102.865 292.307 102.575 292.578C102.286 292.848 102.094 293.208 102.032 293.6L100.504 304.968C100.472 305.145 100.48 305.327 100.53 305.501C100.579 305.674 100.667 305.833 100.788 305.967C100.908 306.101 101.058 306.205 101.225 306.272C101.392 306.339 101.573 306.366 101.752 306.352Z" fill="#004CFA"/>
<path opacity="0.4" d="M101.752 306.352L124.208 305.44C124.603 305.403 124.974 305.236 125.263 304.965C125.553 304.694 125.744 304.335 125.808 303.944L127.336 292.576C127.368 292.399 127.36 292.217 127.311 292.044C127.261 291.87 127.173 291.711 127.053 291.577C126.932 291.443 126.782 291.339 126.615 291.272C126.448 291.206 126.268 291.178 126.088 291.192L103.632 292.104C103.237 292.14 102.865 292.307 102.575 292.578C102.286 292.848 102.094 293.208 102.032 293.6L100.504 304.968C100.472 305.145 100.48 305.327 100.53 305.501C100.579 305.674 100.667 305.833 100.788 305.967C100.908 306.101 101.058 306.205 101.225 306.272C101.392 306.339 101.573 306.366 101.752 306.352Z" fill="black"/>
<path d="M102.4 306.272L124.848 305.368C125.242 305.329 125.612 305.162 125.902 304.891C126.191 304.621 126.383 304.263 126.448 303.872L127.968 292.504C128 292.327 127.992 292.145 127.942 291.971C127.893 291.798 127.805 291.639 127.684 291.505C127.564 291.371 127.414 291.267 127.247 291.2C127.08 291.133 126.899 291.106 126.72 291.12L104.328 292C103.932 292.038 103.56 292.206 103.271 292.478C102.981 292.75 102.79 293.111 102.728 293.504L101.2 304.872C101.166 305.046 101.172 305.226 101.217 305.397C101.262 305.569 101.346 305.728 101.461 305.862C101.577 305.997 101.721 306.104 101.884 306.175C102.046 306.246 102.223 306.279 102.4 306.272Z" fill="#004CFA"/>
<path opacity="0.5" d="M102.4 306.272L124.848 305.368C125.242 305.329 125.612 305.162 125.902 304.891C126.191 304.621 126.383 304.263 126.448 303.872L127.968 292.504C128 292.327 127.992 292.145 127.942 291.971C127.893 291.798 127.805 291.639 127.684 291.505C127.564 291.371 127.414 291.267 127.247 291.2C127.08 291.133 126.899 291.106 126.72 291.12L104.328 292C103.932 292.038 103.56 292.206 103.271 292.478C102.981 292.75 102.79 293.111 102.728 293.504L101.2 304.872C101.166 305.046 101.172 305.226 101.217 305.397C101.262 305.569 101.346 305.728 101.461 305.862C101.577 305.997 101.721 306.104 101.884 306.175C102.046 306.246 102.223 306.279 102.4 306.272Z" fill="white"/>
<path d="M91.776 249.344C91.4654 249.687 91.233 250.094 91.0949 250.536C90.9568 250.978 90.9162 251.445 90.976 251.904C91.08 252.424 91.776 251.208 91.92 251.72C92.152 252.784 91.712 253.856 91.496 254.92C91.285 255.979 91.2926 257.071 91.5182 258.127C91.7438 259.184 92.1827 260.183 92.808 261.064L92.664 260.912C95.0815 259.288 97.7769 258.122 100.616 257.472C101.792 257.16 103.08 256.752 104.24 257.144C106.888 258.032 106.952 260.008 106.952 260.008C108.736 256.808 106.696 252.072 104.264 249.384C101.832 246.696 92.352 248.624 91.776 249.344Z" fill="#263238"/>
<path d="M105.848 254.616C105.944 255.344 105.92 255.88 106.016 256.6C105.485 256.14 104.862 255.799 104.189 255.599C103.515 255.399 102.807 255.345 102.112 255.44C102.195 254.892 102.103 254.332 101.848 253.84C102.53 253.665 103.243 253.643 103.935 253.778C104.627 253.912 105.28 254.198 105.848 254.616Z" fill="#004CFA"/>
<path d="M204.92 110.92L262.432 110.576C262.829 110.56 263.226 110.622 263.599 110.76C263.972 110.897 264.314 111.106 264.606 111.376C264.898 111.646 265.134 111.97 265.301 112.331C265.467 112.692 265.561 113.083 265.576 113.48C265.588 113.645 265.588 113.811 265.576 113.976L262.752 140.424C262.622 141.361 262.164 142.221 261.46 142.853C260.755 143.484 259.85 143.845 258.904 143.872L234.976 144.136C231.103 148.756 225.743 151.884 219.816 152.984C219.816 152.984 225.328 147.936 226.624 144.184H201.392C200.591 144.214 199.811 143.925 199.223 143.381C198.635 142.836 198.287 142.081 198.256 141.28C198.244 141.115 198.244 140.949 198.256 140.784L201.072 114.4C201.195 113.457 201.65 112.589 202.355 111.951C203.061 111.314 203.97 110.948 204.92 110.92Z" fill="white"/>
<path d="M218.584 153.6L219.528 152.728C219.584 152.688 224.472 148.176 226.024 144.624H201.384C200.936 144.644 200.489 144.575 200.069 144.419C199.648 144.264 199.263 144.026 198.936 143.72C198.536 143.348 198.231 142.886 198.044 142.373C197.858 141.86 197.796 141.31 197.864 140.768L200.672 114.368C200.806 113.331 201.307 112.376 202.086 111.677C202.864 110.978 203.867 110.582 204.912 110.56L262.424 110.216C262.873 110.199 263.32 110.27 263.741 110.426C264.162 110.582 264.549 110.82 264.878 111.125C265.207 111.431 265.473 111.798 265.66 112.206C265.847 112.614 265.952 113.055 265.968 113.504C265.984 113.693 265.984 113.883 265.968 114.072L263.152 140.512C263.018 141.548 262.516 142.502 261.738 143.2C260.96 143.897 259.957 144.292 258.912 144.312L235.168 144.568C231.224 149.173 225.829 152.296 219.872 153.424L218.584 153.6ZM227.2 143.784L227.016 144.32C226.032 147.16 222.784 150.648 221.112 152.32C226.427 151.027 231.191 148.074 234.712 143.888L234.832 143.744L258.944 143.48C259.796 143.463 260.614 143.141 261.249 142.573C261.884 142.005 262.296 141.229 262.408 140.384L265.224 113.944C265.236 113.798 265.236 113.65 265.224 113.504C265.211 113.159 265.13 112.821 264.985 112.507C264.841 112.194 264.636 111.912 264.383 111.678C264.129 111.444 263.832 111.263 263.508 111.143C263.185 111.024 262.841 110.97 262.496 110.984L204.976 111.328C204.123 111.347 203.306 111.671 202.67 112.24C202.035 112.809 201.624 113.587 201.512 114.432L198.704 140.832C198.696 140.979 198.696 141.125 198.704 141.272C198.735 141.968 199.04 142.624 199.553 143.096C200.065 143.568 200.744 143.818 201.44 143.792L227.2 143.784Z" fill="#004CFA"/>
<path d="M239 116.304H213.064V117.104H239V116.304Z" fill="#004CFA"/>
<path d="M219.664 123.216H205.456V124.016H219.664V123.216Z" fill="#004CFA"/>
<path d="M239.2 123.216H224.728V124.016H239.2V123.216Z" fill="#004CFA"/>
<path d="M240.76 130.136H204.656V130.936H240.76V130.136Z" fill="#004CFA"/>
<path d="M213.456 137.056H204.08V137.856H213.456V137.056Z" fill="#004CFA"/>
<path d="M247.527 137.409L247.622 136.854C247.96 134.95 248.392 133.432 248.917 132.3C249.454 131.169 250.108 130.255 250.879 129.558C251.65 128.862 252.542 128.231 253.555 127.665C254.315 127.229 255.005 126.778 255.626 126.31C256.248 125.842 256.767 125.325 257.185 124.759C257.604 124.183 257.874 123.541 257.996 122.833C258.124 122.082 258.055 121.424 257.788 120.858C257.521 120.292 257.104 119.857 256.538 119.552C255.983 119.248 255.336 119.095 254.596 119.095C253.879 119.095 253.173 119.253 252.478 119.569C251.785 119.873 251.182 120.33 250.669 120.94C250.158 121.538 249.809 122.284 249.623 123.176H242.866C243.295 121 244.133 119.204 245.381 117.79C246.63 116.364 248.143 115.303 249.918 114.607C251.696 113.899 253.584 113.546 255.582 113.546C257.78 113.546 259.661 113.905 261.227 114.623C262.795 115.33 263.943 116.359 264.672 117.708C265.401 119.057 265.602 120.684 265.275 122.588C265.056 123.862 264.647 124.993 264.046 125.983C263.458 126.963 262.718 127.833 261.825 128.595C260.935 129.346 259.918 130.026 258.776 130.635C257.816 131.147 257.006 131.68 256.348 132.235C255.701 132.79 255.176 133.432 254.775 134.161C254.385 134.89 254.093 135.788 253.899 136.854L253.803 137.409H247.527ZM249.012 147.856C247.908 147.856 247.029 147.475 246.376 146.713C245.736 145.941 245.514 145.016 245.71 143.938C245.882 142.872 246.42 141.958 247.323 141.196C248.238 140.434 249.248 140.054 250.352 140.054C251.401 140.054 252.257 140.434 252.921 141.196C253.585 141.958 253.831 142.872 253.659 143.938C253.525 144.656 253.219 145.315 252.74 145.913C252.275 146.501 251.714 146.974 251.056 147.333C250.4 147.682 249.718 147.856 249.012 147.856Z" fill="#004CFA"/>
</svg>
