<svg width="180" height="188" viewBox="0 0 180 188" fill="none" xmlns="http://www.w3.org/2000/svg">
<path d="M1.3212 71.2797L175.154 70.0287L179.997 187.998L0.00268555 186.33L1.3212 71.2797Z" fill="#004EFF"/>
<path d="M1.32129 71.2795L89.5693 0L175.154 70.0285" fill="#004EFF"/>
<g opacity="0.3">
<path d="M1.32129 71.2795L89.5693 0L175.154 70.0285" fill="black"/>
</g>
<path d="M0.00261787 186.33C-0.219308 186.135 13.6967 170.967 31.0852 152.45C48.4738 133.933 62.7292 119.103 62.9511 119.312C63.173 119.52 49.257 134.675 31.8685 153.192C14.48 171.709 0.224543 186.539 0.00261787 186.33Z" fill="#263238"/>
<path d="M179.997 187.998C179.775 188.194 166.225 173.338 149.737 154.808C133.249 136.278 120.051 121.097 120.273 120.928C120.495 120.758 134.046 135.587 150.533 154.118C167.021 172.648 180.219 187.803 179.997 187.998Z" fill="#263238"/>
<g opacity="0.5">
<path d="M175.154 70.0287L87.8591 139.64L1.32129 71.2797" fill="black"/>
</g>
<path d="M87.8578 138.808L10.5794 78.2015L10.3221 28.4646L161.589 24.7619L163.224 79.2389L87.8578 138.808Z" fill="white" stroke="#004EFF"/>
<path d="M89.987 120.589C84.6458 120.603 79.362 119.488 74.4829 117.319C69.6038 115.149 65.2399 111.974 61.6778 108.001C58.1158 104.028 55.4362 99.3476 53.8153 94.2674C52.1943 89.1872 51.6686 83.8221 52.2727 78.5246C53.4032 68.5609 58.4525 59.4534 66.3099 53.2059C74.1674 46.9584 84.1893 44.0825 94.1709 45.2109C104.153 46.3393 113.276 51.3795 119.535 59.2229C125.794 67.0662 128.675 77.0701 127.545 87.0338C126.503 96.254 122.099 104.769 115.173 110.957C108.247 117.145 99.2822 120.574 89.987 120.589ZM89.8826 46.312C82.8314 46.3195 75.9328 48.3627 70.0186 52.1953C64.1044 56.0279 59.4269 61.4862 56.55 67.9122C53.6731 74.3383 52.7197 81.4578 53.8046 88.4126C54.8895 95.3673 57.9664 101.86 62.6645 107.109C67.3625 112.358 73.4812 116.138 80.2828 117.994C87.0844 119.85 94.2787 119.703 100.998 117.57C107.718 115.437 113.676 111.41 118.155 105.973C122.633 100.536 125.441 93.9229 126.239 86.9296C126.784 82.1649 126.383 77.3397 125.058 72.73C123.734 68.1203 121.512 63.8164 118.519 60.0646C115.527 56.3127 111.823 53.1865 107.619 50.8648C103.416 48.543 98.7948 47.0712 94.0208 46.5335C92.6481 46.356 91.2665 46.256 89.8826 46.2338V46.312Z" fill="#004EFF"/>
<path d="M64.1653 88.0245L70.4967 80.2841L85.3004 90.9565L109.36 62.6532L116.618 69.0254L85.6659 104.626L64.1653 88.0245Z" fill="#004EFF"/>
</svg>
