<svg width="321" height="320" viewBox="0 0 321 320" fill="none" xmlns="http://www.w3.org/2000/svg">
<path d="M59.4825 88.32C104.327 37.2928 181.319 28.8 215.643 45.1904C228.979 51.51 241.315 59.7537 252.257 69.6576C253.69 70.9376 255.084 72.2539 256.436 73.6064C260.659 77.7661 264.62 82.1842 268.295 86.8352C272.7 92.3989 276.673 98.2913 280.18 104.461C285.205 113.24 289.185 122.577 292.039 132.282C293.928 138.649 295.167 145.191 295.738 151.808C296.718 164.23 295.866 176.768 294.196 189.088C294.042 190.266 293.876 191.443 293.697 192.621C293.652 192.947 293.607 193.261 293.556 193.6C291.719 205.869 289.121 218.246 283.316 228.947C276.98 240.64 254.874 273.082 230.9 273.92C218.465 274.362 207.482 266.24 196.212 260.48C178.292 251.341 158.011 249.549 138.235 249.018C118.459 248.486 98.4393 249.056 79.1689 244.154C59.8985 239.251 41.0057 227.994 31.1561 209.28C27.8089 202.918 25.2681 193.754 25.2617 186.419C25.2617 164.781 28.7945 145.856 34.9641 129.414C36.9233 124.172 39.2082 119.057 41.8057 114.099C45.6103 106.83 50.0932 99.9364 55.1945 93.5104L59.4825 88.32Z" fill="#004EFF"/>
<g opacity="0.7">
<path d="M59.4825 88.32C104.327 37.2928 181.319 28.8 215.643 45.1904C228.979 51.51 241.315 59.7537 252.257 69.6576C253.69 70.9376 255.084 72.2539 256.436 73.6064C260.659 77.7661 264.62 82.1842 268.295 86.8352C272.7 92.3989 276.673 98.2913 280.18 104.461C285.205 113.24 289.185 122.577 292.039 132.282C293.928 138.649 295.167 145.191 295.738 151.808C296.718 164.23 295.866 176.768 294.196 189.088C294.042 190.266 293.876 191.443 293.697 192.621C293.652 192.947 293.607 193.261 293.556 193.6C291.719 205.869 289.121 218.246 283.316 228.947C276.98 240.64 254.874 273.082 230.9 273.92C218.465 274.362 207.482 266.24 196.212 260.48C178.292 251.341 158.011 249.549 138.235 249.018C118.459 248.486 98.4393 249.056 79.1689 244.154C59.8985 239.251 41.0057 227.994 31.1561 209.28C27.8089 202.918 25.2681 193.754 25.2617 186.419C25.2617 164.781 28.7945 145.856 34.9641 129.414C36.9233 124.172 39.2082 119.057 41.8057 114.099C45.6103 106.83 50.0932 99.9364 55.1945 93.5104L59.4825 88.32Z" fill="white"/>
</g>
<path d="M25.2617 273.178H300.494" stroke="#263238" stroke-linecap="round" stroke-linejoin="round"/>
<path d="M34.9641 192.621V129.382" stroke="#263238" stroke-linecap="round" stroke-linejoin="round"/>
<path d="M232.404 192.621H224.59" stroke="#263238" stroke-linecap="round" stroke-linejoin="round"/>
<path d="M293.684 192.621H277.767" stroke="#263238" stroke-linecap="round" stroke-linejoin="round"/>
<path d="M223.873 96.5504H252.078V69.6832" stroke="#263238" stroke-linecap="round" stroke-linejoin="round"/>
<path d="M59.4824 88.3456H89.4472V110.202H122.292" stroke="#263238" stroke-linecap="round" stroke-linejoin="round"/>
<path d="M41.8057 162.362V114.067" stroke="#263238" stroke-linecap="round" stroke-linejoin="round"/>
<path d="M55.1946 93.1072V130.957" stroke="#263238" stroke-linecap="round" stroke-linejoin="round"/>
<path d="M68.5769 93.1072V126.566" stroke="#263238" stroke-linecap="round" stroke-linejoin="round"/>
<path d="M81.9592 93.1072V151.635" stroke="#263238" stroke-linecap="round" stroke-linejoin="round"/>
<path d="M146.068 84.8064V46.3232H200.551V84.8064" stroke="#263238" stroke-linecap="round" stroke-linejoin="round"/>
<path d="M150.062 65.44V50.8928H160.135" stroke="#263238" stroke-linecap="round" stroke-linejoin="round"/>
<path d="M162.35 65.44V50.8928H172.423" stroke="#263238" stroke-linecap="round" stroke-linejoin="round"/>
<path d="M174.638 65.44V50.8928H184.711" stroke="#263238" stroke-linecap="round" stroke-linejoin="round"/>
<path d="M186.926 65.44V50.8928H196.999" stroke="#263238" stroke-linecap="round" stroke-linejoin="round"/>
<path d="M150.062 84.8064V70.2592H160.135" stroke="#263238" stroke-linecap="round" stroke-linejoin="round"/>
<path d="M162.35 84.8064V70.2592H172.423" stroke="#263238" stroke-linecap="round" stroke-linejoin="round"/>
<path d="M174.638 84.8064V70.2592H184.711" stroke="#263238" stroke-linecap="round" stroke-linejoin="round"/>
<path d="M186.926 84.8064V70.2592H196.999" stroke="#263238" stroke-linecap="round" stroke-linejoin="round"/>
<path d="M256.442 73.0112V121.235" stroke="#263238" stroke-linecap="round" stroke-linejoin="round"/>
<path d="M276.225 189.088H277.767" stroke="#263238" stroke-linecap="round" stroke-linejoin="round"/>
<path d="M268.302 86.8608V140.851" stroke="#263238" stroke-linecap="round" stroke-linejoin="round"/>
<path d="M280.167 175.302V189.088H289.633" stroke="#263238" stroke-linecap="round" stroke-linejoin="round"/>
<path d="M280.167 104.461V141.126" stroke="#263238" stroke-linecap="round" stroke-linejoin="round"/>
<path d="M292.027 132.282V189.088H294.183" stroke="#263238" stroke-linecap="round" stroke-linejoin="round"/>
<path d="M147.502 193.779H25.2617V273.178H147.502V193.779Z" fill="white" stroke="#263238" stroke-linecap="round" stroke-linejoin="round"/>
<path d="M25.2617 193.779L86.3817 233.478L147.502 193.779H25.2617Z" fill="white" stroke="#263238" stroke-linecap="round" stroke-linejoin="round"/>
<path d="M68.0073 221.542L25.2617 273.178" stroke="#263238" stroke-linecap="round" stroke-linejoin="round"/>
<path d="M105.089 221.542L147.834 273.178" stroke="#263238" stroke-linecap="round" stroke-linejoin="round"/>
<path d="M212.916 92.4672H184.5C183.682 92.4682 182.878 92.6883 182.174 93.1047C181.469 93.5212 180.889 94.1187 180.494 94.8352C179.795 96.0954 178.772 97.1458 177.531 97.8771C176.29 98.6085 174.875 98.9942 173.434 98.9942C171.994 98.9942 170.579 98.6085 169.338 97.8771C168.096 97.1458 167.074 96.0954 166.375 94.8352C165.983 94.1094 165.402 93.5032 164.693 93.0807C163.984 92.6582 163.175 92.4352 162.35 92.4352H133.966C133.187 92.425 132.413 92.5685 131.689 92.8573C130.966 93.1461 130.306 93.5746 129.748 94.1184C129.19 94.6622 128.744 95.3106 128.437 96.0266C128.129 96.7426 127.966 97.5121 127.956 98.2912V258.56C127.978 260.133 128.623 261.633 129.75 262.731C130.876 263.829 132.393 264.435 133.966 264.416H212.916C214.49 264.435 216.007 263.829 217.134 262.731C218.262 261.634 218.908 260.134 218.932 258.56V98.3232C218.91 96.7491 218.264 95.2481 217.136 94.15C216.008 93.052 214.49 92.4467 212.916 92.4672Z" fill="#004EFF"/>
<path d="M221.703 96.5503C221.707 95.4707 221.497 94.4011 221.086 93.4026C220.675 92.4042 220.071 91.4967 219.309 90.7321C218.547 89.9675 217.641 89.3609 216.644 88.9469C215.647 88.533 214.578 88.3199 213.498 88.3199H133.39C132.312 88.3191 131.246 88.5305 130.25 88.9422C129.255 89.3538 128.35 89.9576 127.588 90.7189C126.826 91.4803 126.222 92.3844 125.809 93.3795C125.397 94.3746 125.185 95.4412 125.185 96.5183V264.96C125.185 267.134 126.049 269.22 127.586 270.757C129.124 272.295 131.209 273.158 133.383 273.158H213.498C215.673 273.158 217.759 272.295 219.298 270.757C220.836 269.22 221.702 267.135 221.703 264.96V96.5503ZM218.932 258.56C218.908 260.134 218.262 261.634 217.134 262.731C216.007 263.829 214.49 264.435 212.916 264.416H133.966C132.393 264.435 130.876 263.829 129.75 262.731C128.623 261.633 127.978 260.133 127.956 258.56V98.3232C127.966 97.544 128.129 96.7745 128.437 96.0585C128.744 95.3426 129.19 94.6942 129.748 94.1504C130.306 93.6066 130.966 93.178 131.689 92.8892C132.413 92.6004 133.186 92.457 133.966 92.4671H162.362C163.187 92.4669 163.996 92.6899 164.703 93.1125C165.411 93.5351 165.991 94.1414 166.382 94.8671C167.08 96.1274 168.103 97.1777 169.344 97.9091C170.586 98.6404 172 99.0262 173.441 99.0262C174.882 99.0262 176.296 98.6404 177.537 97.9091C178.779 97.1777 179.802 96.1274 180.5 94.8671C180.894 94.1497 181.474 93.5515 182.179 93.1349C182.884 92.7183 183.688 92.4988 184.506 92.4991H212.922C213.702 92.489 214.475 92.6324 215.199 92.9212C215.922 93.21 216.582 93.6386 217.14 94.1824C217.698 94.7262 218.144 95.3746 218.451 96.0905C218.759 96.8065 218.922 97.576 218.932 98.3551V258.56Z" fill="#263238"/>
<path opacity="0.2" d="M194.484 88.3456L141.268 273.171L162.401 273.152L213.646 88.3456H194.484Z" fill="white"/>
<path opacity="0.2" d="M186.548 88.3456L130.286 273.178L133.364 273.158L188.57 88.3456H186.548Z" fill="white"/>
<path d="M187.796 225.747C187.835 227.579 187.507 229.4 186.832 231.104C186.157 232.807 185.147 234.358 183.863 235.666C182.579 236.973 181.046 238.01 179.355 238.716C177.664 239.422 175.849 239.782 174.017 239.776C170.278 239.762 166.693 238.287 164.026 235.666C161.36 233.045 159.823 229.485 159.745 225.747C159.706 223.916 160.035 222.095 160.71 220.392C161.386 218.69 162.396 217.139 163.68 215.833C164.964 214.526 166.496 213.489 168.187 212.784C169.877 212.078 171.692 211.718 173.524 211.725C177.262 211.737 180.848 213.211 183.514 215.831C186.181 218.451 187.717 222.01 187.796 225.747Z" fill="white" stroke="#263238" stroke-linecap="round" stroke-linejoin="round"/>
<path d="M169.172 236.217C167.869 235.736 166.675 235 165.658 234.054C164.633 233.07 163.84 231.869 163.335 230.541C162.76 229.051 162.475 227.465 162.497 225.869C162.489 224.507 162.729 223.156 163.207 221.881C163.641 220.704 164.293 219.619 165.127 218.681C166.772 216.882 168.897 215.59 171.252 214.957C172.408 214.645 173.6 214.488 174.798 214.49C175.792 214.485 176.783 214.603 177.748 214.841C178.679 215.07 179.571 215.439 180.391 215.936C181.204 216.424 181.932 217.04 182.548 217.76C183.19 218.536 183.681 219.426 183.994 220.384C184.353 221.476 184.53 222.62 184.519 223.77C184.506 225.991 183.705 228.136 182.26 229.824C181.638 230.528 180.903 231.123 180.084 231.584C179.378 231.989 178.581 232.209 177.767 232.224C177.205 232.231 176.656 232.054 176.206 231.718C175.979 231.551 175.795 231.333 175.667 231.082C175.539 230.831 175.472 230.554 175.47 230.272C175.05 230.91 174.473 231.431 173.796 231.783C173.118 232.136 172.361 232.31 171.598 232.288C170.997 232.315 170.398 232.207 169.844 231.972C169.29 231.737 168.796 231.382 168.398 230.931C167.599 230.002 167.176 228.808 167.214 227.584C167.219 226.576 167.394 225.577 167.732 224.627C168.068 223.67 168.545 222.769 169.146 221.952C169.746 221.149 170.509 220.484 171.386 220C172.263 219.505 173.253 219.247 174.26 219.251C174.96 219.244 175.65 219.411 176.27 219.737C176.871 220.058 177.358 220.556 177.665 221.165L177.793 220.736C177.895 220.436 178.112 220.188 178.396 220.048C178.681 219.907 179.009 219.885 179.31 219.987C179.426 220.027 179.536 220.083 179.636 220.153C179.731 220.23 179.807 220.327 179.857 220.439C179.907 220.55 179.93 220.672 179.924 220.793C179.924 220.913 179.905 221.032 179.866 221.145L177.793 228.045C177.61 228.57 177.492 229.116 177.441 229.67C177.422 229.774 177.428 229.88 177.46 229.98C177.492 230.081 177.548 230.171 177.623 230.245C177.699 230.318 177.791 230.372 177.892 230.401C177.993 230.43 178.099 230.434 178.202 230.413C178.936 230.366 179.624 230.038 180.122 229.497C180.814 228.814 181.345 227.985 181.678 227.072C182.075 226.074 182.279 225.01 182.279 223.936C182.288 222.99 182.149 222.049 181.87 221.145C181.634 220.367 181.261 219.636 180.769 218.989C180.302 218.399 179.737 217.895 179.098 217.497C178.462 217.096 177.766 216.796 177.038 216.608C176.29 216.411 175.52 216.312 174.746 216.313C173.766 216.315 172.79 216.453 171.847 216.723C170.876 216.998 169.951 217.414 169.102 217.958C168.245 218.499 167.469 219.158 166.798 219.917C166.106 220.716 165.568 221.636 165.21 222.63C164.808 223.713 164.607 224.861 164.615 226.016C164.594 227.384 164.842 228.743 165.345 230.016C165.778 231.118 166.462 232.104 167.342 232.896C168.192 233.634 169.173 234.205 170.234 234.579C171.354 234.975 172.534 235.174 173.722 235.168C174.992 235.168 176.254 234.976 177.466 234.598C177.587 234.555 177.715 234.533 177.844 234.534C177.964 234.532 178.083 234.556 178.193 234.603C178.304 234.651 178.403 234.721 178.484 234.81C178.566 234.895 178.63 234.995 178.673 235.105C178.715 235.214 178.736 235.332 178.734 235.45C178.749 235.636 178.696 235.821 178.586 235.972C178.475 236.122 178.314 236.228 178.132 236.269C176.621 236.731 175.052 236.972 173.473 236.986C172.005 236.984 170.549 236.724 169.172 236.217ZM174.458 229.581C175.091 229.126 175.56 228.48 175.796 227.737L177.134 223.033L177.044 222.841C176.961 222.687 176.86 222.543 176.743 222.413C176.583 222.228 176.407 222.056 176.218 221.901C175.979 221.709 175.708 221.56 175.418 221.459C174.661 221.195 173.832 221.224 173.095 221.542C172.692 221.713 172.321 221.954 172.001 222.253C171.668 222.563 171.371 222.911 171.118 223.29C170.863 223.683 170.649 224.101 170.478 224.537C170.298 224.974 170.158 225.426 170.062 225.888C169.965 226.327 169.915 226.776 169.914 227.225C169.909 227.514 169.926 227.803 169.966 228.09C169.995 228.344 170.051 228.595 170.132 228.838C170.202 229.065 170.303 229.28 170.433 229.478C170.549 229.657 170.696 229.813 170.868 229.939C171.051 230.072 171.257 230.169 171.476 230.227C171.731 230.302 171.997 230.337 172.263 230.33C173.064 230.339 173.845 230.083 174.484 229.6L174.458 229.581Z" fill="#004EFF" stroke="#263238" stroke-linecap="round" stroke-linejoin="round"/>
<path d="M187.482 177.664C187.521 179.495 187.193 181.316 186.517 183.019C185.841 184.721 184.831 186.272 183.547 187.578C182.263 188.885 180.731 189.922 179.04 190.627C177.35 191.333 175.535 191.693 173.703 191.686C169.965 191.674 166.38 190.2 163.713 187.58C161.046 184.96 159.51 181.401 159.431 177.664C159.391 175.832 159.718 174.01 160.393 172.306C161.068 170.602 162.078 169.051 163.362 167.743C164.646 166.436 166.179 165.399 167.871 164.693C169.562 163.988 171.378 163.628 173.21 163.635C176.949 163.649 180.535 165.124 183.201 167.745C185.868 170.366 187.404 173.926 187.482 177.664Z" fill="white" stroke="#263238" stroke-linecap="round" stroke-linejoin="round"/>
<path d="M182.26 176.384C177.863 173.504 169.242 173.504 165.05 176.384C164.284 176.528 163.594 176.942 163.108 177.552C162.622 178.162 162.371 178.926 162.401 179.706C162.465 181.568 170.202 181.568 170.138 179.706C170.101 178.927 169.803 178.183 169.294 177.594C172.196 176.966 175.198 176.966 178.1 177.594C177.628 178.194 177.383 178.942 177.409 179.706C177.473 181.568 185.21 181.568 185.14 179.706C185.104 178.909 184.8 178.147 184.277 177.545C183.754 176.942 183.044 176.533 182.26 176.384Z" fill="#004EFF" stroke="#263238" stroke-linecap="round" stroke-linejoin="round"/>
<path d="M187.482 130.957C187.559 134.406 185.678 137.491 182.657 139.546V147.923L176.647 141.907C175.675 142.081 174.69 142.167 173.703 142.163C165.959 142.163 159.566 137.146 159.431 130.957C159.297 124.768 165.46 119.757 173.21 119.757C180.961 119.757 187.38 124.8 187.482 130.957Z" fill="white" stroke="#263238" stroke-linecap="round" stroke-linejoin="round"/>
<path d="M167.482 130.957C167.484 131.316 167.378 131.669 167.179 131.968C166.98 132.268 166.697 132.502 166.365 132.641C166.033 132.779 165.667 132.816 165.314 132.747C164.961 132.677 164.637 132.505 164.382 132.251C164.127 131.997 163.953 131.673 163.883 131.32C163.812 130.967 163.848 130.602 163.985 130.269C164.122 129.937 164.355 129.652 164.654 129.452C164.953 129.252 165.305 129.146 165.665 129.146C166.146 129.146 166.607 129.336 166.948 129.676C167.288 130.015 167.481 130.476 167.482 130.957Z" fill="#004EFF" stroke="#263238" stroke-linecap="round" stroke-linejoin="round"/>
<path d="M175.258 130.957C175.26 131.316 175.154 131.669 174.955 131.968C174.756 132.268 174.473 132.502 174.141 132.641C173.809 132.779 173.443 132.816 173.09 132.747C172.737 132.677 172.413 132.505 172.158 132.251C171.903 131.997 171.729 131.673 171.659 131.32C171.588 130.967 171.624 130.602 171.761 130.269C171.898 129.937 172.131 129.652 172.43 129.452C172.729 129.252 173.081 129.146 173.441 129.146C173.922 129.146 174.383 129.336 174.724 129.676C175.065 130.015 175.257 130.476 175.258 130.957Z" fill="#004EFF" stroke="#263238" stroke-linecap="round" stroke-linejoin="round"/>
<path d="M183.034 130.957C183.036 131.316 182.93 131.669 182.731 131.968C182.532 132.268 182.249 132.502 181.917 132.641C181.585 132.779 181.219 132.816 180.866 132.747C180.513 132.677 180.189 132.505 179.934 132.251C179.679 131.997 179.505 131.673 179.435 131.32C179.364 130.967 179.4 130.602 179.537 130.269C179.674 129.937 179.907 129.652 180.206 129.452C180.505 129.252 180.857 129.146 181.217 129.146C181.698 129.146 182.159 129.336 182.5 129.676C182.84 130.015 183.033 130.476 183.034 130.957Z" fill="#004EFF" stroke="#263238" stroke-linecap="round" stroke-linejoin="round"/>
<path d="M95.0921 156.499C94.8649 156.922 94.5374 157.282 94.1385 157.549C91.1859 159.904 88.1651 162.163 85.0761 164.326C83.9433 165.12 82.7657 165.939 81.6713 166.829C75.0921 171.232 79.1113 172.307 75.0921 181.626C74.1449 183.853 74.3177 194.765 74.3177 194.765H73.9913C73.2209 194.005 72.4021 193.295 71.5401 192.64C71.421 192.56 71.297 192.487 71.1689 192.422C71.0486 192.361 70.9188 192.319 70.7849 192.301C70.1449 192.262 67.7065 192.557 65.2425 192.397L64.6025 192.346C64.2441 192.307 63.8921 192.262 63.5401 192.198C63.1881 192.134 62.8489 192.064 62.5225 191.974C60.1841 191.225 57.8912 190.34 55.6553 189.325L54.5417 188.845L53.9913 188.608L53.4921 188.39L53.1337 188.237L52.7881 188.09C52.2057 187.846 51.6617 187.622 51.1625 187.45C50.9336 187.368 50.7008 187.297 50.4649 187.238C50.4649 187.763 50.3817 188.301 50.3113 188.826C50.0041 191.328 49.3193 193.638 48.0969 193.946C48.0717 193.952 48.0452 193.952 48.0201 193.946C47.9124 193.966 47.8032 193.977 47.6937 193.978H47.5977C47.3269 193.972 47.0588 193.922 46.8041 193.83C45.6947 193.357 44.788 192.507 44.2441 191.43C44.001 190.977 43.8652 190.473 43.8473 189.958C43.8473 188.096 43.3289 177.107 43.3289 173.907C43.3289 170.707 43.9689 165.107 45.5625 163.027C46.1852 162.145 46.9718 161.391 47.8793 160.806C49.0469 159.833 50.3862 159.086 51.8281 158.605C53.5305 158.048 57.3385 156.627 59.9945 155.622L55.9817 157.171C56.9993 158.912 59.1817 161.651 63.1177 162.003C66.8169 162.317 69.1081 158.97 70.2793 156.525C70.3817 156.563 76.8201 155.341 78.3113 155.411C83.1689 155.622 87.1305 152.992 88.9225 151.949C89.463 151.626 90.0695 151.429 90.6967 151.374C91.324 151.318 91.9556 151.405 92.5446 151.628C93.1335 151.85 93.6645 152.203 94.0979 152.66C94.5312 153.117 94.8558 153.666 95.0473 154.266V154.323C95.3272 155.019 95.3432 155.793 95.0921 156.499Z" fill="#004EFF" stroke="#263238" stroke-linecap="round" stroke-linejoin="round"/>
<path d="M70.209 156.563L69.9146 156.461" stroke="#263238" stroke-linecap="round" stroke-linejoin="round"/>
<path d="M75.6681 197.581C75.6712 197.606 75.6712 197.632 75.6681 197.658C75.6421 197.719 75.6026 197.775 75.5524 197.819C75.5022 197.864 75.4427 197.896 75.3782 197.915C75.3137 197.933 75.2459 197.937 75.1797 197.926C75.1136 197.914 75.0509 197.888 74.9961 197.85C74.7017 197.683 74.2473 196.614 74.2473 196.614L73.7417 196.09L73.4089 195.738C73.4601 195.866 73.8633 196.845 73.6521 197.299C73.6414 197.33 73.6239 197.359 73.6009 197.382C73.4595 197.571 73.276 197.725 73.0649 197.83C72.8538 197.936 72.6209 197.991 72.3849 197.99C72.1097 197.99 71.3033 198.086 70.5993 198.131H70.5225C70.3094 198.143 70.0957 198.143 69.8825 198.131C69.3143 198.058 68.7661 197.873 68.2697 197.587C67.1438 197.422 66.0346 197.158 64.9545 196.8L64.7625 196.698L64.5897 196.595C64.4761 196.527 64.3709 196.445 64.2761 196.352C63.8861 196.027 63.5549 195.637 63.2969 195.2C63.2969 195.2 60.6985 195.091 57.2105 194.822C55.9305 194.726 54.5481 194.605 53.1145 194.464C50.9129 194.24 49.0953 194.253 47.6681 194.054H47.5657C47.2841 194.016 47.0217 193.965 46.7721 193.907C46.163 193.788 45.5998 193.5 45.147 193.075C44.6942 192.651 44.3702 192.107 44.2121 191.507C44.1283 191.223 44.06 190.935 44.0073 190.643L45.1209 188.723C45.7013 188.258 46.3486 187.882 47.0409 187.61C48.115 187.16 49.3011 187.051 50.4393 187.296C50.6753 187.355 50.9081 187.425 51.1369 187.507C51.6361 187.699 52.1801 187.923 52.7625 188.147L53.1145 188.294L53.4729 188.448L53.9721 188.666C56.8201 189.843 60.2185 191.36 62.4905 192C63.1729 192.179 63.8684 192.303 64.5705 192.371L65.2105 192.422C67.6745 192.582 70.1065 192.288 70.7529 192.326C71.3993 192.365 72.9801 193.869 73.9913 194.797C74.2665 195.053 74.5097 195.264 74.6761 195.392L74.7529 195.456L74.8105 195.507C75.1771 195.883 75.4338 196.353 75.5529 196.864C75.6033 197.035 75.6376 197.211 75.6553 197.389C75.6669 197.452 75.6712 197.517 75.6681 197.581Z" fill="white" stroke="#263238" stroke-linecap="round" stroke-linejoin="round"/>
<path d="M75.668 197.581C75.6711 197.606 75.6711 197.632 75.668 197.658C75.6414 197.719 75.6014 197.773 75.5509 197.817C75.5004 197.861 75.4408 197.893 75.3764 197.911C75.3119 197.929 75.2443 197.932 75.1785 197.92C75.1127 197.908 75.0503 197.882 74.996 197.843C74.6796 197.476 74.4265 197.058 74.2472 196.608L73.7416 196.09L73.4088 195.744C73.4536 195.846 73.8696 196.845 73.6584 197.306C73.6477 197.337 73.6302 197.365 73.6072 197.389C73.5363 197.483 73.4547 197.569 73.364 197.645C73.0881 197.867 72.7452 197.988 72.3912 197.99C72.1096 197.99 71.3096 198.08 70.612 198.131H70.5224C70.3093 198.143 70.0956 198.143 69.8824 198.131C69.3176 198.056 68.7724 197.873 68.276 197.594C67.1502 197.425 66.041 197.159 64.9608 196.8L64.7752 196.71L64.6024 196.608C64.4918 196.535 64.3869 196.454 64.2888 196.365C63.8931 196.037 63.5574 195.643 63.2968 195.2C63.2968 195.2 60.7752 195.091 57.3576 194.829C56.0776 194.733 54.5992 194.605 53.1144 194.458C51.092 194.259 49.4216 194.202 48.0712 193.99L47.6552 193.914L47.1752 193.805C47.0646 193.021 47.1458 192.221 47.412 191.475C47.6601 190.846 48.0448 190.279 48.5385 189.817C49.0321 189.354 49.6223 189.007 50.2664 188.8C51.0658 188.506 51.8849 188.269 52.7176 188.09L53.0632 188.237L53.4216 188.39L53.9208 188.608C56.82 189.856 60.18 191.366 62.4584 191.987C63.1403 192.167 63.8361 192.289 64.5384 192.352L65.1784 192.403C67.6424 192.57 70.0744 192.275 70.7208 192.314C71.3672 192.352 72.9416 193.85 73.9208 194.778C74.143 194.99 74.3758 195.191 74.6184 195.379L74.6952 195.437L74.7528 195.488C75.1264 195.859 75.3843 196.33 75.4952 196.845C75.5456 197.016 75.5799 197.192 75.5976 197.37C75.6304 197.437 75.654 197.508 75.668 197.581Z" fill="white" stroke="#263238" stroke-linecap="round" stroke-linejoin="round"/>
<path d="M68.0073 195.878C68.0073 195.878 69.4601 196.634 70.0361 196.896C70.6121 197.158 70.5609 198.214 70.5609 198.214" fill="white"/>
<path d="M68.0073 195.878C68.0073 195.878 69.4601 196.634 70.0361 196.896C70.6121 197.158 70.5609 198.214 70.5609 198.214" stroke="#263238" stroke-linecap="round" stroke-linejoin="round"/>
<path d="M69.5625 194.854C70.4765 195.507 71.3565 196.205 72.1993 196.947C72.3224 197.092 72.4027 197.268 72.4309 197.456C72.4592 197.643 72.4344 197.835 72.3593 198.01" fill="white"/>
<path d="M69.5625 194.854C70.4765 195.507 71.3565 196.205 72.1993 196.947C72.3224 197.092 72.4027 197.268 72.4309 197.456C72.4592 197.643 72.4344 197.835 72.3593 198.01" stroke="#263238" stroke-linecap="round" stroke-linejoin="round"/>
<path d="M73.3897 195.731C72.6325 194.92 71.8313 194.151 70.9897 193.427L73.3897 195.731Z" fill="white"/>
<path d="M73.3897 195.731C72.6325 194.92 71.8313 194.151 70.9897 193.427" stroke="#263238" stroke-linecap="round" stroke-linejoin="round"/>
<path d="M70.2026 156.576C69.0442 159.014 66.7466 162.336 63.0474 162.048C59.1306 161.715 56.929 158.957 55.9114 157.21C57.3194 156.672 58.7466 156.122 59.9178 155.661C59.9178 154.47 59.8794 153.043 59.7514 151.629C59.7514 151.322 59.6874 150.989 59.6554 150.701C59.6234 150.413 59.585 150.208 59.5466 149.971H66.9898C66.9898 149.971 66.945 150.266 66.8874 150.758C66.8426 151.2 66.785 151.789 66.7402 152.454C66.6826 153.338 66.6442 154.374 66.6698 155.354C67.0282 155.475 67.393 155.61 67.7578 155.75L68.4618 155.994C68.7434 156.096 69.0186 156.186 69.313 156.282L69.953 156.474C70.0382 156.502 70.1216 156.537 70.2026 156.576Z" fill="white" stroke="#263238" stroke-linecap="round" stroke-linejoin="round"/>
<path d="M59.6553 150.675C59.6553 150.675 61.0441 154.285 63.0601 154.899C65.0761 155.514 66.9001 150.758 66.9001 150.758C66.9001 150.758 64.0585 153.792 63.0025 153.318C61.9465 152.845 59.6681 150.701 59.6681 150.701" fill="#263238"/>
<path d="M58.4584 130.739C56.5776 132.432 55.0862 134.513 54.0872 136.838C53.172 138.758 52.3976 140.966 53.1016 142.976C53.5229 143.974 54.1189 144.888 54.8616 145.677C56.244 147.334 58.1832 151.962 59.5656 153.619C59.6552 150.669 57.1848 145.901 57.4472 143.424C57.765 141.511 58.3942 139.662 59.3096 137.952C60.2406 135.709 61.4582 133.597 62.932 131.667C63.7704 130.656 66.4648 128.858 63.7448 128.64C61.94 128.493 59.8216 129.619 58.4584 130.739Z" fill="#263238" stroke="#263238" stroke-linecap="round" stroke-linejoin="round"/>
<path d="M56.7176 140.8C56.7176 140.8 55.764 138.95 54.7592 140.704C54.036 141.984 55.0792 144 55.5272 144.749C55.6759 144.962 55.8772 145.133 56.1116 145.245C56.3461 145.357 56.6055 145.407 56.8648 145.389L56.7176 140.8Z" fill="white" stroke="#263238" stroke-linecap="round" stroke-linejoin="round"/>
<path d="M69.2489 147.482C68.6374 148.69 67.8405 149.796 66.8873 150.758L66.3113 151.354C65.1209 152.531 63.8345 153.466 62.9897 153.274C62.2537 153.126 61.2937 152.371 60.3529 151.405C60.1161 151.168 59.8857 150.912 59.6553 150.656C58.631 149.535 57.7515 148.29 57.0377 146.95C56.8394 146.448 56.7123 145.92 56.6601 145.382C56.4986 143.779 56.443 142.167 56.4937 140.557C56.4937 139.987 56.4937 139.533 56.4937 139.277C56.4937 138.163 60.6665 134.291 60.6665 134.291C60.779 134.25 60.8998 134.237 61.0185 134.253C61.7362 134.383 62.4279 134.63 63.0665 134.982C65.5945 136.211 69.1209 138.65 69.3769 139.578C69.7673 140.928 69.6201 146.278 69.2489 147.482Z" fill="white" stroke="#263238" stroke-linecap="round" stroke-linejoin="round"/>
<path d="M60.9608 142.349C60.9608 142.797 60.7943 143.162 60.6087 143.162C60.4232 143.162 60.2375 142.81 60.2375 142.349C60.2375 141.888 60.404 141.523 60.6087 141.523C60.8135 141.523 60.9608 141.901 60.9608 142.349Z" fill="#263238"/>
<path d="M65.7289 141.53C65.9337 141.53 66.1001 141.894 66.1001 142.349C66.1001 142.803 65.9337 143.162 65.7289 143.162C65.5241 143.162 65.3577 142.797 65.3577 142.349C65.3577 141.901 65.5241 141.53 65.7289 141.53Z" fill="#263238"/>
<path d="M58.5801 140.333C58.5801 140.333 59.2201 139.053 61.4857 139.443" stroke="#263238" stroke-linecap="round" stroke-linejoin="round"/>
<path d="M67.8346 140.333C67.8346 140.333 67.1946 139.053 64.929 139.443" stroke="#263238" stroke-linecap="round" stroke-linejoin="round"/>
<path d="M63.6426 145.478C63.8728 145.464 64.0922 145.376 64.2685 145.227C64.4448 145.079 64.5687 144.877 64.6218 144.653C64.6218 144.653 63.3802 142.733 63.7578 140.851" stroke="#263238" stroke-linecap="round" stroke-linejoin="round"/>
<path d="M55.9113 136.32C55.3956 137.02 55.0058 137.804 54.7593 138.637" stroke="white" stroke-linecap="round" stroke-linejoin="round"/>
<path d="M61.2617 131.2C61.2617 131.2 60.5513 132.378 57.4217 134.778C57.22 134.923 57.0276 135.082 56.8457 135.251" stroke="white" stroke-linecap="round" stroke-linejoin="round"/>
<path d="M51.2265 168.723C50.7999 174.808 50.3732 180.896 49.9465 186.989V186.522" fill="#263238"/>
<path d="M51.2265 168.723C50.7999 174.808 50.3732 180.896 49.9465 186.989V186.522" stroke="#263238" stroke-linecap="round" stroke-linejoin="round"/>
<path d="M91.6553 148.634C92.2338 148.408 92.8589 148.327 93.4759 148.398C94.0929 148.47 94.683 148.691 95.1945 149.043C96.2152 149.766 96.9581 150.816 97.3001 152.019C97.7081 153.217 97.6672 154.523 97.1849 155.693C96.9354 156.27 96.5339 156.768 96.0233 157.134C95.5127 157.501 94.9121 157.721 94.2857 157.773C93.3522 157.761 92.4501 157.434 91.7257 156.845C89.3321 155.053 88.1353 150.15 91.6553 148.634Z" fill="white" stroke="#263238" stroke-linecap="round" stroke-linejoin="round"/>
<path d="M96.9544 128.198C96.9544 128.275 96.9544 128.781 96.9992 128.87C97.2232 129.856 97.6968 132.32 96.5 132.819C96.9544 134.438 98.068 145.018 97.9208 150.413C97.8824 152.026 97.6008 153.939 96.1544 154.63C93.716 155.789 91.3992 152.966 91.6744 150.758C92.1032 147.744 91.956 144.672 92.3144 141.626C92.7048 138.464 93.4216 135.226 92.6344 132.134C92.4424 131.923 91.2136 129.485 90.8104 128.813C90.6295 128.526 90.4875 128.216 90.388 127.891C90.2305 126.787 90.1535 125.672 90.1576 124.557C90.5224 123.866 90.996 124.506 91.2456 124.96C91.4492 125.514 91.5194 126.108 91.4504 126.694C91.4268 126.838 91.4468 126.985 91.508 127.117C91.5617 127.192 91.6344 127.252 91.7187 127.29C91.803 127.328 91.8959 127.344 91.988 127.334C92.7752 127.219 92.7432 126.56 92.7304 126.054C92.7304 124.358 92.7304 122.662 92.7304 120.979C92.7304 120.698 92.82 119.936 93.0888 119.91C93.3576 119.885 93.7608 120.102 93.7992 121.005C93.844 122.022 93.844 125.158 93.844 125.158C93.8694 125.184 93.901 125.203 93.9357 125.213C93.9704 125.223 94.0072 125.224 94.0424 125.216C94.1064 125.216 94.132 125.101 94.1576 125.037C94.5352 123.462 94.9192 121.888 95.2968 120.314C95.3416 120.128 95.6168 119.744 95.8152 119.744C96.2888 119.744 96.3016 120.294 96.3272 120.454C96.4936 121.299 95.3096 124.781 95.1112 125.574C95.1112 125.715 95.1112 125.926 95.2584 125.888L97.1144 122.144C97.2004 121.925 97.3359 121.729 97.5102 121.572C97.6845 121.414 97.893 121.299 98.1192 121.235C98.1505 121.225 98.184 121.225 98.2152 121.235C98.2486 121.255 98.2754 121.284 98.292 121.318C98.4712 121.638 98.292 122.08 98.1896 122.432C98.0872 122.784 96.6984 125.37 96.2056 126.413C96.1352 126.56 96.02 126.893 96.1608 127.053C96.3016 127.213 96.5576 126.906 96.66 126.694C96.9736 126.054 97.268 125.453 97.556 124.826C97.6456 124.64 97.78 124.378 97.9912 124.422C99.2392 124.691 97.4664 127.309 96.9544 128.198Z" fill="white" stroke="#263238" stroke-linecap="round" stroke-linejoin="round"/>
<path d="M93.5112 127.648C94.1555 128.158 94.715 128.768 95.1688 129.453C95.3926 129.797 95.5423 130.185 95.6084 130.59C95.6745 130.996 95.6556 131.41 95.5528 131.808C95.5218 131.912 95.481 132.013 95.4312 132.109" fill="white"/>
<path d="M93.5112 127.648C94.1555 128.158 94.715 128.768 95.1688 129.453C95.3926 129.797 95.5423 130.185 95.6084 130.59C95.6745 130.996 95.6556 131.41 95.5528 131.808C95.5218 131.912 95.481 132.013 95.4312 132.109" stroke="#263238" stroke-linecap="round" stroke-linejoin="round"/>
<path d="M75.4824 167.629C76.1597 168.994 76.6155 170.459 76.8328 171.968C77.0184 173.478 77.076 174.662 76.0456 178.906" stroke="#263238" stroke-linecap="round" stroke-linejoin="round"/>
<path d="M61.0376 133.331C60.95 133.593 60.928 133.872 60.9736 134.144C61.095 134.486 61.3184 134.784 61.6136 134.995C63.6592 136.788 65.9473 138.283 68.4104 139.437C68.7193 139.517 68.9871 139.71 69.1611 139.978C69.3352 140.245 69.403 140.568 69.3512 140.883V145.83C69.3827 146.341 69.333 146.853 69.204 147.347C68.8456 148.499 68.052 149.427 67.476 150.49C66.8904 151.497 66.5937 152.646 66.6184 153.811C66.4584 152.589 70.7336 150.221 71.892 145.408C72.052 144.73 75.38 140.691 73.3832 135.949C71.4632 131.398 68.4424 129.44 67.4248 129.203C66.7341 129.001 66.0052 128.967 65.2984 129.103C64.5917 129.238 63.9275 129.541 63.3608 129.984C62.2424 130.817 61.4267 131.992 61.0376 133.331Z" fill="#263238" stroke="#263238" stroke-linecap="round" stroke-linejoin="round"/>
<path d="M65.2297 147.2C64.8649 147.277 64.4937 147.347 64.1225 147.392C62.8425 147.552 61.4729 147.354 60.6345 146.419C60.6985 147.258 61.2745 150.426 62.9961 150.515C64.7177 150.605 65.2297 147.2 65.2297 147.2Z" stroke="#263238" stroke-linecap="round" stroke-linejoin="round"/>
<path d="M63.5657 131.398C64.3039 133.074 65.48 134.52 66.9705 135.584C68.0521 136.358 69.2873 136.915 70.2793 137.798C71.5593 138.97 72.3977 140.826 71.9049 142.509" stroke="white" stroke-linecap="round" stroke-linejoin="round"/>
<path d="M76.9418 157.254C75.7088 158.244 74.8968 159.664 74.6698 161.229C74.4491 162.581 74.6155 163.967 75.1498 165.229" stroke="#263238" stroke-linecap="round" stroke-linejoin="round"/>
<path d="M53.1016 167.814C52.9992 169.491 51.956 170.944 50.9448 172.294L53.1016 167.814Z" fill="#263238"/>
<path d="M53.1016 167.814C52.9992 169.491 51.956 170.944 50.9448 172.294" stroke="#263238" stroke-linecap="round" stroke-linejoin="round"/>
<path d="M50.6057 180.634C51.114 181.485 51.7944 182.22 52.6033 182.793C53.4122 183.366 54.3318 183.764 55.3033 183.962" stroke="#263238" stroke-linecap="round" stroke-linejoin="round"/>
<path d="M75.092 181.632C75.092 181.632 73.3704 184.192 67.5208 184.73" stroke="#263238" stroke-linecap="round" stroke-linejoin="round"/>
<path d="M246.452 159.2C246.452 159.2 224.148 166.112 219.95 160.653L220.519 132.806H223.905L227.886 152.422L246.164 149.075C246.164 149.075 248.506 156.333 246.452 159.2Z" fill="white"/>
<mask id="mask0_848_10442" style="mask-type:luminance" maskUnits="userSpaceOnUse" x="219" y="132" width="29" height="31">
<path d="M246.452 159.2C246.452 159.2 224.148 166.112 219.95 160.653L220.519 132.806H223.905L227.886 152.422L246.164 149.075C246.164 149.075 248.506 156.333 246.452 159.2Z" fill="white"/>
</mask>
<g mask="url(#mask0_848_10442)">
<path d="M237.057 160.173C235.778 160.681 234.557 161.325 233.415 162.093C234.926 162.573 236.538 161.965 238.049 161.485C240.044 160.872 242.077 160.393 244.135 160.051C244.231 159.482 243.495 158.182 243.207 157.677C242.682 156.794 242.567 156.717 241.684 157.152C240.078 157.958 238.708 159.36 237.057 160.173Z" fill="#004EFF"/>
</g>
<path d="M246.452 159.2C246.452 159.2 224.148 166.112 219.95 160.653L220.519 132.806H223.905L227.886 152.422L246.164 149.075C246.164 149.075 248.506 156.333 246.452 159.2Z" stroke="#263238" stroke-linecap="round" stroke-linejoin="round"/>
<path d="M244.263 159.93L248.18 184.045C248.078 199.674 255.534 197.325 260.711 197.28C266.695 197.229 275.777 191.296 271.323 182.061L273.038 148.634L262.612 147.84C259.175 147.571 245.095 148.013 243.975 149.811C241.07 154.477 244.263 159.93 244.263 159.93Z" fill="white"/>
<mask id="mask1_848_10442" style="mask-type:luminance" maskUnits="userSpaceOnUse" x="242" y="147" width="32" height="51">
<path d="M244.263 159.93L248.18 184.045C248.078 199.674 255.534 197.325 260.711 197.28C266.695 197.229 275.777 191.296 271.323 182.061L273.038 148.634L262.612 147.84C259.175 147.571 245.095 148.013 243.975 149.811C241.07 154.477 244.263 159.93 244.263 159.93Z" fill="white"/>
</mask>
<g mask="url(#mask1_848_10442)">
<path d="M244.878 161.92C247.204 170.72 252.783 178.309 260.487 183.155C259.653 183.023 258.839 182.789 258.062 182.458C257.28 182.121 256.405 182.073 255.591 182.323C255.395 182.394 255.215 182.503 255.06 182.643C254.906 182.784 254.781 182.954 254.692 183.143C254.604 183.332 254.553 183.537 254.544 183.745C254.535 183.954 254.567 184.162 254.638 184.358C254.825 184.658 255.079 184.91 255.38 185.094C256.651 185.988 258.04 186.698 259.508 187.206C258.221 187.074 256.92 187.174 255.668 187.501C255.438 188.614 256.679 189.421 257.659 189.965C259.221 190.886 260.559 192.143 261.575 193.645C258.139 193.652 254.705 193.849 251.291 194.234C250.84 194.334 250.37 194.29 249.947 194.106C249.504 193.776 249.205 193.287 249.115 192.742C248.354 190.08 247.911 187.336 247.796 184.57C247.732 183.014 247.796 181.446 247.591 179.904C247.426 178.688 247.2 177.481 246.913 176.288C245.919 171.671 245.157 167.019 244.628 162.33C244.391 162.349 244.878 161.92 244.878 161.92Z" fill="#004EFF"/>
<path d="M271.316 160C270.453 159.723 269.648 159.289 268.942 158.72C269.14 159.68 270.574 161.338 271.412 161.85C271.585 161.958 271.835 162.048 271.988 161.901C272.142 161.754 272.244 161.376 272.398 161.261L271.316 160Z" fill="#004EFF"/>
</g>
<path d="M244.263 159.93L248.18 184.045C248.078 199.674 255.534 197.325 260.711 197.28C266.695 197.229 275.777 191.296 271.323 182.061L273.038 148.634L262.612 147.84C259.175 147.571 245.095 148.013 243.975 149.811C241.07 154.477 244.263 159.93 244.263 159.93Z" stroke="#263238" stroke-linecap="round" stroke-linejoin="round"/>
<path d="M251.886 147.347C250.764 149.401 250.224 151.723 250.324 154.061C250.323 154.265 250.362 154.467 250.439 154.656C250.727 155.226 251.514 155.226 252.148 155.296C254.612 155.61 256.142 158.208 258.465 159.078C258.546 159.129 258.637 159.162 258.732 159.176C258.826 159.191 258.923 159.186 259.015 159.162C259.108 159.138 259.195 159.095 259.271 159.037C259.347 158.979 259.41 158.906 259.457 158.822C260.468 157.542 260.826 155.744 262.209 154.918C262.81 154.56 263.572 154.413 263.988 153.85C264.462 153.21 264.25 152.288 264.02 151.507C263.642 150.227 263.22 148.896 262.241 148.006C261.198 147.192 259.916 146.743 258.593 146.726C256.656 146.568 254.707 146.75 252.833 147.264C252.858 147.507 251.886 147.347 251.886 147.347Z" fill="#004EFF" stroke="#263238" stroke-linecap="round" stroke-linejoin="round"/>
<path d="M282.862 163.712C281.297 161.434 280.145 158.9 279.457 156.224C279.206 154.883 278.816 153.573 278.292 152.314C277.798 151.341 277.085 150.496 276.208 149.847C275.332 149.197 274.317 148.76 273.243 148.57C272.784 148.469 272.307 148.491 271.86 148.634C270.932 148.986 270.523 150.054 270.337 151.027C269.935 153.117 270.054 155.273 270.683 157.306C271.111 158.688 276.263 168.71 279.643 172.595C279.348 170.637 281.601 164.09 282.862 163.712Z" fill="white"/>
<mask id="mask2_848_10442" style="mask-type:luminance" maskUnits="userSpaceOnUse" x="270" y="148" width="13" height="25">
<path d="M282.862 163.712C281.297 161.434 280.145 158.9 279.457 156.224C279.206 154.883 278.816 153.573 278.292 152.314C277.798 151.341 277.085 150.496 276.208 149.847C275.332 149.197 274.317 148.76 273.243 148.57C272.784 148.469 272.307 148.491 271.86 148.634C270.932 148.986 270.523 150.054 270.337 151.027C269.935 153.117 270.054 155.273 270.683 157.306C271.111 158.688 276.263 168.71 279.643 172.595C279.348 170.637 281.601 164.09 282.862 163.712Z" fill="white"/>
</mask>
<g mask="url(#mask2_848_10442)">
<path d="M272.756 161.747L275.918 167.706C276.372 168.557 276.884 169.466 277.767 169.837C277.212 167.868 276.896 165.84 276.827 163.795C276.861 162.768 276.743 161.741 276.475 160.749C276.347 160.858 276.212 160.397 276.212 160.397C276.071 160.659 275.7 160.666 275.412 160.608C273.345 160.173 271.924 158.33 270.695 156.614C270.536 157.189 270.51 157.793 270.621 158.379C270.732 158.965 270.976 159.517 271.335 159.994C271.335 159.994 272.654 161.549 272.756 161.747Z" fill="#004EFF"/>
</g>
<path d="M282.862 163.712C281.297 161.434 280.145 158.9 279.457 156.224C279.206 154.883 278.816 153.573 278.292 152.314C277.798 151.341 277.085 150.496 276.208 149.847C275.332 149.197 274.317 148.76 273.243 148.57C272.784 148.469 272.307 148.491 271.86 148.634C270.932 148.986 270.523 150.054 270.337 151.027C269.935 153.117 270.054 155.273 270.683 157.306C271.111 158.688 276.263 168.71 279.643 172.595C279.348 170.637 281.601 164.09 282.862 163.712Z" stroke="#263238" stroke-linecap="round" stroke-linejoin="round"/>
<path d="M278.42 170.88C274.977 164.282 276.641 149.075 276.538 146.63L281.082 146.387C281.537 146.387 283.642 159.354 285.076 164.736C286.356 169.638 285.127 174.598 282.862 174.598C280.98 174.598 279.143 172.269 278.42 170.88Z" fill="white" stroke="#263238" stroke-linecap="round" stroke-linejoin="round"/>
<path d="M237.39 153.747C240.59 149.075 246.868 148.704 246.868 148.704" stroke="#263238" stroke-linecap="round" stroke-linejoin="round"/>
<path d="M225.044 156.365C226.012 155.476 226.771 154.383 227.265 153.165L225.044 156.365Z" fill="white"/>
<path d="M225.044 156.365C226.012 155.476 226.771 154.383 227.265 153.165" stroke="#263238" stroke-linecap="round" stroke-linejoin="round"/>
<path d="M248.82 178.445C250.644 181.434 262.458 184.627 267.169 183.942" stroke="#263238" stroke-linecap="round" stroke-linejoin="round"/>
<path d="M252.161 186.88C255.564 187.466 259.052 187.333 262.401 186.49" stroke="#263238" stroke-linecap="round" stroke-linejoin="round"/>
<path d="M267.834 157.882L270.087 160.934C270.394 161.35 270.823 161.818 271.329 161.702" stroke="#263238" stroke-linecap="round" stroke-linejoin="round"/>
<path d="M284.577 273.683C284.379 274.496 284.315 275.462 284.897 276.07C285.479 276.678 286.324 276.666 287.111 276.653L289.819 276.602C290.863 276.654 291.906 276.49 292.884 276.122C293.373 275.931 293.792 275.596 294.084 275.159C294.376 274.723 294.527 274.208 294.516 273.683C294.45 273.277 294.32 272.884 294.132 272.518C293.889 271.994 293.646 271.462 293.409 270.938C290.42 264.352 285.857 268.358 284.577 273.683Z" fill="white" stroke="#263238" stroke-linecap="round" stroke-linejoin="round"/>
<path d="M280.763 265.92C280.857 268.943 280.604 271.966 280.007 274.931C279.867 275.603 280.007 276.621 280.647 276.557C280.898 276.518 281.126 276.388 281.287 276.192C283.64 273.872 285.322 270.96 286.158 267.763C286.283 267.431 286.342 267.077 286.33 266.722C286.318 266.368 286.235 266.019 286.087 265.696C285.912 265.437 285.696 265.208 285.447 265.018C283.278 263.283 280.564 261.562 280.763 265.92Z" fill="white" stroke="#263238" stroke-linecap="round" stroke-linejoin="round"/>
<path d="M273.332 188.563C273.332 188.563 276.705 194.426 277.428 195.789C278.151 197.152 293.428 217.229 296.359 231.846C296.91 234.624 285.639 265.69 285.639 265.69L283.079 264.243C283.079 264.243 284.859 235.91 284.423 233.555C283.988 231.2 272.743 213.818 272.743 213.818C272.743 213.818 266.465 209.203 263.879 203.84L273.332 188.563Z" fill="#263238"/>
<path d="M273.697 203.251C273.697 203.251 271.777 207.526 271.777 208.141C271.777 208.755 282.337 242.125 285.441 249.843C287.404 254.814 289.134 259.9 290.631 265.101C290.631 265.101 291.835 266.682 290.926 268.301C290.017 269.92 286.401 270.982 285.658 269.536C284.916 268.09 277.601 260.576 274.516 253.101C271.431 245.626 267.092 233.133 264.622 228.48C261.386 222.535 258.514 216.399 256.02 210.106C252.916 202.163 249.742 193.6 249.742 193.6C251.031 193.716 252.326 193.753 253.62 193.709C256.667 193.605 259.683 193.071 262.58 192.122C269.326 189.856 272.244 185.517 272.244 185.517C272.244 185.517 273.915 190.042 274.35 190.918L273.697 203.251Z" fill="#263238"/>
<path d="M295.233 234.707C294.572 235.84 293.683 236.823 292.622 237.594" stroke="white" stroke-linecap="round" stroke-linejoin="round"/>
<path d="M296.058 232.845C295.962 233.157 295.847 233.462 295.713 233.76" stroke="white" stroke-linecap="round" stroke-linejoin="round"/>
<path d="M267.598 193.28C269.3 196.211 270.894 200.429 270.638 203.808C270.5 204.422 270.285 205.015 269.998 205.574" stroke="white" stroke-linecap="round" stroke-linejoin="round"/>
<path d="M257.294 196.538C257.479 198.17 257.729 200.883 257.37 202.483C257.068 204.12 256.129 205.569 254.759 206.515" stroke="white" stroke-linecap="round" stroke-linejoin="round"/>
<path d="M271.809 190.362C272.181 190.825 272.482 191.34 272.705 191.891C273.138 192.683 273.734 193.373 274.453 193.918C275.172 194.463 275.999 194.85 276.878 195.053" stroke="white" stroke-linecap="round" stroke-linejoin="round"/>
<path d="M266.375 196.902C268.634 201.843 270.362 206.797 273.87 215.194" stroke="white" stroke-linecap="round" stroke-linejoin="round"/>
<path d="M265.172 194.374C265.364 194.758 265.55 195.142 265.735 195.526" stroke="white" stroke-linecap="round" stroke-linejoin="round"/>
<path d="M283.975 232.173C285.011 234.168 286.328 236.005 287.886 237.626" stroke="white" stroke-linecap="round" stroke-linejoin="round"/>
<path d="M285.044 234.016C285.722 237.148 286.96 240.131 288.699 242.822" stroke="white" stroke-linecap="round" stroke-linejoin="round"/>
<path d="M269.134 234.176C264.148 223.539 258.83 212.986 252.295 196.902" stroke="white" stroke-linecap="round" stroke-linejoin="round"/>
<path d="M270.26 237.267C270.138 236.896 270.01 236.525 269.876 236.147" stroke="white" stroke-linecap="round" stroke-linejoin="round"/>
<path d="M287.495 269.971C286.215 268.301 276.884 255.251 274.567 249.338C273.025 245.395 271.86 242.611 270.727 238.682" stroke="white" stroke-linecap="round" stroke-linejoin="round"/>
<path d="M283.975 244.858L288.411 257.894" stroke="white" stroke-linecap="round" stroke-linejoin="round"/>
<path d="M280.987 146.394L279.642 146.502C277.939 146.805 276.19 146.724 274.522 146.266C273.454 146.003 270.977 145.235 270.682 145.184C269.947 145.027 269.203 144.907 268.455 144.826C266.196 144.691 267.342 143.846 268.282 143.885C269.524 143.942 269.94 143.917 270.894 143.987C270.778 143.923 270.426 143.853 270.42 143.578C270.42 142.906 271.303 142.938 271.303 142.938C271.303 142.938 270.337 142.528 270.471 142.022C270.606 141.517 271.252 141.382 271.662 141.421C271.662 141.421 271.118 141.158 271.143 140.877C271.258 139.789 273.492 139.712 273.492 139.712C272.952 139.471 272.446 139.159 271.988 138.784C271.821 138.604 271.704 138.383 271.649 138.144C271.637 138.03 271.656 137.915 271.703 137.811C271.751 137.706 271.826 137.617 271.92 137.551C272.015 137.486 272.125 137.447 272.239 137.439C272.353 137.43 272.468 137.453 272.57 137.504C273.148 137.889 273.706 138.303 274.241 138.746C274.932 139.238 275.732 139.552 276.462 139.994C277.173 140.602 277.746 141.355 278.145 142.202C278.26 142.381 280.987 146.394 280.987 146.394Z" fill="white" stroke="#263238" stroke-linecap="round" stroke-linejoin="round"/>
<path d="M220.519 132.806V129.28C220.511 127.51 220.77 125.75 221.287 124.058C221.582 123.123 221.927 122.31 222.241 122.189C222.823 121.978 223.079 124.339 223.079 124.339C222.641 122.446 222.361 120.519 222.241 118.579C222.241 116.525 225.006 125.056 225.006 125.056L223.905 132.806H220.519Z" fill="white" stroke="#263238" stroke-linecap="round" stroke-linejoin="round"/>
<path d="M223.86 127.072C224.195 126.814 224.444 126.462 224.577 126.061L223.86 127.072Z" fill="white"/>
<path d="M223.86 127.072C224.195 126.814 224.444 126.462 224.577 126.061" stroke="#263238" stroke-linecap="round" stroke-linejoin="round"/>
<path d="M250.663 140.16C251.859 142.172 252.52 144.457 252.583 146.797C252.699 150.688 257.204 156.134 258.491 156.397C259.777 156.659 260.967 150.253 260.91 148.314C260.852 146.374 260.135 141.018 260.135 141.018C260.135 141.018 253.972 136.358 250.663 140.16Z" fill="white" stroke="#263238" stroke-linecap="round" stroke-linejoin="round"/>
<path d="M252.475 145.312C252.475 145.312 258.382 153.37 260.699 145.178C263.015 136.986 254.203 147.418 252.475 145.312Z" fill="#263238"/>
<path d="M262.446 139.52C262.132 144.301 259.95 146.989 257.434 147.462C255.137 147.885 251.777 145.542 250.1 142.067C249.972 141.984 247.93 140.57 247.444 140.224C247.19 140.046 246.983 139.81 246.84 139.534C246.697 139.259 246.624 138.953 246.625 138.643C246.641 138.346 246.746 138.06 246.926 137.823C247.107 137.585 247.354 137.407 247.636 137.312H247.694C247.982 137.249 248.282 137.271 248.558 137.376C248.135 135.744 247.79 134.086 247.527 132.416C247.649 128.576 248.922 125.44 253.018 125.133C257.114 124.826 260.538 127.117 260.698 128.768C260.814 130.048 261.23 133.434 261.601 136.934C261.703 137.843 262.516 138.445 262.446 139.52Z" fill="white" stroke="#263238" stroke-linecap="round" stroke-linejoin="round"/>
<path d="M260.699 133.99C260.699 133.99 258.062 132.781 258.51 136.71C258.599 137.485 260.039 138.63 260.039 138.63C260.039 138.63 259.668 139.789 258.983 139.789" fill="white"/>
<path d="M260.699 133.99C260.699 133.99 258.062 132.781 258.51 136.71C258.599 137.485 260.039 138.63 260.039 138.63C260.039 138.63 259.668 139.789 258.983 139.789" stroke="#263238" stroke-linecap="round" stroke-linejoin="round"/>
<path d="M255.604 135.334C255.604 135.334 254.26 134.515 253.338 135.021C252.858 135.23 252.449 135.575 252.161 136.013" fill="white"/>
<path d="M255.604 135.334C255.604 135.334 254.26 134.515 253.338 135.021C252.858 135.23 252.449 135.575 252.161 136.013" stroke="#263238" stroke-linecap="round" stroke-linejoin="round"/>
<path d="M254.836 137.6C254.938 138.074 254.836 138.496 254.561 138.554C254.286 138.611 254.017 138.266 253.921 137.792C253.825 137.318 253.921 136.896 254.202 136.838C254.484 136.781 254.74 137.12 254.836 137.6Z" fill="#263238"/>
<path d="M260.033 136.218C260.135 136.691 260.033 137.114 259.758 137.171C259.483 137.229 259.214 136.883 259.118 136.416C259.022 135.949 259.118 135.514 259.393 135.462C259.668 135.411 259.937 135.75 260.033 136.218Z" fill="#263238"/>
<path d="M247.22 127.456C246.752 127.915 246.427 128.499 246.286 129.139C245.902 130.492 245.792 131.908 245.96 133.305C246.128 134.701 246.571 136.05 247.265 137.274C247.692 137.221 248.124 137.238 248.545 137.325C248.993 137.44 249.569 138.208 249.78 138.605C249.965 139.028 250.072 139.481 250.094 139.942C249.991 138.726 249.895 137.517 249.793 136.301C249.724 135.815 249.746 135.32 249.857 134.842C250.171 133.843 249.825 131.488 249.915 129.382C252.571 132.627 256.43 132.051 257.71 131.942C259.63 131.782 261.268 129.818 261.166 128.416C261.063 127.014 260.686 123.405 254.356 123.034C252.962 122.885 251.556 123.178 250.337 123.872C249.951 124.127 249.623 124.46 249.374 124.851C249.126 125.241 248.963 125.68 248.897 126.138C248.807 126.726 249.031 126.778 248.583 127.066C248.135 127.354 247.662 127.078 247.22 127.456Z" fill="#263238" stroke="#263238" stroke-linecap="round" stroke-linejoin="round"/>
<path d="M255.604 142.042C255.604 142.042 256.545 143.078 258.51 142.394L255.604 142.042Z" fill="white"/>
<path d="M255.604 142.042C255.604 142.042 256.545 143.078 258.51 142.394" stroke="#263238" stroke-linecap="round" stroke-linejoin="round"/>
</svg>
