<svg width="132" height="121" viewBox="0 0 132 121" fill="none" xmlns="http://www.w3.org/2000/svg">
<path d="M69.7375 39.4985L74.9934 50.1169C75.1813 50.4871 75.4559 50.8069 75.7942 51.0492C76.1324 51.2916 76.5243 51.4494 76.9367 51.5093L88.7071 53.2123C89.181 53.2834 89.6256 53.4845 89.9909 53.793C90.3563 54.1016 90.628 54.5053 90.7755 54.959C90.9229 55.4127 90.9403 55.8982 90.8258 56.3612C90.7112 56.8242 90.4692 57.2462 90.1268 57.5799L81.6187 65.8442C81.3175 66.1319 81.0921 66.4889 80.9621 66.8837C80.8322 67.2785 80.8018 67.6989 80.8736 68.1082L82.827 79.7384C82.908 80.2095 82.855 80.6938 82.6741 81.1365C82.4931 81.5793 82.1914 81.963 81.803 82.2442C81.4145 82.5255 80.9548 82.6931 80.4757 82.7283C79.9966 82.7634 79.5171 82.6646 79.0914 82.443L68.5595 76.9335C68.1896 76.7413 67.7786 76.6409 67.3613 76.6409C66.944 76.6409 66.5329 76.7413 66.1631 76.9335L55.6412 82.4731C55.2155 82.6947 54.7361 82.7934 54.2569 82.7583C53.7778 82.7232 53.3181 82.5555 52.9296 82.2743C52.5412 81.993 52.2395 81.6094 52.0586 81.1666C51.8776 80.7238 51.8247 80.2395 51.9057 79.7684L53.9194 68.1082C53.9886 67.699 53.9569 67.2792 53.8272 66.8849C53.6974 66.4906 53.4734 66.1335 53.1744 65.8442L44.6561 57.5799C44.3136 57.2455 44.0717 56.8227 43.9577 56.359C43.8436 55.8953 43.8619 55.4092 44.0105 54.9552C44.1591 54.5013 44.4321 54.0977 44.7988 53.7898C45.1654 53.4818 45.6112 53.2818 46.0859 53.2123L57.8563 51.5093C58.2678 51.4503 58.6587 51.2927 58.9955 51.0502C59.3322 50.8076 59.6047 50.4874 59.7895 50.1169L65.0555 39.4985C65.2617 39.0534 65.5918 38.6763 66.0067 38.4121C66.4216 38.1478 66.9039 38.0073 67.3965 38.0073C67.8892 38.0073 68.3715 38.1478 68.7864 38.4121C69.2013 38.6763 69.5313 39.0534 69.7375 39.4985Z" fill="white"/>
<path d="M49.6004 46.5108C49.5098 46.611 42.8241 40.4403 34.6886 32.7269C26.553 25.0135 20.0284 18.7026 20.1291 18.5723C20.2298 18.4421 26.9457 24.6429 35.0913 32.3563C43.237 40.0697 49.7414 46.4107 49.6004 46.5108Z" fill="white"/>
<path d="M35.6857 53.0418C35.6857 53.1821 29.9364 52.9517 22.8782 52.531C15.82 52.1102 10.0908 51.6394 10.0908 51.5292C10.0908 51.419 15.8401 51.6094 22.9084 52.0401C29.9767 52.4709 35.6857 52.9016 35.6857 53.0418Z" fill="white"/>
<path d="M57.4547 34.0291C56.0685 31.5616 54.8345 29.0125 53.7594 26.3959C52.525 23.8482 51.4457 21.2289 50.5273 18.5522C51.9242 21.0158 53.1618 23.5653 54.2327 26.1855C55.4686 28.7312 56.5447 31.3508 57.4547 34.0291Z" fill="white"/>
<path d="M66.3643 0C66.5053 0 66.6261 7.01217 66.6261 15.5871C66.6261 24.162 66.5053 31.1841 66.3643 31.1841C66.2234 31.1841 66.1025 24.172 66.1025 15.5871C66.1025 7.00216 66.2234 0 66.3643 0Z" fill="white"/>
<path d="M84.1668 18.8428C83.2182 21.4301 82.1085 23.956 80.8441 26.4059C79.7291 28.9261 78.458 31.3751 77.0381 33.7386C77.9877 31.1502 79.1009 28.6242 80.3709 26.1755C81.4802 23.6544 82.7481 21.2053 84.1668 18.8428Z" fill="white"/>
<path d="M112.933 23.9415C113.014 24.0617 105.331 29.5312 95.816 36.1627C86.301 42.7942 78.4474 48.0834 78.3668 47.9632C78.2863 47.843 85.9587 42.3735 95.4838 35.7319C105.009 29.0904 112.842 23.8213 112.933 23.9415Z" fill="white"/>
<path d="M113.688 46.1001C110.927 47.4511 108.094 48.6483 105.2 49.6863C102.368 50.8563 99.4703 51.8598 96.5205 52.6915C99.2723 51.362 102.096 50.1848 104.978 49.1654C107.818 47.9739 110.726 46.9504 113.688 46.1001Z" fill="white"/>
<path d="M46.7311 67.4472C46.7311 67.5774 36.7932 71.1236 24.4288 75.3509C12.0643 79.5783 1.99547 82.904 1.9552 82.7438C1.91492 82.5835 11.8931 79.0674 24.2576 74.83C36.6221 70.5927 46.6908 67.307 46.7311 67.4472Z" fill="white"/>
<path d="M125.439 78.3664C125.439 78.5066 116.618 76.1726 105.815 73.1573C95.0108 70.1421 86.2812 67.5877 86.3214 67.4474C86.3617 67.3072 95.1518 69.6412 105.956 72.6565C116.759 75.6717 125.479 78.2261 125.439 78.3664Z" fill="white"/>
<path d="M38.5254 96.4678C40.3923 94.5166 42.3797 92.6832 44.4761 90.9783C46.4606 89.1378 48.5663 87.4311 50.7791 85.8694C48.912 87.827 46.921 89.664 44.8184 91.3689C42.832 93.2001 40.7301 94.9032 38.5254 96.4678Z" fill="white"/>
<path d="M67.2007 121C67.0598 121 66.9893 112.435 67.0397 101.887C67.09 91.3386 67.2612 82.7637 67.4021 82.7737C67.5431 82.7837 67.6236 91.3285 67.5632 101.887C67.5028 112.445 67.3417 121 67.2007 121Z" fill="white"/>
<path d="M96.9243 98.6114C94.7501 96.9265 92.6852 95.1063 90.7421 93.1619C88.6499 91.3484 86.6789 89.4008 84.8418 87.3318C87.016 89.0167 89.0809 90.8368 91.0241 92.7812C93.1163 94.5948 95.0872 96.5423 96.9243 98.6114Z" fill="white"/>
<path d="M118.461 62.5086L118.551 64.2316C118.554 64.2927 118.572 64.3521 118.604 64.4045C118.635 64.457 118.68 64.5008 118.732 64.5321L120.202 65.4337C120.264 65.4689 120.315 65.5211 120.348 65.584C120.381 65.6469 120.395 65.7179 120.389 65.7886C120.382 65.8592 120.356 65.9266 120.312 65.9827C120.268 66.0387 120.209 66.0811 120.142 66.1048L118.521 66.7159C118.465 66.7378 118.416 66.773 118.377 66.8184C118.339 66.8639 118.312 66.9181 118.299 66.9764L117.887 68.6593C117.87 68.7267 117.834 68.788 117.784 68.8364C117.734 68.8847 117.672 68.9181 117.603 68.9327C117.535 68.9473 117.464 68.9426 117.399 68.919C117.333 68.8955 117.275 68.8541 117.232 68.7995L116.145 67.4672C116.107 67.4193 116.058 67.3814 116.001 67.3569C115.945 67.3324 115.884 67.3221 115.823 67.327L114.091 67.4572C114.021 67.4627 113.952 67.4488 113.89 67.4171C113.828 67.3853 113.777 67.337 113.741 67.2776C113.705 67.2182 113.687 67.15 113.689 67.0809C113.69 67.0117 113.711 66.9443 113.748 66.8862L114.695 65.4337C114.724 65.3816 114.739 65.323 114.739 65.2634C114.739 65.2038 114.724 65.1452 114.695 65.0931L114.03 63.4903C114.007 63.4262 114.001 63.357 114.014 63.29C114.027 63.223 114.058 63.1607 114.103 63.1095C114.148 63.0583 114.206 63.0202 114.272 62.9991C114.337 62.9779 114.406 62.9746 114.473 62.9894L116.155 63.4402C116.214 63.4543 116.276 63.4543 116.335 63.4404C116.395 63.4265 116.45 63.399 116.497 63.3601L117.816 62.2482C117.868 62.1934 117.935 62.1556 118.008 62.1395C118.082 62.1234 118.158 62.1299 118.228 62.1581C118.298 62.1863 118.358 62.2349 118.399 62.2975C118.441 62.3601 118.462 62.4337 118.461 62.5086Z" fill="white"/>
<path d="M129.577 44.3469L130.372 45.1683C130.399 45.1968 130.432 45.2181 130.469 45.2304C130.506 45.2426 130.545 45.2454 130.584 45.2385L131.711 45.0581C131.757 45.0514 131.804 45.0572 131.846 45.075C131.889 45.0929 131.925 45.122 131.952 45.1592C131.979 45.1964 131.996 45.2403 131.999 45.2861C132.003 45.3319 131.994 45.3778 131.973 45.4188L131.429 46.4205C131.41 46.4558 131.4 46.4955 131.4 46.5357C131.4 46.576 131.41 46.6156 131.429 46.6509L131.953 47.6527C131.972 47.6941 131.979 47.7399 131.974 47.7852C131.969 47.8304 131.951 47.8734 131.923 47.9094C131.895 47.9455 131.858 47.9733 131.815 47.9898C131.773 48.0064 131.726 48.011 131.681 48.0033L130.563 47.8029C130.524 47.7947 130.484 47.7959 130.445 47.8064C130.407 47.8168 130.371 47.8362 130.342 47.863L129.536 48.6744C129.503 48.7061 129.462 48.7281 129.417 48.7382C129.373 48.7482 129.326 48.7459 129.282 48.7315C129.239 48.717 129.2 48.691 129.17 48.6562C129.141 48.6215 129.121 48.5793 129.114 48.5342L128.963 47.4022C128.958 47.3636 128.943 47.3268 128.92 47.2953C128.898 47.2638 128.867 47.2385 128.832 47.2219L127.825 46.701C127.782 46.6823 127.745 46.6515 127.719 46.6123C127.693 46.5732 127.68 46.5274 127.68 46.4806C127.68 46.4338 127.693 46.388 127.719 46.3489C127.745 46.3097 127.782 46.2789 127.825 46.2602L128.832 45.7694C128.869 45.755 128.903 45.7306 128.927 45.6988C128.952 45.667 128.968 45.6291 128.973 45.5891L129.144 44.4771C129.151 44.4308 129.172 44.3876 129.203 44.3523C129.234 44.317 129.274 44.2911 129.319 44.2776C129.364 44.264 129.413 44.2633 129.458 44.2756C129.504 44.2878 129.545 44.3125 129.577 44.3469Z" fill="white"/>
<path d="M1.88413 30.7134L2.6695 31.5348C2.69468 31.5649 2.72783 31.5874 2.76518 31.5998C2.80254 31.6122 2.84264 31.614 2.88095 31.6049L4.00865 31.4246C4.0543 31.4178 4.10095 31.4237 4.14348 31.4415C4.18602 31.4593 4.22281 31.4884 4.24983 31.5257C4.27685 31.5629 4.29307 31.6068 4.29671 31.6526C4.30034 31.6984 4.29125 31.7442 4.27043 31.7852L3.72673 32.787C3.70734 32.8223 3.69718 32.8619 3.69718 32.9022C3.69718 32.9424 3.70734 32.982 3.72673 33.0174L4.25031 34.0191C4.26929 34.0606 4.27654 34.1064 4.27129 34.1516C4.26605 34.1969 4.2485 34.2398 4.22053 34.2759C4.19257 34.312 4.15526 34.3397 4.1126 34.3563C4.06994 34.3728 4.02356 34.3775 3.97845 34.3697L2.86081 34.1694C2.82095 34.1633 2.78022 34.1665 2.7418 34.1786C2.70338 34.1908 2.6683 34.2116 2.63929 34.2395L1.83379 35.0409C1.80069 35.0725 1.75953 35.0946 1.71475 35.1046C1.66997 35.1147 1.62328 35.1124 1.57973 35.0979C1.53618 35.0835 1.49744 35.0575 1.46768 35.0227C1.43793 34.9879 1.41829 34.9457 1.4109 34.9006L1.26994 33.7887C1.26427 33.7491 1.24951 33.7113 1.22681 33.6783C1.20411 33.6453 1.17408 33.618 1.13904 33.5984L0.132159 33.0875C0.0921982 33.066 0.0588181 33.0342 0.0355517 32.9954C0.0122854 32.9566 0 32.9123 0 32.8671C0 32.8219 0.0122854 32.7776 0.0355517 32.7388C0.0588181 32.7 0.0921982 32.6682 0.132159 32.6467L1.13904 32.1559C1.17647 32.1381 1.20893 32.1115 1.23353 32.0783C1.25812 32.0451 1.27407 32.0064 1.28 31.9655L1.45117 30.8436C1.45872 30.7973 1.47919 30.7541 1.51024 30.7188C1.54129 30.6835 1.58167 30.6576 1.62679 30.644C1.67191 30.6304 1.71995 30.6298 1.76545 30.642C1.81095 30.6543 1.85207 30.679 1.88413 30.7134Z" fill="white"/>
</svg>
