<svg width="400" height="400" viewBox="0 0 400 400" fill="none" xmlns="http://www.w3.org/2000/svg">
<path d="M200.001 342.048C285.667 342.048 355.113 337.994 355.113 332.992C355.113 327.991 285.667 323.936 200.001 323.936C114.335 323.936 44.8887 327.991 44.8887 332.992C44.8887 337.994 114.335 342.048 200.001 342.048Z" fill="#F5F5F5"/>
<path d="M158.089 322.312L164.113 320.088L159.497 305.888L153.473 308.112L158.089 322.312Z" fill="#FFC3BD"/>
<path d="M163.088 315.744L156.48 318.064C156.364 318.104 156.266 318.186 156.205 318.294C156.145 318.401 156.126 318.527 156.152 318.648L157.392 324.296C157.427 324.437 157.49 324.569 157.578 324.684C157.667 324.799 157.778 324.895 157.905 324.965C158.032 325.035 158.172 325.078 158.317 325.09C158.461 325.103 158.607 325.086 158.744 325.04C161.144 324.16 164.496 322.816 167.488 321.768C170.992 320.536 172.048 320.624 175.984 318.8C178.384 317.704 177.656 315.056 176.536 315.312C171.44 316.448 169.992 316.712 164.76 315.696C164.209 315.563 163.631 315.58 163.088 315.744Z" fill="#263238"/>
<path opacity="0.2" d="M159.495 305.888L161.879 313.208L155.847 315.432L153.463 308.112L159.495 305.888Z" fill="black"/>
<path d="M164.367 315.928C164.339 315.928 164.312 315.92 164.289 315.904C164.266 315.888 164.249 315.866 164.239 315.84C164.221 315.814 164.211 315.783 164.211 315.752C164.211 315.72 164.221 315.69 164.239 315.664C164.471 315.424 166.543 313.304 167.439 313.464C167.52 313.48 167.596 313.517 167.657 313.572C167.719 313.627 167.765 313.697 167.791 313.776C167.845 313.905 167.867 314.045 167.856 314.184C167.844 314.323 167.8 314.457 167.727 314.576C167.239 315.376 165.423 315.776 164.391 315.92L164.367 315.928ZM167.311 313.768C166.807 313.768 165.631 314.744 164.807 315.544C166.215 315.304 167.207 314.896 167.471 314.424C167.512 314.342 167.534 314.252 167.534 314.16C167.534 314.068 167.512 313.978 167.471 313.896C167.46 313.864 167.441 313.835 167.416 313.813C167.391 313.79 167.36 313.775 167.327 313.768H167.311Z" fill="#004EFF"/>
<path d="M164.368 315.928H164.328C164.303 315.92 164.28 315.906 164.261 315.886C164.243 315.866 164.23 315.842 164.224 315.816C164.224 315.744 163.888 314.024 164.464 313.104C164.628 312.838 164.889 312.649 165.192 312.576C165.6 312.48 165.776 312.64 165.848 312.8C166.168 313.456 165.104 315.296 164.472 315.888C164.459 315.901 164.442 315.912 164.424 315.918C164.407 315.925 164.388 315.929 164.368 315.928ZM165.408 312.848H165.248C165.138 312.872 165.033 312.92 164.942 312.987C164.851 313.055 164.776 313.141 164.72 313.24C164.425 313.928 164.342 314.688 164.48 315.424C165.088 314.704 165.768 313.304 165.576 312.912C165.6 312.912 165.536 312.848 165.408 312.848Z" fill="#004EFF"/>
<path d="M130.488 249.976C116.488 219.248 105.816 206.112 106.896 189.592L129.464 187.28C129.464 187.28 142.712 227.2 146.48 246.2C150.4 265.944 162.4 308.48 162.4 308.48L152.424 311.272C152.424 311.272 132.896 272.112 130.488 249.976Z" fill="#004EFF"/>
<path opacity="0.2" d="M109.145 204.944C111.545 212.2 115.761 220.096 121.017 230.424C121.289 230.936 121.561 231.448 121.817 231.976C120.873 219.44 120.081 208.888 109.145 204.944Z" fill="black"/>
<path d="M162.775 305.448L163.535 309.904L152.951 314.136L151.039 310.376L162.775 305.448Z" fill="#263238"/>
<path d="M97.879 314.128L97.375 329.048L104.511 328.952L105.023 314.024L97.879 314.128Z" fill="#FFC3BD"/>
<path d="M104.424 325.72L97.4085 325.832C97.2854 325.833 97.1669 325.879 97.0755 325.962C96.9842 326.044 96.9262 326.158 96.9125 326.28L96.3045 332.016C96.2922 332.161 96.3105 332.308 96.3581 332.446C96.4058 332.584 96.4818 332.711 96.5812 332.818C96.6806 332.924 96.8013 333.009 96.9355 333.067C97.0697 333.125 97.2145 333.154 97.3605 333.152C99.8805 333.064 100.68 332.864 103.856 332.808C107.576 332.752 108.72 332.904 113.08 332.808C115.72 332.76 116.144 330.096 115.016 329.856C111.44 329.112 107.64 327.688 106.032 326.168C105.573 325.82 104.998 325.66 104.424 325.72Z" fill="#263238"/>
<path opacity="0.2" d="M97.8792 314.128L97.6152 321.824L104.759 321.72L105.023 314.032L97.8792 314.128Z" fill="black"/>
<path d="M103.151 326.208C103.123 326.209 103.096 326.202 103.071 326.188C103.047 326.174 103.028 326.153 103.015 326.128C102.998 326.104 102.988 326.074 102.988 326.044C102.988 326.014 102.998 325.984 103.015 325.96C103.239 325.712 105.183 323.56 106.071 323.688C106.154 323.699 106.231 323.732 106.297 323.782C106.363 323.833 106.415 323.9 106.447 323.976C106.512 324.099 106.545 324.237 106.545 324.376C106.545 324.515 106.512 324.653 106.447 324.776C106.015 325.616 104.199 326.04 103.159 326.216L103.151 326.208ZM105.983 323.984C105.463 323.984 104.383 325 103.583 325.824C104.999 325.536 105.983 325.096 106.207 324.632C106.251 324.551 106.273 324.46 106.273 324.368C106.273 324.276 106.251 324.185 106.207 324.104C106.194 324.073 106.174 324.047 106.147 324.027C106.12 324.007 106.088 323.995 106.055 323.992L105.983 323.984Z" fill="#004EFF"/>
<path d="M103.153 326.208H103.113C103.086 326.201 103.061 326.186 103.042 326.167C103.022 326.147 103.008 326.123 103.001 326.096C103.001 326.024 102.521 324.344 103.049 323.424C103.121 323.29 103.22 323.173 103.34 323.079C103.46 322.986 103.597 322.918 103.745 322.88C103.862 322.826 103.995 322.815 104.12 322.851C104.245 322.886 104.353 322.964 104.425 323.072C104.793 323.712 103.857 325.56 103.257 326.168C103.228 326.194 103.191 326.208 103.153 326.208ZM103.953 323.144H103.801C103.692 323.171 103.59 323.221 103.502 323.29C103.414 323.359 103.341 323.445 103.289 323.544C103.04 324.239 103.012 324.993 103.209 325.704C103.777 324.976 104.361 323.576 104.137 323.192C104.099 323.16 104.05 323.143 104.001 323.144H103.953Z" fill="#004EFF"/>
<path d="M97.9674 255.032C95.9434 232.024 89.5194 207.616 92.7354 190.848L116.303 188.8C116.303 188.8 118.895 236.168 116.303 255.768C113.639 276.152 106.703 317.104 106.703 317.104L96.3034 317.256C96.3034 317.256 95.1994 277.6 97.9674 255.032Z" fill="#004EFF"/>
<path d="M108.255 314.792L107.575 319.224L95.9431 319.432L95.2871 315.24L108.255 314.792Z" fill="#263238"/>
<path d="M151.096 119.912C151.115 119.597 151.072 119.281 150.968 118.983C150.865 118.684 150.704 118.409 150.495 118.173C150.285 117.936 150.031 117.744 149.747 117.606C149.464 117.468 149.155 117.387 148.84 117.368C148.203 117.33 147.578 117.546 147.101 117.969C146.624 118.392 146.334 118.987 146.296 119.624V119.744C145.928 121.344 145.496 123.112 145.104 124.76C144.712 126.408 144.192 128.048 143.624 129.56C143.133 131.012 142.498 132.411 141.728 133.736C141.442 134.233 141.101 134.698 140.712 135.12C139.266 134.913 137.831 134.627 136.416 134.264C134.456 133.752 132.416 133.136 130.448 132.472C128.48 131.808 126.448 131.088 124.432 130.336C122.416 129.584 120.432 128.792 118.488 128.048H118.4C117.219 127.615 115.917 127.655 114.765 128.158C113.613 128.662 112.699 129.591 112.216 130.752C111.732 131.913 111.715 133.215 112.168 134.388C112.621 135.561 113.509 136.514 114.648 137.048C116.816 138.024 118.896 138.792 121.048 139.6C123.2 140.408 125.368 141.096 127.592 141.736C129.816 142.376 132.072 142.944 134.432 143.384C136.947 143.903 139.513 144.128 142.08 144.056H142.328C142.982 144.025 143.618 143.83 144.176 143.488C145.417 142.719 146.489 141.707 147.328 140.512C148.015 139.535 148.595 138.486 149.056 137.384C149.484 136.403 149.832 135.389 150.096 134.352C150.36 133.36 150.576 132.376 150.736 131.408C151.051 129.5 151.238 127.573 151.296 125.64C151.357 123.728 151.29 121.815 151.096 119.912Z" fill="#FFC3BD"/>
<path d="M149.503 123.2L155.759 120.52L150.535 114.712C150.535 114.712 144.687 117.632 146.151 121.112L149.503 123.2Z" fill="#FFC3BD"/>
<path d="M158.232 116.096L156 113.416C155.722 113.085 155.339 112.861 154.915 112.781C154.49 112.701 154.051 112.77 153.672 112.976L150.576 114.672L155.8 120.48L157.984 118.784C158.182 118.627 158.346 118.432 158.467 118.21C158.587 117.989 158.661 117.744 158.684 117.493C158.707 117.242 158.679 116.988 158.602 116.748C158.524 116.508 158.398 116.286 158.232 116.096Z" fill="#FFC3BD"/>
<path d="M114.44 125.712C120.784 125.264 133.36 132.552 133.36 132.552L127.2 145.648C123.392 144.841 119.759 143.359 116.472 141.272C114.672 140.16 106.92 126.248 114.44 125.712Z" fill="#263238"/>
<path d="M115.2 125.696C106.744 125.991 98.3574 127.335 90.2322 129.696C86.3922 130.904 83.0322 134.496 83.7522 138.448C85.4242 148.048 89.0722 164.088 90.9522 191.896C94.3762 192.888 105.712 191.936 113.64 191.152C114.504 191.072 116.56 188.992 116.56 188.992C116.56 188.992 118.504 190.592 119.6 190.432C124.848 189.632 129.008 188.64 129.952 187.576C129.152 179.688 127.056 162.392 125.856 151.16C125.696 146.728 125.008 138.56 123.184 133.928C121.448 129.536 119.872 125.6 115.2 125.696Z" fill="#263238"/>
<path d="M98.9119 116.368C99.9599 121.08 99.6079 126.12 96.9199 129.528C98.8959 132.464 103.496 134.768 108.064 135.928C110.968 132.448 110.808 128.808 109.496 126.888C109.496 124.208 109.2 122.336 109.296 120.328L98.9119 116.368Z" fill="#FFC3BD"/>
<path d="M108.064 135.912C108.654 135.111 109.036 134.177 109.176 133.192C109.296 131.752 111.816 132.704 111.816 132.704C110.862 134.078 109.57 135.183 108.064 135.912Z" fill="#E0E0E0"/>
<path d="M108.064 135.912C107.918 135.394 107.618 134.933 107.204 134.59C106.789 134.247 106.28 134.038 105.744 133.992C104.485 133.827 103.205 133.95 102 134.352C102 134.352 105.6 136 108.064 135.912Z" fill="#E0E0E0"/>
<path opacity="0.2" d="M102.256 115.064H102.176C102.216 115.128 102.248 115.112 102.256 115.064Z" fill="black"/>
<path opacity="0.2" d="M109.304 120.32L101.128 116.696C100.328 121.008 104.6 123.144 109.408 123.96C109.311 122.749 109.276 121.534 109.304 120.32Z" fill="black"/>
<path d="M109.393 100.52C115.401 99.832 116.761 104.04 114.105 109.48C112.668 108.464 111.492 107.123 110.673 105.565C109.854 104.008 109.415 102.279 109.393 100.52Z" fill="#263238"/>
<path d="M96.9924 108.392C98.1924 114.656 98.2164 118.68 102.256 120.8C111.208 125.504 115.056 121.456 115.736 114.944C116.368 109.08 114.304 99.8159 107.8 98.1439C106.359 97.7757 104.848 97.7789 103.408 98.1532C101.968 98.5276 100.647 99.2608 99.5674 100.284C98.4878 101.308 97.6854 102.588 97.2351 104.006C96.7848 105.424 96.7013 106.933 96.9924 108.392Z" fill="#FFC3BD"/>
<path d="M98.7522 112.8C101.152 113.384 102.128 112.464 102.216 112.112C101.596 112.022 100.995 111.836 100.432 111.56C100.432 111.56 101.776 111.136 101.912 110.192C100.832 110.192 98.7922 108.592 99.4402 106.888C100.088 105.184 99.8482 104.752 98.7522 104.304C96.7132 103.773 94.5876 103.661 92.5042 103.976C92.8738 104.305 93.2921 104.575 93.7442 104.776C93.7442 104.776 91.3442 105.992 92.5042 107.976C93.6642 109.96 96.0562 111.624 95.8642 112.824C97.7842 113.536 98.7522 112.8 98.7522 112.8Z" fill="#263238"/>
<path d="M113.6 98.2479C115.776 98.2479 116.992 96.9999 117.144 95.5999C115.28 96.6559 112.584 96.1199 107.632 94.4159C103.112 92.8159 99.904 93.7599 97.744 95.4479C97.784 94.4879 99.592 92.9919 99.592 92.9919C99.592 92.9919 95.3119 92.9919 93.2479 96.3679C91.5999 99.0639 93.3359 100.488 93.3359 100.488C93.3359 100.488 89.792 100.44 88.752 103.28C91.064 102.24 92.296 103.472 92.296 103.472C91.7751 103.876 91.1949 104.197 90.576 104.424C91.32 105.68 93.424 105.032 93.424 105.032C97.088 107.2 108.08 104 109.816 103.2C108.87 103.071 107.944 102.818 107.064 102.448C107.064 102.448 114.136 100.248 117.064 101.92C117.6 100.592 115.472 98.7759 113.6 98.2479Z" fill="#004EFF"/>
<path d="M113.304 115.608C113.304 115.608 111.376 115.12 106.016 115.016C106.345 115.969 106.98 116.786 107.822 117.34C108.664 117.895 109.666 118.155 110.672 118.08C111.012 118.113 111.355 118.073 111.679 117.963C112.003 117.853 112.299 117.675 112.548 117.441C112.797 117.207 112.994 116.922 113.124 116.606C113.254 116.29 113.316 115.95 113.304 115.608Z" fill="#263238"/>
<path d="M109.352 116.8C110.423 116.759 111.479 117.059 112.368 117.656C111.869 117.993 111.273 118.156 110.672 118.12C109.602 118.156 108.548 117.857 107.656 117.264C108.156 116.928 108.751 116.765 109.352 116.8Z" fill="#ED847E"/>
<path d="M113.056 115.56C112.92 115.904 112.784 116.256 112.256 116.36C110.658 116.329 109.065 116.16 107.496 115.856C107.24 115.832 106.994 115.747 106.778 115.607C106.562 115.468 106.383 115.279 106.256 115.056C108.532 115.042 110.806 115.21 113.056 115.56Z" fill="white"/>
<path opacity="0.2" d="M105.824 114.072C105.824 114.072 104.344 113.912 104.592 115.096C104.8 114.592 105.824 114.072 105.824 114.072Z" fill="black"/>
<path opacity="0.2" d="M104.881 109.016C104.03 108.667 103.076 108.667 102.225 109.016C103.102 109.187 104.004 109.187 104.881 109.016Z" fill="black"/>
<path opacity="0.2" d="M104.799 109.656C104.391 109.574 103.969 109.582 103.564 109.68C103.159 109.779 102.781 109.964 102.455 110.224C103.268 110.201 104.066 110.008 104.799 109.656Z" fill="black"/>
<path opacity="0.2" d="M113.719 107.872C113.719 107.872 114.391 107.12 114.903 107.36C114.566 107.642 114.155 107.82 113.719 107.872Z" fill="black"/>
<path opacity="0.2" d="M113.719 108.344C113.719 108.344 114.367 107.856 114.743 108.344C114.581 108.412 114.407 108.447 114.231 108.447C114.055 108.447 113.881 108.412 113.719 108.344Z" fill="black"/>
<path d="M94.8472 113.76C95.3465 115.127 96.3679 116.241 97.6872 116.856C99.4472 117.656 100.631 116.152 100.407 114.336C100.199 112.736 99.0392 110.336 97.1512 110.288C96.7382 110.287 96.3315 110.388 95.9673 110.583C95.6032 110.778 95.293 111.06 95.0647 111.404C94.8364 111.748 94.697 112.143 94.659 112.555C94.621 112.966 94.6857 113.38 94.8472 113.76Z" fill="#FFC3BD"/>
<path d="M105.816 109.272C105.888 109.784 106.208 110.168 106.544 110.12C106.88 110.072 107.104 109.624 107.04 109.104C106.976 108.584 106.648 108.208 106.312 108.256C105.976 108.304 105.752 108.8 105.816 109.272Z" fill="#263238"/>
<path d="M112.24 108.408C112.304 108.92 112.632 109.304 112.968 109.256C113.304 109.208 113.52 108.752 113.456 108.24C113.392 107.728 113.064 107.344 112.728 107.392C112.392 107.44 112.168 107.888 112.24 108.408Z" fill="#263238"/>
<path d="M110.111 108.72C110.992 110.175 112.068 111.503 113.311 112.664C113.001 112.978 112.625 113.221 112.21 113.374C111.795 113.528 111.352 113.588 110.911 113.552L110.111 108.72Z" fill="#ED847E"/>
<path d="M104.193 106.936C104.145 106.947 104.096 106.947 104.049 106.936C104.013 106.917 103.982 106.891 103.957 106.859C103.932 106.828 103.913 106.791 103.903 106.752C103.892 106.713 103.89 106.673 103.896 106.633C103.901 106.593 103.915 106.554 103.937 106.52C104.164 106.09 104.491 105.72 104.891 105.442C105.29 105.163 105.75 104.985 106.233 104.92C106.272 104.918 106.312 104.924 106.35 104.937C106.388 104.95 106.423 104.971 106.452 104.998C106.482 105.024 106.506 105.057 106.523 105.093C106.541 105.129 106.551 105.168 106.553 105.208C106.556 105.248 106.551 105.287 106.539 105.325C106.526 105.363 106.506 105.397 106.48 105.427C106.454 105.457 106.422 105.481 106.387 105.499C106.351 105.516 106.312 105.526 106.273 105.528C105.893 105.584 105.531 105.728 105.217 105.949C104.903 106.17 104.646 106.461 104.465 106.8C104.435 106.845 104.395 106.881 104.347 106.904C104.299 106.928 104.246 106.939 104.193 106.936Z" fill="#263238"/>
<path d="M113.999 105.072C113.951 105.085 113.9 105.086 113.851 105.075C113.802 105.064 113.757 105.041 113.719 105.008C113.446 104.743 113.113 104.546 112.749 104.435C112.384 104.324 111.998 104.301 111.623 104.368C111.584 104.379 111.544 104.381 111.504 104.376C111.464 104.37 111.425 104.356 111.391 104.335C111.357 104.314 111.327 104.287 111.303 104.254C111.28 104.221 111.264 104.183 111.255 104.144C111.236 104.067 111.248 103.985 111.288 103.916C111.328 103.847 111.394 103.797 111.471 103.776C111.947 103.684 112.438 103.708 112.902 103.848C113.366 103.987 113.789 104.237 114.135 104.576C114.191 104.634 114.222 104.711 114.222 104.792C114.222 104.873 114.191 104.95 114.135 105.008C114.098 105.043 114.05 105.065 113.999 105.072Z" fill="#263238"/>
<path d="M97.7997 169.024H97.6637C95.9277 168.64 94.0477 168.224 92.3037 167.68C90.5868 167.194 88.9055 166.59 87.2717 165.872C85.8259 165.276 84.4776 164.467 83.2717 163.472C82.8352 163.107 82.4621 162.671 82.1677 162.184C82.0835 162.027 82.0113 161.864 81.9517 161.696C81.9517 161.648 82.0157 161.456 82.0397 161.32L82.1997 160.784L82.3997 160.176C82.7037 159.328 83.0717 158.392 83.4797 157.464C84.2797 155.608 85.2317 153.696 86.1917 151.792C87.1517 149.888 88.1517 147.976 89.1597 146.072L92.2077 140.376C92.8147 139.251 92.9563 137.934 92.6022 136.706C92.248 135.478 91.4264 134.438 90.3138 133.809C89.2011 133.181 87.8863 133.014 86.6518 133.344C85.4173 133.674 84.3617 134.476 83.7117 135.576C82.5277 137.56 81.4957 139.52 80.4397 141.52C79.3837 143.52 78.3997 145.52 77.4637 147.632C76.5277 149.744 75.6157 151.824 74.8077 154.032C74.4077 155.16 74.0077 156.304 73.6797 157.568L73.4477 158.552C73.3757 158.912 73.3037 159.248 73.2397 159.632C73.1705 160.051 73.1224 160.473 73.0957 160.896C73.0957 161.152 73.0957 161.32 73.0957 161.64C73.0957 161.96 73.0957 162.24 73.1437 162.536V162.6C73.1594 162.773 73.1916 162.945 73.2397 163.112C73.64 164.638 74.3599 166.061 75.3517 167.288C76.2363 168.36 77.2741 169.295 78.4317 170.064C80.4207 171.334 82.6043 172.269 84.8957 172.832C86.9625 173.36 89.0721 173.703 91.1997 173.856C93.2843 174.024 95.3791 174.024 97.4637 173.856C98.1002 173.898 98.7275 173.686 99.2076 173.266C99.6877 172.846 99.9813 172.253 100.024 171.616C100.066 170.979 99.854 170.352 99.4339 169.872C99.0138 169.392 98.4202 169.098 97.7837 169.056L97.7997 169.024Z" fill="#FFC3BD"/>
<path d="M89.8004 129.816C82.6484 131.768 75.4004 150.032 75.4004 150.032L86.2404 158.656C86.2404 158.656 92.9284 152.848 94.4084 145.984C95.5204 140.72 97.0724 127.824 89.8004 129.816Z" fill="#263238"/>
<path d="M94.0246 168.696L100.057 166.248L100.857 174.016C100.857 174.016 95.1286 175.568 93.8086 172.656L94.0246 168.696Z" fill="#FFC3BD"/>
<path d="M106.303 168.8L106.127 171.568C106.091 172.101 105.868 172.605 105.496 172.989C105.123 173.373 104.627 173.612 104.095 173.664L100.847 173.984L100.047 166.216L104.143 166.4C104.444 166.411 104.74 166.482 105.012 166.61C105.285 166.738 105.53 166.919 105.731 167.143C105.933 167.366 106.087 167.629 106.185 167.913C106.283 168.198 106.323 168.499 106.303 168.8Z" fill="#FFC3BD"/>
<path d="M98.1357 126.808C98.3197 128.28 99.2557 133.208 105.744 134.008C103.44 134.56 103.416 138.304 103.416 138.304C103.416 138.304 94.9677 133.896 96.2157 127.968C96.6947 127.362 97.3767 126.95 98.1357 126.808Z" fill="white"/>
<path d="M109.528 125.344C109.368 126.896 109.816 129 109.176 133.192C111.488 132.68 112.76 135.912 112.76 135.912C112.76 135.912 114.512 130.128 110.92 125.624C110.469 125.475 110.001 125.381 109.528 125.344Z" fill="white"/>
<path d="M226.104 110.752C229.488 106.336 235.704 101.104 241.4 106.184C246.68 110.912 246.488 125.384 240.336 129.312C240.536 122.528 229.832 122.264 231.984 113.984C230.881 115.442 229.526 116.691 227.984 117.672L226.104 110.752Z" fill="#263238"/>
<path d="M224.641 108.904C227.513 108.104 228.257 107.76 229.441 108.272C230.625 108.784 230.185 111.064 231.241 112.768C232.297 114.472 233.689 115.848 230.265 117.504C228.753 116.572 227.465 115.318 226.493 113.831C225.521 112.345 224.889 110.663 224.641 108.904Z" fill="#004EFF"/>
<path d="M213.151 107.288C200.287 103.752 200.055 122.488 202.407 133.688C203.22 131.28 204.522 129.066 206.231 127.184L217.255 135.24C225.039 132.84 238.559 123.888 227.655 112.736C223.535 99.824 213.151 107.288 213.151 107.288Z" fill="#263238"/>
<path d="M230.096 310.088L238 310.664C236.912 316.96 235.88 326.904 235.88 326.904H229.6C229.6 326.904 230.328 314.4 230.096 310.088Z" fill="#B55B52"/>
<path d="M188.592 310.088L196.44 310.664C194.672 316.96 192.592 326.904 192.592 326.904H186.32C186.32 326.904 188.368 314.4 188.592 310.088Z" fill="#B55B52"/>
<path d="M222.817 333.12C228.265 333.12 227.881 333.032 230.953 332.928C233.577 332.84 234.153 333.168 236.297 333.12C238.057 333.12 238.113 331.392 237.713 329.456C237.561 328.712 237.329 327.856 237.113 326.776C237.055 326.476 236.893 326.206 236.656 326.013C236.419 325.82 236.122 325.716 235.817 325.72H229.417C229.183 325.721 228.953 325.776 228.744 325.882C228.536 325.987 228.355 326.14 228.217 326.328C227.459 327.322 226.506 328.151 225.416 328.763C224.327 329.375 223.124 329.758 221.881 329.888C218.945 330.28 220.649 333.12 222.817 333.12Z" fill="#004EFF"/>
<path d="M176.857 330.664C182.105 331.56 182.705 331.32 185.657 331.728C188.225 332.08 188.433 332.672 191.001 333.12C192.697 333.416 193.673 331.592 193.601 330.088C193.601 329.184 193.377 328.128 193.385 327.016C193.396 326.729 193.301 326.448 193.118 326.227C192.935 326.005 192.677 325.859 192.393 325.816L186.929 324.872C186.713 324.836 186.493 324.844 186.281 324.897C186.069 324.949 185.87 325.044 185.697 325.176C184.482 326.139 183.086 326.848 181.593 327.26C180.099 327.672 178.537 327.78 177.001 327.576C174.105 327.312 174.753 330.296 176.857 330.664Z" fill="#004EFF"/>
<path d="M197.111 187.136C197.111 187.136 192.16 225.664 192.592 250.136C190.712 273.112 187.688 317.056 187.688 317.056C187.784 318.224 193.975 317.76 195.071 317.056C195.071 317.056 209.264 287.4 206.952 250.136C222.72 211.272 221.776 187.136 221.776 187.136H197.111Z" fill="#004EFF"/>
<path opacity="0.2" d="M217.384 218.248C216.16 223.272 214.592 228.832 212.584 234.888C211.992 222.688 208.696 206.36 208.584 205.808L217.384 218.248Z" fill="black"/>
<path d="M203.824 187.136C203.824 187.136 215.096 230.624 219.56 251.984C224.248 274.384 230.816 302.152 229.512 317.056C230.768 317.792 235.256 317.856 237.792 317.056C237.792 317.056 247.44 274.568 235.168 252.976C239.608 199.84 225.568 187.136 225.568 187.136H203.824Z" fill="#004EFF"/>
<path d="M228.977 313.952C228.923 314.978 228.798 316 228.601 317.008C228.581 317.091 228.579 317.178 228.594 317.262C228.61 317.346 228.643 317.426 228.691 317.497C228.739 317.568 228.801 317.628 228.874 317.673C228.947 317.718 229.028 317.748 229.113 317.76C232.129 318.248 236.537 317.544 237.913 317.296C238.043 317.272 238.163 317.208 238.256 317.114C238.349 317.019 238.41 316.899 238.433 316.768L238.969 313.904C238.987 313.814 238.984 313.721 238.961 313.631C238.938 313.542 238.896 313.459 238.837 313.389C238.778 313.318 238.704 313.262 238.62 313.223C238.536 313.185 238.445 313.166 238.353 313.168L229.553 313.336C229.4 313.355 229.258 313.427 229.153 313.539C229.047 313.652 228.985 313.798 228.977 313.952Z" fill="#263238"/>
<path opacity="0.1" d="M228.977 313.952C228.923 314.978 228.798 316 228.601 317.008C228.581 317.091 228.579 317.178 228.594 317.262C228.61 317.346 228.643 317.426 228.691 317.497C228.739 317.568 228.801 317.628 228.874 317.673C228.947 317.718 229.028 317.748 229.113 317.76C232.129 318.248 236.537 317.544 237.913 317.296C238.043 317.272 238.163 317.208 238.256 317.114C238.349 317.019 238.41 316.899 238.433 316.768L238.969 313.904C238.987 313.814 238.984 313.721 238.961 313.631C238.938 313.542 238.896 313.459 238.837 313.389C238.778 313.318 238.704 313.262 238.62 313.223C238.536 313.185 238.445 313.166 238.353 313.168L229.553 313.336C229.4 313.355 229.258 313.427 229.153 313.539C229.047 313.652 228.985 313.798 228.977 313.952Z" fill="white"/>
<path d="M187.088 313.816C187.008 314.616 186.856 316.032 186.704 317.088C186.692 317.169 186.696 317.252 186.716 317.331C186.736 317.411 186.771 317.485 186.82 317.551C186.87 317.616 186.931 317.672 187.002 317.713C187.073 317.754 187.151 317.781 187.232 317.792C189.947 318.014 192.676 317.982 195.384 317.696C195.519 317.684 195.647 317.63 195.75 317.543C195.853 317.456 195.926 317.339 195.96 317.208L196.76 314.352C196.789 314.261 196.796 314.164 196.781 314.07C196.765 313.975 196.728 313.886 196.672 313.808C196.617 313.73 196.543 313.667 196.459 313.622C196.374 313.578 196.28 313.554 196.184 313.552L187.8 313.216C187.714 313.208 187.627 313.218 187.545 313.244C187.462 313.27 187.386 313.312 187.319 313.368C187.253 313.424 187.199 313.492 187.159 313.569C187.119 313.646 187.095 313.73 187.088 313.816Z" fill="#263238"/>
<path opacity="0.1" d="M187.088 313.816C187.008 314.616 186.856 316.032 186.704 317.088C186.692 317.169 186.696 317.252 186.716 317.331C186.736 317.411 186.771 317.485 186.82 317.551C186.87 317.616 186.931 317.672 187.002 317.713C187.073 317.754 187.151 317.781 187.232 317.792C189.947 318.014 192.676 317.982 195.384 317.696C195.519 317.684 195.647 317.63 195.75 317.543C195.853 317.456 195.926 317.339 195.96 317.208L196.76 314.352C196.789 314.261 196.796 314.164 196.781 314.07C196.765 313.975 196.728 313.886 196.672 313.808C196.617 313.73 196.543 313.667 196.459 313.622C196.374 313.578 196.28 313.554 196.184 313.552L187.8 313.216C187.714 313.208 187.627 313.218 187.545 313.244C187.462 313.27 187.386 313.312 187.319 313.368C187.253 313.424 187.199 313.492 187.159 313.569C187.119 313.646 187.095 313.73 187.088 313.816Z" fill="white"/>
<path d="M203.864 146.856C203.367 146.548 202.814 146.342 202.238 146.248C201.661 146.154 201.071 146.175 200.503 146.31C199.934 146.444 199.398 146.69 198.924 147.032C198.451 147.374 198.05 147.806 197.744 148.304C196.608 150.144 195.528 152.032 194.408 153.904C193.288 155.776 192.216 157.648 191.144 159.504C189.392 162.552 187.672 165.616 185.96 168.68C185.6 168.6 185.24 168.512 184.864 168.392C183.513 167.958 182.198 167.423 180.928 166.792C179.592 166.152 178.264 165.416 176.928 164.632C175.592 163.848 174.264 163.032 173.016 162.192L172.904 162.128C172.462 161.839 171.931 161.717 171.407 161.785C170.883 161.852 170.401 162.105 170.047 162.497C169.693 162.888 169.49 163.394 169.475 163.922C169.461 164.45 169.635 164.965 169.968 165.376C170.536 166.096 171.08 166.712 171.672 167.336C172.264 167.96 172.84 168.576 173.456 169.168C174.719 170.361 176.055 171.475 177.456 172.504C178.922 173.581 180.486 174.519 182.128 175.304C183.992 176.218 186.01 176.777 188.08 176.952C188.735 176.998 189.391 176.87 189.981 176.58C190.571 176.291 191.074 175.851 191.44 175.304L191.624 175.032C194.05 171.389 196.418 167.717 198.728 164.016C199.888 162.168 201.024 160.296 202.144 158.416C203.264 156.536 204.384 154.672 205.448 152.752C205.984 151.752 206.118 150.586 205.824 149.49C205.53 148.395 204.828 147.453 203.864 146.856Z" fill="#B55B52"/>
<path d="M163.464 165.016L164.96 166.616C165.237 166.915 165.581 167.143 165.963 167.282C166.346 167.421 166.756 167.467 167.16 167.416L170.984 166.912C171.737 166.811 172.455 166.533 173.08 166.1C173.704 165.668 174.217 165.093 174.576 164.424L175.024 163.624C172.728 160.792 168.16 159.416 168.16 159.416L166.896 158.88C166.641 158.761 166.365 158.695 166.084 158.684C165.804 158.674 165.523 158.719 165.26 158.818C164.997 158.918 164.757 159.068 164.553 159.261C164.349 159.455 164.185 159.687 164.072 159.944L162.976 162.424C162.801 162.858 162.755 163.332 162.841 163.791C162.928 164.251 163.144 164.676 163.464 165.016Z" fill="#B55B52"/>
<path d="M203.08 142.232C197.648 143.256 194.768 147.832 189.424 157.48C190.664 161.072 199.096 164.504 199.096 164.504C199.096 164.504 212 149.24 203.08 142.232Z" fill="#263238"/>
<path d="M223.999 180.352C224.13 182.627 224.397 184.893 224.799 187.136H197.399L197.111 180.144C197.111 180.144 218.279 178.944 223.999 180.352Z" fill="#B55B52"/>
<path d="M194.473 151.84C194.31 156.059 194.374 160.284 194.665 164.496C194.897 169.992 193.865 171.344 194.665 180.352C197.673 182.12 217.481 182.048 227.225 180.792C226.633 172.992 225.905 167.736 231.185 150.2C232.409 146.136 229.681 142.2 225.321 141.808C224.153 141.704 222.921 141.608 221.649 141.552C217.2 141.252 212.737 141.252 208.289 141.552C206.841 141.672 205.337 141.848 203.897 142.032C198.729 142.712 194.633 146.968 194.473 151.84Z" fill="#263238"/>
<path d="M220.737 126.528C219.577 130.824 218.145 138.696 220.937 141.568C220.937 141.568 223.081 145.568 210.409 144.944C201.537 144.488 207.585 141.568 207.585 141.568C212.457 140.424 212.601 136.864 212.017 133.528L220.737 126.528Z" fill="#B55B52"/>
<path opacity="0.2" d="M217.176 129.384L212 133.52C212.152 134.311 212.232 135.114 212.24 135.92C214.088 135.656 216.752 133.64 217.088 131.728C217.264 130.959 217.294 130.164 217.176 129.384Z" fill="black"/>
<path d="M224.473 118.824C223.249 125.36 222.873 128.144 219.137 131.272C213.537 135.992 205.825 133.496 205.089 126.832C204.425 120.84 206.545 111.16 213.273 109C214.703 108.487 216.245 108.367 217.738 108.651C219.231 108.935 220.621 109.614 221.764 110.616C222.906 111.618 223.76 112.908 224.236 114.351C224.713 115.794 224.794 117.339 224.473 118.824Z" fill="#B55B52"/>
<path d="M222.087 118.4C219.535 122.488 222.087 124.52 222.087 124.52L225.039 121.6L222.087 118.4Z" fill="#263238"/>
<path d="M207.871 126.056C207.871 126.056 211.471 125.656 215.071 125.296C213.343 127.752 208.687 128.688 207.871 126.056Z" fill="white"/>
<path d="M214.12 119.912C214.04 120.464 213.688 120.888 213.32 120.864C212.952 120.84 212.744 120.368 212.824 119.816C212.904 119.264 213.256 118.84 213.624 118.864C213.992 118.888 214.2 119.36 214.12 119.912Z" fill="#263238"/>
<path d="M207.448 119.52C207.368 120.072 207.016 120.496 206.648 120.472C206.28 120.448 206.072 119.976 206.152 119.424C206.232 118.872 206.584 118.44 206.952 118.472C207.32 118.504 207.528 118.968 207.448 119.52Z" fill="#263238"/>
<path d="M207.103 118.512L205.855 118.032C205.855 118.032 206.399 119.12 207.103 118.512Z" fill="#263238"/>
<path d="M209.176 120.56C208.51 121.787 207.69 122.924 206.736 123.944C206.99 124.167 207.291 124.329 207.617 124.418C207.943 124.507 208.285 124.52 208.616 124.456L209.176 120.56Z" fill="#A02724"/>
<path d="M225.399 124.4C225.189 125.001 224.856 125.551 224.423 126.016C223.989 126.482 223.463 126.852 222.879 127.104C221.407 127.656 220.575 125.992 220.903 124.208C221.199 122.608 222.319 120.376 223.839 120.608C225.359 120.84 226.007 122.8 225.399 124.4Z" fill="#B55B52"/>
<path d="M213.151 108.232C211.287 112.888 224.927 120.232 225.623 125.968C229.023 120.256 225.743 103.872 213.151 108.232Z" fill="#263238"/>
<path d="M213.975 108C209.223 109.288 207.871 112.8 207.871 112.8C207.871 112.8 217.687 110.312 213.975 108Z" fill="#263238"/>
<path d="M216 116.944C215.957 116.945 215.915 116.936 215.876 116.918C215.837 116.9 215.803 116.873 215.776 116.84C215.516 116.542 215.186 116.314 214.816 116.174C214.447 116.034 214.048 115.988 213.656 116.04C213.616 116.048 213.575 116.048 213.535 116.039C213.495 116.03 213.457 116.013 213.424 115.989C213.391 115.965 213.363 115.934 213.342 115.899C213.322 115.864 213.309 115.825 213.304 115.784C213.292 115.697 213.314 115.61 213.364 115.538C213.415 115.467 213.49 115.417 213.576 115.4C214.071 115.329 214.576 115.383 215.045 115.556C215.515 115.73 215.933 116.017 216.264 116.392C216.319 116.46 216.345 116.546 216.337 116.632C216.33 116.719 216.289 116.799 216.224 116.856C216.16 116.908 216.082 116.938 216 116.944Z" fill="#263238"/>
<path d="M206.185 115.2C206.144 115.205 206.103 115.202 206.065 115.189C206.026 115.177 205.99 115.156 205.961 115.128C205.93 115.098 205.906 115.063 205.89 115.024C205.874 114.984 205.865 114.942 205.865 114.9C205.865 114.858 205.874 114.816 205.89 114.776C205.906 114.737 205.93 114.702 205.961 114.672C206.296 114.268 206.721 113.946 207.201 113.732C207.681 113.519 208.204 113.419 208.729 113.44C208.77 113.446 208.809 113.46 208.844 113.481C208.88 113.503 208.91 113.531 208.934 113.565C208.958 113.599 208.975 113.637 208.984 113.677C208.992 113.718 208.993 113.759 208.985 113.8C208.967 113.885 208.92 113.962 208.851 114.015C208.782 114.067 208.696 114.094 208.609 114.088C208.194 114.077 207.782 114.161 207.404 114.335C207.027 114.508 206.695 114.766 206.433 115.088C206.401 115.122 206.363 115.15 206.32 115.169C206.277 115.188 206.231 115.199 206.185 115.2Z" fill="#263238"/>
<path d="M213.775 118.904L212.527 118.424C212.527 118.424 213.047 119.512 213.775 118.904Z" fill="#263238"/>
<path d="M218.423 169.08H210.751L210.111 156.52H219.063L218.423 169.08Z" fill="#004EFF"/>
<path d="M216.039 165.904H210.559L210.271 159.736H216.039V165.904Z" fill="white"/>
<path d="M219.544 155.92H218.56L218.4 155.28H210.768L210.608 155.92H209.632L209.32 157.128H219.848L219.544 155.92Z" fill="white"/>
<path d="M215.999 159.2L218.183 159.016C218.589 158.981 218.997 159.044 219.374 159.198C219.751 159.353 220.086 159.595 220.351 159.904L222.847 162.848C223.341 163.426 223.688 164.115 223.859 164.856C224.031 165.597 224.021 166.368 223.831 167.104L223.599 168.024C219.991 168.584 215.687 166.528 215.687 166.528L214.399 166.08C214.131 165.996 213.883 165.859 213.668 165.677C213.453 165.496 213.277 165.274 213.149 165.024C213.021 164.774 212.944 164.501 212.922 164.221C212.901 163.94 212.935 163.659 213.023 163.392L213.879 160.816C214.04 160.371 214.325 159.982 214.701 159.695C215.077 159.409 215.528 159.237 215.999 159.2Z" fill="#B55B52"/>
<path d="M237.824 167.056C237.692 165.048 237.424 163.052 237.024 161.08C236.637 159.133 236.14 157.21 235.536 155.32C235.224 154.384 234.896 153.448 234.544 152.52C234.36 152.056 234.184 151.584 233.984 151.12C233.784 150.656 233.592 150.224 233.32 149.664C232.841 148.592 231.958 147.754 230.863 147.331C229.769 146.909 228.551 146.937 227.477 147.41C226.403 147.882 225.56 148.761 225.131 149.853C224.703 150.946 224.725 152.163 225.192 153.24L225.28 153.472L225.712 154.536L226.168 155.704C226.472 156.504 226.744 157.304 227.008 158.104C227.544 159.704 228.008 161.344 228.424 162.976C228.84 164.608 229.136 166.256 229.376 167.888C229.424 168.2 229.456 168.504 229.496 168.816L229.416 168.76C228.392 168 227.368 167.16 226.344 166.288L223.264 163.648L223.208 163.6C222.81 163.265 222.308 163.078 221.788 163.073C221.268 163.067 220.763 163.242 220.358 163.568C219.953 163.895 219.674 164.352 219.569 164.861C219.465 165.37 219.54 165.9 219.784 166.36C220.485 167.649 221.257 168.899 222.096 170.104C222.931 171.319 223.834 172.486 224.8 173.6C225.304 174.176 225.848 174.736 226.4 175.304C227.045 175.928 227.75 176.488 228.504 176.976C228.989 177.291 229.503 177.559 230.04 177.776C230.862 178.115 231.751 178.262 232.64 178.208C233.299 178.167 233.945 178.002 234.544 177.72C235.149 177.42 235.692 177.007 236.144 176.504C236.781 175.791 237.249 174.943 237.512 174.024C237.577 173.83 237.617 173.628 237.632 173.424V173.184C237.858 171.15 237.923 169.101 237.824 167.056Z" fill="#B55B52"/>
<path d="M225.601 141.88C230.401 142.616 232.313 144.072 236.225 153.696C234.449 157.288 226.129 160.72 226.129 160.72C226.129 160.72 220.641 148.256 225.601 141.88Z" fill="#263238"/>
<path d="M197.056 189.232C206.872 190.317 216.78 190.299 226.592 189.176C226.695 189.161 226.793 189.121 226.878 189.062C226.964 189.002 227.034 188.923 227.083 188.832C227.133 188.74 227.161 188.638 227.164 188.534C227.168 188.43 227.147 188.327 227.104 188.232C226.864 187.672 226.624 187.104 226.392 186.536C226.342 186.41 226.253 186.304 226.137 186.233C226.022 186.162 225.887 186.131 225.752 186.144C216.317 187.188 206.795 187.188 197.36 186.144C197.276 186.136 197.191 186.146 197.11 186.172C197.029 186.197 196.955 186.239 196.891 186.294C196.826 186.35 196.774 186.417 196.736 186.493C196.699 186.569 196.677 186.651 196.672 186.736C196.616 187.328 196.552 187.912 196.496 188.496C196.473 188.668 196.519 188.842 196.624 188.979C196.729 189.117 196.884 189.208 197.056 189.232Z" fill="#263238"/>
<path d="M270.096 330.176C275.824 329.736 279.696 325.8 279.28 321.64C279.056 319.336 286.4 319.136 286.4 319.136C285.24 326.256 286.696 327.272 287.2 329.112C287.704 330.952 287.56 332.984 286.04 333.024C284.224 333.072 283.376 332.72 281.112 332.808C278.472 332.912 275.616 333.016 270.92 333.024C269.016 333.032 267.552 330.4 270.096 330.176Z" fill="#004EFF"/>
<path d="M261.729 196C261.729 196 262.753 229.376 267.617 254.52C268.769 275.8 278.817 322.584 278.817 322.584C281.324 323.176 283.937 323.151 286.433 322.512C286.433 322.512 291.513 288.336 286.433 254.16C290.145 218.336 288.881 196 288.881 196H261.729Z" fill="#263238"/>
<path opacity="0.2" d="M289.064 212.632C288.888 222.648 288.264 236.832 286.464 254.184C286.84 256.744 287.144 259.32 287.376 261.872C274.928 241.272 272 208.712 289.064 212.632Z" fill="black"/>
<path d="M330.112 319.2C328.018 316.957 326.241 314.438 324.832 311.712C324.832 311.712 318.28 313.312 319.568 315.216C321.904 318.648 323.04 325.688 320.032 329.472C318.312 331.624 321.032 331.984 322.824 331.072C325.68 329.6 325.56 329.056 327.048 326.632C328.312 324.552 328.816 323.736 330.56 322.848C332 322.072 331.312 320.632 330.112 319.2Z" fill="#004EFF"/>
<path d="M271.625 196C271.625 196 282.665 242.4 289.625 262.192C296.937 282.992 318.425 315.096 319.225 316.48C322.097 315.68 324.657 314.712 326.361 313.04C326.361 313.04 318.177 279.736 308.937 257.144C305.417 210.016 293.553 196 293.553 196H271.625Z" fill="#263238"/>
<path d="M239.304 152.8L238.784 150.08C238.591 149.094 238.145 148.176 237.488 147.416L236.256 145.976C235.859 145.515 235.313 145.207 234.712 145.106C234.112 145.005 233.495 145.118 232.968 145.424L231.368 146.376C231.07 146.549 230.809 146.78 230.601 147.056C230.393 147.331 230.241 147.645 230.156 147.979C230.07 148.313 230.052 148.662 230.102 149.003C230.152 149.344 230.27 149.672 230.448 149.968L231.248 151.352C231.248 151.352 233.08 155.456 236.224 157.168L237.024 156.6C237.676 156.19 238.222 155.632 238.618 154.972C239.014 154.312 239.249 153.568 239.304 152.8Z" fill="#7F3E3B"/>
<path d="M268.28 156.888C267.71 156.574 267.085 156.376 266.439 156.304C265.793 156.233 265.139 156.289 264.515 156.471C263.891 156.652 263.309 156.954 262.801 157.361C262.294 157.768 261.872 158.27 261.56 158.84C261.56 158.792 261.52 158.896 261.488 158.936L261.36 159.128L261.064 159.544C260.864 159.824 260.656 160.112 260.432 160.392C259.984 160.952 259.52 161.512 259.032 161.992C258.091 163.009 257.042 163.921 255.904 164.712C254.837 165.45 253.671 166.032 252.44 166.44C251.832 166.631 251.212 166.78 250.584 166.888C250.469 166.896 250.354 166.896 250.24 166.888C249.958 166.694 249.691 166.48 249.44 166.248C248.879 165.726 248.345 165.176 247.84 164.6C246.768 163.4 245.736 162.04 244.696 160.672C242.632 157.92 240.608 154.992 238.584 152.128L238.544 152.072C238.197 151.595 237.692 151.256 237.118 151.118C236.545 150.98 235.941 151.05 235.415 151.317C234.888 151.584 234.475 152.03 234.248 152.574C234.021 153.119 233.995 153.726 234.176 154.288C235.357 157.8 236.795 161.22 238.48 164.52C239.345 166.229 240.301 167.89 241.344 169.496C241.896 170.296 242.488 171.144 243.184 171.992C243.985 172.985 244.919 173.863 245.96 174.6C246.849 175.214 247.862 175.626 248.928 175.808C249.118 175.84 249.311 175.859 249.504 175.864H249.8H250.4C250.688 175.864 250.976 175.864 251.264 175.864C252.421 175.822 253.572 175.681 254.704 175.44C256.945 174.954 259.091 174.102 261.056 172.92C262.947 171.799 264.68 170.429 266.208 168.848C266.953 168.087 267.655 167.286 268.312 166.448C268.64 166.024 268.952 165.584 269.264 165.128L269.712 164.416L269.936 164.04L270.2 163.568C270.821 162.426 270.968 161.084 270.609 159.835C270.249 158.585 269.413 157.526 268.28 156.888Z" fill="#7F3E3B"/>
<path d="M260.424 163.528C260.544 166.24 256.256 172.52 261.544 176.16C260.56 178.368 259.72 193.344 261.728 196.024C264.648 198.168 280.448 197.752 293.552 196.024C294.104 190.608 291.152 179.392 294.776 161.896C294.977 160.938 294.975 159.949 294.769 158.993C294.562 158.036 294.157 157.134 293.579 156.345C293.001 155.555 292.263 154.897 291.413 154.411C290.564 153.926 289.622 153.625 288.648 153.528C287.544 153.416 286.384 153.32 285.184 153.264C281.011 152.964 276.821 152.964 272.648 153.264C271.296 153.384 269.896 153.56 268.56 153.744C266.232 154.075 264.11 155.26 262.607 157.068C261.103 158.876 260.325 161.178 260.424 163.528Z" fill="#004EFF"/>
<path d="M285.6 139.152C284.6 143.152 283.624 149.76 285.216 153.264C285.216 153.264 278.4 154.184 270.816 160.256C269.528 154.16 272.24 153.304 272.24 153.304C275.44 152.568 275.904 148.72 275.904 145.72L285.6 139.152Z" fill="#7F3E3B"/>
<path opacity="0.2" d="M275.849 145.72L281.377 141.984C281.427 142.829 281.257 143.673 280.881 144.432C279.719 146.613 277.823 148.313 275.529 149.232C275.758 148.076 275.865 146.899 275.849 145.72Z" fill="black"/>
<path d="M288.2 131.752C286.6 138.312 286.096 141.12 282.208 143.944C276.36 148.184 268.808 144.84 268.432 137.944C268.088 131.736 270.72 122.056 277.552 120.544C284.384 119.032 289.768 125.192 288.2 131.752Z" fill="#7F3E3B"/>
<path d="M286.785 135.624C283.961 131.816 285.345 128.792 286.785 127.712C281.009 125.848 274.129 127.2 272.561 123.712C273.609 118.76 275.225 114.112 277.977 110.2C281.505 105.208 296.697 113.568 299.537 123.28C300.505 126.52 288.473 139.44 286.785 135.624Z" fill="#263238"/>
<path d="M277.601 132.456C277.505 133 277.137 133.384 276.801 133.32C276.465 133.256 276.241 132.768 276.337 132.232C276.433 131.696 276.793 131.304 277.137 131.368C277.481 131.432 277.721 131.92 277.601 132.456Z" fill="#263238"/>
<path d="M270.968 131.376C270.872 131.912 270.504 132.304 270.168 132.24C269.832 132.176 269.608 131.688 269.704 131.152C269.8 130.616 270.168 130.224 270.504 130.288C270.84 130.352 271.064 130.84 270.968 131.376Z" fill="#263238"/>
<path d="M270.648 130.344L269.424 129.736C269.424 129.736 269.904 130.872 270.648 130.344Z" fill="#263238"/>
<path d="M272.577 131.816C271.879 132.96 271.028 134.004 270.049 134.92C270.288 135.165 270.578 135.356 270.899 135.477C271.22 135.599 271.563 135.649 271.905 135.624L272.577 131.816Z" fill="#630F0F"/>
<path d="M288.681 137.864C288.433 138.43 288.069 138.936 287.611 139.35C287.153 139.764 286.612 140.075 286.025 140.264C284.521 140.68 283.785 139.032 284.209 137.368C284.593 135.872 285.809 133.848 287.329 134.168C288.849 134.488 289.369 136.392 288.681 137.864Z" fill="#7F3E3B"/>
<path d="M288.097 141.64C288.097 142.05 287.976 142.45 287.748 142.791C287.52 143.132 287.197 143.397 286.818 143.554C286.439 143.711 286.023 143.752 285.621 143.672C285.219 143.592 284.85 143.395 284.56 143.105C284.27 142.815 284.073 142.446 283.993 142.044C283.913 141.642 283.954 141.226 284.111 140.847C284.268 140.468 284.533 140.145 284.874 139.917C285.215 139.69 285.615 139.568 286.025 139.568C286.575 139.568 287.102 139.786 287.49 140.175C287.879 140.563 288.097 141.09 288.097 141.64Z" fill="#004EFF"/>
<path d="M279.433 130.4C279.391 130.388 279.351 130.366 279.318 130.337C279.285 130.308 279.259 130.272 279.241 130.232C279.068 129.866 278.813 129.546 278.495 129.296C278.177 129.046 277.805 128.874 277.409 128.792C277.325 128.782 277.249 128.739 277.197 128.673C277.144 128.608 277.12 128.524 277.129 128.44C277.141 128.355 277.185 128.278 277.252 128.225C277.319 128.171 277.403 128.145 277.489 128.152C277.993 128.244 278.467 128.455 278.872 128.769C279.277 129.082 279.601 129.488 279.817 129.952C279.836 129.989 279.847 130.03 279.85 130.071C279.853 130.113 279.848 130.155 279.834 130.194C279.821 130.234 279.8 130.27 279.772 130.302C279.744 130.333 279.711 130.358 279.673 130.376C279.599 130.415 279.513 130.424 279.433 130.4Z" fill="#263238"/>
<path d="M268.984 127.832C268.944 127.828 268.905 127.815 268.871 127.794C268.836 127.773 268.806 127.745 268.784 127.712C268.732 127.645 268.709 127.56 268.719 127.476C268.73 127.393 268.773 127.316 268.84 127.264C269.24 126.944 269.711 126.724 270.214 126.624C270.716 126.524 271.235 126.546 271.728 126.688C271.808 126.717 271.874 126.776 271.911 126.853C271.948 126.931 271.952 127.019 271.924 127.1C271.895 127.181 271.836 127.247 271.758 127.283C271.681 127.32 271.592 127.325 271.512 127.296C271.121 127.189 270.71 127.176 270.314 127.26C269.917 127.343 269.546 127.52 269.232 127.776C269.197 127.803 269.157 127.822 269.114 127.831C269.071 127.841 269.027 127.841 268.984 127.832Z" fill="#263238"/>
<path d="M277.304 131.424L276.08 130.824C276.08 130.824 276.56 131.952 277.304 131.424Z" fill="#263238"/>
<path opacity="0.2" d="M294.144 165.288C293.507 169.007 293.12 172.765 292.984 176.536C289.968 172.352 286.544 164.768 286.736 161.224L294.144 165.288Z" fill="black"/>
<path d="M275.488 176.712L272.768 173.056L267.768 178.608C267.768 178.608 271.096 181.608 274.584 181.912L275.088 181.064C275.489 180.42 275.734 179.691 275.803 178.935C275.872 178.18 275.764 177.418 275.488 176.712Z" fill="#7F3E3B"/>
<path d="M267.752 172.8L266.272 174.952C265.949 175.423 265.826 176.002 265.927 176.564C266.029 177.125 266.348 177.624 266.816 177.952L267.768 178.616L272.768 173.064L270.4 172C269.934 171.806 269.415 171.779 268.932 171.925C268.449 172.071 268.032 172.38 267.752 172.8Z" fill="#7F3E3B"/>
<path d="M297.969 171.504C297.618 169.267 297.134 167.052 296.521 164.872C296.217 163.792 295.889 162.728 295.537 161.672C295.361 161.136 295.185 160.608 294.993 160.072C294.801 159.536 294.601 159.048 294.345 158.424C293.883 157.197 292.952 156.203 291.757 155.662C290.562 155.121 289.201 155.077 287.973 155.54C286.746 156.003 285.752 156.934 285.212 158.129C284.671 159.324 284.627 160.685 285.089 161.912L285.153 162.088L285.601 163.392L286.065 164.776C286.369 165.704 286.657 166.64 286.921 167.584C287.465 169.456 287.921 171.336 288.305 173.184C288.668 174.965 288.903 176.77 289.009 178.584C289.044 179.454 289.018 180.326 288.929 181.192H288.801C287.366 180.955 285.951 180.607 284.569 180.152C283.081 179.696 281.569 179.144 280.049 178.552C278.529 177.96 276.985 177.36 275.489 176.784H275.393C274.849 176.578 274.249 176.57 273.699 176.761C273.15 176.953 272.685 177.332 272.386 177.832C272.088 178.331 271.974 178.92 272.066 179.495C272.158 180.07 272.45 180.594 272.889 180.976C274.229 182.116 275.629 183.184 277.081 184.176C278.547 185.187 280.063 186.122 281.625 186.976C283.304 187.907 285.073 188.665 286.905 189.24C288.04 189.591 289.215 189.796 290.401 189.848C291.224 189.883 292.047 189.792 292.841 189.576C293.973 189.273 295.01 188.69 295.857 187.88C296.218 187.521 296.508 187.098 296.713 186.632L296.785 186.48C297.851 183.985 298.414 181.305 298.441 178.592C298.498 176.22 298.34 173.848 297.969 171.504Z" fill="#7F3E3B"/>
<path d="M270.64 137.24C272.969 137.071 275.307 137.093 277.632 137.304C276.912 138.576 275.704 139.576 273.072 139.4C270.44 139.224 270.64 137.24 270.64 137.24Z" fill="#263238"/>
<path d="M274.4 138.44C273.403 138.326 272.393 138.486 271.48 138.904C271.959 139.21 272.513 139.379 273.08 139.392C274.075 139.507 275.081 139.35 275.992 138.936C275.516 138.63 274.966 138.459 274.4 138.44Z" fill="#630F0F"/>
<path d="M270.873 137.216C270.922 137.39 271.019 137.547 271.151 137.67C271.284 137.792 271.448 137.876 271.625 137.912C273.147 138.006 274.674 137.99 276.193 137.864C276.426 137.871 276.657 137.823 276.868 137.724C277.079 137.625 277.265 137.479 277.409 137.296C275.235 137.125 273.051 137.098 270.873 137.216Z" fill="white"/>
<path d="M270.168 153.8C270.096 153.799 270.027 153.77 269.976 153.72C269.953 153.694 269.934 153.664 269.92 153.632C269.912 153.6 269.912 153.567 269.92 153.536C269.92 153.465 269.945 153.397 269.992 153.344C270.018 153.321 270.048 153.302 270.08 153.288C270.144 153.264 270.215 153.264 270.28 153.288C270.312 153.302 270.342 153.321 270.368 153.344C270.394 153.368 270.413 153.398 270.424 153.432C270.432 153.466 270.432 153.502 270.424 153.536C270.431 153.568 270.431 153.6 270.424 153.632C270.413 153.666 270.394 153.696 270.368 153.72C270.342 153.747 270.311 153.767 270.276 153.781C270.242 153.795 270.205 153.801 270.168 153.8Z" fill="white"/>
<path d="M268 168C268 167.929 268.028 167.861 268.077 167.81C268.127 167.76 268.194 167.73 268.264 167.728C268.334 167.728 268.402 167.756 268.451 167.805C268.501 167.855 268.528 167.922 268.528 167.992C268.529 168.063 268.501 168.131 268.452 168.181C268.402 168.232 268.335 168.262 268.264 168.264C268.194 168.264 268.127 168.236 268.078 168.187C268.028 168.137 268 168.07 268 168ZM269.408 167.888C269.4 167.854 269.399 167.818 269.404 167.784C269.41 167.749 269.423 167.716 269.441 167.686C269.46 167.656 269.484 167.63 269.513 167.61C269.542 167.59 269.574 167.575 269.608 167.568C269.677 167.555 269.748 167.569 269.807 167.606C269.866 167.643 269.91 167.701 269.928 167.768C269.941 167.838 269.926 167.909 269.887 167.969C269.849 168.028 269.789 168.071 269.72 168.088H269.6C269.547 168.083 269.496 168.063 269.454 168.028C269.413 167.994 269.383 167.948 269.368 167.896L269.408 167.888ZM266.792 168.032C266.759 168.021 266.729 168.004 266.702 167.981C266.676 167.958 266.654 167.93 266.638 167.899C266.623 167.868 266.613 167.834 266.611 167.799C266.609 167.764 266.613 167.729 266.624 167.696C266.635 167.662 266.653 167.63 266.676 167.603C266.7 167.576 266.728 167.554 266.76 167.538C266.793 167.522 266.828 167.513 266.863 167.512C266.899 167.51 266.935 167.515 266.968 167.528C267.034 167.551 267.088 167.6 267.118 167.663C267.148 167.726 267.152 167.798 267.128 167.864C267.111 167.916 267.077 167.962 267.033 167.995C266.989 168.027 266.936 168.046 266.88 168.048L266.792 168.032ZM270.792 167.496C270.766 167.431 270.766 167.359 270.793 167.294C270.82 167.23 270.872 167.179 270.936 167.152C271.001 167.125 271.074 167.126 271.138 167.153C271.203 167.18 271.254 167.231 271.28 167.296C271.307 167.36 271.308 167.431 271.283 167.496C271.257 167.56 271.208 167.612 271.144 167.64H271.04C270.98 167.657 270.915 167.652 270.857 167.628C270.799 167.603 270.751 167.559 270.72 167.504L270.792 167.496ZM265.536 167.224C265.512 167.199 265.492 167.17 265.478 167.138C265.465 167.106 265.458 167.071 265.458 167.036C265.458 167.001 265.465 166.966 265.478 166.934C265.492 166.902 265.512 166.872 265.536 166.848C265.561 166.823 265.59 166.803 265.623 166.79C265.655 166.776 265.69 166.769 265.724 166.769C265.759 166.769 265.794 166.776 265.826 166.79C265.859 166.803 265.888 166.823 265.912 166.848C265.938 166.872 265.959 166.901 265.973 166.933C265.987 166.966 265.995 167.001 265.995 167.036C265.995 167.071 265.987 167.106 265.973 167.139C265.959 167.171 265.938 167.2 265.912 167.224C265.89 167.25 265.861 167.271 265.83 167.285C265.798 167.299 265.763 167.305 265.728 167.304C265.679 167.317 265.627 167.314 265.579 167.295C265.532 167.276 265.492 167.243 265.464 167.2L265.536 167.224ZM272.064 166.88C272.046 166.851 272.033 166.818 272.028 166.784C272.022 166.75 272.023 166.715 272.031 166.681C272.04 166.647 272.055 166.616 272.075 166.588C272.096 166.56 272.122 166.537 272.152 166.52C272.182 166.501 272.214 166.489 272.249 166.483C272.283 166.477 272.318 166.479 272.351 166.487C272.385 166.495 272.417 166.51 272.444 166.531C272.472 166.552 272.495 166.578 272.512 166.608C272.531 166.637 272.544 166.67 272.549 166.704C272.555 166.738 272.554 166.773 272.546 166.807C272.537 166.84 272.522 166.872 272.502 166.9C272.481 166.927 272.455 166.951 272.424 166.968C272.383 166.993 272.337 167.007 272.288 167.008C272.234 167.024 272.176 167.021 272.123 166.999C272.071 166.977 272.027 166.938 272 166.888L272.064 166.88ZM273.232 166.08C273.19 166.023 273.171 165.952 273.18 165.882C273.189 165.812 273.225 165.748 273.28 165.704C273.307 165.682 273.339 165.666 273.372 165.656C273.405 165.647 273.44 165.644 273.475 165.649C273.509 165.653 273.542 165.665 273.572 165.683C273.602 165.7 273.628 165.724 273.648 165.752C273.691 165.806 273.711 165.875 273.704 165.944C273.696 166.013 273.662 166.076 273.608 166.12C273.561 166.157 273.501 166.177 273.44 166.176C273.392 166.191 273.34 166.193 273.29 166.18C273.241 166.167 273.196 166.141 273.16 166.104L273.232 166.08ZM264.72 165.936C264.691 165.88 264.683 165.815 264.698 165.753C264.713 165.691 264.749 165.637 264.8 165.6C264.833 165.587 264.868 165.581 264.903 165.581C264.938 165.582 264.972 165.59 265.004 165.604C265.036 165.618 265.065 165.638 265.089 165.664C265.113 165.689 265.132 165.719 265.144 165.752C265.168 165.818 265.166 165.89 265.138 165.954C265.109 166.019 265.057 166.069 264.992 166.096H264.896C264.847 166.098 264.797 166.087 264.753 166.063C264.71 166.039 264.673 166.003 264.648 165.96L264.72 165.936ZM274.32 165.136C274.272 165.085 274.245 165.018 274.245 164.948C274.245 164.878 274.272 164.811 274.32 164.76C274.371 164.712 274.438 164.685 274.508 164.685C274.579 164.685 274.646 164.712 274.696 164.76C274.721 164.784 274.741 164.814 274.755 164.846C274.768 164.878 274.775 164.913 274.775 164.948C274.775 164.983 274.768 165.018 274.755 165.05C274.741 165.082 274.721 165.111 274.696 165.136C274.672 165.16 274.643 165.178 274.612 165.19C274.58 165.203 274.546 165.209 274.512 165.208C274.47 165.229 274.422 165.239 274.374 165.236C274.327 165.234 274.28 165.218 274.24 165.192L274.32 165.136ZM264.392 164.464C264.386 164.393 264.407 164.322 264.452 164.267C264.497 164.212 264.562 164.176 264.632 164.168C264.702 164.163 264.771 164.186 264.824 164.23C264.878 164.275 264.912 164.339 264.92 164.408C264.925 164.443 264.922 164.478 264.912 164.512C264.902 164.546 264.886 164.577 264.863 164.604C264.841 164.631 264.813 164.653 264.781 164.669C264.75 164.685 264.716 164.694 264.68 164.696C264.645 164.712 264.607 164.721 264.568 164.721C264.529 164.721 264.49 164.712 264.455 164.695C264.42 164.678 264.389 164.654 264.364 164.623C264.339 164.593 264.322 164.558 264.312 164.52L264.392 164.464ZM275.328 164.144C275.304 164.119 275.284 164.09 275.27 164.058C275.257 164.026 275.25 163.991 275.25 163.956C275.25 163.921 275.257 163.886 275.27 163.854C275.284 163.822 275.304 163.793 275.328 163.768C275.353 163.743 275.382 163.723 275.415 163.71C275.447 163.696 275.481 163.689 275.516 163.689C275.551 163.689 275.586 163.696 275.618 163.71C275.651 163.723 275.68 163.743 275.704 163.768C275.729 163.793 275.749 163.822 275.763 163.854C275.776 163.886 275.783 163.921 275.783 163.956C275.783 163.991 275.776 164.026 275.763 164.058C275.749 164.09 275.729 164.119 275.704 164.144C275.68 164.17 275.65 164.191 275.617 164.205C275.584 164.219 275.548 164.225 275.512 164.224C275.47 164.242 275.424 164.249 275.377 164.245C275.331 164.241 275.287 164.225 275.248 164.2L275.328 164.144ZM264.64 163.288C264.572 163.28 264.509 163.245 264.466 163.191C264.422 163.137 264.402 163.069 264.408 163C264.41 162.965 264.42 162.93 264.435 162.899C264.451 162.868 264.473 162.84 264.5 162.817C264.527 162.795 264.559 162.778 264.592 162.768C264.626 162.758 264.662 162.755 264.696 162.76C264.765 162.768 264.828 162.803 264.871 162.857C264.915 162.91 264.935 162.979 264.928 163.048C264.922 163.114 264.892 163.175 264.843 163.219C264.794 163.264 264.731 163.288 264.664 163.288H264.64ZM276.288 163.096C276.264 163.072 276.244 163.043 276.231 163.012C276.217 162.98 276.21 162.946 276.21 162.912C276.21 162.878 276.217 162.844 276.231 162.812C276.244 162.78 276.264 162.752 276.288 162.728C276.339 162.68 276.406 162.653 276.476 162.653C276.547 162.653 276.614 162.68 276.664 162.728C276.689 162.752 276.709 162.782 276.723 162.814C276.736 162.846 276.743 162.881 276.743 162.916C276.743 162.951 276.736 162.986 276.723 163.018C276.709 163.05 276.689 163.079 276.664 163.104C276.641 163.135 276.611 163.16 276.576 163.176C276.541 163.193 276.503 163.201 276.464 163.2C276.422 163.217 276.375 163.222 276.329 163.214C276.284 163.205 276.242 163.184 276.208 163.152L276.288 163.096ZM277.208 162.024C277.181 162.002 277.158 161.975 277.141 161.944C277.124 161.913 277.113 161.879 277.109 161.844C277.105 161.809 277.109 161.774 277.119 161.74C277.129 161.706 277.146 161.675 277.168 161.648C277.193 161.623 277.222 161.603 277.255 161.59C277.287 161.576 277.322 161.569 277.356 161.569C277.391 161.569 277.426 161.576 277.458 161.59C277.491 161.603 277.52 161.623 277.544 161.648C277.569 161.672 277.589 161.702 277.603 161.734C277.616 161.766 277.623 161.801 277.623 161.836C277.623 161.871 277.616 161.906 277.603 161.938C277.589 161.97 277.569 161.999 277.544 162.024C277.52 162.054 277.49 162.078 277.455 162.095C277.421 162.111 277.383 162.12 277.344 162.12C277.308 162.13 277.269 162.131 277.232 162.124C277.195 162.117 277.159 162.102 277.128 162.08L277.208 162.024ZM264.8 161.944C264.766 161.937 264.734 161.922 264.706 161.902C264.677 161.881 264.653 161.855 264.635 161.825C264.617 161.795 264.606 161.762 264.601 161.727C264.596 161.693 264.599 161.658 264.608 161.624C264.616 161.59 264.63 161.557 264.651 161.529C264.671 161.501 264.697 161.477 264.727 161.459C264.757 161.441 264.79 161.429 264.825 161.424C264.86 161.42 264.895 161.422 264.928 161.432C264.996 161.449 265.055 161.492 265.091 161.552C265.127 161.612 265.137 161.684 265.12 161.752C265.106 161.809 265.073 161.86 265.027 161.896C264.981 161.932 264.923 161.952 264.864 161.952H264.8V161.944ZM278.056 160.992C278.008 160.941 277.981 160.874 277.981 160.804C277.981 160.734 278.008 160.667 278.056 160.616C278.102 160.562 278.166 160.527 278.236 160.52C278.307 160.512 278.377 160.533 278.432 160.576C278.457 160.6 278.477 160.63 278.491 160.662C278.504 160.694 278.511 160.729 278.511 160.764C278.511 160.799 278.504 160.834 278.491 160.866C278.477 160.898 278.457 160.927 278.432 160.952C278.408 160.982 278.378 161.006 278.343 161.023C278.309 161.039 278.271 161.048 278.232 161.048C278.196 161.054 278.158 161.052 278.123 161.042C278.087 161.032 278.053 161.015 278.024 160.992H278.056ZM265.192 160.584C265.159 160.573 265.129 160.556 265.103 160.533C265.076 160.51 265.055 160.482 265.04 160.45C265.025 160.419 265.017 160.385 265.015 160.35C265.014 160.315 265.02 160.28 265.032 160.248C265.044 160.214 265.062 160.184 265.086 160.157C265.11 160.131 265.138 160.11 265.171 160.095C265.203 160.08 265.237 160.072 265.273 160.071C265.308 160.069 265.343 160.075 265.376 160.088C265.409 160.1 265.439 160.119 265.465 160.143C265.49 160.167 265.51 160.196 265.524 160.228C265.539 160.26 265.546 160.295 265.547 160.33C265.548 160.365 265.541 160.399 265.528 160.432C265.509 160.482 265.475 160.525 265.431 160.555C265.386 160.585 265.334 160.6 265.28 160.6C265.24 160.611 265.197 160.605 265.16 160.584H265.192ZM278.952 159.896C278.928 159.871 278.908 159.842 278.894 159.81C278.881 159.778 278.874 159.743 278.874 159.708C278.874 159.673 278.881 159.638 278.894 159.606C278.908 159.574 278.928 159.544 278.952 159.52C278.998 159.466 279.062 159.431 279.132 159.424C279.203 159.416 279.273 159.437 279.328 159.48C279.353 159.505 279.373 159.534 279.387 159.566C279.4 159.598 279.407 159.633 279.407 159.668C279.407 159.703 279.4 159.738 279.387 159.77C279.373 159.802 279.353 159.831 279.328 159.856C279.304 159.886 279.274 159.91 279.239 159.927C279.205 159.943 279.167 159.952 279.128 159.952C279.092 159.959 279.054 159.957 279.018 159.948C278.982 159.938 278.949 159.92 278.92 159.896H278.952ZM265.728 159.28C265.696 159.266 265.666 159.244 265.642 159.218C265.618 159.192 265.6 159.16 265.589 159.127C265.577 159.093 265.573 159.057 265.577 159.021C265.58 158.986 265.591 158.951 265.608 158.92C265.639 158.858 265.694 158.81 265.76 158.787C265.826 158.765 265.898 158.769 265.96 158.8C266.023 158.832 266.071 158.888 266.094 158.956C266.116 159.023 266.111 159.096 266.08 159.16C266.057 159.203 266.022 159.239 265.98 159.264C265.938 159.289 265.89 159.303 265.84 159.304C265.791 159.31 265.741 159.302 265.696 159.28H265.728ZM279.856 158.808C279.832 158.783 279.812 158.754 279.798 158.722C279.785 158.69 279.778 158.655 279.778 158.62C279.778 158.585 279.785 158.55 279.798 158.518C279.812 158.486 279.832 158.456 279.856 158.432C279.881 158.407 279.91 158.387 279.943 158.374C279.975 158.36 280.009 158.353 280.044 158.353C280.079 158.353 280.114 158.36 280.146 158.374C280.179 158.387 280.208 158.407 280.232 158.432C280.257 158.456 280.277 158.486 280.291 158.518C280.304 158.55 280.311 158.585 280.311 158.62C280.311 158.655 280.304 158.69 280.291 158.722C280.277 158.754 280.257 158.783 280.232 158.808C280.207 158.838 280.175 158.862 280.139 158.879C280.103 158.895 280.064 158.904 280.024 158.904C279.986 158.903 279.949 158.894 279.914 158.877C279.88 158.861 279.849 158.837 279.824 158.808H279.856ZM266.384 158.008C266.326 157.969 266.285 157.909 266.269 157.841C266.253 157.773 266.262 157.701 266.296 157.64C266.336 157.582 266.395 157.541 266.463 157.524C266.532 157.508 266.603 157.518 266.664 157.552C266.723 157.591 266.764 157.651 266.78 157.719C266.796 157.787 266.787 157.859 266.752 157.92C266.729 157.959 266.696 157.991 266.657 158.013C266.618 158.036 266.574 158.048 266.528 158.048C266.469 158.059 266.409 158.053 266.352 158.032L266.384 158.008ZM280.784 157.72C280.76 157.695 280.74 157.666 280.726 157.634C280.713 157.602 280.706 157.567 280.706 157.532C280.706 157.497 280.713 157.462 280.726 157.43C280.74 157.398 280.76 157.368 280.784 157.344C280.808 157.318 280.838 157.297 280.87 157.283C280.902 157.269 280.937 157.262 280.972 157.262C281.008 157.262 281.043 157.269 281.075 157.283C281.107 157.297 281.137 157.318 281.16 157.344C281.208 157.393 281.235 157.459 281.235 157.528C281.235 157.597 281.208 157.663 281.16 157.712C281.136 157.74 281.105 157.763 281.07 157.778C281.036 157.794 280.998 157.801 280.96 157.8C280.924 157.805 280.887 157.802 280.851 157.793C280.815 157.783 280.782 157.767 280.752 157.744L280.784 157.72ZM267.184 156.816C267.156 156.796 267.132 156.771 267.113 156.741C267.095 156.711 267.082 156.678 267.077 156.644C267.072 156.61 267.074 156.574 267.083 156.541C267.091 156.507 267.107 156.475 267.128 156.448C267.171 156.391 267.235 156.354 267.305 156.343C267.375 156.333 267.447 156.35 267.504 156.392C267.559 156.435 267.595 156.496 267.605 156.565C267.616 156.633 267.6 156.703 267.56 156.76C267.535 156.794 267.503 156.821 267.465 156.841C267.428 156.86 267.387 156.871 267.344 156.872C267.307 156.885 267.268 156.889 267.229 156.883C267.19 156.877 267.153 156.863 267.12 156.84L267.184 156.816ZM281.784 156.688C281.76 156.663 281.74 156.634 281.726 156.602C281.713 156.57 281.706 156.535 281.706 156.5C281.706 156.465 281.713 156.43 281.726 156.398C281.74 156.366 281.76 156.336 281.784 156.312C281.809 156.287 281.838 156.267 281.871 156.254C281.903 156.24 281.938 156.233 281.972 156.233C282.007 156.233 282.042 156.24 282.074 156.254C282.107 156.267 282.136 156.287 282.16 156.312C282.185 156.336 282.205 156.366 282.219 156.398C282.232 156.43 282.239 156.465 282.239 156.5C282.239 156.535 282.232 156.57 282.219 156.602C282.205 156.634 282.185 156.663 282.16 156.688C282.111 156.735 282.045 156.761 281.976 156.76C281.933 156.773 281.887 156.775 281.843 156.767C281.798 156.758 281.756 156.739 281.72 156.712L281.784 156.688ZM282.808 155.712C282.76 155.661 282.733 155.594 282.733 155.524C282.733 155.454 282.76 155.387 282.808 155.336C282.833 155.311 282.862 155.291 282.895 155.278C282.927 155.264 282.961 155.257 282.996 155.257C283.031 155.257 283.066 155.264 283.098 155.278C283.131 155.291 283.16 155.311 283.184 155.336C283.209 155.36 283.229 155.39 283.243 155.422C283.256 155.454 283.263 155.489 283.263 155.524C283.263 155.559 283.256 155.594 283.243 155.626C283.229 155.658 283.209 155.687 283.184 155.712C283.135 155.753 283.073 155.775 283.008 155.776C282.965 155.791 282.918 155.795 282.872 155.788C282.826 155.781 282.782 155.763 282.744 155.736L282.808 155.712ZM268.048 155.712C268.024 155.687 268.004 155.658 267.99 155.626C267.977 155.594 267.97 155.559 267.97 155.524C267.97 155.489 267.977 155.454 267.99 155.422C268.004 155.39 268.024 155.36 268.048 155.336C268.073 155.311 268.102 155.291 268.135 155.278C268.167 155.264 268.202 155.257 268.236 155.257C268.271 155.257 268.306 155.264 268.338 155.278C268.371 155.291 268.4 155.311 268.424 155.336C268.473 155.387 268.5 155.454 268.5 155.524C268.5 155.594 268.473 155.661 268.424 155.712C268.4 155.742 268.37 155.766 268.335 155.783C268.301 155.799 268.263 155.808 268.224 155.808C268.184 155.811 268.143 155.805 268.104 155.791C268.066 155.778 268.03 155.756 268 155.728L268.048 155.712ZM283.896 154.816C283.877 154.788 283.862 154.756 283.855 154.722C283.847 154.688 283.846 154.653 283.852 154.619C283.858 154.584 283.871 154.552 283.889 154.523C283.908 154.493 283.932 154.468 283.96 154.448C284.017 154.407 284.087 154.39 284.156 154.4C284.225 154.411 284.287 154.448 284.328 154.504C284.37 154.562 284.388 154.633 284.377 154.703C284.367 154.774 284.329 154.837 284.272 154.88C284.225 154.911 284.169 154.928 284.112 154.928C284.062 154.94 284.008 154.937 283.959 154.92C283.909 154.903 283.866 154.872 283.832 154.832L283.896 154.816ZM269 154.664C268.976 154.639 268.956 154.61 268.942 154.578C268.929 154.546 268.922 154.511 268.922 154.476C268.922 154.441 268.929 154.406 268.942 154.374C268.956 154.342 268.976 154.312 269 154.288C269.025 154.263 269.054 154.243 269.087 154.23C269.119 154.216 269.153 154.209 269.188 154.209C269.223 154.209 269.258 154.216 269.29 154.23C269.323 154.243 269.352 154.263 269.376 154.288C269.401 154.312 269.421 154.342 269.435 154.374C269.448 154.406 269.455 154.441 269.455 154.476C269.455 154.511 269.448 154.546 269.435 154.578C269.421 154.61 269.401 154.639 269.376 154.664C269.326 154.709 269.261 154.735 269.192 154.736C269.148 154.748 269.102 154.748 269.058 154.739C269.013 154.729 268.972 154.709 268.936 154.68L269 154.664ZM285.072 154.032C285.054 154.002 285.042 153.968 285.037 153.933C285.031 153.898 285.033 153.862 285.042 153.828C285.051 153.793 285.067 153.761 285.089 153.733C285.11 153.705 285.138 153.681 285.168 153.664C285.199 153.647 285.232 153.636 285.267 153.632C285.302 153.628 285.337 153.631 285.37 153.641C285.404 153.651 285.435 153.667 285.462 153.689C285.489 153.71 285.512 153.737 285.528 153.768C285.563 153.828 285.573 153.9 285.555 153.968C285.537 154.035 285.493 154.093 285.432 154.128C285.388 154.14 285.341 154.14 285.296 154.128C285.246 154.145 285.191 154.147 285.14 154.133C285.089 154.118 285.043 154.089 285.008 154.048L285.072 154.032Z" fill="white"/>
<path d="M286.529 153.544C286.497 153.553 286.464 153.553 286.433 153.544C286.401 153.53 286.371 153.511 286.345 153.488C286.319 153.462 286.297 153.432 286.281 153.4C286.276 153.365 286.276 153.331 286.281 153.296C286.283 153.227 286.312 153.161 286.361 153.112C286.383 153.084 286.414 153.065 286.449 153.056C286.497 153.037 286.55 153.032 286.601 153.042C286.652 153.052 286.699 153.076 286.737 153.112C286.784 153.162 286.809 153.228 286.809 153.296C286.817 153.33 286.817 153.366 286.809 153.4C286.795 153.432 286.776 153.462 286.753 153.488C286.721 153.512 286.685 153.53 286.647 153.539C286.608 153.549 286.568 153.551 286.529 153.544Z" fill="white"/>
<path d="M260.8 192.704C259.624 194.808 260.112 201.56 262.12 204.432C274 204.984 290.616 197.52 295.448 198.896C296.424 196.456 294.704 195.416 294.648 193.632C294.592 191.848 294.384 189.808 291.992 190.752C289.6 191.696 273.16 194.328 260.8 192.704Z" fill="#004EFF"/>
<path opacity="0.5" d="M260.8 192.704C259.624 194.808 260.112 201.56 262.12 204.432C274 204.984 290.616 197.52 295.448 198.896C296.424 196.456 294.704 195.416 294.648 193.632C294.592 191.848 294.384 189.808 291.992 190.752C289.6 191.696 273.16 194.328 260.8 192.704Z" fill="white"/>
<path d="M252.054 29.864C270.39 35.048 283.878 54.184 282.182 72.592C281.086 84.424 273.998 93.064 264.206 96.368C264.106 98.167 264.579 99.9515 265.558 101.464C265.558 101.464 260.87 100 259.198 97.6C254.741 98.1911 250.21 97.845 245.894 96.584C227.55 91.4 214.062 72.264 215.766 53.848C217.47 35.432 233.71 24.672 252.054 29.864Z" fill="#004EFF"/>
<path opacity="0.7" d="M252.054 29.864C270.39 35.048 283.878 54.184 282.182 72.592C281.086 84.424 273.998 93.064 264.206 96.368C264.106 98.167 264.579 99.9515 265.558 101.464C265.558 101.464 260.87 100 259.198 97.6C254.741 98.1911 250.21 97.845 245.894 96.584C227.55 91.4 214.062 72.264 215.766 53.848C217.47 35.432 233.71 24.672 252.054 29.864Z" fill="white"/>
<path d="M116.071 59.376C116.464 57.6603 117.218 56.048 118.283 54.6465C119.348 53.245 120.7 52.0864 122.247 51.248C121.372 49.9397 120.912 48.3979 120.927 46.824C120.999 41.752 126.071 37.72 132.247 37.808C134.875 37.8285 137.431 38.6674 139.559 40.208C142.015 34.888 149.231 32.904 155.799 35.776C161.287 38.176 164.599 43.216 164.223 47.96C165.359 47.7676 166.513 47.7005 167.663 47.76C174.863 48.16 180.463 53.288 180.167 59.216C179.967 62.824 177.615 65.888 174.183 67.648C176.583 72.192 176.671 77.328 174.007 81.248C171.343 85.168 166.807 86.904 161.855 86.56C158.015 90.312 151.727 92.096 145.207 90.736C143.945 90.4724 142.711 90.0921 141.519 89.6C139.255 92.536 134.423 92.568 134.423 92.568C135.948 91.2047 137.029 89.4157 137.527 87.432C135.288 85.8976 133.45 83.8482 132.167 81.456C129.279 81.544 124.967 80.84 122.479 78.392C120.479 76.424 119.415 73.24 120.079 71.112C116.799 67.88 115.199 63.608 116.071 59.376Z" fill="#004EFF"/>
<path opacity="0.2" d="M116.071 59.376C116.464 57.6603 117.218 56.048 118.283 54.6465C119.348 53.245 120.7 52.0864 122.247 51.248C121.372 49.9397 120.912 48.3979 120.927 46.824C120.999 41.752 126.071 37.72 132.247 37.808C134.875 37.8285 137.431 38.6674 139.559 40.208C142.015 34.888 149.231 32.904 155.799 35.776C161.287 38.176 164.599 43.216 164.223 47.96C165.359 47.7676 166.513 47.7005 167.663 47.76C174.863 48.16 180.463 53.288 180.167 59.216C179.967 62.824 177.615 65.888 174.183 67.648C176.583 72.192 176.671 77.328 174.007 81.248C171.343 85.168 166.807 86.904 161.855 86.56C158.015 90.312 151.727 92.096 145.207 90.736C143.945 90.4724 142.711 90.0921 141.519 89.6C139.255 92.536 134.423 92.568 134.423 92.568C135.948 91.2047 137.029 89.4157 137.527 87.432C135.288 85.8976 133.45 83.8482 132.167 81.456C129.279 81.544 124.967 80.84 122.479 78.392C120.479 76.424 119.415 73.24 120.079 71.112C116.799 67.88 115.199 63.608 116.071 59.376Z" fill="black"/>
<path d="M213.238 98.064L213.07 97.264C216.98 96.4677 220.83 95.3985 224.59 94.064L224.87 94.816C221.074 96.1692 217.187 97.2545 213.238 98.064Z" fill="#004EFF"/>
<path d="M204.04 99.672L203.928 98.872C205.448 98.656 206.968 98.424 208.424 98.168L208.56 98.968C207.096 99.2 205.6 99.456 204.04 99.672Z" fill="#004EFF"/>
<path d="M229.599 62.032C229.52 60.7106 228.975 59.46 228.061 58.5022C227.147 57.5444 225.923 56.9414 224.607 56.8C205.839 54.84 179.567 59.2 169.087 61.232C167.767 61.4849 166.58 62.2009 165.741 63.2511C164.902 64.3013 164.466 65.6166 164.511 66.96C164.887 79.36 168.111 87.496 173.263 95.68C173.762 96.462 174.445 97.1095 175.253 97.5656C176.06 98.0218 176.968 98.2726 177.895 98.296C181.591 98.4 185.231 98.368 188.767 98.224C190.615 100.797 193.043 102.899 195.855 104.36C195.516 102.176 195.516 99.9523 195.855 97.768C207.199 96.784 217.111 94.664 223.903 92.168C224.734 91.8577 225.482 91.3576 226.086 90.7077C226.69 90.0577 227.134 89.2758 227.383 88.424C229.991 79.688 230.023 68.712 229.599 62.032Z" fill="#004EFF"/>
</svg>
