<svg width="480" height="480" viewBox="0 0 480 480" fill="none" xmlns="http://www.w3.org/2000/svg">
<path d="M68.9604 71.1498C69.7518 70.2768 70.2687 69.1901 70.4465 68.0253C70.6244 66.8605 70.4553 65.6691 69.9604 64.5998C69.7029 63.8625 69.2959 63.1863 68.7648 62.6137C68.2338 62.0411 67.5901 61.5844 66.8743 61.2721C66.1585 60.9599 65.3859 60.799 64.6049 60.7993C63.8239 60.7997 63.0515 60.9614 62.3359 61.2742C61.6204 61.5871 60.9772 62.0444 60.4466 62.6175C59.9161 63.1906 59.5097 63.8672 59.2529 64.6047C58.996 65.3422 58.8943 66.1248 58.9542 66.9035C59.014 67.6822 59.234 68.4401 59.6004 69.1298C60.0584 70.2277 60.8325 71.1648 61.8243 71.8218C62.816 72.4788 63.9808 72.8262 65.1704 72.8198C57.7404 77.5298 61.9304 86.0198 61.9304 86.0198L80.7704 77.7898C80.7704 77.7898 77.3704 68.8598 68.9604 71.1498Z" fill="#F5F5F5"/>
<path d="M402.861 214.7C405.155 214.394 407.309 213.422 409.057 211.904C410.804 210.386 412.067 208.389 412.691 206.16C414.551 199.89 411.291 193.4 405.411 191.66C399.531 189.92 393.271 193.59 391.411 199.86C390.717 202.088 390.698 204.471 391.356 206.71C392.015 208.949 393.321 210.942 395.111 212.44C378.001 210.14 373.551 228.17 373.551 228.17L412.271 239.64C412.271 239.64 418.401 221.89 402.861 214.7Z" fill="#E0E0E0"/>
<path d="M255.709 277.123C255.709 276.189 255.525 275.265 255.167 274.402C254.809 273.539 254.284 272.755 253.623 272.096C252.961 271.436 252.176 270.914 251.313 270.558C250.449 270.203 249.524 270.021 248.589 270.023L96.0395 270.253C95.1054 270.253 94.1805 270.438 93.3178 270.796C92.4551 271.154 91.6715 271.679 91.0119 272.34C90.3524 273.002 89.8298 273.787 89.4742 274.65C89.1186 275.514 88.9369 276.439 88.9395 277.373L89.0095 324.273C89.0108 325.207 89.196 326.131 89.5545 326.994C89.913 327.856 90.4379 328.639 91.099 329.298C91.7602 329.957 92.5447 330.48 93.4078 330.836C94.271 331.192 95.1958 331.375 96.1295 331.373L228.679 331.173L246.249 348.973V331.153H248.709C249.644 331.153 250.568 330.969 251.431 330.611C252.294 330.253 253.077 329.728 253.737 329.067C254.397 328.405 254.919 327.62 255.275 326.757C255.63 325.893 255.812 324.968 255.809 324.033L255.709 277.123Z" fill="#EBEBEB"/>
<path d="M115.24 325.393H115.4L115.09 320.393L115.24 325.393Z" fill="#F5F5F5"/>
<path d="M121.81 275.213C116.369 275.219 111.073 276.963 106.693 280.192C102.314 283.42 99.0808 287.964 97.4661 293.16C95.8514 298.356 95.9396 303.932 97.7177 309.074C99.4958 314.216 102.871 318.655 107.35 321.743C106.076 314.72 105.407 307.601 105.35 300.463H105.22C105.22 300.043 105.33 299.413 105.39 298.763C105.453 297.962 105.557 297.164 105.7 296.373C108.6 284.043 119.06 281.563 121.14 281.523C123.37 281.523 127.24 280.153 133.04 286.103C134.691 287.682 135.839 289.714 136.339 291.944C136.839 294.173 136.669 296.5 135.85 298.633C135.96 302.633 136.03 307.063 135.92 309.843C135.68 315.723 129.92 316.463 129.92 316.463C129.92 316.463 129.64 321.523 129.56 325.073C135.378 323.24 140.347 319.383 143.567 314.202C146.786 309.02 148.043 302.857 147.109 296.829C146.176 290.8 143.114 285.306 138.479 281.34C133.843 277.375 127.94 275.202 121.84 275.213H121.81Z" fill="#F5F5F5"/>
<path d="M129.791 317.913C124.051 318.263 122.251 313.973 122.251 313.973C124.499 315.532 127.155 316.398 129.891 316.463C129.891 316.463 135.661 315.723 135.891 309.843C136.001 307.063 135.891 302.593 135.821 298.633L134.821 297.763L126.471 295.693C127.091 293.363 126.061 290.503 125.471 289.173L125.411 289.123C123.911 297.953 114.471 299.053 114.471 299.053L115.101 320.443L115.411 325.443C120.062 326.648 124.957 326.523 129.541 325.083C129.621 321.533 129.901 316.473 129.901 316.473L129.791 317.913ZM125.351 301.223C125.202 301.229 125.054 301.191 124.927 301.113C124.8 301.034 124.7 300.92 124.638 300.784C124.576 300.648 124.556 300.497 124.581 300.35C124.606 300.203 124.674 300.067 124.776 299.958C124.879 299.85 125.011 299.775 125.157 299.742C125.303 299.71 125.455 299.721 125.593 299.775C125.732 299.83 125.852 299.924 125.937 300.047C126.022 300.169 126.069 300.314 126.071 300.463C126.073 300.561 126.057 300.657 126.022 300.748C125.987 300.839 125.935 300.922 125.868 300.993C125.801 301.063 125.721 301.12 125.632 301.16C125.544 301.199 125.448 301.221 125.351 301.223ZM133.851 301.063C133.702 301.069 133.554 301.031 133.427 300.953C133.3 300.874 133.2 300.76 133.138 300.624C133.076 300.488 133.056 300.337 133.081 300.19C133.106 300.043 133.174 299.907 133.276 299.798C133.379 299.69 133.511 299.615 133.657 299.582C133.803 299.55 133.955 299.561 134.093 299.615C134.232 299.67 134.352 299.764 134.437 299.887C134.522 300.009 134.569 300.154 134.571 300.303C134.575 300.401 134.559 300.498 134.525 300.59C134.491 300.681 134.438 300.765 134.371 300.836C134.304 300.906 134.223 300.963 134.134 301.002C134.045 301.041 133.948 301.062 133.851 301.063ZM132.681 298.923C133.022 298.683 133.434 298.563 133.851 298.583C134.269 298.6 134.67 298.755 134.991 299.023C135.231 299.233 135.311 299.423 135.261 299.463C135.211 299.503 134.621 299.103 133.831 299.073C133.041 299.043 132.451 299.443 132.371 299.343C132.291 299.243 132.471 299.123 132.681 298.923ZM129.231 299.353C129.868 300.729 130.402 302.149 130.831 303.603L131.381 305.283C131.503 305.549 131.535 305.848 131.471 306.133C131.442 306.207 131.396 306.272 131.337 306.324C131.278 306.376 131.207 306.414 131.131 306.433C131.018 306.451 130.903 306.451 130.791 306.433C130.357 306.474 129.92 306.458 129.491 306.383C129.91 306.259 130.344 306.192 130.781 306.183C130.981 306.183 131.171 306.133 131.211 305.993C131.227 305.769 131.182 305.544 131.081 305.343L130.511 303.673C129.976 302.268 129.548 300.824 129.231 299.353ZM130.741 308.513C130.466 308.929 130.056 309.237 129.581 309.387C129.106 309.536 128.594 309.517 128.131 309.333C127.911 309.279 127.705 309.181 127.524 309.046C127.343 308.911 127.19 308.741 127.075 308.547C126.96 308.353 126.884 308.137 126.852 307.914C126.821 307.69 126.834 307.462 126.891 307.243C126.081 306.713 129.131 308.543 130.741 308.513ZM123.921 299.123C124.267 298.886 124.682 298.77 125.101 298.793C125.516 298.808 125.915 298.963 126.231 299.233C126.471 299.433 126.551 299.623 126.511 299.673C126.471 299.723 125.871 299.303 125.081 299.283C124.291 299.263 123.701 299.653 123.611 299.543C123.521 299.433 123.671 299.273 123.921 299.123Z" fill="#EBEBEB"/>
<path d="M133.82 299.563C133.621 299.563 133.431 299.642 133.29 299.783C133.149 299.924 133.07 300.115 133.07 300.313C133.07 300.512 133.149 300.703 133.29 300.844C133.431 300.984 133.621 301.063 133.82 301.063C133.918 301.062 134.014 301.041 134.104 301.002C134.193 300.963 134.274 300.906 134.341 300.836C134.408 300.765 134.46 300.681 134.494 300.59C134.529 300.498 134.544 300.401 134.54 300.303C134.54 300.111 134.465 299.925 134.331 299.787C134.196 299.649 134.013 299.569 133.82 299.563Z" fill="#E0E0E0"/>
<path d="M133.83 299.123C134.62 299.123 135.17 299.613 135.26 299.513C135.35 299.413 135.26 299.283 134.99 299.073C134.67 298.805 134.269 298.65 133.85 298.633C133.433 298.613 133.022 298.733 132.68 298.973C132.42 299.163 132.33 299.343 132.37 299.393C132.41 299.443 133.04 299.033 133.83 299.123Z" fill="#E0E0E0"/>
<path d="M125.32 299.724C125.171 299.724 125.026 299.768 124.903 299.851C124.779 299.933 124.683 300.051 124.626 300.189C124.57 300.326 124.556 300.478 124.585 300.624C124.615 300.769 124.688 300.903 124.794 301.007C124.899 301.112 125.034 301.182 125.18 301.21C125.326 301.238 125.477 301.222 125.614 301.164C125.751 301.105 125.868 301.008 125.949 300.883C126.03 300.758 126.072 300.612 126.07 300.464C126.068 300.266 125.987 300.078 125.847 299.94C125.707 299.801 125.517 299.723 125.32 299.724Z" fill="#E0E0E0"/>
<path d="M125.08 299.243C125.87 299.243 126.42 299.733 126.51 299.633C126.6 299.533 126.51 299.393 126.23 299.193C125.914 298.923 125.516 298.768 125.1 298.753C124.681 298.73 124.266 298.846 123.92 299.083C123.67 299.273 123.57 299.453 123.61 299.503C123.65 299.553 124.29 299.203 125.08 299.243Z" fill="#E0E0E0"/>
<path d="M131.08 305.383C131.182 305.584 131.227 305.809 131.21 306.033C131.21 306.173 130.98 306.213 130.78 306.223C130.343 306.232 129.91 306.299 129.49 306.423C129.92 306.497 130.357 306.514 130.79 306.473C130.903 306.491 131.018 306.491 131.13 306.473C131.207 306.454 131.277 306.416 131.336 306.364C131.396 306.312 131.441 306.247 131.47 306.173C131.535 305.888 131.503 305.589 131.38 305.323L130.83 303.643C130.402 302.189 129.867 300.769 129.23 299.393C129.545 300.877 129.973 302.335 130.51 303.753L131.08 305.383Z" fill="#E0E0E0"/>
<path d="M128.13 309.333C128.593 309.517 129.105 309.536 129.581 309.387C130.056 309.237 130.465 308.929 130.74 308.513C129.13 308.513 126.08 306.713 126.89 307.243C126.833 307.462 126.82 307.69 126.852 307.914C126.883 308.137 126.959 308.353 127.074 308.547C127.19 308.741 127.342 308.911 127.524 309.046C127.705 309.181 127.911 309.279 128.13 309.333Z" fill="white"/>
<path d="M122.25 313.974C122.25 313.974 124.05 318.264 129.79 317.914L129.89 316.464C127.155 316.398 124.499 315.532 122.25 313.974Z" fill="#E0E0E0"/>
<path d="M114.471 299.053C114.471 299.053 123.911 297.953 125.411 289.123L125.471 289.173C126.051 290.503 127.081 293.363 126.471 295.693L134.901 297.763L135.901 298.633C136.709 296.498 136.869 294.172 136.36 291.947C135.851 289.721 134.697 287.695 133.041 286.123C127.241 280.173 123.371 281.503 121.141 281.543C119.061 281.543 108.601 284.063 105.701 296.393C105.557 297.184 105.454 297.982 105.391 298.783C105.331 299.433 105.271 300.063 105.221 300.483H105.351C105.408 307.621 106.077 314.74 107.351 321.763C109.752 323.423 112.421 324.657 115.241 325.413L115.091 320.463L114.471 299.053Z" fill="#E0E0E0"/>
<path d="M156.61 292.542L236.82 292.416L236.813 287.996L156.603 288.122L156.61 292.542Z" fill="#F5F5F5"/>
<path d="M156.634 303.922L236.844 303.796L236.837 299.376L156.627 299.502L156.634 303.922Z" fill="#F5F5F5"/>
<path d="M197.096 381.998L236.855 381.935L236.849 377.515L197.089 377.578L197.096 381.998Z" fill="#F5F5F5"/>
<path d="M135.16 77.5098L136.48 80.1798L139.43 80.6098L137.3 82.6898L137.8 85.6298L135.16 84.2398L132.53 85.6298L133.03 82.6898L130.9 80.6098L133.85 80.1798L135.16 77.5098Z" fill="#E0E0E0"/>
<path d="M86.2412 140.69L88.6313 145.53L93.9613 146.3L90.1012 150.06L91.0113 155.37L86.2412 152.86L81.4713 155.37L82.3913 150.06L78.5312 146.3L83.8613 145.53L86.2412 140.69Z" fill="#E0E0E0"/>
<path d="M120.23 143.98L120.89 145.31L122.36 145.53L121.3 146.56L121.55 148.03L120.23 147.34L118.91 148.03L119.17 146.56L118.1 145.53L119.57 145.31L120.23 143.98Z" fill="#E0E0E0"/>
<path d="M428.278 53.29V66.22C428.278 67.6257 427.72 68.9737 426.726 69.9677C425.732 70.9616 424.384 71.52 422.978 71.52H400.678V78.89L396.678 71.84C395.493 71.7541 394.385 71.2226 393.576 70.3524C392.767 69.4823 392.318 68.3381 392.318 67.15V53.29C392.318 51.887 392.876 50.5415 393.868 49.5494C394.86 48.5573 396.205 48 397.608 48H422.978C423.674 47.9987 424.363 48.1346 425.006 48.3998C425.649 48.6651 426.233 49.0545 426.725 49.5459C427.218 50.0372 427.608 50.6208 427.875 51.2633C428.141 51.9058 428.278 52.5945 428.278 53.29Z" fill="#455A64"/>
<path d="M418.299 62.6C419.503 62.6 420.479 61.624 420.479 60.42C420.479 59.216 419.503 58.24 418.299 58.24C417.095 58.24 416.119 59.216 416.119 60.42C416.119 61.624 417.095 62.6 418.299 62.6Z" fill="#263238"/>
<path d="M410.02 62.6C411.224 62.6 412.2 61.624 412.2 60.42C412.2 59.216 411.224 58.24 410.02 58.24C408.816 58.24 407.84 59.216 407.84 60.42C407.84 61.624 408.816 62.6 410.02 62.6Z" fill="#263238"/>
<path d="M399.569 60.42C399.573 60.8503 399.704 61.2698 399.946 61.6257C400.188 61.9815 400.529 62.2578 400.928 62.4197C401.327 62.5817 401.764 62.622 402.186 62.5357C402.608 62.4493 402.994 62.2401 403.297 61.9344C403.6 61.6288 403.806 61.2403 403.888 60.818C403.971 60.3957 403.926 59.9584 403.761 59.5612C403.595 59.164 403.316 58.8247 402.958 58.5861C402.6 58.3474 402.179 58.22 401.749 58.22C401.46 58.2187 401.174 58.2748 400.908 58.3851C400.642 58.4954 400.4 58.6578 400.197 58.8626C399.994 59.0674 399.834 59.3106 399.726 59.578C399.618 59.8455 399.565 60.1317 399.569 60.42Z" fill="#263238"/>
<path d="M126.559 102.28C126.55 102.422 126.527 102.563 126.489 102.7C126.429 103.01 126.339 103.43 126.229 103.96C125.989 105.1 125.649 106.74 125.229 108.83C124.309 113.1 122.989 119.22 121.379 126.72V126.91L121.179 126.86L114.459 125.4C111.459 125.23 108.459 125.03 105.179 124.79C101.899 124.55 98.5692 124.33 95.0892 123.84C94.1687 123.721 93.2829 123.413 92.4876 122.934C91.6924 122.456 91.0051 121.818 90.4692 121.06C89.3777 119.499 88.8585 117.609 88.9992 115.71C89.0961 114.769 89.2768 113.839 89.5392 112.93C89.7592 112.02 89.9892 111.11 90.2092 110.19L91.6292 104.63C92.1892 102.47 92.7692 100.35 93.3892 98.26C93.7092 97.21 94.0292 96.18 94.3892 95.17C94.4792 94.91 94.6192 94.66 94.7392 94.4C94.832 94.2505 94.9466 94.1157 95.0792 94C95.2314 93.9299 95.3931 93.8828 95.5592 93.86C96.1044 93.8051 96.6539 93.8051 97.1992 93.86C101.275 94.3113 105.322 94.9958 109.319 95.91H109.489V96.09C109.484 96.1399 109.484 96.1901 109.489 96.24C109.489 96.24 109.489 96.24 109.349 96.16C109.209 96.08 109.209 96.22 109.209 96.16C109.235 96.1161 109.255 96.0691 109.269 96.02C109.348 95.8004 109.414 95.5767 109.469 95.35C109.589 94.88 109.689 94.41 109.779 93.94C109.959 93 110.129 92.07 110.279 91.14C110.501 89.3178 110.835 87.511 111.279 85.73C111.768 84.0318 112.672 82.4818 113.909 81.22C114.51 80.6201 115.25 80.1769 116.062 79.9293C116.875 79.6817 117.736 79.6373 118.569 79.8H118.759L118.709 80L116.969 87.75V87.65C119.579 93.83 121.539 98.5 122.759 101.39H122.699L125.639 102.09L126.349 102.26L126.569 102.33H126.319L125.579 102.19L122.669 101.59C121.419 98.72 119.389 94.08 116.669 87.92V87.87C117.189 85.5 117.749 82.92 118.359 80.1L118.499 80.33C117.734 80.1927 116.948 80.2438 116.207 80.479C115.467 80.7143 114.794 81.1265 114.249 81.68C113.109 82.9376 112.301 84.4605 111.899 86.11C111.459 87.8784 111.125 89.6717 110.899 91.48C110.749 92.41 110.599 93.35 110.409 94.3C110.319 94.77 110.219 95.3 110.099 95.72C110.043 95.9671 109.973 96.2109 109.889 96.45C109.889 96.51 109.889 96.58 109.809 96.65C109.787 96.6896 109.76 96.7265 109.729 96.76C109.699 96.8087 109.656 96.8484 109.605 96.8748C109.554 96.9012 109.497 96.9133 109.439 96.91C109.209 96.84 109.229 96.74 109.179 96.7C109.129 96.66 109.179 96.6 109.179 96.57V96.35L109.369 96.57C105.409 95.6838 101.403 95.0162 97.3692 94.57C96.8571 94.5199 96.3413 94.5199 95.8292 94.57C95.7316 94.5789 95.6366 94.606 95.5492 94.65C95.4887 94.7143 95.4351 94.7847 95.3892 94.86C95.2705 95.0877 95.1637 95.3213 95.0692 95.56C94.6792 96.56 94.3592 97.56 94.0692 98.56C93.4492 100.63 92.8792 102.76 92.3092 104.91C91.8392 106.78 91.3092 108.63 90.8992 110.46C90.6692 111.38 90.4492 112.3 90.2192 113.21C89.9686 114.091 89.7914 114.99 89.6892 115.9C89.5608 117.674 90.0443 119.439 91.0592 120.9C91.5513 121.603 92.1841 122.196 92.9174 122.642C93.6506 123.088 94.4685 123.377 95.3192 123.49C98.7492 123.98 102.129 124.2 105.319 124.49L114.589 125.13L121.299 126.63L121.069 126.78C122.749 119.35 124.129 113.29 125.069 109.05C125.559 106.96 125.939 105.31 126.199 104.16C126.329 103.62 126.439 103.16 126.509 102.88C126.508 102.679 126.524 102.478 126.559 102.28Z" fill="white"/>
<path d="M138.168 102.61C137.944 102.598 137.72 102.575 137.498 102.54L135.658 102.29L128.968 101.29L129.168 101.15C127.808 107.4 125.848 116.37 123.678 126.35L123.468 127.22L123.268 126.91L129.928 128.39L129.628 128.56C132.018 121.18 134.118 114.73 135.628 110.05C136.388 107.77 136.998 105.92 137.438 104.58C137.648 103.98 137.808 103.49 137.948 103.1C137.996 102.917 138.063 102.739 138.148 102.57C138.118 102.733 138.075 102.894 138.018 103.05L137.598 104.5C137.188 105.83 136.598 107.67 135.938 109.95C134.468 114.69 132.438 121.23 130.108 128.72L130.048 128.94H129.818L123.158 127.47L122.898 127.41L122.958 127.16L123.148 126.28L128.798 101.12V100.95H128.958L135.738 102.13L137.518 102.46C137.739 102.494 137.956 102.544 138.168 102.61Z" fill="white"/>
<path d="M361.489 67.0195L364.899 73.9295L372.529 75.0295L367.009 80.4095L368.309 88.0095L361.489 84.4195L354.669 88.0095L355.969 80.4095L350.449 75.0295L358.079 73.9295L361.489 67.0195Z" fill="#004EFF"/>
<path d="M418.27 174.28L419.97 177.73L423.79 178.29L421.03 180.98L421.68 184.77L418.27 182.98L414.86 184.77L415.51 180.98L412.75 178.29L416.57 177.73L418.27 174.28Z" fill="#004EFF"/>
<path d="M127.52 181.023L129.23 184.483L133.04 185.033L130.28 187.723L130.93 191.523L127.52 189.733L124.11 191.523L124.76 187.723L122 185.033L125.82 184.483L127.52 181.023Z" fill="#004EFF"/>
<path d="M316.479 430.43L190.329 431.25C186.722 431.275 183.146 430.589 179.804 429.232C176.462 427.874 173.421 425.872 170.853 423.338C168.285 420.805 166.242 417.791 164.839 414.467C163.437 411.144 162.703 407.577 162.679 403.97L160.469 87.7201C160.421 80.431 163.27 73.4213 168.39 68.2324C173.509 63.0435 180.48 60.1004 187.769 60.0501L313.949 59.2201C317.558 59.2004 321.136 59.892 324.478 61.2556C327.819 62.6191 330.86 64.6278 333.425 67.1668C335.99 69.7058 338.029 72.7254 339.427 76.053C340.824 79.3806 341.552 82.951 341.569 86.5601L343.779 402.81C343.814 410.091 340.959 417.088 335.841 422.266C330.723 427.444 323.76 430.38 316.479 430.43Z" fill="#263238"/>
<path d="M313.859 70.1399L289.399 70.2999C288.601 70.3232 287.815 70.5037 287.087 70.8311C286.358 71.1585 285.702 71.6263 285.155 72.2078C284.608 72.7893 284.181 73.4731 283.898 74.2199C283.616 74.9667 283.483 75.7619 283.509 76.5599V80.9899C283.554 82.6009 282.959 84.1642 281.852 85.3361C280.746 86.5081 279.22 87.1928 277.609 87.2399L229.949 87.5599C229.149 87.5508 228.359 87.3837 227.624 87.0683C226.889 86.7529 226.224 86.2954 225.666 85.7221C225.109 85.1487 224.67 84.4708 224.375 83.7274C224.08 82.9839 223.935 82.1896 223.949 81.3899V76.9599C223.97 75.3464 223.35 73.7904 222.225 72.6335C221.1 71.4767 219.562 70.8136 217.949 70.7899L209.349 70.8399L187.949 70.9899C185.421 71.0043 182.921 71.517 180.591 72.4986C178.261 73.4802 176.148 74.9115 174.372 76.7105C172.597 78.5096 171.193 80.6412 170.242 82.9833C169.29 85.3254 168.81 87.8321 168.829 90.3599L170.979 399.04C170.996 401.567 171.51 404.065 172.493 406.393C173.475 408.721 174.907 410.832 176.706 412.607C178.504 414.381 180.635 415.784 182.976 416.735C185.317 417.686 187.822 418.167 190.349 418.15L316.239 417.33C318.767 417.313 321.266 416.798 323.595 415.815C325.924 414.832 328.037 413.4 329.812 411.6C331.588 409.8 332.992 407.669 333.943 405.327C334.895 402.984 335.376 400.478 335.359 397.95L333.209 89.2699C333.177 84.1679 331.121 79.2873 327.493 75.7002C323.865 72.1132 318.961 70.1133 313.859 70.1399Z" fill="#FAFAFA"/>
<path d="M306.96 254.1L297.758 273.463L292.846 272.251L261.783 299.024L252.402 281.874C252.402 281.874 270.964 273.241 274.253 266.443C277.542 259.644 273.473 258.232 273.473 258.232L282.042 247.933L306.96 254.1Z" fill="#004EFF"/>
<path d="M319.43 251.654H319.83C319.904 249.683 319.978 247.744 320.041 245.899C320.21 240.903 320.368 236.412 320.505 232.397H320.21C320.052 236.381 319.862 240.892 319.651 245.888C319.577 247.775 319.503 249.683 319.43 251.654Z" fill="#263238"/>
<path d="M303.092 231.48H303.545C303.777 229.625 304.009 227.865 304.209 226.21C304.652 222.847 305.01 220.012 305.263 217.777L305 217.893C304.673 220.001 304.262 222.816 303.798 226.136C303.545 227.843 303.345 229.604 303.092 231.48Z" fill="#263238"/>
<path d="M301.068 251.664H300.53C300.291 253.709 300.049 255.817 299.803 257.989C299.698 258.843 299.603 259.696 299.508 260.55L299.613 260.445C299.613 260.445 299.613 261.762 299.708 263.691C299.919 261.847 300.13 259.96 300.341 258.042C300.583 255.849 300.836 253.73 301.068 251.664Z" fill="#263238"/>
<path d="M303.481 231.965H303.027C302.269 237.573 301.425 244.14 300.582 251.265H301.13C301.963 244.076 302.774 237.51 303.481 231.965Z" fill="#263238"/>
<path d="M293.183 213.445C293.183 213.445 278.838 210.694 258.22 191.973C237.603 173.253 227.463 147.893 225.007 148.083C222.551 148.272 211.684 143.603 192.553 188.548C173.422 233.493 181.738 243.57 185.796 243.359C189.854 243.148 217.196 234.705 234.462 236.17C251.727 237.635 274.105 245.983 274.105 245.983L293.183 213.445Z" fill="#004EFF"/>
<path opacity="0.4" d="M293.183 213.445C293.183 213.445 278.838 210.694 258.22 191.973C237.603 173.253 227.463 147.893 225.007 148.083C222.551 148.272 211.684 143.603 192.553 188.548C173.422 233.493 181.738 243.57 185.796 243.359C189.854 243.148 217.196 234.705 234.462 236.17C251.727 237.635 274.105 245.983 274.105 245.983L293.183 213.445Z" fill="white"/>
<path d="M324.162 238.815L319.556 248.197L317.448 252.413C316.089 255.191 313.714 257.341 310.814 258.418C307.915 259.496 304.712 259.417 301.869 258.2L271.006 248.428L287.649 207.32L318.649 222.72C321.503 224.135 323.684 226.62 324.716 229.634C325.748 232.648 325.549 235.947 324.162 238.815Z" fill="#004EFF"/>
<path d="M194.218 191.352C184.047 215.701 180.136 237.246 185.491 239.48C190.845 241.715 203.41 223.796 213.592 199.426C223.774 175.057 227.653 153.564 222.383 151.33C217.113 149.095 204.401 167.014 194.218 191.352Z" fill="#263238"/>
<path d="M279.102 251.485L301.764 265.051L304.388 259.528L279.102 251.485Z" fill="#263238"/>
<path d="M323.655 239.838L318.807 249.736L320.514 250.221L324.404 240.281L323.655 239.838Z" fill="#263238"/>
<path d="M272.292 245.341C272.292 245.341 266.442 243.38 266.631 243.433C266.821 243.486 284.761 210.367 284.761 210.367L286.184 211.01L272.871 244.245" fill="#263238"/>
<path d="M318.007 242.252C317.891 242.526 313.717 241.04 308.678 238.921C303.64 236.803 299.635 234.884 299.751 234.621C299.866 234.357 304.041 235.833 309.089 237.941C314.138 240.049 318.123 241.978 318.007 242.252Z" fill="#263238"/>
<path d="M320.409 236.382C320.293 236.645 316.509 235.169 311.977 233.093C307.445 231.016 303.84 229.109 303.966 228.877C304.093 228.645 307.877 230.089 312.399 232.165C316.92 234.242 320.515 236.107 320.409 236.382Z" fill="#263238"/>
<path d="M314.972 248.429C314.972 248.576 313.918 248.376 312.358 247.933C311.567 247.712 310.629 247.438 309.586 247.111C308.542 246.784 307.478 246.257 306.329 245.783C301.744 243.801 298.223 241.841 298.328 241.567C298.434 241.293 302.197 242.811 306.761 244.729C307.899 245.203 308.964 245.783 309.923 246.12C310.882 246.458 311.82 246.837 312.569 247.174C314.087 247.839 315.004 248.292 314.972 248.429Z" fill="#263238"/>
<path d="M216.206 185.386C216.206 185.386 203.557 178.007 197.286 194.988C191.014 211.969 204.095 214.298 204.095 214.298C209.472 205.278 213.549 195.545 216.206 185.386Z" fill="#004EFF"/>
<path d="M228.812 165.053C228.77 166.116 228.639 167.174 228.422 168.215C228.084 170.324 227.61 173.254 226.925 176.922C226.451 178.735 225.934 180.717 225.375 182.835C225.101 183.889 224.806 184.996 224.511 186.124C224.364 186.693 224.205 187.262 224.047 187.842C223.889 188.422 223.657 188.991 223.457 189.571C222.635 191.9 221.76 194.346 220.864 196.875C220.643 197.508 220.411 198.151 220.179 198.794C219.947 199.437 219.631 200.048 219.357 200.691L217.628 204.559L215.889 208.407C215.594 209.039 215.341 209.682 215.004 210.283L214.023 212.064L210.26 218.842C209.955 219.379 209.681 219.896 209.364 220.433L208.374 221.909L206.476 224.744L203.061 229.857C200.774 232.787 198.845 235.127 197.538 236.729C196.898 237.59 196.194 238.401 195.43 239.153C195.953 238.203 196.563 237.303 197.253 236.466C198.518 234.758 200.31 232.344 202.523 229.393L205.802 224.281L207.625 221.424L208.584 219.949C208.89 219.432 209.164 218.894 209.459 218.357L213.138 211.59L214.108 209.819C214.445 209.229 214.687 208.586 214.982 207.953C215.541 206.699 216.121 205.424 216.701 204.138C217.28 202.852 217.86 201.566 218.429 200.311C218.703 199.679 219.019 199.078 219.241 198.435C219.462 197.792 219.705 197.16 219.936 196.538C220.843 194.029 221.728 191.605 222.572 189.297C222.772 188.727 223.004 188.158 223.183 187.589L223.657 185.892L224.574 182.635C225.165 180.527 225.723 178.577 226.229 176.785L228.053 168.173C228.216 167.113 228.47 166.07 228.812 165.053Z" fill="#263238"/>
<path d="M43.86 214.023H156.47C157.229 214.026 157.957 214.33 158.493 214.868C159.029 215.406 159.33 216.134 159.33 216.893V239.713C160.08 249.403 159.33 251.803 148.28 252.593V262.893L138.15 252.763H43.86C43.1015 252.763 42.374 252.462 41.8377 251.926C41.3013 251.389 41 250.662 41 249.903V216.903C40.9987 216.527 41.0716 216.153 41.2147 215.804C41.3577 215.456 41.568 215.139 41.8335 214.871C42.0991 214.604 42.4148 214.391 42.7625 214.246C43.1102 214.1 43.4831 214.025 43.86 214.023Z" fill="#455A64"/>
<path d="M137.751 226.143H78.2109V228.693H137.751V226.143Z" fill="#004EFF"/>
<path d="M137.751 231.503H78.2109V234.053H137.751V231.503Z" fill="#004EFF"/>
<path d="M108.391 237.263H78.2109V239.813H108.391V237.263Z" fill="#004EFF"/>
<path d="M72.9503 225.003H56.3203V241.633H72.9503V225.003Z" fill="#004EFF"/>
<path d="M439.751 107.37C439.751 106.044 439.224 104.772 438.286 103.835C437.348 102.897 436.077 102.37 434.751 102.37L310.141 102.98C308.815 102.98 307.543 103.507 306.605 104.445C305.667 105.382 305.141 106.654 305.141 107.98L305.331 147.29C305.331 147.951 305.462 148.605 305.716 149.215C305.97 149.825 306.343 150.379 306.813 150.843C307.282 151.308 307.839 151.676 308.452 151.924C309.064 152.172 309.72 152.297 310.381 152.29H313.081L313.161 166.68L327.221 152.22L434.951 151.69C436.277 151.69 437.548 151.163 438.486 150.226C439.424 149.288 439.951 148.016 439.951 146.69L439.751 107.37Z" fill="#004EFF"/>
<path d="M401.989 134.09C401.909 131.83 401.989 128.5 401.989 125.53C401.32 123.812 401.172 121.934 401.565 120.132C401.958 118.33 402.875 116.684 404.199 115.4C408.839 110.56 411.979 111.62 413.779 111.64C415.579 111.66 423.919 113.64 426.319 123.55C426.442 124.188 426.529 124.832 426.579 125.48C426.629 125.97 426.679 126.48 426.719 126.78C426.825 128.556 427.383 130.276 428.34 131.776C429.298 133.276 430.623 134.506 432.189 135.35C433.336 132.731 433.919 129.899 433.899 127.04C433.885 123.432 432.924 119.891 431.112 116.772C429.3 113.652 426.701 111.063 423.574 109.263C420.447 107.464 416.902 106.517 413.294 106.518C409.686 106.519 406.142 107.468 403.016 109.269C399.889 111.07 397.291 113.66 395.481 116.781C393.67 119.902 392.711 123.443 392.699 127.051C392.688 130.659 393.623 134.206 395.413 137.339C397.203 140.471 399.785 143.079 402.899 144.9C401.929 141.384 401.62 137.719 401.989 134.09Z" fill="#E0E0E0"/>
<path d="M426.73 126.79V126.87H426.62C426.62 130.87 426.17 144.4 419.49 146.87C422.304 145.981 424.895 144.499 427.087 142.524C429.28 140.549 431.023 138.126 432.2 135.42C430.625 134.571 429.295 133.331 428.337 131.82C427.379 130.309 426.826 128.577 426.73 126.79Z" fill="#263238"/>
<path d="M402.009 134.58C402.009 134.42 402.009 134.26 402.009 134.09C401.639 137.722 401.948 141.391 402.919 144.91C404.281 145.722 405.735 146.37 407.249 146.84C407.169 143.97 406.909 139.84 406.909 139.84C405.606 139.676 404.401 139.059 403.506 138.098C402.61 137.137 402.081 135.892 402.009 134.58Z" fill="#263238"/>
<path d="M419.261 125.75C419.261 125.75 411.641 124.92 410.371 117.75C409.911 118.83 409.091 121.15 409.611 123.03L402.811 124.74L402.051 125.45C401.981 128.45 401.951 131.75 402.051 134.01C402.051 134.18 402.051 134.34 402.051 134.5C402.11 135.818 402.632 137.072 403.524 138.043C404.417 139.014 405.623 139.64 406.931 139.81C409.135 139.76 411.277 139.065 413.091 137.81C413.091 137.81 411.661 141.28 407.021 141.03L406.931 139.86C406.931 139.86 407.191 143.94 407.271 146.86C409.271 147.483 411.356 147.793 413.451 147.78C415.217 147.761 416.974 147.519 418.681 147.06L419.261 125.75ZM409.901 126.95C409.906 126.834 409.946 126.723 410.015 126.63C410.084 126.537 410.178 126.466 410.287 126.426C410.396 126.386 410.514 126.379 410.627 126.406C410.739 126.433 410.842 126.493 410.921 126.577C411 126.662 411.052 126.768 411.072 126.882C411.091 126.996 411.076 127.113 411.029 127.219C410.982 127.325 410.905 127.415 410.808 127.477C410.71 127.54 410.596 127.572 410.481 127.57C410.402 127.568 410.324 127.549 410.252 127.517C410.181 127.484 410.116 127.438 410.062 127.38C410.008 127.323 409.966 127.255 409.939 127.181C409.911 127.107 409.898 127.029 409.901 126.95ZM409.761 125.95C410.016 125.733 410.336 125.607 410.671 125.59C411.007 125.573 411.34 125.664 411.621 125.85C411.831 126 411.911 126.15 411.871 126.19C411.831 126.23 411.331 125.95 410.691 125.98C410.051 126.01 409.611 126.39 409.541 126.31C409.471 126.23 409.561 126.1 409.761 125.93V125.95ZM402.691 125.86C402.949 125.642 403.273 125.515 403.611 125.5C403.945 125.483 404.276 125.578 404.551 125.77C404.761 125.92 404.841 126.06 404.801 126.1C404.761 126.14 404.261 125.86 403.621 125.89C402.981 125.92 402.541 126.3 402.471 126.22C402.401 126.14 402.471 126.01 402.691 125.84V125.86ZM403.031 126.86C403.033 126.741 403.07 126.626 403.137 126.529C403.205 126.431 403.3 126.356 403.41 126.312C403.521 126.269 403.641 126.259 403.757 126.284C403.873 126.309 403.979 126.368 404.062 126.453C404.144 126.538 404.2 126.646 404.221 126.763C404.242 126.88 404.228 127 404.181 127.109C404.134 127.218 404.055 127.31 403.956 127.375C403.856 127.439 403.739 127.472 403.621 127.47C403.463 127.467 403.313 127.403 403.203 127.291C403.092 127.179 403.031 127.028 403.031 126.87V126.86ZM405.841 131.79C405.778 131.777 405.721 131.749 405.673 131.706C405.626 131.664 405.59 131.61 405.571 131.55C405.516 131.319 405.541 131.076 405.641 130.86C405.771 130.43 405.921 129.98 406.071 129.5C406.407 128.327 406.832 127.18 407.341 126.07C407.094 127.266 406.76 128.443 406.341 129.59C406.181 130.057 406.031 130.507 405.891 130.94C405.806 131.103 405.771 131.287 405.791 131.47C405.791 131.58 405.971 131.61 406.141 131.62C406.48 131.629 406.816 131.682 407.141 131.78C406.792 131.821 406.439 131.821 406.091 131.78C406.008 131.797 405.924 131.804 405.841 131.8V131.79ZM408.281 134.11C407.909 134.264 407.496 134.284 407.111 134.167C406.727 134.05 406.394 133.804 406.171 133.47C407.471 133.47 409.921 131.99 409.271 132.47C409.35 132.82 409.292 133.187 409.107 133.494C408.923 133.802 408.627 134.026 408.281 134.12V134.11Z" fill="#455A64"/>
<path d="M404.22 126.88C404.22 126.761 404.184 126.645 404.118 126.547C404.053 126.448 403.959 126.371 403.849 126.326C403.74 126.28 403.619 126.269 403.502 126.292C403.386 126.315 403.279 126.372 403.195 126.456C403.111 126.54 403.054 126.647 403.031 126.763C403.008 126.879 403.02 127 403.065 127.11C403.111 127.219 403.188 127.313 403.286 127.379C403.385 127.445 403.501 127.48 403.62 127.48C403.779 127.48 403.931 127.417 404.044 127.304C404.156 127.192 404.22 127.039 404.22 126.88Z" fill="#263238"/>
<path d="M404.801 126.08C404.801 126.08 404.801 125.9 404.551 125.75C404.276 125.558 403.945 125.463 403.611 125.48C403.273 125.495 402.949 125.622 402.691 125.84C402.491 126.01 402.431 126.16 402.471 126.2C402.511 126.24 402.991 125.9 403.621 125.87C404.251 125.84 404.741 126.22 404.801 126.08Z" fill="#263238"/>
<path d="M411.08 126.97C411.08 126.814 411.018 126.664 410.908 126.553C410.797 126.442 410.647 126.38 410.49 126.38C410.334 126.38 410.184 126.442 410.073 126.553C409.963 126.664 409.9 126.814 409.9 126.97C409.9 127.127 409.963 127.277 410.073 127.387C410.184 127.498 410.334 127.56 410.49 127.56C410.647 127.56 410.797 127.498 410.908 127.387C411.018 127.277 411.08 127.127 411.08 126.97Z" fill="#263238"/>
<path d="M411.871 126.22C411.871 126.22 411.871 126.03 411.621 125.88C411.34 125.694 411.007 125.603 410.671 125.62C410.336 125.637 410.016 125.763 409.761 125.98C409.561 126.15 409.501 126.3 409.541 126.34C409.581 126.38 410.051 126.04 410.691 126.01C411.331 125.98 411.811 126.22 411.871 126.22Z" fill="#263238"/>
<path d="M407.171 131.79C406.846 131.692 406.51 131.639 406.171 131.63C406.001 131.63 405.851 131.63 405.821 131.48C405.802 131.297 405.836 131.113 405.921 130.95C406.061 130.523 406.211 130.073 406.371 129.6C406.79 128.453 407.124 127.276 407.371 126.08C406.862 127.19 406.437 128.337 406.101 129.51C405.951 129.99 405.801 130.44 405.671 130.87C405.571 131.086 405.546 131.329 405.601 131.56C405.621 131.62 405.656 131.674 405.703 131.716C405.751 131.759 405.809 131.787 405.871 131.8C405.964 131.813 406.058 131.813 406.151 131.8C406.49 131.835 406.832 131.832 407.171 131.79Z" fill="#263238"/>
<path d="M406.17 133.48C406.394 133.814 406.726 134.06 407.111 134.177C407.495 134.294 407.908 134.274 408.28 134.12C408.636 134.028 408.942 133.799 409.129 133.482C409.317 133.165 409.371 132.787 409.28 132.43C409.92 132 407.47 133.5 406.17 133.48Z" fill="white"/>
<path d="M413.051 137.84C411.237 139.095 409.095 139.79 406.891 139.84L406.981 141.01C411.621 141.31 413.051 137.84 413.051 137.84Z" fill="#263238"/>
<path d="M426.62 126.85H426.73V126.77C426.73 126.43 426.64 125.96 426.59 125.47C426.54 124.822 426.453 124.178 426.33 123.54C423.93 113.6 415.47 111.65 413.79 111.63C412.11 111.61 408.85 110.55 404.21 115.39C402.886 116.674 401.97 118.32 401.577 120.122C401.184 121.924 401.331 123.802 402 125.52L402.76 124.81L409.56 123.1C409.04 121.22 409.86 118.9 410.32 117.82C411.59 124.95 419.21 125.82 419.21 125.82L418.59 147.11C418.87 147.03 419.16 146.97 419.44 146.88C426.17 144.38 426.66 130.8 426.62 126.85Z" fill="#263238"/>
<path d="M385.156 117.149L320.396 117.465L320.414 121.035L385.173 120.719L385.156 117.149Z" fill="#263238"/>
<path d="M385.21 126.329L320.451 126.645L320.469 130.215L385.228 129.899L385.21 126.329Z" fill="#263238"/>
<path d="M352.586 135.408L320.486 135.565L320.504 139.135L352.603 138.978L352.586 135.408Z" fill="#263238"/>
<path d="M351.001 249.313V262.243C351.001 263.649 351.559 264.997 352.553 265.991C353.547 266.985 354.895 267.543 356.301 267.543H378.601V274.913L382.601 267.863C383.786 267.778 384.894 267.246 385.703 266.376C386.512 265.506 386.962 264.362 386.961 263.173V249.313C386.961 247.91 386.404 246.565 385.412 245.573C384.419 244.581 383.074 244.023 381.671 244.023H356.301C355.605 244.022 354.916 244.158 354.273 244.423C353.631 244.689 353.046 245.078 352.554 245.569C352.062 246.061 351.671 246.644 351.405 247.287C351.138 247.929 351.001 248.618 351.001 249.313Z" fill="#00557D"/>
<path d="M376.981 258.623C378.185 258.623 379.161 257.647 379.161 256.443C379.161 255.239 378.185 254.263 376.981 254.263C375.777 254.263 374.801 255.239 374.801 256.443C374.801 257.647 375.777 258.623 376.981 258.623Z" fill="#C2C2C2"/>
<path d="M368.7 258.623C369.904 258.623 370.88 257.647 370.88 256.443C370.88 255.239 369.904 254.263 368.7 254.263C367.496 254.263 366.52 255.239 366.52 256.443C366.52 257.647 367.496 258.623 368.7 258.623Z" fill="#C2C2C2"/>
<path d="M358.25 256.443C358.254 256.874 358.385 257.293 358.627 257.649C358.869 258.005 359.211 258.281 359.61 258.443C360.008 258.605 360.446 258.645 360.868 258.559C361.289 258.473 361.676 258.264 361.979 257.958C362.282 257.652 362.487 257.264 362.57 256.841C362.652 256.419 362.608 255.982 362.442 255.585C362.277 255.187 361.997 254.848 361.639 254.609C361.281 254.371 360.861 254.243 360.43 254.243C360.142 254.242 359.856 254.298 359.59 254.409C359.323 254.519 359.082 254.681 358.879 254.886C358.676 255.091 358.516 255.334 358.408 255.601C358.3 255.869 358.246 256.155 358.25 256.443Z" fill="#C2C2C2"/>
<path d="M406.583 302.6C406.574 302.742 406.55 302.882 406.513 303.02C406.453 303.33 406.363 303.75 406.253 304.28C406.013 305.42 405.673 307.06 405.253 309.15C404.333 313.42 403.013 319.54 401.403 327.04V327.23L401.203 327.18L394.483 325.72C391.483 325.55 388.483 325.35 385.203 325.11C381.923 324.87 378.593 324.65 375.113 324.16C374.192 324.041 373.306 323.733 372.511 323.254C371.716 322.776 371.029 322.137 370.493 321.38C369.401 319.819 368.882 317.929 369.023 316.03C369.12 315.089 369.3 314.158 369.563 313.25C369.783 312.34 370.013 311.43 370.233 310.51L371.653 304.95C372.213 302.79 372.793 300.67 373.413 298.58C373.733 297.53 374.053 296.5 374.413 295.49C374.503 295.23 374.643 294.98 374.763 294.72C374.855 294.57 374.97 294.435 375.103 294.32C375.255 294.249 375.417 294.202 375.583 294.18C376.128 294.125 376.677 294.125 377.223 294.18C381.298 294.631 385.345 295.315 389.343 296.23H389.513V296.41C389.508 296.459 389.508 296.51 389.513 296.56C389.513 296.56 389.513 296.56 389.373 296.48C389.233 296.4 389.233 296.54 389.233 296.48C389.259 296.436 389.279 296.389 389.293 296.34C389.371 296.12 389.438 295.896 389.493 295.67C389.613 295.2 389.713 294.73 389.803 294.26C389.983 293.32 390.153 292.39 390.303 291.46C390.524 289.637 390.858 287.831 391.303 286.05C391.792 284.351 392.695 282.801 393.933 281.54C394.534 280.94 395.273 280.496 396.086 280.249C396.898 280.001 397.759 279.957 398.593 280.12H398.783L398.733 280.32L396.993 288.07V287.97C399.603 294.15 401.563 298.82 402.783 301.71H402.723L405.663 302.41L406.373 302.58L406.593 302.65H406.343L405.603 302.51L402.693 301.91C401.443 299.04 399.413 294.4 396.693 288.24V288.19C397.213 285.82 397.773 283.24 398.383 280.42L398.523 280.65C397.758 280.512 396.971 280.563 396.231 280.799C395.49 281.034 394.818 281.446 394.273 282C393.132 283.257 392.324 284.78 391.923 286.43C391.482 288.198 391.148 289.991 390.923 291.8C390.773 292.73 390.623 293.67 390.433 294.62C390.343 295.09 390.243 295.62 390.123 296.04C390.067 296.287 389.996 296.53 389.913 296.77C389.913 296.83 389.913 296.9 389.833 296.97C389.81 297.009 389.783 297.046 389.753 297.08C389.722 297.128 389.679 297.168 389.628 297.194C389.577 297.221 389.52 297.233 389.463 297.23C389.233 297.16 389.253 297.06 389.203 297.02C389.153 296.98 389.203 296.92 389.203 296.89V296.67L389.393 296.89C385.432 296.003 381.426 295.336 377.393 294.89C376.88 294.839 376.365 294.839 375.853 294.89C375.755 294.898 375.66 294.926 375.573 294.97C375.512 295.034 375.459 295.104 375.413 295.18C375.294 295.407 375.187 295.641 375.093 295.88C374.703 296.88 374.383 297.88 374.093 298.88C373.473 300.95 372.903 303.08 372.333 305.23C371.863 307.1 371.333 308.95 370.923 310.78C370.693 311.7 370.473 312.62 370.243 313.53C369.992 314.41 369.815 315.31 369.713 316.22C369.584 317.994 370.068 319.759 371.083 321.22C371.575 321.923 372.208 322.516 372.941 322.962C373.674 323.407 374.492 323.696 375.343 323.81C378.773 324.3 382.153 324.52 385.343 324.81L394.613 325.45L401.323 326.95L401.093 327.1C402.773 319.67 404.153 313.61 405.093 309.37C405.583 307.28 405.963 305.63 406.223 304.48C406.353 303.94 406.463 303.48 406.533 303.2C406.531 302.998 406.548 302.798 406.583 302.6Z" fill="white"/>
<path d="M418.192 302.93C417.968 302.917 417.744 302.894 417.522 302.86L415.682 302.61L408.992 301.61L409.192 301.47C407.832 307.72 405.872 316.69 403.702 326.67L403.492 327.54L403.292 327.23L409.952 328.71L409.652 328.88C412.042 321.5 414.142 315.05 415.652 310.37C416.412 308.09 417.022 306.24 417.462 304.9C417.672 304.3 417.832 303.81 417.972 303.42C418.019 303.236 418.086 303.059 418.172 302.89C418.142 303.053 418.098 303.213 418.042 303.37L417.622 304.82C417.212 306.15 416.622 307.99 415.962 310.27C414.492 315.01 412.462 321.55 410.132 329.04L410.072 329.26H409.842L403.182 327.79L402.922 327.73L402.982 327.48L403.172 326.6L408.822 301.44V301.27H408.982L415.762 302.45L417.542 302.78C417.762 302.813 417.979 302.864 418.192 302.93Z" fill="white"/>
</svg>
