<svg width="40" height="40" viewBox="0 0 40 40" fill="none" xmlns="http://www.w3.org/2000/svg">
<path d="M19.9993 23.3333C21.8403 23.3333 23.3327 21.8409 23.3327 20C23.3327 18.159 21.8403 16.6666 19.9993 16.6666C18.1584 16.6666 16.666 18.159 16.666 20C16.666 21.8409 18.1584 23.3333 19.9993 23.3333Z" stroke="#004EFF" stroke-width="2" stroke-linecap="round" stroke-linejoin="round"/>
<path d="M27.0657 12.9333C27.9955 13.8621 28.7331 14.965 29.2363 16.1789C29.7396 17.3929 29.9986 18.6942 29.9986 20.0083C29.9986 21.3225 29.7396 22.6238 29.2363 23.8377C28.7331 25.0517 27.9955 26.1546 27.0657 27.0833M12.9324 27.0667C12.0026 26.1379 11.265 25.0351 10.7618 23.8211C10.2585 22.6071 9.99951 21.3058 9.99951 19.9917C9.99951 18.6775 10.2585 17.3763 10.7618 16.1623C11.265 14.9483 12.0026 13.8454 12.9324 12.9167M31.7824 8.21667C34.9069 11.3421 36.6622 15.5806 36.6622 20C36.6622 24.4194 34.9069 28.6579 31.7824 31.7833M8.21571 31.7833C5.09119 28.6579 3.33594 24.4194 3.33594 20C3.33594 15.5806 5.09119 11.3421 8.21571 8.21667" stroke="#004EFF" stroke-width="2" stroke-linecap="round" stroke-linejoin="round"/>
</svg>
