<svg width="420" height="310" viewBox="0 0 420 310" fill="none" xmlns="http://www.w3.org/2000/svg">
<g clip-path="url(#clip0_2143_382)">
<path d="M377.916 288.531H350.095V288.741H377.916V288.531Z" fill="#164EFB"/>
<path d="M278.224 290.816H270.925V291.026H278.224V290.816Z" fill="#164EFB"/>
<path d="M349.255 280.736H333.136V280.946H349.255V280.736Z" fill="#164EFB"/>
<path d="M80.346 282.148H44.0664V282.358H80.346V282.148Z" fill="#164EFB"/>
<path d="M93.1473 282.148H87.8301V282.358H93.1473V282.148Z" fill="#164EFB"/>
<path d="M189.126 285.692H110.435V285.902H189.126V285.692Z" fill="#164EFB"/>
<path d="M199.08 237.552H36.8931C35.621 237.552 34.401 237.047 33.5015 236.147C32.602 235.248 32.0967 234.028 32.0967 232.756V4.7544C32.1078 3.48961 32.618 2.28039 33.5163 1.38995C34.4146 0.499516 35.6282 -4.84898e-05 36.8931 3.53014e-09H199.08C200.352 3.53015e-09 201.572 0.505334 202.472 1.40483C203.371 2.30433 203.877 3.52431 203.877 4.7964V232.756C203.877 234.028 203.371 235.248 202.472 236.147C201.572 237.047 200.352 237.552 199.08 237.552ZM36.8931 0.168001C35.6774 0.170221 34.5121 0.654142 33.6525 1.51378C32.7928 2.37341 32.3089 3.53869 32.3067 4.7544V232.756C32.3089 233.971 32.7928 235.137 33.6525 235.996C34.5121 236.856 35.6774 237.34 36.8931 237.342H199.08C200.296 237.34 201.461 236.856 202.321 235.996C203.181 235.137 203.664 233.971 203.667 232.756V4.7544C203.664 3.53869 203.181 2.37341 202.321 1.51378C201.461 0.654142 200.296 0.170221 199.08 0.168001H36.8931Z" fill="#164EFB"/>
<path d="M380.781 237.552H218.577C217.305 237.55 216.087 237.044 215.188 236.145C214.289 235.246 213.782 234.027 213.78 232.756V4.7544C213.794 3.49029 214.304 2.28234 215.202 1.39238C216.1 0.502411 217.312 0.00214056 218.577 0H380.781C382.043 0.00437178 383.252 0.505889 384.147 1.39585C385.041 2.28581 385.549 3.49251 385.56 4.7544V232.756C385.56 234.025 385.057 235.242 384.161 236.141C383.266 237.04 382.05 237.548 380.781 237.552ZM218.577 0.168001C217.361 0.170221 216.196 0.654142 215.336 1.51378C214.476 2.37341 213.992 3.53869 213.99 4.7544V232.756C213.992 233.971 214.476 235.137 215.336 235.996C216.196 236.856 217.361 237.34 218.577 237.342H380.781C381.996 237.34 383.162 236.856 384.021 235.996C384.881 235.137 385.365 233.971 385.367 232.756V4.7544C385.365 3.53869 384.881 2.37341 384.021 1.51378C383.162 0.654142 381.996 0.170221 380.781 0.168001H218.577Z" fill="#164EFB"/>
<path d="M420 275.016H0V275.226H420V275.016Z" fill="#164EFB"/>
<path d="M214.368 189.697C213.401 189.701 212.455 189.417 211.649 188.882C210.843 188.347 210.214 187.585 209.841 186.693C209.468 185.8 209.368 184.817 209.554 183.868C209.74 182.919 210.204 182.046 210.886 181.361C211.568 180.675 212.438 180.207 213.387 180.016C214.335 179.825 215.318 179.92 216.213 180.288C217.107 180.656 217.872 181.281 218.411 182.085C218.95 182.888 219.239 183.833 219.24 184.8C219.241 186.095 218.728 187.336 217.815 188.254C216.902 189.172 215.663 189.691 214.368 189.697ZM214.368 182.44C213.899 182.436 213.439 182.573 213.047 182.831C212.655 183.09 212.349 183.459 212.167 183.892C211.986 184.325 211.937 184.802 212.027 185.263C212.117 185.724 212.342 186.148 212.674 186.48C213.005 186.813 213.428 187.04 213.889 187.131C214.349 187.223 214.826 187.176 215.26 186.996C215.694 186.816 216.064 186.511 216.324 186.12C216.584 185.729 216.722 185.27 216.72 184.8C216.716 184.177 216.467 183.58 216.027 183.139C215.587 182.697 214.992 182.446 214.368 182.44Z" fill="#263238"/>
<path d="M217.756 186.555L215.973 188.335L221.76 194.131L223.543 192.35L217.756 186.555Z" fill="#263238"/>
<path d="M374.325 45.2715C376.553 31.5429 367.231 18.6071 353.502 16.3786C339.773 14.1502 326.838 23.4729 324.609 37.2015C322.381 50.9301 331.703 63.8659 345.432 66.0943C359.161 68.3228 372.096 59.0001 374.325 45.2715Z" fill="#BBCCFF"/>
<path d="M349.524 66.9732C342.775 66.8513 336.344 64.0847 331.614 59.2689C326.884 54.4531 324.234 47.9729 324.234 41.223C324.234 34.473 326.884 27.9929 331.614 23.1771C336.344 18.3612 342.775 15.5947 349.524 15.4728V16.6068C343.074 16.7259 336.928 19.3718 332.409 23.9753C327.89 28.5787 325.358 34.772 325.358 41.223C325.358 47.674 327.89 53.8672 332.409 58.4707C336.928 63.0742 343.074 65.72 349.524 65.8392V66.9732Z" fill="white"/>
<path d="M349.524 66.9732V65.8392C352.795 65.8997 356.045 65.3076 359.085 64.0977C362.124 62.8877 364.892 61.0841 367.227 58.7923C369.561 56.5005 371.416 53.7664 372.682 50.7498C373.948 47.7332 374.6 44.4945 374.6 41.223C374.6 37.9516 373.948 34.7129 372.682 31.6963C371.416 28.6796 369.561 25.9455 367.227 23.6537C364.892 21.3619 362.124 19.5584 359.085 18.3484C356.045 17.1385 352.795 16.5464 349.524 16.6068V15.4728C352.945 15.411 356.344 16.0314 359.522 17.2978C362.7 18.5641 365.594 20.451 368.035 22.8482C370.476 25.2455 372.415 28.105 373.739 31.2599C375.062 34.4148 375.744 37.8018 375.744 41.223C375.744 44.6443 375.062 48.0313 373.739 51.1861C372.415 54.341 370.476 57.2006 368.035 59.5978C365.594 61.9951 362.7 63.882 359.522 65.1483C356.344 66.4146 352.945 67.035 349.524 66.9732Z" fill="white"/>
<path d="M362.687 41.2272H361.553C361.553 32.886 357.353 21.714 349.222 16.5228L349.835 15.5652C358.268 21 362.687 32.5752 362.687 41.2272Z" fill="white"/>
<path d="M349.835 66.1248L349.222 65.1672C357.319 59.976 361.553 48.804 361.553 40.4628H362.687C362.687 49.1148 358.268 60.7068 349.835 66.1248Z" fill="white"/>
<path d="M337.503 41.2272H336.369C336.369 32.5668 340.779 20.9748 349.221 15.5652L349.834 16.5144C341.737 21.714 337.503 32.8776 337.503 41.2272Z" fill="white"/>
<path d="M349.221 66.1163C340.779 60.6983 336.369 49.1063 336.369 40.4543H337.503C337.503 48.8039 341.703 59.9675 349.834 65.1587L349.221 66.1163Z" fill="white"/>
<path d="M350.095 16.0356H348.961V66.4021H350.095V16.0356Z" fill="white"/>
<path d="M370.851 27.2412H328.213V28.3752H370.851V27.2412Z" fill="white"/>
<path d="M374.707 41.0844H324.357V42.2183H374.707V41.0844Z" fill="white"/>
<path d="M370.281 54.9192H328.776V56.0532H370.281V54.9192Z" fill="white"/>
<path d="M80.295 31.9201C80.3041 30.2124 80.0549 28.5132 79.5558 26.8801L83.949 23.0245L81.1854 18.2365L75.6498 20.1601C73.3248 17.6607 70.311 15.9068 66.9894 15.1201L65.8386 9.39966H60.3198L59.1774 15.1201C55.8533 15.9067 52.8368 17.6605 50.5086 20.1601L44.973 18.2869L42.2178 23.0749L46.6026 26.9305C45.617 30.1924 45.617 33.6729 46.6026 36.9349L42.2178 40.7821L44.973 45.5701L50.5086 43.6801C52.8368 46.1796 55.8533 47.9334 59.1774 48.7201L60.3198 54.4489H65.8386L66.9894 48.7201C70.311 47.9333 73.3248 46.1794 75.6498 43.6801L81.1854 45.5533L83.949 40.7653L79.5558 36.9601C80.0535 35.3266 80.3027 33.6276 80.295 31.9201ZM63.0834 41.2273C61.312 41.2289 59.5799 40.7052 58.1063 39.7222C56.6326 38.7393 55.4836 37.3414 54.8046 35.7054C54.1256 34.0693 53.9471 32.2686 54.2916 30.5311C54.6362 28.7936 55.4883 27.1973 56.7403 25.9441C57.9923 24.691 59.5878 23.8373 61.325 23.4911C63.0622 23.1449 64.863 23.3218 66.4997 23.9993C68.1364 24.6768 69.5354 25.8245 70.5197 27.2972C71.504 28.7699 72.0294 30.5015 72.0294 32.2729C72.0305 33.4484 71.7999 34.6126 71.3508 35.6989C70.9017 36.7853 70.243 37.7725 69.4121 38.6041C68.5813 39.4357 67.5947 40.0954 66.5088 40.5455C65.4229 40.9956 64.2589 41.2273 63.0834 41.2273Z" fill="#BBCCFF"/>
<path d="M103.983 55.7256C103.982 54.4366 103.792 53.1547 103.421 51.9204L106.781 48.9804L104.681 45.3432L100.481 46.7712C98.7093 44.8743 96.414 43.5469 93.8865 42.9576L93.0465 38.598H88.8465L88.0065 42.9576C85.4765 43.5468 83.1786 44.8741 81.4041 46.7712L77.2041 45.3432L75.0957 48.9804L78.4557 51.9204C77.7052 54.4046 77.7052 57.0551 78.4557 59.5392L75.0957 62.4708L77.2041 66.1164L81.4041 64.6884C83.1786 66.5855 85.4765 67.9129 88.0065 68.502L88.8465 72.8616H93.0465L93.8865 68.502C96.414 67.9128 98.7093 66.5853 100.481 64.6884L104.681 66.1164L106.781 62.4708L103.421 59.5392C103.792 58.3021 103.982 57.0174 103.983 55.7256ZM90.8709 62.8068C89.5212 62.8085 88.2013 62.4097 87.0783 61.6608C85.9553 60.912 85.0798 59.8468 84.5625 58.6001C84.0452 57.3534 83.9094 55.9813 84.1724 54.6574C84.4353 53.3335 85.0851 52.1174 86.0395 51.163C86.9939 50.2086 88.21 49.5588 89.5339 49.2959C90.8578 49.033 92.2299 49.1687 93.4766 49.686C94.7233 50.2033 95.7884 51.0789 96.5373 52.2018C97.2861 53.3248 97.685 54.6447 97.6833 55.9944C97.6833 57.8012 96.9656 59.5339 95.688 60.8115C94.4104 62.0891 92.6777 62.8068 90.8709 62.8068Z" fill="#BBCCFF"/>
<path d="M166.833 34.0704L169.059 29.5428L171.293 34.0621L176.283 34.7845L172.671 38.304L173.528 43.2685L169.067 40.9249L164.615 43.2768L165.464 38.3124L161.852 34.7928L166.833 34.0704Z" fill="#678CFF"/>
<path d="M187.135 34.0704L189.361 29.5428L191.596 34.0621L196.577 34.7845L192.973 38.304L193.83 43.2685L189.37 40.9249L184.909 43.2768L185.758 38.3124L182.146 34.7928L187.135 34.0704Z" fill="#678CFF"/>
<path d="M207.429 34.0704L209.655 29.5428L211.89 34.0621L216.879 34.7845L213.276 38.304L214.133 43.2685L209.672 40.9249L205.212 43.2768L206.06 38.3124L202.448 34.7928L207.429 34.0704Z" fill="#678CFF"/>
<path d="M227.732 34.0704L229.958 29.5428L232.193 34.0621L237.182 34.7845L233.57 38.304L234.427 43.2685L229.967 40.9249L225.515 43.2768L226.363 38.3124L222.751 34.7928L227.732 34.0704Z" fill="#678CFF"/>
<path d="M248.036 34.0704L250.261 29.5428L252.496 34.0621L257.477 34.7845L253.874 38.304L254.73 43.2685L250.27 40.9249L245.81 43.2768L246.658 38.3124L243.046 34.7928L248.036 34.0704Z" fill="#678CFF"/>
<path d="M205.952 309.716C295.901 309.716 368.819 305.459 368.819 300.208C368.819 294.956 295.901 290.699 205.952 290.699C116.002 290.699 43.084 294.956 43.084 300.208C43.084 305.459 116.002 309.716 205.952 309.716Z" fill="#F7F8FF"/>
<path d="M150.915 291.841L150.747 293.773C150.729 294.011 150.755 294.25 150.822 294.479C150.853 294.585 150.898 294.687 150.957 294.781C151.018 294.875 151.086 294.965 151.158 295.05C151.232 295.136 151.317 295.212 151.41 295.277C151.695 295.479 152.035 295.588 152.385 295.588H221.601C221.766 295.588 221.93 295.562 222.088 295.512C222.198 295.479 222.304 295.437 222.407 295.386C222.773 295.207 223.068 294.912 223.247 294.546C223.354 294.342 223.42 294.12 223.44 293.891L223.6 292.034C223.626 291.813 223.6 291.589 223.524 291.379C223.493 291.282 223.45 291.19 223.398 291.102C223.268 290.882 223.083 290.7 222.861 290.573C222.766 290.521 222.668 290.476 222.567 290.438C222.412 290.388 222.25 290.363 222.088 290.363H204.851C204.634 290.365 204.417 290.346 204.204 290.304L203.961 290.237C203.868 290.211 203.779 290.177 203.692 290.136C203.608 290.109 203.528 290.07 203.457 290.018C203.336 289.956 203.221 289.882 203.112 289.8C202.982 289.696 202.861 289.581 202.751 289.456C202.692 289.38 202.633 289.313 202.575 289.229L202.457 289.061L202.415 288.994C202.365 288.917 202.323 288.835 202.289 288.75L202.188 288.523C202.192 288.507 202.192 288.489 202.188 288.473C202.193 288.454 202.193 288.433 202.188 288.414C202.164 288.349 202.147 288.281 202.138 288.212C202.129 288.117 202.129 288.022 202.138 287.927C202.138 287.843 202.138 287.75 202.138 287.658C202.138 287.566 202.138 287.482 202.138 287.389V287.28C202.133 287.19 202.133 287.101 202.138 287.011C202.138 286.91 202.18 286.826 202.197 286.734L208.967 260.761L210.269 255.772L211.285 251.866H171.973L169.865 255.772L167.177 260.761L151.889 289.103C151.839 289.204 151.788 289.304 151.73 289.405L151.578 289.75C151.536 289.867 151.486 289.976 151.444 290.102L151.368 290.338C151.162 290.821 151.01 291.325 150.915 291.841Z" fill="#263238"/>
<path opacity="0.2" d="M223.574 292.051L223.415 293.924C223.372 294.378 223.163 294.801 222.828 295.11C222.493 295.42 222.056 295.596 221.6 295.604H152.401C152.169 295.605 151.939 295.558 151.726 295.465C151.513 295.372 151.321 295.236 151.163 295.066C151.005 294.895 150.884 294.694 150.808 294.474C150.732 294.255 150.703 294.022 150.721 293.79L150.889 291.858C150.933 291.341 151.035 290.832 151.192 290.338C151.334 289.905 151.514 289.487 151.729 289.086L171.822 251.849H211.134L202.045 286.717C201.985 286.917 201.949 287.122 201.936 287.33C201.878 288.019 202.075 288.705 202.488 289.259C202.901 289.813 203.502 290.196 204.179 290.338C204.391 290.387 204.608 290.409 204.826 290.405H222.037C222.25 290.399 222.462 290.439 222.658 290.521C222.855 290.603 223.031 290.726 223.177 290.882C223.322 291.037 223.433 291.222 223.501 291.424C223.57 291.625 223.595 291.839 223.574 292.051Z" fill="white"/>
<path d="M149.52 289.069L169.605 251.824H171.831L151.738 289.069C151.272 289.926 150.986 290.87 150.898 291.841L150.73 293.773C150.704 294.006 150.729 294.241 150.803 294.463C150.877 294.686 150.997 294.889 151.157 295.061C151.316 295.232 151.51 295.367 151.727 295.456C151.943 295.546 152.176 295.588 152.41 295.579H150.184C149.95 295.588 149.717 295.546 149.501 295.456C149.284 295.367 149.09 295.232 148.931 295.061C148.771 294.889 148.651 294.686 148.577 294.463C148.503 294.241 148.478 294.006 148.504 293.773L148.672 291.841C148.759 290.868 149.048 289.924 149.52 289.069Z" fill="#263238"/>
<path opacity="0.3" d="M171.848 251.824H211.151L208.833 260.728H167.043L171.848 251.824Z" fill="black"/>
<path d="M105.151 128.419V249.606C105.15 250.411 105.308 251.208 105.615 251.952C105.922 252.696 106.373 253.372 106.942 253.941C107.511 254.511 108.186 254.963 108.93 255.271C109.673 255.579 110.47 255.738 111.275 255.738H278.998C279.803 255.738 280.6 255.579 281.343 255.271C282.087 254.963 282.762 254.511 283.331 253.941C283.9 253.372 284.35 252.696 284.658 251.952C284.965 251.208 285.122 250.411 285.121 249.606V128.419C285.122 127.614 284.965 126.816 284.657 126.071C284.349 125.327 283.897 124.65 283.328 124.081C282.758 123.511 282.082 123.06 281.337 122.752C280.593 122.444 279.795 122.286 278.989 122.287H111.292C109.943 122.288 108.632 122.734 107.562 123.556C107.412 123.667 107.269 123.788 107.134 123.917C106.721 124.292 106.364 124.725 106.075 125.202C105.873 125.517 105.704 125.852 105.571 126.202C105.298 126.909 105.156 127.661 105.151 128.419Z" fill="#263238"/>
<path d="M285.122 236.502V249.606C285.122 251.232 284.476 252.792 283.326 253.942C282.176 255.092 280.616 255.738 278.99 255.738H111.292C109.666 255.738 108.106 255.092 106.956 253.942C105.806 252.792 105.16 251.232 105.16 249.606V236.502H285.122Z" fill="#004EFF"/>
<path opacity="0.6" d="M285.122 236.502V249.606C285.122 251.232 284.476 252.792 283.326 253.942C282.176 255.092 280.616 255.738 278.99 255.738H111.292C109.666 255.738 108.106 255.092 106.956 253.942C105.806 252.792 105.16 251.232 105.16 249.606V236.502H285.122Z" fill="white"/>
<path d="M111.401 232.798H278.88C279.771 232.798 280.626 232.444 281.256 231.813C281.886 231.183 282.24 230.329 282.24 229.438V129.36C282.24 128.469 281.886 127.614 281.256 126.984C280.626 126.354 279.771 126 278.88 126H111.401C110.51 126 109.655 126.354 109.025 126.984C108.395 127.614 108.041 128.469 108.041 129.36V229.471C108.05 230.356 108.408 231.203 109.037 231.825C109.666 232.448 110.516 232.798 111.401 232.798Z" fill="#004EFF"/>
<path d="M107.579 122.287H111.292C109.666 122.287 108.106 122.933 106.956 124.083C105.806 125.233 105.16 126.793 105.16 128.419V249.606C105.16 251.232 105.806 252.792 106.956 253.942C108.106 255.092 109.666 255.738 111.292 255.738H107.579C105.953 255.738 104.393 255.092 103.243 253.942C102.093 252.792 101.447 251.232 101.447 249.606V128.419C101.447 126.793 102.093 125.233 103.243 124.083C104.393 122.933 105.953 122.287 107.579 122.287Z" fill="#263238"/>
<g opacity="0.2">
<path d="M107.579 122.287H111.292C109.666 122.287 108.106 122.933 106.956 124.083C105.806 125.233 105.16 126.793 105.16 128.419V249.606C105.16 251.232 105.806 252.792 106.956 253.942C108.106 255.092 109.666 255.738 111.292 255.738H107.579C105.953 255.738 104.393 255.092 103.243 253.942C102.093 252.792 101.447 251.232 101.447 249.606V128.419C101.447 126.793 102.093 125.233 103.243 124.083C104.393 122.933 105.953 122.287 107.579 122.287Z" fill="white"/>
</g>
<path opacity="0.5" d="M283.232 189.773C278.914 188.933 272.076 191.73 270.8 195.93C270.943 194.648 270.715 193.351 270.141 192.195C269.568 191.039 268.674 190.073 267.566 189.412C265.34 188.126 262.425 187.219 260.375 188.765C261.347 184.637 261.15 180.32 259.805 176.297C258.461 172.275 256.023 168.707 252.765 165.992C246.196 160.675 236.612 160.112 229.026 163.817C230.123 161.711 230.744 159.39 230.848 157.018C230.952 154.646 230.536 152.279 229.628 150.085C228.72 147.891 227.343 145.922 225.594 144.317C223.844 142.712 221.765 141.509 219.501 140.792C208.95 137.118 197.668 136.049 186.615 137.676C180.222 138.617 173.704 140.616 169.059 145.102C164.414 149.587 163.179 157.702 166.304 163.355C162.698 162.19 158.842 162.036 155.155 162.908C151.467 163.78 148.089 165.646 145.388 168.302C142.783 171.023 140.979 174.41 140.174 178.09C139.369 181.769 139.595 185.6 140.826 189.16C139.835 188.571 138.713 188.24 137.561 188.196C136.41 188.152 135.265 188.397 134.232 188.908C133.215 189.424 132.346 190.19 131.706 191.135C131.067 192.08 130.679 193.172 130.578 194.309C129.235 192.536 127.486 191.112 125.478 190.156C123.469 189.2 121.261 188.741 119.038 188.817C116.815 188.893 114.643 189.501 112.705 190.591C110.766 191.682 109.118 193.222 107.898 195.082V232.798H282.24L283.232 189.773Z" fill="white"/>
<path d="M244.382 173.216H154.569C149.999 173.216 146.295 176.921 146.295 181.49C146.295 186.06 149.999 189.764 154.569 189.764H244.382C248.951 189.764 252.656 186.06 252.656 181.49C252.656 176.921 248.951 173.216 244.382 173.216Z" fill="white"/>
<path d="M154.057 184.657C153.09 184.657 152.145 184.371 151.341 183.833C150.537 183.296 149.91 182.533 149.54 181.639C149.17 180.746 149.073 179.763 149.262 178.815C149.451 177.866 149.916 176.995 150.6 176.312C151.284 175.628 152.155 175.162 153.103 174.974C154.051 174.785 155.034 174.882 155.928 175.252C156.821 175.622 157.584 176.248 158.122 177.052C158.659 177.856 158.946 178.802 158.946 179.768C158.943 181.064 158.428 182.307 157.511 183.223C156.595 184.139 155.353 184.655 154.057 184.657ZM154.057 177.4C153.588 177.4 153.13 177.539 152.741 177.799C152.351 178.059 152.048 178.429 151.868 178.862C151.689 179.295 151.642 179.771 151.733 180.231C151.825 180.69 152.05 181.112 152.382 181.443C152.713 181.775 153.135 182 153.595 182.092C154.054 182.183 154.53 182.136 154.963 181.957C155.396 181.778 155.766 181.474 156.026 181.084C156.287 180.695 156.426 180.237 156.426 179.768C156.423 179.141 156.173 178.54 155.729 178.096C155.286 177.652 154.684 177.402 154.057 177.4Z" fill="#263238"/>
<path d="M157.44 181.506L155.657 183.286L161.444 189.082L163.228 187.301L157.44 181.506Z" fill="#263238"/>
<g opacity="0.1">
<path d="M225.516 125.992H231.95L245.314 232.798H238.872L225.516 125.992Z" fill="white"/>
<path d="M251.825 232.798L238.469 125.992H262.669L276.025 232.798H251.825Z" fill="white"/>
</g>
<path opacity="0.2" d="M162.852 292.068L162.7 293.84C162.675 294.062 162.698 294.287 162.766 294.5C162.835 294.713 162.948 294.908 163.099 295.073C163.249 295.239 163.433 295.37 163.638 295.459C163.843 295.548 164.065 295.591 164.288 295.588H221.601C222.057 295.579 222.494 295.404 222.829 295.094C223.163 294.784 223.372 294.362 223.416 293.908L223.575 292.051C223.602 291.838 223.582 291.621 223.517 291.416C223.453 291.211 223.344 291.022 223.2 290.863C223.056 290.703 222.879 290.577 222.681 290.492C222.483 290.407 222.27 290.366 222.055 290.371H204.843C204.628 290.372 204.414 290.347 204.205 290.296H164.725C164.25 290.312 163.798 290.501 163.453 290.828C163.108 291.154 162.894 291.595 162.852 292.068Z" fill="white"/>
<path opacity="0.2" d="M151.2 290.321H204.204C203.527 290.183 202.924 289.8 202.512 289.245C202.099 288.69 201.906 288.002 201.97 287.314H152.88L151.2 290.321Z" fill="black"/>
<path d="M178.308 163.288L179.467 160.709C180.902 161.701 182.602 162.24 184.347 162.254C186.372 162.254 187.195 161.574 187.195 160.667C187.195 157.903 178.602 159.827 178.602 154.316C178.602 151.796 180.626 149.713 184.826 149.713C186.624 149.676 188.398 150.129 189.958 151.024L188.9 153.619C187.657 152.883 186.245 152.484 184.801 152.46C182.776 152.46 181.995 153.216 181.995 154.14C181.995 156.862 190.588 154.98 190.588 160.406C190.588 162.876 188.539 164.993 184.314 164.993C182.185 165.046 180.091 164.451 178.308 163.288Z" fill="#263238"/>
<path d="M204.381 162.002V164.741H192.94V149.965H204.121V152.712H196.351V155.921H203.214V158.584H196.351V162.002H204.381Z" fill="#263238"/>
<path d="M206.137 157.357C206.137 152.964 209.556 149.713 214.218 149.713C218.88 149.713 222.307 152.947 222.307 157.357C222.307 161.767 218.863 165.001 214.218 165.001C209.572 165.001 206.137 161.75 206.137 157.357ZM218.846 157.357C218.82 156.449 218.526 155.568 218.003 154.825C217.479 154.082 216.748 153.51 215.901 153.18C215.055 152.849 214.129 152.776 213.241 152.968C212.353 153.16 211.541 153.609 210.906 154.26C210.271 154.911 209.842 155.734 209.673 156.627C209.503 157.52 209.6 158.443 209.951 159.281C210.302 160.119 210.893 160.835 211.648 161.34C212.404 161.845 213.292 162.116 214.201 162.12C214.826 162.14 215.449 162.029 216.029 161.795C216.609 161.561 217.135 161.209 217.572 160.761C218.008 160.313 218.347 159.779 218.567 159.193C218.786 158.607 218.881 157.982 218.846 157.357Z" fill="#263238"/>
<path opacity="0.8" d="M195.065 200.626H159.617C157.831 200.626 156.383 202.074 156.383 203.86V211.352C156.383 213.138 157.831 214.586 159.617 214.586H195.065C196.851 214.586 198.299 213.138 198.299 211.352V203.86C198.299 202.074 196.851 200.626 195.065 200.626Z" fill="white"/>
<path opacity="0.8" d="M246.473 200.626H211.025C209.239 200.626 207.791 202.074 207.791 203.86V211.352C207.791 213.138 209.239 214.586 211.025 214.586H246.473C248.259 214.586 249.707 213.138 249.707 211.352V203.86C249.707 202.074 248.259 200.626 246.473 200.626Z" fill="white"/>
<path d="M176.334 130.754L197.157 93.7944C197.23 93.6651 197.337 93.5576 197.465 93.4828C197.593 93.4079 197.739 93.3685 197.888 93.3685C198.037 93.3685 198.182 93.4079 198.311 93.4828C198.439 93.5576 198.545 93.6651 198.619 93.7944L219.442 130.754C219.512 130.882 219.548 131.025 219.545 131.171C219.543 131.316 219.503 131.458 219.43 131.583C219.356 131.709 219.251 131.813 219.125 131.885C218.999 131.958 218.857 131.997 218.712 131.998H177.073C176.927 131.998 176.783 131.96 176.656 131.888C176.529 131.816 176.423 131.712 176.348 131.587C176.274 131.461 176.233 131.319 176.231 131.173C176.228 131.027 176.263 130.882 176.334 130.754Z" fill="#004EFF"/>
<path opacity="0.3" d="M176.334 130.754L197.157 93.7944C197.23 93.6651 197.337 93.5576 197.465 93.4828C197.593 93.4079 197.739 93.3685 197.888 93.3685C198.037 93.3685 198.182 93.4079 198.311 93.4828C198.439 93.5576 198.545 93.6651 198.619 93.7944L219.442 130.754C219.512 130.882 219.548 131.025 219.545 131.171C219.543 131.316 219.503 131.458 219.43 131.583C219.356 131.709 219.251 131.813 219.125 131.885C218.999 131.958 218.857 131.997 218.712 131.998H177.073C176.927 131.998 176.783 131.96 176.656 131.888C176.529 131.816 176.423 131.712 176.348 131.587C176.274 131.461 176.233 131.319 176.231 131.173C176.228 131.027 176.263 130.882 176.334 130.754Z" fill="black"/>
<path d="M187.992 137.533L186.976 133.384H183.33L182.322 137.533C184.137 138.285 186.177 138.285 187.992 137.533Z" fill="#263238"/>
<path opacity="0.2" d="M183.331 133.384L183.096 134.35C184.439 134.744 185.868 134.744 187.212 134.35L186.976 133.384H183.331Z" fill="white"/>
<path opacity="0.4" d="M182.844 135.391C182.776 135.66 182.709 135.92 182.65 136.172C184.291 136.688 186.05 136.688 187.69 136.172L187.506 135.391C185.967 135.702 184.382 135.702 182.844 135.391Z" fill="white"/>
<path d="M189 133.09C186.536 134.107 183.77 134.107 181.306 133.09V102.262C181.303 100.536 181.642 98.8268 182.302 97.2324C182.962 95.6381 183.931 94.1899 185.153 92.9712C186.375 94.1899 187.343 95.6381 188.004 97.2324C188.664 98.8268 189.003 100.536 189 102.262V133.09Z" fill="#004EFF"/>
<path d="M181.306 102.262V131.317C183.797 132.187 186.509 132.187 189 131.317V102.262C189.003 100.536 188.664 98.8268 188.004 97.2324C187.343 95.6381 186.375 94.1899 185.153 92.9712C183.931 94.1899 182.962 95.6381 182.302 97.2324C181.642 98.8268 181.303 100.536 181.306 102.262Z" fill="#004EFF"/>
<path opacity="0.4" d="M181.306 102.262V131.317C183.797 132.187 186.509 132.187 189 131.317V102.262C189.003 100.536 188.664 98.8268 188.004 97.2324C187.343 95.6381 186.375 94.1899 185.153 92.9712C183.931 94.1899 182.962 95.6381 182.302 97.2324C181.642 98.8268 181.303 100.536 181.306 102.262Z" fill="white"/>
<path d="M181.306 102.262V124.102C183.82 124.82 186.486 124.82 189 124.102V102.262C189.003 100.536 188.664 98.8268 188.004 97.2324C187.343 95.6381 186.375 94.1899 185.153 92.9712C183.931 94.1899 182.962 95.6381 182.302 97.2324C181.642 98.8268 181.303 100.536 181.306 102.262Z" fill="#004EFF"/>
<path opacity="0.6" d="M181.306 102.262V124.102C183.82 124.82 186.486 124.82 189 124.102V102.262C189.003 100.536 188.664 98.8268 188.004 97.2324C187.343 95.6381 186.375 94.1899 185.153 92.9712C183.931 94.1899 182.962 95.6381 182.302 97.2324C181.642 98.8268 181.303 100.536 181.306 102.262Z" fill="white"/>
<path d="M181.306 102.262V113.686C183.82 114.408 186.486 114.408 189 113.686V102.262C189.003 100.536 188.664 98.8268 188.004 97.2324C187.343 95.6381 186.375 94.1899 185.153 92.9712C183.931 94.1899 182.962 95.6381 182.302 97.2324C181.642 98.8268 181.303 100.536 181.306 102.262Z" fill="#004EFF"/>
<path opacity="0.8" d="M181.306 102.262V113.686C183.82 114.408 186.486 114.408 189 113.686V102.262C189.003 100.536 188.664 98.8268 188.004 97.2324C187.343 95.6381 186.375 94.1899 185.153 92.9712C183.931 94.1899 182.962 95.6381 182.302 97.2324C181.642 98.8268 181.303 100.536 181.306 102.262Z" fill="white"/>
<path d="M181.306 102.262V103.597C183.82 104.316 186.486 104.316 189 103.597V102.262C189.003 100.536 188.664 98.8268 188.004 97.2324C187.343 95.6381 186.375 94.1899 185.153 92.9712C183.931 94.1899 182.962 95.6381 182.302 97.2324C181.642 98.8268 181.303 100.536 181.306 102.262Z" fill="#004EFF"/>
<path opacity="0.4" d="M181.306 102.262V103.597C183.82 104.316 186.486 104.316 189 103.597V102.262C189.003 100.536 188.664 98.8268 188.004 97.2324C187.343 95.6381 186.375 94.1899 185.153 92.9712C183.931 94.1899 182.962 95.6381 182.302 97.2324C181.642 98.8268 181.303 100.536 181.306 102.262Z" fill="white"/>
<path d="M212.747 137.533L211.739 133.384H208.094L207.077 137.533C208.892 138.285 210.932 138.285 212.747 137.533Z" fill="#263238"/>
<path opacity="0.2" d="M208.094 133.384L207.858 134.35C209.202 134.744 210.631 134.744 211.974 134.35L211.739 133.384H208.094Z" fill="white"/>
<path opacity="0.4" d="M207.598 135.391C207.539 135.66 207.472 135.92 207.413 136.172C209.053 136.688 210.813 136.688 212.453 136.172L212.26 135.391C210.721 135.702 209.136 135.702 207.598 135.391Z" fill="white"/>
<path d="M213.764 133.09C211.3 134.107 208.533 134.107 206.069 133.09V102.262C206.067 100.536 206.405 98.8268 207.066 97.2324C207.726 95.6381 208.695 94.1899 209.917 92.9712C211.138 94.1899 212.107 95.6381 212.767 97.2324C213.428 98.8268 213.766 100.536 213.764 102.262V133.09Z" fill="#004EFF"/>
<path d="M206.069 102.262V131.317C208.56 132.187 211.273 132.187 213.764 131.317V102.262C213.766 100.536 213.428 98.8268 212.767 97.2324C212.107 95.6381 211.138 94.1899 209.917 92.9712C208.695 94.1899 207.726 95.6381 207.066 97.2324C206.405 98.8268 206.067 100.536 206.069 102.262Z" fill="#004EFF"/>
<path opacity="0.4" d="M206.069 102.262V131.317C208.56 132.187 211.273 132.187 213.764 131.317V102.262C213.766 100.536 213.428 98.8268 212.767 97.2324C212.107 95.6381 211.138 94.1899 209.917 92.9712C208.695 94.1899 207.726 95.6381 207.066 97.2324C206.405 98.8268 206.067 100.536 206.069 102.262Z" fill="white"/>
<path d="M206.069 102.262V124.102C208.584 124.82 211.249 124.82 213.764 124.102V102.262C213.766 100.536 213.428 98.8268 212.767 97.2324C212.107 95.6381 211.138 94.1899 209.917 92.9712C208.695 94.1899 207.726 95.6381 207.066 97.2324C206.405 98.8268 206.067 100.536 206.069 102.262Z" fill="#004EFF"/>
<path opacity="0.6" d="M206.069 102.262V124.102C208.584 124.82 211.249 124.82 213.764 124.102V102.262C213.766 100.536 213.428 98.8268 212.767 97.2324C212.107 95.6381 211.138 94.1899 209.917 92.9712C208.695 94.1899 207.726 95.6381 207.066 97.2324C206.405 98.8268 206.067 100.536 206.069 102.262Z" fill="white"/>
<path d="M206.069 102.262V113.686C208.583 114.408 211.25 114.408 213.764 113.686V102.262C213.766 100.536 213.428 98.8268 212.767 97.2324C212.107 95.6381 211.138 94.1899 209.917 92.9712C208.695 94.1899 207.726 95.6381 207.066 97.2324C206.405 98.8268 206.067 100.536 206.069 102.262Z" fill="#004EFF"/>
<path opacity="0.8" d="M206.069 102.262V113.686C208.583 114.408 211.25 114.408 213.764 113.686V102.262C213.766 100.536 213.428 98.8268 212.767 97.2324C212.107 95.6381 211.138 94.1899 209.917 92.9712C208.695 94.1899 207.726 95.6381 207.066 97.2324C206.405 98.8268 206.067 100.536 206.069 102.262Z" fill="white"/>
<path d="M206.069 102.262V103.597C208.584 104.316 211.249 104.316 213.764 103.597V102.262C213.766 100.536 213.428 98.8268 212.767 97.2324C212.107 95.6381 211.138 94.1899 209.917 92.9712C208.695 94.1899 207.726 95.6381 207.066 97.2324C206.405 98.8268 206.067 100.536 206.069 102.262Z" fill="#004EFF"/>
<path opacity="0.4" d="M206.069 102.262V103.597C208.584 104.316 211.249 104.316 213.764 103.597V102.262C213.766 100.536 213.428 98.8268 212.767 97.2324C212.107 95.6381 211.138 94.1899 209.917 92.9712C208.695 94.1899 207.726 95.6381 207.066 97.2324C206.405 98.8268 206.067 100.536 206.069 102.262Z" fill="white"/>
<path d="M202.113 139.91L200.433 133.19H194.553L192.915 139.91C194.371 140.521 195.935 140.836 197.514 140.836C199.093 140.836 200.657 140.521 202.113 139.91Z" fill="#263238"/>
<path opacity="0.2" d="M194.594 133.216C194.594 133.216 194.351 134.224 194.208 134.778C196.38 135.412 198.689 135.412 200.861 134.778L200.474 133.207L194.594 133.216Z" fill="white"/>
<path opacity="0.4" d="M193.797 136.466L193.494 137.726C196.126 138.541 198.943 138.541 201.575 137.726L201.273 136.466C198.804 136.953 196.265 136.953 193.797 136.466Z" fill="white"/>
<path d="M203.75 132.72C201.781 133.542 199.668 133.965 197.534 133.965C195.4 133.965 193.288 133.542 191.318 132.72V82.9752C191.316 80.1897 191.863 77.4311 192.93 74.8579C193.997 72.2848 195.562 69.9478 197.534 67.9812C199.507 69.9478 201.072 72.2848 202.139 74.8579C203.205 77.4311 203.753 80.1897 203.75 82.9752V132.72Z" fill="#004EFF"/>
<path d="M191.318 82.9752V129.889C195.345 131.284 199.724 131.284 203.75 129.889V82.9752C203.753 80.1897 203.205 77.4311 202.139 74.8579C201.072 72.2848 199.507 69.9478 197.534 67.9812C195.562 69.9478 193.997 72.2848 192.93 74.8579C191.863 77.4311 191.316 80.1897 191.318 82.9752Z" fill="#004EFF"/>
<path opacity="0.4" d="M191.318 82.9752V129.889C195.345 131.284 199.724 131.284 203.75 129.889V82.9752C203.753 80.1897 203.205 77.4311 202.139 74.8579C201.072 72.2848 199.507 69.9478 197.534 67.9812C195.562 69.9478 193.997 72.2848 192.93 74.8579C191.863 77.4311 191.316 80.1897 191.318 82.9752Z" fill="white"/>
<path d="M191.318 82.9752V118.205C195.381 119.363 199.687 119.363 203.75 118.205V82.9752C203.753 80.1897 203.205 77.4311 202.139 74.8579C201.072 72.2848 199.507 69.9478 197.534 67.9812C195.562 69.9478 193.997 72.2848 192.93 74.8579C191.863 77.4311 191.316 80.1897 191.318 82.9752Z" fill="#004EFF"/>
<path opacity="0.6" d="M191.318 82.9752V118.205C195.381 119.363 199.687 119.363 203.75 118.205V82.9752C203.753 80.1897 203.205 77.4311 202.139 74.8579C201.072 72.2848 199.507 69.9478 197.534 67.9812C195.562 69.9478 193.997 72.2848 192.93 74.8579C191.863 77.4311 191.316 80.1897 191.318 82.9752Z" fill="white"/>
<path d="M191.318 82.9752V101.455C195.381 102.613 199.687 102.613 203.75 101.455V82.9752C203.753 80.1897 203.205 77.4311 202.139 74.8579C201.072 72.2848 199.507 69.9478 197.534 67.9812C195.562 69.9478 193.997 72.2848 192.93 74.8579C191.863 77.4311 191.316 80.1897 191.318 82.9752Z" fill="#004EFF"/>
<path opacity="0.8" d="M191.318 82.9752V101.455C195.381 102.613 199.687 102.613 203.75 101.455V82.9752C203.753 80.1897 203.205 77.4311 202.139 74.8579C201.072 72.2848 199.507 69.9478 197.534 67.9812C195.562 69.9478 193.997 72.2848 192.93 74.8579C191.863 77.4311 191.316 80.1897 191.318 82.9752Z" fill="white"/>
<path d="M191.318 82.9752V85.134C195.381 86.2919 199.687 86.2919 203.75 85.134V82.9752C203.753 80.1897 203.205 77.4311 202.139 74.8579C201.072 72.2848 199.507 69.9478 197.534 67.9812C195.562 69.9478 193.997 72.2848 192.93 74.8579C191.863 77.4311 191.316 80.1897 191.318 82.9752Z" fill="#004EFF"/>
<path opacity="0.1" d="M191.318 82.9752V85.134C195.381 86.2919 199.687 86.2919 203.75 85.134V82.9752C203.753 80.1897 203.205 77.4311 202.139 74.8579C201.072 72.2848 199.507 69.9478 197.534 67.9812C195.562 69.9478 193.997 72.2848 192.93 74.8579C191.863 77.4311 191.316 80.1897 191.318 82.9752Z" fill="white"/>
<path d="M201.155 92.9293C201.157 93.6457 200.946 94.3464 200.549 94.9429C200.152 95.5394 199.587 96.0048 198.926 96.2801C198.264 96.5554 197.536 96.6283 196.833 96.4895C196.13 96.3508 195.485 96.0066 194.977 95.5006C194.47 94.9946 194.125 94.3496 193.984 93.6471C193.844 92.9445 193.915 92.2162 194.189 91.5541C194.463 90.8921 194.927 90.3262 195.522 89.928C196.118 89.5298 196.818 89.3173 197.534 89.3173C198.493 89.3173 199.413 89.6975 200.091 90.3747C200.77 91.0518 201.153 91.9705 201.155 92.9293Z" fill="#004EFF"/>
<path d="M197.535 96.5496C196.62 96.5517 195.739 96.2056 195.07 95.5816C194.4 94.9577 193.993 94.1025 193.932 93.1896C193.932 93.282 193.932 93.3744 193.932 93.4584C193.932 94.4186 194.313 95.3394 194.992 96.0184C195.671 96.6973 196.592 97.0788 197.552 97.0788C198.512 97.0788 199.433 96.6973 200.112 96.0184C200.791 95.3394 201.172 94.4186 201.172 93.4584C201.172 93.3744 201.172 93.282 201.172 93.1896C201.108 94.1076 200.696 94.9665 200.02 95.5909C199.344 96.2153 198.455 96.5582 197.535 96.5496Z" fill="#004EFF"/>
<path opacity="0.3" d="M197.535 96.5496C196.62 96.5517 195.739 96.2056 195.07 95.5816C194.4 94.9577 193.993 94.1025 193.932 93.1896C193.932 93.282 193.932 93.3744 193.932 93.4584C193.932 94.4186 194.313 95.3394 194.992 96.0184C195.671 96.6973 196.592 97.0788 197.552 97.0788C198.512 97.0788 199.433 96.6973 200.112 96.0184C200.791 95.3394 201.172 94.4186 201.172 93.4584C201.172 93.3744 201.172 93.282 201.172 93.1896C201.108 94.1076 200.696 94.9665 200.02 95.5909C199.344 96.2153 198.455 96.5582 197.535 96.5496Z" fill="black"/>
<path d="M197.535 95.4912C198.95 95.4912 200.097 94.3441 200.097 92.9292C200.097 91.5142 198.95 90.3672 197.535 90.3672C196.12 90.3672 194.973 91.5142 194.973 92.9292C194.973 94.3441 196.12 95.4912 197.535 95.4912Z" fill="white"/>
<path d="M197.401 95.4744L198.451 90.552C198.183 90.4465 197.898 90.3896 197.611 90.384L196.561 95.298C196.828 95.4069 197.112 95.4667 197.401 95.4744Z" fill="#004EFF"/>
<path d="M198.358 95.3484L199.265 91.056C199.149 90.9491 199.022 90.8535 198.887 90.7704L197.888 95.4576C198.047 95.4341 198.205 95.3976 198.358 95.3484Z" fill="#004EFF"/>
<g opacity="0.7">
<path d="M197.401 95.4744L198.451 90.552C198.183 90.4465 197.898 90.3896 197.611 90.384L196.561 95.298C196.828 95.4069 197.112 95.4667 197.401 95.4744Z" fill="white"/>
<path d="M198.358 95.3484L199.265 91.056C199.149 90.9491 199.022 90.8535 198.887 90.7704L197.888 95.4576C198.047 95.4341 198.205 95.3976 198.358 95.3484Z" fill="white"/>
</g>
<path d="M290.279 190.058L289.313 190.268C288.88 190.356 288.486 190.576 288.185 190.898C287.883 191.22 287.69 191.629 287.633 192.066L287.549 192.746C287.505 193.086 287.545 193.431 287.665 193.752C287.785 194.072 287.981 194.359 288.237 194.586C289.825 195.972 293.571 198.542 298.107 196.888L301.728 194.158L301.131 189.269L293.571 188.177C293.114 188.194 292.675 188.359 292.32 188.647L290.279 190.058Z" fill="#FAB27B"/>
<path d="M301.753 194.157L311.807 193.653L310.253 188.185L301.156 189.269L301.753 194.157Z" fill="#FAB27B"/>
<path d="M307.742 188.227C307.33 188.998 307.188 189.886 307.339 190.747C307.522 192.142 308.083 193.461 308.96 194.561C307.266 194.586 305.6 194.997 304.088 195.762L304.004 195.804C298.763 192.226 301.787 187.984 301.787 187.984L302.131 188.034C303.99 188.291 305.87 188.356 307.742 188.227Z" fill="#004EFF"/>
<path d="M328.331 192.738C318.99 194.888 307.373 194.678 307.373 194.678C306.99 194.033 306.817 193.284 306.877 192.536C306.961 190.974 307.171 189.017 307.717 188.227C308.263 187.438 312.303 187.018 312.303 187.018C312.303 187.018 320.107 183.397 321.585 182.213C323.064 181.028 323.005 175.493 322.728 171.856C321.241 152.309 324.677 150.856 327.768 149.957C334.32 148.134 336.596 190.831 328.331 192.738Z" fill="#004EFF"/>
<path d="M264.331 196.929H290.438C291.278 196.929 291.673 196.241 291.278 195.392L284.759 180.667C284.556 180.238 284.243 179.87 283.852 179.6C283.462 179.33 283.007 179.168 282.533 179.13H256.418C255.578 179.13 255.183 179.819 255.578 180.667L262.13 195.392C262.33 195.818 262.639 196.185 263.025 196.454C263.411 196.724 263.861 196.888 264.331 196.929Z" fill="#004EFF"/>
<path opacity="0.2" d="M264.331 196.929H290.438C291.278 196.929 291.673 196.241 291.278 195.392L284.759 180.667C284.556 180.238 284.243 179.87 283.852 179.6C283.462 179.33 283.007 179.168 282.533 179.13H256.418C255.578 179.13 255.183 179.819 255.578 180.667L262.13 195.392C262.33 195.818 262.639 196.185 263.025 196.454C263.411 196.724 263.861 196.888 264.331 196.929Z" fill="black"/>
<path d="M255.284 179.13H256.418C255.578 179.13 255.183 179.819 255.578 180.667L262.13 195.392C262.332 195.821 262.644 196.188 263.033 196.458C263.422 196.728 263.876 196.891 264.348 196.929H263.222C262.749 196.891 262.294 196.729 261.903 196.459C261.512 196.189 261.2 195.821 260.996 195.392L254.453 180.667C254.058 179.819 254.436 179.13 255.284 179.13Z" fill="#004EFF"/>
<path opacity="0.4" d="M255.284 179.13H256.418C255.578 179.13 255.183 179.819 255.578 180.667L262.13 195.392C262.332 195.821 262.644 196.188 263.033 196.458C263.422 196.728 263.876 196.891 264.348 196.929H263.222C262.749 196.891 262.294 196.729 261.903 196.459C261.512 196.189 261.2 195.821 260.996 195.392L254.453 180.667C254.058 179.819 254.436 179.13 255.284 179.13Z" fill="black"/>
<path d="M264.818 195.241H288.448L282.038 180.818H258.409L264.818 195.241Z" fill="#263238"/>
<path opacity="0.8" d="M264.818 195.241H288.448L282.038 180.818H258.409L264.818 195.241Z" fill="white"/>
<path d="M342.568 195.779C342.568 195.779 343.215 204.397 343.307 207.421C343.937 227.623 327.448 229.16 315.319 226.934L271.387 214.654C269.648 220.492 249.337 252.638 249.337 252.638L238.66 246.506C238.66 246.506 249.731 219.971 256.88 201.499C260.954 190.957 294.159 198.248 306.389 200.424C310.102 201.424 309.388 195.619 309.388 195.619L342.568 195.779Z" fill="#263238"/>
<path d="M246.615 252.034L242.533 258.829L234.931 255.049L238.887 247.313L246.615 252.034Z" fill="#FAB27B"/>
<path d="M230.882 253.68C229.882 253.218 228.925 252.563 228.79 252C228.766 251.837 228.791 251.67 228.861 251.52C228.931 251.371 229.044 251.246 229.185 251.16C229.307 251.077 229.444 251.02 229.588 250.991C229.732 250.962 229.881 250.962 230.025 250.992C231.545 251.236 233.629 254.134 233.713 254.26C233.739 254.295 233.754 254.337 233.754 254.381C233.754 254.425 233.739 254.468 233.713 254.503C233.686 254.536 233.651 254.562 233.611 254.577C233.571 254.591 233.528 254.595 233.486 254.587C232.593 254.362 231.721 254.058 230.882 253.68ZM230.319 251.521C230.197 251.462 230.067 251.422 229.933 251.404C229.848 251.381 229.76 251.377 229.674 251.393C229.588 251.409 229.507 251.444 229.437 251.496C229.185 251.672 229.177 251.807 229.202 251.899C229.336 252.596 231.369 253.537 232.957 254.041C232.248 253.032 231.353 252.168 230.319 251.496V251.521Z" fill="#004EFF"/>
<path d="M233.428 254.52C233.403 254.53 233.376 254.53 233.352 254.52C232.588 253.68 231.445 251.017 232.033 250.185C232.151 249.975 232.437 249.782 232.991 249.975C233.192 250.046 233.377 250.157 233.535 250.302C233.692 250.446 233.819 250.621 233.907 250.815C234.545 252.134 233.764 254.411 233.73 254.511C233.718 254.547 233.695 254.579 233.666 254.603C233.636 254.627 233.6 254.642 233.562 254.646C233.532 254.636 233.504 254.62 233.48 254.598C233.457 254.577 233.439 254.55 233.428 254.52ZM232.949 250.32L232.848 250.261C232.487 250.127 232.403 250.261 232.369 250.303C232.067 250.824 232.714 252.773 233.445 253.823C233.766 252.863 233.787 251.829 233.503 250.857C233.391 250.616 233.193 250.425 232.949 250.32Z" fill="#004EFF"/>
<path d="M234.797 253.806L243.6 257.829C243.756 257.901 243.884 258.022 243.965 258.174C244.045 258.326 244.074 258.5 244.045 258.669L242.365 266.565C242.331 266.733 242.264 266.892 242.168 267.034C242.072 267.175 241.95 267.296 241.807 267.39C241.664 267.484 241.504 267.548 241.336 267.58C241.168 267.611 240.995 267.609 240.828 267.573C240.738 267.557 240.65 267.529 240.567 267.489C237.417 265.986 234.687 264.516 230.714 262.718C226.052 260.585 226.976 261.685 221.474 259.249C218.114 257.779 219.265 253.747 220.743 254.209C227.531 256.343 229.085 254.705 232.613 253.545C233.348 253.356 234.127 253.449 234.797 253.806Z" fill="#263238"/>
<path opacity="0.2" d="M244.541 255.486L246.616 252.034L238.888 247.313L236.973 251.051L244.541 255.486Z" fill="black"/>
<path d="M251.034 252L237.795 243.743C237.193 244.079 236.709 244.592 236.408 245.212C236.108 245.833 236.005 246.531 236.115 247.212L248.85 255.36C248.85 255.36 250.555 255.251 251.034 252Z" fill="#004EFF"/>
<path d="M269.144 285.843L267.54 293.378L259.358 292.303L260.551 283.937L269.144 285.843Z" fill="#FAB27B"/>
<path d="M255.2 292.32C254.133 292.211 253.05 291.908 252.739 291.413C252.671 291.278 252.645 291.127 252.663 290.977C252.681 290.828 252.742 290.687 252.84 290.573C253.008 290.352 253.255 290.204 253.529 290.161C254.999 289.909 257.829 291.908 257.955 292.001C257.989 292.025 258.014 292.059 258.028 292.098C258.041 292.137 258.042 292.179 258.031 292.219C258.018 292.26 257.994 292.295 257.961 292.322C257.928 292.349 257.888 292.366 257.846 292.37C256.964 292.429 256.079 292.412 255.2 292.32ZM253.999 290.514C253.868 290.493 253.735 290.493 253.604 290.514C253.519 290.521 253.437 290.546 253.363 290.588C253.289 290.63 253.225 290.688 253.176 290.758C252.999 291.001 253.041 291.127 253.092 291.203C253.436 291.799 255.612 292.043 257.216 291.984C256.247 291.29 255.156 290.785 253.999 290.497V290.514Z" fill="#004EFF"/>
<path d="M257.821 292.32C257.794 292.329 257.764 292.329 257.737 292.32C256.754 291.757 254.872 289.699 255.15 288.75C255.192 288.515 255.393 288.254 255.99 288.254C256.193 288.251 256.395 288.29 256.583 288.368C256.77 288.446 256.94 288.562 257.082 288.708C258.09 289.716 258.09 292.068 258.09 292.16C258.09 292.197 258.08 292.233 258.061 292.264C258.041 292.296 258.014 292.321 257.98 292.337C257.955 292.349 257.926 292.354 257.898 292.351C257.87 292.348 257.843 292.337 257.821 292.32ZM256.057 288.641H255.948C255.578 288.641 255.536 288.784 255.519 288.834C255.41 289.414 256.62 291.001 257.619 291.732C257.614 290.75 257.306 289.794 256.737 288.994C256.557 288.807 256.315 288.691 256.057 288.666V288.641Z" fill="#004EFF"/>
<path d="M258.846 291.194L268.212 292.118C268.384 292.134 268.545 292.209 268.669 292.33C268.793 292.451 268.872 292.61 268.892 292.782L269.841 300.569C269.882 300.9 269.79 301.235 269.585 301.499C269.381 301.763 269.08 301.936 268.749 301.98C268.66 301.988 268.57 301.988 268.48 301.98C265.12 301.585 262.122 301.14 257.922 300.703C252.957 300.216 254.158 300.93 248.312 300.443C244.792 300.14 244.54 296.083 246.052 296.033C252.957 295.848 253.873 293.857 256.737 291.673C257.359 291.263 258.108 291.093 258.846 291.194Z" fill="#263238"/>
<path opacity="0.2" d="M259.921 288.338L268.472 289.002L269.144 285.843L260.551 283.937L259.921 288.338Z" fill="black"/>
<path d="M271.572 282.862L271.328 283.811L258.787 282.82L258.922 281.87L271.572 282.862Z" fill="#263238"/>
<path d="M272.084 286.793L268.993 286.515L260.29 285.734L257.485 285.482C257.086 284.946 256.86 284.301 256.838 283.633C256.815 282.965 256.997 282.306 257.359 281.744L258.921 281.87L271.572 282.861L272.479 282.937C273.529 285.953 272.084 286.793 272.084 286.793Z" fill="#004EFF"/>
<path d="M323.005 234.427C311.657 235.427 285.483 235.847 281.938 235.326L271.572 282.861L258.922 281.87C258.922 281.87 260.257 240.769 265.835 223.776C270.321 210.117 342.073 212.948 342.073 212.948L342.325 216.795C342.821 230.051 336 233.276 323.005 234.427Z" fill="#263238"/>
<path opacity="0.1" d="M323.005 234.427C311.657 235.427 285.483 235.847 281.938 235.326L271.572 282.861L258.922 281.87C258.922 281.87 260.257 240.769 265.835 223.776C270.321 210.117 342.073 212.948 342.073 212.948L342.325 216.795C342.821 230.051 336 233.276 323.005 234.427Z" fill="black"/>
<path d="M265.633 228.74C265.629 228.665 265.629 228.589 265.633 228.514V228.74Z" fill="#263238"/>
<path d="M266.481 222.6L266.355 223.532C266.38 223.219 266.422 222.908 266.481 222.6Z" fill="#263238"/>
<path d="M306.65 148.335L310.136 153.426L317.974 146.723L313.076 140.708L306.65 148.335Z" fill="#FAB27B"/>
<path opacity="0.2" d="M308.397 150.746C309.909 148.52 309.237 145.068 309.237 145.068L307.86 146.823L306.667 148.335L308.397 150.746Z" fill="black"/>
<path d="M293.244 137.122C293.412 137.617 293.815 137.962 294.143 137.81C294.471 137.659 294.613 137.164 294.437 136.685C294.261 136.206 293.874 135.845 293.538 136.004C293.202 136.164 293.085 136.626 293.244 137.122Z" fill="#263238"/>
<path d="M295.058 137.273L293.949 142.027C294.51 142.144 295.09 142.129 295.644 141.983C296.198 141.837 296.711 141.565 297.141 141.187L295.058 137.273Z" fill="#ED893E"/>
<path d="M292.749 133.652C292.789 133.632 292.833 133.621 292.879 133.621C292.924 133.621 292.969 133.632 293.009 133.652C293.326 133.786 293.671 133.842 294.014 133.815C294.358 133.789 294.69 133.681 294.983 133.501C295.011 133.479 295.044 133.463 295.078 133.453C295.113 133.444 295.149 133.442 295.185 133.448C295.22 133.453 295.254 133.466 295.285 133.485C295.315 133.505 295.341 133.53 295.361 133.56C295.401 133.621 295.417 133.695 295.404 133.766C295.392 133.838 295.352 133.903 295.294 133.946C294.926 134.192 294.503 134.341 294.063 134.38C293.622 134.42 293.179 134.349 292.774 134.173C292.739 134.16 292.708 134.14 292.681 134.115C292.655 134.09 292.633 134.06 292.618 134.026C292.604 133.992 292.596 133.956 292.595 133.919C292.594 133.883 292.601 133.846 292.614 133.812C292.643 133.747 292.689 133.691 292.749 133.652Z" fill="#263238"/>
<path d="M311.866 128.52C314.386 135.013 315.638 137.709 313.908 142.506C310.506 148.176 302.668 151.62 298.2 146.059C294.184 141.019 290.698 131.3 295.789 125.731C297.489 123.823 299.874 122.664 302.424 122.507C304.974 122.35 307.484 123.207 309.405 124.891C310.505 125.886 311.349 127.13 311.866 128.52Z" fill="#FAB27B"/>
<path d="M318.015 130.452C317.661 132.631 317.445 134.831 317.368 137.038C317.308 139.074 316.642 141.046 315.456 142.703C314.269 144.359 312.616 145.624 310.707 146.336C310.707 146.336 301.551 146.227 297.662 134.711C296.586 134.812 295.502 134.648 294.504 134.231C293.507 133.815 292.628 133.159 291.944 132.322C291.26 131.486 290.792 130.493 290.582 129.433C290.373 128.373 290.427 127.278 290.74 126.244C291.488 123.791 294.588 122.262 297.15 122.17C297.989 121.079 299.084 120.211 300.338 119.643C301.592 119.074 302.966 118.823 304.34 118.91C307.111 119.135 309.787 120.022 312.144 121.498C314.27 122.562 316.07 124.181 317.352 126.185C318.036 127.495 318.269 128.995 318.015 130.452Z" fill="#263238"/>
<path d="M299.569 136.08C299.279 136.729 299.12 137.43 299.103 138.14C299.086 138.851 299.21 139.559 299.468 140.221C300.174 141.977 302.056 141.683 303.139 140.221C304.122 138.886 304.92 136.382 303.593 135.089C302.266 133.795 300.3 134.484 299.569 136.08Z" fill="#FAB27B"/>
<path d="M318.04 142.934C315.52 143.044 311.799 144.749 306.826 148.176C306.566 148.401 306.368 148.69 306.251 149.013C306.133 149.336 306.1 149.684 306.154 150.024C306.213 150.696 306.885 151.326 307.523 151.116C307.851 151.956 308.069 152.88 308.363 153.686C309.918 152.894 311.53 152.22 313.185 151.67C315.692 150.671 318.259 149.829 320.871 149.15C320.174 148.084 319.241 147.042 318.964 145.79C319.258 145.66 319.498 145.43 319.64 145.142C319.783 144.853 319.82 144.524 319.745 144.211C319.602 143.865 319.369 143.563 319.068 143.338C318.768 143.114 318.413 142.974 318.04 142.934Z" fill="#004EFF"/>
<path d="M318.04 142.934C315.52 143.044 311.799 144.749 306.826 148.176C306.566 148.401 306.368 148.69 306.251 149.013C306.133 149.336 306.1 149.684 306.154 150.024C306.213 150.696 306.885 151.326 307.523 151.116C307.851 151.956 308.069 152.88 308.363 153.686C309.918 152.894 311.53 152.22 313.185 151.67C315.692 150.671 318.259 149.829 320.871 149.15C320.174 148.084 319.241 147.042 318.964 145.79C319.258 145.66 319.498 145.43 319.64 145.142C319.783 144.853 319.82 144.524 319.745 144.211C319.602 143.865 319.369 143.563 319.068 143.338C318.768 143.114 318.413 142.974 318.04 142.934Z" fill="#004EFF"/>
<path d="M310.665 207.278C305.334 194.52 300.798 181.444 297.082 168.126C293.185 153.577 304.315 153.325 317.746 149.713C328.398 146.849 332.95 149.411 335.991 154.812C339.032 160.213 343.938 205.926 343.938 205.926L310.665 207.278Z" fill="#004EFF"/>
<path d="M310.665 207.278C305.334 194.52 300.798 181.444 297.082 168.126C293.185 153.577 304.315 153.325 317.746 149.713C328.398 146.849 332.95 149.411 335.991 154.812C339.032 160.213 343.938 205.926 343.938 205.926L310.665 207.278Z" fill="#004EFF"/>
<path opacity="0.3" d="M310.665 207.278C305.334 194.52 300.798 181.444 297.082 168.126C293.185 153.577 304.315 153.325 317.746 149.713C328.398 146.849 332.95 149.411 335.991 154.812C339.032 160.213 343.938 205.926 343.938 205.926L310.665 207.278Z" fill="black"/>
<path d="M262.079 186.312H261.139C260.719 186.328 260.315 186.474 259.983 186.73C259.65 186.986 259.405 187.339 259.282 187.74L259.089 188.361C258.989 188.673 258.968 189.005 259.026 189.327C259.085 189.65 259.222 189.953 259.425 190.209C260.693 191.78 263.785 194.821 268.329 194.015L272.201 192.049L272.453 187.345L265.549 185.069C265.114 185.01 264.672 185.092 264.289 185.304L262.079 186.312Z" fill="#FAB27B"/>
<path d="M272.219 192.083L281.761 193.284L281.207 187.874L272.471 187.379L272.219 192.083Z" fill="#FAB27B"/>
<path d="M278.88 187.496C278.346 188.159 278.05 188.981 278.04 189.832C277.982 191.176 278.29 192.512 278.93 193.696C277.331 193.435 275.693 193.545 274.142 194.015H274.058C269.724 189.773 273.277 186.287 273.277 186.287L273.596 186.388C275.314 186.939 277.085 187.311 278.88 187.496Z" fill="#004EFF"/>
<path d="M297.46 195.166C288.313 195.636 277.418 193.486 277.418 193.486C277.163 192.814 277.122 192.081 277.3 191.386C277.645 189.924 278.14 188.118 278.837 187.471C279.535 186.824 283.357 187.102 283.357 187.102C283.357 187.102 291.303 184.985 292.891 184.12C294.478 183.254 295.343 178.08 295.679 174.586C297.536 155.938 301.013 155.131 304.079 154.82C310.505 154.182 305.558 194.754 297.46 195.166Z" fill="#004EFF"/>
<path d="M327.6 301.392L321.258 248.388C320.948 245.797 319.698 243.409 317.746 241.677C315.794 239.945 313.275 238.988 310.666 238.988H289.741C287.205 238.979 284.748 239.878 282.817 241.521C280.885 243.165 279.605 245.446 279.208 247.951L270.673 300.72L268.993 300.451L277.536 247.699C277.995 244.8 279.476 242.16 281.711 240.258C283.947 238.355 286.789 237.315 289.724 237.325H310.682C313.702 237.328 316.617 238.436 318.876 240.44C321.135 242.444 322.583 245.205 322.946 248.203L329.288 301.207L327.6 301.392Z" fill="#263238"/>
<path d="M356.95 301.392L350.608 248.388C350.297 245.797 349.048 243.409 347.096 241.677C345.144 239.945 342.625 238.988 340.015 238.988H319.057C316.52 238.977 314.063 239.875 312.131 241.519C310.199 243.163 308.919 245.445 308.524 247.951L299.981 300.72L298.301 300.451L306.844 247.699C307.301 244.799 308.782 242.159 311.017 240.256C313.253 238.353 316.096 237.313 319.032 237.325H339.99C343.01 237.328 345.924 238.436 348.184 240.44C350.443 242.444 351.891 245.205 352.254 248.203L358.596 301.207L356.95 301.392Z" fill="#263238"/>
<path d="M300.938 285.953H272.084V287.633H300.938V285.953Z" fill="#263238"/>
<path d="M351.96 247.447H322.132V249.127H351.96V247.447Z" fill="#263238"/>
<path d="M327.6 239.349H349.549C353.63 239.349 357.561 237.811 360.558 235.041C363.555 232.272 365.398 228.474 365.719 224.406L368.844 184.976C368.963 183.468 368.769 181.951 368.275 180.52C367.781 179.09 366.997 177.777 365.972 176.663C364.947 175.55 363.703 174.66 362.318 174.05C360.933 173.439 359.437 173.121 357.924 173.115H345.744C338.853 173.116 332.145 175.34 326.62 179.458C321.094 183.576 317.045 189.368 315.076 195.972L306.676 224.12C305.991 226.42 304.582 228.437 302.658 229.87C300.734 231.304 298.398 232.077 295.999 232.075H280.644C278.716 232.077 276.868 232.845 275.506 234.209C274.143 235.573 273.378 237.422 273.378 239.349H327.6Z" fill="#004EFF"/>
<path opacity="0.7" d="M327.6 239.349H349.549C353.63 239.349 357.561 237.811 360.558 235.041C363.555 232.272 365.398 228.474 365.719 224.406L368.844 184.976C368.963 183.468 368.769 181.951 368.275 180.52C367.781 179.09 366.997 177.777 365.972 176.663C364.947 175.55 363.703 174.66 362.318 174.05C360.933 173.439 359.437 173.121 357.924 173.115H345.744C338.853 173.116 332.145 175.34 326.62 179.458C321.094 183.576 317.045 189.368 315.076 195.972L306.676 224.12C305.991 226.42 304.582 228.437 302.658 229.87C300.734 231.304 298.398 232.077 295.999 232.075H280.644C278.716 232.077 276.868 232.845 275.506 234.209C274.143 235.573 273.378 237.422 273.378 239.349H327.6Z" fill="white"/>
<path d="M305.835 103.271V103.177C305.839 103.208 305.839 103.24 305.835 103.271Z" fill="#004EFF"/>
<path d="M266.28 92.6352C263.404 95.2848 261.3 98.6635 260.19 102.413H258.652C259.184 98.1927 260.764 94.1729 263.247 90.72L266.28 92.6352Z" fill="#004EFF"/>
<path opacity="0.6" d="M266.28 92.6352C263.404 95.2848 261.3 98.6635 260.19 102.413H258.652C259.184 98.1927 260.764 94.1729 263.247 90.72L266.28 92.6352Z" fill="white"/>
<path d="M275.183 87.6036C271.856 88.55 268.803 90.2781 266.279 92.6436L263.247 90.72C265.722 87.2571 268.98 84.4279 272.756 82.4628L275.183 87.6036Z" fill="#004EFF"/>
<path opacity="0.5" d="M275.183 87.6036C271.856 88.55 268.803 90.2781 266.279 92.6436L263.247 90.72C265.722 87.2571 268.98 84.4279 272.756 82.4628L275.183 87.6036Z" fill="white"/>
<path d="M284.617 79.632L283.869 87.1332C282.796 86.946 281.708 86.8532 280.618 86.8559C278.781 86.8575 276.953 87.109 275.183 87.6035L272.756 82.4796C276.307 80.6189 280.255 79.6421 284.264 79.632H284.617Z" fill="#004EFF"/>
<path opacity="0.4" d="M284.617 79.632L283.869 87.1332C282.796 86.946 281.708 86.8532 280.618 86.8559C278.781 86.8575 276.953 87.109 275.183 87.6035L272.756 82.4796C276.307 80.6189 280.255 79.6421 284.264 79.632H284.617Z" fill="white"/>
<path d="M295.856 82.8156L290.959 89.9976C288.833 88.5359 286.413 87.5581 283.869 87.1332L284.617 79.632C288.582 79.6601 292.465 80.7602 295.856 82.8156Z" fill="#004EFF"/>
<path opacity="0.3" d="M295.856 82.8156L290.959 89.9976C288.833 88.5359 286.413 87.5581 283.869 87.1332L284.617 79.632C288.582 79.6601 292.465 80.7602 295.856 82.8156Z" fill="white"/>
<path d="M303.626 91.2828L295.982 95.3735C294.711 93.2377 292.992 91.4035 290.942 89.9976L295.84 82.8156C299.173 84.8582 301.869 87.7906 303.626 91.2828Z" fill="#004EFF"/>
<path opacity="0.2" d="M303.626 91.2828L295.982 95.3735C294.711 93.2377 292.992 91.4035 290.942 89.9976L295.84 82.8156C299.173 84.8582 301.869 87.7906 303.626 91.2828Z" fill="white"/>
<path d="M305.861 102.959L298.385 102.875C298.151 100.227 297.33 97.6645 295.982 95.3735L303.626 91.2827C305.419 94.8992 306.191 98.936 305.861 102.959Z" fill="#004EFF"/>
<path opacity="0.1" d="M305.861 102.959L298.385 102.875C298.151 100.227 297.33 97.6645 295.982 95.3735L303.626 91.2827C305.419 94.8992 306.191 98.936 305.861 102.959Z" fill="white"/>
<path d="M305.844 103.177C305.848 103.208 305.848 103.239 305.844 103.27C305.542 105.898 304.872 108.471 303.853 110.914L297.797 109.544L298.284 107.234C298.326 106.932 298.368 106.63 298.393 106.327V106.142C298.49 105.055 298.49 103.962 298.393 102.875L305.869 102.959C305.869 103.009 305.869 103.043 305.869 103.085C305.866 103.117 305.857 103.148 305.844 103.177Z" fill="#004EFF"/>
<path d="M259.56 110.435L259.115 110.536C258.972 109.956 258.854 109.368 258.753 108.772C258.47 106.952 258.402 105.105 258.552 103.27V103.177C258.548 103.147 258.548 103.115 258.552 103.085C258.552 102.858 258.594 102.623 258.627 102.396H260.165C259.808 103.614 259.566 104.863 259.442 106.126C259.442 106.126 259.442 106.184 259.442 106.218C259.442 106.252 259.442 106.277 259.442 106.31C259.386 107.057 259.372 107.805 259.4 108.553C259.434 109.2 259.484 109.822 259.56 110.435Z" fill="#004EFF"/>
<path opacity="0.7" d="M259.56 110.435L259.115 110.536C258.972 109.956 258.854 109.368 258.753 108.772C258.47 106.952 258.402 105.105 258.552 103.27V103.177C258.548 103.147 258.548 103.115 258.552 103.085C258.552 102.858 258.594 102.623 258.627 102.396H260.165C259.808 103.614 259.566 104.863 259.442 106.126C259.442 106.126 259.442 106.184 259.442 106.218C259.442 106.252 259.442 106.277 259.442 106.31C259.386 107.057 259.372 107.805 259.4 108.553C259.434 109.2 259.484 109.822 259.56 110.435Z" fill="white"/>
<path d="M305.357 109.2L304.718 110.779L303.425 110.494L291.371 107.764L286.18 106.588C286.54 106.121 286.839 105.61 287.07 105.067C287.334 104.434 287.493 103.761 287.54 103.076L299.048 107.033L305.357 109.2Z" fill="#263238"/>
<path d="M287.54 103.093C287.444 104.372 286.97 105.594 286.18 106.604L281.518 105.546L282.988 101.531L287.54 103.093Z" fill="#263238"/>
<path d="M287.54 103.093C287.444 104.372 286.97 105.594 286.179 106.604C285.601 107.343 284.874 107.953 284.046 108.394C281.047 109.998 277.51 108.99 276.158 106.126C275.537 104.651 275.499 102.996 276.051 101.495C276.603 99.9937 277.704 98.7576 279.132 98.0364C282.13 96.432 285.667 97.4484 287.028 100.304C287.436 101.174 287.612 102.135 287.54 103.093Z" fill="#004EFF"/>
<path d="M96.1633 99.5401H100.977V103.572H95.6845L94.9453 109.452H90.7453L91.4845 103.572H86.0497L85.3105 109.452H81.1945L81.9337 103.572H77.0869V99.5401H82.4125L83.1853 93.5509H78.3469V89.5189H83.6725L84.4117 83.6389H88.5529L87.8137 89.5189H93.2401L93.9793 83.6389H98.1205L97.3813 89.5189H102.186V93.5509H96.8605L96.1633 99.5401ZM91.9633 99.5401L92.7361 93.5509H87.3601L86.5201 99.5401H91.9633Z" fill="#004EFF"/>
<path d="M114.391 83.5968V109.486H108.402V88.41H103.228V83.5968H114.391Z" fill="#004EFF"/>
<path d="M91.9468 191.26H50.5264V219.778H91.9468V191.26Z" fill="#263238"/>
<path d="M91.9468 191.26H50.5264V193.872H91.9468V191.26Z" fill="#004EFF"/>
<path d="M58.1117 207.035L64.8905 210.79C65.1443 210.914 65.3723 211.085 65.5625 211.294C65.6811 211.46 65.7403 211.661 65.7305 211.865C65.7325 212.006 65.706 212.147 65.6526 212.278C65.5992 212.41 65.52 212.529 65.4197 212.629C65.325 212.73 65.2105 212.811 65.0833 212.866C64.9561 212.921 64.819 212.949 64.6805 212.948C64.3811 212.913 64.0938 212.809 63.8405 212.646L55.1045 207.782C54.9669 207.712 54.8514 207.605 54.7708 207.473C54.6901 207.341 54.6475 207.189 54.6475 207.035C54.6475 206.88 54.6901 206.729 54.7708 206.597C54.8514 206.465 54.9669 206.358 55.1045 206.287L63.8405 201.424C64.0959 201.266 64.3825 201.166 64.6805 201.13C64.9612 201.134 65.2292 201.248 65.427 201.447C65.6247 201.647 65.7367 201.915 65.7389 202.196C65.7545 202.401 65.6947 202.604 65.5709 202.768C65.3839 202.982 65.1553 203.156 64.8989 203.28L58.1117 207.035Z" fill="white"/>
<path d="M75.5413 200.038L68.8213 214.477C68.7199 214.743 68.5623 214.984 68.3593 215.183C68.1789 215.329 67.9528 215.406 67.7209 215.401C67.5832 215.401 67.4469 215.374 67.3199 215.32C67.193 215.267 67.078 215.189 66.9817 215.09C66.8847 215.004 66.8069 214.897 66.7534 214.779C66.6999 214.66 66.6718 214.532 66.6709 214.401C66.6955 214.108 66.7783 213.823 66.9145 213.561L73.6345 199.13C73.7367 198.867 73.891 198.627 74.0881 198.425C74.2878 198.271 74.5367 198.194 74.7885 198.209C75.0403 198.225 75.278 198.331 75.4573 198.509C75.5547 198.595 75.6328 198.701 75.6863 198.82C75.7399 198.939 75.7678 199.067 75.7681 199.198C75.7487 199.49 75.6716 199.775 75.5413 200.038Z" fill="white"/>
<path d="M83.9999 207.035L77.1959 203.28C76.9358 203.158 76.7041 202.984 76.5155 202.768C76.398 202.601 76.3389 202.4 76.3475 202.196C76.3454 202.056 76.3727 201.917 76.4277 201.789C76.4827 201.66 76.5641 201.544 76.6667 201.449C76.7614 201.348 76.8759 201.267 77.003 201.212C77.1302 201.157 77.2674 201.129 77.4059 201.13C77.7042 201.164 77.991 201.265 78.2459 201.424L86.9819 206.287C87.1195 206.358 87.235 206.465 87.3156 206.597C87.3962 206.729 87.4389 206.88 87.4389 207.035C87.4389 207.189 87.3962 207.341 87.3156 207.473C87.235 207.605 87.1195 207.712 86.9819 207.782L78.2459 212.646C77.9929 212.81 77.7055 212.914 77.4059 212.948C77.2662 212.948 77.1279 212.92 76.9994 212.865C76.8709 212.81 76.7549 212.73 76.6583 212.629C76.4587 212.425 76.3471 212.15 76.3475 211.865C76.3414 211.661 76.4002 211.461 76.5155 211.294C76.7074 211.083 76.9385 210.912 77.1959 210.79L83.9999 207.035Z" fill="white"/>
</g>
<defs>
<clipPath id="clip0_2143_382">
<rect width="420" height="310" fill="white"/>
</clipPath>
</defs>
</svg>
