<svg width="809" height="903" viewBox="0 0 809 903" fill="none" xmlns="http://www.w3.org/2000/svg">
<path d="M433.026 18.8253L393.632 18.8253V27.898L433.026 27.898V18.8253Z" fill="#004EFF"/>
<path d="M419.514 31.9333L393.632 31.9333V41.006H419.514V31.9333Z" fill="#004EFF"/>
<path d="M408.535 45.0414H393.632V54.114H408.535V45.0414Z" fill="#004EFF"/>
<g opacity="0.2">
<path d="M433.026 18.8253L393.632 18.8253V27.898L433.026 27.898V18.8253Z" fill="black"/>
<path d="M419.514 31.9333L393.632 31.9333V41.006H419.514V31.9333Z" fill="black"/>
<path d="M408.535 45.0414H393.632V54.114H408.535V45.0414Z" fill="black"/>
</g>
<path d="M325.225 119.292V146.608H338.583V119.292H325.225Z" fill="#004EFF"/>
<path d="M344.525 128.671V146.608H357.884V128.671H344.525Z" fill="#004EFF"/>
<path d="M363.812 136.269V146.594H377.17V136.269H363.812Z" fill="#004EFF"/>
<g opacity="0.2">
<path d="M325.225 119.292V146.608H338.583V119.292H325.225Z" fill="black"/>
<path d="M344.524 128.671V146.608H357.883V128.671H344.524Z" fill="black"/>
<path d="M363.812 136.269V146.594H377.17V136.269H363.812Z" fill="black"/>
</g>
<path d="M322.233 166.534L483.997 166.534C486.115 166.538 488.213 166.124 490.172 165.316C492.13 164.508 493.909 163.321 495.409 161.825C496.908 160.328 498.097 158.55 498.909 156.593C499.72 154.637 500.138 152.539 500.138 150.421V17.1137C500.138 14.9953 499.72 12.8977 498.909 10.9408C498.097 8.98402 496.908 7.20642 495.409 5.70976C493.909 4.2131 492.13 3.02676 490.172 2.21861C488.213 1.41045 486.115 0.996365 483.997 1.00002L322.233 1.00002C320.115 0.998196 318.018 1.41354 316.061 2.22234C314.103 3.03114 312.324 4.21755 310.825 5.71385C309.326 7.21015 308.137 8.98702 307.325 10.943C306.513 12.899 306.094 14.9958 306.092 17.1137V150.421C306.094 152.538 306.513 154.635 307.325 156.591C308.137 158.547 309.326 160.324 310.825 161.82C312.324 163.317 314.103 164.503 316.061 165.312C318.018 166.121 320.115 166.536 322.233 166.534Z" stroke="#FBFAFF" stroke-width="1.0631" stroke-miterlimit="10"/>
<path d="M424.231 120.767H481.91" stroke="#FBFAFF" stroke-width="1.0631" stroke-miterlimit="10"/>
<path d="M424.231 126.932H481.91" stroke="#FBFAFF" stroke-width="1.0631" stroke-miterlimit="10"/>
<path d="M424.231 133.096H481.91" stroke="#FBFAFF" stroke-width="1.0631" stroke-miterlimit="10"/>
<path d="M424.231 139.275H481.91" stroke="#FBFAFF" stroke-width="1.0631" stroke-miterlimit="10"/>
<path d="M424.231 145.439H481.91" stroke="#FBFAFF" stroke-width="1.0631" stroke-miterlimit="10"/>
<path d="M323.458 20.175L381.136 20.175" stroke="#FBFAFF" stroke-width="1.0631" stroke-miterlimit="10"/>
<path d="M323.458 26.3395L381.136 26.3395" stroke="#FBFAFF" stroke-width="1.0631" stroke-miterlimit="10"/>
<path d="M323.458 32.5038L381.136 32.5038" stroke="#FBFAFF" stroke-width="1.0631" stroke-miterlimit="10"/>
<path d="M323.458 38.6683L381.136 38.6683" stroke="#FBFAFF" stroke-width="1.0631" stroke-miterlimit="10"/>
<path d="M323.458 44.8466L381.136 44.8466" stroke="#FBFAFF" stroke-width="1.0631" stroke-miterlimit="10"/>
<path d="M474.687 68.6554L485.68 74.4301L484.442 43.4272L458.17 60.0002L469.163 65.761L460.897 81.499C459.436 81.5048 458.017 81.9941 456.862 82.8905L442.307 76.1278C442.307 74.3489 441.6 72.643 440.342 71.3852C439.085 70.1273 437.379 69.4207 435.6 69.4207C433.821 69.4207 432.115 70.1273 430.857 71.3852C429.599 72.643 428.893 74.3489 428.893 76.1278C428.892 77.0889 429.101 78.0387 429.505 78.9108L410.427 99.5887C409.82 99.3936 409.187 99.2904 408.549 99.2825C408.227 99.2936 407.906 99.3261 407.589 99.38L380.162 64.7174C380.556 63.8431 380.756 62.8934 380.746 61.9344C380.746 60.1555 380.04 58.4496 378.782 57.1917C377.524 55.9339 375.818 55.2273 374.039 55.2273C372.26 55.2273 370.554 55.9339 369.297 57.1917C368.039 58.4496 367.332 60.1555 367.332 61.9344C367.347 62.6251 367.464 63.3098 367.68 63.966L336.357 95.8594C335.621 95.5902 334.845 95.449 334.061 95.442C332.738 95.4447 331.445 95.8396 330.346 96.5767C329.248 97.3139 328.392 98.3601 327.887 99.5834C327.383 100.807 327.252 102.152 327.512 103.449C327.772 104.747 328.411 105.938 329.347 106.873C330.284 107.807 331.476 108.444 332.774 108.701C334.072 108.958 335.417 108.824 336.64 108.317C337.862 107.81 338.906 106.953 339.641 105.852C340.376 104.752 340.768 103.458 340.768 102.135C340.765 101.58 340.691 101.029 340.546 100.493L372.133 68.2379C372.75 68.4319 373.392 68.5351 374.039 68.544C374.45 68.5431 374.86 68.5059 375.264 68.4327L402.551 103.026C402.058 104.013 401.815 105.107 401.846 106.21C401.876 107.313 402.178 108.392 402.726 109.35C403.273 110.309 404.048 111.118 404.983 111.705C405.917 112.292 406.982 112.639 408.083 112.716C409.184 112.793 410.287 112.597 411.294 112.145C412.301 111.694 413.181 111.001 413.857 110.128C414.532 109.254 414.981 108.228 415.164 107.14C415.348 106.051 415.26 104.935 414.908 103.888L434.473 82.6957C434.845 82.7617 435.222 82.7989 435.6 82.807C436.929 82.8087 438.228 82.4112 439.329 81.666L454.218 88.6235C454.275 89.6559 454.571 90.6609 455.082 91.5599C455.592 92.4588 456.304 93.2273 457.162 93.8049C458.019 94.3825 458.999 94.7536 460.024 94.889C461.049 95.0245 462.091 94.9207 463.07 94.5857C464.048 94.2508 464.935 93.6937 465.662 92.9583C466.388 92.2229 466.935 91.3292 467.258 90.3471C467.582 89.3651 467.673 88.3215 467.526 87.2982C467.378 86.2749 466.995 85.2996 466.408 84.449L474.687 68.6554Z" fill="#FBFAFF"/>
<path d="M705.435 428.942H645.565V442.73H705.435V428.942Z" fill="#004EFF"/>
<path d="M684.9 448.863H645.565V462.651H684.9V448.863Z" fill="#004EFF"/>
<path d="M668.215 468.784H645.565V482.572H668.215V468.784Z" fill="#004EFF"/>
<g opacity="0.2">
<path d="M705.435 428.942H645.566V442.73H705.435V428.942Z" fill="black"/>
<path d="M684.901 448.863H645.566V462.651H684.901V448.863Z" fill="black"/>
<path d="M668.216 468.784H645.566V482.572H668.216V468.784Z" fill="black"/>
</g>
<path d="M541.604 581.628V623.141H561.905V581.628H541.604Z" fill="#004EFF"/>
<path d="M570.935 595.882V623.141H591.236V595.882H570.935Z" fill="#004EFF"/>
<path d="M600.246 607.428V623.12H620.548V607.428H600.246Z" fill="#004EFF"/>
<g opacity="0.2">
<path d="M541.604 581.628V623.141H561.905V581.628H541.604Z" fill="black"/>
<path d="M570.935 595.882V623.141H591.236V595.882H570.935Z" fill="black"/>
<path d="M600.246 607.428V623.12H620.548V607.428H600.246Z" fill="black"/>
</g>
<path d="M537.057 653.424H782.898C786.118 653.43 789.307 652.801 792.283 651.572C795.259 650.344 797.964 648.541 800.242 646.267C802.521 643.992 804.328 641.291 805.562 638.317C806.795 635.343 807.43 632.155 807.43 628.935V426.341C807.43 423.121 806.795 419.933 805.562 416.959C804.328 413.985 802.521 411.284 800.242 409.009C797.964 406.735 795.259 404.932 792.283 403.704C789.307 402.475 786.118 401.846 782.898 401.852H537.057C533.838 401.849 530.65 402.48 527.675 403.709C524.701 404.938 521.997 406.741 519.719 409.015C517.441 411.289 515.634 413.99 514.399 416.963C513.165 419.935 512.528 423.122 512.525 426.341V628.935C512.528 632.154 513.165 635.341 514.399 638.313C515.634 641.286 517.441 643.986 519.719 646.26C521.997 648.534 524.701 650.338 527.675 651.567C530.65 652.796 533.838 653.427 537.057 653.424Z" stroke="#FBFAFF" stroke-width="1.0631" stroke-miterlimit="10"/>
<path d="M692.068 583.87H779.726" stroke="#FBFAFF" stroke-width="1.0631" stroke-miterlimit="10"/>
<path d="M692.068 593.238H779.726" stroke="#FBFAFF" stroke-width="1.0631" stroke-miterlimit="10"/>
<path d="M692.068 602.606H779.726" stroke="#FBFAFF" stroke-width="1.0631" stroke-miterlimit="10"/>
<path d="M692.068 611.996H779.726" stroke="#FBFAFF" stroke-width="1.0631" stroke-miterlimit="10"/>
<path d="M692.068 621.364H779.726" stroke="#FBFAFF" stroke-width="1.0631" stroke-miterlimit="10"/>
<path d="M538.918 430.993H626.575" stroke="#FBFAFF" stroke-width="1.0631" stroke-miterlimit="10"/>
<path d="M538.918 440.362H626.575" stroke="#FBFAFF" stroke-width="1.0631" stroke-miterlimit="10"/>
<path d="M538.918 449.73H626.575" stroke="#FBFAFF" stroke-width="1.0631" stroke-miterlimit="10"/>
<path d="M538.918 459.098H626.575" stroke="#FBFAFF" stroke-width="1.0631" stroke-miterlimit="10"/>
<path d="M538.918 468.488H626.575" stroke="#FBFAFF" stroke-width="1.0631" stroke-miterlimit="10"/>
<path d="M768.75 504.672L785.457 513.448L783.575 466.331L743.648 491.518L760.355 500.273L747.793 524.191C745.571 524.2 743.415 524.943 741.66 526.306L719.54 516.028C719.54 513.324 718.466 510.732 716.554 508.82C714.642 506.909 712.05 505.835 709.346 505.835C706.643 505.835 704.05 506.909 702.139 508.82C700.227 510.732 699.153 513.324 699.153 516.028C699.152 517.489 699.47 518.932 700.084 520.257L671.09 551.683C670.167 551.386 669.205 551.229 668.235 551.218C667.746 551.234 667.259 551.284 666.776 551.366L625.094 498.687C625.693 497.358 625.997 495.915 625.982 494.457C625.982 491.754 624.908 489.161 622.997 487.25C621.085 485.338 618.492 484.264 615.789 484.264C613.086 484.264 610.493 485.338 608.581 487.25C606.67 489.161 605.596 491.754 605.596 494.457C605.618 495.507 605.796 496.548 606.125 497.545L558.521 546.015C557.403 545.606 556.223 545.391 555.032 545.381C553.021 545.385 551.056 545.985 549.386 547.105C547.716 548.226 546.416 549.816 545.649 551.675C544.882 553.534 544.684 555.578 545.079 557.55C545.474 559.522 546.444 561.333 547.868 562.753C549.291 564.173 551.104 565.14 553.076 565.531C555.049 565.922 557.093 565.719 558.95 564.949C560.808 564.178 562.395 562.874 563.512 561.202C564.629 559.53 565.225 557.564 565.225 555.553C565.221 554.71 565.107 553.871 564.887 553.057L612.892 504.037C613.83 504.332 614.806 504.489 615.789 504.502C616.413 504.501 617.036 504.444 617.65 504.333L659.121 556.906C658.371 558.407 658.002 560.069 658.048 561.745C658.095 563.422 658.554 565.062 659.385 566.518C660.217 567.975 661.395 569.204 662.816 570.096C664.236 570.988 665.854 571.516 667.528 571.633C669.201 571.75 670.877 571.452 672.408 570.766C673.938 570.08 675.276 569.026 676.302 567.699C677.328 566.372 678.01 564.813 678.289 563.159C678.568 561.505 678.434 559.807 677.9 558.217L707.633 526.01C708.199 526.11 708.772 526.166 709.346 526.179C711.367 526.181 713.341 525.577 715.014 524.445L737.642 535.018C737.729 536.587 738.178 538.115 738.954 539.481C739.73 540.847 740.812 542.015 742.116 542.893C743.419 543.771 744.908 544.335 746.466 544.54C748.023 544.746 749.608 544.589 751.094 544.08C752.581 543.57 753.929 542.724 755.034 541.606C756.138 540.489 756.969 539.13 757.46 537.638C757.952 536.145 758.091 534.559 757.866 533.004C757.642 531.449 757.06 529.967 756.167 528.674L768.75 504.672Z" fill="#FBFAFF"/>
<path d="M228.358 492.306H187.901V501.624H228.358V492.306Z" fill="#004EFF"/>
<path d="M214.482 505.768H187.901V515.085H214.482V505.768Z" fill="#004EFF"/>
<path d="M203.206 519.23H187.901V528.547H203.206V519.23Z" fill="#004EFF"/>
<g opacity="0.2">
<path d="M228.359 492.306H187.902V501.624H228.359V492.306Z" fill="black"/>
<path d="M214.483 505.768H187.902V515.085H214.483V505.768Z" fill="black"/>
<path d="M203.207 519.229H187.902V528.547H203.207V519.229Z" fill="black"/>
</g>
<path d="M117.649 595.484V623.536H131.368V595.484H117.649Z" fill="#004EFF"/>
<path d="M137.47 605.116V623.536H151.189V605.116H137.47Z" fill="#004EFF"/>
<path d="M157.277 612.918V623.522H170.996V612.918H157.277Z" fill="#004EFF"/>
<g opacity="0.2">
<path d="M117.649 595.484V623.536H131.368V595.484H117.649Z" fill="black"/>
<path d="M137.47 605.115V623.536H151.189V605.115H137.47Z" fill="black"/>
<path d="M157.277 612.918V623.522H170.996V612.918H157.277Z" fill="black"/>
</g>
<path d="M114.577 644H280.704C282.88 644.004 285.035 643.578 287.046 642.748C289.057 641.919 290.885 640.7 292.424 639.163C293.964 637.626 295.185 635.801 296.019 633.791C296.852 631.781 297.281 629.627 297.281 627.452V490.548C297.281 488.373 296.852 486.219 296.019 484.209C295.185 482.199 293.964 480.374 292.424 478.837C290.885 477.3 289.057 476.081 287.046 475.251C285.035 474.422 282.88 473.996 280.704 474H114.577C112.402 473.998 110.248 474.425 108.238 475.255C106.227 476.086 104.401 477.304 102.861 478.841C101.322 480.378 100.1 482.202 99.2662 484.211C98.4321 486.22 98.0019 488.373 98 490.548L98 627.452C98.0019 629.627 98.4321 631.78 99.2662 633.789C100.1 635.797 101.322 637.622 102.861 639.159C104.401 640.696 106.227 641.914 108.238 642.745C110.248 643.575 112.402 644.002 114.577 644Z" stroke="#FBFAFF" stroke-width="1.0631" stroke-miterlimit="10"/>
<path d="M219.326 596.998H278.56" stroke="#FBFAFF" stroke-width="1.0631" stroke-miterlimit="10"/>
<path d="M219.326 603.329H278.56" stroke="#FBFAFF" stroke-width="1.0631" stroke-miterlimit="10"/>
<path d="M219.326 609.66H278.56" stroke="#FBFAFF" stroke-width="1.0631" stroke-miterlimit="10"/>
<path d="M219.326 616.005H278.56" stroke="#FBFAFF" stroke-width="1.0631" stroke-miterlimit="10"/>
<path d="M219.326 622.336H278.56" stroke="#FBFAFF" stroke-width="1.0631" stroke-miterlimit="10"/>
<path d="M115.835 493.692H175.069" stroke="#FBFAFF" stroke-width="1.0631" stroke-miterlimit="10"/>
<path d="M115.835 500.023H175.069" stroke="#FBFAFF" stroke-width="1.0631" stroke-miterlimit="10"/>
<path d="M115.835 506.354H175.069" stroke="#FBFAFF" stroke-width="1.0631" stroke-miterlimit="10"/>
<path d="M115.835 512.684H175.069" stroke="#FBFAFF" stroke-width="1.0631" stroke-miterlimit="10"/>
<path d="M115.835 519.029H175.069" stroke="#FBFAFF" stroke-width="1.0631" stroke-miterlimit="10"/>
<path d="M271.144 543.48L282.433 549.411L281.161 517.572L254.181 534.592L265.47 540.508L256.982 556.671C255.48 556.677 254.023 557.179 252.837 558.1L237.89 551.154C237.89 549.328 237.164 547.576 235.872 546.284C234.58 544.992 232.828 544.266 231.002 544.266C229.175 544.266 227.423 544.992 226.131 546.284C224.839 547.576 224.114 549.328 224.114 551.154C224.113 552.142 224.327 553.117 224.742 554.013L205.15 575.248C204.526 575.048 203.876 574.942 203.221 574.934C202.89 574.945 202.561 574.979 202.235 575.034L174.068 539.436C174.473 538.538 174.678 537.563 174.668 536.578C174.668 534.751 173.943 532.999 172.651 531.708C171.359 530.416 169.607 529.69 167.78 529.69C165.954 529.69 164.202 530.416 162.91 531.708C161.618 532.999 160.892 534.751 160.892 536.578C160.907 537.288 161.028 537.991 161.25 538.665L129.082 571.418C128.326 571.142 127.528 570.997 126.724 570.99C125.365 570.993 124.037 571.398 122.909 572.155C121.78 572.912 120.901 573.987 120.383 575.243C119.865 576.499 119.731 577.881 119.998 579.213C120.265 580.546 120.921 581.769 121.883 582.729C122.844 583.689 124.069 584.342 125.402 584.606C126.735 584.87 128.117 584.733 129.372 584.213C130.627 583.692 131.7 582.811 132.454 581.681C133.209 580.551 133.612 579.222 133.612 577.863C133.609 577.294 133.532 576.727 133.383 576.177L165.823 543.052C166.456 543.251 167.116 543.357 167.78 543.366C168.202 543.365 168.623 543.327 169.038 543.252L197.062 578.778C196.555 579.792 196.306 580.915 196.337 582.048C196.368 583.181 196.679 584.289 197.241 585.273C197.802 586.258 198.599 587.088 199.558 587.691C200.518 588.294 201.612 588.651 202.743 588.73C203.873 588.809 205.006 588.607 206.04 588.144C207.075 587.68 207.979 586.968 208.672 586.071C209.365 585.175 209.826 584.121 210.015 583.003C210.203 581.885 210.113 580.738 209.752 579.664L229.844 557.9C230.226 557.967 230.613 558.006 231.002 558.014C232.367 558.016 233.701 557.607 234.831 556.842L250.122 563.987C250.181 565.048 250.484 566.08 251.009 567.003C251.534 567.926 252.265 568.715 253.145 569.308C254.026 569.902 255.032 570.283 256.085 570.422C257.137 570.561 258.208 570.454 259.213 570.11C260.217 569.766 261.128 569.194 261.875 568.439C262.621 567.684 263.182 566.766 263.514 565.757C263.846 564.749 263.94 563.677 263.789 562.626C263.637 561.575 263.244 560.574 262.641 559.7L271.144 543.48Z" fill="#FBFAFF"/>
<path d="M470.111 272.085L451.297 242.682L420.211 265.545L391.546 208.813L315.903 256.903V295.754H486.475V263.095L470.111 272.085Z" fill="#FBFAFF" stroke="#FBFAFF" stroke-width="1.16063" stroke-linecap="round" stroke-linejoin="round"/>
<path d="M473.381 294.126L452.939 263.095L418.583 276.983L378.494 238.605L315.903 263.875V320.259H486.475V285.137L473.381 294.126Z" fill="#004EFF" stroke="#FBFAFF" stroke-width="0.876601" stroke-miterlimit="10"/>
<path opacity="0.2" d="M473.381 294.126L452.939 263.095L418.583 276.983L378.494 238.605L315.903 263.875V320.259H486.475V285.137L473.381 294.126Z" fill="black"/>
<path d="M473.381 294.126L452.939 263.095L418.583 276.983L378.494 238.605L315.903 263.875V320.259H486.475V285.137L473.381 294.126Z" stroke="#FBFAFF" stroke-width="0.876601" stroke-miterlimit="10"/>
<path d="M412.822 194.424H399.088C398.248 194.418 397.431 194.697 396.77 195.214C396.109 195.732 395.642 196.459 395.447 197.275C395.252 198.092 395.339 198.951 395.694 199.712C396.05 200.473 396.652 201.091 397.404 201.465L392.604 206.572L401.356 201.883H412.822C413.811 201.883 414.76 201.49 415.459 200.791C416.159 200.091 416.551 199.143 416.551 198.154C416.551 197.165 416.159 196.216 415.459 195.517C414.76 194.817 413.811 194.424 412.822 194.424Z" fill="#004EFF"/>
<path opacity="0.2" d="M412.822 194.424H399.088C398.248 194.418 397.431 194.697 396.77 195.214C396.109 195.732 395.642 196.459 395.447 197.275C395.252 198.092 395.339 198.951 395.694 199.712C396.05 200.473 396.652 201.091 397.404 201.465L392.604 206.572L401.356 201.883H412.822C413.811 201.883 414.76 201.49 415.459 200.791C416.159 200.091 416.551 199.143 416.551 198.154C416.551 197.165 416.159 196.216 415.459 195.517C414.76 194.817 413.811 194.424 412.822 194.424Z" fill="black"/>
<path d="M472.976 227.626H459.242C458.402 227.62 457.585 227.898 456.924 228.416C456.263 228.934 455.797 229.66 455.601 230.477C455.406 231.294 455.493 232.153 455.848 232.914C456.204 233.674 456.807 234.293 457.559 234.667L452.758 239.815L461.51 235.112H472.976C473.966 235.112 474.914 234.719 475.613 234.02C476.313 233.321 476.706 232.372 476.706 231.383C476.706 230.394 476.313 229.445 475.613 228.746C474.914 228.047 473.966 227.654 472.976 227.654V227.626Z" fill="#004EFF"/>
<path opacity="0.2" d="M472.976 227.626H459.242C458.402 227.62 457.585 227.898 456.924 228.416C456.263 228.934 455.797 229.66 455.601 230.477C455.406 231.294 455.493 232.153 455.848 232.914C456.204 233.674 456.807 234.293 457.559 234.667L452.758 239.815L461.51 235.112H472.976C473.966 235.112 474.914 234.719 475.613 234.02C476.313 233.321 476.706 232.372 476.706 231.383C476.706 230.394 476.313 229.445 475.613 228.746C474.914 228.047 473.966 227.654 472.976 227.654V227.626Z" fill="black"/>
<path d="M322.791 339.503H484.554C486.673 339.507 488.771 339.093 490.729 338.285C492.687 337.477 494.467 336.29 495.966 334.794C497.466 333.297 498.655 331.519 499.467 329.563C500.278 327.606 500.696 325.508 500.696 323.39V190.083C500.696 187.964 500.278 185.867 499.467 183.91C498.655 181.953 497.466 180.176 495.966 178.679C494.467 177.182 492.687 175.996 490.729 175.188C488.771 174.38 486.673 173.965 484.554 173.969H322.791C320.673 173.965 318.574 174.38 316.616 175.188C314.658 175.996 312.878 177.182 311.379 178.679C309.88 180.176 308.69 181.953 307.879 183.91C307.067 185.867 306.649 187.964 306.649 190.083V323.39C306.649 325.508 307.067 327.606 307.879 329.563C308.69 331.519 309.88 333.297 311.379 334.794C312.878 336.29 314.658 337.477 316.616 338.285C318.574 339.093 320.673 339.507 322.791 339.503Z" stroke="#FBFAFF" stroke-width="1.0631" stroke-miterlimit="10"/>
<path d="M318.937 191.961H330.083" stroke="#FBFAFF" stroke-width="1.0631" stroke-miterlimit="10"/>
<path d="M318.937 204.095H330.083" stroke="#FBFAFF" stroke-width="1.0631" stroke-miterlimit="10"/>
<path d="M318.937 216.229H330.083" stroke="#FBFAFF" stroke-width="1.0631" stroke-miterlimit="10"/>
<path d="M318.937 228.363H330.083" stroke="#FBFAFF" stroke-width="1.0631" stroke-miterlimit="10"/>
<path d="M318.937 240.497H330.083" stroke="#FBFAFF" stroke-width="1.0631" stroke-miterlimit="10"/>
<path d="M453.133 609.821L436.084 583.175L407.912 603.894L381.935 552.482L313.386 596.063V631.271H467.963V601.674L453.133 609.821Z" fill="#FBFAFF" stroke="#FBFAFF" stroke-width="1.16063" stroke-linecap="round" stroke-linejoin="round"/>
<path d="M456.096 629.795L437.572 601.674L406.437 614.26L370.107 579.48L313.386 602.381V653.478H467.963V621.649L456.096 629.795Z" fill="#004EFF" stroke="#FBFAFF" stroke-width="0.876601" stroke-miterlimit="10"/>
<path opacity="0.2" d="M456.096 629.795L437.572 601.674L406.437 614.26L370.107 579.48L313.386 602.381V653.478H467.963V621.649L456.096 629.795Z" fill="black"/>
<path d="M456.096 629.795L437.572 601.674L406.437 614.26L370.107 579.48L313.386 602.381V653.478H467.963V621.649L456.096 629.795Z" stroke="#FBFAFF" stroke-width="0.876601" stroke-miterlimit="10"/>
<path d="M401.217 539.443H388.771C388.01 539.437 387.269 539.689 386.67 540.159C386.071 540.628 385.648 541.286 385.471 542.026C385.294 542.767 385.373 543.545 385.695 544.235C386.018 544.924 386.564 545.484 387.245 545.823L382.895 550.451L390.826 546.202H401.217C402.114 546.202 402.973 545.846 403.607 545.212C404.241 544.578 404.597 543.718 404.597 542.822C404.597 541.926 404.241 541.066 403.607 540.432C402.973 539.799 402.114 539.443 401.217 539.443Z" fill="#004EFF"/>
<path opacity="0.2" d="M401.217 539.443H388.771C388.01 539.437 387.269 539.689 386.67 540.159C386.071 540.628 385.648 541.286 385.471 542.026C385.294 542.767 385.373 543.545 385.695 544.235C386.018 544.924 386.564 545.484 387.245 545.823L382.895 550.451L390.826 546.202H401.217C402.114 546.202 402.973 545.846 403.607 545.212C404.241 544.578 404.597 543.718 404.597 542.822C404.597 541.926 404.241 541.066 403.607 540.432C402.973 539.799 402.114 539.443 401.217 539.443Z" fill="black"/>
<path d="M455.73 569.531H443.284C442.523 569.525 441.782 569.778 441.183 570.247C440.584 570.716 440.161 571.374 439.984 572.115C439.807 572.855 439.886 573.633 440.208 574.323C440.53 575.012 441.076 575.572 441.758 575.912L437.407 580.577L445.339 576.315H455.73C456.626 576.315 457.486 575.959 458.12 575.325C458.753 574.692 459.11 573.832 459.11 572.936C459.11 572.039 458.753 571.18 458.12 570.546C457.486 569.912 456.626 569.556 455.73 569.556V569.531Z" fill="#004EFF"/>
<path opacity="0.2" d="M455.73 569.531H443.284C442.523 569.525 441.782 569.778 441.183 570.247C440.584 570.716 440.161 571.374 439.984 572.115C439.807 572.855 439.886 573.633 440.208 574.323C440.53 575.012 441.076 575.572 441.758 575.912L437.407 580.577L445.339 576.315H455.73C456.626 576.315 457.486 575.959 458.12 575.325C458.753 574.692 459.11 573.832 459.11 572.936C459.11 572.039 458.753 571.18 458.12 570.546C457.486 569.912 456.626 569.556 455.73 569.556V569.531Z" fill="black"/>
<path d="M319.628 670.917H466.222C468.142 670.921 470.044 670.545 471.818 669.813C473.593 669.081 475.206 668.006 476.564 666.649C477.923 665.293 479.001 663.682 479.736 661.909C480.472 660.135 480.85 658.235 480.85 656.315V535.508C480.85 533.588 480.472 531.688 479.736 529.914C479.001 528.141 477.923 526.53 476.564 525.174C475.206 523.817 473.593 522.742 471.818 522.01C470.044 521.277 468.142 520.902 466.222 520.906L319.628 520.906C317.708 520.902 315.807 521.277 314.032 522.01C312.257 522.742 310.645 523.817 309.286 525.174C307.927 526.53 306.849 528.141 306.114 529.914C305.379 531.688 305 533.588 305 535.508V656.315C305 658.235 305.379 660.135 306.114 661.909C306.849 663.682 307.927 665.293 309.286 666.649C310.645 668.006 312.257 669.081 314.032 669.813C315.807 670.545 317.708 670.921 319.628 670.917Z" stroke="#FBFAFF" stroke-width="1.0631" stroke-miterlimit="10"/>
<path d="M316.135 537.211H326.236" stroke="#FBFAFF" stroke-width="1.0631" stroke-miterlimit="10"/>
<path d="M316.135 548.207H326.236" stroke="#FBFAFF" stroke-width="1.0631" stroke-miterlimit="10"/>
<path d="M316.135 559.203H326.236" stroke="#FBFAFF" stroke-width="1.0631" stroke-miterlimit="10"/>
<path d="M316.135 570.199H326.236" stroke="#FBFAFF" stroke-width="1.0631" stroke-miterlimit="10"/>
<path d="M316.135 581.195H326.236" stroke="#FBFAFF" stroke-width="1.0631" stroke-miterlimit="10"/>
<path d="M576.687 35.4399C569.44 35.4509 562.359 37.6099 556.339 41.644C550.319 45.6781 545.63 51.4063 542.864 58.1046C540.098 64.8029 539.38 72.1707 540.801 79.2769C542.221 86.3831 545.717 92.9088 550.845 98.0291C555.973 103.15 562.504 106.635 569.612 108.045C576.721 109.454 584.087 108.725 590.781 105.949C597.475 103.174 603.197 98.4758 607.222 92.4496C611.246 86.4233 613.395 79.3392 613.395 72.0924C613.38 62.3664 609.506 53.0439 602.624 46.1718C595.741 39.2997 586.413 35.4399 576.687 35.4399ZM576.687 97.9745C571.568 97.9552 566.571 96.4197 562.325 93.562C558.079 90.7042 554.775 86.6523 552.83 81.9179C550.885 77.1835 550.387 71.9791 551.399 66.9618C552.41 61.9445 554.885 57.3394 558.512 53.7281C562.139 50.1168 566.755 47.6612 571.776 46.6714C576.798 45.6817 582 46.2021 586.726 48.1671C591.452 50.1321 595.49 53.4534 598.329 57.7117C601.169 61.97 602.683 66.9742 602.68 72.0924C602.673 75.4986 601.995 78.87 600.684 82.0141C599.374 85.1582 597.457 88.0135 595.044 90.4169C592.63 92.8202 589.767 94.7247 586.617 96.0214C583.467 97.3181 580.093 97.9818 576.687 97.9745Z" fill="#004EFF" stroke="#FBFAFF" stroke-width="1.0631" stroke-miterlimit="10"/>
<g opacity="0.2">
<path d="M576.687 35.4399C569.44 35.4509 562.359 37.6099 556.339 41.644C550.319 45.6781 545.63 51.4063 542.864 58.1046C540.098 64.8029 539.38 72.1707 540.801 79.2769C542.221 86.3831 545.717 92.9088 550.845 98.0291C555.973 103.15 562.504 106.635 569.612 108.045C576.721 109.454 584.087 108.725 590.781 105.949C597.475 103.174 603.197 98.4758 607.222 92.4496C611.246 86.4233 613.395 79.3392 613.395 72.0924C613.38 62.3664 609.506 53.0439 602.624 46.1718C595.741 39.2997 586.413 35.4399 576.687 35.4399ZM576.687 97.9745C571.568 97.9552 566.571 96.4197 562.325 93.562C558.079 90.7042 554.775 86.6523 552.83 81.9179C550.885 77.1835 550.387 71.9791 551.399 66.9618C552.41 61.9445 554.885 57.3394 558.512 53.7281C562.139 50.1168 566.755 47.6612 571.776 46.6714C576.798 45.6817 582 46.2021 586.726 48.1671C591.452 50.1321 595.49 53.4534 598.329 57.7117C601.169 61.97 602.683 66.9742 602.68 72.0924C602.673 75.4986 601.995 78.87 600.684 82.0141C599.374 85.1582 597.457 88.0135 595.044 90.4169C592.63 92.8202 589.767 94.7247 586.617 96.0214C583.467 97.3181 580.093 97.9818 576.687 97.9745Z" fill="black"/>
</g>
<path d="M576.687 35.4399C569.44 35.4509 562.359 37.6099 556.339 41.644C550.319 45.6781 545.63 51.4063 542.864 58.1046C540.098 64.8029 539.38 72.1707 540.801 79.2769C542.221 86.3832 545.717 92.9088 550.845 98.0291C555.973 103.15 562.504 106.635 569.612 108.045C576.721 109.454 584.087 108.725 590.781 105.949C597.475 103.174 603.197 98.4758 607.222 92.4496C611.246 86.4233 613.395 79.3392 613.395 72.0924C613.38 62.3664 609.506 53.0439 602.624 46.1718C595.741 39.2997 586.413 35.4399 576.687 35.4399ZM576.687 97.9745C571.568 97.9552 566.571 96.4197 562.325 93.562C558.079 90.7042 554.775 86.6523 552.83 81.9179C550.885 77.1835 550.387 71.9791 551.399 66.9618C552.41 61.9445 554.885 57.3394 558.512 53.7281C562.139 50.1168 566.755 47.6612 571.776 46.6714C576.798 45.6817 582 46.2021 586.726 48.1671C591.452 50.1321 595.49 53.4534 598.329 57.7117C601.169 61.97 602.683 66.9742 602.68 72.0924C602.673 75.4986 601.995 78.87 600.684 82.0141C599.374 85.1582 597.457 88.0135 595.044 90.4169C592.63 92.8202 589.767 94.7247 586.617 96.0214C583.467 97.3181 580.093 97.9818 576.687 97.9745Z" stroke="#FBFAFF" stroke-width="1.0631" stroke-miterlimit="10"/>
<path d="M576.686 35.4399C571.732 35.4199 566.827 36.4103 562.269 38.3507C557.711 40.291 553.597 43.1406 550.178 46.7251L557.956 54.1697C560.917 51.0698 564.6 48.7528 568.676 47.4263C572.752 46.0999 577.094 45.8055 581.312 46.5694C585.529 47.3333 589.492 49.1317 592.844 51.8035C596.196 54.4752 598.832 57.9369 600.518 61.8782C602.203 65.8195 602.884 70.1173 602.5 74.3866C602.116 78.6558 600.678 82.763 598.316 86.3402C595.955 89.9173 592.742 92.8527 588.967 94.8831C585.192 96.9136 580.973 97.9758 576.686 97.9745V108.731C581.559 108.826 586.401 107.948 590.93 106.149C595.459 104.35 599.584 101.666 603.064 98.2538C606.543 94.8416 609.307 90.7697 611.194 86.2765C613.081 81.7832 614.053 76.9588 614.053 72.0854C614.053 67.212 613.081 62.3876 611.194 57.8943C609.307 53.4011 606.543 49.3292 603.064 45.917C599.584 42.5047 595.459 39.8206 590.93 38.0216C586.401 36.2227 581.559 35.345 576.686 35.4399Z" fill="#FBFAFF" stroke="#FBFAFF" stroke-width="1.0631" stroke-linecap="round" stroke-linejoin="round"/>
<path d="M667.218 35.4399C659.971 35.4509 652.89 37.6099 646.87 41.644C640.85 45.6781 636.161 51.4063 633.395 58.1046C630.63 64.8029 629.912 72.1707 631.332 79.2769C632.753 86.3831 636.248 92.9088 641.376 98.0291C646.504 103.15 653.035 106.635 660.143 108.045C667.252 109.454 674.619 108.725 681.313 105.949C688.007 103.174 693.728 98.4758 697.753 92.4496C701.778 86.4233 703.926 79.3392 703.926 72.0924C703.911 62.3664 700.037 53.0439 693.155 46.1718C686.272 39.2997 676.944 35.4399 667.218 35.4399ZM667.218 97.9745C662.096 97.9717 657.09 96.4503 652.833 93.6025C648.576 90.7547 645.259 86.7085 643.302 81.9756C641.344 77.2426 640.834 72.0355 641.836 67.0127C642.838 61.9899 645.307 57.377 648.93 53.7573C652.554 50.1377 657.169 47.6738 662.193 46.6773C667.217 45.6808 672.424 46.1964 677.155 48.159C681.885 50.1215 685.928 53.4428 688.771 57.703C691.614 61.9631 693.131 66.9706 693.128 72.0924C693.109 78.9559 690.373 85.5326 685.517 90.3833C680.661 95.2339 674.081 97.9635 667.218 97.9745Z" fill="#004EFF" stroke="#FBFAFF" stroke-width="1.0631" stroke-miterlimit="10"/>
<g opacity="0.2">
<path d="M667.218 35.4399C659.971 35.4509 652.89 37.6099 646.87 41.644C640.85 45.6781 636.161 51.4063 633.395 58.1046C630.63 64.8029 629.912 72.1707 631.332 79.2769C632.753 86.3831 636.248 92.9088 641.376 98.0291C646.504 103.15 653.035 106.635 660.143 108.045C667.252 109.454 674.619 108.725 681.313 105.949C688.007 103.174 693.728 98.4758 697.753 92.4496C701.778 86.4233 703.926 79.3392 703.926 72.0924C703.911 62.3664 700.037 53.0439 693.155 46.1718C686.272 39.2997 676.944 35.4399 667.218 35.4399ZM667.218 97.9745C662.096 97.9717 657.09 96.4503 652.833 93.6025C648.576 90.7547 645.259 86.7085 643.302 81.9756C641.344 77.2426 640.834 72.0355 641.836 67.0127C642.838 61.9899 645.307 57.377 648.93 53.7573C652.554 50.1377 657.169 47.6738 662.193 46.6773C667.217 45.6808 672.424 46.1964 677.155 48.159C681.885 50.1215 685.928 53.4428 688.771 57.703C691.614 61.9631 693.131 66.9706 693.128 72.0924C693.109 78.9559 690.373 85.5326 685.517 90.3833C680.661 95.2339 674.081 97.9635 667.218 97.9745Z" fill="black"/>
</g>
<path d="M667.218 35.4399C659.971 35.4509 652.89 37.6099 646.87 41.644C640.85 45.6781 636.161 51.4063 633.395 58.1046C630.63 64.8029 629.912 72.1707 631.332 79.2769C632.753 86.3832 636.248 92.9088 641.376 98.0291C646.504 103.15 653.035 106.635 660.143 108.045C667.252 109.454 674.619 108.725 681.313 105.949C688.007 103.174 693.728 98.4758 697.753 92.4496C701.778 86.4233 703.926 79.3392 703.926 72.0924C703.911 62.3664 700.037 53.0439 693.155 46.1718C686.272 39.2997 676.944 35.4399 667.218 35.4399ZM667.218 97.9745C662.096 97.9717 657.09 96.4503 652.833 93.6025C648.576 90.7547 645.259 86.7085 643.302 81.9756C641.344 77.2426 640.834 72.0355 641.836 67.0127C642.838 61.9899 645.307 57.377 648.93 53.7573C652.554 50.1377 657.169 47.6738 662.193 46.6773C667.217 45.6808 672.424 46.1964 677.155 48.159C681.885 50.1215 685.928 53.4428 688.771 57.703C691.614 61.9631 693.131 66.9706 693.128 72.0924C693.109 78.9559 690.373 85.5326 685.517 90.3833C680.661 95.2339 674.081 97.9635 667.218 97.9745Z" stroke="#FBFAFF" stroke-width="1.0631" stroke-miterlimit="10"/>
<path d="M681.509 38.3204L677.335 48.2279C682.839 50.5558 687.368 54.7156 690.155 60.0019C692.942 65.2882 693.815 71.3757 692.625 77.2322C691.436 83.0886 688.258 88.3534 683.63 92.1339C679.002 95.9144 673.208 97.9779 667.232 97.9745V108.731C675.699 108.75 683.911 105.837 690.472 100.486C697.033 95.1355 701.539 87.6775 703.223 79.3802C704.907 71.0829 703.666 62.4584 699.71 54.973C695.754 47.4876 689.327 41.6032 681.523 38.3204H681.509Z" fill="#FBFAFF" stroke="#FBFAFF" stroke-width="1.0631" stroke-linecap="round" stroke-linejoin="round"/>
<path d="M699.139 1L547.882 1C545.249 0.998177 542.641 1.51502 540.207 2.52103C537.774 3.52703 535.563 5.00248 533.699 6.86316C531.836 8.72384 530.357 10.9333 529.348 13.3654C528.339 15.7975 527.818 18.4046 527.816 21.0378V146.51C527.824 151.826 529.941 156.921 533.704 160.676C537.467 164.431 542.566 166.538 547.882 166.534L699.139 166.534C701.772 166.538 704.379 166.023 706.813 165.018C709.246 164.014 711.458 162.54 713.321 160.68C715.185 158.821 716.663 156.612 717.673 154.181C718.683 151.749 719.203 149.143 719.205 146.51V21.0378C719.203 18.4046 718.683 15.7975 717.673 13.3654C716.664 10.9333 715.185 8.72384 713.322 6.86316C711.459 5.00248 709.247 3.52703 706.814 2.52103C704.38 1.51502 701.773 0.998177 699.139 1Z" stroke="#FBFAFF" stroke-width="1.0631" stroke-miterlimit="10"/>
<path d="M544.069 120.767H601.734" stroke="#FBFAFF" stroke-width="1.0631" stroke-miterlimit="10"/>
<path d="M544.069 126.932H601.734" stroke="#FBFAFF" stroke-width="1.0631" stroke-miterlimit="10"/>
<path d="M544.069 133.096H601.734" stroke="#FBFAFF" stroke-width="1.0631" stroke-miterlimit="10"/>
<path d="M544.069 139.275H601.734" stroke="#FBFAFF" stroke-width="1.0631" stroke-miterlimit="10"/>
<path d="M544.069 145.439H601.734" stroke="#FBFAFF" stroke-width="1.0631" stroke-miterlimit="10"/>
<path d="M639.305 120.767H696.983" stroke="#FBFAFF" stroke-width="1.0631" stroke-miterlimit="10"/>
<path d="M639.305 126.932H696.983" stroke="#FBFAFF" stroke-width="1.0631" stroke-miterlimit="10"/>
<path d="M639.305 133.096H696.983" stroke="#FBFAFF" stroke-width="1.0631" stroke-miterlimit="10"/>
<path d="M639.305 139.275H696.983" stroke="#FBFAFF" stroke-width="1.0631" stroke-miterlimit="10"/>
<path d="M639.305 145.439H696.983" stroke="#FBFAFF" stroke-width="1.0631" stroke-miterlimit="10"/>
<path d="M592.744 17.9904L650.408 17.9904" stroke="#FBFAFF" stroke-width="1.0631" stroke-miterlimit="10"/>
<path d="M592.744 24.1687L650.408 24.1687" stroke="#FBFAFF" stroke-width="1.0631" stroke-miterlimit="10"/>
<path d="M353.87 381.68C346.623 381.691 339.543 383.85 333.522 387.884C327.502 391.918 322.813 397.646 320.047 404.344C317.282 411.043 316.564 418.41 317.985 425.517C319.405 432.623 322.9 439.148 328.028 444.269C333.156 449.389 339.687 452.874 346.796 454.284C353.904 455.694 361.271 454.965 367.965 452.189C374.659 449.413 380.38 444.715 384.405 438.689C388.43 432.663 390.578 425.579 390.578 418.332C390.564 408.606 386.69 399.283 379.807 392.411C372.925 385.539 363.596 381.68 353.87 381.68ZM353.87 444.214C348.752 444.195 343.754 442.659 339.508 439.802C335.262 436.944 331.958 432.892 330.014 428.157C328.069 423.423 327.571 418.219 328.582 413.201C329.593 408.184 332.069 403.579 335.696 399.968C339.323 396.356 343.938 393.901 348.96 392.911C353.981 391.921 359.184 392.442 363.91 394.407C368.636 396.372 372.673 399.693 375.513 403.951C378.352 408.21 379.866 413.214 379.864 418.332C379.856 421.738 379.178 425.11 377.868 428.254C376.558 431.398 374.641 434.253 372.227 436.656C369.814 439.06 366.95 440.964 363.8 442.261C360.651 443.558 357.276 444.221 353.87 444.214Z" fill="#004EFF" stroke="#FBFAFF" stroke-width="1.0631" stroke-miterlimit="10"/>
<g opacity="0.2">
<path d="M353.87 381.68C346.623 381.691 339.543 383.85 333.522 387.884C327.502 391.918 322.813 397.646 320.047 404.344C317.282 411.043 316.564 418.41 317.985 425.517C319.405 432.623 322.9 439.148 328.028 444.269C333.156 449.389 339.687 452.874 346.796 454.284C353.904 455.694 361.271 454.965 367.965 452.189C374.659 449.413 380.38 444.715 384.405 438.689C388.43 432.663 390.578 425.579 390.578 418.332C390.564 408.606 386.69 399.283 379.807 392.411C372.925 385.539 363.596 381.68 353.87 381.68ZM353.87 444.214C348.752 444.195 343.754 442.659 339.508 439.802C335.262 436.944 331.958 432.892 330.014 428.157C328.069 423.423 327.571 418.219 328.582 413.201C329.593 408.184 332.069 403.579 335.696 399.968C339.323 396.356 343.938 393.901 348.96 392.911C353.981 391.921 359.184 392.442 363.91 394.407C368.636 396.372 372.673 399.693 375.513 403.951C378.352 408.21 379.866 413.214 379.864 418.332C379.856 421.738 379.178 425.11 377.868 428.254C376.558 431.398 374.641 434.253 372.227 436.656C369.814 439.06 366.95 440.964 363.8 442.261C360.651 443.558 357.276 444.221 353.87 444.214Z" fill="black"/>
</g>
<path d="M353.87 381.68C346.623 381.691 339.543 383.85 333.522 387.884C327.502 391.918 322.813 397.646 320.047 404.344C317.282 411.043 316.564 418.41 317.985 425.517C319.405 432.623 322.9 439.148 328.028 444.269C333.156 449.389 339.687 452.874 346.796 454.284C353.904 455.694 361.271 454.965 367.965 452.189C374.659 449.413 380.38 444.715 384.405 438.689C388.43 432.663 390.578 425.579 390.578 418.332C390.564 408.606 386.69 399.283 379.807 392.411C372.925 385.539 363.596 381.68 353.87 381.68ZM353.87 444.214C348.752 444.195 343.754 442.659 339.508 439.802C335.262 436.944 331.958 432.892 330.014 428.157C328.069 423.423 327.571 418.219 328.582 413.201C329.593 408.184 332.069 403.579 335.696 399.968C339.323 396.356 343.938 393.901 348.96 392.911C353.981 391.921 359.184 392.442 363.91 394.407C368.636 396.372 372.673 399.693 375.513 403.951C378.352 408.21 379.866 413.214 379.864 418.332C379.856 421.738 379.178 425.11 377.868 428.254C376.558 431.398 374.641 434.253 372.227 436.656C369.814 439.06 366.95 440.964 363.8 442.261C360.651 443.558 357.276 444.221 353.87 444.214Z" stroke="#FBFAFF" stroke-width="1.0631" stroke-miterlimit="10"/>
<path d="M353.87 381.68C348.916 381.659 344.01 382.65 339.453 384.59C334.895 386.531 330.78 389.38 327.361 392.965L335.14 400.409C338.1 397.309 341.784 394.992 345.86 393.666C349.936 392.339 354.277 392.045 358.495 392.809C362.713 393.573 366.675 395.371 370.027 398.043C373.379 400.715 376.016 404.176 377.701 408.118C379.386 412.059 380.067 416.357 379.683 420.626C379.299 424.895 377.862 429.003 375.5 432.58C373.138 436.157 369.926 439.092 366.151 441.123C362.376 443.153 358.156 444.215 353.87 444.214V454.97C358.742 455.065 363.585 454.188 368.114 452.389C372.643 450.59 376.768 447.906 380.247 444.493C383.727 441.081 386.491 437.009 388.377 432.516C390.264 428.023 391.236 423.198 391.236 418.325C391.236 413.452 390.264 408.627 388.377 404.134C386.491 399.641 383.727 395.569 380.247 392.157C376.768 388.744 372.643 386.06 368.114 384.261C363.585 382.462 358.742 381.585 353.87 381.68Z" fill="#FBFAFF" stroke="#FBFAFF" stroke-width="1.0631" stroke-linecap="round" stroke-linejoin="round"/>
<path d="M444.401 381.68C437.155 381.691 430.074 383.85 424.054 387.884C418.034 391.918 413.344 397.646 410.579 404.344C407.813 411.043 407.095 418.41 408.516 425.517C409.936 432.623 413.431 439.148 418.56 444.269C423.688 449.389 430.219 452.874 437.327 454.284C444.435 455.694 451.802 454.965 458.496 452.189C465.19 449.413 470.911 444.715 474.936 438.689C478.961 432.663 481.11 425.579 481.11 418.332C481.095 408.606 477.221 399.283 470.338 392.411C463.456 385.539 454.127 381.68 444.401 381.68ZM444.401 444.214C439.28 444.211 434.274 442.69 430.017 439.842C425.76 436.994 422.443 432.948 420.485 428.215C418.528 423.482 418.018 418.275 419.02 413.252C420.022 408.23 422.49 403.617 426.114 399.997C429.738 396.377 434.353 393.913 439.377 392.917C444.401 391.92 449.607 392.436 454.338 394.399C459.069 396.361 463.112 399.682 465.955 403.943C468.798 408.203 470.314 413.21 470.311 418.332C470.293 425.195 467.556 431.772 462.701 436.623C457.845 441.474 451.265 444.203 444.401 444.214Z" fill="#004EFF" stroke="#FBFAFF" stroke-width="1.0631" stroke-miterlimit="10"/>
<g opacity="0.2">
<path d="M444.401 381.68C437.155 381.691 430.074 383.85 424.054 387.884C418.034 391.918 413.344 397.646 410.579 404.344C407.813 411.043 407.095 418.41 408.516 425.517C409.936 432.623 413.431 439.148 418.56 444.269C423.688 449.389 430.219 452.874 437.327 454.284C444.435 455.694 451.802 454.965 458.496 452.189C465.19 449.413 470.911 444.715 474.936 438.689C478.961 432.663 481.11 425.579 481.11 418.332C481.095 408.606 477.221 399.283 470.338 392.411C463.456 385.539 454.127 381.68 444.401 381.68ZM444.401 444.214C439.28 444.211 434.274 442.69 430.017 439.842C425.76 436.994 422.443 432.948 420.485 428.215C418.528 423.482 418.018 418.275 419.02 413.252C420.022 408.23 422.49 403.617 426.114 399.997C429.738 396.377 434.353 393.913 439.377 392.917C444.401 391.92 449.607 392.436 454.338 394.399C459.069 396.361 463.112 399.682 465.955 403.943C468.798 408.203 470.314 413.21 470.311 418.332C470.293 425.195 467.556 431.772 462.701 436.623C457.845 441.474 451.265 444.203 444.401 444.214Z" fill="black"/>
</g>
<path d="M444.401 381.68C437.155 381.691 430.074 383.85 424.054 387.884C418.034 391.918 413.344 397.646 410.579 404.344C407.813 411.043 407.095 418.41 408.516 425.517C409.936 432.623 413.431 439.148 418.56 444.269C423.688 449.389 430.219 452.874 437.327 454.284C444.435 455.694 451.802 454.965 458.496 452.189C465.19 449.413 470.911 444.715 474.936 438.689C478.961 432.663 481.11 425.579 481.11 418.332C481.095 408.606 477.221 399.283 470.338 392.411C463.456 385.539 454.127 381.68 444.401 381.68ZM444.401 444.214C439.28 444.211 434.274 442.69 430.017 439.842C425.76 436.994 422.443 432.948 420.485 428.215C418.528 423.482 418.018 418.275 419.02 413.252C420.022 408.23 422.49 403.617 426.114 399.997C429.738 396.377 434.353 393.913 439.377 392.917C444.401 391.92 449.607 392.436 454.338 394.399C459.069 396.361 463.112 399.682 465.955 403.943C468.798 408.203 470.314 413.21 470.311 418.332C470.293 425.195 467.556 431.772 462.701 436.623C457.845 441.474 451.265 444.203 444.401 444.214Z" stroke="#FBFAFF" stroke-width="1.0631" stroke-miterlimit="10"/>
<path d="M458.693 384.56L454.518 394.468C460.022 396.795 464.552 400.955 467.339 406.242C470.125 411.528 470.998 417.615 469.809 423.472C468.62 429.328 465.441 434.593 460.813 438.374C456.185 442.154 450.392 444.218 444.416 444.214V454.97C452.882 454.99 461.094 452.077 467.656 446.726C474.217 441.375 478.723 433.917 480.407 425.62C482.091 417.322 480.849 408.698 476.893 401.213C472.937 393.727 466.511 387.843 458.707 384.56H458.693Z" fill="#FBFAFF" stroke="#FBFAFF" stroke-width="1.0631" stroke-linecap="round" stroke-linejoin="round"/>
<path d="M476.323 347.24H325.066C322.432 347.238 319.825 347.755 317.391 348.761C314.958 349.767 312.746 351.242 310.883 353.103C309.02 354.963 307.541 357.173 306.532 359.605C305.522 362.037 305.002 364.644 305 367.277V492.75C305.007 498.066 307.125 503.161 310.888 506.916C314.65 510.67 319.75 512.778 325.066 512.774H476.323C478.956 512.778 481.563 512.262 483.996 511.258C486.43 510.253 488.641 508.779 490.505 506.92C492.368 505.06 493.847 502.852 494.857 500.42C495.866 497.989 496.387 495.383 496.389 492.75V367.277C496.387 364.644 495.866 362.037 494.857 359.605C493.847 357.173 492.369 354.963 490.506 353.103C488.642 351.242 486.431 349.767 483.997 348.761C481.564 347.755 478.956 347.238 476.323 347.24Z" stroke="#FBFAFF" stroke-width="1.0631" stroke-miterlimit="10"/>
<path d="M321.253 467.007H378.917" stroke="#FBFAFF" stroke-width="1.0631" stroke-miterlimit="10"/>
<path d="M321.253 473.171H378.917" stroke="#FBFAFF" stroke-width="1.0631" stroke-miterlimit="10"/>
<path d="M321.253 479.336H378.917" stroke="#FBFAFF" stroke-width="1.0631" stroke-miterlimit="10"/>
<path d="M321.253 485.514H378.917" stroke="#FBFAFF" stroke-width="1.0631" stroke-miterlimit="10"/>
<path d="M321.253 491.679H378.917" stroke="#FBFAFF" stroke-width="1.0631" stroke-miterlimit="10"/>
<path d="M416.488 467.007H474.166" stroke="#FBFAFF" stroke-width="1.0631" stroke-miterlimit="10"/>
<path d="M416.488 473.171H474.166" stroke="#FBFAFF" stroke-width="1.0631" stroke-miterlimit="10"/>
<path d="M416.488 479.336H474.166" stroke="#FBFAFF" stroke-width="1.0631" stroke-miterlimit="10"/>
<path d="M416.488 485.514H474.166" stroke="#FBFAFF" stroke-width="1.0631" stroke-miterlimit="10"/>
<path d="M416.488 491.679H474.166" stroke="#FBFAFF" stroke-width="1.0631" stroke-miterlimit="10"/>
<path d="M369.928 364.23H427.592" stroke="#FBFAFF" stroke-width="1.0631" stroke-miterlimit="10"/>
<path d="M369.928 370.408H427.592" stroke="#FBFAFF" stroke-width="1.0631" stroke-miterlimit="10"/>
<path d="M665.158 713.72C657.912 713.731 650.831 715.89 644.811 719.924C638.79 723.958 634.101 729.686 631.336 736.385C628.57 743.083 627.852 750.451 629.273 757.557C630.693 764.663 634.188 771.189 639.316 776.309C644.445 781.43 650.976 784.915 658.084 786.325C665.192 787.734 672.559 787.005 679.253 784.23C685.947 781.454 691.668 776.756 695.693 770.73C699.718 764.703 701.866 757.619 701.866 750.372C701.852 740.647 697.978 731.324 691.095 724.452C684.213 717.58 674.884 713.72 665.158 713.72ZM665.158 776.255C660.04 776.235 655.042 774.7 650.796 771.842C646.55 768.984 643.246 764.932 641.302 760.198C639.357 755.464 638.859 750.259 639.87 745.242C640.882 740.225 643.357 735.62 646.984 732.008C650.611 728.397 655.226 725.941 660.248 724.952C665.269 723.962 670.472 724.482 675.198 726.447C679.924 728.412 683.961 731.734 686.801 735.992C689.64 740.25 691.154 745.254 691.152 750.372C691.144 753.779 690.466 757.15 689.156 760.294C687.846 763.438 685.929 766.294 683.515 768.697C681.102 771.1 678.238 773.005 675.089 774.302C671.939 775.598 668.565 776.262 665.158 776.255Z" fill="#004EFF" stroke="#FBFAFF" stroke-width="1.0631" stroke-miterlimit="10"/>
<g opacity="0.2">
<path d="M665.158 713.72C657.912 713.731 650.831 715.89 644.811 719.924C638.79 723.958 634.101 729.686 631.336 736.385C628.57 743.083 627.852 750.451 629.273 757.557C630.693 764.663 634.188 771.189 639.316 776.309C644.445 781.43 650.976 784.915 658.084 786.325C665.192 787.734 672.559 787.005 679.253 784.23C685.947 781.454 691.668 776.756 695.693 770.73C699.718 764.703 701.866 757.619 701.866 750.372C701.852 740.647 697.978 731.324 691.095 724.452C684.213 717.58 674.884 713.72 665.158 713.72ZM665.158 776.255C660.04 776.235 655.042 774.7 650.796 771.842C646.55 768.984 643.246 764.932 641.302 760.198C639.357 755.464 638.859 750.259 639.87 745.242C640.882 740.225 643.357 735.62 646.984 732.008C650.611 728.397 655.226 725.941 660.248 724.952C665.269 723.962 670.472 724.482 675.198 726.447C679.924 728.412 683.961 731.734 686.801 735.992C689.64 740.25 691.154 745.254 691.152 750.372C691.144 753.779 690.466 757.15 689.156 760.294C687.846 763.438 685.929 766.294 683.515 768.697C681.102 771.1 678.238 773.005 675.089 774.302C671.939 775.598 668.565 776.262 665.158 776.255Z" fill="black"/>
</g>
<path d="M665.158 713.72C657.912 713.731 650.831 715.89 644.811 719.924C638.79 723.958 634.101 729.686 631.336 736.385C628.57 743.083 627.852 750.451 629.273 757.557C630.693 764.663 634.188 771.189 639.316 776.309C644.445 781.43 650.976 784.915 658.084 786.325C665.192 787.734 672.559 787.005 679.253 784.23C685.947 781.454 691.668 776.756 695.693 770.73C699.718 764.703 701.866 757.619 701.866 750.372C701.852 740.647 697.978 731.324 691.095 724.452C684.213 717.58 674.884 713.72 665.158 713.72ZM665.158 776.255C660.04 776.235 655.042 774.7 650.796 771.842C646.55 768.984 643.246 764.932 641.302 760.198C639.357 755.464 638.859 750.259 639.87 745.242C640.882 740.225 643.357 735.62 646.984 732.008C650.611 728.397 655.226 725.941 660.248 724.952C665.269 723.962 670.472 724.482 675.198 726.447C679.924 728.412 683.961 731.734 686.801 735.992C689.64 740.25 691.154 745.254 691.152 750.372C691.144 753.779 690.466 757.15 689.156 760.294C687.846 763.438 685.929 766.294 683.515 768.697C681.102 771.1 678.238 773.005 675.089 774.302C671.939 775.598 668.565 776.262 665.158 776.255Z" stroke="#FBFAFF" stroke-width="1.0631" stroke-miterlimit="10"/>
<path d="M665.158 713.72C660.204 713.7 655.298 714.69 650.741 716.631C646.183 718.571 642.069 721.421 638.649 725.005L646.428 732.45C649.388 729.35 653.072 727.033 657.148 725.706C661.224 724.38 665.565 724.086 669.783 724.849C674.001 725.613 677.963 727.412 681.315 730.084C684.667 732.755 687.304 736.217 688.989 740.158C690.674 744.1 691.355 748.397 690.971 752.667C690.587 756.936 689.15 761.043 686.788 764.62C684.426 768.197 681.214 771.133 677.439 773.163C673.664 775.194 669.444 776.256 665.158 776.255V787.011C670.03 787.106 674.873 786.228 679.402 784.429C683.931 782.63 688.056 779.946 691.535 776.534C695.015 773.122 697.779 769.05 699.666 764.557C701.552 760.063 702.524 755.239 702.524 750.366C702.524 745.492 701.552 740.668 699.666 736.174C697.779 731.681 695.015 727.609 691.535 724.197C688.056 720.785 683.931 718.101 679.402 716.302C674.873 714.503 670.03 713.625 665.158 713.72Z" fill="#FBFAFF" stroke="#FBFAFF" stroke-width="1.0631" stroke-linecap="round" stroke-linejoin="round"/>
<path d="M755.69 713.72C748.443 713.731 741.362 715.89 735.342 719.924C729.322 723.958 724.632 729.686 721.867 736.385C719.101 743.083 718.383 750.451 719.804 757.557C721.224 764.663 724.72 771.189 729.848 776.309C734.976 781.43 741.507 784.915 748.615 786.325C755.723 787.734 763.09 787.005 769.784 784.23C776.478 781.454 782.199 776.756 786.224 770.73C790.249 764.703 792.398 757.619 792.398 750.372C792.383 740.647 788.509 731.324 781.626 724.452C774.744 717.58 765.416 713.72 755.69 713.72ZM755.69 776.255C750.568 776.252 745.562 774.73 741.305 771.883C737.048 769.035 733.731 764.989 731.773 760.256C729.816 755.523 729.306 750.316 730.308 745.293C731.31 740.27 733.778 735.657 737.402 732.037C741.026 728.418 745.641 725.954 750.665 724.957C755.689 723.961 760.895 724.477 765.626 726.439C770.357 728.402 774.4 731.723 777.243 735.983C780.086 740.243 781.602 745.251 781.6 750.372C781.581 757.236 778.845 763.813 773.989 768.663C769.133 773.514 762.553 776.244 755.69 776.255Z" fill="#004EFF" stroke="#FBFAFF" stroke-width="1.0631" stroke-miterlimit="10"/>
<g opacity="0.2">
<path d="M755.69 713.72C748.443 713.731 741.362 715.89 735.342 719.924C729.322 723.958 724.632 729.686 721.867 736.385C719.101 743.083 718.383 750.451 719.804 757.557C721.224 764.663 724.72 771.189 729.848 776.309C734.976 781.43 741.507 784.915 748.615 786.325C755.723 787.734 763.09 787.005 769.784 784.23C776.478 781.454 782.199 776.756 786.224 770.73C790.249 764.703 792.398 757.619 792.398 750.372C792.383 740.647 788.509 731.324 781.626 724.452C774.744 717.58 765.416 713.72 755.69 713.72ZM755.69 776.255C750.568 776.252 745.562 774.73 741.305 771.883C737.048 769.035 733.731 764.989 731.773 760.256C729.816 755.523 729.306 750.316 730.308 745.293C731.31 740.27 733.778 735.657 737.402 732.037C741.026 728.418 745.641 725.954 750.665 724.957C755.689 723.961 760.895 724.477 765.626 726.439C770.357 728.402 774.4 731.723 777.243 735.983C780.086 740.243 781.602 745.251 781.6 750.372C781.581 757.236 778.845 763.813 773.989 768.663C769.133 773.514 762.553 776.244 755.69 776.255Z" fill="black"/>
</g>
<path d="M755.69 713.72C748.443 713.731 741.362 715.89 735.342 719.924C729.322 723.958 724.632 729.686 721.867 736.385C719.101 743.083 718.383 750.451 719.804 757.557C721.224 764.663 724.72 771.189 729.848 776.309C734.976 781.43 741.507 784.915 748.615 786.325C755.723 787.734 763.09 787.005 769.784 784.23C776.478 781.454 782.199 776.756 786.224 770.73C790.249 764.703 792.398 757.619 792.398 750.372C792.383 740.647 788.509 731.324 781.626 724.452C774.744 717.58 765.416 713.72 755.69 713.72ZM755.69 776.255C750.568 776.252 745.562 774.73 741.305 771.883C737.048 769.035 733.731 764.989 731.773 760.256C729.816 755.523 729.306 750.316 730.308 745.293C731.31 740.27 733.778 735.657 737.402 732.037C741.026 728.418 745.641 725.954 750.665 724.957C755.689 723.961 760.895 724.477 765.626 726.439C770.357 728.402 774.4 731.723 777.243 735.983C780.086 740.243 781.602 745.251 781.6 750.372C781.581 757.236 778.845 763.813 773.989 768.663C769.133 773.514 762.553 776.244 755.69 776.255Z" stroke="#FBFAFF" stroke-width="1.0631" stroke-miterlimit="10"/>
<path d="M769.981 716.6L765.806 726.508C771.31 728.836 775.84 732.996 778.627 738.282C781.414 743.568 782.286 749.656 781.097 755.512C779.908 761.369 776.73 766.634 772.101 770.414C767.473 774.195 761.68 776.258 755.704 776.255V787.011C764.171 787.03 772.382 784.117 778.944 778.766C785.505 773.416 790.011 765.958 791.695 757.66C793.379 749.363 792.137 740.739 788.181 733.253C784.225 725.768 777.799 719.883 769.995 716.6H769.981Z" fill="#FBFAFF" stroke="#FBFAFF" stroke-width="1.0631" stroke-linecap="round" stroke-linejoin="round"/>
<path d="M787.611 679.28H636.354C633.72 679.278 631.113 679.795 628.679 680.801C626.246 681.807 624.034 683.283 622.171 685.143C620.308 687.004 618.829 689.213 617.82 691.646C616.81 694.078 616.29 696.685 616.288 699.318V824.791C616.295 830.106 618.413 835.201 622.176 838.956C625.938 842.711 631.038 844.818 636.354 844.814H787.611C790.244 844.818 792.851 844.303 795.284 843.298C797.718 842.294 799.929 840.82 801.793 838.96C803.656 837.101 805.135 834.892 806.145 832.461C807.154 830.03 807.675 827.423 807.677 824.791V699.318C807.675 696.685 807.154 694.078 806.145 691.646C805.136 689.213 803.657 687.004 801.794 685.143C799.931 683.283 797.719 681.807 795.286 680.801C792.852 679.795 790.244 679.278 787.611 679.28Z" stroke="#FBFAFF" stroke-width="1.0631" stroke-miterlimit="10"/>
<path d="M632.541 799.048H690.205" stroke="#FBFAFF" stroke-width="1.0631" stroke-miterlimit="10"/>
<path d="M632.541 805.212H690.205" stroke="#FBFAFF" stroke-width="1.0631" stroke-miterlimit="10"/>
<path d="M632.541 811.376H690.205" stroke="#FBFAFF" stroke-width="1.0631" stroke-miterlimit="10"/>
<path d="M632.541 817.555H690.205" stroke="#FBFAFF" stroke-width="1.0631" stroke-miterlimit="10"/>
<path d="M632.541 823.719H690.205" stroke="#FBFAFF" stroke-width="1.0631" stroke-miterlimit="10"/>
<path d="M727.776 799.048H785.455" stroke="#FBFAFF" stroke-width="1.0631" stroke-miterlimit="10"/>
<path d="M727.776 805.212H785.455" stroke="#FBFAFF" stroke-width="1.0631" stroke-miterlimit="10"/>
<path d="M727.776 811.376H785.455" stroke="#FBFAFF" stroke-width="1.0631" stroke-miterlimit="10"/>
<path d="M727.776 817.555H785.455" stroke="#FBFAFF" stroke-width="1.0631" stroke-miterlimit="10"/>
<path d="M727.776 823.719H785.455" stroke="#FBFAFF" stroke-width="1.0631" stroke-miterlimit="10"/>
<path d="M681.216 696.27H738.88" stroke="#FBFAFF" stroke-width="1.0631" stroke-miterlimit="10"/>
<path d="M681.216 702.449H738.88" stroke="#FBFAFF" stroke-width="1.0631" stroke-miterlimit="10"/>
<path d="M613.84 395.693H784.55C790.191 395.696 795.602 393.46 799.594 389.476C803.586 385.491 805.833 380.085 805.84 374.444V194.647C805.839 191.853 805.286 189.087 804.216 186.506C803.145 183.925 801.576 181.581 799.599 179.606C797.622 177.632 795.275 176.066 792.693 174.999C790.111 173.931 787.344 173.383 784.55 173.385L532.408 173.385C529.614 173.383 526.847 173.931 524.265 174.999C521.683 176.066 519.337 177.632 517.36 179.606C515.383 181.581 513.814 183.925 512.743 186.506C511.672 189.087 511.12 191.853 511.118 194.647V313.12" stroke="#FBFAFF" stroke-width="1.0631" stroke-miterlimit="10"/>
<path d="M593.69 278.235H553.086V337.249H593.69V278.235Z" fill="#004EFF" stroke="#FBFAFF" stroke-width="1.16063" stroke-miterlimit="10"/>
<path opacity="0.2" d="M593.69 278.235H553.086V337.249H593.69V278.235Z" fill="black"/>
<path d="M593.69 278.235H553.086V337.249H593.69V278.235Z" stroke="#FBFAFF" stroke-width="1.16063" stroke-miterlimit="10"/>
<path d="M650.075 248.721H609.471V314.053H650.075V248.721Z" fill="#004EFF" stroke="#FBFAFF" stroke-width="1.16063" stroke-miterlimit="10"/>
<path opacity="0.2" d="M650.075 248.721H609.471V314.053H650.075V248.721Z" fill="black"/>
<path d="M650.075 248.721H609.471V314.053H650.075V248.721Z" stroke="#FBFAFF" stroke-width="1.16063" stroke-miterlimit="10"/>
<path d="M706.459 224.495H665.854V267.701H706.459V224.495Z" fill="#004EFF" stroke="#FBFAFF" stroke-width="1.16063" stroke-miterlimit="10"/>
<path opacity="0.2" d="M706.459 224.495H665.854V267.701H706.459V224.495Z" fill="black"/>
<path d="M706.459 224.495H665.854V267.701H706.459V224.495Z" stroke="#FBFAFF" stroke-width="1.16063" stroke-miterlimit="10"/>
<path d="M593.69 337.235H553.086V361.475H593.69V337.235Z" fill="#FBFAFF" stroke="#FBFAFF" stroke-width="1.16063" stroke-linecap="round" stroke-linejoin="round"/>
<path d="M650.075 314.053H609.471V361.475H650.075V314.053Z" fill="#FBFAFF" stroke="#FBFAFF" stroke-width="1.16063" stroke-linecap="round" stroke-linejoin="round"/>
<path d="M759.517 248.721H718.913V314.053H759.517V248.721Z" fill="#004EFF" stroke="#FBFAFF" stroke-width="1.16063" stroke-miterlimit="10"/>
<path opacity="0.2" d="M759.517 248.721H718.913V314.053H759.517V248.721Z" fill="black"/>
<path d="M759.517 248.721H718.913V314.053H759.517V248.721Z" stroke="#FBFAFF" stroke-width="1.16063" stroke-miterlimit="10"/>
<path d="M759.517 314.053H718.913V361.475H759.517V314.053Z" fill="#FBFAFF" stroke="#FBFAFF" stroke-width="1.16063" stroke-linecap="round" stroke-linejoin="round"/>
<path d="M706.459 267.687H665.854V361.475H706.459V267.687Z" fill="#FBFAFF" stroke="#FBFAFF" stroke-width="1.16063" stroke-linecap="round" stroke-linejoin="round"/>
<path d="M643.033 224.578H617.694C616.531 224.578 615.416 225.04 614.594 225.862C613.772 226.684 613.311 227.799 613.311 228.962V234.792C613.311 235.955 613.772 237.069 614.594 237.891C615.416 238.713 616.531 239.175 617.694 239.175H627.087L630.37 244.853L633.641 239.175H643.033C644.196 239.175 645.311 238.713 646.133 237.891C646.955 237.069 647.417 235.955 647.417 234.792V228.962C647.417 227.799 646.955 226.684 646.133 225.862C645.311 225.04 644.196 224.578 643.033 224.578Z" fill="#004EFF"/>
<mask id="mask0_2049_823" style="mask-type:luminance" maskUnits="userSpaceOnUse" x="613" y="224" width="35" height="21">
<path d="M643.033 224.578H617.694C616.531 224.578 615.416 225.04 614.594 225.862C613.772 226.684 613.311 227.799 613.311 228.962V234.792C613.311 235.955 613.772 237.069 614.594 237.891C615.416 238.713 616.531 239.175 617.694 239.175H627.087L630.37 244.853L633.641 239.175H643.033C644.196 239.175 645.311 238.713 646.133 237.891C646.955 237.069 647.417 235.955 647.417 234.792V228.962C647.417 227.799 646.955 226.684 646.133 225.862C645.311 225.04 644.196 224.578 643.033 224.578Z" fill="white"/>
</mask>
<g mask="url(#mask0_2049_823)">
<path opacity="0.5" d="M643.033 224.578H617.694C616.531 224.578 615.416 225.04 614.594 225.862C613.772 226.684 613.311 227.799 613.311 228.962V234.792C613.311 235.955 613.772 237.069 614.594 237.891C615.416 238.713 616.531 239.175 617.694 239.175H627.087L630.37 244.853L633.641 239.175H643.033C644.196 239.175 645.311 238.713 646.133 237.891C646.955 237.069 647.417 235.955 647.417 234.792V228.962C647.417 227.799 646.955 226.684 646.133 225.862C645.311 225.04 644.196 224.578 643.033 224.578Z" fill="#FBFAFF"/>
</g>
<path d="M643.033 224.578H617.694C616.531 224.578 615.416 225.04 614.594 225.862C613.772 226.684 613.311 227.799 613.311 228.962V234.792C613.311 235.955 613.772 237.069 614.594 237.891C615.416 238.713 616.531 239.175 617.694 239.175H627.087L630.37 244.853L633.641 239.175H643.033C644.196 239.175 645.311 238.713 646.133 237.891C646.955 237.069 647.417 235.955 647.417 234.792V228.962C647.417 227.799 646.955 226.684 646.133 225.862C645.311 225.04 644.196 224.578 643.033 224.578Z" stroke="#FBFAFF" stroke-width="1.16689" stroke-linecap="round" stroke-linejoin="round"/>
<path d="M586.052 254.844H560.726C559.566 254.844 558.453 255.304 557.632 256.123C556.81 256.942 556.346 258.053 556.343 259.213V265.057C556.346 266.218 556.81 267.329 557.632 268.148C558.453 268.967 559.566 269.427 560.726 269.427H570.105L573.389 275.104L576.673 269.427H586.052C587.212 269.427 588.324 268.967 589.146 268.148C589.968 267.329 590.431 266.218 590.435 265.057V259.213C590.431 258.053 589.968 256.942 589.146 256.123C588.324 255.304 587.212 254.844 586.052 254.844Z" fill="#004EFF"/>
<mask id="mask1_2049_823" style="mask-type:luminance" maskUnits="userSpaceOnUse" x="556" y="254" width="35" height="22">
<path d="M586.052 254.844H560.726C559.566 254.844 558.453 255.304 557.632 256.123C556.81 256.942 556.346 258.053 556.343 259.213V265.057C556.346 266.218 556.81 267.329 557.632 268.148C558.453 268.967 559.566 269.427 560.726 269.427H570.105L573.389 275.104L576.673 269.427H586.052C587.212 269.427 588.324 268.967 589.146 268.148C589.968 267.329 590.431 266.218 590.435 265.057V259.213C590.431 258.053 589.968 256.942 589.146 256.123C588.324 255.304 587.212 254.844 586.052 254.844Z" fill="white"/>
</mask>
<g mask="url(#mask1_2049_823)">
<path opacity="0.5" d="M586.052 254.844H560.726C559.566 254.844 558.453 255.304 557.632 256.123C556.81 256.942 556.346 258.053 556.343 259.213V265.057C556.346 266.218 556.81 267.329 557.632 268.148C558.453 268.967 559.566 269.427 560.726 269.427H570.105L573.389 275.104L576.673 269.427H586.052C587.212 269.427 588.324 268.967 589.146 268.148C589.968 267.329 590.431 266.218 590.435 265.057V259.213C590.431 258.053 589.968 256.942 589.146 256.123C588.324 255.304 587.212 254.844 586.052 254.844Z" fill="#FBFAFF"/>
</g>
<path d="M586.052 254.844H560.726C559.566 254.844 558.453 255.304 557.632 256.123C556.81 256.942 556.346 258.053 556.343 259.213V265.057C556.346 266.218 556.81 267.329 557.632 268.148C558.453 268.967 559.566 269.427 560.726 269.427H570.105L573.389 275.104L576.673 269.427H586.052C587.212 269.427 588.324 268.967 589.146 268.148C589.968 267.329 590.431 266.218 590.435 265.057V259.213C590.431 258.053 589.968 256.942 589.146 256.123C588.324 255.304 587.212 254.844 586.052 254.844Z" stroke="#FBFAFF" stroke-width="1.16689" stroke-linecap="round" stroke-linejoin="round"/>
<path d="M698.568 200.269H673.229C672.066 200.269 670.952 200.73 670.13 201.552C669.308 202.374 668.846 203.489 668.846 204.652V210.482C668.846 211.057 668.959 211.627 669.18 212.158C669.4 212.689 669.723 213.171 670.13 213.577C670.538 213.983 671.021 214.304 671.553 214.523C672.084 214.742 672.654 214.854 673.229 214.852H682.622L685.892 220.529L689.176 214.852H698.568C699.143 214.854 699.713 214.742 700.245 214.523C700.776 214.304 701.26 213.983 701.667 213.577C702.074 213.171 702.397 212.689 702.618 212.158C702.838 211.627 702.952 211.057 702.952 210.482V204.652C702.952 203.489 702.49 202.374 701.668 201.552C700.846 200.73 699.731 200.269 698.568 200.269Z" fill="#004EFF"/>
<mask id="mask2_2049_823" style="mask-type:luminance" maskUnits="userSpaceOnUse" x="668" y="200" width="35" height="21">
<path d="M698.568 200.269H673.229C672.066 200.269 670.952 200.73 670.13 201.552C669.308 202.374 668.846 203.489 668.846 204.652V210.482C668.846 211.057 668.959 211.627 669.18 212.158C669.4 212.689 669.723 213.171 670.13 213.577C670.538 213.983 671.021 214.304 671.553 214.523C672.084 214.742 672.654 214.854 673.229 214.852H682.622L685.892 220.529L689.176 214.852H698.568C699.143 214.854 699.713 214.742 700.245 214.523C700.776 214.304 701.26 213.983 701.667 213.577C702.074 213.171 702.397 212.689 702.618 212.158C702.838 211.627 702.952 211.057 702.952 210.482V204.652C702.952 203.489 702.49 202.374 701.668 201.552C700.846 200.73 699.731 200.269 698.568 200.269Z" fill="white"/>
</mask>
<g mask="url(#mask2_2049_823)">
<path opacity="0.5" d="M698.568 200.269H673.229C672.066 200.269 670.952 200.73 670.13 201.552C669.308 202.374 668.846 203.489 668.846 204.652V210.482C668.846 211.057 668.959 211.627 669.18 212.158C669.4 212.689 669.723 213.171 670.13 213.577C670.538 213.983 671.021 214.304 671.553 214.523C672.084 214.742 672.654 214.854 673.229 214.852H682.622L685.892 220.529L689.176 214.852H698.568C699.143 214.854 699.713 214.742 700.245 214.523C700.776 214.304 701.26 213.983 701.667 213.577C702.074 213.171 702.397 212.689 702.618 212.158C702.838 211.627 702.952 211.057 702.952 210.482V204.652C702.952 203.489 702.49 202.374 701.668 201.552C700.846 200.73 699.731 200.269 698.568 200.269Z" fill="#FBFAFF"/>
</g>
<path d="M698.568 200.269H673.229C672.066 200.269 670.952 200.73 670.13 201.552C669.308 202.374 668.846 203.489 668.846 204.652V210.482C668.846 211.057 668.959 211.627 669.18 212.158C669.4 212.689 669.723 213.171 670.13 213.577C670.538 213.983 671.021 214.304 671.553 214.523C672.084 214.742 672.654 214.854 673.229 214.852H682.622L685.892 220.529L689.176 214.852H698.568C699.143 214.854 699.713 214.742 700.245 214.523C700.776 214.304 701.26 213.983 701.667 213.577C702.074 213.171 702.397 212.689 702.618 212.158C702.838 211.627 702.952 211.057 702.952 210.482V204.652C702.952 203.489 702.49 202.374 701.668 201.552C700.846 200.73 699.731 200.269 698.568 200.269Z" stroke="#FBFAFF" stroke-width="1.16689" stroke-linecap="round" stroke-linejoin="round"/>
<path d="M751.933 224.203H726.608C725.445 224.203 724.33 224.664 723.508 225.486C722.686 226.308 722.225 227.423 722.225 228.586V234.416C722.225 234.991 722.338 235.561 722.559 236.092C722.779 236.623 723.102 237.105 723.509 237.511C723.916 237.917 724.4 238.238 724.932 238.457C725.463 238.676 726.033 238.787 726.608 238.786H735.987L739.271 244.463L742.555 238.786H751.933C752.509 238.787 753.079 238.676 753.612 238.457C754.144 238.239 754.629 237.917 755.037 237.512C755.445 237.106 755.77 236.624 755.992 236.093C756.214 235.562 756.329 234.992 756.331 234.416V228.586C756.327 227.422 755.862 226.307 755.038 225.486C754.214 224.664 753.097 224.203 751.933 224.203Z" fill="#004EFF"/>
<mask id="mask3_2049_823" style="mask-type:luminance" maskUnits="userSpaceOnUse" x="722" y="224" width="35" height="21">
<path d="M751.933 224.203H726.608C725.445 224.203 724.33 224.664 723.508 225.486C722.686 226.308 722.225 227.423 722.225 228.586V234.416C722.225 234.991 722.338 235.561 722.559 236.092C722.779 236.623 723.102 237.105 723.509 237.511C723.916 237.917 724.4 238.238 724.932 238.457C725.463 238.676 726.033 238.787 726.608 238.786H735.987L739.271 244.463L742.555 238.786H751.933C752.509 238.787 753.079 238.676 753.612 238.457C754.144 238.239 754.629 237.917 755.037 237.512C755.445 237.106 755.77 236.624 755.992 236.093C756.214 235.562 756.329 234.992 756.331 234.416V228.586C756.327 227.422 755.862 226.307 755.038 225.486C754.214 224.664 753.097 224.203 751.933 224.203Z" fill="white"/>
</mask>
<g mask="url(#mask3_2049_823)">
<path opacity="0.5" d="M751.933 224.203H726.608C725.445 224.203 724.33 224.664 723.508 225.486C722.686 226.308 722.225 227.423 722.225 228.586V234.416C722.225 234.991 722.338 235.561 722.559 236.092C722.779 236.623 723.102 237.105 723.509 237.511C723.916 237.917 724.4 238.238 724.932 238.457C725.463 238.676 726.033 238.787 726.608 238.786H735.987L739.271 244.463L742.555 238.786H751.933C752.509 238.787 753.079 238.676 753.612 238.457C754.144 238.239 754.629 237.917 755.037 237.512C755.445 237.106 755.77 236.624 755.992 236.093C756.214 235.562 756.329 234.992 756.331 234.416V228.586C756.327 227.422 755.862 226.307 755.038 225.486C754.214 224.664 753.097 224.203 751.933 224.203Z" fill="#FBFAFF"/>
</g>
<path d="M751.933 224.203H726.608C725.445 224.203 724.33 224.664 723.508 225.486C722.686 226.308 722.225 227.423 722.225 228.586V234.416C722.225 234.991 722.338 235.561 722.559 236.092C722.779 236.623 723.102 237.105 723.509 237.511C723.916 237.917 724.4 238.238 724.932 238.457C725.463 238.676 726.033 238.787 726.608 238.786H735.987L739.271 244.463L742.555 238.786H751.933C752.509 238.787 753.079 238.676 753.612 238.457C754.144 238.239 754.629 237.917 755.037 237.512C755.445 237.106 755.77 236.624 755.992 236.093C756.214 235.562 756.329 234.992 756.331 234.416V228.586C756.327 227.422 755.862 226.307 755.038 225.486C754.214 224.664 753.097 224.203 751.933 224.203Z" stroke="#FBFAFF" stroke-width="1.16689" stroke-linecap="round" stroke-linejoin="round"/>
<path d="M554.464 191.975H612.142" stroke="#FBFAFF" stroke-width="1.0631" stroke-miterlimit="10"/>
<path d="M554.464 198.14H612.142" stroke="#FBFAFF" stroke-width="1.0631" stroke-miterlimit="10"/>
<path d="M554.464 204.318H612.142" stroke="#FBFAFF" stroke-width="1.0631" stroke-miterlimit="10"/>
<path d="M554.464 210.482H612.142" stroke="#FBFAFF" stroke-width="1.0631" stroke-miterlimit="10"/>
<path d="M554.464 216.647H612.142" stroke="#FBFAFF" stroke-width="1.0631" stroke-miterlimit="10"/>
<path d="M103.721 466.308H274.432C280.072 466.312 285.484 464.075 289.476 460.091C293.468 456.107 295.715 450.7 295.722 445.06V265.262C295.72 262.468 295.168 259.702 294.097 257.121C293.026 254.541 291.458 252.196 289.481 250.222C287.504 248.247 285.157 246.682 282.575 245.614C279.993 244.547 277.226 243.998 274.432 244L22.2901 244C19.4961 243.998 16.7291 244.547 14.147 245.614C11.565 246.682 9.21848 248.247 7.24151 250.222C5.26453 252.196 3.69578 254.541 2.62486 257.121C1.55394 259.702 1.00183 262.468 1 265.262L1 383.736" stroke="#FBFAFF" stroke-width="1.0631" stroke-miterlimit="10"/>
<path d="M83.5721 348.85H42.9678L42.9678 407.864H83.5721V348.85Z" fill="#004EFF" stroke="#FBFAFF" stroke-width="1.16063" stroke-miterlimit="10"/>
<path opacity="0.2" d="M83.5721 348.85H42.9678L42.9678 407.864H83.5721V348.85Z" fill="black"/>
<path d="M83.5721 348.85H42.9678L42.9678 407.864H83.5721V348.85Z" stroke="#FBFAFF" stroke-width="1.16063" stroke-miterlimit="10"/>
<path d="M139.957 319.336H99.3525L99.3525 384.668H139.957V319.336Z" fill="#004EFF" stroke="#FBFAFF" stroke-width="1.16063" stroke-miterlimit="10"/>
<path opacity="0.2" d="M139.957 319.336H99.3525L99.3525 384.668H139.957V319.336Z" fill="black"/>
<path d="M139.957 319.336H99.3525L99.3525 384.668H139.957V319.336Z" stroke="#FBFAFF" stroke-width="1.16063" stroke-miterlimit="10"/>
<path d="M196.341 295.11H155.736V338.317H196.341V295.11Z" fill="#004EFF" stroke="#FBFAFF" stroke-width="1.16063" stroke-miterlimit="10"/>
<path opacity="0.2" d="M196.341 295.11H155.736V338.317H196.341V295.11Z" fill="black"/>
<path d="M196.341 295.11H155.736V338.317H196.341V295.11Z" stroke="#FBFAFF" stroke-width="1.16063" stroke-miterlimit="10"/>
<path d="M83.5721 407.85H42.9678V432.091H83.5721V407.85Z" fill="#FBFAFF" stroke="#FBFAFF" stroke-width="1.16063" stroke-linecap="round" stroke-linejoin="round"/>
<path d="M139.957 384.668H99.3525V432.091H139.957V384.668Z" fill="#FBFAFF" stroke="#FBFAFF" stroke-width="1.16063" stroke-linecap="round" stroke-linejoin="round"/>
<path d="M249.399 319.336H208.795V384.668H249.399V319.336Z" fill="#004EFF" stroke="#FBFAFF" stroke-width="1.16063" stroke-miterlimit="10"/>
<path opacity="0.2" d="M249.399 319.336H208.795V384.668H249.399V319.336Z" fill="black"/>
<path d="M249.399 319.336H208.795V384.668H249.399V319.336Z" stroke="#FBFAFF" stroke-width="1.16063" stroke-miterlimit="10"/>
<path d="M249.399 384.668H208.795V432.091H249.399V384.668Z" fill="#FBFAFF" stroke="#FBFAFF" stroke-width="1.16063" stroke-linecap="round" stroke-linejoin="round"/>
<path d="M196.341 338.303H155.736V432.091H196.341V338.303Z" fill="#FBFAFF" stroke="#FBFAFF" stroke-width="1.16063" stroke-linecap="round" stroke-linejoin="round"/>
<path d="M132.915 295.194H107.576C106.413 295.194 105.298 295.656 104.476 296.478C103.654 297.3 103.192 298.414 103.192 299.577V305.407C103.192 306.57 103.654 307.685 104.476 308.507C105.298 309.329 106.413 309.791 107.576 309.791H116.968L120.252 315.468L123.522 309.791H132.915C134.078 309.791 135.192 309.329 136.014 308.507C136.837 307.685 137.298 306.57 137.298 305.407V299.577C137.298 298.414 136.837 297.3 136.014 296.478C135.192 295.656 134.078 295.194 132.915 295.194Z" fill="#004EFF"/>
<mask id="mask4_2049_823" style="mask-type:luminance" maskUnits="userSpaceOnUse" x="103" y="295" width="35" height="21">
<path d="M132.915 295.194H107.576C106.413 295.194 105.298 295.656 104.476 296.478C103.654 297.3 103.192 298.414 103.192 299.577V305.407C103.192 306.57 103.654 307.685 104.476 308.507C105.298 309.329 106.413 309.791 107.576 309.791H116.968L120.252 315.468L123.522 309.791H132.915C134.078 309.791 135.192 309.329 136.014 308.507C136.837 307.685 137.298 306.57 137.298 305.407V299.577C137.298 298.414 136.837 297.3 136.014 296.478C135.192 295.656 134.078 295.194 132.915 295.194Z" fill="white"/>
</mask>
<g mask="url(#mask4_2049_823)">
<path opacity="0.5" d="M132.915 295.194H107.576C106.413 295.194 105.298 295.656 104.476 296.478C103.654 297.3 103.192 298.414 103.192 299.577V305.407C103.192 306.57 103.654 307.685 104.476 308.507C105.298 309.329 106.413 309.791 107.576 309.791H116.968L120.252 315.468L123.522 309.791H132.915C134.078 309.791 135.192 309.329 136.014 308.507C136.837 307.685 137.298 306.57 137.298 305.407V299.577C137.298 298.414 136.837 297.3 136.014 296.478C135.192 295.656 134.078 295.194 132.915 295.194Z" fill="#FBFAFF"/>
</g>
<path d="M132.915 295.194H107.576C106.413 295.194 105.298 295.656 104.476 296.478C103.654 297.3 103.192 298.414 103.192 299.577V305.407C103.192 306.57 103.654 307.685 104.476 308.507C105.298 309.329 106.413 309.791 107.576 309.791H116.968L120.252 315.468L123.522 309.791H132.915C134.078 309.791 135.192 309.329 136.014 308.507C136.837 307.685 137.298 306.57 137.298 305.407V299.577C137.298 298.414 136.837 297.3 136.014 296.478C135.192 295.656 134.078 295.194 132.915 295.194Z" stroke="#FBFAFF" stroke-width="1.16689" stroke-linecap="round" stroke-linejoin="round"/>
<path d="M75.9334 325.459H50.6079C49.4478 325.459 48.335 325.919 47.5134 326.738C46.6917 327.557 46.2283 328.668 46.2246 329.828V335.673C46.2283 336.833 46.6917 337.944 47.5134 338.763C48.335 339.582 49.4478 340.042 50.6079 340.042H59.9866L63.2706 345.719L66.5546 340.042H75.9334C77.0935 340.042 78.2063 339.582 79.0279 338.763C79.8495 337.944 80.313 336.833 80.3167 335.673V329.828C80.313 328.668 79.8495 327.557 79.0279 326.738C78.2063 325.919 77.0935 325.459 75.9334 325.459Z" fill="#004EFF"/>
<mask id="mask5_2049_823" style="mask-type:luminance" maskUnits="userSpaceOnUse" x="46" y="325" width="35" height="21">
<path d="M75.9334 325.459H50.6079C49.4478 325.459 48.335 325.919 47.5134 326.738C46.6917 327.557 46.2283 328.668 46.2246 329.828V335.673C46.2283 336.833 46.6917 337.944 47.5134 338.763C48.335 339.582 49.4478 340.042 50.6079 340.042H59.9866L63.2706 345.719L66.5546 340.042H75.9334C77.0935 340.042 78.2063 339.582 79.0279 338.763C79.8495 337.944 80.313 336.833 80.3167 335.673V329.828C80.313 328.668 79.8495 327.557 79.0279 326.738C78.2063 325.919 77.0935 325.459 75.9334 325.459Z" fill="white"/>
</mask>
<g mask="url(#mask5_2049_823)">
<path opacity="0.5" d="M75.9334 325.459H50.6079C49.4478 325.459 48.335 325.919 47.5134 326.738C46.6917 327.557 46.2283 328.668 46.2246 329.828V335.673C46.2283 336.833 46.6917 337.944 47.5134 338.763C48.335 339.582 49.4478 340.042 50.6079 340.042H59.9866L63.2706 345.719L66.5546 340.042H75.9334C77.0935 340.042 78.2063 339.582 79.0279 338.763C79.8495 337.944 80.313 336.833 80.3167 335.673V329.828C80.313 328.668 79.8495 327.557 79.0279 326.738C78.2063 325.919 77.0935 325.459 75.9334 325.459Z" fill="#FBFAFF"/>
</g>
<path d="M75.9334 325.459H50.6079C49.4478 325.459 48.335 325.919 47.5134 326.738C46.6917 327.557 46.2283 328.668 46.2246 329.828V335.673C46.2283 336.833 46.6917 337.944 47.5134 338.763C48.335 339.582 49.4478 340.042 50.6079 340.042H59.9866L63.2706 345.719L66.5546 340.042H75.9334C77.0935 340.042 78.2063 339.582 79.0279 338.763C79.8495 337.944 80.313 336.833 80.3167 335.673V329.828C80.313 328.668 79.8495 327.557 79.0279 326.738C78.2063 325.919 77.0935 325.459 75.9334 325.459Z" stroke="#FBFAFF" stroke-width="1.16689" stroke-linecap="round" stroke-linejoin="round"/>
<path d="M188.45 270.884H163.111C161.948 270.884 160.833 271.346 160.011 272.168C159.189 272.99 158.728 274.105 158.728 275.267V281.098C158.728 281.673 158.841 282.242 159.061 282.773C159.282 283.304 159.605 283.786 160.012 284.192C160.419 284.598 160.903 284.92 161.434 285.138C161.966 285.357 162.536 285.469 163.111 285.467H172.503L175.774 291.144L179.058 285.467H188.45C189.025 285.469 189.595 285.357 190.127 285.138C190.658 284.92 191.142 284.598 191.549 284.192C191.956 283.786 192.279 283.304 192.5 282.773C192.72 282.242 192.833 281.673 192.833 281.098V275.267C192.833 274.105 192.372 272.99 191.55 272.168C190.728 271.346 189.613 270.884 188.45 270.884Z" fill="#004EFF"/>
<mask id="mask6_2049_823" style="mask-type:luminance" maskUnits="userSpaceOnUse" x="158" y="270" width="35" height="22">
<path d="M188.45 270.884H163.111C161.948 270.884 160.833 271.346 160.011 272.168C159.189 272.99 158.728 274.105 158.728 275.267V281.098C158.728 281.673 158.841 282.242 159.061 282.773C159.282 283.304 159.605 283.786 160.012 284.192C160.419 284.598 160.903 284.92 161.434 285.138C161.966 285.357 162.536 285.469 163.111 285.467H172.503L175.774 291.144L179.058 285.467H188.45C189.025 285.469 189.595 285.357 190.127 285.138C190.658 284.92 191.142 284.598 191.549 284.192C191.956 283.786 192.279 283.304 192.5 282.773C192.72 282.242 192.833 281.673 192.833 281.098V275.267C192.833 274.105 192.372 272.99 191.55 272.168C190.728 271.346 189.613 270.884 188.45 270.884Z" fill="white"/>
</mask>
<g mask="url(#mask6_2049_823)">
<path opacity="0.5" d="M188.45 270.884H163.111C161.948 270.884 160.833 271.346 160.011 272.168C159.189 272.99 158.728 274.105 158.728 275.267V281.098C158.728 281.673 158.841 282.242 159.061 282.773C159.282 283.304 159.605 283.786 160.012 284.192C160.419 284.598 160.903 284.92 161.434 285.138C161.966 285.357 162.536 285.469 163.111 285.467H172.503L175.774 291.144L179.058 285.467H188.45C189.025 285.469 189.595 285.357 190.127 285.138C190.658 284.92 191.142 284.598 191.549 284.192C191.956 283.786 192.279 283.304 192.5 282.773C192.72 282.242 192.833 281.673 192.833 281.098V275.267C192.833 274.105 192.372 272.99 191.55 272.168C190.728 271.346 189.613 270.884 188.45 270.884Z" fill="#FBFAFF"/>
</g>
<path d="M188.45 270.884H163.111C161.948 270.884 160.833 271.346 160.011 272.168C159.189 272.99 158.728 274.105 158.728 275.267V281.098C158.728 281.673 158.841 282.242 159.061 282.773C159.282 283.304 159.605 283.786 160.012 284.192C160.419 284.598 160.903 284.92 161.434 285.138C161.966 285.357 162.536 285.469 163.111 285.467H172.503L175.774 291.144L179.058 285.467H188.45C189.025 285.469 189.595 285.357 190.127 285.138C190.658 284.92 191.142 284.598 191.549 284.192C191.956 283.786 192.279 283.304 192.5 282.773C192.72 282.242 192.833 281.673 192.833 281.098V275.267C192.833 274.105 192.372 272.99 191.55 272.168C190.728 271.346 189.613 270.884 188.45 270.884Z" stroke="#FBFAFF" stroke-width="1.16689" stroke-linecap="round" stroke-linejoin="round"/>
<path d="M241.815 294.818H216.49C215.327 294.818 214.212 295.28 213.39 296.102C212.568 296.924 212.106 298.039 212.106 299.201V305.032C212.106 305.607 212.22 306.176 212.44 306.707C212.661 307.238 212.984 307.72 213.391 308.126C213.798 308.532 214.282 308.854 214.813 309.072C215.345 309.291 215.915 309.403 216.49 309.401H225.869L229.152 315.078L232.436 309.401H241.815C242.391 309.403 242.961 309.291 243.494 309.073C244.026 308.854 244.51 308.533 244.919 308.127C245.327 307.721 245.651 307.239 245.873 306.708C246.095 306.177 246.211 305.607 246.212 305.032V299.201C246.209 298.037 245.744 296.923 244.92 296.101C244.095 295.279 242.979 294.818 241.815 294.818Z" fill="#004EFF"/>
<mask id="mask7_2049_823" style="mask-type:luminance" maskUnits="userSpaceOnUse" x="212" y="294" width="35" height="22">
<path d="M241.815 294.818H216.49C215.327 294.818 214.212 295.28 213.39 296.102C212.568 296.924 212.106 298.039 212.106 299.201V305.032C212.106 305.607 212.22 306.176 212.44 306.707C212.661 307.238 212.984 307.72 213.391 308.126C213.798 308.532 214.282 308.854 214.813 309.072C215.345 309.291 215.915 309.403 216.49 309.401H225.869L229.152 315.078L232.436 309.401H241.815C242.391 309.403 242.961 309.291 243.494 309.073C244.026 308.854 244.51 308.533 244.919 308.127C245.327 307.721 245.651 307.239 245.873 306.708C246.095 306.177 246.211 305.607 246.212 305.032V299.201C246.209 298.037 245.744 296.923 244.92 296.101C244.095 295.279 242.979 294.818 241.815 294.818Z" fill="white"/>
</mask>
<g mask="url(#mask7_2049_823)">
<path opacity="0.5" d="M241.815 294.818H216.49C215.327 294.818 214.212 295.28 213.39 296.102C212.568 296.924 212.106 298.039 212.106 299.201V305.032C212.106 305.607 212.22 306.176 212.44 306.707C212.661 307.238 212.984 307.72 213.391 308.126C213.798 308.532 214.282 308.854 214.813 309.072C215.345 309.291 215.915 309.403 216.49 309.401H225.869L229.152 315.078L232.436 309.401H241.815C242.391 309.403 242.961 309.291 243.494 309.073C244.026 308.854 244.51 308.533 244.919 308.127C245.327 307.721 245.651 307.239 245.873 306.708C246.095 306.177 246.211 305.607 246.212 305.032V299.201C246.209 298.037 245.744 296.923 244.92 296.101C244.095 295.279 242.979 294.818 241.815 294.818Z" fill="#FBFAFF"/>
</g>
<path d="M241.815 294.818H216.49C215.327 294.818 214.212 295.28 213.39 296.102C212.568 296.924 212.106 298.039 212.106 299.201V305.032C212.106 305.607 212.22 306.176 212.44 306.707C212.661 307.238 212.984 307.72 213.391 308.126C213.798 308.532 214.282 308.854 214.813 309.072C215.345 309.291 215.915 309.403 216.49 309.401H225.869L229.152 315.078L232.436 309.401H241.815C242.391 309.403 242.961 309.291 243.494 309.073C244.026 308.854 244.51 308.533 244.919 308.127C245.327 307.721 245.651 307.239 245.873 306.708C246.095 306.177 246.211 305.607 246.212 305.032V299.201C246.209 298.037 245.744 296.923 244.92 296.101C244.095 295.279 242.979 294.818 241.815 294.818Z" stroke="#FBFAFF" stroke-width="1.16689" stroke-linecap="round" stroke-linejoin="round"/>
<path d="M44.3457 262.591H102.024" stroke="#FBFAFF" stroke-width="1.0631" stroke-miterlimit="10"/>
<path d="M44.3457 268.755H102.024" stroke="#FBFAFF" stroke-width="1.0631" stroke-miterlimit="10"/>
<path d="M44.3457 274.933H102.024" stroke="#FBFAFF" stroke-width="1.0631" stroke-miterlimit="10"/>
<path d="M44.3457 281.098H102.024" stroke="#FBFAFF" stroke-width="1.0631" stroke-miterlimit="10"/>
<path d="M44.3457 287.262H102.024" stroke="#FBFAFF" stroke-width="1.0631" stroke-miterlimit="10"/>
<path d="M407.721 901.588H578.432C584.072 901.592 589.484 899.356 593.476 895.371C597.468 891.387 599.715 885.98 599.722 880.34V700.542C599.72 697.748 599.168 694.982 598.097 692.401C597.026 689.821 595.458 687.476 593.481 685.502C591.504 683.528 589.157 681.962 586.575 680.894C583.993 679.827 581.226 679.278 578.432 679.28H326.29C323.496 679.278 320.729 679.827 318.147 680.894C315.565 681.962 313.218 683.528 311.242 685.502C309.265 687.476 307.696 689.821 306.625 692.401C305.554 694.982 305.002 697.748 305 700.542V819.016" stroke="#FBFAFF" stroke-width="1.0631" stroke-miterlimit="10"/>
<path d="M387.572 784.131H346.968V843.145H387.572V784.131Z" fill="#004EFF" stroke="#FBFAFF" stroke-width="1.16063" stroke-miterlimit="10"/>
<path opacity="0.2" d="M387.572 784.131H346.968V843.145H387.572V784.131Z" fill="black"/>
<path d="M387.572 784.131H346.968V843.145H387.572V784.131Z" stroke="#FBFAFF" stroke-width="1.16063" stroke-miterlimit="10"/>
<path d="M443.957 754.617H403.353V819.948H443.957V754.617Z" fill="#004EFF" stroke="#FBFAFF" stroke-width="1.16063" stroke-miterlimit="10"/>
<path opacity="0.2" d="M443.957 754.617H403.353V819.948H443.957V754.617Z" fill="black"/>
<path d="M443.957 754.617H403.353V819.948H443.957V754.617Z" stroke="#FBFAFF" stroke-width="1.16063" stroke-miterlimit="10"/>
<path d="M500.341 730.39H459.736V773.597H500.341V730.39Z" fill="#004EFF" stroke="#FBFAFF" stroke-width="1.16063" stroke-miterlimit="10"/>
<path opacity="0.2" d="M500.341 730.39H459.736V773.597H500.341V730.39Z" fill="black"/>
<path d="M500.341 730.39H459.736V773.597H500.341V730.39Z" stroke="#FBFAFF" stroke-width="1.16063" stroke-miterlimit="10"/>
<path d="M387.572 843.131H346.968V867.371H387.572V843.131Z" fill="#FBFAFF" stroke="#FBFAFF" stroke-width="1.16063" stroke-linecap="round" stroke-linejoin="round"/>
<path d="M443.957 819.948H403.353V867.371H443.957V819.948Z" fill="#FBFAFF" stroke="#FBFAFF" stroke-width="1.16063" stroke-linecap="round" stroke-linejoin="round"/>
<path d="M553.399 754.617H512.795V819.948H553.399V754.617Z" fill="#004EFF" stroke="#FBFAFF" stroke-width="1.16063" stroke-miterlimit="10"/>
<path opacity="0.2" d="M553.399 754.617H512.795V819.948H553.399V754.617Z" fill="black"/>
<path d="M553.399 754.617H512.795V819.948H553.399V754.617Z" stroke="#FBFAFF" stroke-width="1.16063" stroke-miterlimit="10"/>
<path d="M553.399 819.948H512.795V867.371H553.399V819.948Z" fill="#FBFAFF" stroke="#FBFAFF" stroke-width="1.16063" stroke-linecap="round" stroke-linejoin="round"/>
<path d="M500.341 773.583H459.736V867.371H500.341V773.583Z" fill="#FBFAFF" stroke="#FBFAFF" stroke-width="1.16063" stroke-linecap="round" stroke-linejoin="round"/>
<path d="M436.915 730.474H411.576C410.413 730.474 409.298 730.936 408.476 731.758C407.654 732.58 407.192 733.695 407.192 734.857V740.688C407.192 741.85 407.654 742.965 408.476 743.787C409.298 744.609 410.413 745.071 411.576 745.071H420.968L424.252 750.748L427.522 745.071H436.915C438.078 745.071 439.192 744.609 440.014 743.787C440.837 742.965 441.298 741.85 441.298 740.688V734.857C441.298 733.695 440.837 732.58 440.014 731.758C439.192 730.936 438.078 730.474 436.915 730.474Z" fill="#004EFF"/>
<mask id="mask8_2049_823" style="mask-type:luminance" maskUnits="userSpaceOnUse" x="407" y="730" width="35" height="21">
<path d="M436.915 730.474H411.576C410.413 730.474 409.298 730.936 408.476 731.758C407.654 732.58 407.192 733.695 407.192 734.857V740.688C407.192 741.85 407.654 742.965 408.476 743.787C409.298 744.609 410.413 745.071 411.576 745.071H420.968L424.252 750.748L427.522 745.071H436.915C438.078 745.071 439.192 744.609 440.014 743.787C440.837 742.965 441.298 741.85 441.298 740.688V734.857C441.298 733.695 440.837 732.58 440.014 731.758C439.192 730.936 438.078 730.474 436.915 730.474Z" fill="white"/>
</mask>
<g mask="url(#mask8_2049_823)">
<path opacity="0.5" d="M436.915 730.474H411.576C410.413 730.474 409.298 730.936 408.476 731.758C407.654 732.58 407.192 733.695 407.192 734.857V740.688C407.192 741.85 407.654 742.965 408.476 743.787C409.298 744.609 410.413 745.071 411.576 745.071H420.968L424.252 750.748L427.522 745.071H436.915C438.078 745.071 439.192 744.609 440.014 743.787C440.837 742.965 441.298 741.85 441.298 740.688V734.857C441.298 733.695 440.837 732.58 440.014 731.758C439.192 730.936 438.078 730.474 436.915 730.474Z" fill="#FBFAFF"/>
</g>
<path d="M436.915 730.474H411.576C410.413 730.474 409.298 730.936 408.476 731.758C407.654 732.58 407.192 733.695 407.192 734.857V740.688C407.192 741.85 407.654 742.965 408.476 743.787C409.298 744.609 410.413 745.071 411.576 745.071H420.968L424.252 750.748L427.522 745.071H436.915C438.078 745.071 439.192 744.609 440.014 743.787C440.837 742.965 441.298 741.85 441.298 740.688V734.857C441.298 733.695 440.837 732.58 440.014 731.758C439.192 730.936 438.078 730.474 436.915 730.474Z" stroke="#FBFAFF" stroke-width="1.16689" stroke-linecap="round" stroke-linejoin="round"/>
<path d="M379.933 760.739H354.608C353.448 760.739 352.335 761.199 351.513 762.018C350.692 762.837 350.228 763.948 350.225 765.109V770.953C350.228 772.113 350.692 773.224 351.513 774.043C352.335 774.862 353.448 775.322 354.608 775.322H363.987L367.271 781L370.555 775.322H379.933C381.094 775.322 382.206 774.862 383.028 774.043C383.85 773.224 384.313 772.113 384.317 770.953V765.109C384.313 763.948 383.85 762.837 383.028 762.018C382.206 761.199 381.094 760.739 379.933 760.739Z" fill="#004EFF"/>
<mask id="mask9_2049_823" style="mask-type:luminance" maskUnits="userSpaceOnUse" x="350" y="760" width="35" height="21">
<path d="M379.933 760.739H354.608C353.448 760.739 352.335 761.199 351.513 762.018C350.692 762.837 350.228 763.948 350.225 765.109V770.953C350.228 772.113 350.692 773.224 351.513 774.043C352.335 774.862 353.448 775.322 354.608 775.322H363.987L367.271 781L370.555 775.322H379.933C381.094 775.322 382.206 774.862 383.028 774.043C383.85 773.224 384.313 772.113 384.317 770.953V765.109C384.313 763.948 383.85 762.837 383.028 762.018C382.206 761.199 381.094 760.739 379.933 760.739Z" fill="white"/>
</mask>
<g mask="url(#mask9_2049_823)">
<path opacity="0.5" d="M379.933 760.739H354.608C353.448 760.739 352.335 761.199 351.513 762.018C350.692 762.837 350.228 763.948 350.225 765.109V770.953C350.228 772.113 350.692 773.224 351.513 774.043C352.335 774.862 353.448 775.322 354.608 775.322H363.987L367.271 781L370.555 775.322H379.933C381.094 775.322 382.206 774.862 383.028 774.043C383.85 773.224 384.313 772.113 384.317 770.953V765.109C384.313 763.948 383.85 762.837 383.028 762.018C382.206 761.199 381.094 760.739 379.933 760.739Z" fill="#FBFAFF"/>
</g>
<path d="M379.933 760.739H354.608C353.448 760.739 352.335 761.199 351.513 762.018C350.692 762.837 350.228 763.948 350.225 765.109V770.953C350.228 772.113 350.692 773.224 351.513 774.043C352.335 774.862 353.448 775.322 354.608 775.322H363.987L367.271 781L370.555 775.322H379.933C381.094 775.322 382.206 774.862 383.028 774.043C383.85 773.224 384.313 772.113 384.317 770.953V765.109C384.313 763.948 383.85 762.837 383.028 762.018C382.206 761.199 381.094 760.739 379.933 760.739Z" stroke="#FBFAFF" stroke-width="1.16689" stroke-linecap="round" stroke-linejoin="round"/>
<path d="M492.45 706.164H467.111C465.948 706.164 464.833 706.626 464.011 707.448C463.189 708.27 462.728 709.385 462.728 710.547V716.378C462.728 716.953 462.841 717.522 463.061 718.053C463.282 718.584 463.605 719.066 464.012 719.472C464.419 719.878 464.903 720.2 465.434 720.419C465.966 720.637 466.536 720.749 467.111 720.747H476.503L479.774 726.425L483.058 720.747H492.45C493.025 720.749 493.595 720.637 494.127 720.419C494.658 720.2 495.142 719.878 495.549 719.472C495.956 719.066 496.279 718.584 496.5 718.053C496.72 717.522 496.833 716.953 496.833 716.378V710.547C496.833 709.385 496.372 708.27 495.55 707.448C494.728 706.626 493.613 706.164 492.45 706.164Z" fill="#004EFF"/>
<mask id="mask10_2049_823" style="mask-type:luminance" maskUnits="userSpaceOnUse" x="462" y="706" width="35" height="21">
<path d="M492.45 706.164H467.111C465.948 706.164 464.833 706.626 464.011 707.448C463.189 708.27 462.728 709.385 462.728 710.547V716.378C462.728 716.953 462.841 717.522 463.061 718.053C463.282 718.584 463.605 719.066 464.012 719.472C464.419 719.878 464.903 720.2 465.434 720.419C465.966 720.637 466.536 720.749 467.111 720.747H476.503L479.774 726.425L483.058 720.747H492.45C493.025 720.749 493.595 720.637 494.127 720.419C494.658 720.2 495.142 719.878 495.549 719.472C495.956 719.066 496.279 718.584 496.5 718.053C496.72 717.522 496.833 716.953 496.833 716.378V710.547C496.833 709.385 496.372 708.27 495.55 707.448C494.728 706.626 493.613 706.164 492.45 706.164Z" fill="white"/>
</mask>
<g mask="url(#mask10_2049_823)">
<path opacity="0.5" d="M492.45 706.164H467.111C465.948 706.164 464.833 706.626 464.011 707.448C463.189 708.27 462.728 709.385 462.728 710.547V716.378C462.728 716.953 462.841 717.522 463.061 718.053C463.282 718.584 463.605 719.066 464.012 719.472C464.419 719.878 464.903 720.2 465.434 720.419C465.966 720.637 466.536 720.749 467.111 720.747H476.503L479.774 726.425L483.058 720.747H492.45C493.025 720.749 493.595 720.637 494.127 720.419C494.658 720.2 495.142 719.878 495.549 719.472C495.956 719.066 496.279 718.584 496.5 718.053C496.72 717.522 496.833 716.953 496.833 716.378V710.547C496.833 709.385 496.372 708.27 495.55 707.448C494.728 706.626 493.613 706.164 492.45 706.164Z" fill="#FBFAFF"/>
</g>
<path d="M492.45 706.164H467.111C465.948 706.164 464.833 706.626 464.011 707.448C463.189 708.27 462.728 709.385 462.728 710.547V716.378C462.728 716.953 462.841 717.522 463.061 718.053C463.282 718.584 463.605 719.066 464.012 719.472C464.419 719.878 464.903 720.2 465.434 720.419C465.966 720.637 466.536 720.749 467.111 720.747H476.503L479.774 726.425L483.058 720.747H492.45C493.025 720.749 493.595 720.637 494.127 720.419C494.658 720.2 495.142 719.878 495.549 719.472C495.956 719.066 496.279 718.584 496.5 718.053C496.72 717.522 496.833 716.953 496.833 716.378V710.547C496.833 709.385 496.372 708.27 495.55 707.448C494.728 706.626 493.613 706.164 492.45 706.164Z" stroke="#FBFAFF" stroke-width="1.16689" stroke-linecap="round" stroke-linejoin="round"/>
<path d="M545.815 730.098H520.49C519.327 730.098 518.212 730.56 517.39 731.382C516.568 732.204 516.106 733.319 516.106 734.481V740.312C516.106 740.887 516.22 741.456 516.44 741.987C516.661 742.518 516.984 743 517.391 743.406C517.798 743.812 518.282 744.134 518.813 744.353C519.345 744.571 519.915 744.683 520.49 744.681H529.869L533.152 750.359L536.436 744.681H545.815C546.391 744.683 546.961 744.571 547.494 744.353C548.026 744.134 548.51 743.813 548.919 743.407C549.327 743.001 549.651 742.519 549.873 741.988C550.095 741.457 550.211 740.887 550.212 740.312V734.481C550.209 733.318 549.744 732.203 548.92 731.381C548.095 730.559 546.979 730.098 545.815 730.098Z" fill="#004EFF"/>
<mask id="mask11_2049_823" style="mask-type:luminance" maskUnits="userSpaceOnUse" x="516" y="730" width="35" height="21">
<path d="M545.815 730.098H520.49C519.327 730.098 518.212 730.56 517.39 731.382C516.568 732.204 516.106 733.319 516.106 734.481V740.312C516.106 740.887 516.22 741.456 516.44 741.987C516.661 742.518 516.984 743 517.391 743.406C517.798 743.812 518.282 744.134 518.813 744.353C519.345 744.571 519.915 744.683 520.49 744.681H529.869L533.152 750.359L536.436 744.681H545.815C546.391 744.683 546.961 744.571 547.494 744.353C548.026 744.134 548.51 743.813 548.919 743.407C549.327 743.001 549.651 742.519 549.873 741.988C550.095 741.457 550.211 740.887 550.212 740.312V734.481C550.209 733.318 549.744 732.203 548.92 731.381C548.095 730.559 546.979 730.098 545.815 730.098Z" fill="white"/>
</mask>
<g mask="url(#mask11_2049_823)">
<path opacity="0.5" d="M545.815 730.098H520.49C519.327 730.098 518.212 730.56 517.39 731.382C516.568 732.204 516.106 733.319 516.106 734.481V740.312C516.106 740.887 516.22 741.456 516.44 741.987C516.661 742.518 516.984 743 517.391 743.406C517.798 743.812 518.282 744.134 518.813 744.353C519.345 744.571 519.915 744.683 520.49 744.681H529.869L533.152 750.359L536.436 744.681H545.815C546.391 744.683 546.961 744.571 547.494 744.353C548.026 744.134 548.51 743.813 548.919 743.407C549.327 743.001 549.651 742.519 549.873 741.988C550.095 741.457 550.211 740.887 550.212 740.312V734.481C550.209 733.318 549.744 732.203 548.92 731.381C548.095 730.559 546.979 730.098 545.815 730.098Z" fill="#FBFAFF"/>
</g>
<path d="M545.815 730.098H520.49C519.327 730.098 518.212 730.56 517.39 731.382C516.568 732.204 516.106 733.319 516.106 734.481V740.312C516.106 740.887 516.22 741.456 516.44 741.987C516.661 742.518 516.984 743 517.391 743.406C517.798 743.812 518.282 744.134 518.813 744.353C519.345 744.571 519.915 744.683 520.49 744.681H529.869L533.152 750.359L536.436 744.681H545.815C546.391 744.683 546.961 744.571 547.494 744.353C548.026 744.134 548.51 743.813 548.919 743.407C549.327 743.001 549.651 742.519 549.873 741.988C550.095 741.457 550.211 740.887 550.212 740.312V734.481C550.209 733.318 549.744 732.203 548.92 731.381C548.095 730.559 546.979 730.098 545.815 730.098Z" stroke="#FBFAFF" stroke-width="1.16689" stroke-linecap="round" stroke-linejoin="round"/>
<path d="M348.346 697.871H406.024" stroke="#FBFAFF" stroke-width="1.0631" stroke-miterlimit="10"/>
<path d="M348.346 704.035H406.024" stroke="#FBFAFF" stroke-width="1.0631" stroke-miterlimit="10"/>
<path d="M348.346 710.213H406.024" stroke="#FBFAFF" stroke-width="1.0631" stroke-miterlimit="10"/>
<path d="M348.346 716.378H406.024" stroke="#FBFAFF" stroke-width="1.0631" stroke-miterlimit="10"/>
<path d="M348.346 722.542H406.024" stroke="#FBFAFF" stroke-width="1.0631" stroke-miterlimit="10"/>
</svg>
