<svg width="477" height="342" viewBox="0 0 477 342" fill="none" xmlns="http://www.w3.org/2000/svg">
<path d="M241.162 16.7401H206.339V24.7514H241.162V16.7401Z" fill="#004EFF"/>
<path d="M229.218 28.3148H206.339V36.3261H229.218V28.3148Z" fill="#004EFF"/>
<path d="M219.513 39.8894H206.339V47.9008H219.513V39.8894Z" fill="#004EFF"/>
<g opacity="0.2">
<path d="M241.162 16.7401H206.339V24.7514H241.162V16.7401Z" fill="black"/>
<path d="M229.218 28.3148H206.339V36.3261H229.218V28.3148Z" fill="black"/>
<path d="M219.513 39.8894H206.339V47.9008H219.513V39.8894Z" fill="black"/>
</g>
<path d="M145.869 105.455V129.575H157.678V105.455H145.869Z" fill="#004EFF"/>
<path d="M162.93 113.736V129.575H174.738V113.736H162.93Z" fill="#004EFF"/>
<path d="M179.979 120.445V129.562H191.787V120.445H179.979Z" fill="#004EFF"/>
<g opacity="0.2">
<path d="M145.869 105.455V129.575H157.678V105.455H145.869Z" fill="black"/>
<path d="M162.93 113.736V129.575H174.738V113.736H162.93Z" fill="black"/>
<path d="M179.979 120.445V129.562H191.787V120.445H179.979Z" fill="black"/>
</g>
<path d="M143.225 147.17H286.218C288.091 147.173 289.946 146.808 291.677 146.094C293.408 145.38 294.981 144.333 296.306 143.011C297.632 141.69 298.683 140.12 299.4 138.392C300.118 136.664 300.487 134.812 300.487 132.941V15.2288C300.487 13.3581 300.118 11.5059 299.4 9.77797C298.683 8.05005 297.632 6.4804 296.306 5.15882C294.981 3.83724 293.408 2.78967 291.677 2.07605C289.946 1.36244 288.091 0.99679 286.218 1.00002H143.225C141.352 0.998407 139.498 1.36517 137.768 2.07935C136.038 2.79354 134.465 3.84117 133.14 5.16243C131.815 6.48369 130.764 8.05271 130.046 9.77989C129.328 11.5071 128.958 13.3586 128.956 15.2288V132.941C128.958 134.812 129.328 136.663 130.046 138.39C130.764 140.117 131.815 141.686 133.14 143.008C134.465 144.329 136.038 145.377 137.768 146.091C139.498 146.805 141.352 147.172 143.225 147.17Z" stroke="#FBFAFF" stroke-width="1.0631" stroke-miterlimit="10"/>
<path d="M233.388 106.757H284.373" stroke="#FBFAFF" stroke-width="1.0631" stroke-miterlimit="10"/>
<path d="M233.388 112.2H284.373" stroke="#FBFAFF" stroke-width="1.0631" stroke-miterlimit="10"/>
<path d="M233.388 117.644H284.373" stroke="#FBFAFF" stroke-width="1.0631" stroke-miterlimit="10"/>
<path d="M233.388 123.099H284.373" stroke="#FBFAFF" stroke-width="1.0631" stroke-miterlimit="10"/>
<path d="M233.388 128.543H284.373" stroke="#FBFAFF" stroke-width="1.0631" stroke-miterlimit="10"/>
<path d="M144.307 17.932H195.292" stroke="#FBFAFF" stroke-width="1.0631" stroke-miterlimit="10"/>
<path d="M144.307 23.3753H195.292" stroke="#FBFAFF" stroke-width="1.0631" stroke-miterlimit="10"/>
<path d="M144.307 28.8185H195.292" stroke="#FBFAFF" stroke-width="1.0631" stroke-miterlimit="10"/>
<path d="M144.307 34.2618H195.292" stroke="#FBFAFF" stroke-width="1.0631" stroke-miterlimit="10"/>
<path d="M144.307 39.7174H195.292" stroke="#FBFAFF" stroke-width="1.0631" stroke-miterlimit="10"/>
<path d="M277.989 60.741L287.706 65.8403L286.612 38.4641L263.388 53.0983L273.106 58.1853L265.799 72.0823C264.507 72.0874 263.253 72.5194 262.232 73.311L249.366 67.3393C249.366 65.7686 248.741 64.2622 247.629 63.1515C246.517 62.0408 245.009 61.4169 243.437 61.4169C241.864 61.4169 240.356 62.0408 239.244 63.1515C238.132 64.2622 237.508 65.7686 237.508 67.3393C237.507 68.1881 237.692 69.0267 238.049 69.7968L221.185 88.0558C220.648 87.8835 220.088 87.7924 219.524 87.7855C219.24 87.7952 218.956 87.824 218.676 87.8715L194.431 57.2637C194.78 56.4917 194.956 55.6532 194.948 54.8063C194.948 53.2355 194.323 51.7291 193.211 50.6184C192.1 49.5077 190.592 48.8838 189.019 48.8838C187.447 48.8838 185.939 49.5077 184.827 50.6184C183.715 51.7291 183.09 53.2355 183.09 54.8063C183.103 55.4162 183.207 56.0208 183.398 56.6002L155.709 84.7628C155.059 84.525 154.372 84.4003 153.68 84.3942C152.51 84.3966 151.367 84.7453 150.396 85.3962C149.425 86.0471 148.668 86.971 148.222 88.0511C147.776 89.1313 147.661 90.3193 147.891 91.4649C148.12 92.6106 148.685 93.6625 149.513 94.4879C150.341 95.3132 151.395 95.8748 152.542 96.1019C153.69 96.3289 154.879 96.2112 155.959 95.7635C157.039 95.3158 157.963 94.5583 158.612 93.5866C159.262 92.615 159.609 91.4728 159.609 90.3044C159.606 89.8146 159.54 89.3272 159.412 88.8545L187.334 60.3724C187.88 60.5438 188.447 60.6348 189.019 60.6427C189.382 60.642 189.744 60.6091 190.102 60.5444L214.223 91.0908C213.787 91.9625 213.572 92.9282 213.599 93.9025C213.626 94.8767 213.893 95.8292 214.377 96.6756C214.861 97.522 215.546 98.236 216.372 98.7544C217.198 99.2728 218.14 99.5796 219.113 99.6475C220.086 99.7154 221.061 99.5423 221.951 99.1436C222.842 98.7449 223.62 98.1329 224.216 97.3618C224.813 96.5908 225.21 95.6846 225.372 94.7235C225.534 93.7625 225.457 92.7764 225.146 91.8526L242.44 73.139C242.769 73.1972 243.103 73.2301 243.437 73.2373C244.612 73.2387 245.76 72.8877 246.733 72.2297L259.895 78.3734C259.945 79.2849 260.207 80.1724 260.658 80.9662C261.11 81.76 261.739 82.4385 262.497 82.9486C263.255 83.4586 264.121 83.7863 265.027 83.9059C265.933 84.0256 266.855 83.9339 267.719 83.6381C268.584 83.3423 269.368 82.8504 270.011 82.2011C270.653 81.5517 271.136 80.7625 271.422 79.8953C271.708 79.0282 271.789 78.1067 271.658 77.203C271.528 76.2994 271.19 75.4383 270.67 74.6872L277.989 60.741Z" fill="#FBFAFF"/>
<path d="M183.668 265.74L162.644 232.918L127.905 258.44L95.8716 195.11L11.3408 248.793V292.163H201.955V255.706L183.668 265.74Z" fill="#FBFAFF" stroke="#FBFAFF" stroke-width="1.16063" stroke-linecap="round" stroke-linejoin="round"/>
<path d="M187.322 290.345L164.479 255.706L126.086 271.208L81.2855 228.367L11.3408 256.575V319.517H201.955V280.311L187.322 290.345Z" fill="#004EFF" stroke="#FBFAFF" stroke-width="0.876601" stroke-miterlimit="10"/>
<path opacity="0.2" d="M187.322 290.345L164.479 255.706L126.086 271.208L81.2855 228.367L11.3408 256.575V319.517H201.955V280.311L187.322 290.345Z" fill="black"/>
<path d="M187.322 290.345L164.479 255.706L126.086 271.208L81.2855 228.367L11.3408 256.575V319.517H201.955V280.311L187.322 290.345Z" stroke="#FBFAFF" stroke-width="0.876601" stroke-miterlimit="10"/>
<path d="M119.648 179.048H104.3C103.362 179.041 102.448 179.352 101.709 179.93C100.971 180.508 100.449 181.319 100.231 182.231C100.013 183.142 100.11 184.101 100.508 184.951C100.905 185.8 101.578 186.49 102.419 186.908L97.0537 192.609L106.835 187.374H119.648C120.753 187.374 121.813 186.935 122.595 186.155C123.377 185.374 123.816 184.315 123.816 183.211C123.816 182.107 123.377 181.048 122.595 180.267C121.813 179.486 120.753 179.048 119.648 179.048Z" fill="#004EFF"/>
<path opacity="0.2" d="M119.648 179.048H104.3C103.362 179.041 102.448 179.352 101.709 179.93C100.971 180.508 100.449 181.319 100.231 182.231C100.013 183.142 100.11 184.101 100.508 184.951C100.905 185.8 101.578 186.49 102.419 186.908L97.0537 192.609L106.835 187.374H119.648C120.753 187.374 121.813 186.935 122.595 186.155C123.377 185.374 123.816 184.315 123.816 183.211C123.816 182.107 123.377 181.048 122.595 180.267C121.813 179.486 120.753 179.048 119.648 179.048Z" fill="black"/>
<path d="M186.871 216.111H171.523C170.584 216.104 169.671 216.415 168.932 216.993C168.193 217.571 167.672 218.382 167.454 219.294C167.236 220.205 167.333 221.164 167.73 222.014C168.127 222.863 168.801 223.553 169.641 223.971L164.276 229.718L174.057 224.468H186.871C187.976 224.468 189.036 224.029 189.818 223.248C190.599 222.468 191.038 221.409 191.038 220.305C191.038 219.201 190.599 218.142 189.818 217.361C189.036 216.58 187.976 216.142 186.871 216.142V216.111Z" fill="#004EFF"/>
<path opacity="0.2" d="M186.871 216.111H171.523C170.584 216.104 169.671 216.415 168.932 216.993C168.193 217.571 167.672 218.382 167.454 219.294C167.236 220.205 167.333 221.164 167.73 222.014C168.127 222.863 168.801 223.553 169.641 223.971L164.276 229.718L174.057 224.468H186.871C187.976 224.468 189.036 224.029 189.818 223.248C190.599 222.468 191.038 221.409 191.038 220.305C191.038 219.201 190.599 218.142 189.818 217.361C189.036 216.58 187.976 216.142 186.871 216.142V216.111Z" fill="black"/>
<path d="M19.0382 341H199.809C202.176 341.004 204.521 340.542 206.71 339.64C208.898 338.738 210.887 337.413 212.562 335.742C214.237 334.072 215.567 332.087 216.474 329.903C217.38 327.719 217.847 325.377 217.847 323.012V174.201C217.847 171.837 217.38 169.495 216.474 167.311C215.567 165.126 214.237 163.142 212.562 161.471C210.887 159.8 208.898 158.476 206.71 157.574C204.521 156.672 202.176 156.21 199.809 156.214H19.0382C16.6709 156.21 14.3259 156.672 12.1376 157.574C9.94932 158.476 7.96056 159.8 6.28515 161.471C4.60974 163.142 3.28056 165.126 2.37368 167.311C1.46679 169.495 0.999996 171.837 1 174.201V323.012C0.999996 325.377 1.46679 327.719 2.37368 329.903C3.28056 332.087 4.60974 334.072 6.28515 335.742C7.96056 337.413 9.94932 338.738 12.1376 339.64C14.3259 340.542 16.6709 341.004 19.0382 341Z" stroke="#FBFAFF" stroke-width="1.0631" stroke-miterlimit="10"/>
<path d="M14.7295 176.298H27.1852" stroke="#FBFAFF" stroke-width="1.0631" stroke-miterlimit="10"/>
<path d="M14.7295 189.844H27.1852" stroke="#FBFAFF" stroke-width="1.0631" stroke-miterlimit="10"/>
<path d="M14.7295 203.389H27.1852" stroke="#FBFAFF" stroke-width="1.0631" stroke-miterlimit="10"/>
<path d="M14.7295 216.934H27.1852" stroke="#FBFAFF" stroke-width="1.0631" stroke-miterlimit="10"/>
<path d="M14.7295 230.479H27.1852" stroke="#FBFAFF" stroke-width="1.0631" stroke-miterlimit="10"/>
<path d="M349.602 31.4112C343.196 31.4209 336.937 33.3273 331.616 36.8895C326.294 40.4517 322.149 45.5098 319.704 51.4245C317.259 57.3393 316.625 63.8452 317.881 70.1201C319.136 76.395 322.226 82.1573 326.759 86.6787C331.292 91.2001 337.065 94.2777 343.349 95.5225C349.632 96.7673 356.144 96.1235 362.062 93.6725C367.979 91.2214 373.036 87.0731 376.594 81.7518C380.152 76.4305 382.051 70.1751 382.051 63.776C382.038 55.1878 378.614 46.9558 372.53 40.8876C366.446 34.8194 358.2 31.4111 349.602 31.4112ZM349.602 86.6304C345.078 86.6134 340.66 85.2576 336.907 82.7341C333.154 80.2106 330.233 76.6327 328.514 72.4521C326.795 68.2716 326.355 63.676 327.249 59.2456C328.142 54.8153 330.331 50.7489 333.537 47.56C336.743 44.3711 340.823 42.2028 345.262 41.3288C349.701 40.4548 354.299 40.9144 358.477 42.6495C362.654 44.3846 366.224 47.3174 368.734 51.0776C371.244 54.8377 372.582 59.2565 372.58 63.776C372.573 66.7837 371.974 69.7607 370.816 72.5371C369.657 75.3134 367.963 77.8347 365.83 79.9569C363.696 82.0791 361.165 83.7608 358.38 84.9058C355.596 86.0509 352.613 86.6369 349.602 86.6304Z" fill="#004EFF" stroke="#FBFAFF" stroke-width="1.0631" stroke-miterlimit="10"/>
<g opacity="0.2">
<path d="M349.602 31.4112C343.196 31.4209 336.937 33.3273 331.616 36.8895C326.294 40.4517 322.149 45.5098 319.704 51.4245C317.259 57.3393 316.625 63.8452 317.881 70.1201C319.136 76.395 322.226 82.1573 326.759 86.6787C331.292 91.2001 337.065 94.2777 343.349 95.5225C349.632 96.7673 356.144 96.1235 362.062 93.6725C367.979 91.2214 373.036 87.0731 376.594 81.7518C380.152 76.4305 382.051 70.1751 382.051 63.776C382.038 55.1878 378.614 46.9558 372.53 40.8876C366.446 34.8194 358.2 31.4111 349.602 31.4112ZM349.602 86.6304C345.078 86.6134 340.66 85.2576 336.907 82.7341C333.154 80.2106 330.233 76.6327 328.514 72.4521C326.795 68.2716 326.355 63.676 327.249 59.2456C328.142 54.8153 330.331 50.7489 333.537 47.56C336.743 44.3711 340.823 42.2028 345.262 41.3288C349.701 40.4548 354.299 40.9144 358.477 42.6495C362.654 44.3846 366.224 47.3174 368.734 51.0776C371.244 54.8377 372.582 59.2565 372.58 63.776C372.573 66.7837 371.974 69.7607 370.816 72.5371C369.657 75.3134 367.963 77.8347 365.83 79.9569C363.696 82.0791 361.165 83.7608 358.38 84.9058C355.596 86.0509 352.613 86.6369 349.602 86.6304Z" fill="black"/>
</g>
<path d="M349.602 31.4112C343.196 31.4209 336.937 33.3273 331.616 36.8895C326.294 40.4517 322.149 45.5098 319.704 51.4245C317.259 57.3393 316.625 63.8452 317.881 70.1201C319.136 76.395 322.226 82.1573 326.759 86.6787C331.292 91.2001 337.065 94.2777 343.349 95.5225C349.632 96.7673 356.144 96.1235 362.062 93.6725C367.979 91.2214 373.036 87.0731 376.594 81.7518C380.152 76.4305 382.051 70.1751 382.051 63.776C382.038 55.1878 378.614 46.9558 372.53 40.8876C366.446 34.8194 358.2 31.4111 349.602 31.4112ZM349.602 86.6304C345.078 86.6134 340.66 85.2576 336.907 82.7341C333.154 80.2106 330.233 76.6327 328.514 72.4521C326.795 68.2716 326.355 63.676 327.249 59.2456C328.142 54.8153 330.331 50.7489 333.537 47.56C336.743 44.3711 340.823 42.2028 345.262 41.3288C349.701 40.4548 354.299 40.9144 358.477 42.6495C362.654 44.3846 366.224 47.3174 368.734 51.0776C371.244 54.8377 372.582 59.2565 372.58 63.776C372.573 66.7837 371.974 69.7607 370.816 72.5371C369.657 75.3134 367.963 77.8347 365.83 79.9569C363.696 82.0791 361.165 83.7608 358.38 84.9058C355.596 86.0509 352.613 86.6369 349.602 86.6304Z" stroke="#FBFAFF" stroke-width="1.0631" stroke-miterlimit="10"/>
<path d="M349.602 31.4112C345.224 31.3934 340.887 32.268 336.858 33.9814C332.829 35.6948 329.192 38.211 326.17 41.3762L333.046 47.9499C335.663 45.2126 338.919 43.1667 342.522 41.9954C346.125 40.8241 349.963 40.5641 353.691 41.2387C357.42 41.9132 360.922 43.5013 363.885 45.8605C366.848 48.2197 369.179 51.2764 370.669 54.7567C372.158 58.2369 372.76 62.032 372.421 65.8018C372.081 69.5716 370.811 73.1984 368.723 76.3571C366.635 79.5158 363.796 82.1078 360.459 83.9007C357.122 85.6937 353.392 86.6316 349.602 86.6304V96.1285C353.91 96.2124 358.19 95.4374 362.194 93.8489C366.197 92.2603 369.844 89.8902 372.919 86.8771C375.995 83.864 378.438 80.2685 380.106 76.3008C381.774 72.3332 382.633 68.0731 382.633 63.7698C382.633 59.4666 381.774 55.2065 380.106 51.2389C378.438 47.2712 375.995 43.6757 372.919 40.6626C369.844 37.6495 366.197 35.2794 362.194 33.6908C358.19 32.1023 353.91 31.3273 349.602 31.4112Z" fill="#FBFAFF" stroke="#FBFAFF" stroke-width="1.0631" stroke-linecap="round" stroke-linejoin="round"/>
<path d="M429.63 31.4112C423.224 31.4209 416.965 33.3273 411.643 36.8895C406.321 40.4517 402.176 45.5098 399.731 51.4245C397.287 57.3393 396.652 63.8452 397.908 70.1201C399.164 76.395 402.253 82.1573 406.786 86.6787C411.319 91.2001 417.093 94.2777 423.376 95.5225C429.66 96.7673 436.172 96.1235 442.089 93.6725C448.006 91.2214 453.064 87.0731 456.622 81.7518C460.18 76.4305 462.079 70.1751 462.079 63.776C462.066 55.1878 458.641 46.9558 452.557 40.8876C446.473 34.8194 438.227 31.4111 429.63 31.4112ZM429.63 86.6304C425.102 86.628 420.677 85.2845 416.914 82.7699C413.151 80.2552 410.219 76.6823 408.489 72.5031C406.758 68.3238 406.307 63.7258 407.193 59.2906C408.079 54.8553 410.261 50.782 413.464 47.5858C416.667 44.3895 420.747 42.2139 425.188 41.334C429.629 40.454 434.232 40.9093 438.413 42.6423C442.595 44.3753 446.169 47.3081 448.682 51.0698C451.196 54.8316 452.536 59.2534 452.533 63.776C452.517 69.8366 450.098 75.644 445.806 79.9272C441.513 84.2105 435.697 86.6207 429.63 86.6304Z" fill="#004EFF" stroke="#FBFAFF" stroke-width="1.0631" stroke-miterlimit="10"/>
<g opacity="0.2">
<path d="M429.63 31.4112C423.224 31.4209 416.965 33.3273 411.643 36.8895C406.321 40.4517 402.176 45.5098 399.731 51.4245C397.287 57.3393 396.652 63.8452 397.908 70.1201C399.164 76.395 402.253 82.1573 406.786 86.6787C411.319 91.2001 417.093 94.2777 423.376 95.5225C429.66 96.7673 436.172 96.1235 442.089 93.6725C448.006 91.2214 453.064 87.0731 456.622 81.7518C460.18 76.4305 462.079 70.1751 462.079 63.776C462.066 55.1878 458.641 46.9558 452.557 40.8876C446.473 34.8194 438.227 31.4111 429.63 31.4112ZM429.63 86.6304C425.102 86.628 420.677 85.2845 416.914 82.7699C413.151 80.2552 410.219 76.6823 408.489 72.5031C406.758 68.3238 406.307 63.7258 407.193 59.2906C408.079 54.8553 410.261 50.782 413.464 47.5858C416.667 44.3895 420.747 42.2139 425.188 41.334C429.629 40.454 434.232 40.9093 438.413 42.6423C442.595 44.3753 446.169 47.3081 448.682 51.0698C451.196 54.8316 452.536 59.2534 452.533 63.776C452.517 69.8366 450.098 75.644 445.806 79.9272C441.513 84.2105 435.697 86.6207 429.63 86.6304Z" fill="black"/>
</g>
<path d="M429.63 31.4112C423.224 31.4209 416.965 33.3273 411.643 36.8895C406.321 40.4517 402.176 45.5098 399.731 51.4245C397.287 57.3393 396.652 63.8452 397.908 70.1201C399.164 76.395 402.253 82.1573 406.786 86.6787C411.319 91.2001 417.093 94.2777 423.376 95.5225C429.66 96.7673 436.172 96.1235 442.089 93.6725C448.006 91.2214 453.064 87.0731 456.622 81.7518C460.18 76.4305 462.079 70.1751 462.079 63.776C462.066 55.1878 458.641 46.9558 452.557 40.8876C446.473 34.8194 438.227 31.4111 429.63 31.4112ZM429.63 86.6304C425.102 86.628 420.677 85.2845 416.914 82.7699C413.151 80.2552 410.219 76.6823 408.489 72.5031C406.758 68.3238 406.307 63.7258 407.193 59.2906C408.079 54.8553 410.261 50.782 413.464 47.5858C416.667 44.3895 420.747 42.2139 425.188 41.334C429.629 40.454 434.232 40.9093 438.413 42.6423C442.595 44.3753 446.169 47.3081 448.682 51.0698C451.196 54.8316 452.536 59.2534 452.533 63.776C452.517 69.8366 450.098 75.644 445.806 79.9272C441.513 84.2105 435.697 86.6207 429.63 86.6304Z" stroke="#FBFAFF" stroke-width="1.0631" stroke-miterlimit="10"/>
<path d="M442.263 33.9546L438.573 42.7032C443.438 44.7588 447.442 48.4319 449.905 53.0999C452.369 57.7678 453.14 63.1432 452.089 68.3145C451.038 73.4858 448.228 78.1348 444.137 81.4731C440.046 84.8114 434.925 86.6335 429.643 86.6304V96.1285C437.127 96.1457 444.386 93.5732 450.186 88.8484C455.986 84.1235 459.969 77.538 461.457 70.2113C462.946 62.8846 461.848 55.269 458.351 48.6592C454.854 42.0495 449.174 36.8535 442.275 33.9546H442.263Z" fill="#FBFAFF" stroke="#FBFAFF" stroke-width="1.0631" stroke-linecap="round" stroke-linejoin="round"/>
<path d="M457.848 1H324.141C321.813 0.99839 319.508 1.45478 317.357 2.3431C315.206 3.23142 313.251 4.53427 311.604 6.17729C309.957 7.82031 308.65 9.77131 307.757 11.9189C306.865 14.0665 306.405 16.3686 306.403 18.6938V129.489C306.41 134.182 308.282 138.682 311.608 141.997C314.934 145.313 319.442 147.173 324.141 147.17H457.848C460.175 147.173 462.48 146.718 464.631 145.831C466.782 144.945 468.737 143.643 470.384 142.001C472.031 140.359 473.338 138.409 474.231 136.262C475.123 134.115 475.583 131.813 475.585 129.489V18.6938C475.583 16.3686 475.123 14.0665 474.231 11.9189C473.339 9.77131 472.032 7.82031 470.385 6.17729C468.738 4.53427 466.783 3.23142 464.632 2.3431C462.48 1.45478 460.175 0.99839 457.848 1Z" stroke="#FBFAFF" stroke-width="1.0631" stroke-miterlimit="10"/>
<path d="M320.771 106.757H371.744" stroke="#FBFAFF" stroke-width="1.0631" stroke-miterlimit="10"/>
<path d="M320.771 112.2H371.744" stroke="#FBFAFF" stroke-width="1.0631" stroke-miterlimit="10"/>
<path d="M320.771 117.644H371.744" stroke="#FBFAFF" stroke-width="1.0631" stroke-miterlimit="10"/>
<path d="M320.771 123.099H371.744" stroke="#FBFAFF" stroke-width="1.0631" stroke-miterlimit="10"/>
<path d="M320.771 128.543H371.744" stroke="#FBFAFF" stroke-width="1.0631" stroke-miterlimit="10"/>
<path d="M404.955 106.757H455.941" stroke="#FBFAFF" stroke-width="1.0631" stroke-miterlimit="10"/>
<path d="M404.955 112.2H455.941" stroke="#FBFAFF" stroke-width="1.0631" stroke-miterlimit="10"/>
<path d="M404.955 117.644H455.941" stroke="#FBFAFF" stroke-width="1.0631" stroke-miterlimit="10"/>
<path d="M404.955 123.099H455.941" stroke="#FBFAFF" stroke-width="1.0631" stroke-miterlimit="10"/>
<path d="M404.955 128.543H455.941" stroke="#FBFAFF" stroke-width="1.0631" stroke-miterlimit="10"/>
<path d="M363.798 16.0028H414.771" stroke="#FBFAFF" stroke-width="1.0631" stroke-miterlimit="10"/>
<path d="M363.798 21.4584H414.771" stroke="#FBFAFF" stroke-width="1.0631" stroke-miterlimit="10"/>
<path d="M297.846 242.942H264.008V292.069H297.846V242.942Z" fill="#004EFF" stroke="#FBFAFF" stroke-width="1.16063" stroke-miterlimit="10"/>
<path opacity="0.2" d="M297.846 242.942H264.008V292.069H297.846V242.942Z" fill="black"/>
<path d="M297.846 242.942H264.008V292.069H297.846V242.942Z" stroke="#FBFAFF" stroke-width="1.16063" stroke-miterlimit="10"/>
<path d="M344.834 218.373H310.996V272.759H344.834V218.373Z" fill="#004EFF" stroke="#FBFAFF" stroke-width="1.16063" stroke-miterlimit="10"/>
<path opacity="0.2" d="M344.834 218.373H310.996V272.759H344.834V218.373Z" fill="black"/>
<path d="M344.834 218.373H310.996V272.759H344.834V218.373Z" stroke="#FBFAFF" stroke-width="1.16063" stroke-miterlimit="10"/>
<path d="M391.822 198.205H357.984V234.173H391.822V198.205Z" fill="#004EFF" stroke="#FBFAFF" stroke-width="1.16063" stroke-miterlimit="10"/>
<path opacity="0.2" d="M391.822 198.205H357.984V234.173H391.822V198.205Z" fill="black"/>
<path d="M391.822 198.205H357.984V234.173H391.822V198.205Z" stroke="#FBFAFF" stroke-width="1.16063" stroke-miterlimit="10"/>
<path d="M297.846 292.058H264.008V312.237H297.846V292.058Z" fill="#FBFAFF" stroke="#FBFAFF" stroke-width="1.16063" stroke-linecap="round" stroke-linejoin="round"/>
<path d="M344.834 272.759H310.996V312.237H344.834V272.759Z" fill="#FBFAFF" stroke="#FBFAFF" stroke-width="1.16063" stroke-linecap="round" stroke-linejoin="round"/>
<path d="M436.039 218.373H402.201V272.759H436.039V218.373Z" fill="#004EFF" stroke="#FBFAFF" stroke-width="1.16063" stroke-miterlimit="10"/>
<path opacity="0.2" d="M436.039 218.373H402.201V272.759H436.039V218.373Z" fill="black"/>
<path d="M436.039 218.373H402.201V272.759H436.039V218.373Z" stroke="#FBFAFF" stroke-width="1.16063" stroke-miterlimit="10"/>
<path d="M436.039 272.759H402.201V312.237H436.039V272.759Z" fill="#FBFAFF" stroke="#FBFAFF" stroke-width="1.16063" stroke-linecap="round" stroke-linejoin="round"/>
<path d="M391.822 234.161H357.984V312.237H391.822V234.161Z" fill="#FBFAFF" stroke="#FBFAFF" stroke-width="1.16063" stroke-linecap="round" stroke-linejoin="round"/>
<path d="M338.966 198.275H317.849C316.88 198.275 315.951 198.659 315.266 199.343C314.581 200.028 314.196 200.956 314.196 201.924V206.777C314.196 207.745 314.581 208.673 315.266 209.357C315.951 210.042 316.88 210.426 317.849 210.426H325.677L328.413 215.152L331.138 210.426H338.966C339.935 210.426 340.864 210.042 341.549 209.357C342.234 208.673 342.619 207.745 342.619 206.777V201.924C342.619 200.956 342.234 200.028 341.549 199.343C340.864 198.659 339.935 198.275 338.966 198.275Z" fill="#004EFF"/>
<mask id="mask0_2111_501" style="mask-type:luminance" maskUnits="userSpaceOnUse" x="314" y="198" width="29" height="18">
<path d="M338.966 198.275H317.849C316.88 198.275 315.951 198.659 315.266 199.343C314.581 200.028 314.196 200.956 314.196 201.924V206.777C314.196 207.745 314.581 208.673 315.266 209.357C315.951 210.042 316.88 210.426 317.849 210.426H325.677L328.413 215.152L331.138 210.426H338.966C339.935 210.426 340.864 210.042 341.549 209.357C342.234 208.673 342.619 207.745 342.619 206.777V201.924C342.619 200.956 342.234 200.028 341.549 199.343C340.864 198.659 339.935 198.275 338.966 198.275Z" fill="white"/>
</mask>
<g mask="url(#mask0_2111_501)">
<path opacity="0.5" d="M338.966 198.275H317.849C316.88 198.275 315.951 198.659 315.266 199.343C314.581 200.028 314.196 200.956 314.196 201.924V206.777C314.196 207.745 314.581 208.673 315.266 209.357C315.951 210.042 316.88 210.426 317.849 210.426H325.677L328.413 215.152L331.138 210.426H338.966C339.935 210.426 340.864 210.042 341.549 209.357C342.234 208.673 342.619 207.745 342.619 206.777V201.924C342.619 200.956 342.234 200.028 341.549 199.343C340.864 198.659 339.935 198.275 338.966 198.275Z" fill="#FBFAFF"/>
</g>
<path d="M338.966 198.275H317.849C316.88 198.275 315.951 198.659 315.266 199.343C314.581 200.028 314.196 200.956 314.196 201.924V206.777C314.196 207.745 314.581 208.673 315.266 209.357C315.951 210.042 316.88 210.426 317.849 210.426H325.677L328.413 215.152L331.138 210.426H338.966C339.935 210.426 340.864 210.042 341.549 209.357C342.234 208.673 342.619 207.745 342.619 206.777V201.924C342.619 200.956 342.234 200.028 341.549 199.343C340.864 198.659 339.935 198.275 338.966 198.275Z" stroke="#FBFAFF" stroke-width="1.16689" stroke-linecap="round" stroke-linejoin="round"/>
<path d="M291.48 223.47H270.375C269.408 223.47 268.48 223.852 267.796 224.534C267.111 225.216 266.725 226.141 266.722 227.107V231.972C266.725 232.938 267.111 233.863 267.796 234.545C268.48 235.227 269.408 235.609 270.375 235.609H278.19L280.927 240.336L283.664 235.609H291.48C292.447 235.609 293.374 235.227 294.059 234.545C294.743 233.863 295.13 232.938 295.133 231.972V227.107C295.13 226.141 294.743 225.216 294.059 224.534C293.374 223.852 292.447 223.47 291.48 223.47Z" fill="#004EFF"/>
<mask id="mask1_2111_501" style="mask-type:luminance" maskUnits="userSpaceOnUse" x="266" y="223" width="30" height="18">
<path d="M291.479 223.47H270.374C269.407 223.47 268.479 223.852 267.795 224.534C267.11 225.216 266.724 226.141 266.721 227.107V231.972C266.724 232.938 267.11 233.863 267.795 234.545C268.479 235.227 269.407 235.609 270.374 235.609H278.189L280.926 240.336L283.663 235.609H291.479C292.446 235.609 293.373 235.227 294.058 234.545C294.742 233.863 295.129 232.938 295.132 231.972V227.107C295.129 226.141 294.742 225.216 294.058 224.534C293.373 223.852 292.446 223.47 291.479 223.47Z" fill="white"/>
</mask>
<g mask="url(#mask1_2111_501)">
<path opacity="0.5" d="M291.479 223.47H270.374C269.407 223.47 268.479 223.852 267.795 224.534C267.11 225.216 266.724 226.141 266.721 227.107V231.972C266.724 232.938 267.11 233.863 267.795 234.545C268.479 235.227 269.407 235.609 270.374 235.609H278.189L280.926 240.336L283.663 235.609H291.479C292.446 235.609 293.373 235.227 294.058 234.545C294.742 233.863 295.129 232.938 295.132 231.972V227.107C295.129 226.141 294.742 225.216 294.058 224.534C293.373 223.852 292.446 223.47 291.479 223.47Z" fill="#FBFAFF"/>
</g>
<path d="M291.48 223.47H270.375C269.408 223.47 268.48 223.852 267.796 224.534C267.111 225.216 266.725 226.141 266.722 227.107V231.972C266.725 232.938 267.111 233.863 267.796 234.545C268.48 235.227 269.408 235.609 270.375 235.609H278.19L280.927 240.336L283.664 235.609H291.48C292.447 235.609 293.374 235.227 294.059 234.545C294.743 233.863 295.13 232.938 295.133 231.972V227.107C295.13 226.141 294.743 225.216 294.059 224.534C293.374 223.852 292.447 223.47 291.48 223.47Z" stroke="#FBFAFF" stroke-width="1.16689" stroke-linecap="round" stroke-linejoin="round"/>
<path d="M385.247 178.038H364.13C363.162 178.038 362.232 178.422 361.547 179.106C360.862 179.791 360.478 180.719 360.478 181.687V186.54C360.478 187.019 360.572 187.493 360.756 187.935C360.94 188.377 361.209 188.778 361.548 189.116C361.887 189.454 362.29 189.722 362.733 189.904C363.176 190.086 363.651 190.179 364.13 190.178H371.958L374.683 194.904L377.42 190.178H385.247C385.726 190.179 386.201 190.086 386.644 189.904C387.087 189.722 387.49 189.454 387.829 189.116C388.169 188.778 388.438 188.377 388.622 187.935C388.806 187.493 388.9 187.019 388.9 186.54V181.687C388.9 180.719 388.515 179.791 387.83 179.106C387.145 178.422 386.216 178.038 385.247 178.038Z" fill="#004EFF"/>
<mask id="mask2_2111_501" style="mask-type:luminance" maskUnits="userSpaceOnUse" x="360" y="178" width="29" height="17">
<path d="M385.247 178.038H364.13C363.162 178.038 362.232 178.422 361.547 179.106C360.862 179.791 360.478 180.719 360.478 181.687V186.54C360.478 187.019 360.572 187.493 360.756 187.935C360.94 188.377 361.209 188.778 361.548 189.116C361.887 189.454 362.29 189.722 362.733 189.904C363.176 190.086 363.651 190.179 364.13 190.178H371.958L374.683 194.904L377.42 190.178H385.247C385.726 190.179 386.201 190.086 386.644 189.904C387.087 189.722 387.49 189.454 387.829 189.116C388.169 188.778 388.438 188.377 388.622 187.935C388.806 187.493 388.9 187.019 388.9 186.54V181.687C388.9 180.719 388.515 179.791 387.83 179.106C387.145 178.422 386.216 178.038 385.247 178.038Z" fill="white"/>
</mask>
<g mask="url(#mask2_2111_501)">
<path opacity="0.5" d="M385.247 178.038H364.13C363.162 178.038 362.232 178.422 361.547 179.106C360.862 179.791 360.478 180.719 360.478 181.687V186.54C360.478 187.019 360.572 187.493 360.756 187.935C360.94 188.377 361.209 188.778 361.548 189.116C361.887 189.454 362.29 189.722 362.733 189.904C363.176 190.086 363.651 190.179 364.13 190.178H371.958L374.683 194.904L377.42 190.178H385.247C385.726 190.179 386.201 190.086 386.644 189.904C387.087 189.722 387.49 189.454 387.829 189.116C388.169 188.778 388.438 188.377 388.622 187.935C388.806 187.493 388.9 187.019 388.9 186.54V181.687C388.9 180.719 388.515 179.791 387.83 179.106C387.145 178.422 386.216 178.038 385.247 178.038Z" fill="#FBFAFF"/>
</g>
<path d="M385.247 178.038H364.13C363.162 178.038 362.232 178.422 361.547 179.106C360.862 179.791 360.478 180.719 360.478 181.687V186.54C360.478 187.019 360.572 187.493 360.756 187.935C360.94 188.377 361.209 188.778 361.548 189.116C361.887 189.454 362.29 189.722 362.733 189.904C363.176 190.086 363.651 190.179 364.13 190.178H371.958L374.683 194.904L377.42 190.178H385.247C385.726 190.179 386.201 190.086 386.644 189.904C387.087 189.722 387.49 189.454 387.829 189.116C388.169 188.778 388.438 188.377 388.622 187.935C388.806 187.493 388.9 187.019 388.9 186.54V181.687C388.9 180.719 388.515 179.791 387.83 179.106C387.145 178.422 386.216 178.038 385.247 178.038Z" stroke="#FBFAFF" stroke-width="1.16689" stroke-linecap="round" stroke-linejoin="round"/>
<path d="M429.719 197.962H408.614C407.645 197.962 406.716 198.346 406.031 199.031C405.346 199.715 404.961 200.643 404.961 201.611V206.464C404.961 206.943 405.056 207.417 405.239 207.859C405.423 208.301 405.692 208.703 406.032 209.04C406.371 209.378 406.774 209.646 407.217 209.828C407.66 210.01 408.135 210.103 408.614 210.102H416.43L419.166 214.828L421.903 210.102H429.719C430.199 210.103 430.674 210.01 431.118 209.828C431.562 209.646 431.965 209.379 432.305 209.041C432.646 208.703 432.916 208.302 433.101 207.86C433.286 207.418 433.382 206.944 433.384 206.464V201.611C433.38 200.642 432.993 199.714 432.306 199.03C431.619 198.346 430.689 197.962 429.719 197.962Z" fill="#004EFF"/>
<mask id="mask3_2111_501" style="mask-type:luminance" maskUnits="userSpaceOnUse" x="404" y="197" width="30" height="18">
<path d="M429.719 197.962H408.614C407.645 197.962 406.716 198.346 406.031 199.031C405.346 199.715 404.961 200.643 404.961 201.611V206.464C404.961 206.943 405.056 207.417 405.239 207.859C405.423 208.301 405.692 208.703 406.032 209.04C406.371 209.378 406.774 209.646 407.217 209.828C407.66 210.01 408.135 210.103 408.614 210.102H416.43L419.166 214.828L421.903 210.102H429.719C430.199 210.103 430.674 210.01 431.118 209.828C431.562 209.646 431.965 209.379 432.305 209.041C432.646 208.703 432.916 208.302 433.101 207.86C433.286 207.418 433.382 206.944 433.384 206.464V201.611C433.38 200.642 432.993 199.714 432.306 199.03C431.619 198.346 430.689 197.962 429.719 197.962Z" fill="white"/>
</mask>
<g mask="url(#mask3_2111_501)">
<path opacity="0.5" d="M429.719 197.962H408.614C407.645 197.962 406.716 198.346 406.031 199.031C405.346 199.715 404.961 200.643 404.961 201.611V206.464C404.961 206.943 405.056 207.417 405.239 207.859C405.423 208.301 405.692 208.703 406.032 209.04C406.371 209.378 406.774 209.646 407.217 209.828C407.66 210.01 408.135 210.103 408.614 210.102H416.43L419.166 214.828L421.903 210.102H429.719C430.199 210.103 430.674 210.01 431.118 209.828C431.562 209.646 431.965 209.379 432.305 209.041C432.646 208.703 432.916 208.302 433.101 207.86C433.286 207.418 433.382 206.944 433.384 206.464V201.611C433.38 200.642 432.993 199.714 432.306 199.03C431.619 198.346 430.689 197.962 429.719 197.962Z" fill="#FBFAFF"/>
</g>
<path d="M429.719 197.962H408.614C407.645 197.962 406.716 198.346 406.031 199.031C405.346 199.715 404.961 200.643 404.961 201.611V206.464C404.961 206.943 405.056 207.417 405.239 207.859C405.423 208.301 405.692 208.703 406.032 209.04C406.371 209.378 406.774 209.646 407.217 209.828C407.66 210.01 408.135 210.103 408.614 210.102H416.43L419.166 214.828L421.903 210.102H429.719C430.199 210.103 430.674 210.01 431.118 209.828C431.562 209.646 431.965 209.379 432.305 209.041C432.646 208.703 432.916 208.302 433.101 207.86C433.286 207.418 433.382 206.944 433.384 206.464V201.611C433.38 200.642 432.993 199.714 432.306 199.03C431.619 198.346 430.689 197.962 429.719 197.962Z" stroke="#FBFAFF" stroke-width="1.16689" stroke-linecap="round" stroke-linejoin="round"/>
<path d="M265.156 171.134H313.223" stroke="#FBFAFF" stroke-width="1.0631" stroke-miterlimit="10"/>
<path d="M265.156 176.265H313.223" stroke="#FBFAFF" stroke-width="1.0631" stroke-miterlimit="10"/>
<path d="M265.156 181.409H313.223" stroke="#FBFAFF" stroke-width="1.0631" stroke-miterlimit="10"/>
<path d="M265.156 186.54H313.223" stroke="#FBFAFF" stroke-width="1.0631" stroke-miterlimit="10"/>
<path d="M265.156 191.672H313.223" stroke="#FBFAFF" stroke-width="1.0631" stroke-miterlimit="10"/>
<rect x="229.086" y="155.5" width="246" height="184.721" rx="20.5" stroke="#FBFAFF"/>
</svg>
