<svg width="801" height="546" viewBox="0 0 801 546" fill="none" xmlns="http://www.w3.org/2000/svg">
<g filter="url(#filter0_d_1668_3296)">
<g clip-path="url(#clip0_1668_3296)">
<rect x="20" y="16" width="761" height="506" rx="20" fill="white"/>
<path d="M84.3262 438.875H1504.13" stroke="black"/>
<path d="M84.3262 453.125V438.875" stroke="black"/>
<path d="M84.3261 485.479C83.6841 485.479 83.1372 485.305 82.6855 484.955C82.2338 484.603 81.8886 484.093 81.65 483.425C81.4113 482.755 81.292 481.945 81.292 480.996C81.292 480.053 81.4113 479.248 81.65 478.58C81.8914 477.91 82.238 477.398 82.6897 477.046C83.1443 476.691 83.6897 476.514 84.3261 476.514C84.9625 476.514 85.5065 476.691 85.9582 477.046C86.4128 477.398 86.7593 477.91 86.998 478.58C87.2395 479.248 87.3602 480.053 87.3602 480.996C87.3602 481.945 87.2409 482.755 87.0022 483.425C86.7636 484.093 86.4184 484.603 85.9667 484.955C85.515 485.305 84.9682 485.479 84.3261 485.479ZM84.3261 484.542C84.9625 484.542 85.4568 484.235 85.8091 483.621C86.1613 483.008 86.3375 482.133 86.3375 480.996C86.3375 480.241 86.2565 479.597 86.0946 479.066C85.9355 478.535 85.7054 478.13 85.4042 477.852C85.1059 477.573 84.7466 477.434 84.3261 477.434C83.6954 477.434 83.2025 477.745 82.8474 478.367C82.4923 478.987 82.3147 479.863 82.3147 480.996C82.3147 481.752 82.3943 482.394 82.5534 482.923C82.7125 483.451 82.9412 483.853 83.2395 484.129C83.5406 484.404 83.9028 484.542 84.3261 484.542Z" fill="black"/>
<path d="M185.741 453.125V438.875" stroke="black"/>
<path d="M186.923 476.633V485.36H185.867V477.741H185.815L183.685 479.156V478.082L185.867 476.633H186.923Z" fill="black"/>
<path d="M287.155 453.125V438.875" stroke="black"/>
<path d="M284.426 485.36V484.593L287.306 481.44C287.645 481.07 287.923 480.749 288.142 480.477C288.36 480.201 288.522 479.942 288.628 479.701C288.735 479.457 288.789 479.201 288.789 478.934C288.789 478.627 288.716 478.362 288.568 478.137C288.423 477.913 288.224 477.739 287.971 477.617C287.718 477.495 287.434 477.434 287.119 477.434C286.784 477.434 286.491 477.504 286.241 477.643C285.994 477.779 285.802 477.971 285.666 478.218C285.532 478.465 285.466 478.755 285.466 479.087H284.46C284.46 478.576 284.578 478.127 284.814 477.741C285.049 477.354 285.37 477.053 285.777 476.837C286.186 476.621 286.645 476.514 287.153 476.514C287.664 476.514 288.118 476.621 288.512 476.837C288.907 477.053 289.217 477.344 289.441 477.711C289.666 478.077 289.778 478.485 289.778 478.934C289.778 479.255 289.72 479.569 289.603 479.876C289.49 480.18 289.291 480.519 289.007 480.894C288.726 481.266 288.335 481.721 287.835 482.258L285.875 484.354V484.423H289.931V485.36H284.426Z" fill="black"/>
<path d="M388.569 453.125V438.875" stroke="black"/>
<path d="M388.601 485.479C388.039 485.479 387.537 485.383 387.097 485.19C386.659 484.996 386.311 484.728 386.053 484.384C385.797 484.038 385.658 483.636 385.635 483.178H386.709C386.732 483.46 386.829 483.702 386.999 483.907C387.169 484.109 387.392 484.265 387.668 484.376C387.944 484.487 388.249 484.542 388.584 484.542C388.959 484.542 389.292 484.477 389.581 484.346C389.871 484.215 390.098 484.033 390.263 483.8C390.428 483.567 390.51 483.298 390.51 482.991C390.51 482.67 390.431 482.387 390.272 482.143C390.113 481.896 389.88 481.702 389.573 481.563C389.266 481.424 388.891 481.354 388.448 481.354H387.749V480.417H388.448C388.794 480.417 389.098 480.354 389.36 480.229C389.624 480.104 389.83 479.928 389.978 479.701C390.128 479.474 390.204 479.207 390.204 478.9C390.204 478.604 390.138 478.347 390.007 478.129C389.877 477.91 389.692 477.739 389.454 477.617C389.218 477.495 388.939 477.434 388.618 477.434C388.317 477.434 388.033 477.489 387.766 477.6C387.502 477.708 387.286 477.866 387.118 478.073C386.951 478.278 386.86 478.525 386.846 478.815H385.823C385.84 478.357 385.978 477.957 386.236 477.613C386.495 477.266 386.833 476.996 387.25 476.803C387.671 476.61 388.132 476.514 388.635 476.514C389.175 476.514 389.638 476.623 390.025 476.842C390.411 477.058 390.708 477.343 390.915 477.698C391.123 478.053 391.226 478.437 391.226 478.849C391.226 479.34 391.097 479.759 390.838 480.106C390.583 480.452 390.235 480.692 389.794 480.826V480.894C390.346 480.985 390.776 481.219 391.086 481.597C391.395 481.972 391.55 482.437 391.55 482.991C391.55 483.465 391.421 483.891 391.162 484.269C390.907 484.644 390.557 484.94 390.114 485.156C389.671 485.371 389.167 485.479 388.601 485.479Z" fill="black"/>
<path d="M489.984 453.125V438.875" stroke="black"/>
<path d="M486.834 483.57V482.701L490.669 476.633H491.299V477.979H490.873L487.976 482.565V482.633H493.14V483.57H486.834ZM490.942 485.36V483.306V482.901V476.633H491.947V485.36H490.942Z" fill="black"/>
<path d="M591.398 453.125V438.875" stroke="black"/>
<path d="M591.379 485.479C590.879 485.479 590.428 485.38 590.028 485.181C589.627 484.982 589.306 484.71 589.065 484.363C588.823 484.016 588.691 483.621 588.668 483.178H589.691C589.731 483.573 589.91 483.9 590.228 484.158C590.549 484.414 590.933 484.542 591.379 484.542C591.737 484.542 592.055 484.458 592.333 484.291C592.614 484.123 592.835 483.893 592.994 483.6C593.156 483.305 593.237 482.971 593.237 482.599C593.237 482.218 593.153 481.879 592.985 481.58C592.82 481.279 592.593 481.042 592.303 480.869C592.014 480.695 591.683 480.607 591.31 480.604C591.043 480.602 590.769 480.643 590.488 480.728C590.207 480.81 589.975 480.917 589.793 481.048L588.805 480.928L589.333 476.633H593.867V477.57H590.22L589.913 480.144H589.964C590.143 480.002 590.367 479.884 590.637 479.791C590.907 479.697 591.188 479.65 591.481 479.65C592.015 479.65 592.491 479.778 592.908 480.033C593.329 480.286 593.658 480.633 593.897 481.073C594.139 481.514 594.259 482.016 594.259 482.582C594.259 483.139 594.134 483.636 593.884 484.073C593.637 484.508 593.296 484.852 592.862 485.104C592.427 485.354 591.933 485.479 591.379 485.479Z" fill="black"/>
<path d="M692.812 453.125V438.875" stroke="black"/>
<path d="M692.869 485.479C692.511 485.474 692.154 485.406 691.796 485.275C691.438 485.144 691.111 484.924 690.815 484.614C690.52 484.302 690.283 483.88 690.104 483.349C689.925 482.815 689.835 482.144 689.835 481.337C689.835 480.565 689.908 479.88 690.053 479.283C690.198 478.684 690.408 478.18 690.683 477.771C690.959 477.359 691.291 477.046 691.681 476.833C692.073 476.62 692.514 476.514 693.006 476.514C693.494 476.514 693.929 476.612 694.31 476.808C694.693 477.001 695.006 477.271 695.247 477.617C695.489 477.964 695.645 478.363 695.716 478.815H694.676C694.58 478.423 694.392 478.097 694.114 477.839C693.835 477.58 693.466 477.451 693.006 477.451C692.33 477.451 691.797 477.745 691.408 478.333C691.021 478.921 690.827 479.746 690.824 480.809H690.892C691.051 480.567 691.24 480.362 691.459 480.191C691.681 480.018 691.925 479.884 692.192 479.791C692.459 479.697 692.742 479.65 693.04 479.65C693.54 479.65 693.997 479.775 694.412 480.025C694.827 480.272 695.159 480.614 695.409 481.052C695.659 481.487 695.784 481.985 695.784 482.548C695.784 483.087 695.663 483.582 695.422 484.031C695.181 484.477 694.841 484.832 694.404 485.096C693.969 485.357 693.458 485.485 692.869 485.479ZM692.869 484.542C693.227 484.542 693.548 484.452 693.833 484.273C694.119 484.094 694.345 483.854 694.51 483.553C694.678 483.252 694.761 482.917 694.761 482.548C694.761 482.187 694.681 481.859 694.519 481.563C694.359 481.265 694.139 481.028 693.858 480.852C693.58 480.675 693.261 480.587 692.904 480.587C692.634 480.587 692.382 480.641 692.149 480.749C691.916 480.854 691.712 480.999 691.536 481.184C691.362 481.369 691.226 481.58 691.127 481.819C691.027 482.055 690.977 482.303 690.977 482.565C690.977 482.911 691.058 483.235 691.22 483.536C691.385 483.837 691.609 484.08 691.894 484.265C692.181 484.45 692.506 484.542 692.869 484.542Z" fill="black"/>
<path d="M84.3262 58.875V438.875" stroke="black"/>
<path d="M70.0811 438.875H84.3266" stroke="black"/>
<path d="M54.4598 432.612C53.8178 432.612 53.2709 432.437 52.8192 432.088C52.3675 431.735 52.0223 431.225 51.7837 430.558C51.5451 429.887 51.4257 429.078 51.4257 428.129C51.4257 427.186 51.5451 426.38 51.7837 425.713C52.0252 425.042 52.3718 424.531 52.8235 424.179C53.278 423.823 53.8235 423.646 54.4598 423.646C55.0962 423.646 55.6402 423.823 56.0919 424.179C56.5465 424.531 56.8931 425.042 57.1317 425.713C57.3732 426.38 57.4939 427.186 57.4939 428.129C57.4939 429.078 57.3746 429.887 57.136 430.558C56.8973 431.225 56.5522 431.735 56.1005 432.088C55.6488 432.437 55.1019 432.612 54.4598 432.612ZM54.4598 431.674C55.0962 431.674 55.5905 431.367 55.9428 430.754C56.2951 430.14 56.4712 429.265 56.4712 428.129C56.4712 427.373 56.3902 426.73 56.2283 426.198C56.0692 425.667 55.8391 425.262 55.538 424.984C55.2397 424.705 54.8803 424.566 54.4598 424.566C53.8292 424.566 53.3363 424.877 52.9811 425.5C52.626 426.119 52.4485 426.995 52.4485 428.129C52.4485 428.884 52.528 429.527 52.6871 430.055C52.8462 430.583 53.0749 430.985 53.3732 431.261C53.6743 431.536 54.0365 431.674 54.4598 431.674Z" fill="black"/>
<path d="M70.0811 343.875H84.3266" stroke="black"/>
<path d="M37.0463 337.493V336.726L39.927 333.572C40.2651 333.203 40.5435 332.882 40.7623 332.609C40.981 332.334 41.1429 332.075 41.2481 331.834C41.356 331.589 41.41 331.334 41.41 331.067C41.41 330.76 41.3361 330.494 41.1884 330.27C41.0435 330.045 40.8446 329.872 40.5918 329.75C40.339 329.628 40.0549 329.567 39.7395 329.567C39.4043 329.567 39.1117 329.636 38.8617 329.775C38.6145 329.912 38.4228 330.103 38.2864 330.351C38.1529 330.598 38.0861 330.888 38.0861 331.22H37.0804C37.0804 330.709 37.1983 330.26 37.4341 329.873C37.6699 329.487 37.991 329.186 38.3972 328.97C38.8063 328.754 39.2651 328.646 39.7736 328.646C40.285 328.646 40.7381 328.754 41.133 328.97C41.5279 329.186 41.8375 329.477 42.062 329.844C42.2864 330.21 42.3986 330.618 42.3986 331.067C42.3986 331.388 42.3404 331.701 42.2239 332.008C42.1103 332.312 41.9114 332.652 41.6273 333.027C41.3461 333.399 40.9554 333.853 40.4554 334.39L38.4952 336.487V336.555H42.552V337.493H37.0463ZM47.0392 337.612C46.5392 337.612 46.089 337.513 45.6884 337.314C45.2878 337.115 44.9668 336.842 44.7253 336.496C44.4838 336.149 44.3517 335.754 44.329 335.311H45.3517C45.3915 335.706 45.5705 336.032 45.8887 336.291C46.2097 336.547 46.5932 336.674 47.0392 336.674C47.3972 336.674 47.7154 336.591 47.9938 336.423C48.275 336.255 48.4952 336.025 48.6543 335.733C48.8162 335.437 48.8972 335.103 48.8972 334.731C48.8972 334.351 48.8134 334.011 48.6458 333.713C48.481 333.412 48.2537 333.174 47.964 333.001C47.6742 332.828 47.3432 332.74 46.9711 332.737C46.704 332.734 46.4299 332.775 46.1486 332.861C45.8674 332.943 45.6358 333.049 45.454 333.18L44.4654 333.061L44.9938 328.765H49.5279V329.703H45.8802L45.5733 332.277H45.6245C45.8035 332.135 46.0279 332.017 46.2978 331.923C46.5677 331.829 46.8489 331.782 47.1415 331.782C47.6756 331.782 48.1515 331.91 48.5691 332.166C48.9895 332.419 49.3191 332.765 49.5577 333.206C49.7992 333.646 49.9199 334.149 49.9199 334.714C49.9199 335.271 49.7949 335.768 49.5449 336.206C49.2978 336.64 48.9569 336.984 48.5222 337.237C48.0875 337.487 47.5932 337.612 47.0392 337.612ZM54.4593 337.612C53.8173 337.612 53.2704 337.437 52.8187 337.088C52.367 336.736 52.0218 336.226 51.7832 335.558C51.5446 334.888 51.4253 334.078 51.4253 333.129C51.4253 332.186 51.5446 331.38 51.7832 330.713C52.0247 330.042 52.3713 329.531 52.823 329.179C53.2775 328.824 53.823 328.646 54.4593 328.646C55.0957 328.646 55.6397 328.824 56.0914 329.179C56.546 329.531 56.8926 330.042 57.1312 330.713C57.3727 331.38 57.4934 332.186 57.4934 333.129C57.4934 334.078 57.3741 334.888 57.1355 335.558C56.8968 336.226 56.5517 336.736 56.1 337.088C55.6483 337.437 55.1014 337.612 54.4593 337.612ZM54.4593 336.674C55.0957 336.674 55.59 336.368 55.9423 335.754C56.2946 335.14 56.4707 334.265 56.4707 333.129C56.4707 332.373 56.3897 331.73 56.2278 331.199C56.0687 330.667 55.8386 330.263 55.5375 329.984C55.2392 329.706 54.8798 329.567 54.4593 329.567C53.8287 329.567 53.3358 329.878 52.9807 330.5C52.6255 331.119 52.448 331.996 52.448 333.129C52.448 333.885 52.5275 334.527 52.6866 335.055C52.8457 335.584 53.0744 335.986 53.3727 336.261C53.6738 336.537 54.0361 336.674 54.4593 336.674Z" fill="black"/>
<path d="M70.0811 248.875H84.3266" stroke="black"/>
<path d="M39.5392 242.612C39.0392 242.612 38.589 242.512 38.1884 242.313C37.7878 242.115 37.4668 241.842 37.2253 241.495C36.9838 241.149 36.8517 240.754 36.829 240.311H37.8517C37.8915 240.705 38.0705 241.032 38.3887 241.291C38.7097 241.546 39.0932 241.674 39.5392 241.674C39.8972 241.674 40.2154 241.59 40.4938 241.423C40.775 241.255 40.9952 241.025 41.1543 240.732C41.3162 240.437 41.3972 240.103 41.3972 239.731C41.3972 239.35 41.3134 239.011 41.1458 238.713C40.981 238.411 40.7537 238.174 40.464 238.001C40.1742 237.828 39.8432 237.74 39.4711 237.737C39.204 237.734 38.9299 237.775 38.6486 237.86C38.3674 237.943 38.1358 238.049 37.954 238.18L36.9654 238.061L37.4938 233.765H42.0279V234.703H38.3802L38.0733 237.277H38.1245C38.3035 237.134 38.5279 237.017 38.7978 236.923C39.0677 236.829 39.3489 236.782 39.6415 236.782C40.1756 236.782 40.6515 236.91 41.0691 237.166C41.4895 237.419 41.8191 237.765 42.0577 238.205C42.2992 238.646 42.4199 239.149 42.4199 239.714C42.4199 240.271 42.2949 240.768 42.0449 241.205C41.7978 241.64 41.4569 241.984 41.0222 242.237C40.5875 242.487 40.0932 242.612 39.5392 242.612ZM46.9593 242.612C46.3173 242.612 45.7704 242.437 45.3187 242.088C44.867 241.735 44.5218 241.225 44.2832 240.558C44.0446 239.887 43.9253 239.078 43.9253 238.129C43.9253 237.186 44.0446 236.38 44.2832 235.713C44.5247 235.042 44.8713 234.531 45.323 234.179C45.7775 233.823 46.323 233.646 46.9593 233.646C47.5957 233.646 48.1397 233.823 48.5914 234.179C49.046 234.531 49.3926 235.042 49.6312 235.713C49.8727 236.38 49.9934 237.186 49.9934 238.129C49.9934 239.078 49.8741 239.887 49.6355 240.558C49.3968 241.225 49.0517 241.735 48.6 242.088C48.1483 242.437 47.6014 242.612 46.9593 242.612ZM46.9593 241.674C47.5957 241.674 48.09 241.367 48.4423 240.754C48.7946 240.14 48.9707 239.265 48.9707 238.129C48.9707 237.373 48.8897 236.73 48.7278 236.198C48.5687 235.667 48.3386 235.262 48.0375 234.984C47.7392 234.705 47.3798 234.566 46.9593 234.566C46.3287 234.566 45.8358 234.877 45.4807 235.5C45.1255 236.119 44.948 236.995 44.948 238.129C44.948 238.884 45.0275 239.527 45.1866 240.055C45.3457 240.583 45.5744 240.985 45.8727 241.261C46.1738 241.536 46.5361 241.674 46.9593 241.674ZM54.4593 242.612C53.8173 242.612 53.2704 242.437 52.8187 242.088C52.367 241.735 52.0218 241.225 51.7832 240.558C51.5446 239.887 51.4253 239.078 51.4253 238.129C51.4253 237.186 51.5446 236.38 51.7832 235.713C52.0247 235.042 52.3713 234.531 52.823 234.179C53.2775 233.823 53.823 233.646 54.4593 233.646C55.0957 233.646 55.6397 233.823 56.0914 234.179C56.546 234.531 56.8926 235.042 57.1312 235.713C57.3727 236.38 57.4934 237.186 57.4934 238.129C57.4934 239.078 57.3741 239.887 57.1355 240.558C56.8968 241.225 56.5517 241.735 56.1 242.088C55.6483 242.437 55.1014 242.612 54.4593 242.612ZM54.4593 241.674C55.0957 241.674 55.59 241.367 55.9423 240.754C56.2946 240.14 56.4707 239.265 56.4707 238.129C56.4707 237.373 56.3897 236.73 56.2278 236.198C56.0687 235.667 55.8386 235.262 55.5375 234.984C55.2392 234.705 54.8798 234.566 54.4593 234.566C53.8287 234.566 53.3358 234.877 52.9807 235.5C52.6255 236.119 52.448 236.995 52.448 238.129C52.448 238.884 52.5275 239.527 52.6866 240.055C52.8457 240.583 53.0744 240.985 53.3727 241.261C53.6738 241.536 54.0361 241.674 54.4593 241.674Z" fill="black"/>
<path d="M70.0811 153.875H84.3266" stroke="black"/>
<path d="M37.8472 147.492L41.7506 139.771V139.703H37.2506V138.765H42.8415V139.754L38.9551 147.492H37.8472ZM47.04 147.612C46.54 147.612 46.0897 147.512 45.6891 147.313C45.2886 147.115 44.9676 146.842 44.7261 146.495C44.4846 146.149 44.3525 145.754 44.3298 145.311H45.3525C45.3923 145.705 45.5712 146.032 45.8894 146.291C46.2104 146.546 46.594 146.674 47.04 146.674C47.3979 146.674 47.7161 146.59 47.9945 146.423C48.2758 146.255 48.496 146.025 48.6551 145.732C48.817 145.437 48.8979 145.103 48.8979 144.731C48.8979 144.35 48.8141 144.011 48.6465 143.713C48.4818 143.411 48.2545 143.174 47.9647 143.001C47.6749 142.828 47.344 142.74 46.9718 142.737C46.7048 142.734 46.4306 142.775 46.1494 142.86C45.8681 142.943 45.6366 143.049 45.4548 143.18L44.4661 143.061L44.9945 138.765H49.5286V139.703H45.8809L45.5741 142.277H45.6252C45.8042 142.134 46.0286 142.017 46.2985 141.923C46.5684 141.829 46.8497 141.782 47.1423 141.782C47.6764 141.782 48.1522 141.91 48.5698 142.166C48.9903 142.419 49.3198 142.765 49.5585 143.205C49.7999 143.646 49.9207 144.149 49.9207 144.714C49.9207 145.271 49.7957 145.768 49.5457 146.205C49.2985 146.64 48.9576 146.984 48.5229 147.237C48.0883 147.487 47.594 147.612 47.04 147.612ZM54.4601 147.612C53.818 147.612 53.2712 147.437 52.8195 147.088C52.3678 146.735 52.0226 146.225 51.784 145.558C51.5453 144.887 51.426 144.078 51.426 143.129C51.426 142.186 51.5453 141.38 51.784 140.713C52.0254 140.042 52.372 139.531 52.8237 139.179C53.2783 138.823 53.8237 138.646 54.4601 138.646C55.0965 138.646 55.6405 138.823 56.0922 139.179C56.5467 139.531 56.8933 140.042 57.132 140.713C57.3734 141.38 57.4942 142.186 57.4942 143.129C57.4942 144.078 57.3749 144.887 57.1362 145.558C56.8976 146.225 56.5524 146.735 56.1007 147.088C55.649 147.437 55.1021 147.612 54.4601 147.612ZM54.4601 146.674C55.0965 146.674 55.5908 146.367 55.943 145.754C56.2953 145.14 56.4715 144.265 56.4715 143.129C56.4715 142.373 56.3905 141.73 56.2286 141.198C56.0695 140.667 55.8394 140.262 55.5382 139.984C55.2399 139.705 54.8805 139.566 54.4601 139.566C53.8294 139.566 53.3365 139.877 52.9814 140.5C52.6263 141.119 52.4487 141.995 52.4487 143.129C52.4487 143.884 52.5283 144.527 52.6874 145.055C52.8465 145.583 53.0752 145.985 53.3734 146.261C53.6746 146.536 54.0368 146.674 54.4601 146.674Z" fill="black"/>
<path d="M70.0811 58.875H84.3266" stroke="black"/>
<path d="M34.1032 53.7403V62.4675H33.0464V54.8482H32.9953L30.8646 56.263V55.1891L33.0464 53.7403H34.1032ZM39.4597 62.5868C38.8177 62.5868 38.2708 62.4121 37.8191 62.0627C37.3674 61.7104 37.0222 61.2005 36.7836 60.5329C36.545 59.8624 36.4256 59.0528 36.4256 58.1039C36.4256 57.1607 36.545 56.3553 36.7836 55.6877C37.0251 55.0172 37.3717 54.5059 37.8234 54.1536C38.2779 53.7985 38.8234 53.6209 39.4597 53.6209C40.0961 53.6209 40.6401 53.7985 41.0918 54.1536C41.5464 54.5059 41.893 55.0172 42.1316 55.6877C42.3731 56.3553 42.4938 57.1607 42.4938 58.1039C42.4938 59.0528 42.3745 59.8624 42.1359 60.5329C41.8972 61.2005 41.5521 61.7104 41.1004 62.0627C40.6487 62.4121 40.1018 62.5868 39.4597 62.5868ZM39.4597 61.6493C40.0961 61.6493 40.5904 61.3425 40.9427 60.7289C41.295 60.1153 41.4711 59.2403 41.4711 58.1039C41.4711 57.3482 41.3901 56.7047 41.2282 56.1735C41.0691 55.6422 40.839 55.2374 40.5379 54.959C40.2396 54.6806 39.8802 54.5414 39.4597 54.5414C38.8291 54.5414 38.3362 54.8525 37.981 55.4746C37.6259 56.0939 37.4484 56.9704 37.4484 58.1039C37.4484 58.8596 37.5279 59.5016 37.687 60.03C37.8461 60.5584 38.0748 60.9604 38.3731 61.236C38.6742 61.5116 39.0364 61.6493 39.4597 61.6493ZM46.9597 62.5868C46.3177 62.5868 45.7708 62.4121 45.3191 62.0627C44.8674 61.7104 44.5222 61.2005 44.2836 60.5329C44.045 59.8624 43.9256 59.0528 43.9256 58.1039C43.9256 57.1607 44.045 56.3553 44.2836 55.6877C44.5251 55.0172 44.8717 54.5059 45.3234 54.1536C45.7779 53.7985 46.3234 53.6209 46.9597 53.6209C47.5961 53.6209 48.1401 53.7985 48.5918 54.1536C49.0464 54.5059 49.393 55.0172 49.6316 55.6877C49.8731 56.3553 49.9938 57.1607 49.9938 58.1039C49.9938 59.0528 49.8745 59.8624 49.6359 60.5329C49.3972 61.2005 49.0521 61.7104 48.6004 62.0627C48.1487 62.4121 47.6018 62.5868 46.9597 62.5868ZM46.9597 61.6493C47.5961 61.6493 48.0904 61.3425 48.4427 60.7289C48.795 60.1153 48.9711 59.2403 48.9711 58.1039C48.9711 57.3482 48.8901 56.7047 48.7282 56.1735C48.5691 55.6422 48.339 55.2374 48.0379 54.959C47.7396 54.6806 47.3802 54.5414 46.9597 54.5414C46.3291 54.5414 45.8362 54.8525 45.481 55.4746C45.1259 56.0939 44.9484 56.9704 44.9484 58.1039C44.9484 58.8596 45.0279 59.5016 45.187 60.03C45.3461 60.5584 45.5748 60.9604 45.8731 61.236C46.1742 61.5116 46.5364 61.6493 46.9597 61.6493ZM54.4597 62.5868C53.8177 62.5868 53.2708 62.4121 52.8191 62.0627C52.3674 61.7104 52.0222 61.2005 51.7836 60.5329C51.545 59.8624 51.4256 59.0528 51.4256 58.1039C51.4256 57.1607 51.545 56.3553 51.7836 55.6877C52.0251 55.0172 52.3717 54.5059 52.8234 54.1536C53.2779 53.7985 53.8234 53.6209 54.4597 53.6209C55.0961 53.6209 55.6401 53.7985 56.0918 54.1536C56.5464 54.5059 56.893 55.0172 57.1316 55.6877C57.3731 56.3553 57.4938 57.1607 57.4938 58.1039C57.4938 59.0528 57.3745 59.8624 57.1359 60.5329C56.8972 61.2005 56.5521 61.7104 56.1004 62.0627C55.6487 62.4121 55.1018 62.5868 54.4597 62.5868ZM54.4597 61.6493C55.0961 61.6493 55.5904 61.3425 55.9427 60.7289C56.295 60.1153 56.4711 59.2403 56.4711 58.1039C56.4711 57.3482 56.3901 56.7047 56.2282 56.1735C56.0691 55.6422 55.839 55.2374 55.5379 54.959C55.2396 54.6806 54.8802 54.5414 54.4597 54.5414C53.8291 54.5414 53.3362 54.8525 52.981 55.4746C52.6259 56.0939 52.4484 56.9704 52.4484 58.1039C52.4484 58.8596 52.5279 59.5016 52.687 60.03C52.8461 60.5584 53.0748 60.9604 53.3731 61.236C53.6742 61.5116 54.0364 61.6493 54.4597 61.6493Z" fill="black"/>
<path d="M84.3262 438.875H1504.13" stroke="#CCCCCC"/>
<path d="M84.3262 343.875H1504.13" stroke="#CCCCCC"/>
<path d="M84.3262 248.875H1504.13" stroke="#CCCCCC"/>
<path d="M84.3262 153.875H1504.13" stroke="#CCCCCC"/>
<path d="M84.3262 58.875H1504.13" stroke="#CCCCCC"/>
<path d="M84.3262 58.875V438.875" stroke="#CCCCCC"/>
<path d="M185.74 58.875V438.875" stroke="#CCCCCC"/>
<path d="M287.155 58.875V438.875" stroke="#CCCCCC"/>
<path d="M388.569 58.875V438.875" stroke="#CCCCCC"/>
<path d="M489.984 58.875V438.875" stroke="#CCCCCC"/>
<path d="M591.398 58.875V438.875" stroke="#CCCCCC"/>
<path d="M692.812 58.875V438.875" stroke="#CCCCCC"/>
<path d="M84.3262 276.995L185.741 408.475L287.155 92.6951L388.57 181.235L489.984 220.375L591.398 391.375L692.813 167.555L794.227 351.095L895.642 284.215L997.056 315.375L1098.47 294.095L1199.89 238.995L1301.3 265.215L1402.71 433.175L1504.13 293.715" stroke="#0802F8"/>
<path d="M84.3259 284.12C88.2597 284.12 91.4486 280.93 91.4486 276.995C91.4486 273.06 88.2597 269.87 84.3259 269.87C80.3921 269.87 77.2031 273.06 77.2031 276.995C77.2031 280.93 80.3921 284.12 84.3259 284.12Z" fill="white" stroke="#0802F8"/>
<path d="M185.74 415.6C189.674 415.6 192.863 412.41 192.863 408.475C192.863 404.54 189.674 401.35 185.74 401.35C181.806 401.35 178.617 404.54 178.617 408.475C178.617 412.41 181.806 415.6 185.74 415.6Z" fill="white" stroke="#0802F8"/>
<path d="M287.155 99.8201C291.089 99.8201 294.278 96.6301 294.278 92.6951C294.278 88.76 291.089 85.5701 287.155 85.5701C283.221 85.5701 280.032 88.76 280.032 92.6951C280.032 96.6301 283.221 99.8201 287.155 99.8201Z" fill="white" stroke="#0802F8"/>
<path d="M388.569 188.36C392.503 188.36 395.692 185.17 395.692 181.235C395.692 177.3 392.503 174.11 388.569 174.11C384.635 174.11 381.446 177.3 381.446 181.235C381.446 185.17 384.635 188.36 388.569 188.36Z" fill="white" stroke="#0802F8"/>
<path d="M489.984 227.5C493.918 227.5 497.107 224.31 497.107 220.375C497.107 216.44 493.918 213.25 489.984 213.25C486.05 213.25 482.861 216.44 482.861 220.375C482.861 224.31 486.05 227.5 489.984 227.5Z" fill="white" stroke="#0802F8"/>
<path d="M591.398 398.5C595.332 398.5 598.521 395.31 598.521 391.375C598.521 387.44 595.332 384.25 591.398 384.25C587.464 384.25 584.275 387.44 584.275 391.375C584.275 395.31 587.464 398.5 591.398 398.5Z" fill="white" stroke="#0802F8"/>
<path d="M692.812 174.68C696.746 174.68 699.935 171.49 699.935 167.555C699.935 163.62 696.746 160.43 692.812 160.43C688.878 160.43 685.689 163.62 685.689 167.555C685.689 171.49 688.878 174.68 692.812 174.68Z" fill="white" stroke="#0802F8"/>
<path d="M84.3262 303.215L185.741 90.415L287.155 95.735L388.57 173.635L489.984 385.295L591.398 90.035L692.813 59.635L794.227 409.615L895.642 427.855L997.056 153.115L1098.47 64.575L1199.89 251.535L1301.3 117.775L1402.71 411.515L1504.13 242.795" stroke="#91EC78"/>
<path d="M84.3259 310.34C88.2597 310.34 91.4486 307.15 91.4486 303.215C91.4486 299.28 88.2597 296.09 84.3259 296.09C80.3921 296.09 77.2031 299.28 77.2031 303.215C77.2031 307.15 80.3921 310.34 84.3259 310.34Z" fill="white" stroke="#91EC78"/>
<path d="M185.74 97.54C189.674 97.54 192.863 94.3501 192.863 90.415C192.863 86.48 189.674 83.29 185.74 83.29C181.806 83.29 178.617 86.48 178.617 90.415C178.617 94.3501 181.806 97.54 185.74 97.54Z" fill="white" stroke="#91EC78"/>
<path d="M287.155 102.86C291.089 102.86 294.278 99.6701 294.278 95.7351C294.278 91.8001 291.089 88.6101 287.155 88.6101C283.221 88.6101 280.032 91.8001 280.032 95.7351C280.032 99.6701 283.221 102.86 287.155 102.86Z" fill="white" stroke="#91EC78"/>
<path d="M388.569 180.76C392.503 180.76 395.692 177.57 395.692 173.635C395.692 169.7 392.503 166.51 388.569 166.51C384.635 166.51 381.446 169.7 381.446 173.635C381.446 177.57 384.635 180.76 388.569 180.76Z" fill="white" stroke="#91EC78"/>
<path d="M489.984 392.42C493.918 392.42 497.107 389.23 497.107 385.295C497.107 381.36 493.918 378.17 489.984 378.17C486.05 378.17 482.861 381.36 482.861 385.295C482.861 389.23 486.05 392.42 489.984 392.42Z" fill="white" stroke="#91EC78"/>
<path d="M591.398 97.1599C595.332 97.1599 598.521 93.9699 598.521 90.0349C598.521 86.0999 595.332 82.9099 591.398 82.9099C587.464 82.9099 584.275 86.0999 584.275 90.0349C584.275 93.9699 587.464 97.1599 591.398 97.1599Z" fill="white" stroke="#91EC78"/>
<path d="M692.812 66.76C696.746 66.76 699.935 63.57 699.935 59.635C699.935 55.7 696.746 52.51 692.812 52.51C688.878 52.51 685.689 55.7 685.689 59.635C685.689 63.57 688.878 66.76 692.812 66.76Z" fill="white" stroke="#91EC78"/>
<path d="M84.3262 215.435L185.741 417.975L287.155 295.995L388.57 406.955L489.984 108.655L591.398 59.2549L692.813 253.815L794.227 265.975L895.642 139.435L997.056 228.735L1098.47 384.535L1199.89 299.795L1301.3 365.915L1402.71 199.475L1504.13 418.735" stroke="#993D39"/>
<path d="M84.3259 222.56C88.2597 222.56 91.4486 219.37 91.4486 215.435C91.4486 211.5 88.2597 208.31 84.3259 208.31C80.3921 208.31 77.2031 211.5 77.2031 215.435C77.2031 219.37 80.3921 222.56 84.3259 222.56Z" fill="white" stroke="#993D39"/>
<path d="M185.74 425.1C189.674 425.1 192.863 421.91 192.863 417.975C192.863 414.04 189.674 410.85 185.74 410.85C181.806 410.85 178.617 414.04 178.617 417.975C178.617 421.91 181.806 425.1 185.74 425.1Z" fill="white" stroke="#993D39"/>
<path d="M287.155 303.12C291.089 303.12 294.278 299.93 294.278 295.995C294.278 292.06 291.089 288.87 287.155 288.87C283.221 288.87 280.032 292.06 280.032 295.995C280.032 299.93 283.221 303.12 287.155 303.12Z" fill="white" stroke="#993D39"/>
<path d="M388.569 414.08C392.503 414.08 395.692 410.89 395.692 406.955C395.692 403.02 392.503 399.83 388.569 399.83C384.635 399.83 381.446 403.02 381.446 406.955C381.446 410.89 384.635 414.08 388.569 414.08Z" fill="white" stroke="#993D39"/>
<path d="M489.984 115.78C493.918 115.78 497.107 112.59 497.107 108.655C497.107 104.72 493.918 101.53 489.984 101.53C486.05 101.53 482.861 104.72 482.861 108.655C482.861 112.59 486.05 115.78 489.984 115.78Z" fill="white" stroke="#993D39"/>
<path d="M591.398 66.3799C595.332 66.3799 598.521 63.1899 598.521 59.2549C598.521 55.3199 595.332 52.1299 591.398 52.1299C587.464 52.1299 584.275 55.3199 584.275 59.2549C584.275 63.1899 587.464 66.3799 591.398 66.3799Z" fill="white" stroke="#993D39"/>
<path d="M692.812 260.94C696.746 260.94 699.935 257.75 699.935 253.815C699.935 249.88 696.746 246.69 692.812 246.69C688.878 246.69 685.689 249.88 685.689 253.815C685.689 257.75 688.878 260.94 692.812 260.94Z" fill="white" stroke="#993D39"/>
<path d="M84.3262 178.575L185.741 164.135L287.155 303.975L388.57 288.395L489.984 295.615L591.398 85.8549L692.813 402.775L794.227 354.135L895.642 200.995L997.056 93.4549L1098.47 79.0149L1199.89 186.175L1301.3 422.155L1402.71 275.475L1504.13 239.755" stroke="#378304"/>
<path d="M84.3259 185.7C88.2597 185.7 91.4486 182.51 91.4486 178.575C91.4486 174.64 88.2597 171.45 84.3259 171.45C80.3921 171.45 77.2031 174.64 77.2031 178.575C77.2031 182.51 80.3921 185.7 84.3259 185.7Z" fill="white" stroke="#378304"/>
<path d="M185.74 171.26C189.674 171.26 192.863 168.07 192.863 164.135C192.863 160.2 189.674 157.01 185.74 157.01C181.806 157.01 178.617 160.2 178.617 164.135C178.617 168.07 181.806 171.26 185.74 171.26Z" fill="white" stroke="#378304"/>
<path d="M287.155 311.1C291.089 311.1 294.278 307.91 294.278 303.975C294.278 300.04 291.089 296.85 287.155 296.85C283.221 296.85 280.032 300.04 280.032 303.975C280.032 307.91 283.221 311.1 287.155 311.1Z" fill="white" stroke="#378304"/>
<path d="M388.569 295.52C392.503 295.52 395.692 292.33 395.692 288.395C395.692 284.46 392.503 281.27 388.569 281.27C384.635 281.27 381.446 284.46 381.446 288.395C381.446 292.33 384.635 295.52 388.569 295.52Z" fill="white" stroke="#378304"/>
<path d="M489.984 302.74C493.918 302.74 497.107 299.55 497.107 295.615C497.107 291.68 493.918 288.49 489.984 288.49C486.05 288.49 482.861 291.68 482.861 295.615C482.861 299.55 486.05 302.74 489.984 302.74Z" fill="white" stroke="#378304"/>
<path d="M591.398 92.98C595.332 92.98 598.521 89.79 598.521 85.855C598.521 81.92 595.332 78.73 591.398 78.73C587.464 78.73 584.275 81.92 584.275 85.855C584.275 89.79 587.464 92.98 591.398 92.98Z" fill="white" stroke="#378304"/>
<path d="M692.812 409.9C696.746 409.9 699.935 406.71 699.935 402.775C699.935 398.84 696.746 395.65 692.812 395.65C688.878 395.65 685.689 398.84 685.689 402.775C685.689 406.71 688.878 409.9 692.812 409.9Z" fill="white" stroke="#378304"/>
</g>
</g>
<defs>
<filter id="filter0_d_1668_3296" x="0" y="0" width="801" height="546" filterUnits="userSpaceOnUse" color-interpolation-filters="sRGB">
<feFlood flood-opacity="0" result="BackgroundImageFix"/>
<feColorMatrix in="SourceAlpha" type="matrix" values="0 0 0 0 0 0 0 0 0 0 0 0 0 0 0 0 0 0 127 0" result="hardAlpha"/>
<feOffset dy="4"/>
<feGaussianBlur stdDeviation="10"/>
<feComposite in2="hardAlpha" operator="out"/>
<feColorMatrix type="matrix" values="0 0 0 0 0.00392157 0 0 0 0 0.0705882 0 0 0 0 0.133333 0 0 0 0.05 0"/>
<feBlend mode="normal" in2="BackgroundImageFix" result="effect1_dropShadow_1668_3296"/>
<feBlend mode="normal" in="SourceGraphic" in2="effect1_dropShadow_1668_3296" result="shape"/>
</filter>
<clipPath id="clip0_1668_3296">
<rect x="20" y="16" width="761" height="506" rx="20" fill="white"/>
</clipPath>
</defs>
</svg>
