<svg width="386" height="263" viewBox="0 0 386 263" fill="none" xmlns="http://www.w3.org/2000/svg">
<path d="M385.397 0.929443L0.30957 0.929443L0.30957 262.698H385.397V0.929443Z" fill="#004EFF"/>
<path opacity="0.5" d="M385.397 0.929443L0.30957 0.929443L0.30957 262.698H385.397V0.929443Z" fill="white"/>
<path d="M0.30957 0.929443L0.30957 18.9697H56.042V12.0429C56.042 11.2241 56.2032 10.4133 56.5162 9.65678C56.8293 8.90027 57.2881 8.21289 57.8666 7.63389C58.445 7.05488 59.1318 6.59559 59.8876 6.28223C60.6434 5.96888 61.4534 5.8076 62.2715 5.8076L113.834 5.8076C115.486 5.8076 117.071 6.46454 118.239 7.63389C119.407 8.80324 120.063 10.3892 120.063 12.0429V18.9697L385.397 18.9697V0.929443L0.30957 0.929443Z" fill="#004EFF"/>
<path opacity="0.7" d="M16.3758 9.94316C16.3783 10.7642 16.1374 11.5675 15.6835 12.2513C15.2297 12.9352 14.5833 13.4689 13.8262 13.7849C13.0691 14.1008 12.2354 14.1848 11.4307 14.0262C10.6259 13.8676 9.88622 13.4735 9.30533 12.8938C8.72444 12.3142 8.32844 11.575 8.16749 10.77C8.00654 9.96495 8.08786 9.1302 8.40116 8.37144C8.71447 7.61268 9.24566 6.96403 9.92748 6.50764C10.6093 6.05124 11.4111 5.80762 12.2313 5.80762C13.3283 5.80761 14.3805 6.24291 15.1574 7.01811C15.9343 7.79331 16.3724 8.84517 16.3758 9.94316Z" fill="white"/>
<path opacity="0.7" d="M24.6522 14.0787C26.934 14.0787 28.7838 12.2272 28.7838 9.94316C28.7838 7.65916 26.934 5.80762 24.6522 5.80762C22.3703 5.80762 20.5205 7.65916 20.5205 9.94316C20.5205 12.2272 22.3703 14.0787 24.6522 14.0787Z" fill="white"/>
<path opacity="0.7" d="M41.2039 9.9431C41.2064 10.7625 40.9664 11.5642 40.5142 12.2472C40.062 12.9303 39.4179 13.4639 38.6631 13.781C37.9082 14.098 37.0765 14.1842 36.2728 14.0287C35.4691 13.8731 34.7294 13.4829 34.147 12.9071C33.5646 12.3313 33.1656 11.5957 33.0004 10.7932C32.8351 9.99072 32.911 9.15721 33.2184 8.39781C33.5258 7.63842 34.051 6.98716 34.7278 6.52618C35.4045 6.0652 36.2025 5.81514 37.0211 5.80755C37.5675 5.80248 38.1095 5.90562 38.6159 6.11102C39.1223 6.31643 39.5832 6.62004 39.972 7.0044C40.3607 7.38876 40.6697 7.84627 40.8811 8.35061C41.0925 8.85495 41.2022 9.39616 41.2039 9.9431Z" fill="white"/>
<path opacity="0.7" d="M72.3387 14.0915C72.3387 14.912 72.0956 15.714 71.6402 16.3962C71.1848 17.0784 70.5375 17.6101 69.7802 17.9241C69.0229 18.2381 68.1896 18.3202 67.3857 18.1601C66.5817 18.0001 65.8433 17.605 65.2637 17.0248C64.6841 16.4447 64.2894 15.7055 64.1294 14.9008C63.9695 14.0961 64.0516 13.262 64.3653 12.504C64.679 11.746 65.2102 11.0981 65.8917 10.6423C66.5733 10.1864 67.3745 9.94314 68.1942 9.94314C68.739 9.94144 69.2786 10.0476 69.7822 10.2555C70.2858 10.4633 70.7434 10.7688 71.1286 11.1544C71.5138 11.5399 71.819 11.9979 72.0266 12.502C72.2343 13.0061 72.3404 13.5463 72.3387 14.0915Z" fill="white"/>
<path opacity="0.5" d="M385.397 54.2563L0.30957 54.2563L0.30957 262.686H385.397V54.2563Z" fill="white"/>
<path d="M324.113 44.9609H72.581C70.5206 44.9576 68.5457 44.1359 67.0899 42.6764C65.6342 41.2168 64.8166 39.2388 64.8166 37.1764C64.8098 36.1515 65.0057 35.1353 65.3929 34.1865C65.78 33.2377 66.3509 32.3749 67.0726 31.6478C67.7942 30.9207 68.6524 30.3436 69.5978 29.9498C70.5432 29.5561 71.5571 29.3534 72.581 29.3534L324.113 29.3534C326.173 29.3534 328.149 30.1718 329.607 31.6289C331.066 33.086 331.886 35.0628 331.89 37.1252C331.897 38.1517 331.7 39.1695 331.313 40.1199C330.925 41.0703 330.353 41.9345 329.63 42.6628C328.907 43.3911 328.048 43.9691 327.101 44.3635C326.154 44.7579 325.138 44.961 324.113 44.9609Z" fill="white"/>
<path d="M56.784 78.8519H16.1327C14.0022 78.8519 11.9589 78.0048 10.4524 76.4969C8.94595 74.989 8.09961 72.9438 8.09961 70.8113C8.09961 68.6788 8.94595 66.6336 10.4524 65.1257C11.9589 63.6178 14.0022 62.7706 16.1327 62.7706H56.784C58.9145 62.7706 60.9577 63.6178 62.4642 65.1257C63.9707 66.6336 64.817 68.6788 64.817 70.8113C64.817 72.9438 63.9707 74.989 62.4642 76.4969C60.9577 78.0048 58.9145 78.8519 56.784 78.8519Z" fill="#263238"/>
<path d="M318.024 89.9654H94.1734C90.5706 89.9654 87.1153 88.5328 84.5677 85.9828C82.0201 83.4328 80.5889 79.9743 80.5889 76.368C80.5889 72.7618 82.0201 69.3032 84.5677 66.7532C87.1153 64.2032 90.5706 62.7706 94.1734 62.7706H318.024C319.809 62.769 321.576 63.1195 323.225 63.8023C324.874 64.485 326.372 65.4865 327.634 66.7495C328.896 68.0124 329.896 69.5121 330.578 71.1625C331.26 72.813 331.61 74.5819 331.609 76.368C331.61 78.1541 331.26 79.923 330.578 81.5735C329.896 83.224 328.896 84.7236 327.634 85.9866C326.372 87.2496 324.874 88.2511 323.225 88.9338C321.576 89.6165 319.809 89.9671 318.024 89.9654Z" fill="white"/>
<path d="M353.406 122.192H316.17V159.463H353.406V122.192Z" fill="white"/>
<path d="M307.894 122.192H270.658V159.463H307.894V122.192Z" fill="white"/>
<path d="M196.16 149.412H79.9873V159.54H196.16V149.412Z" fill="#004EFF"/>
<path opacity="0.1" d="M196.16 149.412H79.9873V159.54H196.16V149.412Z" fill="black"/>
<path d="M357.972 176.902H265.08V187.029H357.972V176.902Z" fill="#004EFF"/>
<path opacity="0.1" d="M357.972 176.902H265.08V187.029H357.972V176.902Z" fill="black"/>
<path d="M231.234 169.207H79.9873V172.382H231.234V169.207Z" fill="#263238"/>
<path d="M111.071 12.5039H79.9873V15.6792H111.071V12.5039Z" fill="#263238"/>
<path d="M207.454 182.113H79.9873V185.288H207.454V182.113Z" fill="#263238"/>
<path d="M196.16 211.804H79.9873V221.932H196.16V211.804Z" fill="#004EFF"/>
<path opacity="0.1" d="M196.16 211.804H79.9873V221.932H196.16V211.804Z" fill="black"/>
<path d="M231.234 231.611H79.9873V234.787H231.234V231.611Z" fill="#263238"/>
<path d="M207.454 244.517H79.9873V247.693H207.454V244.517Z" fill="#263238"/>
<path d="M357.972 196.568H265.08V199.743H357.972V196.568Z" fill="#263238"/>
<path d="M340.818 209.474H265.08V212.649H340.818V209.474Z" fill="#263238"/>
<path d="M367.539 248.845H255.908V111.578H367.539V248.845ZM257.827 246.924H365.621V113.498H257.827V246.924Z" fill="#004EFF"/>
<path d="M309.018 80.8366C307.857 80.8379 306.712 80.5523 305.687 80.0051C304.662 79.4578 303.788 78.6659 303.142 77.6995C302.496 76.733 302.098 75.6219 301.984 74.4647C301.869 73.3075 302.042 72.1399 302.486 71.0655C302.931 69.991 303.633 69.043 304.531 68.3053C305.429 67.5677 306.495 67.0633 307.635 66.8368C308.774 66.6103 309.952 66.6687 311.064 67.0069C312.175 67.3451 313.186 67.9526 314.007 68.7756C314.993 69.764 315.664 71.0226 315.936 72.3924C316.208 73.7623 316.068 75.1821 315.534 76.4725C315 77.7629 314.097 78.8661 312.937 79.6428C311.777 80.4195 310.414 80.8349 309.018 80.8366ZM309.018 67.9178C307.663 67.9186 306.35 68.3898 305.303 69.2511C304.256 70.1124 303.539 71.3104 303.276 72.6411C303.012 73.9719 303.217 75.3529 303.857 76.549C304.496 77.7451 305.531 78.6822 306.783 79.2007C308.036 79.7191 309.429 79.7869 310.726 79.3924C312.022 78.9979 313.142 78.1656 313.895 77.0373C314.647 75.9089 314.986 74.5543 314.852 73.2043C314.719 71.8542 314.122 70.5923 313.163 69.6334C312.62 69.0873 311.974 68.6545 311.262 68.36C310.551 68.0655 309.788 67.9152 309.018 67.9178Z" fill="#004EFF"/>
<path d="M315.717 79.6227L314.867 80.4738L320.629 86.2408L321.479 85.3898L315.717 79.6227Z" fill="#004EFF"/>
<path d="M314.227 78.1354L313.377 78.9865L315.493 81.105L316.344 80.2539L314.227 78.1354Z" fill="#004EFF"/>
<path d="M84.145 106.661C83.7099 106.662 83.279 106.577 82.8772 106.41C82.4753 106.243 82.1106 105.997 81.8042 105.688C81.1817 105.067 80.8313 104.223 80.8301 103.343C80.8289 102.463 81.177 101.619 81.7978 100.996C82.4186 100.373 83.2613 100.022 84.1405 100.021C85.0197 100.019 85.8634 100.368 86.4859 100.989C87.1069 101.613 87.4555 102.458 87.4555 103.339C87.4555 104.219 87.1069 105.064 86.4859 105.688C86.1795 105.997 85.8148 106.243 85.4129 106.41C85.0111 106.577 84.5801 106.662 84.145 106.661ZM84.145 100.733C83.8023 100.731 83.4626 100.798 83.1461 100.93C82.8297 101.062 82.543 101.256 82.3031 101.501C82.0555 101.74 81.8585 102.027 81.724 102.343C81.5895 102.66 81.5202 103.001 81.5202 103.345C81.5202 103.689 81.5895 104.03 81.724 104.347C81.8585 104.664 82.0555 104.95 82.3031 105.189C82.5441 105.432 82.8313 105.623 83.1476 105.753C83.464 105.883 83.8032 105.948 84.145 105.944C84.669 105.967 85.1872 105.828 85.6295 105.546C86.0718 105.264 86.4168 104.852 86.6178 104.367C86.8188 103.883 86.8661 103.348 86.7533 102.835C86.6404 102.322 86.373 101.857 85.987 101.501C85.7471 101.256 85.4604 101.062 85.1439 100.93C84.8275 100.798 84.4878 100.731 84.145 100.733Z" fill="#004EFF"/>
<path d="M87.2692 105.961L86.7627 106.468L89.4038 109.112L89.9103 108.605L87.2692 105.961Z" fill="#004EFF"/>
<path d="M86.5046 105.386L86.1699 105.721L87.1376 106.69L87.4723 106.355L86.5046 105.386Z" fill="#004EFF"/>
<path d="M94.3525 78.2118L94.57 77.8405C95.1729 78.4042 95.9708 78.7117 96.7957 78.6983C98.1516 78.6983 98.7528 78.1094 98.7528 77.418C98.7528 75.395 94.5316 76.6114 94.5316 74.1147C94.5316 73.1544 95.2607 72.3222 96.9236 72.3222C97.6463 72.3158 98.3544 72.5253 98.9575 72.9239L98.7784 73.3208C98.2291 72.9543 97.5838 72.7583 96.9236 72.7575C95.6445 72.7575 95.0177 73.3592 95.0177 74.0378C95.0177 76.0736 99.2389 74.8701 99.2389 77.3284C99.2389 78.2886 98.4842 79.1209 96.8085 79.1209C95.9026 79.1509 95.021 78.8246 94.3525 78.2118Z" fill="#263238"/>
<path d="M105.02 76.7266H100.684C100.719 77.1456 100.876 77.5453 101.134 77.8767C101.393 78.2081 101.742 78.457 102.14 78.5928C102.538 78.7287 102.966 78.7456 103.373 78.6415C103.78 78.5375 104.148 78.3169 104.432 78.0069L104.713 78.327C104.476 78.5959 104.182 78.8088 103.852 78.9505C103.523 79.0921 103.166 79.1591 102.808 79.1464C102.469 79.1571 102.131 79.0981 101.816 78.9732C101.501 78.8483 101.215 78.6601 100.975 78.4201C100.735 78.1802 100.547 77.8936 100.422 77.5781C100.297 77.2626 100.239 76.9249 100.249 76.5857C100.23 76.2563 100.278 75.9264 100.391 75.6164C100.504 75.3063 100.679 75.0226 100.906 74.7828C101.132 74.543 101.405 74.352 101.708 74.2217C102.011 74.0914 102.337 74.0244 102.667 74.025C102.997 74.0205 103.325 74.0849 103.629 74.214C103.933 74.3432 104.207 74.5343 104.433 74.7752C104.659 75.016 104.833 75.3014 104.943 75.6131C105.053 75.9248 105.096 76.2561 105.072 76.5857C105.072 76.5857 105.02 76.6241 105.02 76.7266ZM100.697 76.3553H104.534C104.48 75.8841 104.254 75.4494 103.901 75.1339C103.547 74.8184 103.089 74.644 102.616 74.644C102.142 74.644 101.685 74.8184 101.331 75.1339C100.977 75.4494 100.751 75.8841 100.697 76.3553Z" fill="#263238"/>
<path d="M110.035 75.8815V79.0823H109.562V78.1861C109.375 78.4952 109.107 78.7463 108.786 78.9114C108.465 79.0764 108.105 79.1489 107.745 79.1208C106.619 79.1208 105.929 78.5446 105.929 77.674C105.929 76.8033 106.415 76.2656 107.822 76.2656H109.549V75.8687C109.579 75.6672 109.56 75.4616 109.494 75.2688C109.429 75.076 109.318 74.9016 109.172 74.7602C109.026 74.6187 108.848 74.5142 108.653 74.4554C108.458 74.3965 108.252 74.385 108.052 74.4218C107.413 74.4101 106.792 74.6385 106.312 75.062L106.069 74.7163C106.635 74.2409 107.352 73.9863 108.09 73.9993C108.349 73.9628 108.612 73.9857 108.86 74.0664C109.108 74.147 109.335 74.2833 109.522 74.4648C109.71 74.6463 109.853 74.8683 109.942 75.1138C110.031 75.3593 110.063 75.6218 110.035 75.8815ZM109.549 77.5971V76.6497H107.822C106.786 76.6497 106.415 77.085 106.415 77.6612C106.415 78.2373 106.926 78.7238 107.822 78.7238C108.192 78.7448 108.559 78.6468 108.87 78.4441C109.181 78.2414 109.418 77.9446 109.549 77.5971Z" fill="#263238"/>
<path d="M114.41 73.9994V74.4731H114.294C113.169 74.4731 112.504 75.2157 112.504 76.4705V79.0952H112.018V74.0378H112.491V75.1389C112.652 74.7724 112.924 74.4656 113.268 74.2613C113.612 74.057 114.011 73.9654 114.41 73.9994Z" fill="#263238"/>
<path d="M115.139 76.5601C115.124 76.22 115.181 75.8805 115.304 75.5633C115.428 75.246 115.616 74.9579 115.856 74.7172C116.097 74.4765 116.384 74.2884 116.701 74.1648C117.018 74.0412 117.357 73.9849 117.697 73.9994C118.067 73.979 118.436 74.053 118.769 74.2142C119.102 74.3754 119.389 74.6187 119.603 74.9213L119.245 75.1901C119.07 74.9459 118.836 74.749 118.566 74.6172C118.296 74.4853 117.998 74.4227 117.697 74.4347C117.134 74.4347 116.594 74.6586 116.196 75.0572C115.798 75.4558 115.574 75.9964 115.574 76.5601C115.574 77.1238 115.798 77.6644 116.196 78.063C116.594 78.4616 117.134 78.6855 117.697 78.6855C117.998 78.6976 118.296 78.6349 118.566 78.5031C118.836 78.3712 119.07 78.1744 119.245 77.9301L119.603 78.199C119.387 78.4989 119.099 78.7403 118.767 78.9012C118.434 79.0622 118.066 79.1376 117.697 79.1208C117.358 79.1334 117.02 79.0757 116.704 78.9515C116.388 78.8273 116.1 78.6391 115.86 78.3987C115.62 78.1584 115.432 77.8711 115.308 77.5547C115.184 77.2384 115.126 76.8998 115.139 76.5601Z" fill="#263238"/>
<path d="M125.487 76.1375V79.0823H125.001V76.1759C125.032 75.9488 125.012 75.7175 124.942 75.4991C124.873 75.2806 124.755 75.0806 124.598 74.9136C124.441 74.7466 124.249 74.617 124.035 74.5341C123.822 74.4512 123.592 74.4172 123.364 74.4347C123.104 74.4167 122.844 74.4556 122.601 74.5484C122.359 74.6412 122.139 74.7859 121.957 74.9723C121.776 75.1587 121.637 75.3824 121.551 75.6278C121.465 75.8733 121.433 76.1346 121.458 76.3936V79.0823H120.972V71.9124H121.445V75.0876C121.636 74.7346 121.924 74.4441 122.276 74.2511C122.628 74.0581 123.028 73.9706 123.428 73.9993C123.711 73.9742 123.997 74.0128 124.263 74.1126C124.53 74.2123 124.771 74.3705 124.968 74.5755C125.166 74.7806 125.315 75.0273 125.405 75.2976C125.494 75.5679 125.523 75.8549 125.487 76.1375Z" fill="#263238"/>
<path d="M80.5125 37.1764V40.1212H80.0264V37.2148C80.0601 36.9872 80.0418 36.7549 79.973 36.5353C79.9042 36.3158 79.7866 36.1147 79.6291 35.9472C79.4716 35.7796 79.2781 35.65 79.0634 35.5679C78.8486 35.4859 78.6181 35.4536 78.3891 35.4735C78.1303 35.4578 77.8711 35.4981 77.6293 35.5917C77.3875 35.6853 77.1687 35.83 76.9878 36.016C76.8069 36.2019 76.6682 36.4246 76.5811 36.6691C76.494 36.9135 76.4606 37.1739 76.4832 37.4324V40.1212H75.9971V32.9512H76.4832V36.1265C76.6741 35.7734 76.9626 35.4829 77.3143 35.2899C77.666 35.0969 78.0658 35.0095 78.4658 35.0382C78.7483 35.015 79.0323 35.0552 79.2973 35.1558C79.5622 35.2564 79.8015 35.4149 79.9975 35.6197C80.1936 35.8246 80.3415 36.0706 80.4306 36.3398C80.5197 36.6091 80.5476 36.8949 80.5125 37.1764Z" fill="#263238"/>
<path d="M85.0279 39.8011C84.7397 40.0463 84.3699 40.1743 83.9918 40.1596C83.8087 40.1729 83.6248 40.1467 83.4527 40.0825C83.2806 40.0184 83.1243 39.9179 82.9944 39.788C82.8646 39.658 82.7642 39.5015 82.7001 39.3293C82.6361 39.157 82.6098 38.9729 82.6231 38.7896V35.4863H81.7021V35.0766H82.6231V33.9755H83.0708V35.0766H84.6698V35.4863H83.0708V38.7384C83.0708 39.3914 83.3906 39.7499 84.0046 39.7499C84.2908 39.7575 84.5694 39.657 84.7849 39.4682L85.0279 39.8011Z" fill="#263238"/>
<path d="M88.7369 39.8011C88.4526 40.0444 88.0875 40.1723 87.7136 40.1596C87.5294 40.1749 87.3441 40.1501 87.1704 40.0868C86.9968 40.0235 86.8388 39.9234 86.7075 39.7932C86.5762 39.663 86.4747 39.5058 86.4099 39.3326C86.3451 39.1593 86.3186 38.9741 86.3321 38.7896V35.4863H85.4111V35.0766H86.3321V33.9755H86.8182V35.0766H88.4171V35.4863H86.8182V38.7384C86.8182 39.3914 87.138 39.7499 87.752 39.7499C88.0416 39.7547 88.3232 39.6546 88.545 39.4682L88.7369 39.8011Z" fill="#263238"/>
<path d="M95.107 37.5989C95.1248 37.9345 95.073 38.27 94.9548 38.5845C94.8366 38.899 94.6546 39.1856 94.4202 39.4261C94.1859 39.6667 93.9043 39.8561 93.5932 39.9823C93.2821 40.1086 92.9483 40.1689 92.6127 40.1596C92.195 40.1695 91.7827 40.0635 91.4215 39.8533C91.0603 39.6432 90.7642 39.3371 90.5661 38.9689V42.0033H90.0928V35.0766H90.5533V36.2673C90.7362 35.8775 91.028 35.5491 91.3935 35.3219C91.759 35.0946 92.1825 34.9783 92.6127 34.987C92.9523 34.9791 93.2898 35.0421 93.6037 35.1721C93.9176 35.3021 94.2009 35.4962 94.4357 35.742C94.6704 35.9878 94.8513 36.2799 94.9669 36.5996C95.0825 36.9194 95.1302 37.2597 95.107 37.5989ZM94.6209 37.5989C94.6034 37.2006 94.4694 36.8161 94.2355 36.4934C94.0016 36.1706 93.6782 35.9236 93.3054 35.7832C92.9325 35.6428 92.5267 35.615 92.1383 35.7034C91.7498 35.7918 91.3958 35.9924 91.1203 36.2804C90.8447 36.5683 90.6597 36.9309 90.5882 37.3232C90.5168 37.7155 90.5619 38.1201 90.7182 38.4869C90.8744 38.8537 91.1348 39.1665 91.467 39.3865C91.7993 39.6064 92.1887 39.7239 92.5871 39.7243C92.8603 39.7249 93.1306 39.6693 93.3815 39.561C93.6323 39.4527 93.8583 39.294 94.0453 39.0948C94.2324 38.8955 94.3766 38.66 94.469 38.4026C94.5614 38.1453 94.6001 37.8718 94.5826 37.5989H94.6209Z" fill="#263238"/>
<path d="M95.8623 39.5194L96.0925 39.1225C96.611 39.5273 97.2514 39.744 97.9089 39.7371C98.9706 39.7371 99.3927 39.353 99.3927 38.7896C99.3927 37.3172 96.0542 38.4055 96.0542 36.421C96.0542 35.6527 96.6937 35.0382 97.9601 35.0382C98.5709 35.0277 99.1713 35.1969 99.687 35.5247L99.4695 35.9216C99.0239 35.61 98.4908 35.4486 97.9473 35.4607C96.9624 35.4607 96.5275 35.8704 96.5275 36.4082C96.5275 37.9318 99.8788 36.8563 99.8788 38.7768C99.8788 39.5962 99.1753 40.1596 97.8834 40.1596C97.1568 40.1804 96.4446 39.9548 95.8623 39.5194Z" fill="#263238"/>
<path d="M100.761 35.4479C100.761 35.3392 100.804 35.235 100.881 35.1582C100.957 35.0813 101.061 35.0382 101.17 35.0382C101.224 35.0364 101.278 35.0458 101.329 35.0657C101.379 35.0857 101.425 35.1158 101.463 35.1542C101.502 35.1926 101.532 35.2385 101.552 35.289C101.572 35.3395 101.581 35.3936 101.579 35.4479C101.579 35.5566 101.536 35.6608 101.46 35.7376C101.383 35.8144 101.279 35.8576 101.17 35.8576C101.061 35.8576 100.957 35.8144 100.881 35.7376C100.804 35.6608 100.761 35.5566 100.761 35.4479ZM100.761 39.7499C100.761 39.6412 100.804 39.537 100.881 39.4602C100.957 39.3833 101.061 39.3402 101.17 39.3402C101.279 39.3402 101.383 39.3833 101.46 39.4602C101.536 39.537 101.579 39.6412 101.579 39.7499C101.579 39.8586 101.536 39.9628 101.46 40.0396C101.383 40.1164 101.279 40.1596 101.17 40.1596C101.061 40.1596 100.957 40.1164 100.881 40.0396C100.804 39.9628 100.761 39.8586 100.761 39.7499Z" fill="#263238"/>
<path d="M105.519 31.978H105.967L102.782 41.0942H102.334L105.519 31.978Z" fill="#263238"/>
<path d="M108.001 31.978H108.449L105.264 41.0942H104.816L108.001 31.978Z" fill="#263238"/>
<path opacity="0.7" d="M111.583 103.614C111.583 104.435 111.339 105.238 110.883 105.92C110.427 106.603 109.779 107.134 109.021 107.448C108.263 107.761 107.429 107.843 106.625 107.682C105.821 107.521 105.082 107.124 104.503 106.543C103.924 105.961 103.53 105.221 103.372 104.416C103.214 103.61 103.297 102.775 103.613 102.018C103.929 101.26 104.462 100.613 105.145 100.159C105.828 99.7043 106.631 99.4632 107.451 99.4657C107.995 99.4657 108.533 99.5731 109.035 99.7817C109.537 99.9904 109.993 100.296 110.377 100.682C110.761 101.067 111.065 101.524 111.272 102.028C111.479 102.531 111.584 103.07 111.583 103.614Z" fill="#004EFF"/>
<path opacity="0.7" d="M132.727 103.614C132.727 104.435 132.484 105.238 132.028 105.92C131.572 106.603 130.924 107.134 130.166 107.448C129.408 107.761 128.574 107.843 127.77 107.682C126.965 107.521 126.227 107.124 125.648 106.543C125.069 105.961 124.675 105.221 124.517 104.416C124.358 103.61 124.442 102.775 124.758 102.018C125.073 101.26 125.606 100.613 126.29 100.159C126.973 99.7043 127.775 99.4632 128.596 99.4657C129.139 99.4657 129.678 99.5731 130.18 99.7817C130.682 99.9904 131.138 100.296 131.522 100.682C131.906 101.067 132.21 101.524 132.417 102.028C132.623 102.531 132.729 103.07 132.727 103.614Z" fill="#004EFF"/>
<path opacity="0.7" d="M153.871 103.614C153.871 104.435 153.628 105.238 153.172 105.92C152.716 106.603 152.068 107.134 151.31 107.448C150.551 107.761 149.718 107.843 148.913 107.682C148.109 107.521 147.37 107.124 146.791 106.543C146.212 105.961 145.819 105.221 145.66 104.416C145.502 103.61 145.586 102.775 145.901 102.018C146.217 101.26 146.75 100.613 147.433 100.159C148.116 99.7043 148.919 99.4632 149.739 99.4657C150.283 99.4657 150.821 99.5731 151.323 99.7817C151.825 99.9904 152.281 100.296 152.665 100.682C153.049 101.067 153.353 101.524 153.56 102.028C153.767 102.531 153.873 103.07 153.871 103.614Z" fill="#004EFF"/>
<path opacity="0.7" d="M175.015 103.614C175.015 104.435 174.772 105.238 174.316 105.92C173.86 106.603 173.212 107.134 172.454 107.448C171.696 107.761 170.862 107.843 170.058 107.682C169.253 107.521 168.515 107.124 167.936 106.543C167.357 105.961 166.963 105.221 166.805 104.416C166.646 103.61 166.73 102.775 167.046 102.018C167.361 101.26 167.895 100.613 168.578 100.159C169.261 99.7043 170.064 99.4632 170.884 99.4657C171.427 99.4657 171.966 99.5731 172.468 99.7817C172.97 99.9904 173.426 100.296 173.81 100.682C174.194 101.067 174.498 101.524 174.705 102.028C174.911 102.531 175.017 103.07 175.015 103.614Z" fill="#004EFF"/>
<path opacity="0.7" d="M196.16 103.614C196.16 104.435 195.917 105.238 195.461 105.92C195.005 106.603 194.357 107.134 193.599 107.448C192.841 107.761 192.007 107.843 191.202 107.682C190.398 107.521 189.66 107.124 189.08 106.543C188.501 105.961 188.108 105.221 187.949 104.416C187.791 103.61 187.875 102.775 188.19 102.018C188.506 101.26 189.039 100.613 189.722 100.159C190.406 99.7043 191.208 99.4632 192.028 99.4657C192.572 99.4657 193.11 99.5731 193.612 99.7817C194.115 99.9904 194.571 100.296 194.954 100.682C195.338 101.067 195.642 101.524 195.849 102.028C196.056 102.531 196.162 103.07 196.16 103.614Z" fill="#004EFF"/>
</svg>
