<svg width="412" height="412" viewBox="0 0 412 412" fill="none" xmlns="http://www.w3.org/2000/svg">
<path d="M361.959 44.8668C361.959 44.6361 361.959 44.4136 361.959 44.1746C361.962 40.5338 360.646 37.0151 358.254 34.2701C355.862 31.5252 352.557 29.74 348.95 29.2452C345.343 28.7505 341.679 29.5797 338.636 31.5792C335.594 33.5788 333.379 36.6133 332.402 40.1206C330.048 40.3621 327.866 41.4662 326.277 43.2202C324.689 44.9742 323.805 47.254 323.797 49.6205C323.789 51.987 324.656 54.2728 326.233 56.0377C327.81 57.8027 329.983 58.9218 332.336 59.1797V59.2374H361.81C363.716 59.2527 365.55 58.5103 366.908 57.1736C368.266 55.8369 369.038 54.0154 369.053 52.1098C369.069 50.2041 368.326 48.3704 366.99 47.0121C365.653 45.6538 363.831 44.8821 361.926 44.8668H361.959Z" fill="white" stroke="#263238" stroke-linecap="round" stroke-linejoin="round"/>
<path d="M354.848 54.238L345.941 42.1746L337.033 54.238H340.51V60.179H351.371V54.238H354.848Z" fill="#263238" stroke="#263238" stroke-linecap="round" stroke-linejoin="round"/>
<path d="M61.7336 87.8466H58.2893C57.9345 86.3629 57.3358 84.9484 56.5177 83.6607L59.0474 81.1228C59.6364 80.5338 59.9672 79.735 59.9672 78.9021C59.9672 78.0692 59.6364 77.2704 59.0474 76.6814C58.4584 76.0925 57.6596 75.7616 56.8267 75.7616C55.9938 75.7616 55.195 76.0925 54.606 76.6814L52.0434 79.2441C50.7646 78.4828 49.3744 77.9267 47.9234 77.5961V73.8222C47.8821 73.0163 47.5329 72.257 46.9479 71.7012C46.3629 71.1454 45.5868 70.8355 44.7798 70.8355C43.9729 70.8355 43.1968 71.1454 42.6118 71.7012C42.0267 72.257 41.6775 73.0163 41.6363 73.8222V77.5714C40.2166 77.9029 38.8591 78.4592 37.6152 79.2194L34.9124 76.5166C34.3222 75.9269 33.522 75.5956 32.6876 75.5956C31.8533 75.5956 31.0531 75.9269 30.4628 76.5166C29.8776 77.1076 29.5493 77.9056 29.5493 78.7373C29.5493 79.569 29.8776 80.3671 30.4628 80.958L33.1161 83.603C32.3226 84.8365 31.7302 86.1882 31.361 87.6077H27.6448C26.8099 87.6077 26.0093 87.9393 25.419 88.5296C24.8287 89.1199 24.4971 89.9205 24.4971 90.7554C24.4993 91.5887 24.8318 92.3873 25.4219 92.9758C26.012 93.5643 26.8114 93.8948 27.6448 93.8948H31.2456C31.5596 95.3717 32.1165 96.7862 32.8936 98.0807L30.3228 100.61C29.7338 101.199 29.4029 101.998 29.4029 102.831C29.4029 103.664 29.7338 104.463 30.3228 105.052C30.9117 105.641 31.7105 105.972 32.5434 105.972C33.3763 105.972 34.1751 105.641 34.7641 105.052L37.1867 102.637C38.4841 103.491 39.9159 104.121 41.422 104.5V107.944C41.4002 108.37 41.4653 108.797 41.6134 109.197C41.7616 109.597 41.9896 109.964 42.2836 110.273C42.5777 110.583 42.9316 110.829 43.3239 110.997C43.7162 111.166 44.1387 111.253 44.5656 111.253C44.9925 111.253 45.415 111.166 45.8073 110.997C46.1996 110.829 46.5535 110.583 46.8475 110.273C47.1416 109.964 47.3696 109.597 47.5177 109.197C47.6659 108.797 47.731 108.37 47.7092 107.944V104.648C49.2518 104.321 50.7264 103.73 52.0681 102.901L54.433 105.266C54.7245 105.558 55.0707 105.789 55.4518 105.947C55.8328 106.105 56.2412 106.186 56.6537 106.186C57.0661 106.186 57.4745 106.105 57.8556 105.947C58.2366 105.789 58.5828 105.558 58.8743 105.266C59.4641 104.676 59.7953 103.876 59.7953 103.041C59.7953 102.207 59.4641 101.407 58.8743 100.816L56.5342 98.4762C57.37 97.1514 57.9747 95.6941 58.3223 94.1667H61.7336C62.5395 94.1254 63.2988 93.7762 63.8546 93.1912C64.4104 92.6062 64.7203 91.8301 64.7203 91.0232C64.7203 90.2162 64.4104 89.4401 63.8546 88.8551C63.2988 88.2701 62.5395 87.9209 61.7336 87.8796V87.8466ZM44.8087 98.5586C43.3204 98.5586 41.8655 98.1172 40.6282 97.2902C39.3908 96.4632 38.4266 95.2877 37.8574 93.9126C37.2883 92.5374 37.1398 91.0244 37.4307 89.5648C37.7217 88.1052 38.439 86.7647 39.4919 85.7129C40.5449 84.6612 41.8862 83.9453 43.346 83.6559C44.8059 83.3666 46.3188 83.5168 47.6934 84.0874C49.0679 84.6581 50.2423 85.6236 51.0679 86.8619C51.8936 88.1001 52.3334 89.5555 52.3318 91.0438C52.335 92.0334 52.1428 93.0139 51.7661 93.9291C51.3894 94.8442 50.8356 95.6759 50.1366 96.3765C49.4376 97.077 48.6071 97.6326 47.6927 98.0113C46.7784 98.39 45.7983 98.5844 44.8087 98.5834V98.5586Z" stroke="white" stroke-linecap="round" stroke-linejoin="round"/>
<path d="M82.5147 56.3369H79.1033C78.7485 54.8532 78.1498 53.4386 77.3317 52.151L79.8697 49.613C80.4586 49.023 80.7891 48.2231 80.7883 47.3894C80.7875 46.5558 80.4556 45.7565 79.8655 45.1676C79.2755 44.5786 78.4756 44.2482 77.6419 44.2489C76.8083 44.2497 76.009 44.5816 75.4201 45.1717L72.8574 47.7343C71.5804 46.9696 70.1896 46.4133 68.7374 46.0863V42.3124C68.6961 41.5065 68.3469 40.7473 67.7619 40.1914C67.1769 39.6356 66.4008 39.3257 65.5939 39.3257C64.7869 39.3257 64.0108 39.6356 63.4258 40.1914C62.8408 40.7473 62.4916 41.5065 62.4503 42.3124V46.0616C61.0307 46.3931 59.6732 46.9495 58.4292 47.7096L55.7265 45.0069C55.4349 44.7151 55.0887 44.4837 54.7077 44.3258C54.3266 44.1679 53.9182 44.0866 53.5058 44.0866C53.0933 44.0866 52.6849 44.1679 52.3039 44.3258C51.9228 44.4837 51.5766 44.7151 51.2851 45.0069C50.9933 45.2984 50.7619 45.6446 50.604 46.0256C50.4461 46.4067 50.3648 46.8151 50.3648 47.2276C50.3648 47.64 50.4461 48.0484 50.604 48.4295C50.7619 48.8105 50.9933 49.1567 51.2851 49.4482L53.9301 52.0933C53.1366 53.3268 52.5442 54.6785 52.175 56.0979H48.4258C47.5996 56.1087 46.8107 56.444 46.2295 57.0314C45.6484 57.6187 45.3214 58.4111 45.3193 59.2374C45.3215 60.0707 45.6541 60.8693 46.2442 61.4578C46.8342 62.0463 47.6336 62.3768 48.467 62.3768H52.0679C52.3855 63.8526 52.9421 65.2665 53.7159 66.5627L51.0873 69.1006C50.7957 69.3928 50.5645 69.7395 50.4069 70.1211C50.2493 70.5026 50.1683 70.9114 50.1687 71.3242C50.1691 71.737 50.2508 72.1457 50.4091 72.5269C50.5674 72.9082 50.7993 73.2545 51.0915 73.5461C51.3836 73.8377 51.7304 74.069 52.1119 74.2266C52.4934 74.3842 52.9022 74.4651 53.3151 74.4647C53.7279 74.4644 54.1365 74.3827 54.5178 74.2244C54.899 74.066 55.2453 73.8342 55.5369 73.542L57.9595 71.1277C59.2532 71.9827 60.6825 72.6124 62.1866 72.9899V76.4013C62.1648 76.8276 62.2299 77.254 62.378 77.6544C62.5261 78.0548 62.7542 78.4209 63.0482 78.7304C63.3423 79.0399 63.6962 79.2863 64.0885 79.4547C64.4808 79.6231 64.9033 79.71 65.3302 79.71C65.7571 79.71 66.1795 79.6231 66.5718 79.4547C66.9641 79.2863 67.3181 79.0399 67.6121 78.7304C67.9062 78.4209 68.1342 78.0548 68.2823 77.6544C68.4304 77.254 68.4956 76.8276 68.4737 76.4013V73.1053C70.0168 72.7796 71.4917 72.1885 72.8327 71.3584L75.1976 73.7233C75.4891 74.015 75.8353 74.2465 76.2163 74.4044C76.5974 74.5623 77.0058 74.6436 77.4183 74.6436C77.8307 74.6436 78.2391 74.5623 78.6202 74.4044C79.0012 74.2465 79.3474 74.015 79.6389 73.7233C80.2287 73.1331 80.5599 72.3328 80.5599 71.4985C80.5599 70.6641 80.2287 69.8639 79.6389 69.2737L77.2988 66.9335C78.1404 65.6098 78.7506 64.1525 79.1033 62.624H82.5147C83.3206 62.5827 84.0798 62.2335 84.6357 61.6485C85.1915 61.0635 85.5014 60.2874 85.5014 59.4804C85.5014 58.6735 85.1915 57.8974 84.6357 57.3124C84.0798 56.7274 83.3206 56.3782 82.5147 56.3369ZM65.598 67.0489C64.1093 67.0505 62.6537 66.6105 61.4153 65.7844C60.1768 64.9584 59.2113 63.7835 58.6409 62.4085C58.0704 61.0335 57.9208 59.5202 58.2108 58.0601C58.5008 56.6 59.2175 55.2587 60.2701 54.2061C61.3227 53.1535 62.664 52.4368 64.1241 52.1468C65.5842 51.8568 67.0975 52.0065 68.4725 52.5769C69.8475 53.1473 71.0224 54.1128 71.8484 55.3513C72.6744 56.5897 73.1145 58.0454 73.1129 59.534C73.1161 60.5229 72.9241 61.5028 72.5479 62.4174C72.1717 63.332 71.6187 64.1634 70.9206 64.8638C70.2224 65.5642 69.3929 66.12 68.4795 66.4992C67.5662 66.8784 66.5869 67.0736 65.598 67.0736V67.0489Z" stroke="white" stroke-linecap="round" stroke-linejoin="round"/>
<path d="M15.3838 177.308H45.9954C46.651 177.308 47.2798 177.569 47.7434 178.032C48.207 178.496 48.4674 179.125 48.4674 179.78V215.806C48.4674 216.984 47.9995 218.113 47.1666 218.946C46.3336 219.779 45.204 220.247 44.026 220.247H17.3779C16.2 220.247 15.0703 219.779 14.2374 218.946C13.4045 218.113 12.9365 216.984 12.9365 215.806V179.756C12.943 179.109 13.2029 178.49 13.6604 178.032C14.118 177.575 14.7367 177.315 15.3838 177.308Z" fill="white" stroke="#263238" stroke-linecap="round" stroke-linejoin="round"/>
<path d="M15.3834 177.308H45.995C46.6506 177.308 47.2794 177.569 47.7429 178.032C48.2065 178.496 48.467 179.125 48.467 179.78V181.667H12.9443V179.78C12.9443 179.13 13.2002 178.507 13.6567 178.044C14.1132 177.581 14.7335 177.317 15.3834 177.308Z" fill="#263238" stroke="#263238" stroke-linecap="round" stroke-linejoin="round"/>
<path d="M39.7906 179.558C39.7906 179.33 39.7229 179.107 39.5962 178.917C39.4694 178.727 39.2893 178.579 39.0785 178.492C38.8677 178.405 38.6357 178.382 38.4119 178.426C38.1882 178.471 37.9826 178.581 37.8213 178.742C37.6599 178.903 37.5501 179.109 37.5056 179.333C37.4611 179.557 37.4839 179.789 37.5712 179.999C37.6585 180.21 37.8064 180.39 37.9961 180.517C38.1858 180.644 38.4088 180.711 38.637 180.711C38.943 180.711 39.2364 180.59 39.4527 180.374C39.6691 180.157 39.7906 179.864 39.7906 179.558Z" fill="white" stroke="#263238" stroke-linecap="round" stroke-linejoin="round"/>
<path d="M43.482 179.558C43.482 179.33 43.4143 179.107 43.2876 178.917C43.1608 178.727 42.9807 178.579 42.7699 178.492C42.5591 178.405 42.3271 178.382 42.1033 178.426C41.8796 178.471 41.674 178.581 41.5127 178.742C41.3514 178.903 41.2415 179.109 41.197 179.333C41.1525 179.557 41.1753 179.789 41.2626 179.999C41.3499 180.21 41.4978 180.39 41.6875 180.517C41.8772 180.644 42.1002 180.711 42.3284 180.711C42.6344 180.711 42.9278 180.59 43.1441 180.374C43.3605 180.157 43.482 179.864 43.482 179.558Z" fill="white" stroke="#263238" stroke-linecap="round" stroke-linejoin="round"/>
<path d="M47.182 179.558C47.1837 179.328 47.1169 179.102 46.9903 178.91C46.8636 178.718 46.6827 178.568 46.4706 178.479C46.2584 178.389 46.0246 178.365 45.7986 178.409C45.5727 178.453 45.3649 178.563 45.2016 178.725C45.0383 178.887 44.9268 179.094 44.8813 179.32C44.8358 179.545 44.8584 179.78 44.946 179.992C45.0337 180.205 45.1826 180.387 45.3739 180.515C45.5651 180.643 45.7901 180.711 46.0202 180.711C46.3269 180.711 46.6212 180.59 46.8389 180.374C47.0565 180.158 47.1799 179.865 47.182 179.558Z" fill="white" stroke="#263238" stroke-linecap="round" stroke-linejoin="round"/>
<path d="M26.4258 186.57L20.3447 191.382L26.4258 196.194" stroke="#263238" stroke-width="3" stroke-linecap="round" stroke-linejoin="round"/>
<path d="M34.7725 186.57L40.8536 191.382L34.7725 196.194" stroke="#263238" stroke-width="3" stroke-linecap="round" stroke-linejoin="round"/>
<path d="M31.3776 185.441L29.54 197.043" stroke="#263238" stroke-width="3" stroke-linecap="round" stroke-linejoin="round"/>
<path d="M38.0771 202.539H44.7927" stroke="#263238" stroke-linecap="round" stroke-linejoin="round"/>
<path d="M28.1143 202.539H36.8487" stroke="#263238" stroke-linecap="round" stroke-linejoin="round"/>
<path d="M20.7725 202.539H26.1944" stroke="#263238" stroke-linecap="round" stroke-linejoin="round"/>
<path d="M17.0156 202.539H19.5535" stroke="#263238" stroke-linecap="round" stroke-linejoin="round"/>
<path d="M40.8701 206.503H44.7924" stroke="#263238" stroke-linecap="round" stroke-linejoin="round"/>
<path d="M21.2998 206.503H38.9499" stroke="#263238" stroke-linecap="round" stroke-linejoin="round"/>
<path d="M17.0156 206.503H19.1992" stroke="#263238" stroke-linecap="round" stroke-linejoin="round"/>
<path d="M31.4355 210.474H44.7926" stroke="#263238" stroke-linecap="round" stroke-linejoin="round"/>
<path d="M20.2539 210.474H28.9883" stroke="#263238" stroke-linecap="round" stroke-linejoin="round"/>
<path d="M17.0156 210.474H18.8531" stroke="#263238" stroke-linecap="round" stroke-linejoin="round"/>
<path d="M41.043 214.446H44.7922" stroke="#263238" stroke-linecap="round" stroke-linejoin="round"/>
<path d="M28.2881 214.446H38.9506" stroke="#263238" stroke-linecap="round" stroke-linejoin="round"/>
<path d="M17.0156 214.446H26.195" stroke="#263238" stroke-linecap="round" stroke-linejoin="round"/>
<path d="M27.6201 185.153H58.2317C58.8873 185.153 59.5161 185.413 59.9797 185.877C60.4433 186.34 60.7037 186.969 60.7037 187.625V223.683C60.7037 224.861 60.2358 225.991 59.4029 226.824C58.57 227.656 57.4403 228.124 56.2624 228.124H29.6142C28.4363 228.124 27.3066 227.656 26.4737 226.824C25.6408 225.991 25.1729 224.861 25.1729 223.683V187.6C25.1793 186.953 25.4392 186.334 25.8968 185.877C26.3543 185.419 26.9731 185.159 27.6201 185.153Z" fill="white" stroke="#263238" stroke-linecap="round" stroke-linejoin="round"/>
<path d="M27.6201 185.153H58.2317C58.8874 185.153 59.5161 185.413 59.9797 185.877C60.4433 186.34 60.7037 186.969 60.7037 187.625V189.52H25.1729V187.633C25.1707 186.98 25.4267 186.353 25.8852 185.888C26.3437 185.424 26.9674 185.159 27.6201 185.153Z" fill="#263238" stroke="#263238" stroke-linecap="round" stroke-linejoin="round"/>
<path d="M50.8733 188.556C51.5104 188.556 52.0269 188.039 52.0269 187.402C52.0269 186.765 51.5104 186.249 50.8733 186.249C50.2362 186.249 49.7197 186.765 49.7197 187.402C49.7197 188.039 50.2362 188.556 50.8733 188.556Z" fill="white" stroke="#263238" stroke-linecap="round" stroke-linejoin="round"/>
<path d="M55.7183 187.402C55.7183 187.174 55.6507 186.951 55.5239 186.761C55.3972 186.572 55.217 186.424 55.0062 186.337C54.7954 186.249 54.5635 186.226 54.3397 186.271C54.1159 186.315 53.9103 186.425 53.749 186.587C53.5877 186.748 53.4778 186.953 53.4333 187.177C53.3888 187.401 53.4116 187.633 53.4989 187.844C53.5863 188.055 53.7341 188.235 53.9238 188.362C54.1135 188.488 54.3366 188.556 54.5647 188.556C54.8707 188.556 55.1641 188.434 55.3805 188.218C55.5968 188.002 55.7183 187.708 55.7183 187.402Z" fill="white" stroke="#263238" stroke-linecap="round" stroke-linejoin="round"/>
<path d="M58.2561 188.556C58.8932 188.556 59.4097 188.039 59.4097 187.402C59.4097 186.765 58.8932 186.249 58.2561 186.249C57.619 186.249 57.1025 186.765 57.1025 187.402C57.1025 188.039 57.619 188.556 58.2561 188.556Z" fill="white" stroke="#263238" stroke-linecap="round" stroke-linejoin="round"/>
<path d="M38.6616 194.415L32.5723 199.227L38.6616 204.039" stroke="#263238" stroke-width="3" stroke-linecap="round" stroke-linejoin="round"/>
<path d="M47.0088 194.415L53.0899 199.227L47.0088 204.039" stroke="#263238" stroke-width="3" stroke-linecap="round" stroke-linejoin="round"/>
<path d="M43.6143 193.286L41.7686 204.888" stroke="#263238" stroke-width="3" stroke-linecap="round" stroke-linejoin="round"/>
<path d="M50.3047 210.384H57.0285" stroke="#263238" stroke-linecap="round" stroke-linejoin="round"/>
<path d="M40.3506 210.384H49.085" stroke="#263238" stroke-linecap="round" stroke-linejoin="round"/>
<path d="M33.0088 210.384H38.4225" stroke="#263238" stroke-linecap="round" stroke-linejoin="round"/>
<path d="M29.2432 210.384H31.7893" stroke="#263238" stroke-linecap="round" stroke-linejoin="round"/>
<path d="M53.1064 214.355H57.0287" stroke="#263238" stroke-linecap="round" stroke-linejoin="round"/>
<path d="M33.5361 214.355H51.178" stroke="#263238" stroke-linecap="round" stroke-linejoin="round"/>
<path d="M29.2432 214.355H31.435" stroke="#263238" stroke-linecap="round" stroke-linejoin="round"/>
<path d="M43.6719 218.319H57.0289" stroke="#263238" stroke-linecap="round" stroke-linejoin="round"/>
<path d="M32.4814 218.319H41.2241" stroke="#263238" stroke-linecap="round" stroke-linejoin="round"/>
<path d="M29.2432 218.319H31.0889" stroke="#263238" stroke-linecap="round" stroke-linejoin="round"/>
<path d="M53.2793 222.29H57.0285" stroke="#263238" stroke-linecap="round" stroke-linejoin="round"/>
<path d="M40.5244 222.29H51.1787" stroke="#263238" stroke-linecap="round" stroke-linejoin="round"/>
<path d="M29.2432 222.29H38.4225" stroke="#263238" stroke-linecap="round" stroke-linejoin="round"/>
<path d="M42.0236 317.397C35.045 317.397 28.352 320.168 23.4165 325.102C18.4811 330.036 15.7073 336.728 15.7051 343.707H68.3422C68.34 336.728 65.5662 330.036 60.6308 325.102C55.6953 320.168 49.0023 317.397 42.0236 317.397Z" fill="white" stroke="#263238" stroke-linecap="round" stroke-linejoin="round"/>
<path d="M47.2231 338.458L60.1516 324.656C56.4222 321.108 51.7337 318.731 46.6669 317.821C41.6001 316.911 36.3776 317.507 31.6464 319.536C26.9151 321.565 22.883 324.937 20.0494 329.235C17.2159 333.533 15.7054 338.567 15.7051 343.715H47.1324L47.2231 338.458Z" fill="#004EFF" stroke="#263238" stroke-linecap="round" stroke-linejoin="round"/>
<path d="M42.0232 327.952C39.9499 327.952 37.8969 328.36 35.9814 329.154C34.066 329.947 32.3255 331.11 30.8595 332.576C29.3935 334.042 28.2305 335.783 27.4371 337.698C26.6437 339.614 26.2354 341.667 26.2354 343.74H57.811C57.811 341.667 57.4027 339.614 56.6093 337.698C55.8158 335.783 54.6529 334.042 53.1869 332.576C51.7208 331.11 49.9804 329.947 48.0649 329.154C46.1495 328.36 44.0965 327.952 42.0232 327.952Z" stroke="#263238" stroke-linecap="round" stroke-linejoin="round"/>
<path d="M42.0237 336.192C40.0306 336.192 38.1192 336.984 36.7098 338.393C35.3005 339.802 34.5088 341.714 34.5088 343.707H49.5385C49.5385 341.714 48.7468 339.802 47.3375 338.393C45.9282 336.984 44.0167 336.192 42.0237 336.192Z" fill="#263238" stroke="#263238" stroke-linecap="round" stroke-linejoin="round"/>
<path d="M43.4983 343.196L41.7432 341.449L57.152 326.922L58.0254 327.795L43.4983 343.196Z" fill="#263238" stroke="#263238" stroke-linecap="round" stroke-linejoin="round"/>
<path d="M371.147 259.914C369.028 259.914 366.957 260.543 365.195 261.72C363.434 262.897 362.061 264.57 361.25 266.527C360.439 268.484 360.227 270.638 360.64 272.716C361.054 274.794 362.074 276.703 363.572 278.201C365.07 279.699 366.979 280.719 369.057 281.132C371.135 281.546 373.289 281.334 375.246 280.523C377.203 279.712 378.876 278.339 380.053 276.578C381.23 274.816 381.859 272.745 381.859 270.626C381.859 267.785 380.73 265.061 378.721 263.052C376.712 261.043 373.988 259.914 371.147 259.914ZM371.147 277.086C369.872 277.086 368.626 276.708 367.566 276C366.506 275.292 365.68 274.285 365.193 273.107C364.705 271.929 364.578 270.633 364.827 269.383C365.077 268.132 365.691 266.984 366.593 266.084C367.495 265.183 368.644 264.57 369.895 264.322C371.145 264.074 372.441 264.203 373.618 264.692C374.795 265.181 375.801 266.008 376.508 267.069C377.215 268.13 377.592 269.376 377.59 270.651C377.59 271.497 377.424 272.334 377.1 273.116C376.776 273.897 376.301 274.607 375.702 275.205C375.104 275.802 374.394 276.276 373.612 276.599C372.83 276.922 371.992 277.088 371.147 277.086Z" stroke="white" stroke-linecap="round" stroke-linejoin="round"/>
<path d="M377.062 279.6L374.524 276.122C373.511 276.754 372.34 277.088 371.146 277.086C369.478 277.027 367.898 276.322 366.739 275.121C365.58 273.92 364.933 272.316 364.933 270.647C364.933 268.978 365.58 267.374 366.739 266.173C367.898 264.972 369.478 264.267 371.146 264.207C372.306 264.2 373.446 264.511 374.442 265.106L376.683 261.447C375.04 260.464 373.163 259.94 371.248 259.929C369.333 259.918 367.45 260.42 365.795 261.384C364.141 262.347 362.774 263.737 361.839 265.408C360.903 267.078 360.433 268.97 360.476 270.884C360.52 272.798 361.076 274.666 362.086 276.293C363.097 277.919 364.525 279.246 366.222 280.133C367.918 281.02 369.822 281.437 371.735 281.339C373.647 281.24 375.498 280.631 377.095 279.575L377.062 279.6Z" fill="#004EFF" stroke="white" stroke-linecap="round" stroke-linejoin="round"/>
<path d="M371.147 289.224C369.028 289.224 366.957 289.852 365.195 291.029C363.434 292.206 362.061 293.879 361.25 295.837C360.439 297.794 360.227 299.948 360.64 302.026C361.054 304.104 362.074 306.012 363.572 307.511C365.07 309.009 366.979 310.029 369.057 310.442C371.135 310.855 373.289 310.643 375.246 309.833C377.203 309.022 378.876 307.649 380.053 305.887C381.23 304.126 381.859 302.055 381.859 299.936C381.859 297.095 380.73 294.37 378.721 292.361C376.712 290.353 373.988 289.224 371.147 289.224ZM371.147 306.388C369.874 306.386 368.631 306.007 367.573 305.299C366.516 304.591 365.693 303.586 365.207 302.41C364.721 301.233 364.595 299.94 364.844 298.692C365.093 297.444 365.707 296.298 366.607 295.399C367.508 294.5 368.654 293.888 369.902 293.64C371.15 293.392 372.444 293.52 373.619 294.008C374.795 294.495 375.799 295.32 376.506 296.378C377.213 297.436 377.59 298.68 377.59 299.952C377.593 300.8 377.429 301.641 377.107 302.425C376.784 303.209 376.31 303.922 375.711 304.522C375.112 305.122 374.401 305.598 373.618 305.923C372.834 306.247 371.994 306.414 371.147 306.413V306.388Z" stroke="white" stroke-linecap="round" stroke-linejoin="round"/>
<path d="M377.59 299.977C377.59 301.109 377.29 302.222 376.723 303.201C376.155 304.181 375.339 304.993 374.357 305.557C373.375 306.12 372.261 306.414 371.129 306.41C369.997 306.405 368.886 306.102 367.908 305.531L366.104 309.445C367.737 310.321 369.571 310.757 371.424 310.712C373.277 310.667 375.087 310.141 376.676 309.187C378.266 308.233 379.58 306.883 380.491 305.269C381.403 303.654 381.879 301.831 381.875 299.977C381.874 299.333 381.813 298.69 381.694 298.057L377.392 298.288C377.531 298.84 377.597 299.408 377.59 299.977Z" fill="#004EFF" stroke="white" stroke-linecap="round" stroke-linejoin="round"/>
<path d="M362.56 324.78H358.712V334.824H362.56V324.78Z" fill="white" stroke="white" stroke-linecap="round" stroke-linejoin="round"/>
<path d="M369.976 325.48H366.128V334.816H369.976V325.48Z" fill="#004EFF" stroke="white" stroke-linecap="round" stroke-linejoin="round"/>
<path d="M377.392 320.841H373.544V334.816H377.392V320.841Z" fill="white" stroke="white" stroke-linecap="round" stroke-linejoin="round"/>
<path d="M384.808 315.782H380.96V334.816H384.808V315.782Z" fill="#004EFF" stroke="white" stroke-linecap="round" stroke-linejoin="round"/>
<path d="M369.078 138.844V136.949H360.912V138.844V140.121V150.248H378.101V138.844H369.078Z" fill="white" stroke="#263238" stroke-linecap="round" stroke-linejoin="round"/>
<path d="M390.337 138.844V136.949H382.171V138.844V140.121V150.248H399.368V138.844H390.337Z" fill="white" stroke="#263238" stroke-linecap="round" stroke-linejoin="round"/>
<path d="M369.078 157.845V155.942H360.912V157.845V159.123V169.25H378.101V157.845H369.078Z" fill="white" stroke="#263238" stroke-linecap="round" stroke-linejoin="round"/>
<path d="M390.337 157.845V155.942H382.171V157.845V159.123V169.25H399.368V157.845H390.337Z" fill="white" stroke="#263238" stroke-linecap="round" stroke-linejoin="round"/>
<path d="M369.078 176.847V174.943H360.912V176.847V178.124V188.251H378.101V176.847H369.078Z" fill="white" stroke="#263238" stroke-linecap="round" stroke-linejoin="round"/>
<path d="M390.337 176.847V174.943H382.171V176.847V178.124V188.251H399.368V176.847H390.337Z" fill="#004EFF" stroke="#263238" stroke-linecap="round" stroke-linejoin="round"/>
<path d="M369.078 195.848V193.945H360.912V195.848V197.126V207.252H378.101V195.848H369.078Z" fill="white" stroke="#263238" stroke-linecap="round" stroke-linejoin="round"/>
<path d="M390.337 195.848V193.945H382.171V195.848V197.126V207.252H399.368V195.848H390.337Z" fill="white" stroke="#263238" stroke-linecap="round" stroke-linejoin="round"/>
<path d="M369.078 214.85V212.946H360.912V214.85V216.127V226.246H378.101V214.85H369.078Z" fill="white" stroke="#263238" stroke-linecap="round" stroke-linejoin="round"/>
<path d="M390.337 214.85V212.946H382.171V214.85V216.127V226.246H399.368V214.85H390.337Z" fill="white" stroke="#263238" stroke-linecap="round" stroke-linejoin="round"/>
<path d="M267.141 72.1659L269.045 78.0328H275.208L270.223 81.6502L272.126 87.517L267.141 83.8914L262.156 87.517L264.059 81.6502L259.074 78.0328H265.238L267.141 72.1659Z" fill="#004EFF" stroke="#263238" stroke-linecap="round" stroke-linejoin="round"/>
<path d="M287.486 72.1659L289.389 78.0328H295.553L290.568 81.6502L292.471 87.517L287.486 83.8914L282.501 87.517L284.404 81.6502L279.419 78.0328H285.582L287.486 72.1659Z" fill="#004EFF" stroke="#263238" stroke-linecap="round" stroke-linejoin="round"/>
<path d="M307.831 72.1659L309.734 78.0328H315.898L310.912 81.6502L312.816 87.517L307.831 83.8914L302.845 87.517L304.749 81.6502L299.764 78.0328H305.927L307.831 72.1659Z" fill="#004EFF" stroke="#263238" stroke-linecap="round" stroke-linejoin="round"/>
<path d="M328.174 72.1659L330.078 78.0328H336.241L331.256 81.6502L333.16 87.517L328.174 83.8914L323.181 87.517L325.093 81.6502L320.107 78.0328H326.263L328.174 72.1659Z" fill="#004EFF" stroke="#263238" stroke-linecap="round" stroke-linejoin="round"/>
<path d="M348.511 72.1659L350.423 78.0328H356.586L351.593 81.6502L353.505 87.517L348.511 83.8914L343.526 87.517L345.43 81.6502L340.444 78.0328H346.608L348.511 72.1659Z" fill="#004EFF" stroke="#263238" stroke-linecap="round" stroke-linejoin="round"/>
<path d="M338.664 106.296H75.6018C71.7427 106.296 68.6143 109.424 68.6143 113.284V307.088C68.6143 310.947 71.7427 314.076 75.6018 314.076H338.664C342.523 314.076 345.651 310.947 345.651 307.088V113.284C345.651 109.424 342.523 106.296 338.664 106.296Z" fill="#263238" stroke="#263238" stroke-linecap="round" stroke-linejoin="round"/>
<path d="M241.597 330.094V306.693H172.661V330.094C172.661 337.733 170.083 345.148 165.344 351.139L162.328 354.946H251.938L248.914 351.139C244.175 345.148 241.597 337.733 241.597 330.094Z" fill="white" stroke="#263238" stroke-linecap="round" stroke-linejoin="round"/>
<path d="M241.589 306.693H172.661V325.48H241.589V306.693Z" fill="#263238" stroke="#263238" stroke-linecap="round" stroke-linejoin="round"/>
<path d="M251.955 354.946H162.328V359.124H251.955V354.946Z" fill="white" stroke="#263238" stroke-linecap="round" stroke-linejoin="round"/>
<path d="M68.6143 281.808H345.651V307.113C345.651 308.966 344.915 310.744 343.605 312.054C342.294 313.364 340.517 314.101 338.664 314.101H75.6018C73.7486 314.101 71.9713 313.364 70.6609 312.054C69.3504 310.744 68.6143 308.966 68.6143 307.113V281.808Z" fill="white" stroke="#263238" stroke-linecap="round" stroke-linejoin="round"/>
<path d="M331.717 119.225H82.5479V266.02H331.717V119.225Z" fill="#004EFF" stroke="#263238" stroke-linecap="round" stroke-linejoin="round"/>
<g opacity="0.2">
<path d="M127.061 168.244C127.061 168.244 125.668 170.716 123.765 169.184C121.862 167.651 117.173 164.47 114.223 165.566C111.273 166.662 110.227 170.288 111.619 171.384C113.012 172.48 113.35 173.74 111.092 175.314C108.834 176.888 109.881 178.932 111.792 179.434C113.704 179.937 115.088 179.121 114.915 180.258C114.742 181.395 114.915 181.98 111.965 183.241C109.015 184.502 109.188 185.598 113.004 184.502C116.819 183.406 117.346 180.884 119.076 179.154C120.807 177.424 128.281 180.884 130.365 184.502C132.45 188.119 132.277 191.728 132.277 194.563C132.277 197.397 136.265 197.702 137.13 200.224C137.995 202.745 139.602 205.094 139.907 204.467C140.212 203.841 139.734 203.05 139.734 202.267C139.734 201.484 142.338 203.989 142.692 205.72C143.047 207.45 145.988 209.494 147.546 209.494C149.29 209.503 150.989 210.053 152.407 211.068C153.454 212.007 155.885 214.215 156.75 214.215C157.615 214.215 157.615 213.737 158.142 214.215C158.67 214.693 158.661 216.102 158.315 217.511C157.969 218.92 156.577 219.398 158.488 222.233C160.4 225.067 163.152 226.41 163.152 229.072C163.152 231.734 160.202 241.49 160.202 244.324C160.202 247.159 162.979 250.455 164.026 250.142C165.072 249.829 164.199 248.255 164.199 246.846C164.199 245.437 165.937 244.332 165.937 243.072C165.937 241.811 167.149 240.402 168.187 239.454C169.225 238.507 170.964 237.889 172.01 236.315C173.057 234.741 174.787 233.324 175.479 232.195C176.23 231.053 177.041 229.953 177.91 228.899C179.476 226.855 179.476 225.282 180.382 223.864C181.288 222.447 181.429 219.621 179.344 218.994C177.259 218.368 174.309 217.421 173.576 216.481C172.842 215.542 169.069 213.96 168.368 213.803C167.668 213.647 166.638 212.394 165.245 212.238C164.324 212.121 163.396 212.068 162.468 212.081C161.412 212.203 160.367 212.412 159.345 212.707H157.088L155.176 211.447C155.176 211.447 155.876 209.403 154.484 209.09C153.801 208.917 153.103 208.812 152.399 208.777C152.399 208.777 153.445 206.89 152.399 206.733C151.353 206.577 149.449 207.829 148.93 207.829C148.411 207.829 146.672 205.16 147.537 203.899C148.403 202.638 149.103 201.542 150.833 201.229C152.564 200.916 154.129 199.655 155.168 201.229C156.206 202.803 158.645 205.629 158.645 203.899C158.645 202.168 157.425 201.229 157.598 200.133C157.771 199.037 160.029 199.499 160.029 197.299C160.029 195.098 160.903 193.838 161.941 193.368C162.979 192.898 165.937 193.212 165.756 191.011C165.575 188.811 164.199 190.855 163.152 190.064C162.106 189.273 164.199 187.394 166.283 187.394C168.368 187.394 170.099 186.924 169.579 185.351C169.06 183.777 166.803 182.837 165.756 180.794C164.71 178.75 163.68 180.95 162.46 179.846C161.241 178.742 159.164 177.374 158.991 179.377C158.818 181.379 160.029 183.933 159.51 185.194C158.991 186.455 156.56 187.707 155.868 186.298C155.176 184.889 155.868 184.255 153.956 183.15C152.045 182.046 149.96 181.107 149.787 179.03C149.614 176.954 151.006 175.57 152.737 174.317C154.467 173.065 156.733 171.952 156.56 169.909C156.387 167.865 154.995 167.082 154.649 168.656C154.577 168.976 154.407 169.265 154.163 169.483C153.918 169.701 153.612 169.837 153.286 169.871C152.96 169.906 152.632 169.838 152.347 169.676C152.062 169.514 151.836 169.267 151.699 168.969C151.006 167.709 149.441 167.082 149.441 168.187C149.441 169.291 149.095 170.387 147.702 170.387C146.31 170.387 144.233 169.283 143.368 169.439C142.503 169.596 142.148 170.387 141.11 170.387C140.072 170.387 138.333 170.7 137.987 169.563C137.641 168.426 135.383 168.154 133.818 167.832C132.396 167.493 130.937 167.335 129.475 167.363C128.72 167.778 127.906 168.075 127.061 168.244Z" fill="black"/>
<path d="M163.515 207.384C163.515 207.384 162.641 207.384 159.864 206.132C157.087 204.879 154.83 205.308 156.222 205.967C157.615 206.626 160.21 207.541 160.21 207.541C160.21 207.541 157.26 207.384 159.864 208.175C162.468 208.966 165.945 208.332 163.515 207.384Z" fill="black"/>
<path d="M197.711 199.21C197.364 200.408 196.898 201.567 196.319 202.671C195.799 203.297 193.715 204.245 193.196 205.967C192.759 207.967 193.133 210.059 194.234 211.784C195.28 213.358 196.145 213.515 198.576 214.149C201.007 214.784 204.649 214.149 206.042 214.306C207.434 214.462 205.523 216.976 205.523 217.758C205.523 218.541 208.992 220.123 209.165 221.532C209.338 222.941 207.78 225.941 209.165 227.82C210.549 229.698 211.076 230.967 211.076 232.071C211.076 233.176 210.557 234.898 214.026 235.367C217.495 235.837 219.926 234.428 220.453 232.384C220.981 230.341 220.973 228.264 222.53 227.506C223.3 227.09 223.917 226.438 224.292 225.647C224.667 224.856 224.78 223.966 224.615 223.106C224.269 221.376 223.923 218.863 225.307 217.915C226.691 216.967 229.476 215.245 229.649 213.515C229.822 211.784 228.265 213.358 226.007 211.784C223.749 210.211 221.319 205.497 220.8 204.245C220.28 202.992 220.28 201.88 222.184 204.245C224.087 206.61 224.615 211.315 227.565 211.315C230.515 211.315 234.684 208.019 234.857 206.445C235.03 204.871 233.127 205.81 231.042 204.401C228.957 202.992 227.565 199.523 230.168 200.471C232.772 201.419 236.25 204.591 237.634 204.591C239.018 204.591 243.188 203.174 243.361 205.687C243.534 208.2 242.537 212.279 244.926 212.452C247.316 212.625 246.665 209.93 247.357 208.991C248.049 208.052 251.873 205.217 252.738 205.843C253.603 206.47 253.084 208.991 255.342 209.139C257.599 209.288 258.465 209.766 257.772 210.557C257.08 211.348 256.907 214.009 257.772 213.696C258.638 213.383 257.599 210.713 259.165 211.496C260.731 212.279 263.153 210.713 263.153 209.922C263.153 209.131 260.203 208.2 261.068 206.783C261.934 205.366 264.719 205.052 266.622 204.896C268.526 204.739 270.273 202.061 269.407 200.496C268.542 198.93 267.842 197.818 268.88 197.505C269.918 197.191 268.188 196.252 268.188 195.774C268.188 195.296 269.753 194.044 270.792 194.991C271.83 195.939 271.311 197.191 272.184 198.139C273.058 199.087 274.088 198.922 274.088 197.661C274.019 196.549 273.845 195.445 273.569 194.365C273.569 194.365 275.134 193.104 275.999 193.261C276.865 193.418 279.295 190.591 279.996 188.548C280.696 186.504 280.169 185.252 279.122 185.252C278.076 185.252 276.345 183.052 278.257 181.791C280.169 180.53 283.119 179.591 284.503 180.06C285.887 180.53 286.975 179.904 287.799 178.651C288.623 177.399 290.749 177.391 291.787 177.391C292.825 177.391 293.872 175.034 294.045 176.295C294.218 177.556 290.403 180.225 289.702 181.947C289.002 183.67 288.318 186.356 289.875 186.512C291.433 186.669 292.133 183.991 292.479 182.738C292.825 181.486 293.007 179.278 294.045 179.121C295.083 178.965 295.611 179.591 297.168 178.495C298.725 177.399 300.818 177.234 301.164 175.66C301.51 174.086 302.203 170.634 300.291 168.904C298.379 167.173 297.168 168.277 295.083 168.904C292.998 169.53 290.576 165.912 290.576 165.912C289.253 165.713 287.917 165.608 286.579 165.599C284.495 165.599 283.63 163.399 282.237 163.243C280.844 163.086 281.026 165.13 279.633 165.599C278.241 166.069 277.903 165.756 276.856 165.756C275.81 165.756 274.78 166.069 274.425 165.13C274.071 164.19 273.214 162.616 272.003 162.46C270.792 162.303 269.399 162.93 268.707 162.93C268.015 162.93 265.584 162.106 264.892 162.106C264.2 162.106 261.596 162.583 261.596 162.583C261.596 162.583 265.411 157.705 264.719 156.453C264.027 155.2 261.241 154.879 259.684 155.349C258.127 155.818 256.561 155.662 255.515 156.296C254.468 156.931 251.527 157.392 250.653 158.653C249.78 159.914 249.961 160.383 248.75 161.166C247.538 161.949 247.53 163.21 247.703 164.462C247.876 165.715 246.146 163.045 244.926 163.828C243.707 164.61 243.015 165.088 243.361 166.184C243.707 167.28 245.099 168.549 244.753 169.645C244.407 170.741 241.803 171.689 241.803 170.115C241.803 168.541 243.188 162.419 241.284 162.575C239.381 162.732 238.853 164.932 239.373 166.506C239.892 168.08 240.238 168.706 239.199 168.706C238.161 168.706 236.727 166.662 235.73 167.758C234.733 168.854 231.734 169.019 230.341 169.175C228.949 169.332 226.872 171.376 225.834 172.158C224.796 172.941 224.442 174.21 222.538 174.367C220.635 174.523 219.415 171.071 220.289 171.071C221.162 171.071 224.277 172.644 224.277 170.758C224.277 168.871 219.415 166.984 216.984 166.638C214.554 166.291 210.739 167.264 210.046 169.307C209.354 171.351 209.692 174.342 207.443 176.385C205.193 178.429 203.792 180.786 205.531 180.786C207.269 180.786 208.308 178.429 208.481 180.316C208.487 180.639 208.598 180.952 208.796 181.207C208.993 181.463 209.268 181.648 209.579 181.736C209.89 181.824 210.221 181.809 210.524 181.694C210.826 181.58 211.083 181.371 211.258 181.099C211.777 180.159 211.777 178.272 211.777 176.542C211.777 174.812 214.9 171.664 215.427 173.081C215.954 174.498 213.688 176.699 213.688 178.108C213.688 179.517 216.292 178.429 217.685 178.429C219.077 178.429 220.107 179.368 217.858 179.681C215.608 179.995 215.427 179.995 214.9 181.412C214.372 182.829 215.081 183.768 212.996 184.246C210.912 184.724 205.877 183.925 204.839 185.655C203.8 187.386 203.273 188.333 202.235 188.647C201.197 188.96 199.104 188.803 199.45 190.22C199.796 191.638 200.842 190.847 200.323 192.264C199.804 193.681 198.065 191.44 197.373 192.577C196.681 193.714 198.411 198.708 199.977 197.29C201.017 196.256 201.843 195.027 202.408 193.673C202.408 193.673 203.965 193.516 204.311 192.849C204.657 192.182 206.915 190.805 207.607 192.849C208.299 194.892 209.338 194.423 209.338 195.362C209.338 196.302 207.607 197.406 209.165 196.779C210.722 196.153 211.637 196.31 211.076 194.423C210.516 192.536 208.604 190.303 209.684 190.805C210.895 191.562 211.862 192.652 212.469 193.945C212.988 195.049 215.592 198.197 215.938 196.936C216.284 195.675 215.592 193.475 216.111 193.475C216.63 193.475 217.677 192.223 218.023 191.003C218.369 189.784 222.703 191.16 223.576 192.264C224.45 193.368 222.703 194.464 220.833 194.464C218.962 194.464 216.49 195.716 218.056 196.821C219.621 197.925 222.044 195.56 222.39 197.29C222.736 199.021 221.871 200.586 220.486 200.586C219.102 200.586 217.355 199.952 216.144 199.952C214.933 199.952 214.751 201.526 212.502 201.056C210.252 200.586 209.717 198.699 207.986 197.595C206.256 196.491 204.69 197.282 203.298 197.752C201.905 198.221 198.585 197.95 197.711 199.21Z" fill="black"/>
<path d="M240.238 154.722C239.715 155.827 238.942 156.795 237.98 157.549C236.596 158.496 232.945 161.479 232.945 163.21C232.945 164.94 234.511 166.506 232.08 165.879C229.649 165.253 232.599 158.966 234.338 157.392C236.077 155.818 236.077 156.609 237.461 155.818C238.845 155.027 240.065 153.462 240.238 154.722Z" fill="black"/>
<path d="M266.449 214.932C266.449 214.932 264.373 214.932 263.672 216.506C262.972 218.08 265.757 219.489 266.622 218.393C267.487 217.297 267.15 215.872 267.496 215.097C267.842 214.322 267.496 213.985 266.449 214.932Z" fill="black"/>
<path d="M260.384 217.915C260.384 217.915 259.173 212.147 258.646 213.795C258.327 214.767 258.327 215.815 258.646 216.786C258.646 216.786 253.965 213.325 254.485 215.369C255.004 217.412 258.646 218.665 260.384 219.934C262.123 221.203 262.296 221.03 264.727 221.813C267.158 222.595 268.715 221.343 266.812 220.989C264.908 220.634 261.777 219.102 261.044 218.788C260.867 218.713 260.714 218.592 260.598 218.439C260.483 218.286 260.409 218.105 260.384 217.915Z" fill="black"/>
<path d="M281.034 218.706C281.034 218.706 273.222 216.036 274.087 217.602C274.953 219.168 277.738 218.706 278.257 219.489C278.776 220.272 279.122 221.846 280.342 221.846C281.561 221.846 282.599 221.376 283.291 222.167C283.984 222.958 285.549 224.054 286.068 223.263C286.588 222.472 285.376 221.532 284.503 220.436C283.629 219.341 281.034 218.706 281.034 218.706Z" fill="black"/>
<path d="M281.034 223.576C281.034 223.576 280.861 225.941 279.122 225.776C277.384 225.611 278.776 223.263 276.519 223.576C274.261 223.889 274.615 225.463 273.396 225.463C272.176 225.463 270.1 226.097 269.927 226.724C269.754 227.35 268.361 227.984 267.323 227.984C266.284 227.984 265.238 230.028 265.584 231.124C265.93 232.22 266.622 233.637 266.622 234.741C266.622 235.845 266.622 236.785 268.534 236.315C270.446 235.845 273.396 233.637 275.653 234.428C277.911 235.219 279.823 237.889 281.207 238.672C282.591 239.454 283.465 240.245 284.676 238.202C285.887 236.158 287.634 234.082 287.634 231.61C287.634 229.138 285.723 228.94 284.157 226.584C282.591 224.227 281.553 222.323 281.034 223.576Z" fill="black"/>
<path d="M297.876 240.245C297.876 240.245 298.395 240.559 296.657 241.341C294.918 242.124 294.572 243.228 295.833 243.863C297.093 244.497 298.609 242.132 299.129 241.341C299.648 240.55 300.126 238.672 297.876 240.245Z" fill="black"/>
<path d="M229.303 224.367C229.303 224.367 228.479 224.21 227.218 225.306C225.957 226.402 227.045 227.037 226.699 228.454C226.353 229.871 226.699 231.437 228.091 230.498C229.484 229.558 230.868 226.254 230.868 224.993C230.868 223.732 230.514 222.637 229.303 224.367Z" fill="black"/>
<path d="M215.591 147.175C215.591 147.175 215.764 147.801 213.507 147.331C211.249 146.862 210.557 148.114 210.038 148.271C209.519 148.427 206.906 146.862 207.08 148.748C207.253 150.635 209.51 153.149 210.376 151.731C211.241 150.314 210.549 151.731 209.502 153.149C208.456 154.566 210.722 156.445 211.76 155.192C212.798 153.94 212.806 149.688 213.325 151.072C213.845 152.456 214.71 155.003 215.797 153.898C216.885 152.794 214.059 149.778 214.059 148.872C214.059 147.966 214.578 149.498 215.97 148.559C217.363 147.62 217.149 147.018 215.591 147.175Z" fill="black"/>
<path d="M260.549 151.105C260.549 151.105 261.241 148.905 259.51 149.062C257.78 149.218 255.86 150.479 257.426 151.534C258.991 152.588 260.549 151.105 260.549 151.105Z" fill="black"/>
<path d="M257.426 146.862C257.08 146.227 255.687 141.827 254.649 143.088C253.611 144.348 255.168 147.644 255.168 147.644C255.168 147.644 254.476 148.905 256.033 149.062C257.591 149.218 257.426 146.862 257.426 146.862Z" fill="black"/>
<path d="M175.513 140.731C174.689 140.879 171.178 138.531 169.267 140.096C167.355 141.662 167.182 142.618 166.144 144.818C165.106 147.018 166.144 148.435 165.789 148.938C165.435 149.441 165.971 148.625 163.886 149.877C161.801 151.13 161.414 150.701 162.666 152.399C163.919 154.096 162.147 154.121 164.059 155.695C165.971 157.269 166.663 154.442 168.748 156.329C170.832 158.216 169.786 160.573 171.22 165.286C172.653 169.999 173.296 177.547 174.343 178.808C175.389 180.069 177.119 180.382 177.985 178.338C178.85 176.295 180.457 172.677 183.019 171.417C185.582 170.156 189.273 168.59 189.273 166.86C189.273 165.13 187.881 164.347 188.4 163.086C188.919 161.825 190.139 162.773 190.139 160.729V156.486C190.139 154.755 189.793 150.668 190.139 150.19C190.791 149.272 191.315 148.268 191.696 147.208C191.696 146.738 192.916 145.321 193.262 144.851C193.645 144.231 193.882 143.532 193.954 142.807C193.954 142.33 194.827 141.234 193.262 141.86C191.696 142.486 191.696 143.903 190.485 144.694C189.273 145.485 187.708 145.947 187.708 144.381C187.708 142.816 189.446 140.92 187.708 140.764C186.476 140.706 185.243 140.865 184.066 141.234C184.066 141.234 185.796 140.41 186.315 140.129C186.834 139.849 188.573 139.66 189.092 139.19C189.465 138.739 189.707 138.195 189.793 137.616C189.366 137.167 188.824 136.842 188.227 136.677C187.189 136.356 187.189 135.26 186.142 134.946C184.782 134.692 183.405 134.535 182.022 134.477C182.022 134.477 178.726 135.416 178.026 135.729C177.334 136.043 176.66 136.395 176.007 136.784C176.007 136.784 175.488 138.35 176.007 138.984C176.526 139.619 177.227 140.418 175.513 140.731Z" fill="black"/>
<path d="M164.553 141.983C164.553 141.983 163.729 143.714 163.16 144.818C162.562 146.023 161.868 147.177 161.084 148.271C160.21 149.531 159.691 150.158 159.691 150.635C159.691 151.113 160.515 152.044 159.172 153.149C158.134 153.924 157.032 154.607 155.876 155.192C155.747 155.57 155.473 155.881 155.115 156.057C154.756 156.233 154.343 156.26 153.965 156.132C152.572 155.662 153.445 153.305 153.965 152.522C154.484 151.74 153.965 149.531 152.926 150.001C151.888 150.471 151.188 151.418 150.141 150.158C149.095 148.897 148.757 146.392 148.757 145.131C148.757 143.87 148.757 142.14 149.795 142.774C150.833 143.409 154.138 145.246 154.657 144.975C155.176 144.703 153.965 143.401 153.272 142.461C152.58 141.522 151.015 140.418 152.926 139.47C154.838 138.523 156.914 138.366 158.307 137.583C159.7 136.8 160.557 136.166 162.295 136.644C164.034 137.122 165.591 136.644 166.119 137.896C166.443 138.753 166.619 139.659 166.638 140.574L164.553 141.983Z" fill="black"/>
<path d="M154.656 157.549C153.935 157.3 153.237 156.985 152.572 156.609C150.668 155.662 149.622 152.201 149.103 154.245C148.584 156.288 151.187 158.653 152.399 159.279C153.61 159.905 158.653 159.905 157.952 158.175C157.252 156.445 154.656 157.549 154.656 157.549Z" fill="black"/>
<path d="M161.604 164.8C160.014 164.254 158.498 163.515 157.088 162.6C155.877 161.652 153.792 160.078 152.968 161.339C152.144 162.6 152.614 166.374 154.006 167.157C155.399 167.939 157.475 166.209 158.695 167.783C159.914 169.357 161.472 170.931 161.167 172.026C160.862 173.122 160.12 174.07 161.513 175.644C162.905 177.218 164.809 177.374 164.809 175.331C164.809 173.287 163.07 172.035 164.463 171.87C165.855 171.705 167.24 173.287 166.548 171.087C166.061 169.688 165.293 168.403 164.29 167.313C163.47 166.398 162.571 165.557 161.604 164.8Z" fill="black"/>
<path d="M145.634 167.453C145.109 167.282 144.655 166.944 144.341 166.49C144.027 166.036 143.87 165.492 143.895 164.94C143.895 162.897 142.157 160.383 141.638 161.792C141.119 163.201 139.899 163.679 138.515 162.616C137.13 161.553 135.738 159.156 134.345 160.252C132.953 161.347 128.792 163.712 132.269 164.816C135.746 165.921 136.949 163.712 137.295 164.182C137.641 164.652 136.949 164.503 137.295 166.39C137.641 168.277 139.553 169.217 141.119 169.217C142.684 169.217 143.03 167.643 143.722 168.277C144.415 168.912 146.326 169.653 145.634 167.453Z" fill="black"/>
</g>
<path d="M212.237 297.925C212.237 296.915 211.938 295.927 211.376 295.087C210.815 294.247 210.017 293.592 209.083 293.206C208.15 292.819 207.123 292.718 206.132 292.915C205.141 293.112 204.23 293.598 203.516 294.313C202.801 295.027 202.315 295.938 202.118 296.929C201.921 297.92 202.022 298.947 202.408 299.88C202.795 300.814 203.45 301.612 204.29 302.173C205.13 302.735 206.118 303.034 207.128 303.034C208.483 303.034 209.783 302.496 210.741 301.538C211.699 300.58 212.237 299.28 212.237 297.925Z" fill="#263238" stroke="#263238" stroke-linecap="round" stroke-linejoin="round"/>
<path d="M316.729 139.75H99.6215C98.8027 139.751 97.9918 139.591 97.235 139.279C96.4783 138.966 95.7906 138.507 95.2113 137.929C94.6319 137.35 94.1723 136.663 93.8588 135.907C93.5452 135.15 93.3838 134.34 93.3838 133.521C93.386 131.868 94.0441 130.284 95.2137 129.116C96.3832 127.948 97.9686 127.292 99.6215 127.292H316.729C318.38 127.294 319.964 127.951 321.131 129.118C322.299 130.286 322.956 131.869 322.958 133.521C322.958 135.173 322.302 136.758 321.134 137.926C319.966 139.094 318.381 139.75 316.729 139.75Z" fill="white" stroke="#263238" stroke-linecap="round" stroke-linejoin="round"/>
<path d="M316.729 139.75H305.894V127.292H316.729C318.381 127.294 319.964 127.951 321.132 129.118C322.299 130.286 322.956 131.869 322.959 133.521C322.959 135.173 322.302 136.758 321.134 137.926C319.966 139.094 318.381 139.75 316.729 139.75Z" fill="#263238" stroke="#263238" stroke-linecap="round" stroke-linejoin="round"/>
<path d="M314.315 128.874C313.798 128.391 313.15 128.072 312.453 127.957C311.755 127.842 311.039 127.937 310.395 128.229C309.751 128.521 309.208 128.997 308.835 129.597C308.462 130.198 308.275 130.895 308.298 131.602C308.321 132.309 308.553 132.993 308.964 133.567C309.376 134.142 309.949 134.582 310.61 134.832C311.272 135.081 311.992 135.129 312.681 134.969C313.37 134.809 313.996 134.448 314.48 133.933C314.802 133.591 315.054 133.188 315.221 132.748C315.387 132.308 315.465 131.839 315.45 131.369C315.434 130.899 315.326 130.436 315.132 130.008C314.937 129.58 314.659 129.194 314.315 128.874ZM313.944 133.488C313.555 133.903 313.052 134.194 312.498 134.323C311.944 134.453 311.364 134.415 310.831 134.214C310.299 134.014 309.838 133.66 309.507 133.198C309.175 132.735 308.989 132.185 308.97 131.616C308.952 131.047 309.102 130.486 309.403 130.003C309.704 129.52 310.141 129.137 310.659 128.903C311.177 128.668 311.754 128.593 312.315 128.686C312.876 128.779 313.397 129.036 313.812 129.426C314.366 129.948 314.691 130.669 314.715 131.43C314.74 132.191 314.463 132.931 313.944 133.488Z" fill="white"/>
<path d="M317.001 135.227C316.921 135.16 316.824 135.116 316.721 135.101C316.618 135.085 316.512 135.097 316.416 135.136L315.122 133.925C315.056 133.86 314.967 133.824 314.875 133.824C314.783 133.824 314.694 133.86 314.628 133.925L314.512 134.048C314.48 134.08 314.454 134.118 314.436 134.159C314.418 134.201 314.409 134.246 314.409 134.291C314.409 134.337 314.418 134.382 314.436 134.423C314.454 134.465 314.48 134.503 314.512 134.534L315.79 135.738C315.751 135.847 315.745 135.965 315.773 136.078C315.8 136.191 315.861 136.293 315.946 136.372L318.138 138.523C318.283 138.666 318.478 138.746 318.682 138.746C318.885 138.746 319.081 138.666 319.226 138.523C319.298 138.451 319.355 138.365 319.394 138.271C319.433 138.177 319.453 138.076 319.453 137.975C319.453 137.873 319.433 137.772 319.394 137.678C319.355 137.584 319.298 137.499 319.226 137.427L317.001 135.227Z" fill="white"/>
</svg>
