<svg width="607" height="859" viewBox="0 0 607 859" fill="none" xmlns="http://www.w3.org/2000/svg">
<path d="M139.802 811.021C139.802 810.306 139.802 809.617 139.802 808.877C139.813 797.595 135.736 786.691 128.324 778.186C120.913 769.68 110.67 764.148 99.4928 762.615C88.3157 761.082 76.9617 763.651 67.5337 769.847C58.1058 776.043 51.2426 785.446 48.2154 796.314C40.9206 797.063 34.1608 800.484 29.238 805.919C24.3151 811.354 21.5773 818.418 21.5519 825.751C21.5266 833.084 24.2154 840.167 29.1006 845.636C33.9858 851.105 40.7218 854.573 48.0112 855.372V855.551H139.343C145.248 855.598 150.93 853.298 155.139 849.156C159.348 845.014 161.739 839.37 161.787 833.465C161.834 827.56 159.534 821.878 155.392 817.669C151.25 813.46 145.605 811.069 139.7 811.021H139.802Z" fill="white" stroke="#263238" stroke-linecap="round" stroke-linejoin="round"/>
<path d="M117.771 840.059L90.1696 802.679L62.5684 840.059H73.3433V858.468H106.996V840.059H117.771Z" fill="#263238" stroke="#263238" stroke-linecap="round" stroke-linejoin="round"/>
<path d="M449.295 811.022C449.295 810.307 449.295 809.617 449.295 808.877C449.306 797.595 445.228 786.692 437.816 778.186C430.405 769.68 420.162 764.149 408.985 762.616C397.808 761.082 386.454 763.652 377.026 769.848C367.598 776.044 360.735 785.447 357.708 796.315C350.413 797.063 343.653 800.484 338.73 805.919C333.807 811.354 331.069 818.419 331.044 825.752C331.019 833.085 333.708 840.168 338.593 845.637C343.478 851.106 350.214 854.574 357.503 855.373V855.551H448.835C454.74 855.599 460.422 853.298 464.631 849.157C468.84 845.015 471.231 839.37 471.279 833.465C471.326 827.56 469.026 821.878 464.884 817.669C460.742 813.46 455.098 811.069 449.193 811.022H449.295Z" fill="white" stroke="#263238" stroke-linecap="round" stroke-linejoin="round"/>
<path d="M427.261 840.061L399.66 802.68L372.059 840.061H382.834V858.47H416.486V840.061H427.261Z" fill="#263238" stroke="#263238" stroke-linecap="round" stroke-linejoin="round"/>
<path d="M134.3 226.387C134.3 225.672 134.3 224.983 134.3 224.242C134.311 212.96 130.233 202.057 122.821 193.551C115.41 185.045 105.167 179.514 93.9899 177.981C82.8128 176.448 71.4588 179.017 62.0308 185.213C52.6028 191.409 45.7396 200.812 42.7125 211.68C35.4177 212.428 28.6579 215.85 23.735 221.285C18.8121 226.72 16.0744 233.784 16.049 241.117C16.0236 248.45 18.7125 255.533 23.5977 261.002C28.4828 266.471 35.2188 269.939 42.5082 270.738V270.917H133.84C139.745 270.964 145.427 268.664 149.636 264.522C153.845 260.38 156.236 254.735 156.284 248.83C156.331 242.925 154.031 237.243 149.889 233.034C145.747 228.826 140.102 226.434 134.197 226.387H134.3Z" fill="white" stroke="#263238" stroke-linecap="round" stroke-linejoin="round"/>
<path d="M112.266 255.426L84.6647 218.045L57.0635 255.426H67.8384V273.835H101.491V255.426H112.266Z" fill="#263238" stroke="#263238" stroke-linecap="round" stroke-linejoin="round"/>
<path d="M449.295 226.386C449.295 225.671 449.295 224.982 449.295 224.242C449.306 212.96 445.228 202.056 437.816 193.551C430.405 185.045 420.162 179.513 408.985 177.98C397.808 176.447 386.454 179.016 377.026 185.212C367.598 191.408 360.735 200.811 357.708 211.679C350.413 212.428 343.653 215.849 338.73 221.284C333.807 226.719 331.069 233.783 331.044 241.116C331.019 248.449 333.708 255.532 338.593 261.001C343.478 266.47 350.214 269.938 357.503 270.737V270.916H448.835C454.74 270.963 460.422 268.663 464.631 264.521C468.84 260.379 471.231 254.735 471.279 248.83C471.326 242.925 469.026 237.243 464.884 233.034C460.742 228.825 455.098 226.434 449.193 226.386H449.295Z" fill="white" stroke="#263238" stroke-linecap="round" stroke-linejoin="round"/>
<path d="M427.261 255.425L399.66 218.045L372.059 255.425H382.834V273.834H416.486V255.425H427.261Z" fill="#263238" stroke="#263238" stroke-linecap="round" stroke-linejoin="round"/>
<path d="M96.0068 704.243L88.6088 702.829C88.4557 699.497 87.7505 696.213 86.522 693.111L92.9973 688.699C94.5041 687.675 95.5426 686.095 95.8846 684.306C96.2265 682.517 95.8437 680.666 94.8205 679.159C93.7972 677.652 92.2173 676.614 90.4283 676.272C88.6393 675.93 86.7878 676.313 85.281 677.336L78.7248 681.788C76.2907 679.628 73.533 677.863 70.5521 676.557L72.1013 668.451C72.3435 666.703 71.9052 664.929 70.8768 663.495C69.8484 662.061 68.3087 661.077 66.5754 660.746C64.8422 660.415 63.048 660.762 61.5633 661.715C60.0786 662.669 59.0169 664.156 58.5974 665.87L57.0584 673.923C53.8731 674.052 50.729 674.69 47.745 675.812L43.0494 668.898C42.0238 667.389 40.441 666.349 38.6489 666.006C36.8568 665.664 35.0021 666.047 33.4923 667.071C31.9927 668.1 30.96 669.679 30.6186 671.466C30.2771 673.252 30.6547 675.101 31.6691 676.61L36.2821 683.381C34.0715 685.704 32.2441 688.365 30.8684 691.262L22.8864 689.736C21.0934 689.394 19.2376 689.777 17.7274 690.803C16.2172 691.828 15.1762 693.412 14.8335 695.205C14.4961 696.996 14.8826 698.847 15.9084 700.354C16.9342 701.86 18.5155 702.898 20.3055 703.24L28.0398 704.718C28.1078 708.019 28.7233 711.286 29.8611 714.386L23.3007 718.764C21.794 719.787 20.7554 721.367 20.4135 723.156C20.0715 724.945 20.4543 726.796 21.4775 728.303C22.5008 729.81 24.0807 730.849 25.8697 731.19C27.6587 731.532 29.5102 731.15 31.017 730.126L37.2114 725.935C39.6478 728.301 42.4645 730.241 45.544 731.674L44.13 739.072C43.9081 739.978 43.873 740.921 44.0268 741.842C44.1805 742.762 44.52 743.642 45.0246 744.428C45.5291 745.213 46.1881 745.888 46.9616 746.411C47.7351 746.933 48.6068 747.293 49.5238 747.469C50.4407 747.644 51.3838 747.631 52.2955 747.43C53.2072 747.229 54.0686 746.845 54.8272 746.301C55.5859 745.757 56.2259 745.065 56.7084 744.265C57.1909 743.466 57.5058 742.577 57.634 741.653L58.987 734.573C62.4347 734.503 65.8446 733.839 69.0666 732.61L73.1752 738.661C73.6817 739.407 74.3302 740.046 75.0838 740.542C75.8374 741.037 76.6812 741.38 77.5672 741.549C78.4531 741.718 79.3637 741.711 80.2469 741.529C81.1301 741.346 81.9687 740.991 82.7147 740.484C84.2236 739.458 85.2636 737.875 85.6061 736.083C85.9486 734.291 85.5656 732.437 84.5413 730.927L80.4756 724.94C82.8147 722.437 84.7116 719.555 86.0852 716.417L93.4123 717.818C95.1602 718.06 96.9344 717.622 98.3683 716.593C99.8023 715.565 100.787 714.025 101.118 712.292C101.449 710.559 101.102 708.765 100.148 707.28C99.1947 705.795 97.7073 704.733 95.9933 704.314L96.0068 704.243ZM55.2569 720.303C52.0602 719.692 49.1166 718.147 46.7984 715.863C44.4803 713.578 42.8917 710.658 42.2337 707.471C41.5758 704.283 41.8779 700.973 43.102 697.957C44.3261 694.942 46.4171 692.357 49.1105 690.53C51.8038 688.703 54.9785 687.716 58.233 687.694C61.4874 687.672 64.6753 688.615 67.3933 690.405C70.1113 692.195 72.2374 694.751 73.5025 697.75C74.7676 700.748 75.1149 704.055 74.5004 707.251C74.1012 709.378 73.2857 711.405 72.1009 713.216C70.9161 715.027 69.3853 716.586 67.5963 717.803C65.8073 719.021 63.7954 719.874 61.6761 720.312C59.5568 720.75 57.3719 720.765 55.2467 720.356L55.2569 720.303Z" stroke="white" stroke-width="2" stroke-linecap="round" stroke-linejoin="round"/>
<path d="M153.579 645.093L146.252 643.693C146.099 640.36 145.394 637.076 144.165 633.975L150.658 629.565C152.166 628.54 153.204 626.957 153.544 625.167C153.885 623.376 153.5 621.523 152.474 620.015C151.449 618.508 149.867 617.47 148.076 617.13C146.285 616.789 144.432 617.174 142.924 618.199L136.368 622.652C133.939 620.485 131.18 618.719 128.196 617.421L129.745 609.315C129.987 607.567 129.549 605.793 128.52 604.359C127.492 602.925 125.952 601.941 124.219 601.609C122.486 601.278 120.691 601.625 119.207 602.579C117.722 603.532 116.66 605.02 116.241 606.734L114.702 614.787C111.517 614.916 108.372 615.554 105.388 616.676L100.693 609.761C100.186 609.015 99.5378 608.375 98.7842 607.88C98.0307 607.384 97.1868 607.042 96.3009 606.873C95.415 606.703 94.5044 606.71 93.6212 606.893C92.7379 607.076 91.8994 607.431 91.1534 607.938C90.4071 608.444 89.7678 609.093 89.2723 609.846C88.7767 610.6 88.4345 611.444 88.2651 612.33C88.0958 613.216 88.1027 614.126 88.2855 615.01C88.4682 615.893 88.8232 616.731 89.3302 617.477L93.9256 624.244C91.7149 626.568 89.8876 629.228 88.5119 632.125L80.4591 630.586C78.68 630.27 76.848 630.667 75.3586 631.69C73.8692 632.712 72.8417 634.28 72.498 636.054C72.1606 637.845 72.5472 639.697 73.573 641.203C74.5988 642.709 76.18 643.747 77.9701 644.089L85.7043 645.567C85.7805 648.868 86.3958 652.133 87.5256 655.235L80.838 659.607C80.0917 660.115 79.4527 660.765 78.9575 661.519C78.4624 662.274 78.1207 663.119 77.9521 664.006C77.7835 664.893 77.7911 665.804 77.9747 666.688C78.1583 667.572 78.5141 668.411 79.0219 669.157C79.5298 669.903 80.1796 670.542 80.9344 671.037C81.6891 671.532 82.534 671.874 83.4208 672.043C84.3076 672.211 85.2189 672.204 86.1028 672.02C86.9866 671.837 87.8256 671.481 88.5719 670.973L94.7664 666.782C97.1941 669.149 100.006 671.089 103.081 672.517L101.681 679.844C101.459 680.751 101.424 681.693 101.578 682.614C101.731 683.535 102.071 684.415 102.575 685.2C103.08 685.986 103.739 686.66 104.512 687.183C105.286 687.706 106.158 688.066 107.075 688.241C107.992 688.416 108.935 688.403 109.846 688.203C110.758 688.002 111.619 687.618 112.378 687.074C113.137 686.53 113.777 685.837 114.259 685.038C114.742 684.239 115.057 683.35 115.185 682.425L116.538 675.346C119.986 675.279 123.396 674.615 126.617 673.383L130.726 679.433C131.232 680.179 131.881 680.819 132.635 681.314C133.388 681.81 134.232 682.152 135.118 682.321C136.004 682.491 136.914 682.484 137.798 682.301C138.681 682.118 139.519 681.763 140.265 681.256C141.774 680.231 142.814 678.648 143.157 676.856C143.499 675.064 143.116 673.209 142.092 671.699L138.026 665.712C140.377 663.214 142.286 660.335 143.671 657.197L150.999 658.597C152.746 658.839 154.521 658.401 155.955 657.373C157.388 656.344 158.373 654.804 158.704 653.071C159.035 651.338 158.688 649.544 157.735 648.059C156.781 646.574 155.293 645.513 153.579 645.093ZM112.847 661.157C109.649 660.549 106.703 659.006 104.382 656.724C102.061 654.441 100.47 651.521 99.8091 648.334C99.1484 645.146 99.4481 641.835 100.67 638.817C101.893 635.8 103.983 633.214 106.676 631.385C109.369 629.556 112.544 628.567 115.799 628.544C119.054 628.52 122.243 629.463 124.962 631.253C127.681 633.042 129.808 635.599 131.074 638.598C132.34 641.597 132.688 644.904 132.073 648.101C131.674 650.226 130.86 652.252 129.676 654.062C128.493 655.872 126.963 657.431 125.176 658.648C123.389 659.866 121.379 660.719 119.262 661.159C117.145 661.598 114.961 661.616 112.837 661.21L112.847 661.157Z" stroke="white" stroke-width="2" stroke-linecap="round" stroke-linejoin="round"/>
<path d="M405.498 704.244L398.1 702.83C397.947 699.497 397.242 696.213 396.013 693.112L402.488 688.699C403.995 687.676 405.034 686.096 405.376 684.307C405.718 682.518 405.335 680.666 404.312 679.159C403.288 677.653 401.709 676.614 399.92 676.272C398.131 675.93 396.279 676.313 394.772 677.336L388.216 681.788C385.782 679.628 383.024 677.863 380.043 676.558L381.593 668.452C381.835 666.704 381.396 664.93 380.368 663.496C379.34 662.062 377.8 661.077 376.067 660.746C374.333 660.415 372.539 660.762 371.055 661.716C369.57 662.669 368.508 664.157 368.089 665.871L366.55 673.924C363.364 674.053 360.22 674.691 357.236 675.813L352.541 668.898C351.515 667.389 349.932 666.349 348.14 666.006C346.348 665.664 344.493 666.047 342.983 667.071C341.484 668.1 340.451 669.68 340.11 671.466C339.768 673.252 340.146 675.101 341.16 676.611L345.773 683.381C343.563 685.705 341.735 688.365 340.36 691.262L332.378 689.737C330.585 689.394 328.729 689.778 327.219 690.803C325.708 691.829 324.667 693.412 324.325 695.205C323.987 696.996 324.374 698.848 325.4 700.354C326.425 701.86 328.007 702.898 329.797 703.241L337.531 704.719C337.599 708.02 338.215 711.287 339.352 714.386L332.792 718.764C331.285 719.787 330.247 721.367 329.905 723.156C329.563 724.945 329.946 726.797 330.969 728.304C331.992 729.81 333.572 730.849 335.361 731.191C337.15 731.533 339.001 731.15 340.508 730.127L346.703 725.936C349.139 728.302 351.956 730.242 355.035 731.674L353.621 739.072C353.399 739.979 353.364 740.921 353.518 741.842C353.672 742.763 354.011 743.643 354.516 744.428C355.02 745.214 355.679 745.888 356.453 746.411C357.226 746.934 358.098 747.294 359.015 747.469C359.932 747.644 360.875 747.631 361.787 747.431C362.698 747.23 363.56 746.846 364.318 746.302C365.077 745.758 365.717 745.065 366.2 744.266C366.682 743.467 366.997 742.578 367.125 741.653L368.478 734.574C371.926 734.504 375.336 733.84 378.558 732.611L382.666 738.661C383.173 739.407 383.821 740.047 384.575 740.542C385.329 741.038 386.172 741.38 387.058 741.549C387.944 741.719 388.855 741.712 389.738 741.529C390.621 741.346 391.46 740.991 392.206 740.484C393.715 739.459 394.755 737.876 395.097 736.084C395.44 734.292 395.057 732.437 394.032 730.927L389.967 724.94C392.306 722.438 394.203 719.556 395.576 716.418L402.904 717.818C404.651 718.06 406.426 717.622 407.86 716.594C409.294 715.565 410.278 714.026 410.609 712.292C410.94 710.559 410.593 708.765 409.64 707.28C408.686 705.796 407.198 704.734 405.484 704.314L405.498 704.244ZM364.748 720.304C361.551 719.693 358.608 718.147 356.29 715.863C353.971 713.579 352.383 710.658 351.725 707.471C351.067 704.284 351.369 700.973 352.593 697.957C353.817 694.942 355.908 692.357 358.602 690.53C361.295 688.703 364.47 687.716 367.724 687.694C370.979 687.672 374.166 688.616 376.885 690.406C379.603 692.196 381.729 694.752 382.994 697.75C384.259 700.749 384.606 704.055 383.992 707.251C383.592 709.378 382.777 711.405 381.592 713.216C380.407 715.027 378.876 716.586 377.088 717.804C375.299 719.022 373.287 719.874 371.167 720.312C369.048 720.75 366.863 720.765 364.738 720.357L364.748 720.304Z" stroke="white" stroke-width="2" stroke-linecap="round" stroke-linejoin="round"/>
<path d="M463.071 645.094L455.743 643.693C455.59 640.361 454.885 637.077 453.657 633.975L460.15 629.566C461.657 628.54 462.695 626.958 463.036 625.167C463.376 623.376 462.991 621.523 461.966 620.016C460.94 618.509 459.358 617.471 457.567 617.13C455.776 616.789 453.923 617.174 452.416 618.2L445.859 622.652C443.43 620.485 440.672 618.719 437.687 617.421L439.236 609.315C439.478 607.567 439.04 605.793 438.011 604.359C436.983 602.925 435.443 601.941 433.71 601.61C431.977 601.279 430.183 601.626 428.698 602.579C427.213 603.533 426.152 605.02 425.732 606.734L424.193 614.787C421.008 614.916 417.864 615.554 414.88 616.676L410.184 609.762C409.678 609.015 409.029 608.376 408.275 607.88C407.522 607.385 406.678 607.043 405.792 606.873C404.906 606.704 403.996 606.711 403.112 606.894C402.229 607.076 401.391 607.431 400.645 607.938C399.898 608.445 399.259 609.093 398.763 609.847C398.268 610.601 397.926 611.444 397.756 612.33C397.587 613.216 397.594 614.127 397.777 615.01C397.959 615.893 398.314 616.732 398.821 617.478L403.417 624.245C401.206 626.568 399.379 629.229 398.003 632.126L389.95 630.587C388.171 630.271 386.339 630.667 384.85 631.69C383.36 632.713 382.333 634.281 381.989 636.055C381.652 637.845 382.038 639.697 383.064 641.203C384.09 642.71 385.671 643.748 387.461 644.09L395.195 645.568C395.272 648.868 395.887 652.134 397.017 655.235L390.329 659.607C389.583 660.115 388.944 660.765 388.449 661.52C387.954 662.275 387.612 663.119 387.443 664.006C387.275 664.893 387.282 665.804 387.466 666.688C387.649 667.572 388.005 668.411 388.513 669.157C389.021 669.904 389.671 670.543 390.426 671.038C391.18 671.533 392.025 671.875 392.912 672.043C393.799 672.212 394.71 672.204 395.594 672.021C396.478 671.837 397.317 671.481 398.063 670.973L404.258 666.782C406.685 669.15 409.497 671.089 412.572 672.517L411.172 679.845C410.95 680.751 410.915 681.694 411.069 682.615C411.223 683.535 411.562 684.415 412.067 685.201C412.571 685.986 413.23 686.661 414.004 687.184C414.777 687.706 415.649 688.066 416.566 688.242C417.483 688.417 418.426 688.404 419.337 688.203C420.249 688.002 421.111 687.618 421.869 687.074C422.628 686.53 423.268 685.838 423.75 685.038C424.233 684.239 424.548 683.35 424.676 682.425L426.029 675.346C429.477 675.28 432.888 674.616 436.109 673.383L440.217 679.434C440.724 680.18 441.372 680.819 442.126 681.315C442.879 681.81 443.723 682.153 444.609 682.322C445.495 682.491 446.406 682.484 447.289 682.302C448.172 682.119 449.011 681.764 449.757 681.257C451.266 680.231 452.306 678.648 452.648 676.856C452.991 675.064 452.608 673.209 451.583 671.7L447.518 665.713C449.869 663.215 451.778 660.335 453.163 657.197L460.49 658.598C462.238 658.84 464.012 658.401 465.446 657.373C466.88 656.345 467.864 654.805 468.195 653.072C468.526 651.338 468.179 649.544 467.226 648.06C466.272 646.575 464.785 645.513 463.071 645.094ZM422.338 661.157C419.14 660.55 416.194 659.007 413.874 656.724C411.553 654.442 409.961 651.522 409.3 648.334C408.64 645.147 408.939 641.835 410.162 638.818C411.384 635.801 413.474 633.214 416.167 631.385C418.86 629.557 422.035 628.568 425.29 628.544C428.545 628.521 431.734 629.464 434.453 631.253C437.173 633.043 439.3 635.599 440.565 638.598C441.831 641.597 442.179 644.904 441.564 648.101C441.165 650.227 440.351 652.252 439.167 654.062C437.984 655.872 436.455 657.431 434.668 658.649C432.881 659.867 430.871 660.72 428.753 661.159C426.636 661.599 424.452 661.616 422.328 661.21L422.338 661.157Z" stroke="white" stroke-width="2" stroke-linecap="round" stroke-linejoin="round"/>
<path d="M472.155 740.995L467.218 740.052C467.115 737.806 466.64 735.593 465.812 733.503L470.187 730.532C471.203 729.841 471.902 728.774 472.132 727.568C472.361 726.361 472.102 725.112 471.411 724.097C470.72 723.081 469.653 722.381 468.447 722.152C467.24 721.922 465.991 722.182 464.975 722.873L460.558 725.873C458.921 724.413 457.062 723.223 455.05 722.348L456.094 716.886C456.258 715.708 455.962 714.512 455.269 713.546C454.576 712.58 453.539 711.917 452.371 711.693C451.203 711.47 449.994 711.704 448.993 712.347C447.993 712.989 447.277 713.992 446.995 715.147L445.958 720.573C443.811 720.66 441.692 721.09 439.682 721.846L436.518 717.187C436.176 716.684 435.739 716.253 435.231 715.919C434.724 715.585 434.155 715.354 433.558 715.24C432.961 715.126 432.347 715.131 431.752 715.254C431.157 715.377 430.592 715.616 430.089 715.958C429.586 716.299 429.156 716.736 428.822 717.244C428.488 717.752 428.257 718.321 428.143 718.918C428.029 719.514 428.034 720.128 428.157 720.723C428.28 721.318 428.519 721.884 428.861 722.386L431.957 726.946C430.468 728.512 429.236 730.304 428.309 732.257L422.883 731.22C421.684 731.007 420.45 731.274 419.446 731.963C418.442 732.652 417.75 733.709 417.518 734.904C417.291 736.111 417.552 737.359 418.243 738.374C418.934 739.389 420 740.088 421.206 740.319L426.417 741.315C426.469 743.539 426.883 745.739 427.645 747.829L423.138 750.775C422.635 751.118 422.205 751.555 421.871 752.064C421.537 752.573 421.307 753.142 421.194 753.74C421.08 754.337 421.085 754.951 421.209 755.547C421.333 756.142 421.572 756.708 421.915 757.211C422.257 757.714 422.695 758.144 423.203 758.478C423.712 758.811 424.281 759.042 424.879 759.155C425.476 759.269 426.09 759.264 426.686 759.14C427.282 759.016 427.847 758.777 428.35 758.434L432.524 755.61C434.16 757.206 436.054 758.512 438.127 759.475L437.183 764.412C437.034 765.023 437.01 765.658 437.114 766.279C437.217 766.899 437.446 767.492 437.786 768.022C438.126 768.551 438.57 769.005 439.091 769.358C439.613 769.71 440.2 769.953 440.818 770.071C441.436 770.189 442.071 770.18 442.686 770.045C443.3 769.909 443.88 769.651 444.392 769.284C444.903 768.917 445.334 768.451 445.659 767.912C445.984 767.374 446.197 766.775 446.283 766.151L447.195 761.381C449.518 761.336 451.816 760.889 453.987 760.058L456.756 764.135C457.097 764.638 457.534 765.069 458.042 765.403C458.549 765.737 459.118 765.967 459.715 766.082C460.312 766.196 460.926 766.191 461.521 766.068C462.116 765.945 462.681 765.706 463.184 765.364C464.201 764.673 464.901 763.606 465.132 762.399C465.363 761.191 465.105 759.941 464.415 758.924L461.675 754.889C463.259 753.206 464.546 751.266 465.479 749.151L470.416 750.095C471.594 750.258 472.79 749.963 473.756 749.27C474.722 748.577 475.385 747.539 475.609 746.371C475.832 745.203 475.598 743.994 474.955 742.994C474.313 741.993 473.31 741.278 472.155 740.995ZM444.708 751.82C442.553 751.41 440.568 750.371 439.004 748.833C437.44 747.294 436.367 745.327 435.922 743.179C435.477 741.031 435.679 738.799 436.502 736.766C437.326 734.733 438.734 732.99 440.549 731.758C442.364 730.526 444.503 729.859 446.697 729.843C448.89 729.828 451.039 730.463 452.872 731.669C454.704 732.875 456.137 734.597 456.99 736.618C457.843 738.639 458.077 740.868 457.663 743.022C457.394 744.454 456.845 745.819 456.048 747.039C455.25 748.259 454.22 749.309 453.016 750.129C451.812 750.95 450.457 751.525 449.03 751.821C447.604 752.117 446.132 752.129 444.701 751.855L444.708 751.82Z" stroke="white" stroke-width="2" stroke-linecap="round" stroke-linejoin="round"/>
<path d="M90.5039 119.609L83.1059 118.195C82.9528 114.862 82.2476 111.578 81.0191 108.477L87.4944 104.064C89.0011 103.041 90.0397 101.461 90.3816 99.672C90.7236 97.883 90.3408 96.0314 89.3176 94.5246C88.2943 93.0179 86.7144 91.9793 84.9254 91.6374C83.1364 91.2954 81.2849 91.6782 79.7781 92.7014L73.2219 97.1537C70.7878 94.9936 68.0301 93.2285 65.0492 91.9227L66.5984 83.8168C66.8406 82.0689 66.4022 80.2948 65.3739 78.8608C64.3455 77.4269 62.8057 76.4426 61.0725 76.1114C59.3393 75.7801 57.5451 76.1271 56.0604 77.0808C54.5757 78.0345 53.514 79.5219 53.0945 81.2359L51.5554 89.2887C48.3702 89.418 45.226 90.0557 42.2421 91.1777L37.5465 84.2631C36.5208 82.7542 34.9381 81.7142 33.146 81.3717C31.3539 81.0292 29.4991 81.4122 27.9893 82.4365C26.4898 83.4656 25.457 85.0449 25.1156 86.8313C24.7742 88.6176 25.1517 90.4665 26.1661 91.976L30.7792 98.7464C28.5686 101.07 26.7412 103.73 25.3655 106.627L17.3835 105.102C15.5904 104.759 13.7347 105.143 12.2245 106.168C10.7142 107.194 9.67327 108.777 9.33057 110.57C8.99315 112.361 9.37972 114.213 10.4055 115.719C11.4313 117.226 13.0126 118.264 14.8026 118.606L22.5368 120.084C22.6049 123.385 23.2204 126.652 24.3582 129.751L17.7978 134.129C16.291 135.152 15.2524 136.732 14.9105 138.521C14.5686 140.31 14.9514 142.162 15.9746 143.669C16.9978 145.175 18.5777 146.214 20.3667 146.556C22.1557 146.898 24.0073 146.515 25.5141 145.492L31.7085 141.301C34.1449 143.667 36.9616 145.607 40.041 147.039L38.6271 154.437C38.4052 155.344 38.37 156.286 38.5238 157.207C38.6776 158.128 39.0171 159.008 39.5216 159.793C40.0262 160.579 40.6852 161.254 41.4587 161.776C42.2322 162.299 43.1039 162.659 44.0208 162.834C44.9378 163.009 45.8808 162.996 46.7926 162.796C47.7043 162.595 48.5657 162.211 49.3243 161.667C50.083 161.123 50.723 160.43 51.2055 159.631C51.688 158.832 52.0029 157.943 52.131 157.018L53.4841 149.939C56.9318 149.869 60.3416 149.205 63.5636 147.976L67.6723 154.026C68.1787 154.773 68.8273 155.412 69.5809 155.907C70.3345 156.403 71.1783 156.745 72.0642 156.915C72.9501 157.084 73.8607 157.077 74.744 156.894C75.6272 156.711 76.4658 156.356 77.2117 155.849C78.7207 154.824 79.7607 153.241 80.1032 151.449C80.4457 149.657 80.0627 147.802 79.0383 146.292L74.9726 140.305C77.3118 137.803 79.2086 134.921 80.5823 131.783L87.9094 133.183C89.6573 133.426 91.4314 132.987 92.8654 131.959C94.2994 130.931 95.2836 129.391 95.6149 127.658C95.9461 125.924 95.5991 124.13 94.6454 122.645C93.6918 121.161 92.2043 120.099 90.4903 119.68L90.5039 119.609ZM49.7539 135.669C46.5573 135.058 43.6137 133.513 41.2955 131.228C38.9774 128.944 37.3888 126.024 36.7308 122.836C36.0728 119.649 36.375 116.338 37.5991 113.323C38.8232 110.307 40.9142 107.722 43.6075 105.896C46.3009 104.069 49.4756 103.082 52.73 103.059C55.9845 103.037 59.1723 103.981 61.8904 105.771C64.6084 107.561 66.7345 110.117 67.9996 113.115C69.2647 116.114 69.6119 119.42 68.9975 122.616C68.5982 124.743 67.7828 126.77 66.598 128.581C65.4132 130.392 63.8824 131.951 62.0934 133.169C60.3044 134.387 58.2925 135.239 56.1732 135.677C54.0539 136.115 51.869 136.131 49.7438 135.722L49.7539 135.669Z" stroke="white" stroke-width="2" stroke-linecap="round" stroke-linejoin="round"/>
<path d="M148.076 60.4588L140.749 59.0584C140.596 55.7259 139.891 52.4419 138.663 49.3403L145.155 44.931C146.663 43.9055 147.701 42.3231 148.041 40.5322C148.382 38.7412 147.997 36.8883 146.972 35.381C145.946 33.8738 144.364 32.8357 142.573 32.4951C140.782 32.1546 138.929 32.5394 137.422 33.565L130.865 38.0172C128.436 35.8504 125.677 34.0846 122.693 32.7863L124.242 24.6804C124.484 22.9325 124.046 21.1584 123.017 19.7244C121.989 18.2904 120.449 17.3062 118.716 16.9749C116.983 16.6437 115.189 16.9907 113.704 17.9444C112.219 18.898 111.157 20.3855 110.738 22.0995L109.199 30.1523C106.014 30.2816 102.869 30.9193 99.8855 32.0413L95.1899 25.1267C94.6835 24.3803 94.0349 23.7411 93.2813 23.2456C92.5277 22.75 91.6839 22.4078 90.798 22.2384C89.9121 22.0691 89.0015 22.076 88.1182 22.2588C87.235 22.4415 86.3964 22.7965 85.6505 23.3035C84.9041 23.8099 84.2649 24.4585 83.7693 25.2121C83.2738 25.9657 82.9315 26.8095 82.7622 27.6954C82.5929 28.5813 82.5998 29.4919 82.7826 30.3752C82.9653 31.2584 83.3203 32.0969 83.8273 32.8429L88.4226 39.6099C86.212 41.9336 84.3846 44.5937 83.0089 47.4909L74.9562 45.9518C73.1771 45.6359 71.3451 46.0322 69.8557 47.0551C68.3662 48.0781 67.3388 49.6458 66.9951 51.4197C66.6577 53.2106 67.0442 55.0622 68.07 56.5685C69.0958 58.0748 70.6771 59.1128 72.4671 59.4549L80.2013 60.9331C80.2776 64.2333 80.8929 67.4988 82.0227 70.6004L75.3351 74.9725C74.5888 75.4803 73.9498 76.1302 73.4546 76.8849C72.9595 77.6397 72.6178 78.4846 72.4492 79.3714C72.2805 80.2582 72.2882 81.1695 72.4718 82.0534C72.6553 82.9372 73.0112 83.7762 73.519 84.5225C74.0268 85.2688 74.6767 85.9078 75.4314 86.403C76.1862 86.8981 77.0311 87.2398 77.9179 87.4084C78.8047 87.5771 79.716 87.5694 80.5998 87.3858C81.4837 87.2022 82.3227 86.8464 83.069 86.3386L89.2634 82.1474C91.6912 84.515 94.5026 86.4542 97.5783 87.8825L96.1779 95.2097C95.956 96.1165 95.9208 97.0589 96.0746 97.9797C96.2284 98.9005 96.5679 99.7804 97.0724 100.566C97.5769 101.351 98.236 102.026 99.0095 102.549C99.7829 103.072 100.655 103.431 101.572 103.607C102.489 103.782 103.432 103.769 104.343 103.568C105.255 103.368 106.116 102.983 106.875 102.439C107.634 101.895 108.274 101.203 108.756 100.403C109.239 99.6043 109.554 98.7153 109.682 97.7906L111.035 90.7112C114.483 90.6451 117.893 89.981 121.114 88.7485L125.223 94.7988C125.73 95.5451 126.378 96.1843 127.132 96.6799C127.885 97.1755 128.729 97.5177 129.615 97.687C130.501 97.8563 131.412 97.8494 132.295 97.6667C133.178 97.4839 134.017 97.1289 134.763 96.622C136.271 95.5963 137.311 94.0135 137.654 92.2214C137.996 90.4294 137.613 88.5746 136.589 87.0648L132.523 81.0778C134.874 78.5801 136.783 75.7005 138.168 72.5623L145.496 73.9627C147.243 74.2049 149.018 73.7665 150.452 72.7381C151.886 71.7098 152.87 70.17 153.201 68.4368C153.532 66.7036 153.185 64.9093 152.232 63.4247C151.278 61.94 149.79 60.8783 148.076 60.4588ZM107.344 76.5223C104.146 75.9147 101.2 74.372 98.8794 72.0894C96.5585 69.8069 94.9669 66.887 94.3062 63.6995C93.6454 60.512 93.9452 57.2002 95.1675 54.1831C96.3898 51.166 98.4797 48.5794 101.173 46.7506C103.866 44.9218 107.041 43.9331 110.296 43.9096C113.551 43.886 116.74 44.8287 119.459 46.6184C122.178 48.4081 124.306 50.9642 125.571 53.9633C126.837 56.9623 127.185 60.2695 126.57 63.4663C126.171 65.5917 125.357 67.6175 124.173 69.4275C122.99 71.2375 121.461 72.7962 119.673 74.014C117.886 75.2319 115.877 76.085 113.759 76.5246C111.642 76.9641 109.458 76.9814 107.334 76.5754L107.344 76.5223Z" stroke="white" stroke-width="2" stroke-linecap="round" stroke-linejoin="round"/>
<path d="M405.499 119.608L398.101 118.194C397.948 114.862 397.243 111.578 396.014 108.476L402.489 104.064C403.996 103.04 405.035 101.46 405.377 99.6715C405.719 97.8825 405.336 96.0309 404.313 94.5241C403.289 93.0174 401.71 91.9788 399.921 91.6369C398.132 91.2949 396.28 91.6777 394.773 92.7009L388.217 97.1532C385.783 94.9931 383.025 93.228 380.044 91.9222L381.594 83.8163C381.836 82.0684 381.397 80.2943 380.369 78.8603C379.341 77.4264 377.801 76.4421 376.068 76.1109C374.334 75.7796 372.54 76.1267 371.055 77.0803C369.571 78.034 368.509 79.5214 368.09 81.2354L366.551 89.2882C363.365 89.4175 360.221 90.0553 357.237 91.1772L352.542 84.2626C351.516 82.7537 349.933 81.7137 348.141 81.3712C346.349 81.0287 344.494 81.4117 342.984 82.436C341.485 83.4651 340.452 85.0444 340.111 86.8308C339.769 88.6171 340.147 90.466 341.161 91.9755L345.774 98.7459C343.564 101.069 341.736 103.73 340.361 106.627L332.379 105.101C330.586 104.759 328.73 105.142 327.22 106.168C325.709 107.193 324.668 108.777 324.326 110.57C323.988 112.361 324.375 114.212 325.401 115.719C326.426 117.225 328.008 118.263 329.798 118.605L337.532 120.083C337.6 123.384 338.216 126.651 339.353 129.751L332.793 134.129C331.286 135.152 330.248 136.732 329.906 138.521C329.564 140.31 329.946 142.161 330.97 143.668C331.993 145.175 333.573 146.214 335.362 146.556C337.151 146.897 339.002 146.515 340.509 145.491L346.704 141.3C349.14 143.666 351.957 145.606 355.036 147.039L353.622 154.437C353.4 155.343 353.365 156.286 353.519 157.207C353.673 158.128 354.012 159.007 354.517 159.793C355.021 160.578 355.68 161.253 356.454 161.776C357.227 162.299 358.099 162.658 359.016 162.834C359.933 163.009 360.876 162.996 361.788 162.795C362.699 162.595 363.561 162.211 364.319 161.666C365.078 161.122 365.718 160.43 366.201 159.631C366.683 158.831 366.998 157.942 367.126 157.018L368.479 149.938C371.927 149.869 375.337 149.205 378.559 147.976L382.667 154.026C383.174 154.772 383.822 155.411 384.576 155.907C385.33 156.403 386.173 156.745 387.059 156.914C387.945 157.083 388.856 157.076 389.739 156.894C390.622 156.711 391.461 156.356 392.207 155.849C393.716 154.823 394.756 153.241 395.098 151.448C395.441 149.656 395.058 147.802 394.033 146.292L389.968 140.305C392.307 137.802 394.204 134.921 395.577 131.783L402.905 133.183C404.652 133.425 406.427 132.987 407.861 131.958C409.294 130.93 410.279 129.39 410.61 127.657C410.941 125.924 410.594 124.13 409.641 122.645C408.687 121.16 407.199 120.099 405.485 119.679L405.499 119.608ZM364.749 135.668C361.552 135.057 358.609 133.512 356.291 131.228C353.972 128.944 352.384 126.023 351.726 122.836C351.068 119.648 351.37 116.338 352.594 113.322C353.818 110.307 355.909 107.722 358.603 105.895C361.296 104.068 364.471 103.081 367.725 103.059C370.98 103.037 374.167 103.98 376.885 105.77C379.604 107.56 381.73 110.116 382.995 113.115C384.26 116.113 384.607 119.42 383.993 122.616C383.593 124.743 382.778 126.77 381.593 128.581C380.408 130.392 378.877 131.951 377.088 133.169C375.3 134.386 373.288 135.239 371.168 135.677C369.049 136.115 366.864 136.13 364.739 135.722L364.749 135.668Z" stroke="white" stroke-width="2" stroke-linecap="round" stroke-linejoin="round"/>
<path d="M463.072 60.4583L455.744 59.0579C455.591 55.7254 454.886 52.4414 453.658 49.3398L460.151 44.9306C461.658 43.905 462.696 42.3226 463.036 40.5317C463.377 38.7407 462.992 36.8878 461.967 35.3806C460.941 33.8733 459.359 32.8352 457.568 32.4947C455.777 32.1541 453.924 32.5389 452.417 33.5645L445.86 38.0167C443.431 35.8499 440.673 34.0841 437.688 32.7858L439.237 24.6799C439.479 22.932 439.041 21.1579 438.012 19.7239C436.984 18.2899 435.444 17.3057 433.711 16.9744C431.978 16.6432 430.184 16.9902 428.699 17.9439C427.214 18.8975 426.153 20.385 425.733 22.099L424.194 30.1518C421.009 30.2811 417.865 30.9188 414.881 32.0408L410.185 25.1262C409.679 24.3799 409.03 23.7406 408.276 23.2451C407.523 22.7495 406.679 22.4073 405.793 22.2379C404.907 22.0686 403.997 22.0755 403.113 22.2583C402.23 22.441 401.392 22.796 400.646 23.303C399.899 23.8094 399.26 24.458 398.764 25.2116C398.269 25.9652 397.927 26.809 397.757 27.6949C397.588 28.5808 397.595 29.4914 397.778 30.3747C397.96 31.2579 398.315 32.0965 398.822 32.8424L403.418 39.6094C401.207 41.9331 399.38 44.5932 398.004 47.4904L389.951 45.9513C388.172 45.6354 386.34 46.0317 384.851 47.0547C383.361 48.0776 382.334 49.6453 381.99 51.4192C381.653 53.2101 382.039 55.0617 383.065 56.568C384.091 58.0743 385.672 59.1123 387.462 59.4544L395.196 60.9326C395.273 64.2328 395.888 67.4983 397.018 70.6L390.33 74.972C389.584 75.4799 388.945 76.1297 388.45 76.8845C387.955 77.6392 387.613 78.4841 387.444 79.3709C387.276 80.2577 387.283 81.169 387.467 82.0529C387.65 82.9367 388.006 83.7757 388.514 84.522C389.022 85.2683 389.672 85.9073 390.427 86.4025C391.181 86.8976 392.026 87.2393 392.913 87.4079C393.8 87.5766 394.711 87.5689 395.595 87.3853C396.479 87.2018 397.318 86.8459 398.064 86.3381L404.259 82.1469C406.686 84.5145 409.498 86.4537 412.573 87.882L411.173 95.2092C410.951 96.116 410.916 97.0584 411.07 97.9792C411.224 98.9 411.563 99.7799 412.068 100.565C412.572 101.351 413.231 102.026 414.005 102.548C414.778 103.071 415.65 103.431 416.567 103.606C417.484 103.781 418.427 103.768 419.338 103.568C420.25 103.367 421.112 102.983 421.87 102.439C422.629 101.895 423.269 101.202 423.751 100.403C424.234 99.6038 424.549 98.7148 424.677 97.7901L426.03 90.7107C429.478 90.6446 432.889 89.9805 436.11 88.748L440.218 94.7983C440.725 95.5446 441.373 96.1838 442.127 96.6794C442.88 97.175 443.724 97.5172 444.61 97.6865C445.496 97.8558 446.407 97.8489 447.29 97.6662C448.173 97.4834 449.012 97.1284 449.758 96.6215C451.267 95.5958 452.307 94.013 452.649 92.221C452.992 90.4289 452.609 88.5741 451.584 87.0643L447.519 81.0773C449.87 78.5796 451.779 75.7 453.164 72.5618L460.491 73.9622C462.239 74.2044 464.013 73.766 465.447 72.7377C466.881 71.7093 467.865 70.1695 468.196 68.4363C468.527 66.7031 468.18 64.9088 467.227 63.4242C466.273 61.9395 464.786 60.8778 463.072 60.4583ZM422.339 76.5218C419.141 75.9142 416.195 74.3715 413.875 72.089C411.554 69.8064 409.962 66.8865 409.301 63.6991C408.641 60.5116 408.94 57.1997 410.163 54.1826C411.385 51.1655 413.475 48.5789 416.168 46.7501C418.861 44.9213 422.036 43.9326 425.291 43.9091C428.546 43.8855 431.735 44.8283 434.454 46.6179C437.174 48.4076 439.301 50.9637 440.566 53.9628C441.832 56.9618 442.18 60.269 441.565 63.4658C441.166 65.5912 440.352 67.617 439.168 69.427C437.985 71.2371 436.456 72.7957 434.669 74.0135C432.882 75.2314 430.872 76.0846 428.754 76.5241C426.637 76.9636 424.453 76.9809 422.329 76.5749L422.339 76.5218Z" stroke="white" stroke-width="2" stroke-linecap="round" stroke-linejoin="round"/>
<path d="M20.3091 298.631H125.208C127.454 298.631 129.609 299.524 131.198 301.112C132.786 302.701 133.679 304.856 133.679 307.102V430.552C133.679 434.589 132.075 438.46 129.221 441.314C126.367 444.168 122.496 445.772 118.459 445.772H27.1423C23.1059 445.772 19.2347 444.168 16.3805 441.314C13.5263 438.46 11.9229 434.589 11.9229 430.552L11.9229 307.018C11.9449 304.8 12.8356 302.68 14.4035 301.112C15.9715 299.544 18.0918 298.653 20.3091 298.631Z" fill="white" stroke="#263238" stroke-linecap="round" stroke-linejoin="round"/>
<path d="M20.3072 298.632H125.206C127.453 298.632 129.607 299.524 131.196 301.113C132.784 302.701 133.677 304.856 133.677 307.103V313.569H11.9492V307.103C11.949 304.875 12.826 302.738 14.3902 301.152C15.9545 299.567 18.0802 298.661 20.3072 298.632Z" fill="#263238" stroke="#263238" stroke-linecap="round" stroke-linejoin="round"/>
<path d="M103.945 306.34C103.945 305.558 103.713 304.794 103.279 304.144C102.845 303.494 102.227 302.987 101.505 302.688C100.783 302.389 99.9878 302.311 99.221 302.463C98.4541 302.616 97.7498 302.992 97.1969 303.545C96.6441 304.098 96.2676 304.802 96.115 305.569C95.9625 306.336 96.0408 307.131 96.34 307.853C96.6392 308.575 97.1459 309.193 97.7959 309.627C98.446 310.062 99.2103 310.293 99.9922 310.293C101.041 310.293 102.046 309.877 102.787 309.136C103.529 308.394 103.945 307.389 103.945 306.34Z" fill="white" stroke="#263238" stroke-linecap="round" stroke-linejoin="round"/>
<path d="M116.596 306.339C116.596 305.557 116.364 304.793 115.929 304.143C115.495 303.493 114.878 302.986 114.155 302.687C113.433 302.388 112.638 302.309 111.871 302.462C111.105 302.614 110.4 302.991 109.847 303.544C109.294 304.097 108.918 304.801 108.765 305.568C108.613 306.335 108.691 307.13 108.99 307.852C109.29 308.574 109.796 309.192 110.446 309.626C111.096 310.06 111.861 310.292 112.643 310.292C113.691 310.292 114.696 309.876 115.438 309.134C116.179 308.393 116.596 307.387 116.596 306.339Z" fill="white" stroke="#263238" stroke-linecap="round" stroke-linejoin="round"/>
<path d="M129.272 306.341C129.278 305.553 129.049 304.78 128.615 304.122C128.181 303.463 127.561 302.949 126.834 302.643C126.107 302.337 125.306 302.255 124.532 302.405C123.757 302.555 123.045 302.932 122.486 303.488C121.926 304.044 121.544 304.753 121.388 305.526C121.232 306.299 121.309 307.101 121.61 307.83C121.91 308.559 122.421 309.183 123.076 309.622C123.731 310.06 124.502 310.295 125.291 310.295C126.342 310.295 127.35 309.879 128.096 309.138C128.842 308.398 129.265 307.392 129.272 306.341Z" fill="white" stroke="#263238" stroke-linecap="round" stroke-linejoin="round"/>
<path d="M58.1472 330.37L37.3086 346.86L58.1472 363.35" stroke="#263238" stroke-width="3" stroke-linecap="round" stroke-linejoin="round"/>
<path d="M86.75 330.369L107.589 346.859L86.75 363.349" stroke="#263238" stroke-width="3" stroke-linecap="round" stroke-linejoin="round"/>
<path d="M75.1151 326.501L68.8184 366.258" stroke="#263238" stroke-width="3" stroke-linecap="round" stroke-linejoin="round"/>
<path d="M98.0732 385.093H121.086" stroke="#263238" stroke-linecap="round" stroke-linejoin="round"/>
<path d="M63.9326 385.092H93.8634" stroke="#263238" stroke-linecap="round" stroke-linejoin="round"/>
<path d="M38.7744 385.092H57.3541" stroke="#263238" stroke-linecap="round" stroke-linejoin="round"/>
<path d="M25.8975 385.092H34.5943" stroke="#263238" stroke-linecap="round" stroke-linejoin="round"/>
<path d="M107.645 398.674H121.085" stroke="#263238" stroke-linecap="round" stroke-linejoin="round"/>
<path d="M40.582 398.674H101.065" stroke="#263238" stroke-linecap="round" stroke-linejoin="round"/>
<path d="M25.8975 398.673H33.3801" stroke="#263238" stroke-linecap="round" stroke-linejoin="round"/>
<path d="M75.3105 412.284H121.082" stroke="#263238" stroke-linecap="round" stroke-linejoin="round"/>
<path d="M36.9941 412.284H66.9249" stroke="#263238" stroke-linecap="round" stroke-linejoin="round"/>
<path d="M25.8975 412.284H32.1942" stroke="#263238" stroke-linecap="round" stroke-linejoin="round"/>
<path d="M108.24 425.893H121.088" stroke="#263238" stroke-linecap="round" stroke-linejoin="round"/>
<path d="M64.5293 425.893H101.067" stroke="#263238" stroke-linecap="round" stroke-linejoin="round"/>
<path d="M25.8975 425.894H57.353" stroke="#263238" stroke-linecap="round" stroke-linejoin="round"/>
<path d="M62.2398 325.513H167.138C169.385 325.513 171.54 326.406 173.128 327.994C174.717 329.583 175.609 331.737 175.609 333.984V457.547C175.609 461.584 174.006 465.455 171.152 468.309C168.298 471.163 164.426 472.767 160.39 472.767H69.073C65.0365 472.767 61.1654 471.163 58.3112 468.309C55.457 465.455 53.8535 461.584 53.8535 457.547L53.8535 333.899C53.8756 331.682 54.7662 329.562 56.3342 327.994C57.9022 326.426 60.0224 325.535 62.2398 325.513Z" fill="white" stroke="#263238" stroke-linecap="round" stroke-linejoin="round"/>
<path d="M62.2398 325.513H167.139C169.385 325.513 171.54 326.406 173.128 327.994C174.717 329.583 175.61 331.737 175.61 333.984V340.478H53.8536V334.012C53.846 331.775 54.7235 329.626 56.2947 328.034C57.8658 326.442 60.003 325.535 62.2398 325.513Z" fill="#263238" stroke="#263238" stroke-linecap="round" stroke-linejoin="round"/>
<path d="M141.922 337.175C144.105 337.175 145.875 335.405 145.875 333.222C145.875 331.039 144.105 329.269 141.922 329.269C139.739 329.269 137.969 331.039 137.969 333.222C137.969 335.405 139.739 337.175 141.922 337.175Z" fill="white" stroke="#263238" stroke-linecap="round" stroke-linejoin="round"/>
<path d="M158.526 333.221C158.526 332.439 158.294 331.675 157.86 331.025C157.426 330.375 156.808 329.868 156.086 329.569C155.364 329.27 154.569 329.191 153.802 329.344C153.035 329.496 152.331 329.873 151.778 330.426C151.225 330.978 150.849 331.683 150.696 332.45C150.544 333.217 150.622 334.011 150.921 334.734C151.22 335.456 151.727 336.073 152.377 336.508C153.027 336.942 153.791 337.174 154.573 337.174C155.622 337.174 156.627 336.758 157.369 336.016C158.11 335.275 158.526 334.269 158.526 333.221Z" fill="white" stroke="#263238" stroke-linecap="round" stroke-linejoin="round"/>
<path d="M167.222 337.175C169.405 337.175 171.175 335.405 171.175 333.222C171.175 331.038 169.405 329.268 167.222 329.268C165.038 329.268 163.269 331.038 163.269 333.222C163.269 335.405 165.038 337.175 167.222 337.175Z" fill="white" stroke="#263238" stroke-linecap="round" stroke-linejoin="round"/>
<path d="M100.079 357.251L79.2119 373.741L100.079 390.231" stroke="#263238" stroke-width="3" stroke-linecap="round" stroke-linejoin="round"/>
<path d="M128.68 357.251L149.518 373.741L128.68 390.231" stroke="#263238" stroke-width="3" stroke-linecap="round" stroke-linejoin="round"/>
<path d="M117.048 353.382L110.723 393.139" stroke="#263238" stroke-width="3" stroke-linecap="round" stroke-linejoin="round"/>
<path d="M139.979 411.973H163.02" stroke="#263238" stroke-linecap="round" stroke-linejoin="round"/>
<path d="M105.864 411.973H135.795" stroke="#263238" stroke-linecap="round" stroke-linejoin="round"/>
<path d="M80.7051 411.974H99.2565" stroke="#263238" stroke-linecap="round" stroke-linejoin="round"/>
<path d="M67.8018 411.973H76.5268" stroke="#263238" stroke-linecap="round" stroke-linejoin="round"/>
<path d="M149.576 425.583H163.017" stroke="#263238" stroke-linecap="round" stroke-linejoin="round"/>
<path d="M82.5137 425.582H142.968" stroke="#263238" stroke-linecap="round" stroke-linejoin="round"/>
<path d="M67.8008 425.583H75.3117" stroke="#263238" stroke-linecap="round" stroke-linejoin="round"/>
<path d="M117.242 439.165H163.014" stroke="#263238" stroke-linecap="round" stroke-linejoin="round"/>
<path d="M78.8984 439.165H108.857" stroke="#263238" stroke-linecap="round" stroke-linejoin="round"/>
<path d="M67.8018 439.165H74.1267" stroke="#263238" stroke-linecap="round" stroke-linejoin="round"/>
<path d="M150.17 452.775H163.018" stroke="#263238" stroke-linecap="round" stroke-linejoin="round"/>
<path d="M106.46 452.774H142.97" stroke="#263238" stroke-linecap="round" stroke-linejoin="round"/>
<path d="M67.8018 452.775H99.2573" stroke="#263238" stroke-linecap="round" stroke-linejoin="round"/>
<path d="M329.801 298.631H434.7C436.947 298.631 439.101 299.524 440.69 301.112C442.279 302.701 443.171 304.856 443.171 307.102V430.552C443.171 434.589 441.568 438.46 438.713 441.314C435.859 444.168 431.988 445.772 427.951 445.772H336.635C332.598 445.772 328.727 444.168 325.873 441.314C323.019 438.46 321.415 434.589 321.415 430.552V307.018C321.437 304.8 322.328 302.68 323.896 301.112C325.464 299.544 327.584 298.653 329.801 298.631Z" fill="white" stroke="#263238" stroke-linecap="round" stroke-linejoin="round"/>
<path d="M329.799 298.632H434.698C436.945 298.632 439.099 299.524 440.688 301.113C442.277 302.702 443.169 304.856 443.169 307.103V313.569H321.441V307.103C321.441 304.876 322.318 302.738 323.882 301.153C325.447 299.567 327.572 298.662 329.799 298.632Z" fill="#263238" stroke="#263238" stroke-linecap="round" stroke-linejoin="round"/>
<path d="M413.438 306.339C413.438 305.558 413.207 304.793 412.772 304.143C412.338 303.493 411.72 302.986 410.998 302.687C410.276 302.388 409.481 302.31 408.714 302.462C407.947 302.615 407.243 302.991 406.69 303.544C406.137 304.097 405.761 304.801 405.608 305.568C405.456 306.335 405.534 307.13 405.833 307.852C406.132 308.575 406.639 309.192 407.289 309.626C407.939 310.061 408.703 310.293 409.485 310.293C410.534 310.293 411.539 309.876 412.281 309.135C413.022 308.393 413.438 307.388 413.438 306.339Z" fill="white" stroke="#263238" stroke-linecap="round" stroke-linejoin="round"/>
<path d="M426.089 306.338C426.089 305.557 425.857 304.792 425.423 304.142C424.988 303.492 424.371 302.985 423.649 302.686C422.926 302.387 422.131 302.309 421.365 302.461C420.598 302.614 419.893 302.99 419.34 303.543C418.788 304.096 418.411 304.8 418.259 305.567C418.106 306.334 418.184 307.129 418.484 307.851C418.783 308.574 419.289 309.191 419.939 309.625C420.59 310.06 421.354 310.292 422.136 310.292C423.184 310.292 424.19 309.875 424.931 309.134C425.672 308.392 426.089 307.387 426.089 306.338Z" fill="white" stroke="#263238" stroke-linecap="round" stroke-linejoin="round"/>
<path d="M438.767 306.339C438.773 305.551 438.544 304.778 438.11 304.12C437.676 303.461 437.056 302.947 436.329 302.641C435.602 302.335 434.801 302.253 434.027 302.403C433.253 302.553 432.54 302.93 431.981 303.486C431.421 304.042 431.039 304.751 430.883 305.524C430.727 306.297 430.805 307.099 431.105 307.828C431.406 308.557 431.916 309.181 432.571 309.62C433.226 310.058 433.997 310.293 434.786 310.293C435.837 310.293 436.845 309.877 437.591 309.136C438.337 308.396 438.76 307.39 438.767 306.339Z" fill="white" stroke="#263238" stroke-linecap="round" stroke-linejoin="round"/>
<path d="M367.64 330.369L346.802 346.859L367.64 363.349" stroke="#263238" stroke-width="3" stroke-linecap="round" stroke-linejoin="round"/>
<path d="M396.243 330.368L417.082 346.858L396.243 363.348" stroke="#263238" stroke-width="3" stroke-linecap="round" stroke-linejoin="round"/>
<path d="M384.609 326.5L378.312 366.257" stroke="#263238" stroke-width="3" stroke-linecap="round" stroke-linejoin="round"/>
<path d="M407.566 385.092H430.579" stroke="#263238" stroke-linecap="round" stroke-linejoin="round"/>
<path d="M373.426 385.091H403.357" stroke="#263238" stroke-linecap="round" stroke-linejoin="round"/>
<path d="M348.268 385.091H366.847" stroke="#263238" stroke-linecap="round" stroke-linejoin="round"/>
<path d="M335.391 385.091H344.087" stroke="#263238" stroke-linecap="round" stroke-linejoin="round"/>
<path d="M417.138 398.673H430.578" stroke="#263238" stroke-linecap="round" stroke-linejoin="round"/>
<path d="M350.075 398.673H410.558" stroke="#263238" stroke-linecap="round" stroke-linejoin="round"/>
<path d="M335.39 398.673H342.872" stroke="#263238" stroke-linecap="round" stroke-linejoin="round"/>
<path d="M384.804 412.283H430.575" stroke="#263238" stroke-linecap="round" stroke-linejoin="round"/>
<path d="M346.486 412.284H376.417" stroke="#263238" stroke-linecap="round" stroke-linejoin="round"/>
<path d="M335.391 412.283H341.687" stroke="#263238" stroke-linecap="round" stroke-linejoin="round"/>
<path d="M417.733 425.892H430.581" stroke="#263238" stroke-linecap="round" stroke-linejoin="round"/>
<path d="M374.022 425.893H410.561" stroke="#263238" stroke-linecap="round" stroke-linejoin="round"/>
<path d="M335.391 425.893H366.846" stroke="#263238" stroke-linecap="round" stroke-linejoin="round"/>
<path d="M371.733 325.512H476.632C478.878 325.512 481.033 326.404 482.622 327.993C484.21 329.581 485.103 331.736 485.103 333.983V457.546C485.103 461.582 483.499 465.453 480.645 468.308C477.791 471.162 473.92 472.765 469.883 472.765H378.566C374.53 472.765 370.659 471.162 367.804 468.308C364.95 465.453 363.347 461.582 363.347 457.546V333.898C363.369 331.681 364.259 329.56 365.827 327.992C367.395 326.424 369.516 325.534 371.733 325.512Z" fill="white" stroke="#263238" stroke-linecap="round" stroke-linejoin="round"/>
<path d="M371.733 325.512H476.632C478.878 325.512 481.033 326.404 482.622 327.993C484.21 329.581 485.103 331.736 485.103 333.983V340.477H363.347V334.011C363.339 331.774 364.217 329.625 365.788 328.033C367.359 326.44 369.496 325.534 371.733 325.512Z" fill="#263238" stroke="#263238" stroke-linecap="round" stroke-linejoin="round"/>
<path d="M451.416 337.174C453.599 337.174 455.369 335.404 455.369 333.221C455.369 331.037 453.599 329.268 451.416 329.268C449.233 329.268 447.463 331.037 447.463 333.221C447.463 335.404 449.233 337.174 451.416 337.174Z" fill="white" stroke="#263238" stroke-linecap="round" stroke-linejoin="round"/>
<path d="M468.02 333.219C468.02 332.438 467.789 331.673 467.354 331.023C466.92 330.373 466.303 329.867 465.58 329.567C464.858 329.268 464.063 329.19 463.296 329.342C462.529 329.495 461.825 329.871 461.272 330.424C460.719 330.977 460.343 331.681 460.19 332.448C460.038 333.215 460.116 334.01 460.415 334.732C460.714 335.455 461.221 336.072 461.871 336.506C462.521 336.941 463.286 337.173 464.067 337.173C465.116 337.173 466.121 336.756 466.863 336.015C467.604 335.273 468.02 334.268 468.02 333.219Z" fill="white" stroke="#263238" stroke-linecap="round" stroke-linejoin="round"/>
<path d="M476.715 337.174C478.898 337.174 480.668 335.404 480.668 333.221C480.668 331.038 478.898 329.268 476.715 329.268C474.532 329.268 472.762 331.038 472.762 333.221C472.762 335.404 474.532 337.174 476.715 337.174Z" fill="white" stroke="#263238" stroke-linecap="round" stroke-linejoin="round"/>
<path d="M409.574 357.249L388.707 373.739L409.574 390.229" stroke="#263238" stroke-width="3" stroke-linecap="round" stroke-linejoin="round"/>
<path d="M438.172 357.251L459.01 373.741L438.172 390.231" stroke="#263238" stroke-width="3" stroke-linecap="round" stroke-linejoin="round"/>
<path d="M426.542 353.381L420.217 393.138" stroke="#263238" stroke-width="3" stroke-linecap="round" stroke-linejoin="round"/>
<path d="M449.473 411.971H472.514" stroke="#263238" stroke-linecap="round" stroke-linejoin="round"/>
<path d="M415.357 411.972H445.288" stroke="#263238" stroke-linecap="round" stroke-linejoin="round"/>
<path d="M390.198 411.973H408.75" stroke="#263238" stroke-linecap="round" stroke-linejoin="round"/>
<path d="M377.295 411.972H386.02" stroke="#263238" stroke-linecap="round" stroke-linejoin="round"/>
<path d="M459.069 425.582H472.51" stroke="#263238" stroke-linecap="round" stroke-linejoin="round"/>
<path d="M392.007 425.582H452.461" stroke="#263238" stroke-linecap="round" stroke-linejoin="round"/>
<path d="M377.296 425.581H384.807" stroke="#263238" stroke-linecap="round" stroke-linejoin="round"/>
<path d="M426.735 439.164H472.507" stroke="#263238" stroke-linecap="round" stroke-linejoin="round"/>
<path d="M388.391 439.165H418.35" stroke="#263238" stroke-linecap="round" stroke-linejoin="round"/>
<path d="M377.295 439.164H383.62" stroke="#263238" stroke-linecap="round" stroke-linejoin="round"/>
<path d="M459.665 452.774H472.513" stroke="#263238" stroke-linecap="round" stroke-linejoin="round"/>
<path d="M415.953 452.774H452.463" stroke="#263238" stroke-linecap="round" stroke-linejoin="round"/>
<path d="M377.295 452.774H408.75" stroke="#263238" stroke-linecap="round" stroke-linejoin="round"/>
<path d="M83.3822 502.208C64.0693 502.208 45.547 509.878 31.8886 523.532C18.2302 537.187 10.5539 555.706 10.5479 575.019H156.217C156.21 555.706 148.534 537.187 134.876 523.532C121.217 509.878 102.695 502.208 83.3822 502.208Z" fill="white" stroke="#263238" stroke-linecap="round" stroke-linejoin="round"/>
<path d="M97.7721 560.493L133.551 522.297C123.23 512.477 110.255 505.9 96.233 503.381C82.2111 500.863 67.7583 502.513 54.665 508.127C41.5717 513.742 30.4131 523.074 22.5715 534.968C14.7298 546.862 10.5497 560.795 10.5488 575.042H97.5213L97.7721 560.493Z" fill="#004EFF" stroke="#263238" stroke-linecap="round" stroke-linejoin="round"/>
<path d="M83.3848 531.418C77.6472 531.418 71.9657 532.548 66.6648 534.744C61.3639 536.94 56.5474 540.158 52.4903 544.215C48.4332 548.272 45.2149 553.089 43.0192 558.39C40.8235 563.69 39.6934 569.372 39.6934 575.11H127.076C127.076 569.372 125.946 563.69 123.75 558.39C121.555 553.089 118.336 548.272 114.279 544.215C110.222 540.158 105.406 536.94 100.105 534.744C94.8039 532.548 89.1225 531.418 83.3848 531.418Z" stroke="#263238" stroke-linecap="round" stroke-linejoin="round"/>
<path d="M83.3788 554.222C77.8632 554.222 72.5734 556.413 68.6733 560.313C64.7731 564.213 62.582 569.503 62.582 575.019H104.176C104.176 569.503 101.984 564.213 98.0843 560.313C94.1842 556.413 88.8945 554.222 83.3788 554.222Z" fill="#263238" stroke="#263238" stroke-linecap="round" stroke-linejoin="round"/>
<path d="M87.4675 573.604L82.6104 568.77L125.253 528.567L127.67 530.985L87.4675 573.604Z" fill="#263238" stroke="#263238" stroke-linecap="round" stroke-linejoin="round"/>
<path d="M392.874 502.208C373.561 502.208 355.039 509.878 341.381 523.533C327.722 537.187 320.046 555.707 320.04 575.019H465.709C465.703 555.707 458.026 537.187 444.368 523.533C430.71 509.878 412.187 502.208 392.874 502.208Z" fill="white" stroke="#263238" stroke-linecap="round" stroke-linejoin="round"/>
<path d="M407.262 560.494L443.041 522.298C432.72 512.478 419.745 505.901 405.723 503.382C391.701 500.864 377.249 502.514 364.155 508.128C351.062 513.743 339.903 523.075 332.062 534.969C324.22 546.863 320.04 560.796 320.039 575.043H407.012L407.262 560.494Z" fill="#004EFF" stroke="#263238" stroke-linecap="round" stroke-linejoin="round"/>
<path d="M392.876 531.419C387.138 531.419 381.457 532.549 376.156 534.745C370.855 536.941 366.039 540.159 361.982 544.216C357.924 548.273 354.706 553.09 352.51 558.391C350.315 563.692 349.185 569.373 349.185 575.111H436.568C436.568 569.373 435.437 563.692 433.242 558.391C431.046 553.09 427.828 548.273 423.771 544.216C419.713 540.159 414.897 536.941 409.596 534.745C404.295 532.549 398.614 531.419 392.876 531.419Z" stroke="#263238" stroke-linecap="round" stroke-linejoin="round"/>
<path d="M392.87 554.223C387.354 554.223 382.065 556.414 378.164 560.314C374.264 564.215 372.073 569.504 372.073 575.02H413.667C413.667 569.504 411.476 564.215 407.576 560.314C403.675 556.414 398.386 554.223 392.87 554.223Z" fill="#263238" stroke="#263238" stroke-linecap="round" stroke-linejoin="round"/>
<path d="M396.958 573.605L392.101 568.771L434.743 528.568L437.16 530.986L396.958 573.605Z" fill="#263238" stroke="#263238" stroke-linecap="round" stroke-linejoin="round"/>
<path d="M239.381 290.38C231.329 290.38 223.456 292.768 216.761 297.242C210.065 301.716 204.846 308.075 201.764 315.515C198.683 322.955 197.876 331.142 199.447 339.04C201.018 346.938 204.896 354.193 210.591 359.887C216.285 365.581 223.54 369.459 231.438 371.03C239.336 372.601 247.523 371.795 254.963 368.713C262.403 365.632 268.762 360.413 273.236 353.717C277.71 347.021 280.098 339.149 280.098 331.096C280.098 320.298 275.808 309.941 268.172 302.305C260.537 294.67 250.18 290.38 239.381 290.38ZM239.381 355.651C234.536 355.651 229.799 354.214 225.771 351.521C221.742 348.829 218.603 345.002 216.75 340.525C214.897 336.047 214.414 331.121 215.362 326.369C216.31 321.617 218.645 317.253 222.074 313.829C225.502 310.405 229.869 308.075 234.622 307.133C239.376 306.192 244.301 306.681 248.776 308.54C253.251 310.398 257.074 313.543 259.762 317.574C262.449 321.606 263.88 326.345 263.874 331.19C263.874 334.405 263.24 337.589 262.009 340.558C260.778 343.528 258.973 346.226 256.698 348.498C254.424 350.77 251.723 352.571 248.752 353.798C245.781 355.026 242.596 355.656 239.381 355.651Z" stroke="white" stroke-linecap="round" stroke-linejoin="round"/>
<path d="M261.863 365.204L252.217 351.987C248.364 354.388 243.915 355.657 239.375 355.651C233.035 355.424 227.03 352.746 222.625 348.181C218.22 343.615 215.759 337.518 215.759 331.174C215.759 324.83 218.22 318.733 222.625 314.168C227.03 309.602 233.035 306.924 239.375 306.697C243.785 306.67 248.117 307.851 251.903 310.111L260.423 296.205C254.176 292.47 247.042 290.477 239.763 290.434C232.485 290.392 225.328 292.302 219.038 295.964C212.748 299.627 207.554 304.908 203.999 311.259C200.443 317.61 198.655 324.799 198.82 332.075C198.985 339.352 201.098 346.451 204.939 352.634C208.78 358.817 214.207 363.858 220.657 367.231C227.107 370.604 234.343 372.186 241.613 371.813C248.882 371.44 255.918 369.125 261.989 365.11L261.863 365.204Z" fill="#004EFF" stroke="white" stroke-linecap="round" stroke-linejoin="round"/>
<path d="M239.383 401.785C231.331 401.785 223.458 404.173 216.763 408.647C210.067 413.121 204.848 419.48 201.766 426.92C198.685 434.36 197.878 442.547 199.449 450.445C201.02 458.343 204.898 465.598 210.593 471.292C216.287 476.987 223.542 480.864 231.44 482.436C239.338 484.007 247.525 483.2 254.965 480.119C262.405 477.037 268.764 471.818 273.238 465.122C277.712 458.427 280.1 450.554 280.1 442.501C280.1 431.703 275.81 421.346 268.174 413.711C260.538 406.075 250.182 401.785 239.383 401.785ZM239.383 467.025C234.547 467.019 229.821 465.579 225.802 462.888C221.784 460.196 218.653 456.374 216.807 451.903C214.96 447.433 214.48 442.516 215.427 437.773C216.375 433.03 218.707 428.674 222.129 425.256C225.551 421.839 229.91 419.512 234.654 418.571C239.398 417.629 244.315 418.116 248.783 419.968C253.251 421.82 257.069 424.956 259.756 428.977C262.442 432.999 263.876 437.727 263.876 442.564C263.888 445.787 263.264 448.98 262.038 451.961C260.812 454.942 259.01 457.651 256.734 459.933C254.458 462.214 251.753 464.024 248.776 465.257C245.798 466.491 242.606 467.123 239.383 467.119V467.025Z" stroke="white" stroke-linecap="round" stroke-linejoin="round"/>
<path d="M263.866 442.659C263.864 446.963 262.727 451.19 260.569 454.914C258.411 458.637 255.309 461.726 251.576 463.867C247.842 466.009 243.61 467.127 239.307 467.11C235.003 467.093 230.78 465.94 227.064 463.769L220.205 478.646C226.416 481.974 233.384 483.634 240.428 483.462C247.472 483.29 254.351 481.293 260.392 477.667C266.434 474.04 271.43 468.908 274.894 462.772C278.357 456.635 280.169 449.705 280.152 442.659C280.148 440.211 279.917 437.768 279.463 435.362L263.114 436.239C263.641 438.337 263.893 440.496 263.866 442.659Z" fill="#004EFF" stroke="white" stroke-linecap="round" stroke-linejoin="round"/>
<path d="M206.741 536.933H192.114V575.113H206.741V536.933Z" fill="white" stroke="white" stroke-linecap="round" stroke-linejoin="round"/>
<path d="M234.928 539.596H220.302V575.082H234.928V539.596Z" fill="#004EFF" stroke="white" stroke-linecap="round" stroke-linejoin="round"/>
<path d="M263.118 521.961H248.491V575.081H263.118V521.961Z" fill="white" stroke="white" stroke-linecap="round" stroke-linejoin="round"/>
<path d="M291.306 502.731H276.68V575.081H291.306V502.731Z" fill="#004EFF" stroke="white" stroke-linecap="round" stroke-linejoin="round"/>
<path d="M548.877 290.378C540.824 290.378 532.952 292.766 526.256 297.24C519.56 301.714 514.341 308.073 511.26 315.513C508.178 322.953 507.371 331.14 508.943 339.038C510.514 346.936 514.391 354.191 520.086 359.885C525.78 365.58 533.035 369.458 540.933 371.029C548.831 372.6 557.018 371.793 564.458 368.712C571.898 365.63 578.257 360.411 582.731 353.715C587.205 347.02 589.593 339.147 589.593 331.095C589.593 320.296 585.303 309.94 577.667 302.304C570.032 294.668 559.675 290.378 548.877 290.378ZM548.877 355.65C544.031 355.65 539.294 354.212 535.266 351.52C531.238 348.827 528.098 345 526.245 340.523C524.393 336.046 523.909 331.119 524.857 326.367C525.805 321.616 528.14 317.251 531.569 313.827C534.997 310.403 539.364 308.073 544.118 307.132C548.871 306.19 553.796 306.68 558.271 308.538C562.746 310.397 566.569 313.541 569.257 317.573C571.944 321.605 573.375 326.343 573.369 331.188C573.369 334.403 572.735 337.587 571.504 340.557C570.273 343.526 568.468 346.224 566.194 348.496C563.919 350.768 561.218 352.569 558.247 353.797C555.276 355.024 552.092 355.654 548.877 355.65Z" stroke="white" stroke-linecap="round" stroke-linejoin="round"/>
<path d="M571.357 365.203L561.711 351.986C557.858 354.387 553.409 355.657 548.869 355.65C542.529 355.423 536.525 352.745 532.12 348.18C527.714 343.614 525.253 337.517 525.253 331.173C525.253 324.829 527.714 318.732 532.12 314.167C536.525 309.601 542.529 306.923 548.869 306.696C553.279 306.669 557.612 307.85 561.398 310.11L569.917 296.204C563.67 292.469 556.536 290.476 549.257 290.433C541.979 290.391 534.822 292.301 528.532 295.963C522.242 299.626 517.049 304.907 513.493 311.258C509.937 317.609 508.149 324.798 508.314 332.074C508.48 339.351 510.593 346.45 514.433 352.633C518.274 358.816 523.702 363.857 530.151 367.23C536.601 370.603 543.838 372.185 551.107 371.812C558.376 371.439 565.412 369.124 571.483 365.109L571.357 365.203Z" fill="#004EFF" stroke="white" stroke-linecap="round" stroke-linejoin="round"/>
<path d="M548.877 401.785C540.824 401.785 532.952 404.172 526.256 408.646C519.56 413.12 514.341 419.48 511.26 426.919C508.178 434.359 507.371 442.546 508.943 450.444C510.514 458.343 514.391 465.598 520.086 471.292C525.78 476.986 533.035 480.864 540.933 482.435C548.831 484.006 557.018 483.2 564.458 480.118C571.898 477.036 578.257 471.818 582.731 465.122C587.205 458.426 589.593 450.554 589.593 442.501C589.593 431.702 585.303 421.346 577.667 413.71C570.032 406.074 559.675 401.785 548.877 401.785ZM548.877 467.025C544.04 467.019 539.314 465.579 535.295 462.887C531.277 460.196 528.146 456.373 526.3 451.903C524.453 447.433 523.973 442.515 524.921 437.772C525.868 433.029 528.2 428.674 531.622 425.256C535.045 421.838 539.403 419.511 544.147 418.57C548.891 417.629 553.808 418.115 558.276 419.967C562.744 421.82 566.562 424.955 569.249 428.977C571.935 432.999 573.369 437.727 573.369 442.564C573.381 445.786 572.757 448.98 571.531 451.961C570.305 454.941 568.503 457.65 566.227 459.932C563.951 462.214 561.246 464.024 558.269 465.257C555.291 466.49 552.099 467.123 548.877 467.119V467.025Z" stroke="white" stroke-linecap="round" stroke-linejoin="round"/>
<path d="M573.361 442.658C573.359 446.961 572.222 451.188 570.064 454.912C567.906 458.636 564.804 461.724 561.071 463.865C557.338 466.007 553.106 467.125 548.802 467.108C544.498 467.091 540.275 465.939 536.559 463.767L529.7 478.645C535.911 481.973 542.879 483.632 549.923 483.46C556.967 483.288 563.846 481.292 569.887 477.665C575.929 474.038 580.925 468.906 584.389 462.77C587.853 456.634 589.664 449.704 589.647 442.658C589.643 440.209 589.412 437.766 588.958 435.36L572.609 436.237C573.136 438.336 573.388 440.494 573.361 442.658Z" fill="#004EFF" stroke="white" stroke-linecap="round" stroke-linejoin="round"/>
<path d="M516.235 536.932H501.608V575.111H516.235V536.932Z" fill="white" stroke="white" stroke-linecap="round" stroke-linejoin="round"/>
<path d="M544.423 539.595H529.796V575.08H544.423V539.595Z" fill="#004EFF" stroke="white" stroke-linecap="round" stroke-linejoin="round"/>
<path d="M572.611 521.962H557.984V575.081H572.611V521.962Z" fill="white" stroke="white" stroke-linecap="round" stroke-linejoin="round"/>
<path d="M600.8 502.73H586.174V575.08H600.8V502.73Z" fill="#004EFF" stroke="white" stroke-linecap="round" stroke-linejoin="round"/>
<path d="M525.868 625.496V620.504H504.358V625.496V628.861V655.536H549.634V625.496H525.868Z" stroke="white" stroke-linecap="round" stroke-linejoin="round"/>
<path d="M581.867 625.496V620.504H560.357V625.496V628.86V655.536H605.655V625.496H581.867Z" stroke="white" stroke-linecap="round" stroke-linejoin="round"/>
<path d="M525.869 675.547V670.533H504.359V675.547V678.911V705.586H549.635V675.547H525.869Z" stroke="white" stroke-linecap="round" stroke-linejoin="round"/>
<path d="M581.867 675.548V670.534H560.357V675.548V678.912V705.587H605.655V675.548H581.867Z" stroke="white" stroke-linecap="round" stroke-linejoin="round"/>
<path d="M525.87 725.598V720.584H504.36V725.598V728.962V755.637H549.636V725.598H525.87Z" stroke="white" stroke-linecap="round" stroke-linejoin="round"/>
<path d="M581.869 725.598V720.584H560.359V725.598V728.962V755.637H605.657V725.598H581.869Z" fill="#004EFF" stroke="white" stroke-linecap="round" stroke-linejoin="round"/>
<path d="M525.868 775.65V770.636H504.358V775.65V779.014V805.69H549.634V775.65H525.868Z" stroke="white" stroke-linecap="round" stroke-linejoin="round"/>
<path d="M581.868 775.649V770.636H560.358V775.649V779.014V805.689H605.656V775.649H581.868Z" stroke="white" stroke-linecap="round" stroke-linejoin="round"/>
<path d="M525.869 825.701V820.687H504.359V825.701V829.065V855.718H549.635V825.701H525.869Z" stroke="white" stroke-linecap="round" stroke-linejoin="round"/>
<path d="M581.869 825.7V820.686H560.359V825.7V829.064V855.718H605.657V825.7H581.869Z" stroke="white" stroke-linecap="round" stroke-linejoin="round"/>
<path d="M519.207 41.0284V36.0363H497.697V41.0284V44.3927V71.0678H542.973V41.0284H519.207Z" stroke="white" stroke-linecap="round" stroke-linejoin="round"/>
<path d="M575.207 41.0283V36.0362H553.697V41.0283V44.3925V71.0677H598.995V41.0283H575.207Z" stroke="white" stroke-linecap="round" stroke-linejoin="round"/>
<path d="M519.208 91.079V86.0652H497.698V91.079V94.4433V121.118H542.974V91.079H519.208Z" stroke="white" stroke-linecap="round" stroke-linejoin="round"/>
<path d="M575.206 91.0796V86.0658H553.696V91.0796V94.4438V121.119H598.994V91.0796H575.206Z" stroke="white" stroke-linecap="round" stroke-linejoin="round"/>
<path d="M519.209 141.13V136.116H497.699V141.13V144.494V171.169H542.975V141.13H519.209Z" stroke="white" stroke-linecap="round" stroke-linejoin="round"/>
<path d="M575.207 141.13V136.117H553.697V141.13V144.495V171.17H598.995V141.13H575.207Z" fill="#004EFF" stroke="white" stroke-linecap="round" stroke-linejoin="round"/>
<path d="M519.207 191.182V186.168H497.697V191.182V194.546V221.222H542.973V191.182H519.207Z" stroke="white" stroke-linecap="round" stroke-linejoin="round"/>
<path d="M575.207 191.181V186.168H553.697V191.181V194.546V221.221H598.995V191.181H575.207Z" stroke="white" stroke-linecap="round" stroke-linejoin="round"/>
<path d="M519.208 241.233V236.219H497.698V241.233V244.597V271.25H542.974V241.233H519.208Z" stroke="white" stroke-linecap="round" stroke-linejoin="round"/>
<path d="M575.208 241.232V236.218H553.698V241.232V244.596V271.25H598.996V241.232H575.208Z" stroke="white" stroke-linecap="round" stroke-linejoin="round"/>
<path d="M211.292 41.0284V36.0363H189.782V41.0284V44.3927V71.0678H235.058V41.0284H211.292Z" stroke="white" stroke-linecap="round" stroke-linejoin="round"/>
<path d="M267.291 41.0283V36.0362H245.781V41.0283V44.3925V71.0677H291.079V41.0283H267.291Z" stroke="white" stroke-linecap="round" stroke-linejoin="round"/>
<path d="M211.292 91.079V86.0652H189.782V91.079V94.4433V121.118H235.058V91.079H211.292Z" stroke="white" stroke-linecap="round" stroke-linejoin="round"/>
<path d="M267.291 91.0796V86.0659H245.781V91.0796V94.4439V121.119H291.079V91.0796H267.291Z" stroke="white" stroke-linecap="round" stroke-linejoin="round"/>
<path d="M211.293 141.13V136.116H189.783V141.13V144.494V171.169H235.059V141.13H211.293Z" stroke="white" stroke-linecap="round" stroke-linejoin="round"/>
<path d="M267.291 141.13V136.117H245.781V141.13V144.495V171.17H291.079V141.13H267.291Z" fill="#004EFF" stroke="white" stroke-linecap="round" stroke-linejoin="round"/>
<path d="M211.291 191.182V186.168H189.781V191.182V194.546V221.222H235.057V191.182H211.291Z" stroke="white" stroke-linecap="round" stroke-linejoin="round"/>
<path d="M267.29 191.182V186.168H245.78V191.182V194.546V221.221H291.078V191.182H267.29Z" stroke="white" stroke-linecap="round" stroke-linejoin="round"/>
<path d="M211.291 241.233V236.22H189.781V241.233V244.598V271.251H235.057V241.233H211.291Z" stroke="white" stroke-linecap="round" stroke-linejoin="round"/>
<path d="M267.291 241.233V236.219H245.781V241.233V244.597V271.25H291.079V241.233H267.291Z" stroke="white" stroke-linecap="round" stroke-linejoin="round"/>
<path d="M212.53 625.656V620.664H191.021V625.656V629.02V655.695H236.297V625.656H212.53Z" stroke="white" stroke-linecap="round" stroke-linejoin="round"/>
<path d="M268.529 625.656V620.664H247.02V625.656V629.02V655.695H292.317V625.656H268.529Z" stroke="white" stroke-linecap="round" stroke-linejoin="round"/>
<path d="M212.53 675.707V670.693H191.021V675.707V679.071V705.746H236.297V675.707H212.53Z" stroke="white" stroke-linecap="round" stroke-linejoin="round"/>
<path d="M268.529 675.707V670.693H247.02V675.707V679.071V705.746H292.317V675.707H268.529Z" stroke="white" stroke-linecap="round" stroke-linejoin="round"/>
<path d="M212.531 725.757V720.743H191.021V725.757V729.121V755.797H236.298V725.757H212.531Z" stroke="white" stroke-linecap="round" stroke-linejoin="round"/>
<path d="M268.529 725.758V720.744H247.02V725.758V729.122V755.797H292.317V725.758H268.529Z" fill="#004EFF" stroke="white" stroke-linecap="round" stroke-linejoin="round"/>
<path d="M212.529 775.81V770.796H191.02V775.81V779.174V805.849H236.296V775.81H212.529Z" stroke="white" stroke-linecap="round" stroke-linejoin="round"/>
<path d="M268.529 775.809V770.795H247.02V775.809V779.173V805.848H292.317V775.809H268.529Z" stroke="white" stroke-linecap="round" stroke-linejoin="round"/>
<path d="M212.529 825.861V820.847H191.02V825.861V829.225V855.879H236.296V825.861H212.529Z" stroke="white" stroke-linecap="round" stroke-linejoin="round"/>
<path d="M268.53 825.859V820.846H247.021V825.859V829.224V855.877H292.318V825.859H268.53Z" stroke="white" stroke-linecap="round" stroke-linejoin="round"/>
</svg>
