<svg width="460" height="460" viewBox="0 0 460 460" fill="none" xmlns="http://www.w3.org/2000/svg">
<path d="M93.3341 257.646C92.9569 289.055 65.9917 330.841 102.175 354.393C150.494 385.848 192.712 333.491 236.744 329.921C270.379 327.161 316.462 395.075 362.857 364.522C409.253 333.969 349.931 271.943 352.397 241.242C354.844 210.836 419.621 167.909 379.877 128.607C340.906 90.0586 280.803 141.376 237.158 145.59C198.435 149.325 116.113 87.409 81.6777 129.03C49.0821 168.424 93.7021 227.323 93.3341 257.646Z" fill="#004EFF"/>
<path opacity="0.9" d="M93.3341 257.646C92.9569 289.055 65.9917 330.841 102.175 354.393C150.494 385.848 192.712 333.491 236.744 329.921C270.379 327.161 316.462 395.075 362.857 364.522C409.253 333.969 349.931 271.943 352.397 241.242C354.844 210.836 419.621 167.909 379.877 128.607C340.906 90.0586 280.803 141.376 237.158 145.59C198.435 149.325 116.113 87.409 81.6777 129.03C49.0821 168.424 93.7021 227.323 93.3341 257.646Z" fill="white"/>
<path d="M231.748 388.507C330.264 388.507 410.127 383.844 410.127 378.092C410.127 372.34 330.264 367.678 231.748 367.678C133.232 367.678 53.3691 372.34 53.3691 378.092C53.3691 383.844 133.232 388.507 231.748 388.507Z" fill="#F5F5F5"/>
<path d="M360.953 343.363L363.943 369.178L370.815 369.196L371.413 342.139L360.953 343.363Z" fill="#FFB573"/>
<path d="M373.456 367.485C378.387 370.291 378.976 370.355 384.367 371.469C385.563 371.717 385.112 374.551 382.343 374.578C377.743 374.652 378.157 374.486 374.247 374.578C370.916 374.578 366.086 374.799 363.437 374.873H363.4C363.104 374.847 362.829 374.708 362.632 374.486C362.435 374.263 362.331 373.974 362.342 373.677L362.839 367.577C362.848 367.447 362.907 367.325 363.002 367.236C363.098 367.147 363.224 367.098 363.354 367.099L371.8 367.034C372.382 367.032 372.955 367.188 373.456 367.485Z" fill="#263238"/>
<path d="M373.014 367.596C374.109 367.807 376.068 368.056 376.795 367.375C376.904 367.274 376.986 367.149 377.036 367.01C377.085 366.87 377.101 366.721 377.08 366.574C377.073 366.484 377.044 366.397 376.994 366.321C376.944 366.246 376.876 366.184 376.795 366.142C375.958 365.7 373.262 367.117 372.959 367.283C372.928 367.294 372.902 367.314 372.884 367.34C372.865 367.366 372.855 367.398 372.855 367.43C372.855 367.462 372.865 367.494 372.884 367.52C372.902 367.546 372.928 367.566 372.959 367.577L373.014 367.596ZM376.648 366.427C376.679 366.443 376.706 366.466 376.725 366.496C376.744 366.525 376.756 366.558 376.758 366.593C376.777 366.69 376.769 366.79 376.737 366.884C376.705 366.978 376.649 367.061 376.574 367.126C376.17 367.504 375.047 367.586 373.538 367.347C374.606 366.814 376.078 366.225 376.593 366.427H376.648Z" fill="#004EFF"/>
<path d="M373.106 367.595C373.916 367.209 375.507 365.755 375.36 364.918C375.36 364.725 375.185 364.504 374.744 364.458C374.578 364.44 374.411 364.457 374.252 364.508C374.094 364.558 373.948 364.642 373.824 364.753C372.977 365.489 372.848 367.347 372.848 367.421C372.846 367.451 372.852 367.481 372.865 367.509C372.877 367.536 372.897 367.56 372.922 367.577C372.948 367.596 372.979 367.608 373.012 367.611C373.044 367.614 373.076 367.609 373.106 367.595ZM374.891 364.835C375.029 364.835 375.038 364.955 375.038 364.983C375.13 365.461 374.054 366.639 373.198 367.163C373.251 366.378 373.547 365.629 374.044 365.019C374.131 364.939 374.235 364.878 374.347 364.841C374.46 364.804 374.58 364.793 374.698 364.808H374.863L374.891 364.835Z" fill="#004EFF"/>
<path d="M349.471 350.916L359.435 372.196H367.135L358.984 346.38L349.471 350.916Z" fill="#FFB573"/>
<path d="M368 370.641C372.931 373.456 373.52 373.511 378.911 374.634C380.107 374.873 379.656 377.706 376.887 377.734C372.287 377.808 372.701 377.651 368.791 377.688C365.461 377.688 360.64 377.918 357.99 377.982H357.88C357.586 377.957 357.314 377.819 357.119 377.598C356.923 377.378 356.821 377.09 356.831 376.796L357.319 370.687C357.332 370.557 357.393 370.436 357.49 370.348C357.586 370.26 357.712 370.21 357.843 370.208L366.279 370.144C366.887 370.152 367.481 370.324 368 370.641Z" fill="#263238"/>
<path d="M367.512 370.76C368.616 370.972 370.567 371.22 371.294 370.539C371.401 370.44 371.482 370.316 371.532 370.178C371.582 370.041 371.598 369.893 371.579 369.748C371.573 369.658 371.544 369.57 371.496 369.493C371.448 369.416 371.382 369.352 371.303 369.307C370.456 368.865 367.761 370.282 367.466 370.447C367.437 370.463 367.413 370.487 367.398 370.517C367.383 370.546 367.378 370.58 367.384 370.613C367.383 370.644 367.394 370.674 367.415 370.698C367.435 370.722 367.463 370.737 367.494 370.742L367.512 370.76ZM371.192 369.601C371.224 369.615 371.25 369.639 371.268 369.668C371.286 369.698 371.295 369.732 371.294 369.767C371.311 369.862 371.303 369.961 371.271 370.053C371.239 370.145 371.183 370.227 371.11 370.291C370.705 370.677 369.582 370.76 368.074 370.512C369.141 369.987 370.613 369.399 371.128 369.592L371.192 369.601Z" fill="#004EFF"/>
<path d="M367.614 370.76C368.414 370.374 370.015 368.92 369.858 368.083C369.858 367.899 369.693 367.669 369.242 367.632C369.076 367.612 368.908 367.627 368.749 367.678C368.591 367.729 368.445 367.814 368.322 367.927C367.476 368.654 367.338 370.521 367.347 370.595C367.342 370.623 367.346 370.652 367.357 370.678C367.368 370.704 367.387 370.726 367.411 370.742H367.457C367.478 370.761 367.504 370.772 367.532 370.776C367.56 370.779 367.589 370.774 367.614 370.76ZM369.389 368C369.429 368.006 369.465 368.024 369.493 368.052C369.522 368.081 369.54 368.117 369.546 368.157C369.628 368.626 368.561 369.804 367.706 370.328C367.761 369.545 368.053 368.798 368.543 368.184C368.631 368.106 368.735 368.047 368.847 368.01C368.96 367.974 369.078 367.961 369.196 367.973H369.362L369.389 368Z" fill="#004EFF"/>
<path d="M340.124 198.527C340.439 198.542 340.754 198.49 341.048 198.376C341.342 198.261 341.609 198.087 341.831 197.863C342.054 197.64 342.228 197.372 342.341 197.078C342.454 196.783 342.504 196.469 342.488 196.153L341.955 170.798C341.881 169.197 341.559 166.778 341.559 166.778C345.239 167.376 351.679 169.188 353.464 176.254C355.304 183.614 354.881 198.039 354.117 204.976C353.749 208.316 351.1 212.612 345.267 211.416L340.124 198.527Z" fill="#004EFF"/>
<path d="M348.625 174.506C346.582 192.483 342.424 202.888 342.847 217.313L308.936 216.743C309.157 190.183 305.385 195.086 304.989 180.642C304.934 175.122 305.081 168.158 308.264 167.689L327.492 163.871L343.132 166.999C344.823 167.332 346.327 168.289 347.344 169.68C348.362 171.071 348.819 172.793 348.625 174.506Z" fill="#004EFF"/>
<path opacity="0.1" d="M348.625 174.506C346.582 192.483 342.424 202.888 342.847 217.313L308.936 216.743C309.157 190.183 305.385 195.086 304.989 180.642C304.934 175.122 305.081 168.158 308.264 167.689L327.492 163.871L343.132 166.999C344.823 167.332 346.327 168.289 347.344 169.68C348.362 171.071 348.819 172.793 348.625 174.506Z" fill="black"/>
<path d="M332.028 175.325C325.726 174.773 318.881 169.299 318.228 166.171C320.418 165.858 320.988 164.331 321.448 161.7C321.683 160.045 321.763 158.373 321.687 156.704C321.632 154.192 321.374 151.754 321.292 150.135L332.056 156.575C331.991 156.879 331.918 157.21 331.853 157.541C331.52 159.21 331.505 160.927 331.807 162.601C331.969 163.752 332.496 164.82 333.311 165.649C334.126 166.477 335.186 167.021 336.334 167.201C337.833 169.17 337.116 172.96 332.028 175.325Z" fill="#FFB573"/>
<path d="M332.037 175.72C327.744 174.297 323.225 173.673 318.706 173.88C319.222 172.841 319.746 171.589 320.252 170.55C318.651 170.55 317.115 170.403 315.505 170.403C315.728 168.342 316.31 166.337 317.225 164.478C318.237 162.638 319.59 161.175 321.623 161.203C321.347 161.911 320.648 164.533 321.356 165.941C322.161 167.291 323.228 168.467 324.493 169.4L332.037 175.72Z" fill="#004EFF"/>
<g opacity="0.5">
<path d="M332.037 175.72C327.744 174.297 323.225 173.673 318.706 173.88C319.222 172.841 319.746 171.589 320.252 170.55C318.651 170.55 317.115 170.403 315.505 170.403C315.728 168.342 316.31 166.337 317.225 164.478C318.237 162.638 319.59 161.175 321.623 161.203C321.347 161.911 320.648 164.533 321.356 165.941C322.161 167.291 323.228 168.467 324.493 169.4L332.037 175.72Z" fill="white"/>
</g>
<path d="M331.816 162.205C331.845 163.151 332.192 164.058 332.801 164.781C333.362 165.536 334.034 166.198 334.53 166.999C334.973 167.707 335.263 168.5 335.381 169.327C335.499 170.155 335.443 170.997 335.216 171.801C334.989 172.605 334.596 173.353 334.063 173.996C333.53 174.64 332.868 175.164 332.12 175.536C332.028 175.536 332.028 175.702 332.065 175.803C333.962 174.539 335.948 173.413 338.008 172.436C338.615 172.141 339.14 171.819 339.719 171.516C339.346 170.242 338.496 169.161 337.346 168.498C338.845 168.342 340.308 167.965 341.798 167.808C339.756 166.41 337.815 164.818 335.754 163.438C334.668 162.693 333.04 161.856 331.816 162.205Z" fill="#004EFF"/>
<path opacity="0.5" d="M331.816 162.205C331.845 163.151 332.192 164.058 332.801 164.781C333.362 165.536 334.034 166.198 334.53 166.999C334.973 167.707 335.263 168.5 335.381 169.327C335.499 170.155 335.443 170.997 335.216 171.801C334.989 172.605 334.596 173.353 334.063 173.996C333.53 174.64 332.868 175.164 332.12 175.536C332.028 175.536 332.028 175.702 332.065 175.803C333.962 174.539 335.948 173.413 338.008 172.436C338.615 172.141 339.14 171.819 339.719 171.516C339.346 170.242 338.496 169.161 337.346 168.498C338.845 168.342 340.308 167.965 341.798 167.808C339.756 166.41 337.815 164.818 335.754 163.438C334.668 162.693 333.04 161.856 331.816 162.205Z" fill="white"/>
<path opacity="0.2" d="M331.798 162.583C327.198 161.525 324.134 157.983 322.35 156.042L331.844 157.523C331.511 159.192 331.496 160.908 331.798 162.583Z" fill="black"/>
<path d="M337.806 153.291C335.966 159.639 327.934 162.288 323.279 157.164C320.592 154.211 320.436 150.982 320.381 145.977C320.381 145.213 320.381 144.413 320.381 143.566C320.354 142.243 320.618 140.931 321.154 139.721C321.376 139.217 321.647 138.736 321.963 138.286C323.135 136.596 324.859 135.367 326.839 134.812C328.818 134.256 330.93 134.407 332.81 135.24C339.002 138 339.48 147.587 337.806 153.291Z" fill="#FFB573"/>
<path d="M331.688 144.679C332.028 144.679 332.276 145.13 332.258 145.645C332.24 146.161 331.982 146.565 331.605 146.565C331.228 146.565 330.961 146.115 330.979 145.581C330.998 145.047 331.347 144.67 331.688 144.679Z" fill="#263238"/>
<path d="M335.23 151.395L332.773 151.469C332.562 151.956 332.322 152.389 332.111 152.886C333.559 153.515 335.167 153.676 336.711 153.346C336.633 152.655 336.485 151.974 336.269 151.312C335.966 151.34 335.533 151.386 335.23 151.395Z" fill="#263238"/>
<path d="M337.548 145.103C337.888 145.103 338.146 145.544 338.127 146.023C338.109 146.501 337.815 146.943 337.465 146.943C337.115 146.943 336.867 146.501 336.885 145.977C336.904 145.452 337.207 145.094 337.548 145.103Z" fill="#263238"/>
<path d="M335.147 151.34C335.582 151.422 336.03 151.406 336.458 151.293C336.886 151.18 337.283 150.973 337.622 150.687C336.51 149.391 335.581 147.949 334.862 146.4L335.147 151.34Z" fill="#ED893E"/>
<path d="M334.015 154.045H333.923L333.665 153.925C333.177 153.703 332.649 153.583 332.113 153.572C331.576 153.561 331.044 153.659 330.547 153.861C330.489 153.884 330.425 153.884 330.368 153.86C330.311 153.835 330.266 153.79 330.243 153.732C330.22 153.675 330.22 153.611 330.245 153.554C330.269 153.497 330.315 153.452 330.372 153.429C330.928 153.206 331.524 153.097 332.123 153.11C332.722 153.123 333.312 153.256 333.859 153.502L334.116 153.622C334.171 153.648 334.213 153.694 334.234 153.751C334.254 153.808 334.252 153.87 334.227 153.925C334.207 153.964 334.176 153.996 334.139 154.017C334.101 154.038 334.058 154.048 334.015 154.045Z" fill="#263238"/>
<path d="M330.418 143.584C330.662 143.285 330.971 143.047 331.322 142.887C331.673 142.728 332.057 142.651 332.442 142.664C332.472 142.674 332.504 142.674 332.534 142.664C332.615 142.662 332.693 142.628 332.749 142.57C332.806 142.511 332.838 142.433 332.838 142.352C332.835 142.27 332.801 142.193 332.743 142.136C332.684 142.08 332.606 142.048 332.525 142.048C332.039 142.025 331.555 142.116 331.112 142.316C330.669 142.516 330.28 142.818 329.976 143.198C329.948 143.226 329.925 143.26 329.91 143.297C329.894 143.334 329.886 143.374 329.886 143.414C329.886 143.454 329.894 143.494 329.91 143.531C329.925 143.569 329.948 143.602 329.976 143.63C330.015 143.664 330.063 143.687 330.114 143.695C330.17 143.706 330.228 143.701 330.282 143.682C330.335 143.662 330.382 143.629 330.418 143.584Z" fill="#263238"/>
<path d="M338.836 144.265C338.904 144.222 338.953 144.153 338.972 144.074C338.991 143.995 338.978 143.912 338.937 143.842C338.706 143.415 338.374 143.051 337.97 142.782C337.566 142.512 337.102 142.346 336.619 142.296C336.579 142.294 336.54 142.299 336.503 142.313C336.465 142.326 336.431 142.346 336.402 142.373C336.373 142.399 336.349 142.432 336.333 142.467C336.316 142.503 336.307 142.542 336.306 142.582C336.306 142.66 336.337 142.735 336.392 142.79C336.447 142.845 336.522 142.876 336.6 142.876C336.984 142.924 337.351 143.063 337.671 143.28C337.991 143.498 338.254 143.788 338.44 144.127C338.458 144.164 338.484 144.196 338.515 144.221C338.547 144.247 338.583 144.266 338.622 144.276C338.662 144.287 338.702 144.289 338.742 144.282C338.782 144.275 338.821 144.26 338.854 144.238L338.836 144.265Z" fill="#263238"/>
<path d="M334.54 131.496C335.226 131.457 335.912 131.584 336.538 131.868C337.165 132.152 337.713 132.583 338.137 133.124C338.266 133.29 337.309 137.945 336.297 138.046C333.947 138.284 331.575 137.969 329.369 137.126C328.965 136.967 328.541 136.865 328.109 136.823C327.676 136.823 325.514 138.819 325.1 139.73C324.717 140.651 324.46 141.619 324.337 142.609C324.307 142.929 324.22 143.241 324.079 143.529C323.932 143.796 323.849 144.045 323.546 144.026C323.162 144.912 323.053 145.893 323.233 146.841C323.421 147.786 323.698 148.71 324.061 149.601L324.797 151.533C324.475 151.533 320.638 149.933 319.277 149.482C317.482 146.962 316.582 143.915 316.719 140.825C316.719 139.96 316.802 137.227 317.225 136.464C317.421 136.075 317.708 135.739 318.062 135.486C318.417 135.233 318.827 135.07 319.258 135.01C318.706 132.793 320.574 132.25 322.699 131.422C324.824 130.594 327.216 130.861 329.461 131.284C331.14 131.553 332.844 131.624 334.54 131.496Z" fill="#263238"/>
<path d="M319.921 145.544C322 145.793 323.021 148.553 323.067 150.374C323.132 152.398 321.623 153.916 319.773 152.84C319.094 152.438 318.5 151.907 318.027 151.275C317.553 150.644 317.209 149.925 317.013 149.16C316.868 148.722 316.834 148.254 316.916 147.8C316.998 147.346 317.192 146.92 317.482 146.56C317.771 146.2 318.146 145.919 318.572 145.741C318.998 145.564 319.462 145.496 319.921 145.544Z" fill="#FFB573"/>
<path d="M313.26 173.954C313.315 166.032 302.588 166.014 301.3 173.356C301.3 173.429 301.3 173.503 301.3 173.567C300.113 181.074 302.625 199.208 304.06 206.043C304.382 207.624 305.316 209.014 306.659 209.908C308.002 210.803 309.644 211.13 311.227 210.818L332.626 206.678L331.494 196.457L317.4 198.343C317.087 198.384 316.769 198.36 316.466 198.272C316.163 198.184 315.882 198.034 315.64 197.831C315.398 197.629 315.2 197.379 315.06 197.096C314.919 196.814 314.839 196.505 314.824 196.19L313.26 173.954Z" fill="#004EFF"/>
<path d="M329.48 204.682L334.935 203.284C335.431 203.164 335.948 203.164 336.444 203.284L341.43 204.415C341.967 204.533 342.525 204.51 343.051 204.349C343.576 204.188 344.051 203.894 344.43 203.495L346.95 200.919C347.248 200.611 347.481 200.246 347.636 199.847C347.791 199.447 347.865 199.02 347.853 198.592C347.841 198.164 347.744 197.742 347.566 197.352C347.389 196.961 347.136 196.61 346.822 196.319L346.012 195.574C345.482 195.087 344.804 194.793 344.086 194.738C343.369 194.683 342.654 194.87 342.056 195.27C341.455 195.674 340.734 195.859 340.014 195.795H339.71C339.04 195.736 338.37 195.891 337.793 196.236C337.217 196.582 336.764 197.1 336.499 197.718L336.177 198.444L328.468 199.364L329.48 204.682Z" fill="#FFB573"/>
<path d="M327.455 197.736L321.88 196.991C321.374 196.921 320.892 196.732 320.473 196.439L316.268 193.522C315.817 193.211 315.294 193.02 314.748 192.967C314.203 192.914 313.652 193 313.15 193.219L309.847 194.654C309.449 194.828 309.091 195.081 308.794 195.397C308.496 195.712 308.265 196.085 308.114 196.491C307.963 196.898 307.895 197.331 307.914 197.765C307.934 198.198 308.04 198.623 308.228 199.015L308.706 200.008C309.015 200.657 309.533 201.183 310.177 201.502C310.821 201.821 311.554 201.914 312.257 201.766C312.965 201.618 313.703 201.719 314.345 202.051L314.612 202.18C315.21 202.476 315.885 202.58 316.545 202.476C317.204 202.372 317.815 202.066 318.292 201.6L318.863 201.048L326.37 203.063L327.455 197.736Z" fill="#FFB573"/>
<path d="M328.33 197.616L322.708 196.42L321.181 203.688L326.609 205.114L328.33 197.616Z" fill="#263238"/>
<g opacity="0.7">
<path d="M328.33 197.616L322.708 196.42L321.181 203.688L326.609 205.114L328.33 197.616Z" fill="white"/>
</g>
<path d="M353.409 207.359C352.968 208.908 351.936 210.222 350.534 211.016C349.133 211.809 347.475 212.019 345.92 211.6L324.861 205.979L326.701 195.859L340.639 198.72C354.366 200.56 353.409 207.359 353.409 207.359Z" fill="#004EFF"/>
<path d="M375.746 300.38L372.066 361.376L358.266 360.852C358.266 360.852 358.266 351.183 357.88 337.631C357.549 326.591 353.28 311.42 355.819 299.764C342.442 275.844 325.119 256.432 322.322 249.504C316.544 235.171 321.475 216.89 321.475 216.89L343.013 216.504C344.611 226.712 347.763 236.616 352.36 245.87L373.152 287.785C375.079 291.693 375.972 296.029 375.746 300.38Z" fill="#263238"/>
<path opacity="0.2" d="M346.665 284.777L328.035 243.662H339.278L346.665 284.777Z" fill="black"/>
<path d="M308.936 216.743C308.936 216.743 302.542 232.732 306.286 247.719C308.126 255.171 334.595 312.349 334.595 312.349C334.595 312.349 336.159 327.989 345.193 346.178L354.2 363.032L365.019 362.618L351.744 304.161L338.56 262.2C334.558 247.222 331.384 232.024 330.832 216.531L308.936 216.743Z" fill="#263238"/>
<path d="M249.642 174.993C244.278 170.835 241.003 174.662 235.538 171.599C232.889 170.117 231.224 170.734 233.183 168.572V168.517C234.662 166.652 235.872 164.589 236.78 162.389C237.873 159.659 238.268 156.7 237.93 153.778C237.795 152.176 238.204 150.575 239.09 149.233C242.08 149.758 245.907 149.233 247.25 151.993C248.278 155.12 248.839 158.381 248.915 161.672L247.259 160.457C248.096 162.555 248.906 163.999 249.559 165.315C250.645 167.385 249.798 171.451 249.642 174.993Z" fill="#263238"/>
<path d="M230.552 180.108C232.999 177.68 232.392 166.41 232.392 166.41L239.228 171.341C239.228 171.341 239.448 178.305 241.068 179.694C241.454 180.026 242.034 179.777 242.503 179.814L242.024 181.571L240.663 183.733L238.823 184.957L236.182 184.874L233.836 184.129L231.178 182.16L229.016 180.32C229.531 180.256 230.193 180.458 230.552 180.108Z" fill="#EEC8C0"/>
<path opacity="0.1" d="M239.623 173.282C235.023 172.629 233.018 170.191 232.116 168.286L232.364 166.446L239.2 171.377L239.623 173.282Z" fill="black"/>
<path d="M247.48 163.558V163.677C247.48 164.064 247.48 164.459 247.434 164.827C247.404 165.182 247.355 165.536 247.287 165.885C246.906 167.672 245.873 169.254 244.39 170.322C242.907 171.39 241.08 171.868 239.265 171.663H239.2C237.639 171.508 236.15 170.929 234.895 169.989C234.289 169.558 233.728 169.068 233.22 168.526C232.918 168.198 232.641 167.847 232.392 167.477L232.245 167.256C232.079 166.989 231.932 166.732 231.794 166.456C231.721 166.318 231.656 166.171 231.592 166.023C231.59 166.005 231.59 165.987 231.592 165.968L231.463 165.655C230.96 164.304 230.561 162.917 230.267 161.506C230.267 161.377 230.203 161.239 230.166 161.101V160.945C230.037 160.375 229.908 159.767 229.761 159.105C229.441 157.784 229.457 156.405 229.809 155.092C230.16 153.779 230.836 152.576 231.774 151.593C232.712 150.609 233.881 149.877 235.176 149.463C236.47 149.049 237.847 148.967 239.182 149.224L239.55 149.298C242.356 149.933 244.334 152.058 245.622 154.726C245.757 154.985 245.876 155.253 245.981 155.526C246.027 155.618 246.063 155.71 246.1 155.802C246.49 156.816 246.797 157.858 247.02 158.921C247.025 158.991 247.025 159.062 247.02 159.133C247.176 159.842 247.284 160.561 247.342 161.285C247.437 162.039 247.483 162.798 247.48 163.558Z" fill="#EEC8C0"/>
<path d="M244.407 158.562C244.481 159.04 244.288 159.482 243.984 159.482C243.68 159.482 243.349 159.188 243.266 158.7C243.226 158.534 243.234 158.359 243.287 158.197C243.341 158.034 243.439 157.89 243.57 157.78H243.616L244.665 157.283C244.665 157.283 244.453 157.771 244.104 157.89C244.28 158.072 244.387 158.31 244.407 158.562Z" fill="#263238"/>
<path d="M242.88 159.666C243.668 160.559 244.575 161.339 245.576 161.984C245.404 162.238 245.179 162.451 244.917 162.61C244.655 162.768 244.362 162.869 244.058 162.904L242.88 159.666Z" fill="#ED893E"/>
<path d="M236.992 158.415C237.052 158.414 237.11 158.394 237.158 158.357C237.206 158.321 237.242 158.27 237.259 158.213C237.455 157.787 237.736 157.406 238.086 157.094C238.436 156.782 238.847 156.546 239.292 156.4C239.364 156.377 239.425 156.327 239.461 156.26C239.497 156.193 239.506 156.115 239.485 156.041C239.464 155.97 239.415 155.91 239.35 155.873C239.285 155.837 239.208 155.828 239.136 155.848C238.602 156.012 238.111 156.289 237.695 156.661C237.279 157.032 236.948 157.49 236.725 158.001C236.714 158.036 236.71 158.073 236.713 158.11C236.716 158.146 236.727 158.182 236.744 158.215C236.761 158.247 236.784 158.276 236.813 158.299C236.841 158.323 236.874 158.34 236.909 158.351L236.992 158.415Z" fill="#263238"/>
<path d="M245.98 155.535C246.031 155.536 246.082 155.523 246.125 155.497C246.169 155.471 246.205 155.433 246.229 155.388C246.249 155.356 246.262 155.319 246.267 155.282C246.273 155.244 246.271 155.206 246.262 155.169C246.252 155.132 246.235 155.097 246.212 155.067C246.189 155.037 246.161 155.011 246.128 154.992C245.74 154.746 245.298 154.6 244.84 154.568C244.382 154.536 243.923 154.619 243.506 154.808C243.44 154.839 243.39 154.893 243.364 154.96C243.338 155.027 243.339 155.101 243.368 155.167C243.401 155.234 243.459 155.284 243.53 155.308C243.6 155.333 243.678 155.328 243.745 155.296C244.076 155.16 244.435 155.105 244.792 155.136C245.149 155.166 245.493 155.281 245.796 155.471C245.85 155.51 245.914 155.532 245.98 155.535Z" fill="#263238"/>
<path d="M238.988 159.547C239.071 160.025 238.869 160.467 238.565 160.513C238.262 160.559 237.94 160.209 237.848 159.721C237.756 159.234 237.986 158.801 238.289 158.755H238.354L239.274 158.341C239.156 158.591 238.963 158.797 238.722 158.93C238.877 159.1 238.971 159.317 238.988 159.547Z" fill="#263238"/>
<path d="M222.787 197.395L218.96 206.522C217.847 209.199 219.052 213.192 220.248 215.979C222.962 222.263 227.166 232.18 227.166 232.18C226.412 234.462 222.474 233.919 222.474 233.919C222.474 233.919 215.372 222.98 212.41 212.262C210.441 205.16 215.418 189.189 219.77 183.292C221.094 181.498 225.363 178.544 225.363 178.544L224.526 198.398L222.787 197.395Z" fill="#EEC8C0"/>
<path d="M225.253 230.92L228.16 232.806C228.26 232.866 228.345 232.948 228.408 233.045L230.846 236.532C230.974 236.717 231.03 236.943 231.003 237.167L230.8 238.694C230.79 238.816 230.749 238.934 230.681 239.037C230.614 239.14 230.522 239.224 230.414 239.283L226.32 241.482C226.222 241.528 226.115 241.554 226.007 241.559C225.898 241.563 225.79 241.546 225.688 241.509C225.586 241.471 225.493 241.413 225.413 241.339C225.334 241.265 225.27 241.176 225.225 241.077L222.833 236.265C222.79 236.168 222.759 236.066 222.741 235.962L222.336 232.548C222.314 232.386 222.342 232.221 222.416 232.075C222.49 231.928 222.607 231.808 222.75 231.73L224.48 230.92C224.598 230.853 224.731 230.818 224.866 230.818C225.002 230.818 225.135 230.853 225.253 230.92Z" fill="#EEC8C0"/>
<path d="M248.621 229.485L222.971 224.314C222.971 224.314 226.863 217.874 221.453 193.77C218.979 182.73 223.431 176.879 232.061 176.143C232.466 176.097 232.861 176.079 233.275 176.06C236.771 175.941 241.215 178.747 243.957 180.844C243.957 180.844 243.957 180.844 244.003 180.844C244.858 181.764 245.677 182.749 246.652 183.807C254.675 192.519 247.572 199.824 248.271 221.205C248.271 221.389 248.271 221.582 248.271 221.775C248.164 224.35 248.281 226.93 248.621 229.485Z" fill="#EEC8C0"/>
<path d="M236.182 144.983C235.351 144.713 234.471 144.628 233.604 144.733C232.736 144.838 231.902 145.13 231.159 145.59C229.68 146.514 228.441 147.775 227.544 149.27C225.388 152.93 224.499 157.198 225.014 161.414C225.639 165.186 228.464 170.945 232.806 171.359C230.432 162.997 234.646 152.499 236.836 145.02C236.624 145.093 236.44 144.937 236.182 144.983Z" fill="#263238"/>
<path d="M228.841 163.898C229.379 164.894 230.288 165.638 231.371 165.968C232.815 166.382 233.551 165.048 233.165 163.705C232.806 162.472 231.628 160.761 230.166 160.945C229.66 161.02 229.204 161.293 228.899 161.703C228.594 162.113 228.464 162.628 228.537 163.134C228.584 163.407 228.688 163.667 228.841 163.898Z" fill="#EEC8C0"/>
<path d="M237.857 144.863C242.834 146.05 246.937 148.092 248.207 155.259C246.965 155.029 245.934 155.535 244.591 156.446C243.537 154.344 241.834 152.638 239.734 151.579C239.163 153.106 238.593 154.624 238.032 156.179C237.719 156.998 237.296 158.875 237.296 158.875C235.947 158.896 234.601 159.004 233.266 159.197C233.266 159.197 232.116 153.171 233.597 149.077C234.232 147.338 235.005 145.507 236.587 144.569L237.857 144.863Z" fill="#263238"/>
<path d="M248.271 221.232C248.271 221.407 248.271 221.6 248.271 221.784C241.187 224.931 227.976 221.058 223.431 219.724C223.431 218.96 223.431 218.086 223.431 217.12C225.363 216.2 227.948 215.538 229.2 214.921C233.831 212.675 237.706 209.126 240.35 204.709C243.975 198.554 245.99 190.155 243.947 183.301C243.027 180.237 239.66 178.296 236.863 177.256C235.87 176.87 232.438 176.557 232.052 176.125C232.052 175.867 232.052 174.929 232.401 175.012C239.136 176.465 241.693 178.397 244.002 180.863C244.858 181.783 248.004 185.96 248.98 187.018C257.002 195.748 247.609 199.852 248.271 221.232Z" fill="#263238"/>
<path opacity="0.3" d="M248.271 221.232C248.271 221.407 248.271 221.6 248.271 221.784C241.187 224.931 227.976 221.058 223.431 219.724C223.431 218.96 223.431 218.086 223.431 217.12C225.363 216.2 227.948 215.538 229.2 214.921C233.831 212.675 237.706 209.126 240.35 204.709C243.975 198.554 245.99 190.155 243.947 183.301C243.027 180.237 239.66 178.296 236.863 177.256C235.87 176.87 232.438 176.557 232.052 176.125C232.052 175.867 232.052 174.929 232.401 175.012C239.136 176.465 241.693 178.397 244.002 180.863C244.858 181.783 248.004 185.96 248.98 187.018C257.002 195.748 247.609 199.852 248.271 221.232Z" fill="white"/>
<path d="M231.95 264.749C231.95 264.749 230.911 268.024 229.292 273.029C229.289 273.062 229.289 273.096 229.292 273.13C228.132 276.672 226.706 281.079 225.152 285.771C222.152 294.833 220.552 301.963 217.856 309.175C214.746 317.575 196.604 349.278 191.838 357.015C190.817 358.671 189.87 360.364 188.977 362.103L188.057 363.943L183.365 360.778L184.432 358.276C184.911 357.006 200.992 314.879 204.13 303.278C208.306 287.638 210.505 261.685 215.777 244.794C216.264 243.211 216.798 241.693 217.359 240.194C217.359 240.194 233.514 253.727 234.434 254.859C235.354 255.99 231.95 264.749 231.95 264.749Z" fill="#EEC8C0"/>
<path opacity="0.1" d="M210.413 270.002C210.413 270.002 214.627 275.614 228.418 275.733L229.568 272.182L230.433 266.598L230.893 264.519C230.893 264.519 218.868 252.54 210.413 270.002Z" fill="black"/>
<path d="M189.235 362.958L183.503 359.563C181.866 361.725 178.958 364.982 178.958 364.982C178.796 365.19 178.713 365.45 178.727 365.714C178.74 365.977 178.849 366.227 179.032 366.417C179.081 366.465 179.137 366.506 179.198 366.537C181.406 367.825 183.42 368.865 186.153 370.521C189.373 372.462 188.342 372.361 192.096 374.734C194.359 376.151 196.208 373.557 195.316 372.839C191.194 369.555 189.272 364.32 189.235 362.958Z" fill="#263238"/>
<path d="M248.501 253.607C247.894 266.11 247.581 290.794 246.256 303.287C244.72 317.694 237.36 368.184 237.36 368.184L231.343 367.586C231.343 367.586 228.73 327.686 231.61 307.243C232.53 300.849 230.12 283.562 229.126 273.268C229.116 273.225 229.116 273.181 229.126 273.139C228.27 264.399 227.479 257.379 227.479 257.379C227.479 257.379 221.278 255.024 217.598 249.762C216.519 248.307 215.732 246.658 215.28 244.904C215.074 244.109 214.945 243.295 214.894 242.475C214.24 232.475 222.52 224.075 222.52 224.075L248.023 229.328C248.023 229.328 248.805 247.406 248.501 253.607Z" fill="#EEC8C0"/>
<path opacity="0.1" d="M228.362 267.619L229.282 275.356C228.583 276.929 243.193 277.012 247.995 271.768V271.28L247.489 262.816L228.362 267.619Z" fill="black"/>
<path d="M249.026 271.345C249.026 271.345 231.73 270.029 223.164 270.793C206.926 272.247 204.231 265.558 204.231 265.558C204.231 265.558 211.26 264.399 213.541 240.083C214.084 234.241 218.647 228.326 221.122 225.501C222.278 223.724 223.04 221.719 223.358 219.623L248.198 221.113L248.363 227.378C248.363 227.378 249.283 236.771 249.366 239.154C249.679 247.821 249.026 271.345 249.026 271.345Z" fill="#263238"/>
<path opacity="0.3" d="M249.026 271.345C249.026 271.345 231.73 270.029 223.164 270.793C206.926 272.247 204.231 265.558 204.231 265.558C204.231 265.558 211.26 264.399 213.541 240.083C214.084 234.241 218.647 228.326 221.122 225.501C222.278 223.724 223.04 221.719 223.358 219.623L248.198 221.113L248.363 227.378C248.363 227.378 249.283 236.771 249.366 239.154C249.679 247.821 249.026 271.345 249.026 271.345Z" fill="white"/>
<path d="M237.958 366.822H230.856C230.672 366.822 230.534 366.454 230.46 367.448C230.316 369.804 229.886 372.133 229.181 374.385L229.126 374.541C229.068 374.835 229.117 375.14 229.264 375.402C229.41 375.663 229.645 375.864 229.926 375.967C229.996 375.981 230.068 375.981 230.138 375.967C232.843 375.967 235.244 375.82 238.62 375.875C242.604 375.94 241.61 376.483 246.284 376.639C249.108 376.722 249.513 372.959 248.317 372.757C242.825 371.919 238.556 366.804 237.958 366.822Z" fill="#263238"/>
<path opacity="0.1" d="M238.492 182.04C235.906 178.986 235.796 200.661 245.548 208.454C251.528 213.238 251.638 197.561 238.492 182.04Z" fill="black"/>
<path d="M235.419 181.93C235.62 183.31 235.89 184.68 236.228 186.033C243.533 208.177 254.628 203.145 256.855 200.679C258.52 196.88 258.244 180.32 256.505 173.88L253.57 175.573C252.595 177.725 252.54 196.42 250.81 192.786C250.81 192.786 245.493 185.849 245.005 183.788C244.632 182.187 243.76 180.746 242.515 179.673C241.27 178.6 239.716 177.95 238.078 177.817C237.214 178.068 236.469 178.622 235.98 179.377C235.492 180.133 235.292 181.039 235.419 181.93Z" fill="#EEC8C0"/>
<path d="M254.592 175.858C251.703 175.159 249.992 172.105 249.992 172.105L255.788 168.057L256.459 173.899L254.592 175.858Z" fill="#EEC8C0"/>
<path d="M255.852 168.066L250.056 172.114L247.636 165.655L252.632 164.275L255.852 168.066Z" fill="#EEC8C0"/>
<path d="M242.788 165.6C242.88 166.088 243.22 166.428 243.533 166.373C243.846 166.318 244.03 165.858 243.938 165.379C243.846 164.901 243.506 164.551 243.193 164.606C242.88 164.662 242.687 165.112 242.788 165.6Z" fill="#263238"/>
<path d="M263.323 377.863C262.8 377.886 262.285 377.73 261.863 377.421C261.441 377.111 261.138 376.666 261.004 376.161L249.237 330.961H264.04L266.892 374.201C266.888 375.155 266.513 376.07 265.847 376.753C265.181 377.436 264.276 377.834 263.323 377.863Z" fill="#263238"/>
<path d="M316.002 377.863C315.479 377.888 314.963 377.733 314.541 377.423C314.118 377.113 313.816 376.667 313.683 376.161L301.917 330.961H316.71L319.571 374.201C319.567 375.155 319.192 376.07 318.526 376.753C317.86 377.436 316.955 377.834 316.002 377.863Z" fill="#263238"/>
<path opacity="0.2" d="M316.002 377.863C315.479 377.888 314.963 377.733 314.541 377.423C314.118 377.113 313.816 376.667 313.683 376.161L301.917 330.961H316.71L319.571 374.201C319.567 375.155 319.192 376.07 318.526 376.753C317.86 377.436 316.955 377.834 316.002 377.863Z" fill="white"/>
<path d="M221.168 377.863C221.691 377.888 222.207 377.733 222.629 377.423C223.051 377.113 223.354 376.667 223.486 376.161L235.253 330.961H220.46L217.598 374.201C217.603 375.155 217.977 376.07 218.643 376.753C219.309 377.436 220.214 377.834 221.168 377.863Z" fill="#263238"/>
<path opacity="0.2" d="M221.168 377.863C221.691 377.888 222.207 377.733 222.629 377.423C223.051 377.113 223.354 376.667 223.486 376.161L235.253 330.961H220.46L217.598 374.201C217.603 375.155 217.977 376.07 218.643 376.753C219.309 377.436 220.214 377.834 221.168 377.863Z" fill="white"/>
<path d="M168.498 377.863C169.021 377.886 169.536 377.73 169.958 377.421C170.379 377.111 170.683 376.666 170.816 376.161L182.583 330.961H167.78L164.928 374.201C164.933 375.155 165.307 376.07 165.973 376.753C166.639 377.436 167.544 377.834 168.498 377.863Z" fill="#263238"/>
<path d="M322.635 262.577L315.431 327.437C314.944 331.991 310.436 335.506 304.971 335.671H213.661C207.221 335.671 202.244 331.126 202.796 325.855L209.999 260.995C210.496 256.33 215.216 252.715 220.865 252.715H311.77C311.914 252.706 312.058 252.706 312.202 252.715C318.394 253 323.178 257.416 322.635 262.577Z" fill="#004EFF"/>
<path opacity="0.5" d="M322.635 262.577L315.431 327.437C314.944 331.991 310.436 335.506 304.971 335.671H213.661C207.221 335.671 202.244 331.126 202.796 325.855L209.999 260.995C210.496 256.33 215.216 252.715 220.865 252.715H311.77C311.914 252.706 312.058 252.706 312.202 252.715C318.394 253 323.178 257.416 322.635 262.577Z" fill="white"/>
<path d="M327.63 262.577L320.427 327.437C319.939 331.991 315.431 335.506 309.966 335.671C303.775 335.478 298.982 331.025 299.524 325.864L306.737 261.004C307.216 256.45 311.724 252.926 317.198 252.77C323.389 253 328.173 257.416 327.63 262.577Z" fill="#004EFF"/>
<path opacity="0.3" d="M327.63 262.577L320.427 327.437C319.939 331.991 315.431 335.506 309.966 335.671C303.775 335.478 298.982 331.025 299.524 325.864L306.737 261.004C307.216 256.45 311.724 252.926 317.198 252.77C323.389 253 328.173 257.416 327.63 262.577Z" fill="white"/>
<path d="M309.415 318.053H246.119C239.762 318.053 234.609 323.206 234.609 329.562V336.95C234.609 343.306 239.762 348.459 246.119 348.459H309.415C315.771 348.459 320.924 343.306 320.924 336.95V329.562C320.924 323.206 315.771 318.053 309.415 318.053Z" fill="#004EFF"/>
<path opacity="0.3" d="M309.415 318.053H246.119C239.762 318.053 234.609 323.206 234.609 329.562V336.95C234.609 343.306 239.762 348.459 246.119 348.459H309.415C315.771 348.459 320.924 343.306 320.924 336.95V329.562C320.924 323.206 315.771 318.053 309.415 318.053Z" fill="white"/>
<path d="M268.668 318.053H170.136C163.911 318.053 158.866 323.099 158.866 329.323V337.189C158.866 343.413 163.911 348.459 170.136 348.459H268.668C274.892 348.459 279.938 343.413 279.938 337.189V329.323C279.938 323.099 274.892 318.053 268.668 318.053Z" fill="#004EFF"/>
<path opacity="0.6" d="M268.668 318.053H170.136C163.911 318.053 158.866 323.099 158.866 329.323V337.189C158.866 343.413 163.911 348.459 170.136 348.459H268.668C274.892 348.459 279.938 343.413 279.938 337.189V329.323C279.938 323.099 274.892 318.053 268.668 318.053Z" fill="white"/>
<path d="M196.632 349.692L188.508 365.148L183.512 361.707L188.499 346.325L196.632 349.692Z" fill="#7F3E3B"/>
<path d="M262.476 283.875C257.238 283.846 252.031 283.072 247.011 281.575C246.807 285.291 245.199 288.79 242.512 291.364L241.445 292.394C241.445 292.394 209.751 284.685 205.408 294.648C201.728 303.149 184.414 352.489 184.414 352.489L194.985 357.089C194.985 357.089 210.45 335.414 217.552 317.97C217.939 317.05 219.245 312.147 219.245 312.147C232.228 317.738 246.314 320.299 260.434 319.636C263.562 319.488 266.699 317.501 265.954 307.289C265.221 299.427 264.06 291.611 262.476 283.875Z" fill="#004EFF"/>
<path opacity="0.2" d="M243.892 313.72C235.033 309.599 222.824 298.531 217.166 294.4C215.846 293.402 214.342 292.674 212.741 292.257C217.737 291.272 224.103 291.447 229.577 291.944L242.457 297.924L263.175 307.602L265.623 315.017C264.647 318.983 262.145 319.516 259.9 319.617C251.18 319.964 242.452 319.129 233.956 317.133C235.005 317.281 252.457 317.741 243.892 313.72Z" fill="black"/>
<path d="M181.268 321.19L169.878 332.285L165.609 328.78L174.451 315.983L181.268 321.19Z" fill="#7F3E3B"/>
<path d="M166.437 327.253L171.405 331.2C171.509 331.284 171.581 331.401 171.609 331.531C171.638 331.662 171.621 331.798 171.562 331.917L168.912 337.373C168.858 337.489 168.781 337.593 168.686 337.679C168.591 337.765 168.48 337.832 168.36 337.875C168.239 337.917 168.111 337.936 167.983 337.929C167.855 337.922 167.73 337.889 167.615 337.833L167.431 337.732C165.407 336.057 163.668 334.493 161.101 332.46C158.074 330.068 158.553 331.034 154.965 328.265C152.803 326.591 154.339 323.849 155.342 324.447C159.942 327.207 162.086 326.894 164.864 326.683C165.441 326.672 166.001 326.875 166.437 327.253Z" fill="#004EFF"/>
<path d="M164.422 327.014C164.442 327.026 164.464 327.033 164.487 327.033C164.51 327.033 164.532 327.026 164.551 327.014C164.565 326.992 164.573 326.967 164.573 326.941C164.573 326.914 164.565 326.889 164.551 326.867C164.45 326.628 163.484 324.447 162.757 324.309C162.687 324.297 162.615 324.303 162.548 324.325C162.481 324.348 162.42 324.387 162.371 324.438C162.289 324.518 162.227 324.617 162.19 324.726C162.153 324.834 162.143 324.95 162.159 325.064C162.27 325.837 163.594 326.637 164.367 327.033L164.422 327.014ZM162.785 324.539C163.19 324.687 163.797 325.763 164.192 326.6C163.153 326.021 162.509 325.423 162.444 324.99C162.432 324.916 162.438 324.839 162.464 324.768C162.49 324.697 162.534 324.634 162.592 324.585C162.606 324.563 162.627 324.546 162.652 324.536C162.677 324.526 162.704 324.524 162.73 324.53L162.785 324.539Z" fill="#004EFF"/>
<path d="M164.423 327.014C164.446 327.014 164.47 327.009 164.491 326.998C164.512 326.986 164.529 326.97 164.542 326.95C164.993 326.339 165.238 325.602 165.241 324.843C165.219 324.719 165.171 324.602 165.102 324.497C165.032 324.393 164.942 324.304 164.837 324.236C164.542 324.042 164.349 324.116 164.239 324.236C163.76 324.659 164.009 326.342 164.321 326.996C164.351 327.015 164.388 327.021 164.423 327.014ZM164.597 324.392L164.699 324.475C164.777 324.522 164.845 324.586 164.896 324.662C164.947 324.739 164.98 324.826 164.993 324.916C165.002 325.531 164.819 326.132 164.469 326.637C164.22 325.919 164.137 324.677 164.423 324.429C164.446 324.409 164.475 324.399 164.505 324.399C164.536 324.399 164.565 324.409 164.588 324.429L164.597 324.392Z" fill="#004EFF"/>
<path d="M181.792 360.962C181.81 360.946 181.824 360.926 181.832 360.904C181.84 360.881 181.842 360.857 181.838 360.833C181.835 360.806 181.823 360.781 181.805 360.762C181.787 360.742 181.763 360.728 181.737 360.723C181.461 360.667 179.023 360.263 178.489 360.815C178.44 360.868 178.404 360.933 178.387 361.004C178.369 361.075 178.369 361.149 178.388 361.219C178.408 361.337 178.456 361.447 178.528 361.542C178.601 361.636 178.694 361.712 178.802 361.762C179.538 362.103 180.983 361.422 181.774 360.971L181.792 360.962ZM178.719 360.962C179.564 360.733 180.452 360.717 181.305 360.916C180.21 361.486 179.327 361.707 178.913 361.514C178.84 361.482 178.777 361.433 178.728 361.37C178.68 361.307 178.649 361.233 178.637 361.155C178.626 361.13 178.62 361.104 178.62 361.077C178.62 361.05 178.626 361.023 178.637 360.999L178.719 360.962Z" fill="#004EFF"/>
<path d="M181.792 360.962C181.803 360.942 181.809 360.92 181.809 360.897C181.809 360.875 181.803 360.853 181.792 360.833C181.792 360.778 181.203 359.37 180.366 358.993C180.122 358.892 179.847 358.892 179.602 358.993C179.271 359.14 179.225 359.343 179.244 359.499C179.336 360.152 180.936 360.897 181.654 360.989C181.678 360.995 181.702 360.996 181.726 360.991C181.75 360.986 181.773 360.976 181.792 360.962ZM179.621 359.306L179.75 359.26C179.93 359.187 180.131 359.187 180.311 359.26C180.843 359.606 181.257 360.107 181.498 360.695C180.725 360.502 179.612 359.867 179.556 359.481C179.556 359.481 179.556 359.389 179.63 359.324L179.621 359.306Z" fill="#004EFF"/>
<path d="M254.601 283.084C263.335 284.584 272.246 284.761 281.033 283.608C281.033 283.608 290.141 318.642 264.123 318.568C254.509 318.568 250.581 314.484 244.398 310.702C230.322 302.1 218.804 289.542 213.293 290.223C205.363 291.226 209.677 300.702 176.962 326.37L170.375 320.372C170.375 320.372 195.105 266.018 211.361 266.018C225.465 266.018 247.664 287.73 250.636 287.804C253.607 287.877 254.601 283.084 254.601 283.084Z" fill="#004EFF"/>
<path opacity="0.2" d="M208.84 292.22C207.013 292.861 205.502 294.178 204.617 295.9C204.059 297.412 203.658 298.978 203.421 300.573C202.501 301.88 201.388 303.333 200.082 304.916C201.121 294.4 208.84 292.22 208.84 292.22Z" fill="black"/>
<path d="M183.945 360.87L189.952 363.566C190.078 363.621 190.181 363.718 190.245 363.84C190.308 363.962 190.328 364.102 190.302 364.237L189.032 370.41C189.008 370.542 188.958 370.667 188.885 370.778C188.812 370.889 188.718 370.985 188.607 371.06C188.497 371.134 188.372 371.186 188.242 371.212C188.111 371.238 187.976 371.238 187.846 371.211L187.643 371.147C185.168 369.987 183.043 368.865 179.924 367.467C176.244 365.838 176.999 366.684 172.675 364.826C170.071 363.694 170.908 360.539 172.077 360.888C177.385 362.508 179.483 361.624 182.197 360.695C182.781 360.533 183.405 360.595 183.945 360.87Z" fill="#004EFF"/>
<path d="M226.863 241.794C226.863 241.794 224.876 237.7 226.081 236.836C227.286 235.971 227.065 237.066 227.065 237.066L229.577 242.126L226.863 241.794Z" fill="#7F3E3B"/>
<path d="M223.68 246.21C222.557 246.045 222.438 245.189 221.84 244.223C221.84 244.223 220.128 240.304 221.49 239.724C222.908 239.574 224.334 239.525 225.759 239.577C226.744 239.64 227.683 240.018 228.437 240.656C229.191 241.294 229.72 242.158 229.945 243.119C231.205 247.415 223.68 246.21 223.68 246.21Z" fill="#7F3E3B"/>
<path d="M225.326 245.833L230.828 254.674L236.311 253.681L229.733 245.014L225.326 245.833Z" fill="#7F3E3B"/>
<path d="M253.718 240.12C253.718 240.12 247.186 239.798 244.665 252.549C242.825 261.859 242.521 260.829 242.521 260.829L232.098 246.459L226.099 248.869C226.099 248.869 238.225 273.102 244.499 271.115C244.499 271.115 247.729 270.958 250.176 265.595C252.623 260.231 253.718 240.12 253.718 240.12Z" fill="#004EFF"/>
<path d="M253.718 240.12C253.718 240.12 247.186 239.798 244.665 252.549C242.825 261.859 242.521 260.829 242.521 260.829L232.098 246.459L226.099 248.869C226.099 248.869 238.225 273.102 244.499 271.115C244.499 271.115 247.729 270.958 250.176 265.595C252.623 260.231 253.718 240.12 253.718 240.12Z" fill="#263238"/>
<path d="M247.545 249.531C247.471 252.54 242.264 259.145 247.83 263.561C246.56 265.926 244.527 282.44 246.56 285.512C246.56 285.512 267.177 288.567 281.778 287.647C282.799 281.704 280.278 269.348 285.623 250.304C285.916 249.262 285.986 248.171 285.83 247.1C285.673 246.029 285.293 245.003 284.715 244.089C284.136 243.175 283.372 242.392 282.471 241.792C281.57 241.193 280.554 240.789 279.487 240.607C278.282 240.396 276.994 240.212 275.678 240.055C271.106 239.417 266.494 239.11 261.878 239.135C260.369 239.135 258.815 239.255 257.324 239.356C254.72 239.529 252.273 240.668 250.465 242.55C248.656 244.432 247.614 246.922 247.545 249.531Z" fill="#263238"/>
<path opacity="0.2" d="M273.958 260.203C275.043 254.679 276.686 249.278 278.861 244.085L279.248 247.599L280.407 249.071C278.484 254.886 288.365 264.564 277.214 278.051C276.949 278.37 276.589 278.594 276.186 278.692C275.784 278.79 275.36 278.755 274.979 278.594C270.296 276.644 265.089 270.581 265.089 270.581L267.545 264.325C270.848 265.88 273.065 264.96 273.958 260.203Z" fill="black"/>
<path d="M250.866 261.905L254.969 261.979C255.158 261.988 255.346 261.952 255.519 261.875C255.691 261.798 255.844 261.681 255.963 261.534C256.082 261.387 256.165 261.214 256.205 261.03C256.245 260.845 256.24 260.653 256.193 260.47L254.113 249.715C254.019 249.29 253.788 248.908 253.456 248.627C253.123 248.346 252.708 248.182 252.273 248.161L248.179 248.087C247.99 248.075 247.801 248.108 247.627 248.183C247.453 248.259 247.299 248.374 247.179 248.521C247.058 248.667 246.975 248.84 246.934 249.026C246.894 249.211 246.898 249.403 246.947 249.587L249.044 260.36C249.139 260.78 249.368 261.158 249.697 261.437C250.025 261.716 250.436 261.88 250.866 261.905Z" fill="#263238"/>
<path opacity="0.3" d="M250.866 261.905L254.969 261.979C255.158 261.988 255.346 261.952 255.519 261.875C255.691 261.798 255.844 261.681 255.963 261.534C256.082 261.387 256.165 261.214 256.205 261.03C256.245 260.845 256.24 260.653 256.193 260.47L254.113 249.715C254.019 249.29 253.788 248.908 253.456 248.627C253.123 248.346 252.708 248.182 252.273 248.161L248.179 248.087C247.99 248.075 247.801 248.108 247.627 248.183C247.453 248.259 247.299 248.374 247.179 248.521C247.058 248.667 246.975 248.84 246.934 249.026C246.894 249.211 246.898 249.403 246.947 249.587L249.044 260.36C249.139 260.78 249.368 261.158 249.697 261.437C250.025 261.716 250.436 261.88 250.866 261.905Z" fill="white"/>
<path d="M250.24 261.896L254.343 261.97C254.533 261.98 254.722 261.946 254.896 261.869C255.07 261.793 255.223 261.676 255.343 261.529C255.464 261.382 255.547 261.209 255.588 261.023C255.628 260.837 255.624 260.645 255.576 260.461L253.488 249.706C253.392 249.281 253.161 248.899 252.829 248.616C252.497 248.334 252.083 248.168 251.648 248.142L247.544 248.069C247.355 248.058 247.165 248.093 246.991 248.169C246.818 248.246 246.664 248.362 246.544 248.51C246.424 248.657 246.34 248.83 246.3 249.016C246.259 249.201 246.263 249.394 246.312 249.578L248.4 260.36C248.5 260.78 248.734 261.156 249.065 261.433C249.397 261.71 249.809 261.873 250.24 261.896Z" fill="#263238"/>
<path opacity="0.7" d="M250.24 261.896L254.343 261.97C254.533 261.98 254.722 261.946 254.896 261.869C255.07 261.793 255.223 261.676 255.343 261.529C255.464 261.382 255.547 261.209 255.588 261.023C255.628 260.837 255.624 260.645 255.576 260.461L253.488 249.706C253.392 249.281 253.161 248.899 252.829 248.616C252.497 248.334 252.083 248.168 251.648 248.142L247.544 248.069C247.355 248.058 247.165 248.093 246.991 248.169C246.818 248.246 246.664 248.362 246.544 248.51C246.424 248.657 246.34 248.83 246.3 249.016C246.259 249.201 246.263 249.394 246.312 249.578L248.4 260.36C248.5 260.78 248.734 261.156 249.065 261.433C249.397 261.71 249.809 261.873 250.24 261.896Z" fill="white"/>
<path d="M252.08 251.325H251.684C251.394 251.309 251.116 251.198 250.895 251.008C250.674 250.819 250.521 250.562 250.461 250.276L250.378 249.881C250.346 249.758 250.344 249.628 250.371 249.504C250.398 249.379 250.454 249.263 250.535 249.165C250.616 249.066 250.719 248.988 250.835 248.936C250.952 248.885 251.079 248.862 251.206 248.869H251.602C251.891 248.886 252.167 248.996 252.387 249.184C252.608 249.372 252.762 249.626 252.825 249.909L252.908 250.313C252.94 250.437 252.943 250.566 252.915 250.69C252.888 250.815 252.832 250.931 252.751 251.03C252.67 251.128 252.568 251.206 252.451 251.258C252.334 251.309 252.207 251.332 252.08 251.325Z" fill="#263238"/>
<path d="M251.16 249.467C251.183 249.586 251.245 249.694 251.337 249.772C251.429 249.851 251.545 249.896 251.666 249.9C251.718 249.903 251.77 249.894 251.818 249.873C251.866 249.852 251.909 249.82 251.942 249.779C251.975 249.739 251.998 249.691 252.009 249.64C252.021 249.589 252.02 249.536 252.006 249.486C251.982 249.368 251.919 249.261 251.828 249.183C251.736 249.105 251.621 249.059 251.5 249.053C251.448 249.05 251.396 249.059 251.348 249.08C251.3 249.101 251.258 249.133 251.225 249.174C251.192 249.214 251.168 249.262 251.157 249.313C251.146 249.364 251.147 249.417 251.16 249.467Z" fill="#263238"/>
<path d="M251.362 250.7C251.391 250.817 251.457 250.923 251.549 251C251.642 251.078 251.757 251.124 251.878 251.133C251.93 251.134 251.982 251.123 252.03 251.101C252.078 251.079 252.12 251.047 252.153 251.006C252.186 250.965 252.209 250.917 252.22 250.865C252.232 250.814 252.231 250.76 252.218 250.709C252.19 250.593 252.125 250.489 252.035 250.412C251.944 250.334 251.831 250.287 251.712 250.277C251.659 250.274 251.605 250.283 251.556 250.305C251.507 250.326 251.464 250.359 251.43 250.4C251.396 250.441 251.372 250.49 251.36 250.542C251.349 250.594 251.349 250.648 251.362 250.7Z" fill="#263238"/>
<path d="M255.926 261.271L262.219 267.499L264.988 263.101L258.382 258.133L255.926 261.271Z" fill="#7F3E3B"/>
<path d="M285.945 254.61C286.617 250.976 286.709 243.57 282.872 242.181C278.392 240.571 277.187 247.342 276.23 253.46C275.273 259.578 273.36 267.195 271.897 266.45C268.842 264.895 263.497 261.372 263.497 261.372L260.268 266.367C260.268 266.367 271.529 278.373 276.653 275.567C282.44 272.412 285.09 259.219 285.945 254.61Z" fill="#263238"/>
<path d="M272.228 230C271.578 233.212 271.613 236.526 272.329 239.724C272.329 239.724 259.974 247.618 259.974 239.494C259.974 239.494 263.81 239.954 264.141 235.032C264.325 232.245 267.242 229.411 272.228 230Z" fill="#7F3E3B"/>
<path opacity="0.2" d="M264.141 235.041C264.472 232.465 266.855 229.834 271.179 229.935L271.464 230.202L271.768 230.763C271.768 230.763 269.008 237.857 263.663 237.001C263.906 236.371 264.066 235.712 264.141 235.041Z" fill="black"/>
<path d="M275.08 220.349C274.16 227.056 273.866 229.917 270.186 233.101C264.666 237.903 256.607 235.263 255.539 228.399C254.573 222.217 256.303 212.29 263.111 210.137C264.612 209.643 266.215 209.543 267.765 209.848C269.316 210.153 270.762 210.853 271.964 211.879C273.166 212.905 274.083 214.223 274.627 215.707C275.171 217.191 275.324 218.789 275.071 220.349H275.08Z" fill="#7F3E3B"/>
<path d="M260.112 224.038C259.522 225.253 258.77 226.383 257.876 227.396C258.138 227.62 258.446 227.783 258.779 227.874C259.111 227.964 259.459 227.98 259.799 227.92L260.112 224.038Z" fill="#630F0F"/>
<path d="M266.101 220.643C266.147 220.635 266.191 220.616 266.23 220.588C266.286 220.544 266.323 220.481 266.333 220.411C266.343 220.34 266.326 220.269 266.285 220.211C265.988 219.804 265.597 219.474 265.145 219.25C264.694 219.025 264.195 218.913 263.691 218.923C263.62 218.932 263.555 218.967 263.509 219.022C263.463 219.076 263.439 219.146 263.442 219.217C263.451 219.286 263.486 219.348 263.538 219.392C263.591 219.436 263.659 219.459 263.727 219.457C264.145 219.457 264.556 219.556 264.928 219.744C265.301 219.933 265.623 220.206 265.871 220.542C265.898 220.577 265.933 220.604 265.973 220.621C266.013 220.639 266.057 220.647 266.101 220.643Z" fill="#263238"/>
<path d="M256.147 219.392C256.193 219.391 256.238 219.375 256.275 219.346C256.604 219.094 256.988 218.923 257.396 218.848C257.804 218.773 258.224 218.795 258.621 218.914C258.654 218.927 258.689 218.934 258.724 218.934C258.759 218.934 258.794 218.927 258.827 218.913C258.859 218.9 258.889 218.88 258.914 218.854C258.938 218.829 258.958 218.799 258.971 218.767C258.984 218.734 258.991 218.698 258.99 218.662C258.989 218.627 258.981 218.591 258.967 218.559C258.952 218.526 258.931 218.497 258.905 218.473C258.879 218.448 258.848 218.429 258.815 218.417C258.333 218.263 257.822 218.228 257.325 218.312C256.827 218.397 256.356 218.6 255.953 218.905C255.894 218.946 255.854 219.008 255.84 219.078C255.826 219.149 255.841 219.222 255.88 219.282C255.909 219.324 255.95 219.357 255.997 219.376C256.044 219.396 256.096 219.401 256.147 219.392Z" fill="#263238"/>
<path d="M264.04 223.45C264.04 223.992 263.672 224.416 263.313 224.37C262.954 224.324 262.697 223.873 262.743 223.321C262.789 222.769 263.12 222.401 263.47 222.401C263.819 222.401 264.104 222.898 264.04 223.45Z" fill="#263238"/>
<path d="M257.858 222.943C257.858 223.495 257.481 223.919 257.131 223.863C256.781 223.808 256.515 223.367 256.561 222.815C256.607 222.263 256.929 221.849 257.287 221.895C257.646 221.941 257.904 222.391 257.858 222.943Z" fill="#263238"/>
<path d="M257.435 221.941L256.156 221.462C256.156 221.462 256.745 222.539 257.435 221.941Z" fill="#263238"/>
<path d="M263.644 222.447L262.356 221.959C262.356 221.959 262.954 223.045 263.644 222.447Z" fill="#263238"/>
<path d="M263.286 228.942C263.434 228.777 263.569 228.602 263.69 228.417C263.713 228.392 263.726 228.359 263.726 228.325C263.726 228.291 263.713 228.259 263.69 228.233C263.665 228.211 263.632 228.198 263.598 228.198C263.565 228.198 263.532 228.211 263.506 228.233C263.209 228.707 262.804 229.105 262.325 229.394C261.845 229.684 261.305 229.856 260.746 229.899C260.712 229.899 260.68 229.912 260.655 229.936C260.631 229.96 260.618 229.993 260.618 230.027C260.618 230.062 260.631 230.094 260.655 230.118C260.68 230.143 260.712 230.156 260.746 230.156C261.72 230.104 262.634 229.667 263.286 228.942Z" fill="#263238"/>
<path d="M268.981 208.647C268.981 208.647 279.542 206.595 281.989 223.771C283.213 232.327 271.557 237.121 271.557 237.121V235.336C271.558 232.767 272.081 230.226 273.093 227.865L273.866 226.025L268.787 218.96C268.787 218.96 265.761 218.04 265.337 215.188C265.337 215.188 264.62 216.191 265.761 218.021C265.761 218.021 258.014 218.325 258.401 214.341C258.228 214.674 258.134 215.042 258.126 215.417C258.118 215.792 258.196 216.164 258.355 216.503C258.355 216.503 255.944 216.457 256.239 214.351C256.533 212.244 258.428 203.43 268.981 208.647Z" fill="#263238"/>
<path d="M276.221 225.805C275.989 226.415 275.639 226.972 275.19 227.446C274.742 227.92 274.204 228.3 273.608 228.565C272.007 229.255 270.977 227.884 271.234 226.256C271.455 224.793 272.559 222.677 274.252 222.677C274.621 222.686 274.981 222.786 275.302 222.969C275.622 223.152 275.892 223.411 276.087 223.724C276.282 224.037 276.396 224.393 276.42 224.761C276.443 225.129 276.375 225.497 276.221 225.832V225.805Z" fill="#7F3E3B"/>
<path d="M250.544 259.035L251.464 260.544C251.635 260.823 251.87 261.058 252.15 261.227C252.43 261.397 252.747 261.497 253.074 261.519L256.174 261.74C256.79 261.794 257.409 261.696 257.978 261.455C258.548 261.215 259.049 260.839 259.44 260.36L259.937 259.771C258.575 257.158 255.18 255.346 255.18 255.346L254.26 254.72C253.889 254.453 253.427 254.343 252.975 254.416C252.524 254.488 252.119 254.737 251.85 255.107L250.59 256.892C250.376 257.206 250.257 257.576 250.249 257.957C250.241 258.337 250.343 258.712 250.544 259.035Z" fill="#7F3E3B"/>
<path d="M112.58 161.497L99.1023 163.521L91.2916 143.575C90.9604 142.416 89.5619 144.09 88.3751 143.897L86.3327 143.566C86.1395 143.189 90.0955 160.66 92.7175 170.945C93.7847 175.15 115.304 170.605 115.304 170.605C123.676 166.833 112.58 161.497 112.58 161.497Z" fill="#FFB573"/>
<path d="M104.558 161C105.088 165.363 106.305 169.613 108.164 173.595C108.273 173.816 108.444 174.001 108.657 174.125C108.869 174.25 109.114 174.308 109.36 174.294C116.214 173.871 119.223 172.233 119.223 172.233C118.606 170.173 121.348 158.847 119.931 157.366C118.001 157.701 116.114 158.244 114.301 158.985C112.737 159.767 104.558 161 104.558 161Z" fill="#004EFF"/>
<path d="M117.254 173.301C117.337 192.289 115.662 208.592 115.662 208.592C115.662 208.592 148.552 208.73 149.702 208.757C152.352 186.76 154.256 181.157 154.946 167.744C155.287 162.224 152.186 157.311 148.976 156.704L148.378 156.63C139.178 155.407 129.223 156.391 119.968 157.366C116.389 157.854 117.594 164.377 117.254 173.301Z" fill="#004EFF"/>
<path d="M131.339 303.6C128.579 328.845 130.824 374.054 130.824 374.054L136.601 374.21C136.601 374.21 141.008 332.332 141.201 302.202L131.339 303.6Z" fill="#FFB573"/>
<path d="M131.339 303.6C128.579 328.845 130.824 374.054 130.824 374.054L136.601 374.21C136.601 374.21 141.008 332.332 141.201 302.202L131.339 303.6Z" fill="#FFB573"/>
<path d="M138.819 371.294C143.097 373.732 143.575 373.787 148.286 374.753C149.316 374.965 148.93 377.421 146.528 377.449C142.563 377.513 142.848 377.375 139.5 377.449C136.611 377.449 132.425 377.642 130.125 377.697H130.051C129.794 377.678 129.554 377.56 129.383 377.368C129.211 377.176 129.121 376.924 129.131 376.667L129.554 371.368C129.568 371.256 129.62 371.153 129.703 371.077C129.786 371.001 129.893 370.957 130.005 370.954L137.365 370.898C137.876 370.901 138.377 371.037 138.819 371.294Z" fill="#263238"/>
<path d="M138.432 371.386C139.352 371.57 141.082 371.791 141.717 371.202C141.811 371.114 141.883 371.004 141.926 370.882C141.969 370.761 141.982 370.631 141.965 370.503C141.955 370.425 141.928 370.351 141.885 370.285C141.841 370.22 141.784 370.165 141.717 370.125C140.99 369.739 138.644 370.972 138.386 371.119C138.362 371.135 138.343 371.157 138.33 371.183C138.317 371.209 138.311 371.237 138.313 371.266C138.318 371.292 138.33 371.316 138.348 371.335C138.366 371.355 138.389 371.369 138.414 371.377L138.432 371.386ZM141.588 370.383C141.614 370.396 141.636 370.415 141.652 370.44C141.669 370.464 141.678 370.492 141.68 370.521C141.695 370.605 141.689 370.691 141.662 370.771C141.634 370.852 141.587 370.924 141.524 370.981C141.165 371.312 140.199 371.386 138.892 371.174C139.812 370.714 141.091 370.199 141.533 370.346L141.588 370.383Z" fill="#004EFF"/>
<path d="M138.515 371.386C139.214 371.054 140.603 369.757 140.465 369.067C140.465 368.902 140.318 368.708 139.932 368.672C139.792 368.658 139.651 368.674 139.518 368.718C139.385 368.763 139.263 368.835 139.159 368.929C138.643 369.592 138.347 370.399 138.313 371.238C138.311 371.265 138.316 371.292 138.327 371.316C138.338 371.34 138.355 371.361 138.377 371.376C138.397 371.391 138.42 371.4 138.445 371.401C138.469 371.403 138.494 371.397 138.515 371.386ZM140.061 368.994C140.18 368.994 140.189 369.095 140.199 369.122C140.263 369.536 139.343 370.558 138.616 371.018C138.672 370.345 138.928 369.704 139.352 369.178C139.427 369.106 139.518 369.052 139.616 369.02C139.715 368.989 139.82 368.979 139.923 368.994H140.061Z" fill="#004EFF"/>
<path d="M110.446 305.081C106.858 330.216 93.5364 373.483 93.5364 373.483L87.2068 373.355C87.2068 373.355 93.288 331.697 100.519 302.441L110.446 305.081Z" fill="#FFB573"/>
<path d="M85.5599 371.027C81.0979 373.566 80.6011 373.621 75.6975 374.633C74.6211 374.854 75.0167 377.393 77.5375 377.439C81.6775 377.504 81.3279 377.357 84.8975 377.393C87.9059 377.393 92.2575 377.596 94.6587 377.66H94.7415C95.0034 377.632 95.2446 377.505 95.4157 377.305C95.5868 377.105 95.6747 376.847 95.6615 376.584L95.2199 371.064C95.2065 370.948 95.1515 370.842 95.0651 370.764C94.9788 370.686 94.867 370.642 94.7507 370.641L87.1239 370.576C86.5711 370.58 86.0301 370.736 85.5599 371.027Z" fill="#263238"/>
<path d="M85.9556 371.11C85.9818 371.104 86.0057 371.09 86.0238 371.071C86.042 371.051 86.0535 371.026 86.0568 370.999C86.0625 370.969 86.0585 370.937 86.0453 370.909C86.0321 370.881 86.0103 370.858 85.9832 370.843C85.7164 370.696 83.2784 369.417 82.5148 369.812C82.4434 369.853 82.3828 369.91 82.338 369.979C82.2932 370.048 82.2655 370.126 82.2572 370.208C82.2395 370.34 82.2536 370.473 82.2984 370.598C82.3433 370.723 82.4175 370.835 82.5148 370.926C83.1772 371.542 84.9436 371.321 85.9372 371.128L85.9556 371.11ZM82.708 370.042C83.168 369.895 84.502 370.429 85.468 370.907C84.1064 371.119 83.0944 371.045 82.708 370.705C82.6429 370.645 82.5937 370.57 82.5648 370.486C82.5359 370.403 82.5282 370.314 82.5424 370.226C82.5426 370.196 82.5513 370.166 82.5675 370.14C82.5838 370.114 82.6069 370.093 82.6344 370.079L82.708 370.042Z" fill="#004EFF"/>
<path d="M85.9556 371.11C85.9787 371.096 85.9971 371.075 86.0085 371.051C86.02 371.026 86.024 370.999 86.02 370.972C85.9766 370.091 85.6544 369.247 85.1 368.562C84.9917 368.465 84.8649 368.392 84.7272 368.346C84.5896 368.3 84.4441 368.283 84.2996 368.295C83.8948 368.341 83.7752 368.543 83.7476 368.709C83.6096 369.436 85.0448 370.779 85.7808 371.128C85.8068 371.148 85.8393 371.157 85.8718 371.154C85.9042 371.15 85.9342 371.135 85.9556 371.11ZM84.2444 368.608H84.3916C84.4978 368.597 84.605 368.609 84.7064 368.642C84.8079 368.675 84.9012 368.729 84.9804 368.801C85.4279 369.361 85.6943 370.045 85.744 370.76C84.9896 370.282 84.0236 369.215 84.1064 368.792C84.1064 368.792 84.1064 368.69 84.2352 368.654L84.2444 368.608Z" fill="#004EFF"/>
<path d="M129.021 251.602C126.16 256.772 111.44 308.292 111.44 308.292L105 338.201C104.06 342.531 103.375 346.911 102.948 351.321L101.66 360.879L86.802 361.063C87.1056 359.766 89.8748 346.564 96.3608 305.045C103.04 262.329 115.386 208.739 115.386 208.739C115.386 208.739 134.32 208.003 142.471 209.254C144.753 220.8 135.24 240.488 129.021 251.602Z" fill="#263238"/>
<path opacity="0.2" d="M124.853 236.578C124.853 236.578 119.996 265.88 121.44 274.427L131.91 240.737L124.853 236.578Z" fill="black"/>
<path d="M140.668 361.064C141.008 360.548 142.986 318.532 143.741 306.627L149.445 240.562C149.445 240.562 152.665 218.583 149.666 208.758L122.001 208.564C122.001 208.564 129.435 289.451 127.751 330.234C127.116 345.451 126.776 361.073 126.776 361.073L140.668 361.064Z" fill="#263238"/>
<path d="M139.343 156.483C141.413 157.955 140.53 160.273 138.846 162.169C136.907 164.438 134.453 166.211 131.689 167.339C131.633 167.339 122.562 160.761 128.975 156.658C130.033 155.977 130.447 154.367 130.566 152.683C130.638 151.4 130.586 150.112 130.41 148.838C130.379 148.529 130.333 148.222 130.272 147.918C130.229 147.608 130.168 147.3 130.088 146.998L139.702 143.023C138.644 144.615 137.862 149.712 138.064 151.359C138.313 153.235 138.386 155.802 139.343 156.483Z" fill="#FFB573"/>
<path opacity="0.2" d="M130.64 152.647C130.712 151.363 130.66 150.075 130.484 148.801C130.456 148.492 130.413 148.185 130.355 147.881L137.788 146.455C136.16 147.991 133.998 151.156 130.64 152.647Z" fill="black"/>
<path d="M122.415 143.272C123.611 149.776 131.403 153.208 136.546 148.544C139.518 145.857 139.987 142.656 140.53 137.66C140.622 136.896 140.705 136.105 140.797 135.259C140.961 133.939 140.826 132.6 140.401 131.34C140.232 130.814 140.007 130.308 139.729 129.831C138.721 128.024 137.112 126.626 135.182 125.88C133.251 125.134 131.12 125.087 129.159 125.746C122.709 127.926 121.329 137.412 122.415 143.272Z" fill="#FFB573"/>
<path d="M130.465 135.443C130.125 135.443 129.821 135.838 129.793 136.363C129.766 136.887 129.977 137.329 130.364 137.347C130.75 137.366 131.045 136.961 131.072 136.427C131.1 135.894 130.805 135.47 130.465 135.443Z" fill="#263238"/>
<path d="M124.623 135.396C124.283 135.396 123.979 135.774 123.952 136.316C123.924 136.859 124.172 137.236 124.522 137.301C124.872 137.365 125.166 136.914 125.194 136.381C125.221 135.847 124.964 135.415 124.623 135.396Z" fill="#263238"/>
<path d="M127.08 141.524C125.941 141.54 124.831 141.16 123.942 140.447C125.256 139.256 126.403 137.895 127.356 136.399L127.08 141.524Z" fill="#ED893E"/>
<path d="M132.48 134.928C132.252 134.613 131.954 134.356 131.609 134.177C131.263 133.998 130.881 133.902 130.493 133.897H130.392C130.311 133.89 130.236 133.853 130.182 133.794C130.127 133.734 130.097 133.656 130.097 133.575C130.1 133.534 130.11 133.494 130.128 133.457C130.146 133.42 130.171 133.387 130.202 133.359C130.232 133.332 130.268 133.311 130.307 133.297C130.346 133.284 130.387 133.278 130.428 133.281C130.916 133.276 131.398 133.387 131.835 133.604C132.271 133.822 132.65 134.14 132.94 134.532C132.989 134.597 133.01 134.679 133 134.759C132.99 134.84 132.948 134.914 132.885 134.964C132.844 135 132.792 135.019 132.738 135.02C132.69 135.025 132.643 135.019 132.598 135.003C132.554 134.987 132.513 134.961 132.48 134.928Z" fill="#263238"/>
<path d="M122.489 132.765C122.489 132.724 122.497 132.684 122.513 132.646C122.528 132.608 122.551 132.573 122.58 132.544C122.609 132.515 122.644 132.492 122.682 132.476C122.72 132.461 122.76 132.453 122.802 132.453C123.289 132.444 123.772 132.552 124.209 132.768C124.646 132.984 125.025 133.302 125.313 133.695C125.335 133.728 125.35 133.765 125.357 133.804C125.364 133.843 125.364 133.883 125.355 133.921C125.347 133.96 125.33 133.996 125.307 134.029C125.284 134.061 125.255 134.088 125.221 134.109C125.188 134.129 125.151 134.142 125.113 134.148C125.074 134.153 125.035 134.152 124.998 134.142C124.96 134.133 124.925 134.116 124.894 134.093C124.862 134.07 124.836 134.041 124.816 134.007C124.579 133.709 124.275 133.47 123.928 133.31C123.581 133.15 123.202 133.074 122.82 133.087C122.769 133.092 122.718 133.082 122.673 133.059C122.628 133.037 122.589 133.002 122.562 132.959C122.516 132.905 122.49 132.837 122.489 132.765Z" fill="#263238"/>
<path d="M136.509 130.99C136.876 132.299 137.007 133.664 136.896 135.019C137.689 136.014 138.256 137.17 138.556 138.406C138.856 139.642 138.883 140.929 138.635 142.177C139.6 140.583 141.11 139.394 142.885 138.828C143.438 136.415 143.685 133.943 143.621 131.468C143.652 130.52 143.469 129.577 143.087 128.708C142.89 128.274 142.573 127.904 142.174 127.642C141.775 127.38 141.311 127.236 140.833 127.227C140.944 126.243 140.024 125.387 139.177 124.909C136.664 123.414 133.778 122.663 130.855 122.743C127.932 122.822 125.091 123.73 122.663 125.359C121.909 125.359 121.118 125.359 120.354 125.359C120.479 126.199 120.774 127.005 121.222 127.726C121.67 128.448 122.26 129.07 122.958 129.555C123.265 129.802 123.54 130.086 123.777 130.401C125.463 130.899 127.248 130.962 128.965 130.585C130.675 130.188 132.404 129.881 134.145 129.665C134.628 129.613 135.115 129.712 135.539 129.95C135.963 130.187 136.302 130.551 136.509 130.99Z" fill="#263238"/>
<path d="M141.036 137.274C138.929 137.274 137.641 139.969 137.42 141.782C137.163 143.806 138.515 145.462 140.466 144.542C141.193 144.205 141.847 143.727 142.387 143.134C142.927 142.542 143.344 141.847 143.612 141.092C143.787 140.67 143.855 140.212 143.809 139.758C143.763 139.304 143.606 138.868 143.351 138.49C143.096 138.111 142.751 137.802 142.347 137.59C141.943 137.378 141.492 137.269 141.036 137.274Z" fill="#FFB573"/>
<path d="M125.424 143.318C125.424 143.318 127.264 142.582 132.535 141.947C132.232 143.879 131.072 144.707 128.34 144.983C125.608 145.259 125.424 143.318 125.424 143.318Z" fill="#263238"/>
<path d="M125.663 143.244C125.741 143.457 125.874 143.644 126.049 143.788C126.223 143.932 126.433 144.027 126.656 144.063C128.219 143.875 129.76 143.533 131.256 143.042C131.511 142.983 131.743 142.853 131.927 142.667C132.111 142.482 132.239 142.248 132.296 141.993C130.052 142.212 127.832 142.631 125.663 143.244Z" fill="white"/>
<path d="M126.767 143.907C128.106 143.363 129.521 143.031 130.962 142.922C131.367 142.97 131.751 143.126 132.075 143.373C131.486 144.293 130.309 144.799 128.395 145.02C127.666 145.149 126.915 145.012 126.279 144.634C126.404 144.368 126.569 144.123 126.767 143.907Z" fill="white"/>
<path d="M88.007 141.275C88.007 141.275 86.2314 136.841 87.5562 136.022C88.881 135.203 88.5682 136.335 88.5682 136.335L90.8222 141.855L88.007 141.275Z" fill="#FFB573"/>
<path d="M84.3363 145.664C83.1679 145.406 83.1127 144.505 82.5791 143.438C82.5791 143.438 81.0795 139.215 82.5791 138.709C84.0774 138.657 85.5776 138.709 87.0687 138.865C88.0977 139.008 89.0537 139.477 89.7958 140.205C90.5378 140.932 91.0267 141.878 91.1903 142.904C92.1379 147.495 84.3363 145.664 84.3363 145.664Z" fill="#FFB573"/>
<path opacity="0.2" d="M147.356 163.797L152.508 187.643L156.667 164.744L147.356 163.797Z" fill="black"/>
<path d="M158.157 164.855C158.93 166.925 159.657 169.004 160.356 171.102C161.055 173.199 161.727 175.297 162.38 177.404C163.033 179.511 163.659 181.636 164.284 183.761C164.852 185.348 165.13 187.025 165.103 188.711C165.065 189.648 164.904 190.575 164.625 191.471C164.415 192.16 164.163 192.836 163.87 193.495L163.686 193.918C161.607 197.494 159.494 201.048 157.348 204.581C156.271 206.347 155.222 208.132 154.109 209.889C152.996 211.646 151.929 213.403 150.797 215.142C150.442 215.708 149.889 216.121 149.245 216.3C148.602 216.479 147.914 216.41 147.319 216.108C146.723 215.806 146.261 215.293 146.025 214.668C145.788 214.043 145.794 213.353 146.041 212.732C146.768 210.791 147.55 208.877 148.313 206.945C149.077 205.013 149.886 203.118 150.668 201.204C152.238 197.377 153.852 193.568 155.508 189.778L155.305 190.229C155.427 189.859 155.519 189.481 155.581 189.097C155.629 188.925 155.629 188.744 155.581 188.573L155.425 188.159L154.983 187.082C154.164 185.012 153.355 182.942 152.573 180.854C151.791 178.765 151.027 176.686 150.291 174.589C149.555 172.491 148.847 170.375 148.175 168.259C147.72 166.932 147.811 165.478 148.428 164.218C149.045 162.957 150.137 161.993 151.464 161.538C152.791 161.083 154.245 161.174 155.506 161.791C156.766 162.408 157.73 163.5 158.185 164.827L158.157 164.855Z" fill="#FFB573"/>
<path d="M146.786 211.996L143.106 216.596C143.106 216.596 146.197 221.398 148.249 220.708C150.3 220.018 151.009 214.535 151.009 214.535L146.786 211.996Z" fill="#FFB573"/>
<path d="M150.015 157.026C150.015 157.026 143.271 158.13 148.423 171.507C152.435 181.94 152.738 180.44 152.738 180.44L162.858 174.515C162.858 174.515 159.16 156.511 150.015 157.026Z" fill="#004EFF"/>
<path d="M368 104.448H322.589C321.989 104.448 321.413 104.686 320.989 105.111C320.564 105.535 320.326 106.111 320.326 106.711V119.306C320.328 119.905 320.567 120.479 320.991 120.903C321.415 121.327 321.989 121.567 322.589 121.569H329.434L329.71 126.243C329.864 126.512 330.085 126.738 330.351 126.899C330.616 127.06 330.919 127.151 331.229 127.164C331.539 127.177 331.848 127.111 332.126 126.973C332.404 126.834 332.643 126.627 332.819 126.371L335.736 121.569H367.936C368.535 121.567 369.109 121.327 369.533 120.903C369.957 120.479 370.196 119.905 370.199 119.306V106.72C370.199 106.13 369.97 105.563 369.56 105.139C369.149 104.715 368.59 104.467 368 104.448Z" fill="#004EFF"/>
<g opacity="0.7">
<path d="M368 104.448H322.589C321.989 104.448 321.413 104.686 320.989 105.111C320.564 105.535 320.326 106.111 320.326 106.711V119.306C320.328 119.905 320.567 120.479 320.991 120.903C321.415 121.327 321.989 121.567 322.589 121.569H329.434L329.71 126.243C329.864 126.512 330.085 126.738 330.351 126.899C330.616 127.06 330.919 127.151 331.229 127.164C331.539 127.177 331.848 127.111 332.126 126.973C332.404 126.834 332.643 126.627 332.819 126.371L335.736 121.569H367.936C368.535 121.567 369.109 121.327 369.533 120.903C369.957 120.479 370.196 119.905 370.199 119.306V106.72C370.199 106.13 369.97 105.563 369.56 105.139C369.149 104.715 368.59 104.467 368 104.448Z" fill="white"/>
</g>
<path d="M329.48 116.923L330.556 114.743L332.976 114.384L331.228 112.682L331.642 110.281L329.48 111.422L327.327 110.281L327.732 112.682L325.993 114.384L328.403 114.743L329.48 116.923Z" fill="#004EFF"/>
<path d="M337.594 116.923L338.671 114.743L341.081 114.384L339.342 112.682L339.747 110.281L337.594 111.422L335.432 110.281L335.846 112.682L334.098 114.384L336.518 114.743L337.594 116.923Z" fill="#004EFF"/>
<path d="M345.708 116.923L346.785 114.743L349.195 114.384L347.447 112.682L347.861 110.281L345.708 111.422L343.546 110.281L343.96 112.682L342.212 114.384L344.623 114.743L345.708 116.923Z" fill="#263238"/>
<path d="M353.814 116.923L354.899 114.743L357.31 114.384L355.562 112.682L355.976 110.281L353.814 111.422L351.661 110.281L352.075 112.682L350.327 114.384L352.737 114.743L353.814 116.923Z" fill="#263238"/>
<path d="M361.928 116.923L363.004 114.743L365.424 114.384L363.676 112.682L364.09 110.281L361.928 111.422L359.775 110.281L360.18 112.682L358.441 114.384L360.852 114.743L361.928 116.923Z" fill="#263238"/>
<path d="M206.181 116.518H251.537C252.139 116.52 252.716 116.761 253.141 117.186C253.567 117.612 253.807 118.189 253.81 118.79V131.385C253.807 131.986 253.567 132.562 253.141 132.986C252.715 133.41 252.138 133.648 251.537 133.648H244.72L244.453 138.322C244.298 138.591 244.076 138.816 243.81 138.976C243.544 139.137 243.242 139.227 242.931 139.239C242.621 139.251 242.312 139.184 242.035 139.045C241.757 138.905 241.519 138.698 241.344 138.442L238.418 133.648H206.218C205.617 133.648 205.04 133.41 204.614 132.986C204.188 132.562 203.948 131.986 203.946 131.385V118.79C203.948 118.195 204.183 117.624 204.601 117.199C205.018 116.774 205.586 116.53 206.181 116.518Z" fill="#004EFF"/>
<g opacity="0.7">
<path d="M206.181 116.518H251.537C252.139 116.52 252.716 116.761 253.141 117.186C253.567 117.612 253.807 118.189 253.81 118.79V131.385C253.807 131.986 253.567 132.562 253.141 132.986C252.715 133.41 252.138 133.648 251.537 133.648H244.72L244.453 138.322C244.298 138.591 244.076 138.816 243.81 138.976C243.544 139.137 243.242 139.227 242.931 139.239C242.621 139.251 242.312 139.184 242.035 139.045C241.757 138.905 241.519 138.698 241.344 138.442L238.418 133.648H206.218C205.617 133.648 205.04 133.41 204.614 132.986C204.188 132.562 203.948 131.986 203.946 131.385V118.79C203.948 118.195 204.183 117.624 204.601 117.199C205.018 116.774 205.586 116.53 206.181 116.518Z" fill="white"/>
</g>
<path d="M212.814 121.615L213.891 123.795L216.31 124.145L214.562 125.847L214.967 128.248L212.814 127.116L210.652 128.248L211.066 125.847L209.318 124.145L211.738 123.795L212.814 121.615Z" fill="#004EFF"/>
<path d="M220.929 121.615L222.005 123.795L224.416 124.145L222.668 125.847L223.082 128.248L220.929 127.116L218.767 128.248L219.181 125.847L217.433 124.145L219.843 123.795L220.929 121.615Z" fill="#004EFF"/>
<path d="M229.034 121.615L230.12 123.795L232.53 124.145L230.782 125.847L231.196 128.248L229.034 127.116L226.881 128.248L227.295 125.847L225.547 124.145L227.958 123.795L229.034 121.615Z" fill="#004EFF"/>
<path d="M237.148 121.615L238.225 123.795L240.644 124.145L238.896 125.847L239.31 128.248L237.148 127.116L234.996 128.248L235.4 125.847L233.662 124.145L236.072 123.795L237.148 121.615Z" fill="#263238"/>
<path d="M245.263 121.615L246.339 123.795L248.75 124.145L247.011 125.847L247.425 128.248L245.263 127.116L243.101 128.248L243.515 125.847L241.767 124.145L244.186 123.795L245.263 121.615Z" fill="#263238"/>
<path d="M221.149 291.355H266.515C267.114 291.352 267.688 291.113 268.112 290.689C268.536 290.265 268.775 289.691 268.778 289.092V276.497C268.778 275.897 268.539 275.321 268.115 274.896C267.691 274.472 267.115 274.234 266.515 274.234H259.67L259.44 269.56C259.284 269.291 259.063 269.066 258.797 268.906C258.531 268.745 258.228 268.655 257.918 268.643C257.608 268.631 257.299 268.698 257.022 268.837C256.744 268.977 256.506 269.184 256.33 269.44L253.414 274.243H221.214C220.614 274.243 220.038 274.481 219.614 274.906C219.189 275.33 218.951 275.906 218.951 276.506V289.101C218.955 289.688 219.187 290.25 219.596 290.67C220.006 291.091 220.563 291.336 221.149 291.355Z" fill="#004EFF"/>
<g opacity="0.7">
<path d="M221.149 291.355H266.515C267.114 291.352 267.688 291.113 268.112 290.689C268.536 290.265 268.775 289.691 268.778 289.092V276.497C268.778 275.897 268.539 275.321 268.115 274.896C267.691 274.472 267.115 274.234 266.515 274.234H259.67L259.44 269.56C259.284 269.291 259.063 269.066 258.797 268.906C258.531 268.745 258.228 268.655 257.918 268.643C257.608 268.631 257.299 268.698 257.022 268.837C256.744 268.977 256.506 269.184 256.33 269.44L253.414 274.243H221.214C220.614 274.243 220.038 274.481 219.614 274.906C219.189 275.33 218.951 275.906 218.951 276.506V289.101C218.955 289.688 219.187 290.25 219.596 290.67C220.006 291.091 220.563 291.336 221.149 291.355Z" fill="white"/>
</g>
<path d="M228.031 278.871L229.117 281.06L231.527 281.41L229.779 283.112L230.193 285.513L228.031 284.381L225.878 285.513L226.292 283.112L224.544 281.41L226.955 281.06L228.031 278.871Z" fill="#004EFF"/>
<path d="M236.145 278.871L237.222 281.06L239.641 281.41L237.893 283.112L238.307 285.513L236.145 284.381L233.993 285.513L234.397 283.112L232.649 281.41L235.069 281.06L236.145 278.871Z" fill="#004EFF"/>
<path d="M244.26 278.871L245.336 281.06L247.747 281.41L246.008 283.112L246.413 285.513L244.26 284.381L242.098 285.513L242.512 283.112L240.764 281.41L243.174 281.06L244.26 278.871Z" fill="#004EFF"/>
<path d="M252.374 278.871L253.451 281.06L255.861 281.41L254.113 283.112L254.527 285.513L252.374 284.381L250.212 285.513L250.626 283.112L248.878 281.41L251.289 281.06L252.374 278.871Z" fill="#004EFF"/>
<path d="M260.479 278.871L261.565 281.06L263.975 281.41L262.227 283.112L262.641 285.513L260.479 284.381L258.327 285.513L258.741 283.112L256.993 281.41L259.403 281.06L260.479 278.871Z" fill="#263238"/>
<path d="M95.5053 97.207H142.113C142.714 97.207 143.29 97.4452 143.716 97.8693C144.142 98.2935 144.382 98.8691 144.385 99.4702V112.065C144.382 112.666 144.142 113.242 143.716 113.666C143.29 114.09 142.714 114.328 142.113 114.328H125.792L122.958 119.002C122.803 119.271 122.583 119.497 122.317 119.658C122.051 119.819 121.749 119.911 121.439 119.924C121.128 119.936 120.82 119.871 120.542 119.732C120.264 119.593 120.025 119.386 119.849 119.131L116.923 114.328H95.4961C94.8966 114.326 94.3224 114.087 93.8985 113.663C93.4746 113.239 93.2353 112.665 93.2329 112.065V99.4702C93.2353 98.8691 93.4758 98.2935 93.9017 97.8693C94.3276 97.4452 94.9042 97.207 95.5053 97.207Z" fill="#004EFF"/>
<g opacity="0.7">
<path d="M95.5053 97.207H142.113C142.714 97.207 143.29 97.4452 143.716 97.8693C144.142 98.2935 144.382 98.8691 144.385 99.4702V112.065C144.382 112.666 144.142 113.242 143.716 113.666C143.29 114.09 142.714 114.328 142.113 114.328H125.792L122.958 119.002C122.803 119.271 122.583 119.497 122.317 119.658C122.051 119.819 121.749 119.911 121.439 119.924C121.128 119.936 120.82 119.871 120.542 119.732C120.264 119.593 120.025 119.386 119.849 119.131L116.923 114.328H95.4961C94.8966 114.326 94.3224 114.087 93.8985 113.663C93.4746 113.239 93.2353 112.665 93.2329 112.065V99.4702C93.2353 98.8691 93.4758 98.2935 93.9017 97.8693C94.3276 97.4452 94.9042 97.207 95.5053 97.207Z" fill="white"/>
</g>
<path d="M103.252 102L104.337 104.18L106.748 104.539L105 106.232L105.414 108.642L103.252 107.502L101.099 108.642L101.513 106.232L99.7649 104.539L102.175 104.18L103.252 102Z" fill="#004EFF"/>
<path d="M111.366 102L112.443 104.18L114.862 104.539L113.114 106.232L113.528 108.642L111.366 107.502L109.213 108.642L109.618 106.232L107.879 104.539L110.29 104.18L111.366 102Z" fill="#004EFF"/>
<path d="M119.481 102L120.557 104.18L122.967 104.539L121.229 106.232L121.643 108.642L119.481 107.502L117.319 108.642L117.733 106.232L115.985 104.539L118.404 104.18L119.481 102Z" fill="#004EFF"/>
<path d="M127.595 102L128.671 104.18L131.082 104.539L129.343 106.232L129.748 108.642L127.595 107.502L125.433 108.642L125.847 106.232L124.099 104.539L126.509 104.18L127.595 102Z" fill="#004EFF"/>
<path d="M135.7 102L136.786 104.18L139.196 104.539L137.448 106.232L137.862 108.642L135.7 107.502L133.547 108.642L133.961 106.232L132.213 104.539L134.624 104.18L135.7 102Z" fill="#004EFF"/>
</svg>
