<svg width="400" height="400" viewBox="0 0 400 400" fill="none" xmlns="http://www.w3.org/2000/svg">
<path d="M323.528 107.76C322.723 113.178 320.38 118.251 316.777 122.376C313.173 126.501 308.461 129.504 303.2 131.029C297.94 132.554 292.352 132.536 287.101 130.978C281.85 129.42 277.157 126.386 273.58 122.239C270.003 118.091 267.692 113.003 266.922 107.58C266.152 102.157 266.955 96.6275 269.236 91.648C271.518 86.6684 275.181 82.4486 279.791 79.4903C284.4 76.532 289.762 74.9596 295.24 74.96V103.552L323.528 107.76Z" fill="#EBEBEB"/>
<path d="M329.655 97.744C329.657 99.1498 329.553 100.554 329.343 101.944L301.063 97.744V69.152C304.819 69.1488 308.539 69.8862 312.009 71.322C315.479 72.7578 318.632 74.8637 321.288 77.5193C323.944 80.175 326.05 83.3282 327.485 86.7986C328.921 90.2689 329.659 93.9883 329.655 97.744Z" fill="#DBDBDB"/>
<path d="M328.744 113.72H298.336V114.52H328.744V113.72Z" fill="#C7C7C7"/>
<path d="M330.88 116.656C330.378 116.658 329.887 116.51 329.469 116.232C329.051 115.955 328.724 115.559 328.531 115.096C328.338 114.633 328.287 114.123 328.384 113.63C328.481 113.138 328.722 112.685 329.076 112.33C329.43 111.974 329.882 111.732 330.374 111.633C330.866 111.535 331.377 111.585 331.841 111.776C332.304 111.968 332.701 112.293 332.98 112.71C333.259 113.127 333.408 113.618 333.408 114.12C333.409 114.453 333.344 114.782 333.218 115.09C333.091 115.397 332.905 115.677 332.67 115.913C332.435 116.148 332.156 116.335 331.849 116.463C331.542 116.59 331.213 116.656 330.88 116.656ZM330.88 112.392C330.536 112.39 330.199 112.491 329.912 112.681C329.626 112.871 329.402 113.142 329.27 113.46C329.137 113.777 329.102 114.127 329.169 114.465C329.236 114.802 329.401 115.112 329.644 115.355C329.888 115.599 330.198 115.764 330.535 115.831C330.873 115.898 331.222 115.863 331.54 115.73C331.858 115.598 332.129 115.374 332.319 115.087C332.509 114.801 332.61 114.464 332.608 114.12C332.608 113.662 332.426 113.222 332.102 112.898C331.778 112.574 331.338 112.392 330.88 112.392Z" fill="#C7C7C7"/>
<path d="M362.231 112.52H338.607V113.584H362.231V112.52Z" fill="#C7C7C7"/>
<path d="M351.975 114.656H338.607V115.72H351.975V114.656Z" fill="#C7C7C7"/>
<path d="M51.3516 168.608H43.8076V222.288H51.3516V168.608Z" fill="#EBEBEB"/>
<path d="M64.3194 181.608H56.7754V222.296H64.3194V181.608Z" fill="#EBEBEB"/>
<path d="M77.2872 201.944H69.7432V222.288H77.2872V201.944Z" fill="#EBEBEB"/>
<path d="M90.2471 190.328H82.7031V222.288H90.2471V190.328Z" fill="#EBEBEB"/>
<path d="M103.216 178.128H95.6719V222.296H103.216V178.128Z" fill="#EBEBEB"/>
<path d="M116.184 170.952H108.64V222.296H116.184V170.952Z" fill="#EBEBEB"/>
<path d="M39.432 161.784L39.52 176.912L39.568 192.04L39.624 222.288L39.432 222.104C46.3654 222.104 53.2987 222.104 60.232 222.104L81.0321 222.144L101.832 222.184L122.632 222.296L101.832 222.408L81.0321 222.456L60.232 222.496C53.2987 222.496 46.3654 222.496 39.432 222.496H39.248V222.304L39.304 192.056V176.928L39.432 161.784Z" fill="#EBEBEB"/>
<path d="M37.7676 164.8C38.3089 164.649 38.8697 164.579 39.4316 164.592C39.9935 164.577 40.5545 164.648 41.0956 164.8C40.554 164.951 39.9937 165.024 39.4316 165.016C38.8695 165.022 38.3093 164.95 37.7676 164.8Z" fill="#EBEBEB"/>
<path d="M37.7676 169.416C38.3093 169.266 38.8695 169.193 39.4316 169.2C39.9937 169.192 40.554 169.265 41.0956 169.416C40.554 169.567 39.9937 169.64 39.4316 169.632C38.8695 169.639 38.3093 169.566 37.7676 169.416Z" fill="#EBEBEB"/>
<path d="M37.7676 174.016C38.3093 173.866 38.8695 173.793 39.4316 173.8C39.9937 173.792 40.554 173.865 41.0956 174.016C40.554 174.167 39.9937 174.24 39.4316 174.232C38.8695 174.238 38.3093 174.166 37.7676 174.016Z" fill="#EBEBEB"/>
<path d="M37.7676 178.616C38.3093 178.466 38.8695 178.393 39.4316 178.4C39.9937 178.392 40.554 178.465 41.0956 178.616C40.5545 178.768 39.9935 178.839 39.4316 178.824C38.8697 178.837 38.3089 178.767 37.7676 178.616Z" fill="#EBEBEB"/>
<path d="M37.7676 183.2C38.3093 183.05 38.8695 182.977 39.4316 182.984C39.9939 182.972 40.5549 183.045 41.0956 183.2C40.5537 183.348 39.9933 183.418 39.4316 183.408C38.8699 183.417 38.3097 183.347 37.7676 183.2Z" fill="#EBEBEB"/>
<path d="M37.7676 187.808C38.3089 187.657 38.8697 187.587 39.4316 187.6C39.9935 187.585 40.5545 187.656 41.0956 187.808C40.554 187.959 39.9937 188.032 39.4316 188.024C38.8695 188.031 38.3093 187.958 37.7676 187.808Z" fill="#EBEBEB"/>
<path d="M37.7676 192.408C38.3093 192.258 38.8695 192.185 39.4316 192.192C39.9937 192.184 40.554 192.257 41.0956 192.408C40.554 192.559 39.9937 192.632 39.4316 192.624C38.8695 192.63 38.3093 192.558 37.7676 192.408Z" fill="#EBEBEB"/>
<path d="M37.7676 197.008C38.3093 196.858 38.8695 196.786 39.4316 196.792C39.9937 196.784 40.554 196.857 41.0956 197.008C40.554 197.159 39.9937 197.232 39.4316 197.224C38.8695 197.231 38.3093 197.158 37.7676 197.008Z" fill="#EBEBEB"/>
<path d="M37.7676 201.6C38.3093 201.45 38.8695 201.377 39.4316 201.384C39.9937 201.376 40.554 201.449 41.0956 201.6C40.5545 201.752 39.9935 201.823 39.4316 201.808C38.8697 201.821 38.3089 201.751 37.7676 201.6Z" fill="#EBEBEB"/>
<path d="M37.7676 206.208C38.3093 206.058 38.8695 205.985 39.4316 205.992C39.9939 205.98 40.5549 206.053 41.0956 206.208C40.5545 206.36 39.9935 206.431 39.4316 206.416C38.8699 206.425 38.3097 206.355 37.7676 206.208Z" fill="#EBEBEB"/>
<path d="M37.7676 210.8C38.3097 210.653 38.8699 210.583 39.4316 210.592C39.9935 210.577 40.5545 210.648 41.0956 210.8C40.5549 210.955 39.9939 211.028 39.4316 211.016C38.8695 211.022 38.3093 210.95 37.7676 210.8Z" fill="#EBEBEB"/>
<path d="M37.7676 215.4C38.3093 215.25 38.8695 215.178 39.4316 215.184C39.9937 215.176 40.554 215.249 41.0956 215.4C40.554 215.551 39.9937 215.624 39.4316 215.616C38.8695 215.623 38.3093 215.55 37.7676 215.4Z" fill="#EBEBEB"/>
<path d="M76.3116 253.208H32.5596V347.512H76.3116V253.208Z" fill="#004EFF"/>
<path opacity="0.7" d="M76.3116 253.208H32.5596V347.512H76.3116V253.208Z" fill="white"/>
<path opacity="0.5" d="M76.3117 253.208H63.3438V347.512H76.3117V253.208Z" fill="white"/>
<path d="M134.527 181.72H90.7832V347.512H134.527V181.72Z" fill="#004EFF"/>
<path opacity="0.7" d="M134.527 181.72H90.7832V347.512H134.527V181.72Z" fill="white"/>
<path opacity="0.5" d="M134.535 181.72H121.567V347.512H134.535V181.72Z" fill="white"/>
<path d="M192.768 235.6H149.016V347.512H192.768V235.6Z" fill="#004EFF"/>
<path opacity="0.7" d="M192.768 235.6H149.016V347.512H192.768V235.6Z" fill="white"/>
<path opacity="0.5" d="M192.768 235.6H179.8V347.512H192.768V235.6Z" fill="white"/>
<path d="M250.991 144.176H207.239V347.504H250.991V144.176Z" fill="#004EFF"/>
<path opacity="0.7" d="M250.991 144.176H207.239V347.504H250.991V144.176Z" fill="white"/>
<path opacity="0.5" d="M250.991 144.176H238.023V347.504H250.991V144.176Z" fill="white"/>
<path d="M309.208 176.888H265.464V347.512H309.208V176.888Z" fill="#004EFF"/>
<path opacity="0.7" d="M309.208 176.888H265.464V347.512H309.208V176.888Z" fill="white"/>
<path opacity="0.5" d="M309.216 176.888H296.248V347.512H309.216V176.888Z" fill="white"/>
<path d="M367.447 115.2H323.695V347.512H367.447V115.2Z" fill="#004EFF"/>
<path opacity="0.7" d="M367.447 115.2H323.695V347.512H367.447V115.2Z" fill="white"/>
<path opacity="0.5" d="M367.447 115.2H354.479V347.512H367.447V115.2Z" fill="white"/>
<path d="M95.1836 154.408H117.816L165.496 229.656H142.856L95.1836 154.408Z" fill="#004EFF"/>
<path opacity="0.1" d="M95.1836 154.408H117.816L165.496 229.656H142.856L95.1836 154.408Z" fill="black"/>
<path d="M217.407 111.984H240.047L287.719 187.24H265.087L217.407 111.984Z" fill="#004EFF"/>
<path opacity="0.1" d="M217.407 111.984H240.047L287.719 187.24H265.087L217.407 111.984Z" fill="black"/>
<path d="M117.792 154.408H95.1516L32.5596 253.208H55.1916L117.792 154.408Z" fill="#004EFF"/>
<path d="M240.088 111.984H217.448L142.896 229.656H165.528L240.088 111.984Z" fill="#004EFF"/>
<path d="M362.16 69.5599H339.528L264.976 187.24H287.608L362.16 69.5599Z" fill="#004EFF"/>
<path d="M334.271 69.56H367.511L358.983 53.84L334.271 69.56Z" fill="#004EFF"/>
<path d="M367.512 347.512L325.64 347.704L283.76 347.776L200 347.904L116.24 347.776L74.3605 347.704L32.4805 347.512L74.3605 347.312L116.24 347.24L200 347.112L283.76 347.248L325.64 347.312L367.512 347.512Z" fill="#263238"/>
<path d="M45.424 40.48H44.624V77.464H45.424V40.48Z" fill="#263238"/>
<path d="M45.0246 40.88C44.4322 40.8831 43.8521 40.7103 43.358 40.3835C42.8639 40.0567 42.4779 39.5905 42.249 39.0441C42.0201 38.4976 41.9585 37.8956 42.0722 37.3141C42.1858 36.7327 42.4695 36.1981 42.8873 35.778C43.3051 35.358 43.8382 35.0714 44.419 34.9547C44.9998 34.8379 45.6022 34.8962 46.1499 35.1222C46.6975 35.3482 47.1658 35.7317 47.4952 36.224C47.8247 36.7164 48.0006 37.2955 48.0006 37.888C47.9985 38.6781 47.6848 39.4355 47.1276 39.9957C46.5704 40.5559 45.8147 40.8736 45.0246 40.88ZM45.0246 35.696C44.5904 35.6928 44.165 35.8186 43.8025 36.0576C43.4399 36.2965 43.1565 36.6377 42.9881 37.038C42.8197 37.4382 42.774 37.8794 42.8568 38.3057C42.9396 38.732 43.1471 39.124 43.453 39.4322C43.7589 39.7403 44.1494 39.9507 44.575 40.0366C45.0007 40.1225 45.4422 40.08 45.8437 39.9146C46.2452 39.7492 46.5885 39.4682 46.83 39.1074C47.0716 38.7466 47.2006 38.3222 47.2006 37.888C47.2006 37.3094 46.9719 36.7542 46.5642 36.3436C46.1566 35.933 45.6032 35.7002 45.0246 35.696Z" fill="#263238"/>
<path d="M81.6089 35.2959H52.8809V36.5919H81.6089V35.2959Z" fill="#263238"/>
<path d="M69.1449 37.8879H52.8809V39.1839H69.1449V37.8879Z" fill="#263238"/>
<path d="M155.432 45.272H149.248V51.456H155.432V45.272Z" fill="#004EFF"/>
<path d="M188.104 45.272H159.376V46.568H188.104V45.272Z" fill="#263238"/>
<path d="M175.64 47.864H159.376V49.16H175.64V47.864Z" fill="#263238"/>
<path d="M155.432 57.88H149.248V64.064H155.432V57.88Z" fill="#37474F"/>
<path d="M188.104 57.88H159.376V59.176H188.104V57.88Z" fill="#263238"/>
<path d="M175.64 60.4719H159.376V61.7679H175.64V60.4719Z" fill="#263238"/>
<path d="M155.432 70.496H149.248V76.68H155.432V70.496Z" fill="#C7C7C7"/>
<path d="M188.104 70.496H159.376V71.792H188.104V70.496Z" fill="#263238"/>
<path d="M175.64 73.088H159.376V74.384H175.64V73.088Z" fill="#263238"/>
<path d="M155.432 83.104H149.248V89.288H155.432V83.104Z" fill="#455A64"/>
<path d="M188.104 83.104H159.376V84.4H188.104V83.104Z" fill="#263238"/>
<path d="M175.64 85.6959H159.376V86.9919H175.64V85.6959Z" fill="#263238"/>
<path d="M34.7924 99.616H34.9124H35.0244L37.2564 98.816H37.3924L38.6644 98.368L38.8164 98.32L40.8404 97.616L41.0004 97.552L42.2404 97.12L42.4244 97.064L44.7524 96.264L44.9444 96.2L46.3444 95.712L46.5604 95.64L48.3044 95.032L48.5364 94.952L50.0644 94.416L50.3124 94.336L52.4244 93.6L52.6404 93.52L54.2404 92.96L54.4484 92.888L55.9924 92.352L56.1764 92.288L57.9364 91.672L58.1044 91.608L59.6324 91.08L59.7844 91.032L61.9284 90.28L62.0884 90.232L64.3444 89.432L64.4644 89.384L66.1924 88.784H66.3044L68.5444 87.984H68.6404L70.5284 87.328H70.6164L72.5924 86.64L70.7124 86.032H70.6324L68.4564 85.336H68.3604L66.4964 84.736H66.3924L63.9924 83.936H63.8564L62.2564 83.424L62.1124 83.376L58.6164 82.248L58.4404 82.192L57.6004 81.6L57.4164 81.544L54.0004 80.44L53.7924 80.376L53.0404 80.136L52.8164 80.072L49.3124 78.96L49.0404 78.88L48.2404 78.624L47.9844 78.544L44.2964 77.352L44.0244 77.272L43.6004 77.136L43.3444 77.048L39.2804 75.744L39.0404 75.664L38.6724 75.544L38.4564 75.48L34.4004 74.168C34.4004 74.28 34.3284 74.392 34.2964 74.512C34.2964 74.608 34.2324 74.704 34.2084 74.8V74.88C34.1684 74.992 34.1364 75.112 34.1044 75.224C33.3029 78.0971 32.8068 81.0467 32.6244 84.024V84.384C32.5484 85.7456 32.5484 87.1104 32.6244 88.472C32.6244 88.736 32.6244 88.992 32.6724 89.272C32.9534 92.7937 33.6654 96.2676 34.7924 99.616Z" fill="#C7C7C7"/>
<path d="M70.7208 85.84L70.6248 87.136H70.5368L70.6408 85.784L70.7208 85.84ZM68.3688 85.088L68.5528 87.856H68.6488L68.4648 85.152L68.3688 85.088ZM66.2008 88.68H66.3128L66.5048 84.528H66.4008L66.2008 88.68ZM63.8888 83.648L64.3528 89.328L64.4728 89.28L64.0248 83.68L63.8888 83.648ZM61.9368 90.16L62.0968 90.112L62.2968 83.136L62.1528 83.088L61.9368 90.16ZM58.6568 81.96L58.4808 81.904L59.0728 86.512L59.6408 90.96L59.7928 90.912L59.2008 86.488L58.6568 81.96ZM57.9448 91.56L58.1128 91.496L57.6008 81.6L57.4168 81.544L57.9448 91.56ZM54.0088 80.472L53.8008 80.408L56.0008 92.232L56.1848 92.168L54.0088 80.472ZM52.8008 80.088L54.2248 92.84L54.4328 92.768L53.0248 80.152L52.8008 80.088ZM49.2888 78.952L49.0168 78.872L52.4008 93.48L52.6168 93.4L49.2888 79V78.952ZM48.0008 78.536L50.0648 94.296L50.3128 94.216L48.2568 78.616L48.0008 78.536ZM44.0008 77.264L48.2648 94.912L48.4968 94.832L44.3128 77.344L44.0008 77.264ZM43.3208 77.04L46.3048 95.592L46.5208 95.52L43.5768 77.12L43.3208 77.04ZM39.0168 75.656L44.7128 96.144L44.9048 96.08L39.2968 75.736L39.0168 75.656ZM38.4328 75.472L42.2008 97.016L42.3848 96.96L38.6888 75.536L38.4328 75.472ZM34.2008 74.808L40.8008 97.512L40.9608 97.448L34.3288 74.512C34.3288 74.608 34.2648 74.704 34.2408 74.8L34.2008 74.808ZM34.0728 75.24L38.6248 98.264L38.7768 98.216L34.2168 74.896C34.1768 75.008 34.1448 75.128 34.1128 75.24H34.0728ZM32.6088 84.4L37.2568 98.752H37.3928L32.5928 84.08V84.44L32.6088 84.4ZM32.6728 89.272L34.9128 99.56H35.0248L32.6248 88.512C32.6328 88.752 32.6488 89.008 32.6728 89.272Z" fill="#DBDBDB"/>
<path d="M34.792 99.616L38 99.272L75.8 86.104L72.6 86.448L34.792 99.616Z" fill="#A6A6A6"/>
<path d="M72.6008 86.448L75.8008 86.104L37.6328 73.824L34.4248 74.168L72.6008 86.448Z" fill="#A6A6A6"/>
<path d="M93.7445 45.288L94.0085 86.472L55.3525 73.992C60.8005 56.656 75.8165 45.408 93.7445 45.288Z" fill="#37474F"/>
<path d="M92.6887 45.304L93.7447 47.096V47.336L92.5447 45.312L92.6887 45.304ZM91.1927 45.384L93.7767 51.128V50.808L91.3767 45.368L91.1927 45.384ZM86.7047 45.92L93.8167 57.6V57.28L86.8727 45.896L86.7047 45.92ZM85.7447 46.104L93.8567 63.44V63.032L85.9047 46.08C85.8508 46.0834 85.7973 46.0915 85.7447 46.104ZM88.4647 60.296L93.8887 68.296V68L88.6407 60.232L82.2887 50.8L80.1607 47.656C80.095 47.6751 80.0308 47.6992 79.9687 47.728L82.1207 50.928L88.4647 60.296ZM79.4887 47.904L93.8887 73.168V72.72L79.6807 47.824L79.4887 47.904ZM74.6247 50.128L93.9287 75.44V75.056L74.8407 50.008L74.6247 50.128ZM74.1847 50.368L93.9687 80.656V80.176L74.4007 50.248C74.3352 50.3073 74.2626 50.3583 74.1847 50.4V50.368ZM69.9927 53.08L93.9927 81.88V81.456L70.2327 52.912L69.9927 53.08ZM69.5047 53.456L91.4327 85.64L91.9047 85.792L69.7367 53.28C69.6542 53.3314 69.5765 53.3904 69.5047 53.456ZM65.8887 56.576L90.2647 85.264L90.8167 85.44L66.0967 56.376C66.0313 56.4466 65.9619 56.5134 65.8887 56.576ZM65.4967 56.976L84.6967 83.464L85.1207 83.6L65.6967 56.8L65.4967 56.976ZM62.3527 60.536L82.6007 82.784L83.0967 82.952L62.5047 60.344L62.3527 60.536ZM61.8567 61.192L76.4887 80.8L76.8567 80.92L62.0087 60.992C61.9527 61.056 61.9047 61.128 61.8567 61.192ZM59.3527 64.952L73.1287 79.728L73.5367 79.864L59.4567 64.8C59.4184 64.848 59.3836 64.8988 59.3527 64.952ZM58.9767 65.6L68.9607 78.4L69.2647 78.496L59.0727 65.424C59.0373 65.4807 59.0053 65.5395 58.9767 65.6ZM56.8807 69.848L63.6327 76.672L64.0007 76.8L56.9687 69.704C56.9364 69.75 56.907 69.7981 56.8807 69.848ZM56.5127 70.728L60.5127 75.664L60.7687 75.752L56.5607 70.568C56.5414 70.6202 56.5253 70.6737 56.5127 70.728Z" fill="#263238"/>
<path d="M94.0079 86.4719L132.664 98.9439C130.135 107.184 125.052 114.407 118.15 119.569C111.248 124.732 102.883 127.567 94.2639 127.664C90.0032 127.686 85.7662 127.03 81.7119 125.72C68.9119 121.584 59.7359 112.4 55.5039 99.4479L94.0079 86.4719Z" fill="#004EFF"/>
<path d="M132.665 98.944H135.865C133.336 107.183 128.253 114.405 121.35 119.566C114.447 124.727 106.083 127.56 97.4646 127.656H94.2646C102.883 127.559 111.247 124.726 118.149 119.565C125.051 114.404 130.134 107.183 132.665 98.944Z" fill="#004EFF"/>
<g opacity="0.1">
<path d="M132.665 98.944H135.865C133.336 107.183 128.253 114.405 121.35 119.566C114.447 124.727 106.083 127.56 97.4646 127.656H94.2646C102.883 127.559 111.247 124.726 118.149 119.565C125.051 114.404 130.134 107.183 132.665 98.944Z" fill="black"/>
</g>
<path opacity="0.1" d="M130.92 98.4L131.36 102.528C131.363 102.544 131.363 102.56 131.36 102.576L130.912 98.392L130.92 98.4ZM126.488 96.968L129.736 105.984L126.536 97.016L126.488 96.968ZM124.888 96.464L126.856 110.6V110.544L124.888 96.48V96.464ZM122.096 95.56L126.224 111.472V111.416L122.12 95.592L122.096 95.56ZM121.008 95.216L123.2 115.056L123.264 114.984L121.12 95.2L121.008 95.216ZM117.712 94.152L122.512 115.752L122.584 115.68L117.784 94.2L117.712 94.152ZM116.912 93.888L118.856 119L118.96 118.928L117.016 93.92L116.912 93.888ZM113.896 92.92L113.76 92.872L118.272 119.456L118.376 119.376L113.896 92.92ZM112.704 92.536L113.048 122.832L113.184 122.752L112.84 92.576L112.704 92.536ZM109.256 91.424L109.08 91.36L112.6 123.064L112.744 122.992L109.256 91.424ZM108.024 125.12L108.216 125.048L108.48 91.176L108.32 91.112L108.024 125.12ZM105.064 90.072L104.864 90L107.68 125.248L107.856 125.184L105.064 90.072ZM103.2 126.592C103.276 126.581 103.35 126.565 103.424 126.544L104.544 89.856L104.336 89.792L103.2 126.592ZM100.44 88.536L100.192 88.456L102.792 126.688L103.016 126.64L100.44 88.536ZM96.536 87.272L96.248 87.184L97.608 127.504H97.872H98.136L99.848 88.392L99.6 88.312L97.872 127.456L96.536 87.272ZM91.736 87.272L91.472 87.352L92.424 127.64H92.672H92.952L95.912 87.056L95.624 86.968L92.696 127.376L91.736 87.272ZM87.312 127.096L87.544 127.136L91.224 87.44L90.96 87.528L87.312 127.096ZM87.84 88.584L87.088 127.056H87.312L88.056 88.472L87.84 88.584ZM81.712 125.712H81.776H81.896L87.584 88.608L87.352 88.688L81.712 125.712ZM81.6 124L81.472 125.664L81.664 125.728L81.792 124.008L82.208 118.6L83.008 107.776L84.376 89.752L84.2 89.816L82.816 107.768L82.016 118.584L81.6 124ZM75.704 123.296L75.848 123.368L83.776 89.968L83.584 90.032L75.704 123.296ZM79.128 91.536L75.2 123.016L75.344 123.088L79.24 91.448L79.128 91.536ZM71.128 120.648L71.232 120.72L78.608 91.704L78.456 91.752L71.128 120.648ZM68.784 95.048L66.12 116.648C66.1503 116.668 66.1773 116.692 66.2 116.72L68.856 95.008L68.784 95.048ZM62.384 112.512L62.432 112.576L68.032 95.312H67.952L62.384 112.512ZM74.152 93.248L70.4 120.12C70.4307 120.149 70.4658 120.174 70.504 120.192L74.2 93.136L74.152 93.248ZM66.68 117.16L66.752 117.216L70.752 103.272L73.248 94.472L73.536 93.456H73.424L73.112 94.4L70.616 103.2L66.68 117.16ZM65.272 96.16L61.936 111.888C61.9345 111.909 61.9345 111.931 61.936 111.952L65.288 96.144L65.272 96.16ZM59.808 108.8C59.8025 108.816 59.8025 108.832 59.808 108.848L64.552 96.432H64.496L59.808 108.8ZM61.984 97.304L59.304 107.968V108.016L61.992 97.296L61.984 97.304ZM58.112 98.616L56.656 102.616L58.12 98.616H58.112ZM55.584 99.688C55.6506 99.583 55.7227 99.4815 55.8 99.384L55.584 99.688Z" fill="black"/>
<path d="M93.7441 45.288C116.144 45.144 134.416 63.464 134.544 86.208C134.608 90.5281 133.968 94.8299 132.648 98.944L93.9921 86.472L93.7441 45.288Z" fill="#455A64"/>
<path d="M129.52 66.5759L129.656 66.8399L93.952 78.2319V77.9199L129.52 66.5759ZM129.76 67.0319L93.984 82.3999V82.6879L129.888 67.2799C129.85 67.1949 129.807 67.1121 129.76 67.0319ZM93.928 73.4319V73.7119L126.728 62.1999C126.678 62.1136 126.619 62.0331 126.552 61.9599L93.928 73.4319ZM126.904 62.3999L93.944 76.9199V77.2479L127.056 62.6399C127.016 62.5439 126.952 62.4639 126.904 62.3999ZM93.856 63.5519V63.7439L118.856 53.9519L118.688 53.8159L93.856 63.5519ZM119.4 54.3999L93.8799 67.0399V67.2799L119.568 54.4799C119.515 54.4481 119.458 54.4213 119.4 54.3999ZM93.888 68.1599V68.3919L123.024 57.7359C122.967 57.6707 122.905 57.6092 122.84 57.5519L93.888 68.1599ZM123.488 58.1999L93.92 72.3999V72.6799L123.632 58.3439C123.576 58.2879 123.52 58.2239 123.456 58.1679L123.488 58.1999ZM93.7919 53.5999V53.7119L106.648 47.3599H106.504L93.7919 53.5999ZM108.192 47.9039L93.8479 56.7039V56.7999L108.344 47.9199L108.192 47.9039ZM93.824 58.5679V58.7199L113.72 50.4799C113.664 50.4432 113.605 50.4111 113.544 50.3839L93.824 58.5679ZM114.672 51.0399L93.8719 62.1839V62.3999L114.848 51.1519L114.672 51.0399ZM93.768 48.7999V48.8799L99.744 45.6799H99.624L93.768 48.7999ZM102.2 46.1279L93.784 51.8959V51.9999L102.328 46.1439C102.286 46.1368 102.243 46.1341 102.2 46.1359V46.1279ZM93.752 46.7199V46.7919L95.752 45.3199H95.6479L93.752 46.7199ZM134.4 90.1279L118.032 94.2319L118.24 94.3039L134.4 90.2559C134.4 90.2559 134.4 90.1759 134.4 90.1279ZM112.232 92.3599L112.536 92.4559L134.44 89.528C134.44 89.4799 134.44 89.4399 134.44 89.3919L112.232 92.3599ZM133.6 95.4479L127.136 97.1599L127.288 97.2079L133.584 95.5439C133.593 95.5127 133.599 95.4805 133.6 95.4479ZM123.824 96.0959L124.048 96.1679L133.648 95.1599C133.652 95.1281 133.652 95.0958 133.648 95.0639L123.824 96.0959ZM134.52 84.5519L109 91.3119L109.264 91.3919L134.52 84.7119V84.5519ZM101.64 88.9279L102.024 89.0559L134.496 84.1839C134.5 84.128 134.5 84.0719 134.496 84.0159L101.64 88.9279ZM116.512 83.1279L99.896 88.3679L100.2 88.4719L116.576 83.3119L127.384 79.9039L132.8 78.2079L133.696 77.9279C133.696 77.8639 133.696 77.7999 133.696 77.7279L132.784 78.0159L127.376 79.7199L116.512 83.1279ZM94.4 86.5999L94.808 86.7279L133.6 77.6399C133.591 77.5752 133.577 77.5111 133.56 77.4479L94.4 86.5999ZM132 72.0799L94.032 86.4799L94.368 86.584L132.088 72.3119C132.066 72.2321 132.036 72.1545 132 72.0799ZM93.976 83.0159V83.2879L132 71.9999C131.979 71.9197 131.949 71.8419 131.912 71.7679L93.976 83.0159Z" fill="#37474F"/>
<path d="M93.7441 45.2879H96.9441C119.344 45.1359 137.624 63.4559 137.744 86.1999C137.81 90.5234 137.167 94.8286 135.84 98.9439H132.64C133.96 94.8298 134.6 90.5281 134.536 86.2079C134.4 63.4639 116.136 45.1439 93.7441 45.2879Z" fill="#37474F"/>
<path d="M286.216 97.7121C286.217 102.536 284.878 107.264 282.347 111.371C279.817 115.477 276.195 118.8 271.886 120.967C267.577 123.135 262.75 124.062 257.944 123.645C253.139 123.229 248.544 121.485 244.672 118.608L231.92 121.864L237.232 109.992C235.365 106.503 234.317 102.633 234.17 98.6784C234.023 94.7234 234.779 90.7869 236.382 87.1682C237.984 83.5495 240.391 80.3438 243.418 77.7948C246.446 75.2459 250.015 73.4209 253.854 72.4585C257.693 71.4961 261.7 71.4217 265.572 72.2409C269.444 73.0602 273.079 74.7515 276.199 77.1862C279.319 79.621 281.843 82.7352 283.579 86.2919C285.314 89.8487 286.216 93.7544 286.216 97.7121Z" fill="white"/>
<path d="M286.216 97.712C286.212 102.536 284.875 107.265 282.352 111.376C281.726 112.4 281.037 113.383 280.288 114.32C279.51 115.232 278.68 116.098 277.8 116.912C277.367 117.33 276.913 117.725 276.44 118.096L275.008 119.2C274.528 119.56 273.992 119.84 273.488 120.168L272.688 120.64C272.424 120.792 272.152 120.912 271.888 121.048L270.288 121.848L268.592 122.48C268.032 122.696 267.457 122.872 266.872 123.008C266.288 123.144 265.712 123.344 265.12 123.432C263.938 123.666 262.74 123.813 261.536 123.872C260.332 123.968 259.123 123.968 257.92 123.872C253.068 123.489 248.419 121.76 244.496 118.88L244.736 118.928L232 122.208L231.296 122.392L231.592 121.72L236.872 109.832V110.176C234.957 106.644 233.894 102.712 233.768 98.696C233.571 93.6937 234.814 88.74 237.348 84.4227C239.883 80.1053 243.602 76.6055 248.065 74.3384C252.529 72.0713 257.549 71.1321 262.53 71.6323C267.511 72.1324 272.244 74.0509 276.168 77.16C279.29 79.6009 281.817 82.7192 283.558 86.2795C285.298 89.8398 286.207 93.749 286.216 97.712ZM286.216 97.712C286.22 93.7667 285.32 89.8728 283.585 86.3295C281.85 82.7862 279.326 79.6878 276.206 77.2721C273.087 74.8565 269.455 73.188 265.591 72.3947C261.726 71.6014 257.731 71.7045 253.912 72.696C250.119 73.6683 246.597 75.4932 243.616 78.032C240.667 80.5892 238.31 83.7588 236.712 87.32C235.147 90.8909 234.414 94.7706 234.567 98.6663C234.721 102.562 235.758 106.372 237.6 109.808L237.696 109.976L237.616 110.144L232.272 122.008L231.872 121.528L244.672 118.328H244.8L244.912 118.416C248.728 121.29 253.268 123.046 258.024 123.488C259.207 123.603 260.398 123.621 261.584 123.544C262.775 123.496 263.962 123.368 265.136 123.16C265.728 123.08 266.296 122.888 266.872 122.752C267.457 122.632 268.032 122.466 268.592 122.256L270.272 121.656L271.872 120.896C272.136 120.76 272.416 120.648 272.672 120.504L273.472 120.04C273.984 119.728 274.512 119.448 275 119.096L276.44 118.032C276.911 117.667 277.362 117.277 277.792 116.864C278.678 116.059 279.512 115.199 280.288 114.288C281.039 113.359 281.731 112.384 282.36 111.368C284.882 107.26 286.217 102.533 286.216 97.712Z" fill="#263238"/>
<path d="M255.968 113.2L244.304 101.392L248.216 97.52L255.032 104.416L269.192 82.224L273.84 85.184L255.968 113.2Z" fill="#004EFF"/>
</svg>
