<svg width="1065" height="519" viewBox="0 0 1065 519" fill="none" xmlns="http://www.w3.org/2000/svg">
<path d="M94.1932 518.237L93.7937 488.262L93.6707 458.257L93.4248 398.307L93.6707 338.326L93.7937 308.352L94.1932 278.346L94.562 308.352L94.6849 338.326L94.9615 398.307L94.6849 458.257L94.562 488.262L94.1932 518.237Z" fill="#EBEBEB"/>
<path d="M177.667 518.237L177.298 488.262L177.175 458.257L176.898 398.307L177.144 338.327L177.298 308.352L177.667 278.346L178.036 308.352L178.189 338.327L178.435 398.307L178.189 458.257L178.036 488.262L177.667 518.237Z" fill="#EBEBEB"/>
<path d="M261.172 518.239L260.803 488.264L260.649 458.258L260.403 398.309L260.649 338.328L260.772 308.353L261.172 278.348L261.54 308.353L261.694 338.328L261.94 398.309L261.694 458.258L261.54 488.264L261.172 518.239Z" fill="#EBEBEB"/>
<path d="M344.647 518.238L344.278 488.263L344.156 458.257L343.879 398.307L344.156 338.327L344.278 308.352L344.647 278.347L345.047 308.352L345.17 338.327L345.446 398.307L345.17 458.257L345.047 488.263L344.647 518.238Z" fill="#EBEBEB"/>
<path d="M428.155 518.238L427.786 488.263L427.633 458.258L427.387 398.308L427.633 338.328L427.786 308.353L428.155 278.347L428.524 308.353L428.678 338.328L428.923 398.308L428.678 458.258L428.524 488.263L428.155 518.238Z" fill="#EBEBEB"/>
<path d="M511.662 518.238L511.263 488.263L511.14 458.257L510.863 398.307L511.14 338.327L511.263 308.352L511.662 278.347L512.031 308.352L512.154 338.327L512.431 398.307L512.154 458.257L512.031 488.263L511.662 518.238Z" fill="#EBEBEB"/>
<path d="M595.136 518.238L594.767 488.263L594.644 458.257L594.367 398.308L594.613 338.327L594.767 308.352L595.136 278.347L595.535 308.352L595.658 338.327L595.904 398.308L595.658 458.257L595.535 488.263L595.136 518.238Z" fill="#EBEBEB"/>
<path d="M678.647 518.238L678.278 488.263L678.125 458.257L677.879 398.308L678.125 338.327L678.278 308.352L678.647 278.347L679.016 308.352L679.17 338.327L679.416 398.308L679.17 458.257L679.016 488.263L678.647 518.238Z" fill="#EBEBEB"/>
<path d="M762.12 518.237L761.751 488.262L761.628 458.257L761.352 398.307L761.628 338.327L761.751 308.352L762.12 278.346L762.52 308.352L762.642 338.327L762.919 398.307L762.642 458.257L762.52 488.262L762.12 518.237Z" fill="#EBEBEB"/>
<path d="M845.628 518.237L845.259 488.262L845.105 458.257L844.859 398.307L845.105 338.327L845.259 308.352L845.628 278.346L846.027 308.352L846.15 338.327L846.396 398.307L846.15 458.257L845.997 488.262L845.628 518.237Z" fill="#EBEBEB"/>
<path d="M929.136 518.237L928.736 488.262L928.613 458.257L928.367 398.307L928.613 338.327L928.736 308.352L929.136 278.346L929.504 308.352L929.627 338.327L929.904 398.307L929.627 458.257L929.504 488.262L929.136 518.237Z" fill="#EBEBEB"/>
<path d="M1012.61 518.237L1012.24 488.262L1012.12 458.256L1011.84 398.307L1012.12 338.326L1012.24 308.351L1012.61 278.346L1013.01 308.351L1013.13 338.326L1013.38 398.307L1013.13 458.256L1013.01 488.262L1012.61 518.237Z" fill="#EBEBEB"/>
<path d="M10.6826 278.346L271.161 277.824L531.608 277.579L792.086 277.824L1052.53 278.346L792.086 278.868L531.608 279.114L271.161 278.868L10.6826 278.346Z" fill="#EBEBEB"/>
<path d="M10.6836 336.485L271.162 335.963L531.609 335.686L792.087 335.963L1052.53 336.485L792.087 336.976L531.609 337.253L271.162 336.976L10.6836 336.485Z" fill="#EBEBEB"/>
<path d="M10.6836 394.591L271.162 394.069L531.609 393.823L792.087 394.069L1052.53 394.591L792.087 395.113L531.609 395.359L271.162 395.113L10.6836 394.591Z" fill="#EBEBEB"/>
<path d="M10.6846 452.698L271.163 452.176L531.61 451.93L792.088 452.176L1052.53 452.698L792.088 453.22L531.61 453.466L271.163 453.22L10.6846 452.698Z" fill="#EBEBEB"/>
<path d="M10.6846 394.591L94.0068 364.832L177.636 360.471H177.821H178.005L261.573 393.639H261.358L344.895 408.473H344.557L428.033 401.102L427.48 401.256C455.295 386.361 483.049 371.373 510.956 356.632L511.232 356.478H511.54L595.047 350.151H595.385L678.83 367.473H678.369L761.937 335.686H762.152H762.367L845.843 344.562H845.566L929.196 324.138L960.299 324.323L929.196 324.538L845.843 346.036H845.597L762.06 337.59H762.49L679.076 369.746H678.768H678.461L594.924 352.793H595.385L511.878 359.457L512.462 359.303C484.801 374.26 456.801 389.002 428.955 403.805H428.679H428.402L344.895 410.807H344.557L261.112 395.636H260.897L177.39 362.037H177.759L94.2219 365.845L10.6846 394.591Z" fill="#004EFF"/>
<path d="M101.136 365.353C101.142 366.735 100.737 368.087 99.9732 369.238C99.2089 370.389 98.1196 371.287 96.8435 371.819C95.5674 372.35 94.1621 372.491 92.8058 372.223C91.4496 371.955 90.2037 371.29 89.2261 370.313C88.2485 369.337 87.5834 368.092 87.3152 366.736C87.047 365.381 87.1877 363.977 87.7195 362.702C88.2514 361.427 89.1504 360.338 90.3024 359.574C91.4545 358.811 92.8076 358.406 94.1901 358.412C96.0298 358.42 97.7919 359.154 99.0928 360.454C100.394 361.754 101.128 363.515 101.136 365.353Z" fill="white"/>
<path d="M94.1917 373.862C92.5066 373.868 90.8576 373.374 89.4535 372.443C88.0494 371.512 86.9535 370.185 86.3044 368.631C85.6553 367.077 85.4823 365.366 85.8073 363.714C86.1323 362.061 86.9407 360.543 88.1302 359.35C89.3196 358.157 90.8365 357.344 92.4888 357.013C94.1411 356.682 95.8544 356.849 97.4119 357.492C98.9693 358.135 100.301 359.225 101.238 360.625C102.174 362.025 102.675 363.671 102.675 365.354C102.675 367.605 101.782 369.765 100.192 371.359C98.6019 372.954 96.4443 373.854 94.1917 373.862ZM94.1917 359.949C93.1219 359.949 92.076 360.266 91.1865 360.86C90.2969 361.454 89.6036 362.298 89.1942 363.286C88.7848 364.274 88.6776 365.36 88.8863 366.409C89.0951 367.457 89.6102 368.421 90.3668 369.177C91.1233 369.932 92.0871 370.447 93.1364 370.656C94.1857 370.864 95.2734 370.757 96.2618 370.348C97.2502 369.939 98.0951 369.246 98.6895 368.357C99.2838 367.469 99.6011 366.423 99.6011 365.354C99.6011 363.921 99.0312 362.546 98.0168 361.532C97.0023 360.519 95.6264 359.949 94.1917 359.949Z" fill="#004EFF"/>
<path d="M184.643 361.422C184.643 362.801 184.234 364.149 183.467 365.295C182.701 366.442 181.611 367.335 180.336 367.863C179.061 368.391 177.659 368.529 176.305 368.26C174.952 367.991 173.709 367.327 172.733 366.352C171.757 365.377 171.093 364.134 170.824 362.782C170.554 361.43 170.692 360.028 171.221 358.754C171.749 357.48 172.643 356.391 173.79 355.625C174.937 354.859 176.286 354.45 177.666 354.45C179.517 354.45 181.291 355.185 182.6 356.492C183.908 357.8 184.643 359.573 184.643 361.422Z" fill="white"/>
<path d="M177.666 369.93C175.982 369.93 174.336 369.431 172.936 368.496C171.536 367.561 170.445 366.233 169.8 364.678C169.156 363.124 168.987 361.413 169.316 359.763C169.644 358.113 170.455 356.597 171.646 355.407C172.837 354.217 174.353 353.407 176.005 353.079C177.656 352.751 179.368 352.919 180.924 353.563C182.48 354.207 183.809 355.297 184.745 356.696C185.68 358.095 186.179 359.74 186.179 361.422C186.171 363.676 185.272 365.835 183.677 367.429C182.082 369.023 179.921 369.922 177.666 369.93ZM177.666 356.017C176.596 356.017 175.55 356.334 174.661 356.928C173.771 357.522 173.078 358.366 172.668 359.354C172.259 360.342 172.152 361.429 172.361 362.477C172.569 363.526 173.084 364.489 173.841 365.245C174.597 366.001 175.561 366.515 176.611 366.724C177.66 366.932 178.748 366.825 179.736 366.416C180.724 366.007 181.569 365.314 182.164 364.426C182.758 363.537 183.075 362.492 183.075 361.422C183.075 359.989 182.505 358.614 181.491 357.6C180.476 356.587 179.101 356.017 177.666 356.017Z" fill="#004EFF"/>
<path d="M351.625 409.609C351.632 410.989 351.228 412.34 350.465 413.49C349.702 414.641 348.614 415.539 347.34 416.072C346.066 416.604 344.662 416.746 343.306 416.481C341.951 416.215 340.705 415.554 339.726 414.58C338.747 413.606 338.08 412.364 337.808 411.011C337.536 409.658 337.673 408.254 338.2 406.979C338.727 405.703 339.621 404.612 340.769 403.845C341.917 403.078 343.267 402.668 344.649 402.668C346.494 402.668 348.264 403.398 349.571 404.699C350.879 406 351.617 407.765 351.625 409.609Z" fill="white"/>
<path d="M344.65 418.085C342.967 418.085 341.32 417.586 339.92 416.652C338.52 415.717 337.429 414.388 336.785 412.834C336.14 411.279 335.972 409.569 336.3 407.919C336.629 406.268 337.44 404.752 338.63 403.563C339.821 402.373 341.338 401.563 342.989 401.234C344.641 400.906 346.353 401.075 347.908 401.719C349.464 402.362 350.794 403.453 351.729 404.852C352.665 406.251 353.164 407.896 353.164 409.578C353.164 411.834 352.267 413.998 350.67 415.594C349.074 417.189 346.908 418.085 344.65 418.085ZM344.65 404.173C343.582 404.179 342.539 404.501 341.653 405.099C340.768 405.696 340.079 406.543 339.675 407.531C339.27 408.519 339.167 409.605 339.379 410.651C339.592 411.698 340.109 412.658 340.867 413.411C341.625 414.164 342.589 414.676 343.637 414.882C344.685 415.088 345.771 414.979 346.758 414.569C347.745 414.159 348.588 413.466 349.181 412.578C349.774 411.69 350.09 410.646 350.09 409.578C350.09 408.866 349.949 408.16 349.676 407.503C349.402 406.845 349.001 406.248 348.495 405.745C347.99 405.243 347.39 404.845 346.73 404.576C346.07 404.306 345.363 404.169 344.65 404.173Z" fill="#004EFF"/>
<path d="M511.137 365.385C514.99 365.385 518.114 362.264 518.114 358.413C518.114 354.563 514.99 351.442 511.137 351.442C507.284 351.442 504.16 354.563 504.16 358.413C504.16 362.264 507.284 365.385 511.137 365.385Z" fill="white"/>
<path d="M511.138 366.89C509.453 366.89 507.806 366.39 506.405 365.454C505.005 364.517 503.914 363.187 503.27 361.631C502.627 360.074 502.46 358.362 502.791 356.711C503.122 355.06 503.936 353.544 505.129 352.356C506.323 351.167 507.843 350.36 509.496 350.035C511.15 349.71 512.863 349.883 514.418 350.532C515.973 351.18 517.3 352.275 518.232 353.678C519.164 355.081 519.658 356.729 519.652 358.413C519.644 360.664 518.743 362.82 517.148 364.409C515.552 365.997 513.391 366.89 511.138 366.89ZM511.138 352.977C510.061 352.971 509.006 353.285 508.108 353.878C507.209 354.472 506.507 355.319 506.091 356.311C505.674 357.304 505.562 358.398 505.768 359.455C505.975 360.511 506.491 361.483 507.25 362.246C508.01 363.009 508.979 363.53 510.035 363.742C511.091 363.954 512.187 363.849 513.182 363.438C514.178 363.028 515.03 362.331 515.629 361.436C516.228 360.542 516.548 359.489 516.548 358.413C516.552 357.701 516.415 356.994 516.145 356.335C515.875 355.676 515.477 355.076 514.974 354.571C514.472 354.066 513.874 353.665 513.216 353.391C512.557 353.118 511.851 352.977 511.138 352.977Z" fill="#004EFF"/>
<path d="M685.59 369.13C685.59 370.51 685.18 371.859 684.412 373.006C683.644 374.153 682.553 375.047 681.276 375.574C680 376.101 678.595 376.237 677.241 375.965C675.887 375.694 674.644 375.027 673.669 374.049C672.695 373.071 672.033 371.826 671.767 370.471C671.501 369.117 671.644 367.714 672.177 366.441C672.709 365.167 673.608 364.081 674.76 363.318C675.911 362.556 677.263 362.152 678.644 362.158C679.559 362.158 680.465 362.339 681.31 362.69C682.154 363.04 682.921 363.554 683.567 364.202C684.212 364.85 684.723 365.619 685.07 366.464C685.418 367.31 685.594 368.216 685.59 369.13Z" fill="white"/>
<path d="M678.646 377.638C676.963 377.638 675.316 377.139 673.916 376.204C672.516 375.269 671.425 373.94 670.781 372.386C670.136 370.831 669.968 369.121 670.296 367.471C670.625 365.82 671.436 364.305 672.626 363.115C673.817 361.925 675.334 361.115 676.985 360.787C678.637 360.458 680.349 360.627 681.904 361.271C683.46 361.915 684.79 363.005 685.725 364.404C686.661 365.803 687.16 367.448 687.16 369.13C687.16 371.387 686.263 373.55 684.666 375.146C683.07 376.741 680.904 377.638 678.646 377.638ZM678.646 363.725C677.576 363.725 676.531 364.042 675.641 364.636C674.751 365.23 674.058 366.074 673.649 367.062C673.239 368.05 673.132 369.136 673.341 370.185C673.55 371.233 674.065 372.197 674.821 372.952C675.578 373.708 676.542 374.223 677.591 374.432C678.64 374.64 679.728 374.533 680.716 374.124C681.705 373.715 682.55 373.022 683.144 372.133C683.738 371.244 684.056 370.199 684.056 369.13C684.056 367.697 683.486 366.322 682.471 365.308C681.457 364.295 680.081 363.725 678.646 363.725Z" fill="#004EFF"/>
<path d="M435.133 402.638C435.133 404.017 434.724 405.365 433.958 406.511C433.191 407.658 432.101 408.551 430.826 409.079C429.552 409.607 428.149 409.745 426.795 409.476C425.442 409.207 424.199 408.543 423.223 407.568C422.247 406.593 421.583 405.35 421.314 403.998C421.045 402.646 421.183 401.244 421.711 399.97C422.239 398.696 423.133 397.607 424.28 396.841C425.428 396.075 426.777 395.666 428.156 395.666C429.073 395.666 429.98 395.847 430.826 396.197C431.673 396.547 432.442 397.061 433.09 397.708C433.738 398.356 434.252 399.124 434.602 399.97C434.953 400.816 435.133 401.722 435.133 402.638Z" fill="white"/>
<path d="M428.158 411.145C426.474 411.145 424.828 410.646 423.428 409.711C422.028 408.776 420.937 407.448 420.293 405.893C419.648 404.339 419.48 402.628 419.808 400.978C420.137 399.328 420.947 397.812 422.138 396.622C423.329 395.432 424.846 394.622 426.497 394.294C428.149 393.966 429.86 394.134 431.416 394.778C432.972 395.422 434.301 396.512 435.237 397.911C436.172 399.31 436.672 400.955 436.672 402.638C436.663 404.891 435.764 407.051 434.169 408.644C432.574 410.238 430.414 411.137 428.158 411.145ZM428.158 397.232C427.088 397.232 426.042 397.549 425.153 398.143C424.263 398.737 423.57 399.581 423.16 400.569C422.751 401.557 422.644 402.644 422.853 403.692C423.061 404.741 423.577 405.704 424.333 406.46C425.09 407.216 426.053 407.73 427.103 407.939C428.152 408.148 429.24 408.041 430.228 407.631C431.217 407.222 432.061 406.53 432.656 405.641C433.25 404.752 433.567 403.707 433.567 402.638C433.543 401.22 432.963 399.869 431.951 398.875C430.939 397.881 429.577 397.324 428.158 397.324V397.232Z" fill="#004EFF"/>
<path d="M602.118 351.441C602.124 352.821 601.72 354.172 600.957 355.323C600.194 356.473 599.106 357.371 597.832 357.904C596.558 358.436 595.154 358.579 593.799 358.313C592.443 358.048 591.197 357.386 590.218 356.412C589.24 355.438 588.572 354.196 588.3 352.843C588.029 351.49 588.165 350.087 588.692 348.811C589.219 347.535 590.114 346.445 591.262 345.677C592.41 344.91 593.76 344.5 595.141 344.5C596.986 344.5 598.756 345.23 600.063 346.531C601.371 347.832 602.11 349.597 602.118 351.441Z" fill="white"/>
<path d="M595.139 359.948C593.455 359.948 591.809 359.449 590.409 358.514C589.009 357.579 587.917 356.251 587.273 354.696C586.629 353.142 586.46 351.431 586.789 349.781C587.117 348.131 587.928 346.615 589.119 345.425C590.309 344.235 591.826 343.425 593.478 343.097C595.129 342.769 596.841 342.937 598.397 343.581C599.952 344.225 601.282 345.315 602.217 346.714C603.153 348.113 603.652 349.758 603.652 351.441C603.644 353.694 602.744 355.853 601.15 357.447C599.555 359.041 597.394 359.94 595.139 359.948ZM595.139 346.035C594.069 346.035 593.023 346.352 592.133 346.946C591.244 347.54 590.55 348.384 590.141 349.372C589.732 350.36 589.624 351.447 589.833 352.495C590.042 353.544 590.557 354.507 591.314 355.263C592.07 356.019 593.034 356.533 594.083 356.742C595.133 356.951 596.22 356.843 597.209 356.434C598.197 356.025 599.042 355.332 599.636 354.444C600.231 353.555 600.548 352.51 600.548 351.441C600.548 350.007 599.978 348.632 598.964 347.618C597.949 346.605 596.573 346.035 595.139 346.035Z" fill="#004EFF"/>
<path d="M852.606 344.5C852.606 345.879 852.197 347.227 851.43 348.373C850.664 349.519 849.574 350.413 848.299 350.941C847.024 351.468 845.621 351.606 844.268 351.337C842.915 351.068 841.672 350.404 840.696 349.429C839.72 348.454 839.056 347.212 838.786 345.86C838.517 344.508 838.655 343.106 839.183 341.832C839.711 340.558 840.606 339.469 841.753 338.703C842.9 337.937 844.249 337.528 845.629 337.528C847.48 337.528 849.254 338.263 850.563 339.57C851.871 340.878 852.606 342.651 852.606 344.5Z" fill="white"/>
<path d="M845.627 352.976C843.942 352.976 842.294 352.477 840.894 351.54C839.493 350.604 838.402 349.274 837.758 347.718C837.115 346.161 836.948 344.449 837.279 342.798C837.61 341.147 838.424 339.631 839.618 338.443C840.811 337.254 842.331 336.446 843.985 336.122C845.638 335.797 847.351 335.97 848.906 336.618C850.461 337.267 851.789 338.362 852.72 339.765C853.652 341.168 854.146 342.816 854.14 344.5C854.132 346.751 853.232 348.907 851.636 350.495C850.04 352.084 847.879 352.976 845.627 352.976ZM845.627 339.064C844.55 339.058 843.495 339.371 842.596 339.965C841.697 340.559 840.995 341.405 840.579 342.398C840.162 343.391 840.05 344.485 840.257 345.541C840.463 346.598 840.979 347.569 841.738 348.333C842.498 349.096 843.467 349.617 844.523 349.829C845.58 350.041 846.675 349.935 847.671 349.525C848.667 349.114 849.518 348.418 850.117 347.523C850.716 346.628 851.036 345.576 851.036 344.5C851.052 343.78 850.925 343.064 850.66 342.394C850.396 341.723 850 341.113 849.496 340.598C848.992 340.083 848.39 339.674 847.726 339.395C847.061 339.115 846.348 338.971 845.627 338.972V339.064Z" fill="#004EFF"/>
<path d="M936.079 324.2C936.085 325.581 935.68 326.933 934.916 328.084C934.151 329.236 933.062 330.134 931.786 330.665C930.51 331.197 929.104 331.338 927.748 331.069C926.392 330.801 925.146 330.137 924.168 329.16C923.191 328.183 922.526 326.938 922.258 325.583C921.989 324.228 922.13 322.823 922.662 321.548C923.194 320.273 924.093 319.185 925.245 318.421C926.397 317.657 927.75 317.253 929.132 317.259C930.972 317.267 932.734 318.001 934.035 319.301C935.336 320.601 936.07 322.361 936.079 324.2Z" fill="white"/>
<path d="M929.135 332.83C927.451 332.83 925.805 332.331 924.405 331.396C923.005 330.461 921.914 329.132 921.269 327.578C920.625 326.024 920.456 324.313 920.785 322.663C921.113 321.013 921.924 319.497 923.115 318.307C924.305 317.117 925.822 316.307 927.474 315.979C929.125 315.65 930.837 315.819 932.393 316.463C933.948 317.107 935.278 318.197 936.213 319.596C937.149 320.995 937.648 322.64 937.648 324.322C937.648 326.579 936.751 328.743 935.155 330.338C933.558 331.933 931.393 332.83 929.135 332.83ZM929.135 318.917C928.056 318.911 927 319.225 926.101 319.82C925.202 320.415 924.499 321.264 924.084 322.259C923.668 323.253 923.558 324.349 923.767 325.406C923.976 326.463 924.495 327.435 925.257 328.197C926.02 328.959 926.992 329.477 928.05 329.686C929.108 329.895 930.205 329.785 931.2 329.369C932.195 328.954 933.045 328.253 933.64 327.354C934.235 326.455 934.55 325.4 934.544 324.322C934.56 323.602 934.433 322.886 934.168 322.216C933.904 321.546 933.508 320.936 933.004 320.421C932.5 319.906 931.898 319.496 931.233 319.217C930.569 318.938 929.855 318.794 929.135 318.794V318.917Z" fill="#004EFF"/>
<path d="M769.098 336.084C769.098 337.465 768.688 338.814 767.92 339.961C767.152 341.108 766.061 342.001 764.784 342.528C763.507 343.055 762.103 343.191 760.749 342.92C759.395 342.648 758.152 341.981 757.177 341.003C756.203 340.025 755.541 338.78 755.275 337.426C755.009 336.071 755.152 334.668 755.684 333.395C756.217 332.122 757.116 331.035 758.268 330.273C759.419 329.51 760.771 329.107 762.152 329.113C763.067 329.113 763.973 329.293 764.817 329.644C765.662 329.995 766.429 330.509 767.075 331.157C767.72 331.804 768.231 332.573 768.578 333.419C768.926 334.264 769.102 335.17 769.098 336.084Z" fill="white"/>
<path d="M762.123 344.561C760.438 344.561 758.791 344.062 757.39 343.125C755.989 342.189 754.898 340.859 754.255 339.302C753.611 337.746 753.444 336.034 753.775 334.383C754.106 332.732 754.92 331.216 756.114 330.028C757.308 328.839 758.827 328.031 760.481 327.707C762.134 327.382 763.847 327.555 765.402 328.203C766.957 328.852 768.285 329.947 769.217 331.35C770.148 332.753 770.643 334.401 770.636 336.085C770.628 338.336 769.728 340.492 768.132 342.08C766.536 343.669 764.376 344.561 762.123 344.561ZM762.123 330.649C761.047 330.649 759.995 330.968 759.101 331.565C758.206 332.162 757.509 333.011 757.097 334.004C756.685 334.998 756.577 336.091 756.787 337.145C756.997 338.2 757.515 339.168 758.276 339.929C759.037 340.689 760.006 341.207 761.062 341.416C762.117 341.626 763.211 341.518 764.205 341.107C765.199 340.696 766.048 339.999 766.646 339.105C767.244 338.211 767.563 337.16 767.563 336.085C767.567 335.37 767.429 334.661 767.157 334C766.885 333.338 766.485 332.737 765.979 332.232C765.473 331.726 764.871 331.326 764.21 331.054C763.548 330.782 762.838 330.645 762.123 330.649Z" fill="#004EFF"/>
<path d="M268.121 394.59C268.121 395.97 267.711 397.319 266.943 398.467C266.175 399.614 265.083 400.507 263.807 401.034C262.53 401.561 261.126 401.697 259.771 401.425C258.417 401.154 257.174 400.487 256.2 399.509C255.225 398.531 254.563 397.286 254.297 395.931C254.032 394.577 254.174 393.174 254.707 391.901C255.24 390.628 256.139 389.541 257.29 388.779C258.442 388.016 259.793 387.612 261.175 387.619C262.089 387.619 262.995 387.799 263.84 388.15C264.685 388.501 265.452 389.015 266.097 389.662C266.742 390.31 267.254 391.079 267.601 391.925C267.948 392.77 268.125 393.676 268.121 394.59Z" fill="white"/>
<path d="M261.174 403.098C259.49 403.098 257.844 402.599 256.444 401.664C255.044 400.729 253.953 399.401 253.308 397.846C252.664 396.292 252.495 394.581 252.824 392.931C253.152 391.281 253.963 389.765 255.154 388.575C256.344 387.385 257.861 386.575 259.513 386.247C261.164 385.919 262.876 386.087 264.432 386.731C265.987 387.375 267.317 388.465 268.252 389.864C269.188 391.263 269.687 392.908 269.687 394.591C269.679 396.844 268.78 399.003 267.185 400.597C265.59 402.191 263.429 403.09 261.174 403.098ZM261.174 389.185C260.104 389.185 259.058 389.502 258.168 390.096C257.279 390.69 256.586 391.534 256.176 392.522C255.767 393.51 255.66 394.597 255.868 395.645C256.077 396.694 256.592 397.657 257.349 398.413C258.105 399.169 259.069 399.683 260.118 399.892C261.168 400.101 262.255 399.994 263.244 399.584C264.232 399.175 265.077 398.482 265.671 397.594C266.266 396.705 266.583 395.66 266.583 394.591C266.583 393.157 266.013 391.782 264.999 390.768C263.984 389.755 262.608 389.185 261.174 389.185Z" fill="#004EFF"/>
<path d="M10.6826 453.037L94.097 442.226H93.8819L177.173 384.764L260.618 353.469H260.957H261.325L344.863 381.416H345.016L428.585 433.228H427.324C455.139 422.171 482.924 411.053 510.8 400.151L511.415 399.936L511.999 400.212L595.413 441.581L593.846 441.919L677.475 343.641L677.998 343.027L678.735 343.303L762.15 374.721H761.72L845.226 364.586L928.702 368.886L959.867 358.352L928.825 369.254L845.318 365.999L761.843 376.564H761.627H761.412L678.367 345.545L679.627 345.207L596.274 443.485L595.598 444.253L594.676 443.823L511.108 402.761H512.306C484.645 413.879 456.645 424.751 428.8 435.715L428.123 435.961L427.54 435.592L344.125 383.382H344.402L260.957 355.096H261.664L178.095 386.023H178.28L94.4044 443.209L10.6826 453.037Z" fill="#37474F"/>
<path d="M101.137 442.748C101.143 444.129 100.738 445.481 99.9741 446.632C99.2099 447.784 98.1206 448.682 96.8445 449.213C95.5684 449.745 94.163 449.885 92.8068 449.617C91.4506 449.349 90.2046 448.685 89.2271 447.708C88.2495 446.731 87.5844 445.486 87.3162 444.131C87.048 442.776 87.1887 441.371 87.7205 440.096C88.2524 438.821 89.1514 437.733 90.3034 436.969C91.4554 436.205 92.8086 435.801 94.191 435.807C96.0333 435.807 97.8 436.538 99.1027 437.84C100.405 439.141 101.137 440.907 101.137 442.748Z" fill="white"/>
<path d="M94.1917 451.255C92.5052 451.261 90.855 450.767 89.4503 449.834C88.0455 448.902 86.9496 447.574 86.3014 446.018C85.6532 444.462 85.482 442.749 85.8096 441.096C86.1371 439.443 86.9485 437.924 88.141 436.733C89.3335 435.541 90.8533 434.73 92.5076 434.403C94.1619 434.076 95.8763 434.247 97.4332 434.894C98.9901 435.542 100.319 436.637 101.253 438.041C102.186 439.445 102.681 441.094 102.675 442.779C102.666 445.024 101.77 447.176 100.181 448.764C98.5919 450.351 96.439 451.247 94.1917 451.255ZM94.1917 437.343C93.1144 437.337 92.0596 437.65 91.161 438.244C90.2624 438.837 89.5603 439.684 89.1439 440.677C88.7274 441.67 88.6153 442.764 88.8217 443.82C89.0281 444.877 89.5438 445.848 90.3034 446.612C91.063 447.375 92.0322 447.896 93.0883 448.108C94.1444 448.32 95.2398 448.214 96.2356 447.804C97.2314 447.393 98.0829 446.697 98.682 445.802C99.2812 444.907 99.601 443.855 99.601 442.779C99.6132 442.06 99.4826 441.345 99.2166 440.677C98.9506 440.009 98.5546 439.4 98.0514 438.886C97.5483 438.372 96.9481 437.963 96.2856 437.682C95.623 437.401 94.9113 437.255 94.1917 437.251V437.343Z" fill="#37474F"/>
<path d="M184.643 385.593C184.643 386.972 184.234 388.32 183.467 389.466C182.701 390.613 181.611 391.506 180.336 392.034C179.061 392.561 177.659 392.7 176.305 392.431C174.952 392.162 173.709 391.498 172.733 390.523C171.757 389.548 171.093 388.305 170.824 386.953C170.554 385.601 170.692 384.199 171.221 382.925C171.749 381.651 172.643 380.562 173.79 379.796C174.937 379.03 176.286 378.621 177.666 378.621C179.517 378.621 181.291 379.356 182.6 380.663C183.908 381.971 184.643 383.744 184.643 385.593Z" fill="white"/>
<path d="M177.668 394.069C175.983 394.069 174.335 393.569 172.935 392.633C171.534 391.697 170.443 390.366 169.799 388.81C169.156 387.254 168.989 385.542 169.32 383.891C169.651 382.24 170.465 380.724 171.659 379.535C172.852 378.347 174.372 377.539 176.026 377.214C177.679 376.89 179.392 377.062 180.947 377.711C182.502 378.36 183.83 379.455 184.762 380.858C185.693 382.261 186.187 383.909 186.181 385.592C186.173 387.843 185.273 389.999 183.677 391.588C182.081 393.177 179.92 394.069 177.668 394.069ZM177.668 380.157C176.591 380.15 175.536 380.464 174.637 381.058C173.738 381.651 173.036 382.498 172.62 383.491C172.204 384.484 172.091 385.578 172.298 386.634C172.504 387.691 173.02 388.662 173.779 389.425C174.539 390.189 175.508 390.709 176.564 390.922C177.62 391.134 178.716 391.028 179.712 390.618C180.707 390.207 181.559 389.51 182.158 388.616C182.757 387.721 183.077 386.669 183.077 385.592C183.081 384.88 182.944 384.174 182.674 383.515C182.404 382.855 182.006 382.256 181.504 381.75C181.001 381.245 180.403 380.844 179.745 380.571C179.087 380.297 178.381 380.156 177.668 380.157Z" fill="#37474F"/>
<path d="M351.626 383.105C351.626 384.484 351.216 385.832 350.45 386.978C349.683 388.125 348.594 389.018 347.319 389.546C346.044 390.074 344.641 390.212 343.288 389.943C341.934 389.674 340.691 389.01 339.715 388.035C338.74 387.06 338.075 385.817 337.806 384.465C337.537 383.113 337.675 381.711 338.203 380.437C338.731 379.163 339.625 378.074 340.773 377.308C341.92 376.542 343.269 376.133 344.649 376.133C345.566 376.129 346.475 376.307 347.323 376.656C348.172 377.005 348.942 377.518 349.591 378.166C350.24 378.814 350.754 379.585 351.103 380.432C351.452 381.28 351.63 382.188 351.626 383.105Z" fill="white"/>
<path d="M344.646 391.612C342.963 391.612 341.317 391.113 339.917 390.178C338.516 389.243 337.425 387.915 336.781 386.36C336.136 384.806 335.968 383.095 336.296 381.445C336.625 379.795 337.436 378.279 338.626 377.089C339.817 375.899 341.334 375.089 342.986 374.761C344.637 374.433 346.349 374.601 347.904 375.245C349.46 375.889 350.79 376.979 351.725 378.378C352.661 379.777 353.16 381.422 353.16 383.105C353.16 385.361 352.263 387.525 350.666 389.12C349.07 390.716 346.904 391.612 344.646 391.612ZM344.646 377.699C343.578 377.705 342.535 378.028 341.65 378.625C340.764 379.223 340.075 380.069 339.671 381.057C339.266 382.046 339.163 383.131 339.376 384.178C339.588 385.224 340.105 386.185 340.863 386.937C341.621 387.69 342.585 388.202 343.633 388.408C344.682 388.614 345.768 388.506 346.754 388.096C347.741 387.685 348.584 386.993 349.177 386.104C349.77 385.216 350.086 384.172 350.086 383.105C350.086 382.392 349.946 381.687 349.672 381.029C349.398 380.371 348.997 379.774 348.491 379.272C347.986 378.769 347.386 378.372 346.726 378.102C346.066 377.832 345.359 377.695 344.646 377.699Z" fill="#37474F"/>
<path d="M518.086 402.637C518.086 404.017 517.676 405.366 516.908 406.513C516.14 407.66 515.049 408.554 513.772 409.081C512.496 409.607 511.091 409.744 509.737 409.472C508.383 409.201 507.14 408.534 506.165 407.556C505.191 406.578 504.529 405.332 504.263 403.978C503.997 402.624 504.14 401.221 504.673 399.948C505.206 398.674 506.105 397.588 507.256 396.825C508.407 396.063 509.759 395.659 511.14 395.665C512.055 395.665 512.961 395.846 513.806 396.197C514.65 396.547 515.417 397.061 516.063 397.709C516.708 398.357 517.219 399.126 517.567 399.971C517.914 400.817 518.09 401.723 518.086 402.637Z" fill="white"/>
<path d="M511.139 411.144C509.455 411.144 507.809 410.645 506.409 409.71C505.009 408.775 503.917 407.447 503.273 405.892C502.629 404.338 502.46 402.627 502.789 400.977C503.117 399.327 503.928 397.811 505.119 396.621C506.309 395.431 507.826 394.621 509.478 394.293C511.129 393.965 512.841 394.133 514.397 394.777C515.952 395.421 517.282 396.511 518.217 397.91C519.153 399.309 519.652 400.954 519.652 402.636C519.644 404.89 518.744 407.049 517.15 408.643C515.555 410.237 513.394 411.136 511.139 411.144ZM511.139 397.231C510.069 397.231 509.023 397.548 508.133 398.142C507.244 398.736 506.55 399.58 506.141 400.568C505.732 401.556 505.624 402.643 505.833 403.691C506.042 404.74 506.557 405.703 507.314 406.459C508.07 407.215 509.034 407.729 510.083 407.938C511.133 408.146 512.22 408.039 513.209 407.63C514.197 407.221 515.042 406.528 515.636 405.64C516.231 404.751 516.548 403.706 516.548 402.636C516.524 401.219 515.943 399.868 514.931 398.874C513.919 397.88 512.557 397.323 511.139 397.323V397.231Z" fill="#37474F"/>
<path d="M685.594 344.5C685.594 345.88 685.184 347.229 684.416 348.376C683.648 349.523 682.557 350.417 681.28 350.943C680.004 351.47 678.599 351.606 677.245 351.335C675.891 351.063 674.648 350.396 673.673 349.418C672.699 348.44 672.037 347.195 671.771 345.841C671.505 344.486 671.648 343.084 672.181 341.81C672.713 340.537 673.612 339.45 674.764 338.688C675.915 337.926 677.267 337.522 678.648 337.528C679.563 337.528 680.469 337.709 681.313 338.059C682.158 338.41 682.925 338.924 683.571 339.572C684.216 340.22 684.727 340.988 685.074 341.834C685.422 342.68 685.598 343.586 685.594 344.5Z" fill="white"/>
<path d="M678.646 352.977C676.961 352.977 675.314 352.477 673.913 351.541C672.513 350.605 671.421 349.274 670.778 347.718C670.134 346.162 669.968 344.45 670.299 342.798C670.63 341.147 671.444 339.632 672.637 338.443C673.831 337.255 675.351 336.447 677.004 336.122C678.658 335.797 680.371 335.97 681.926 336.619C683.481 337.267 684.808 338.362 685.74 339.766C686.672 341.169 687.166 342.816 687.16 344.5C687.152 346.751 686.251 348.907 684.655 350.496C683.06 352.085 680.899 352.977 678.646 352.977ZM678.646 339.064C677.569 339.058 676.514 339.372 675.616 339.965C674.717 340.559 674.015 341.406 673.598 342.399C673.182 343.391 673.07 344.485 673.276 345.542C673.483 346.598 673.998 347.57 674.758 348.333C675.518 349.096 676.487 349.617 677.543 349.829C678.599 350.042 679.694 349.936 680.69 349.525C681.686 349.115 682.538 348.418 683.137 347.523C683.736 346.629 684.056 345.577 684.056 344.5C684.072 343.78 683.944 343.064 683.68 342.394C683.415 341.724 683.019 341.113 682.515 340.598C682.011 340.083 681.41 339.674 680.745 339.395C680.081 339.116 679.367 338.972 678.646 338.972V339.064Z" fill="#37474F"/>
<path d="M435.133 433.503C435.139 434.883 434.735 436.234 433.972 437.384C433.209 438.535 432.122 439.433 430.848 439.966C429.573 440.498 428.17 440.64 426.814 440.375C425.459 440.109 424.213 439.448 423.234 438.474C422.255 437.5 421.588 436.258 421.316 434.905C421.044 433.552 421.181 432.148 421.708 430.873C422.235 429.597 423.129 428.506 424.277 427.739C425.425 426.972 426.775 426.562 428.156 426.562C430.001 426.562 431.771 427.292 433.079 428.593C434.387 429.894 435.125 431.659 435.133 433.503Z" fill="white"/>
<path d="M428.154 442.011C426.47 442.011 424.824 441.512 423.424 440.577C422.024 439.642 420.933 438.314 420.289 436.759C419.644 435.205 419.476 433.494 419.804 431.844C420.133 430.194 420.944 428.678 422.134 427.488C423.325 426.299 424.842 425.488 426.493 425.16C428.145 424.832 429.856 425 431.412 425.644C432.968 426.288 434.297 427.378 435.233 428.777C436.168 430.176 436.668 431.821 436.668 433.504C436.668 434.621 436.447 435.727 436.02 436.759C435.592 437.791 434.965 438.729 434.174 439.519C433.384 440.309 432.445 440.936 431.412 441.363C430.379 441.791 429.272 442.011 428.154 442.011ZM428.154 428.098C427.084 428.098 426.038 428.415 425.149 429.009C424.259 429.603 423.566 430.448 423.157 431.435C422.747 432.423 422.64 433.51 422.849 434.558C423.058 435.607 423.573 436.57 424.329 437.326C425.086 438.082 426.05 438.597 427.099 438.805C428.148 439.014 429.236 438.907 430.224 438.498C431.213 438.088 432.057 437.396 432.652 436.507C433.246 435.618 433.564 434.573 433.564 433.504C433.572 432.789 433.438 432.079 433.169 431.416C432.901 430.753 432.504 430.15 432.001 429.642C431.498 429.133 430.899 428.73 430.239 428.454C429.578 428.179 428.87 428.037 428.154 428.037V428.098Z" fill="#37474F"/>
<path d="M602.118 441.488C602.124 442.868 601.72 444.219 600.957 445.37C600.194 446.52 599.106 447.419 597.832 447.951C596.558 448.483 595.154 448.626 593.799 448.36C592.443 448.095 591.197 447.433 590.218 446.459C589.24 445.486 588.572 444.244 588.3 442.89C588.029 441.537 588.165 440.134 588.692 438.858C589.219 437.582 590.114 436.492 591.262 435.724C592.41 434.957 593.76 434.547 595.141 434.547C596.986 434.547 598.756 435.278 600.063 436.578C601.371 437.879 602.11 439.645 602.118 441.488Z" fill="white"/>
<path d="M595.139 449.996C593.455 449.996 591.809 449.497 590.409 448.562C589.009 447.627 587.917 446.298 587.273 444.744C586.629 443.19 586.46 441.479 586.789 439.829C587.117 438.179 587.928 436.663 589.119 435.473C590.309 434.283 591.826 433.473 593.478 433.145C595.129 432.816 596.841 432.985 598.397 433.629C599.952 434.273 601.282 435.363 602.217 436.762C603.153 438.161 603.652 439.806 603.652 441.488C603.644 443.742 602.744 445.901 601.15 447.495C599.555 449.089 597.394 449.988 595.139 449.996ZM595.139 436.083C594.06 436.077 593.004 436.391 592.105 436.986C591.205 437.581 590.503 438.43 590.088 439.425C589.672 440.419 589.562 441.515 589.771 442.572C589.98 443.629 590.499 444.601 591.261 445.363C592.024 446.125 592.996 446.643 594.054 446.852C595.112 447.061 596.209 446.951 597.204 446.535C598.199 446.12 599.048 445.419 599.644 444.52C600.239 443.621 600.554 442.566 600.548 441.488C600.548 440.055 599.978 438.68 598.964 437.666C597.949 436.653 596.573 436.083 595.139 436.083Z" fill="#37474F"/>
<path d="M852.606 365.385C852.612 366.765 852.208 368.116 851.445 369.266C850.682 370.417 849.595 371.315 848.32 371.848C847.046 372.38 845.642 372.522 844.287 372.257C842.932 371.991 841.686 371.33 840.707 370.356C839.728 369.382 839.06 368.14 838.789 366.787C838.517 365.434 838.653 364.03 839.181 362.755C839.708 361.479 840.602 360.388 841.75 359.621C842.898 358.854 844.248 358.444 845.629 358.444C847.474 358.444 849.244 359.174 850.552 360.475C851.859 361.776 852.598 363.541 852.606 365.385Z" fill="white"/>
<path d="M845.631 373.892C843.947 373.892 842.301 373.393 840.901 372.459C839.501 371.524 838.41 370.195 837.765 368.641C837.121 367.086 836.952 365.376 837.281 363.726C837.609 362.075 838.42 360.559 839.611 359.37C840.801 358.18 842.318 357.37 843.97 357.041C845.621 356.713 847.333 356.882 848.889 357.526C850.444 358.169 851.774 359.26 852.71 360.659C853.645 362.058 854.144 363.703 854.144 365.385C854.136 367.639 853.237 369.798 851.642 371.392C850.047 372.985 847.886 373.884 845.631 373.892ZM845.631 359.98C844.552 359.974 843.496 360.288 842.597 360.883C841.698 361.478 840.996 362.327 840.58 363.321C840.164 364.316 840.054 365.412 840.263 366.469C840.472 367.526 840.991 368.498 841.753 369.26C842.516 370.022 843.488 370.54 844.546 370.749C845.604 370.958 846.701 370.847 847.696 370.432C848.691 370.017 849.541 369.315 850.136 368.417C850.732 367.518 851.046 366.463 851.04 365.385C851.04 363.952 850.47 362.577 849.456 361.563C848.441 360.549 847.065 359.98 845.631 359.98Z" fill="#37474F"/>
<path d="M936.079 369.131C936.079 370.511 935.669 371.86 934.901 373.007C934.133 374.155 933.041 375.048 931.765 375.575C930.488 376.102 929.084 376.238 927.729 375.966C926.375 375.695 925.132 375.028 924.158 374.05C923.183 373.072 922.521 371.827 922.255 370.472C921.99 369.118 922.132 367.715 922.665 366.442C923.198 365.168 924.097 364.082 925.248 363.319C926.399 362.557 927.751 362.153 929.133 362.159C930.047 362.159 930.953 362.34 931.798 362.691C932.643 363.041 933.41 363.555 934.055 364.203C934.7 364.851 935.211 365.62 935.559 366.465C935.906 367.311 936.083 368.217 936.079 369.131Z" fill="white"/>
<path d="M929.131 377.638C927.447 377.638 925.801 377.139 924.401 376.204C923.001 375.27 921.91 373.941 921.265 372.387C920.621 370.832 920.452 369.122 920.781 367.471C921.109 365.821 921.92 364.305 923.111 363.115C924.301 361.926 925.818 361.115 927.47 360.787C929.121 360.459 930.833 360.627 932.389 361.271C933.944 361.915 935.274 363.006 936.209 364.405C937.145 365.804 937.644 367.448 937.644 369.131C937.644 371.387 936.747 373.551 935.151 375.146C933.554 376.742 931.389 377.638 929.131 377.638ZM929.131 363.726C928.061 363.726 927.015 364.043 926.125 364.637C925.236 365.231 924.543 366.075 924.133 367.062C923.724 368.05 923.617 369.137 923.825 370.185C924.034 371.234 924.549 372.197 925.306 372.953C926.062 373.709 927.026 374.224 928.075 374.432C929.125 374.641 930.212 374.534 931.201 374.125C932.189 373.716 933.034 373.023 933.628 372.134C934.223 371.245 934.54 370.2 934.54 369.131C934.54 367.697 933.97 366.322 932.956 365.309C931.941 364.295 930.565 363.726 929.131 363.726Z" fill="#37474F"/>
<path d="M769.098 376.073C769.104 377.454 768.699 378.807 767.935 379.958C767.171 381.109 766.081 382.007 764.805 382.539C763.529 383.07 762.124 383.211 760.768 382.943C759.411 382.675 758.166 382.01 757.188 381.033C756.21 380.056 755.545 378.811 755.277 377.456C755.009 376.101 755.15 374.697 755.681 373.422C756.213 372.146 757.112 371.058 758.264 370.294C759.416 369.53 760.77 369.126 762.152 369.132C763.992 369.14 765.754 369.874 767.055 371.174C768.356 372.474 769.09 374.235 769.098 376.073Z" fill="white"/>
<path d="M762.119 384.579C760.435 384.579 758.789 384.08 757.389 383.146C755.989 382.211 754.898 380.882 754.254 379.328C753.609 377.773 753.441 376.063 753.769 374.412C754.098 372.762 754.908 371.246 756.099 370.057C757.29 368.867 758.807 368.057 760.458 367.728C762.11 367.4 763.821 367.569 765.377 368.212C766.933 368.856 768.262 369.947 769.198 371.346C770.133 372.745 770.633 374.39 770.633 376.072C770.633 378.328 769.736 380.492 768.139 382.088C766.542 383.683 764.377 384.579 762.119 384.579ZM762.119 370.667C761.042 370.667 759.989 370.986 759.093 371.585C758.198 372.184 757.501 373.035 757.09 374.03C756.679 375.025 756.573 376.119 756.786 377.175C756.998 378.23 757.519 379.199 758.283 379.958C759.047 380.717 760.019 381.232 761.077 381.438C762.134 381.644 763.229 381.532 764.222 381.116C765.216 380.7 766.063 379.999 766.657 379.101C767.251 378.203 767.565 377.149 767.559 376.072C767.559 375.36 767.418 374.654 767.144 373.996C766.871 373.339 766.469 372.741 765.964 372.239C765.458 371.737 764.858 371.339 764.199 371.069C763.539 370.8 762.832 370.663 762.119 370.667Z" fill="#37474F"/>
<path d="M268.121 354.328C268.127 355.709 267.722 357.061 266.958 358.212C266.193 359.364 265.104 360.262 263.828 360.793C262.552 361.325 261.146 361.466 259.79 361.197C258.434 360.929 257.188 360.265 256.21 359.288C255.233 358.311 254.568 357.066 254.3 355.711C254.031 354.356 254.172 352.951 254.704 351.676C255.236 350.401 256.135 349.313 257.287 348.549C258.439 347.785 259.792 347.381 261.174 347.387C263.014 347.395 264.776 348.129 266.077 349.429C267.378 350.729 268.112 352.489 268.121 354.328Z" fill="white"/>
<path d="M261.175 362.958C259.493 362.976 257.843 362.495 256.434 361.577C255.024 360.658 253.919 359.343 253.257 357.798C252.595 356.252 252.406 354.545 252.714 352.893C253.023 351.24 253.814 349.715 254.989 348.512C256.163 347.308 257.668 346.479 259.314 346.13C260.96 345.78 262.672 345.926 264.235 346.548C265.798 347.17 267.141 348.241 268.096 349.626C269.05 351.01 269.572 352.646 269.597 354.328C269.613 355.447 269.408 356.559 268.993 357.6C268.578 358.64 267.962 359.588 267.179 360.39C266.397 361.192 265.464 361.831 264.433 362.272C263.403 362.713 262.296 362.946 261.175 362.958ZM261.175 349.045C260.098 349.033 259.041 349.343 258.141 349.935C257.241 350.527 256.538 351.374 256.123 352.368C255.708 353.362 255.599 354.457 255.811 355.513C256.023 356.569 256.546 357.537 257.312 358.294C258.079 359.051 259.054 359.562 260.113 359.762C261.172 359.961 262.266 359.84 263.256 359.414C264.246 358.988 265.085 358.276 265.667 357.37C266.25 356.463 266.548 355.404 266.523 354.328C266.491 352.926 265.916 351.591 264.918 350.606C263.92 349.62 262.578 349.061 261.175 349.045Z" fill="#37474F"/>
<path d="M3.00098 278.347C5.41809 277.277 8.04162 276.752 10.6847 276.811C13.3288 276.74 15.9551 277.265 18.3684 278.347C15.9337 279.36 13.3223 279.882 10.6847 279.882C8.04712 279.882 5.43566 279.36 3.00098 278.347Z" fill="#DBDBDB"/>
<path d="M3 336.454C5.43468 335.441 8.04614 334.919 10.6837 334.919C13.3213 334.919 15.9327 335.441 18.3674 336.454C15.9379 337.488 13.3244 338.021 10.6837 338.021C8.04302 338.021 5.42952 337.488 3 336.454Z" fill="#DBDBDB"/>
<path d="M3.00098 394.592C5.4305 393.558 8.04399 393.025 10.6847 393.025C13.3254 393.025 15.9389 393.558 18.3684 394.592C15.9551 395.674 13.3288 396.199 10.6847 396.128C8.04162 396.186 5.41809 395.662 3.00098 394.592Z" fill="#DBDBDB"/>
<path d="M3.00195 452.605C5.43663 451.592 8.0481 451.07 10.6857 451.07C13.3232 451.07 15.9347 451.592 18.3694 452.605C15.9347 453.619 13.3232 454.141 10.6857 454.141C8.0481 454.141 5.43663 453.619 3.00195 452.605Z" fill="#DBDBDB"/>
<path d="M163.036 189.536H3L3 264.903H163.036L163.036 189.536Z" fill="#004EFF"/>
<path d="M79.7142 189.536H3L3 264.903H79.7142L79.7142 189.536Z" fill="#EBEBEB"/>
<path d="M68.5258 227.22C68.5202 233.801 66.1193 240.156 61.771 245.1C57.4226 250.043 51.4235 253.238 44.8921 254.088C38.3607 254.938 31.7429 253.386 26.2723 249.72C20.8018 246.054 16.8521 240.526 15.1595 234.165C13.4669 227.805 14.147 221.046 17.0729 215.149C19.9989 209.253 24.971 204.621 31.0622 202.117C37.1535 199.613 43.9482 199.408 50.1795 201.54C56.4108 203.673 61.6534 207.997 64.9299 213.706C67.2887 217.82 68.5285 222.479 68.5258 227.22Z" fill="#263238"/>
<path d="M64.932 213.706L41.3584 227.22L41.3584 200.07C46.1405 200.072 50.8377 201.333 54.9764 203.727C59.1151 206.121 62.5491 209.563 64.932 213.706Z" fill="#004EFF"/>
<path d="M60.1371 227.218C60.1371 230.93 59.0357 234.558 56.9723 237.644C54.9088 240.73 51.9759 243.135 48.5445 244.555C45.1131 245.975 41.3373 246.347 37.6945 245.623C34.0517 244.899 30.7056 243.112 28.0793 240.487C25.453 237.863 23.6645 234.519 22.9399 230.879C22.2154 227.239 22.5872 223.466 24.0086 220.037C25.4299 216.609 27.8368 213.678 30.925 211.616C34.0132 209.554 37.644 208.453 41.3581 208.453C46.3386 208.453 51.1151 210.43 54.6369 213.95C58.1586 217.469 60.1371 222.242 60.1371 227.218Z" fill="white"/>
<path d="M34.7483 224.916L33.8262 225.469C33.7974 225.483 33.7659 225.49 33.734 225.49C33.7021 225.49 33.6706 225.483 33.6418 225.469C33.6069 225.426 33.5879 225.372 33.5879 225.316C33.5879 225.26 33.6069 225.206 33.6418 225.162L34.902 224.425C34.9456 224.39 34.9998 224.371 35.0556 224.371C35.1115 224.371 35.1657 224.39 35.2093 224.425C35.2237 224.486 35.2237 224.549 35.2093 224.609V230.567C35.2093 230.624 35.1866 230.679 35.1463 230.719C35.106 230.76 35.0512 230.782 34.9942 230.782C34.9371 230.782 34.8824 230.76 34.842 230.719C34.8017 230.679 34.779 230.624 34.779 230.567L34.7483 224.916Z" fill="#263238"/>
<path d="M36.9336 230.137C36.9048 230.09 36.8927 230.035 36.8992 229.98C36.9057 229.925 36.9304 229.874 36.9695 229.835C37.0085 229.796 37.0596 229.772 37.1144 229.765C37.1692 229.759 37.2246 229.771 37.2717 229.799C37.4315 229.964 37.6225 230.095 37.8337 230.185C38.0448 230.274 38.2717 230.321 38.5011 230.322C38.9631 230.313 39.4039 230.126 39.7305 229.799C40.049 229.47 40.2255 229.029 40.2222 228.571C40.2272 228.344 40.1863 228.118 40.1018 227.907C40.0173 227.696 39.891 227.504 39.7305 227.343C39.5703 227.179 39.379 227.049 39.1679 226.961C38.9568 226.872 38.7301 226.826 38.5011 226.826C38.2721 226.826 38.0455 226.872 37.8344 226.961C37.6233 227.049 37.432 227.179 37.2717 227.343C37.2261 227.386 37.1655 227.41 37.1027 227.41C37.0398 227.41 36.9793 227.386 36.9336 227.343L37.241 224.732C37.2264 224.682 37.2264 224.629 37.241 224.578C37.2651 224.567 37.2913 224.562 37.3178 224.562C37.3443 224.562 37.3705 224.567 37.3946 224.578H40.4681C40.5252 224.578 40.5799 224.601 40.6203 224.641C40.6606 224.682 40.6833 224.736 40.6833 224.793C40.6877 224.824 40.6854 224.855 40.6766 224.885C40.6678 224.915 40.6527 224.942 40.6323 224.966C40.6118 224.989 40.5866 225.008 40.5582 225.02C40.5299 225.033 40.4992 225.039 40.4681 225.039H37.5483L37.3024 226.974C37.6394 226.78 38.0201 226.674 38.4089 226.667C38.7 226.664 38.9887 226.72 39.2579 226.831C39.5271 226.942 39.7714 227.105 39.9764 227.312C40.1789 227.518 40.3378 227.763 40.4434 228.032C40.549 228.301 40.5993 228.589 40.5911 228.878C40.6007 229.461 40.3798 230.024 39.9764 230.444C39.5515 230.845 38.9932 231.075 38.4089 231.089C38.1104 231.041 37.8251 230.932 37.5712 230.768C37.3172 230.604 37.1001 230.389 36.9336 230.137Z" fill="#263238"/>
<path d="M42.4036 225.868C42.3868 225.662 42.4109 225.455 42.4745 225.259C42.5381 225.062 42.64 224.88 42.7743 224.723C42.9085 224.566 43.0725 224.437 43.2568 224.344C43.4411 224.25 43.6421 224.194 43.8482 224.179C44.0502 224.194 44.2472 224.25 44.4278 224.342C44.6084 224.433 44.769 224.56 44.9004 224.714C45.0318 224.868 45.1314 225.047 45.1934 225.24C45.2555 225.432 45.2787 225.636 45.2619 225.837C45.2787 226.042 45.2543 226.247 45.1904 226.442C45.1264 226.636 45.0241 226.816 44.8895 226.971C44.7549 227.125 44.5907 227.251 44.4066 227.342C44.2225 227.432 44.0221 227.484 43.8174 227.496C43.418 227.457 43.0488 227.266 42.7858 226.964C42.5228 226.661 42.386 226.269 42.4036 225.868ZM44.8009 225.868C44.8363 225.568 44.7535 225.265 44.57 225.025C44.3865 224.784 44.1167 224.624 43.8174 224.578C43.2949 224.578 42.8954 225.162 42.8954 225.837C42.8954 226.544 43.3257 227.097 43.8482 227.097C44.3707 227.097 44.8009 226.574 44.8009 225.868ZM43.2949 230.506L47.8129 224.363H47.9973C47.9973 224.363 48.2125 224.363 48.2125 224.547L43.6638 230.69C43.6357 230.706 43.6039 230.714 43.5716 230.714C43.5392 230.714 43.5073 230.706 43.4793 230.69C43.4304 230.69 43.3835 230.67 43.3489 230.636C43.3144 230.601 43.2949 230.554 43.2949 230.506ZM46.184 229.216C46.1673 229.011 46.1916 228.806 46.2556 228.611C46.3195 228.417 46.4218 228.237 46.5565 228.082C46.6911 227.928 46.8553 227.802 47.0394 227.711C47.2235 227.621 47.4238 227.569 47.6285 227.557C47.8292 227.569 48.0255 227.62 48.2059 227.709C48.3863 227.798 48.5472 227.922 48.679 228.073C48.8107 228.225 48.9107 228.401 48.9731 228.592C49.0356 228.783 49.0591 228.985 49.0424 229.185C49.0725 229.39 49.0581 229.599 49.0002 229.798C48.9422 229.997 48.842 230.182 48.7064 230.338C48.5708 230.495 48.4029 230.621 48.2143 230.707C48.0256 230.794 47.8206 230.838 47.6132 230.838C47.4057 230.838 47.2007 230.794 47.012 230.707C46.8234 230.621 46.6556 230.495 46.52 230.338C46.3844 230.182 46.2841 229.997 46.2262 229.798C46.1682 229.599 46.1538 229.39 46.184 229.185V229.216ZM48.5813 229.216C48.6161 228.919 48.5324 228.62 48.3483 228.384C48.1642 228.149 47.8946 227.995 47.5978 227.956C47.0753 227.956 46.6758 228.509 46.6758 229.185C46.6758 229.922 47.106 230.444 47.6285 230.444C48.151 230.444 48.5813 229.891 48.5813 229.216Z" fill="#263238"/>
<path d="M89.2428 207.532H58.6924V209.068H89.2428V207.532Z" fill="white"/>
<path d="M92.5002 208.301C92.5002 208.945 92.3091 209.574 91.9511 210.109C91.5931 210.645 91.0843 211.062 90.489 211.308C89.8937 211.555 89.2387 211.619 88.6067 211.494C87.9747 211.368 87.3942 211.058 86.9386 210.603C86.483 210.148 86.1727 209.567 86.047 208.936C85.9213 208.304 85.9858 207.65 86.2324 207.055C86.4789 206.46 86.8965 205.952 87.4323 205.594C87.968 205.236 88.598 205.045 89.2423 205.045C90.1064 205.045 90.935 205.388 91.546 205.999C92.1569 206.609 92.5002 207.437 92.5002 208.301Z" fill="white"/>
<path d="M109.497 205.445C110.199 207.026 110.382 208.789 110.02 210.481C109.706 212.342 108.911 214.089 107.715 215.549C107.206 216.23 106.555 216.791 105.806 217.194C105.058 217.598 104.23 217.833 103.381 217.883C102.633 217.877 101.903 217.653 101.281 217.238C100.658 216.824 100.171 216.237 99.8773 215.549C99.1733 213.957 98.9904 212.183 99.3548 210.481C99.6752 208.632 100.469 206.897 101.66 205.445C102.17 204.765 102.822 204.205 103.57 203.802C104.318 203.399 105.145 203.163 105.994 203.11C106.741 203.12 107.469 203.346 108.091 203.76C108.712 204.174 109.201 204.759 109.497 205.445ZM107.684 210.481C107.957 209.225 107.828 207.914 107.315 206.734C107.185 206.376 106.952 206.063 106.647 205.834C106.341 205.604 105.975 205.469 105.594 205.445C105.149 205.484 104.717 205.619 104.33 205.842C103.942 206.065 103.608 206.369 103.35 206.734C102.497 207.828 101.926 209.115 101.691 210.481C101.418 211.738 101.547 213.049 102.059 214.228C102.185 214.593 102.415 214.912 102.721 215.147C103.027 215.382 103.396 215.522 103.781 215.549C104.223 215.502 104.65 215.36 105.032 215.131C105.414 214.903 105.742 214.595 105.994 214.228C106.869 213.144 107.451 211.854 107.684 210.481Z" fill="white"/>
<path d="M118.564 204.216L116.382 216.655C116.319 216.978 116.148 217.269 115.896 217.482C115.645 217.694 115.328 217.814 114.999 217.822C114.854 217.826 114.709 217.796 114.577 217.735C114.445 217.675 114.328 217.585 114.236 217.472C114.144 217.359 114.079 217.227 114.046 217.085C114.013 216.944 114.013 216.796 114.046 216.655L115.89 206.243L114.968 206.765C114.766 206.86 114.546 206.912 114.323 206.919C114.136 206.928 113.95 206.88 113.791 206.782C113.632 206.683 113.506 206.538 113.432 206.366C113.333 206.063 113.346 205.735 113.471 205.441C113.595 205.148 113.821 204.909 114.108 204.769L116.997 203.234H117.765V203.694L118.564 204.216Z" fill="white"/>
<path d="M144.626 224.332H97.6328V226.728H144.626V224.332Z" fill="white"/>
<path d="M136.912 230.322H97.6328V232.717H136.912V230.322Z" fill="white"/>
<path d="M152.71 236.28H97.6328V238.676H152.71V236.28Z" fill="white"/>
<path d="M121.143 242.238H97.6309V244.633H121.143V242.238Z" fill="white"/>
<path d="M144.626 248.227H97.6328V250.622H144.626V248.227Z" fill="white"/>
<path d="M359.066 189.535H199.029L199.029 264.902H359.066V189.535Z" fill="#004EFF"/>
<path d="M275.743 189.535H199.029L199.029 264.902H275.743V189.535Z" fill="#EBEBEB"/>
<path d="M264.551 227.219C264.558 228.546 264.456 229.871 264.244 231.181C263.195 238.057 259.518 244.258 253.988 248.481C248.458 252.704 241.504 254.62 234.59 253.826C227.675 253.033 221.337 249.591 216.91 244.225C212.482 238.859 210.308 231.986 210.846 225.052C211.384 218.118 214.591 211.662 219.794 207.042C224.997 202.422 231.789 199.997 238.744 200.278C245.698 200.559 252.273 203.523 257.086 208.547C261.899 213.571 264.575 220.264 264.551 227.219Z" fill="#263238"/>
<path d="M264.554 227.219C264.561 228.546 264.459 229.871 264.247 231.181L237.323 227.219V200.07C240.892 200.066 244.427 200.765 247.725 202.128C251.024 203.491 254.02 205.491 256.544 208.013C259.068 210.535 261.069 213.529 262.433 216.825C263.797 220.121 264.497 223.653 264.493 227.219H264.554Z" fill="#004EFF"/>
<path d="M256.163 227.219C256.163 230.93 255.061 234.558 252.998 237.644C250.934 240.73 248.001 243.135 244.57 244.555C241.138 245.976 237.363 246.347 233.72 245.623C230.077 244.899 226.731 243.112 224.105 240.488C221.478 237.863 219.69 234.52 218.965 230.88C218.241 227.24 218.613 223.466 220.034 220.038C221.455 216.609 223.862 213.678 226.95 211.616C230.039 209.554 233.669 208.454 237.383 208.454C242.364 208.454 247.141 210.431 250.662 213.95C254.184 217.469 256.163 222.242 256.163 227.219Z" fill="white"/>
<path d="M228.503 230.382L231.577 227.618C231.825 227.394 231.999 227.1 232.076 226.775C232.154 226.45 232.131 226.109 232.012 225.797C231.892 225.485 231.681 225.216 231.406 225.026C231.131 224.836 230.805 224.733 230.47 224.731C230.051 224.726 229.644 224.879 229.333 225.161L229.026 225.438C229.006 225.458 228.982 225.474 228.956 225.486C228.929 225.497 228.901 225.502 228.872 225.502C228.844 225.502 228.815 225.497 228.789 225.486C228.762 225.474 228.739 225.458 228.719 225.438C228.675 225.392 228.651 225.332 228.651 225.269C228.651 225.206 228.675 225.146 228.719 225.1L229.026 224.824C229.421 224.464 229.936 224.267 230.47 224.271C230.765 224.267 231.056 224.325 231.326 224.441C231.597 224.558 231.839 224.73 232.038 224.946C232.393 225.344 232.589 225.857 232.591 226.39C232.595 226.687 232.534 226.981 232.412 227.252C232.29 227.522 232.11 227.763 231.884 227.956L229.303 230.321H232.376C232.433 230.321 232.488 230.344 232.528 230.384C232.568 230.424 232.591 230.479 232.591 230.536C232.592 230.596 232.57 230.654 232.53 230.7C232.491 230.745 232.436 230.774 232.376 230.782H228.719H228.534C228.501 230.761 228.472 230.733 228.452 230.7C228.431 230.667 228.419 230.629 228.416 230.59C228.413 230.551 228.419 230.512 228.434 230.476C228.45 230.439 228.473 230.407 228.503 230.382Z" fill="#263238"/>
<path d="M234.248 230.138C234.205 230.092 234.181 230.031 234.181 229.969C234.181 229.906 234.205 229.845 234.248 229.8C234.268 229.779 234.292 229.763 234.318 229.752C234.345 229.741 234.373 229.735 234.402 229.735C234.43 229.735 234.459 229.741 234.485 229.752C234.511 229.763 234.535 229.779 234.555 229.8C234.885 230.121 235.324 230.307 235.785 230.322C236.014 230.321 236.241 230.274 236.452 230.185C236.663 230.095 236.854 229.964 237.014 229.8C237.182 229.642 237.315 229.452 237.405 229.24C237.494 229.029 237.539 228.801 237.537 228.571C237.542 228.344 237.501 228.118 237.416 227.907C237.332 227.696 237.205 227.504 237.045 227.343C236.718 227.016 236.278 226.829 235.816 226.821C235.344 226.827 234.893 227.014 234.555 227.343C234.535 227.363 234.511 227.379 234.485 227.39C234.459 227.402 234.43 227.407 234.402 227.407C234.373 227.407 234.345 227.402 234.318 227.39C234.292 227.379 234.268 227.363 234.248 227.343L234.555 224.732C234.542 224.709 234.535 224.682 234.535 224.655C234.535 224.629 234.542 224.602 234.555 224.579C234.555 224.579 234.555 224.579 234.709 224.579H237.782C237.84 224.579 237.894 224.601 237.935 224.642C237.975 224.682 237.998 224.737 237.998 224.794C238.002 224.824 238 224.856 237.991 224.885C237.982 224.915 237.967 224.943 237.947 224.966C237.926 224.989 237.901 225.008 237.873 225.021C237.844 225.033 237.814 225.04 237.782 225.039H234.924L234.709 226.974C235.046 226.78 235.427 226.675 235.816 226.667C236.102 226.667 236.385 226.724 236.649 226.835C236.913 226.946 237.152 227.108 237.352 227.312C237.565 227.512 237.732 227.756 237.844 228.026C237.955 228.296 238.007 228.586 237.998 228.878C238.004 229.17 237.949 229.459 237.838 229.729C237.727 229.998 237.562 230.242 237.352 230.445C236.931 230.851 236.37 231.081 235.785 231.09C235.474 231.054 235.175 230.95 234.91 230.785C234.644 230.621 234.418 230.4 234.248 230.138Z" fill="#263238"/>
<path d="M239.627 225.868C239.61 225.662 239.635 225.455 239.698 225.259C239.762 225.062 239.864 224.88 239.998 224.723C240.132 224.566 240.296 224.437 240.48 224.344C240.665 224.25 240.866 224.194 241.072 224.179C241.274 224.194 241.471 224.25 241.651 224.342C241.832 224.433 241.993 224.56 242.124 224.714C242.255 224.868 242.355 225.047 242.417 225.24C242.479 225.432 242.502 225.636 242.486 225.837C242.511 226.248 242.374 226.652 242.103 226.962C241.833 227.273 241.452 227.464 241.041 227.496C240.639 227.464 240.265 227.276 240 226.971C239.736 226.667 239.602 226.271 239.627 225.868ZM241.994 225.868C241.994 225.131 241.564 224.578 241.041 224.578C240.519 224.578 240.119 225.162 240.119 225.837C240.119 226.544 240.549 227.097 241.072 227.097C241.594 227.097 241.994 226.574 241.994 225.868ZM240.519 230.506L245.037 224.363C245.065 224.35 245.097 224.342 245.129 224.342C245.161 224.342 245.192 224.35 245.221 224.363C245.27 224.363 245.317 224.383 245.351 224.417C245.386 224.452 245.405 224.499 245.405 224.547L240.887 230.69C240.828 230.711 240.763 230.711 240.703 230.69C240.651 230.69 240.6 230.672 240.561 230.638C240.521 230.604 240.495 230.557 240.488 230.506C240.458 230.515 240.426 230.515 240.396 230.506H240.519ZM243.408 229.216C243.391 229.011 243.415 228.806 243.479 228.611C243.543 228.417 243.645 228.237 243.78 228.082C243.915 227.928 244.079 227.802 244.263 227.711C244.447 227.621 244.648 227.569 244.852 227.557C245.053 227.569 245.249 227.62 245.43 227.709C245.61 227.798 245.771 227.922 245.903 228.073C246.034 228.225 246.134 228.401 246.197 228.592C246.259 228.783 246.283 228.985 246.266 229.185C246.291 229.596 246.154 230 245.884 230.31C245.614 230.62 245.232 230.812 244.821 230.843C244.427 230.804 244.064 230.612 243.811 230.307C243.558 230.002 243.435 229.61 243.469 229.216H243.408ZM245.774 229.216C245.774 228.479 245.344 227.956 244.821 227.956C244.299 227.956 243.869 228.509 243.869 229.185C243.834 229.482 243.918 229.781 244.102 230.016C244.286 230.252 244.555 230.406 244.852 230.444C245.375 230.444 245.774 229.891 245.774 229.216Z" fill="#263238"/>
<path d="M285.269 207.533H254.719V209.069H285.269V207.533Z" fill="white"/>
<path d="M288.525 208.302C288.525 208.946 288.333 209.575 287.976 210.111C287.618 210.646 287.109 211.063 286.513 211.31C285.918 211.556 285.263 211.62 284.631 211.495C283.999 211.369 283.419 211.059 282.963 210.604C282.507 210.149 282.197 209.568 282.071 208.937C281.946 208.305 282.01 207.651 282.257 207.056C282.503 206.461 282.921 205.953 283.457 205.595C283.992 205.237 284.622 205.046 285.267 205.046C286.131 205.046 286.959 205.389 287.57 206C288.181 206.61 288.525 207.438 288.525 208.302Z" fill="white"/>
<path d="M305.525 205.445C306.226 207.026 306.409 208.789 306.047 210.481C305.733 212.342 304.939 214.089 303.742 215.549C303.233 216.23 302.582 216.791 301.833 217.194C301.085 217.598 300.257 217.833 299.408 217.883C298.661 217.873 297.933 217.647 297.311 217.233C296.69 216.819 296.201 216.234 295.905 215.549C295.201 213.957 295.018 212.183 295.382 210.481C295.703 208.632 296.497 206.896 297.687 205.445C298.197 204.765 298.849 204.205 299.597 203.802C300.346 203.399 301.172 203.163 302.021 203.11C302.769 203.116 303.499 203.34 304.121 203.755C304.744 204.17 305.231 204.757 305.525 205.445ZM303.711 210.481C303.984 209.225 303.855 207.914 303.342 206.734C303.212 206.376 302.98 206.063 302.674 205.833C302.368 205.604 302.003 205.469 301.621 205.445C301.181 205.488 300.756 205.626 300.374 205.848C299.992 206.071 299.663 206.373 299.408 206.734C298.545 207.825 297.964 209.112 297.718 210.481C297.445 211.738 297.574 213.049 298.087 214.228C298.212 214.593 298.443 214.912 298.749 215.147C299.055 215.382 299.423 215.522 299.808 215.549C300.256 215.506 300.689 215.366 301.077 215.138C301.464 214.909 301.797 214.599 302.052 214.228C302.917 213.142 303.488 211.852 303.711 210.481Z" fill="white"/>
<path d="M319.446 216.746C319.365 217.06 319.188 217.34 318.94 217.549C318.693 217.758 318.386 217.885 318.063 217.913H310.533C310.378 217.914 310.225 217.879 310.086 217.809C309.947 217.74 309.826 217.639 309.734 217.514C309.577 217.241 309.528 216.92 309.596 216.613C309.665 216.306 309.845 216.036 310.103 215.855L317.356 210.235C317.996 209.728 318.432 209.009 318.586 208.208C318.652 207.892 318.653 207.566 318.59 207.249C318.526 206.932 318.4 206.632 318.217 206.365C317.994 206.083 317.709 205.855 317.384 205.7C317.059 205.546 316.702 205.469 316.342 205.475C315.628 205.495 314.939 205.742 314.375 206.181L313.637 206.765C313.529 206.874 313.4 206.961 313.257 207.021C313.115 207.08 312.962 207.111 312.808 207.111C312.653 207.111 312.5 207.08 312.358 207.021C312.216 206.961 312.086 206.874 311.978 206.765C311.828 206.49 311.782 206.171 311.85 205.866C311.918 205.561 312.095 205.291 312.347 205.106L313.115 204.523C314.154 203.716 315.426 203.264 316.742 203.233C317.411 203.211 318.076 203.35 318.681 203.639C319.285 203.927 319.811 204.357 320.215 204.891C320.557 205.382 320.796 205.937 320.918 206.523C321.039 207.109 321.041 207.714 320.922 208.3C320.642 209.791 319.821 211.125 318.617 212.047L313.976 215.702H318.463C318.597 215.702 318.73 215.729 318.854 215.782C318.977 215.835 319.089 215.913 319.181 216.011C319.273 216.109 319.344 216.225 319.39 216.351C319.436 216.478 319.455 216.612 319.446 216.746Z" fill="white"/>
<path d="M338.961 224.333H293.658V226.728H338.961V224.333Z" fill="white"/>
<path d="M319.689 230.323H293.656V232.718H319.689V230.323Z" fill="white"/>
<path d="M335.644 236.279H293.66V238.675H335.644V236.279Z" fill="white"/>
<path d="M348.733 242.238H293.656V244.633H348.733V242.238Z" fill="white"/>
<path d="M325.59 248.226H293.656V250.622H325.59V248.226Z" fill="white"/>
<path d="M555.089 189.536H395.053V264.903H555.089V189.536Z" fill="#004EFF"/>
<path d="M471.767 189.536H395.053V264.903H471.767V189.536Z" fill="#EBEBEB"/>
<path d="M460.581 227.219C460.575 233.801 458.174 240.156 453.826 245.099C449.477 250.043 443.478 253.237 436.947 254.087C430.415 254.937 423.798 253.385 418.327 249.719C412.857 246.054 408.907 240.525 407.214 234.165C405.522 227.804 406.202 221.045 409.128 215.149C412.054 209.252 417.026 204.62 423.117 202.116C429.208 199.612 436.003 199.408 442.234 201.54C448.465 203.672 453.708 207.996 456.985 213.706C459.345 217.819 460.585 222.478 460.581 227.219Z" fill="#263238"/>
<path d="M460.581 227.219C460.592 232.698 458.941 238.052 455.846 242.574C452.752 247.097 448.359 250.578 443.247 252.557L433.504 227.219V200.07C437.073 200.066 440.608 200.766 443.906 202.129C447.204 203.491 450.201 205.491 452.725 208.013C455.249 210.535 457.25 213.529 458.614 216.825C459.978 220.121 460.678 223.653 460.674 227.219H460.581Z" fill="#004EFF"/>
<path d="M452.193 227.219C452.193 230.93 451.091 234.558 449.028 237.644C446.964 240.73 444.032 243.135 440.6 244.555C437.169 245.976 433.393 246.347 429.75 245.623C426.107 244.899 422.761 243.112 420.135 240.488C417.509 237.863 415.72 234.52 414.996 230.88C414.271 227.24 414.643 223.467 416.064 220.038C417.486 216.609 419.893 213.678 422.981 211.616C426.069 209.554 429.7 208.454 433.414 208.454C435.88 208.454 438.322 208.939 440.6 209.882C442.879 210.825 444.949 212.207 446.693 213.95C448.436 215.692 449.82 217.761 450.763 220.038C451.707 222.314 452.193 224.755 452.193 227.219Z" fill="white"/>
<path d="M427.878 229.432H424.189C424.164 229.412 424.143 229.386 424.129 229.357C424.115 229.327 424.107 229.295 424.107 229.263C424.107 229.23 424.115 229.198 424.129 229.169C424.143 229.14 424.164 229.114 424.189 229.094L427.97 224.426C428.013 224.391 428.068 224.372 428.123 224.372C428.179 224.372 428.234 224.391 428.277 224.426V228.909H428.707C428.764 228.909 428.819 228.932 428.86 228.972C428.9 229.013 428.923 229.067 428.923 229.124C428.923 229.182 428.9 229.236 428.86 229.277C428.819 229.317 428.764 229.339 428.707 229.339H428.277V230.445C428.277 230.51 428.251 230.573 428.205 230.619C428.159 230.665 428.096 230.691 428.031 230.691C427.972 230.683 427.917 230.654 427.877 230.609C427.837 230.564 427.816 230.505 427.816 230.445L427.878 229.432ZM427.878 229.002V225.163L424.804 229.002H427.878Z" fill="#263238"/>
<path d="M430.522 230.137C430.494 230.09 430.482 230.034 430.488 229.98C430.495 229.925 430.519 229.874 430.558 229.835C430.597 229.796 430.648 229.771 430.703 229.765C430.758 229.758 430.814 229.77 430.861 229.799C431.02 229.964 431.211 230.095 431.423 230.184C431.634 230.274 431.861 230.32 432.09 230.321C432.551 230.307 432.989 230.121 433.319 229.799C433.638 229.47 433.814 229.029 433.811 228.571C433.816 228.343 433.775 228.117 433.691 227.906C433.606 227.695 433.48 227.503 433.319 227.342C433.159 227.179 432.968 227.049 432.757 226.96C432.546 226.872 432.319 226.826 432.09 226.826C431.861 226.826 431.634 226.872 431.423 226.96C431.212 227.049 431.021 227.179 430.861 227.342C430.815 227.385 430.754 227.409 430.692 227.409C430.629 227.409 430.568 227.385 430.522 227.342L430.83 224.732C430.815 224.681 430.815 224.628 430.83 224.578H433.903C433.96 224.578 434.015 224.601 434.055 224.641C434.096 224.681 434.118 224.736 434.118 224.793C434.123 224.824 434.121 224.855 434.112 224.885C434.103 224.915 434.088 224.942 434.067 224.965C434.047 224.989 434.022 225.007 433.993 225.02C433.965 225.033 433.934 225.039 433.903 225.039H431.076L430.83 226.974C431.167 226.78 431.547 226.674 431.936 226.666C432.523 226.668 433.086 226.9 433.504 227.311C433.706 227.518 433.865 227.763 433.971 228.032C434.076 228.301 434.127 228.589 434.118 228.878C434.128 229.46 433.907 230.023 433.504 230.444C433.079 230.845 432.521 231.075 431.936 231.089C431.649 231.033 431.375 230.92 431.133 230.757C430.89 230.593 430.682 230.382 430.522 230.137Z" fill="#263238"/>
<path d="M435.992 225.868C435.975 225.662 435.999 225.455 436.062 225.259C436.126 225.062 436.228 224.88 436.362 224.723C436.496 224.566 436.66 224.437 436.845 224.344C437.029 224.25 437.23 224.194 437.436 224.179C437.638 224.194 437.835 224.25 438.016 224.341C438.196 224.433 438.357 224.56 438.488 224.714C438.62 224.868 438.719 225.047 438.781 225.24C438.843 225.432 438.867 225.635 438.85 225.837C438.867 226.041 438.842 226.247 438.778 226.442C438.714 226.636 438.612 226.816 438.477 226.971C438.343 227.125 438.179 227.251 437.994 227.341C437.81 227.432 437.61 227.484 437.405 227.496C437.006 227.457 436.637 227.266 436.374 226.963C436.111 226.661 435.974 226.269 435.992 225.868ZM438.389 225.868C438.424 225.567 438.341 225.265 438.158 225.024C437.974 224.784 437.705 224.624 437.405 224.578C436.883 224.578 436.483 225.162 436.483 225.837C436.483 226.544 436.913 227.096 437.436 227.096C437.958 227.096 438.389 226.574 438.389 225.868ZM436.883 230.505L441.401 224.363H441.585C441.585 224.363 441.8 224.363 441.8 224.547L437.282 230.69C437.254 230.706 437.222 230.714 437.19 230.714C437.158 230.714 437.126 230.706 437.098 230.69C437.049 230.69 437.002 230.67 436.968 230.636C436.933 230.601 436.914 230.554 436.914 230.505C436.914 230.505 436.852 230.536 436.883 230.505ZM439.772 229.216C439.755 229.011 439.779 228.806 439.843 228.611C439.907 228.417 440.01 228.237 440.144 228.082C440.279 227.928 440.443 227.801 440.627 227.711C440.811 227.621 441.012 227.569 441.216 227.557C441.417 227.569 441.613 227.62 441.794 227.709C441.974 227.798 442.135 227.921 442.267 228.073C442.399 228.225 442.499 228.401 442.561 228.592C442.623 228.783 442.647 228.985 442.63 229.185C442.656 229.595 442.518 230 442.248 230.31C441.978 230.62 441.596 230.812 441.186 230.843C440.985 230.832 440.789 230.78 440.608 230.691C440.428 230.603 440.267 230.479 440.135 230.327C440.004 230.176 439.903 229.999 439.841 229.808C439.779 229.617 439.755 229.416 439.772 229.216ZM442.169 229.216C442.204 228.919 442.12 228.62 441.936 228.384C441.752 228.148 441.482 227.995 441.186 227.956C440.632 227.956 440.264 228.509 440.264 229.185C440.264 229.922 440.694 230.444 441.216 230.444C441.739 230.444 442.169 229.891 442.169 229.216Z" fill="#263238"/>
<path d="M481.295 207.533H450.744V209.068H481.295V207.533Z" fill="white"/>
<path d="M484.555 208.3C484.555 208.943 484.364 209.573 484.006 210.108C483.648 210.644 483.139 211.061 482.544 211.307C481.948 211.554 481.293 211.618 480.661 211.492C480.029 211.367 479.449 211.057 478.993 210.602C478.538 210.146 478.227 209.566 478.102 208.935C477.976 208.303 478.041 207.649 478.287 207.054C478.534 206.459 478.951 205.95 479.487 205.593C480.023 205.235 480.653 205.044 481.297 205.044C481.726 205.04 482.151 205.121 482.549 205.284C482.946 205.446 483.306 205.685 483.61 205.988C483.913 206.292 484.153 206.652 484.315 207.049C484.477 207.446 484.559 207.871 484.555 208.3Z" fill="white"/>
<path d="M501.642 205.444C502.343 207.026 502.526 208.789 502.164 210.481C501.85 212.342 501.056 214.089 499.859 215.549C499.351 216.23 498.699 216.791 497.951 217.194C497.202 217.598 496.374 217.832 495.526 217.883C494.779 217.873 494.05 217.647 493.428 217.233C492.807 216.819 492.318 216.234 492.022 215.549C491.318 213.957 491.135 212.183 491.499 210.481C491.82 208.632 492.614 206.896 493.804 205.444C494.315 204.765 494.966 204.205 495.715 203.802C496.463 203.399 497.29 203.163 498.138 203.11C498.886 203.116 499.616 203.34 500.238 203.755C500.861 204.17 501.349 204.757 501.642 205.444ZM499.859 210.481C500.112 209.221 499.973 207.913 499.46 206.734C499.329 206.376 499.097 206.062 498.791 205.833C498.486 205.604 498.12 205.469 497.739 205.444C497.299 205.488 496.873 205.625 496.491 205.848C496.109 206.071 495.78 206.373 495.526 206.734C494.662 207.825 494.081 209.112 493.835 210.481C493.586 211.739 493.714 213.043 494.204 214.228C494.333 214.59 494.564 214.908 494.87 215.142C495.175 215.377 495.541 215.518 495.925 215.549C496.373 215.506 496.806 215.366 497.194 215.138C497.582 214.909 497.914 214.599 498.169 214.228C498.998 213.127 499.547 211.841 499.767 210.481H499.859Z" fill="white"/>
<path d="M515.105 208.916C515.507 209.432 515.794 210.028 515.948 210.663C516.102 211.298 516.118 211.959 515.997 212.601C515.706 214.057 514.925 215.369 513.784 216.318C512.687 217.285 511.281 217.829 509.819 217.853C509.167 217.871 508.519 217.742 507.923 217.476C507.327 217.21 506.799 216.814 506.377 216.318C506.197 216.052 506.128 215.726 506.186 215.411C506.243 215.095 506.422 214.814 506.684 214.628C506.908 214.405 507.212 214.28 507.529 214.28C507.846 214.28 508.15 214.405 508.374 214.628C508.597 214.899 508.879 215.115 509.199 215.259C509.519 215.403 509.868 215.471 510.218 215.458C511.02 215.441 511.791 215.148 512.401 214.628C513.013 214.103 513.434 213.391 513.599 212.601C513.669 212.253 513.66 211.894 513.575 211.549C513.49 211.204 513.331 210.882 513.107 210.605C512.882 210.335 512.6 210.119 512.281 209.97C511.963 209.821 511.615 209.745 511.263 209.745C511.105 209.764 510.944 209.739 510.798 209.675C510.652 209.61 510.526 209.507 510.433 209.377C510.265 209.11 510.2 208.791 510.251 208.48C510.302 208.168 510.465 207.887 510.71 207.688L513.261 205.507H509.85C509.698 205.517 509.547 205.491 509.408 205.431C509.268 205.371 509.146 205.278 509.049 205.161C508.953 205.044 508.886 204.905 508.855 204.757C508.823 204.609 508.827 204.456 508.866 204.309C508.929 203.978 509.104 203.679 509.361 203.461C509.618 203.243 509.943 203.12 510.28 203.111H516.427C516.576 203.106 516.723 203.136 516.859 203.199C516.994 203.261 517.112 203.354 517.205 203.471C517.298 203.587 517.362 203.724 517.392 203.869C517.422 204.015 517.418 204.166 517.38 204.309C517.36 204.51 517.285 204.701 517.164 204.862L516.888 205.169L513.814 207.903C514.304 208.157 514.742 208.501 515.105 208.916Z" fill="white"/>
<path d="M532.992 224.333H489.717V226.729H532.992V224.333Z" fill="white"/>
<path d="M544.794 230.322H489.717V232.717H544.794V230.322Z" fill="white"/>
<path d="M522.788 236.28H489.717V238.675H522.788V236.28Z" fill="white"/>
<path d="M537.819 242.237H489.719V244.632H537.819V242.237Z" fill="white"/>
<path d="M509.141 248.227H489.717V250.622H509.141V248.227Z" fill="white"/>
<path d="M751.117 189.535H591.08V264.902H751.117V189.535Z" fill="#004EFF"/>
<path d="M667.794 189.535H591.08V264.902H667.794V189.535Z" fill="#EBEBEB"/>
<path d="M656.606 227.22C656.6 233.801 654.199 240.156 649.851 245.1C645.503 250.043 639.504 253.238 632.972 254.088C626.441 254.938 619.823 253.386 614.352 249.72C608.882 246.055 604.932 240.526 603.24 234.165C601.547 227.805 602.227 221.046 605.153 215.15C608.079 209.253 613.051 204.621 619.142 202.117C625.234 199.613 632.028 199.408 638.26 201.541C644.491 203.673 649.733 207.997 653.01 213.707C655.377 217.817 656.617 222.478 656.606 227.22Z" fill="#263238"/>
<path d="M656.607 227.22C656.6 232.401 655.11 237.472 652.312 241.834C649.514 246.197 645.525 249.668 640.816 251.838C636.108 254.008 630.876 254.786 625.739 254.081C620.602 253.376 615.775 251.216 611.826 247.858L629.437 227.22V200.07C633.006 200.066 636.541 200.766 639.839 202.129C643.138 203.492 646.134 205.491 648.658 208.013C651.182 210.535 653.183 213.529 654.547 216.825C655.911 220.121 656.611 223.653 656.607 227.22Z" fill="#004EFF"/>
<path d="M648.218 227.22C648.218 230.931 647.117 234.559 645.053 237.645C642.99 240.731 640.057 243.136 636.626 244.556C633.194 245.977 629.418 246.348 625.776 245.624C622.133 244.9 618.787 243.113 616.16 240.489C613.534 237.864 611.746 234.521 611.021 230.881C610.296 227.241 610.668 223.468 612.09 220.039C613.511 216.61 615.918 213.679 619.006 211.617C622.094 209.555 625.725 208.455 629.439 208.455C634.42 208.455 639.196 210.432 642.718 213.951C646.24 217.47 648.218 222.243 648.218 227.22Z" fill="white"/>
<path d="M620.647 230.137C620.615 230.118 620.588 230.091 620.568 230.06C620.548 230.029 620.535 229.993 620.531 229.956C620.527 229.919 620.531 229.882 620.543 229.847C620.555 229.812 620.575 229.78 620.601 229.754C620.628 229.727 620.659 229.707 620.695 229.695C620.73 229.683 620.767 229.679 620.804 229.683C620.841 229.688 620.876 229.701 620.908 229.721C620.939 229.741 620.965 229.767 620.985 229.799C621.311 230.126 621.752 230.313 622.214 230.321C622.444 230.32 622.671 230.274 622.882 230.184C623.093 230.095 623.284 229.964 623.444 229.799C623.771 229.473 623.958 229.032 623.966 228.571C623.958 228.109 623.771 227.668 623.444 227.342C623.117 227.015 622.676 226.828 622.214 226.82C621.752 226.828 621.311 227.015 620.985 227.342C620.965 227.363 620.941 227.379 620.915 227.39C620.888 227.401 620.86 227.407 620.831 227.407C620.803 227.407 620.774 227.401 620.748 227.39C620.721 227.379 620.698 227.363 620.678 227.342L621.016 224.732C621.002 224.708 620.995 224.682 620.995 224.655C620.995 224.628 621.002 224.601 621.016 224.578C621.016 224.578 621.016 224.578 621.169 224.578H624.243C624.273 224.574 624.305 224.576 624.335 224.585C624.364 224.593 624.392 224.609 624.415 224.629C624.439 224.65 624.457 224.675 624.47 224.703C624.483 224.731 624.489 224.762 624.489 224.793C624.494 224.826 624.491 224.861 624.481 224.893C624.47 224.925 624.452 224.954 624.428 224.978C624.404 225.002 624.375 225.02 624.343 225.031C624.31 225.041 624.276 225.044 624.243 225.039H621.507L621.261 226.974C621.6 226.783 621.98 226.678 622.368 226.667C622.659 226.667 622.946 226.724 623.215 226.835C623.483 226.946 623.727 227.109 623.933 227.314C624.138 227.519 624.301 227.763 624.412 228.032C624.524 228.3 624.581 228.587 624.581 228.878C624.579 229.464 624.347 230.026 623.935 230.444C623.511 230.845 622.952 231.075 622.368 231.089C622.027 231.071 621.696 230.976 621.397 230.812C621.099 230.647 620.842 230.416 620.647 230.137Z" fill="#263238"/>
<path d="M626.271 230.138C626.242 230.09 626.23 230.035 626.236 229.98C626.243 229.925 626.267 229.874 626.306 229.835C626.345 229.796 626.396 229.772 626.451 229.765C626.506 229.759 626.562 229.771 626.609 229.8C626.768 229.964 626.959 230.095 627.171 230.185C627.382 230.274 627.609 230.321 627.838 230.322C628.3 230.314 628.741 230.126 629.067 229.8C629.386 229.47 629.562 229.029 629.559 228.571C629.564 228.344 629.523 228.118 629.439 227.907C629.354 227.696 629.228 227.504 629.067 227.343C628.907 227.179 628.716 227.049 628.505 226.961C628.294 226.872 628.067 226.826 627.838 226.826C627.609 226.826 627.382 226.872 627.171 226.961C626.96 227.049 626.769 227.179 626.609 227.343C626.563 227.386 626.503 227.41 626.44 227.41C626.377 227.41 626.316 227.386 626.271 227.343L626.609 224.732C626.595 224.709 626.588 224.682 626.588 224.655C626.588 224.628 626.595 224.602 626.609 224.579H629.682C629.742 224.578 629.801 224.6 629.846 224.639C629.891 224.679 629.92 224.734 629.928 224.794C629.928 224.859 629.902 224.921 629.856 224.967C629.81 225.013 629.747 225.039 629.682 225.039H626.854L626.609 226.974C626.947 226.784 627.327 226.678 627.715 226.667C628.302 226.667 628.865 226.9 629.28 227.315C629.695 227.729 629.928 228.292 629.928 228.878C629.926 229.465 629.694 230.027 629.283 230.445C628.858 230.846 628.299 231.075 627.715 231.09C627.422 231.038 627.143 230.926 626.894 230.763C626.646 230.599 626.434 230.386 626.271 230.138Z" fill="#263238"/>
<path d="M631.74 225.868C631.695 225.654 631.699 225.432 631.751 225.219C631.803 225.007 631.902 224.808 632.04 224.638C632.178 224.468 632.353 224.331 632.551 224.237C632.749 224.143 632.965 224.095 633.184 224.095C633.403 224.095 633.62 224.143 633.818 224.237C634.016 224.331 634.19 224.468 634.328 224.638C634.467 224.808 634.566 225.007 634.618 225.219C634.669 225.432 634.673 225.654 634.629 225.868C634.629 226.251 634.477 226.618 634.206 226.889C633.935 227.16 633.567 227.312 633.184 227.312C632.801 227.312 632.434 227.16 632.163 226.889C631.892 226.618 631.74 226.251 631.74 225.868ZM634.137 225.868C634.137 225.131 633.707 224.578 633.184 224.578C632.662 224.578 632.231 225.162 632.231 225.837C632.231 226.544 632.662 227.097 633.184 227.097C633.707 227.097 634.137 226.575 634.137 225.868ZM632.631 230.506L637.18 224.363C637.18 224.363 637.395 224.363 637.395 224.548L632.846 230.69C632.818 230.706 632.786 230.715 632.754 230.715C632.722 230.715 632.69 230.706 632.662 230.69C632.613 230.69 632.566 230.671 632.531 230.636C632.497 230.601 632.477 230.555 632.477 230.506C632.477 230.506 632.6 230.536 632.631 230.506ZM635.52 229.216C635.503 229.012 635.528 228.806 635.592 228.611C635.656 228.417 635.758 228.237 635.893 228.082C636.027 227.928 636.191 227.802 636.376 227.712C636.56 227.621 636.76 227.569 636.965 227.557C637.165 227.569 637.362 227.621 637.542 227.709C637.722 227.798 637.883 227.922 638.015 228.073C638.147 228.225 638.247 228.402 638.309 228.592C638.372 228.783 638.395 228.985 638.378 229.185C638.409 229.39 638.394 229.599 638.336 229.798C638.278 229.998 638.178 230.182 638.043 230.339C637.907 230.495 637.739 230.621 637.55 230.708C637.362 230.794 637.157 230.839 636.949 230.839C636.742 230.839 636.537 230.794 636.348 230.708C636.16 230.621 635.992 230.495 635.856 230.339C635.72 230.182 635.62 229.998 635.562 229.798C635.504 229.599 635.49 229.39 635.52 229.185V229.216ZM637.917 229.216C637.93 229.066 637.913 228.916 637.867 228.773C637.821 228.631 637.748 228.498 637.651 228.384C637.554 228.27 637.435 228.176 637.301 228.108C637.168 228.04 637.022 227.999 636.872 227.987C636.319 227.987 635.92 228.54 635.92 229.216C635.92 229.953 636.35 230.475 636.872 230.475C637.395 230.475 637.917 229.891 637.917 229.216Z" fill="#263238"/>
<path d="M677.353 207.532H646.803V209.068H677.353V207.532Z" fill="white"/>
<path d="M680.58 208.301C680.58 208.945 680.389 209.574 680.031 210.11C679.673 210.645 679.164 211.062 678.569 211.309C677.974 211.555 677.319 211.62 676.687 211.494C676.055 211.368 675.474 211.058 675.019 210.603C674.563 210.148 674.253 209.568 674.127 208.936C674.001 208.305 674.066 207.65 674.312 207.055C674.559 206.46 674.977 205.952 675.512 205.594C676.048 205.237 676.678 205.046 677.322 205.046C677.751 205.042 678.177 205.123 678.574 205.285C678.971 205.447 679.332 205.687 679.635 205.99C679.939 206.293 680.178 206.654 680.341 207.05C680.503 207.447 680.584 207.872 680.58 208.301Z" fill="white"/>
<path d="M697.575 205.444C698.277 207.026 698.46 208.789 698.098 210.481C697.784 212.342 696.989 214.089 695.793 215.549C695.289 216.227 694.643 216.788 693.899 217.191C693.156 217.594 692.334 217.83 691.49 217.883C690.741 217.881 690.009 217.658 689.386 217.243C688.763 216.828 688.276 216.239 687.986 215.549C687.272 213.96 687.078 212.186 687.433 210.481C687.753 208.632 688.547 206.896 689.738 205.444C690.248 204.765 690.9 204.205 691.648 203.802C692.396 203.399 693.223 203.163 694.071 203.11C694.82 203.112 695.552 203.335 696.175 203.75C696.798 204.165 697.285 204.754 697.575 205.444ZM695.793 210.481C696.045 209.221 695.906 207.913 695.393 206.734C695.263 206.376 695.03 206.062 694.725 205.833C694.419 205.604 694.053 205.469 693.672 205.444C693.232 205.488 692.807 205.625 692.425 205.848C692.043 206.071 691.713 206.373 691.459 206.734C690.593 207.82 690.021 209.11 689.799 210.481C689.517 211.735 689.635 213.045 690.137 214.228C690.269 214.595 690.504 214.916 690.816 215.15C691.127 215.385 691.5 215.523 691.889 215.549C692.332 215.502 692.759 215.359 693.141 215.131C693.523 214.903 693.851 214.595 694.102 214.228C694.965 213.137 695.545 211.85 695.793 210.481Z" fill="white"/>
<path d="M713.405 213.982C713.337 214.302 713.164 214.591 712.914 214.802C712.663 215.014 712.35 215.136 712.022 215.149H711.807L711.53 216.746C711.469 217.064 711.302 217.352 711.056 217.564C710.811 217.775 710.502 217.898 710.178 217.913C710.032 217.916 709.887 217.886 709.753 217.825C709.62 217.765 709.502 217.675 709.408 217.564C709.314 217.452 709.246 217.32 709.209 217.179C709.172 217.038 709.167 216.89 709.194 216.746L709.502 215.149H702.832C702.706 215.158 702.579 215.137 702.462 215.089C702.345 215.041 702.24 214.967 702.156 214.873C702.047 214.767 701.961 214.64 701.902 214.5C701.843 214.361 701.812 214.21 701.812 214.059C701.812 213.907 701.843 213.757 701.902 213.617C701.961 213.477 702.047 213.351 702.156 213.245L711.653 203.571H712.544V203.939L711.038 212.477H711.254C711.453 212.192 711.758 211.998 712.101 211.937C712.444 211.877 712.797 211.955 713.082 212.155C713.368 212.354 713.562 212.659 713.622 213.002C713.683 213.344 713.605 213.697 713.405 213.982ZM709.901 212.815L710.823 207.594L705.691 212.815H709.901Z" fill="white"/>
<path d="M721.12 224.332H685.744V226.728H721.12V224.332Z" fill="white"/>
<path d="M740.821 230.321H685.744V232.717H740.821V230.321Z" fill="white"/>
<path d="M710.824 236.28H685.744V238.675H710.824V236.28Z" fill="white"/>
<path d="M730.74 242.238H685.744V244.634H730.74V242.238Z" fill="white"/>
<path d="M725.576 248.226H685.744V250.622H725.576V248.226Z" fill="white"/>
<path d="M1044.85 188H787.109V264.903H1044.85V188Z" fill="#EBEBEB"/>
<path d="M1031.17 197.706H800.814V204.34H1031.17V197.706Z" fill="white"/>
<path d="M918.59 197.706H800.814V204.34H918.59V197.706Z" fill="#004EFF"/>
<path d="M1031.17 210.42H800.812V217.054H1031.17V210.42Z" fill="white"/>
<path d="M1012.11 210.42H800.812V217.054H1012.11V210.42Z" fill="#004EFF"/>
<path d="M1031.17 223.135H800.812V229.769H1031.17V223.135Z" fill="white"/>
<path d="M868.982 223.135H800.812V229.769H868.982V223.135Z" fill="#004EFF"/>
<path d="M1031.17 235.849H800.812V242.483H1031.17V235.849Z" fill="white"/>
<path d="M981.841 235.849H800.812V242.483H981.841V235.849Z" fill="#004EFF"/>
<path d="M1031.17 248.533H800.814V255.167H1031.17V248.533Z" fill="white"/>
<path d="M933.927 248.533H800.814V255.167H933.927V248.533Z" fill="#004EFF"/>
<path d="M0.00292969 158.166L146.516 157.798C195.384 157.798 244.222 157.798 293.06 158.166C244.222 158.504 195.384 158.412 146.516 158.565L0.00292969 158.166Z" fill="#65C6F7"/>
<path d="M0 174.413L146.513 174.045C195.382 174.045 244.219 174.045 293.057 174.413C244.219 174.751 195.382 174.659 146.513 174.813L0 174.413Z" fill="#65C6F7"/>
<path d="M0.000976562 139.493L146.514 139.125C195.382 139.125 244.22 139.125 293.058 139.493C244.22 139.831 195.382 139.739 146.514 139.862L0.000976562 139.493Z" fill="#65C6F7"/>
<path d="M0 120.822L146.513 120.422C195.382 120.576 244.219 120.422 293.057 120.822C244.219 121.159 195.382 121.067 146.513 121.19L0 120.822Z" fill="#65C6F7"/>
<path d="M0.00292969 102.148L146.516 101.749C195.384 101.902 244.222 101.749 293.06 102.148C244.222 102.455 195.384 102.394 146.516 102.516L0.00292969 102.148Z" fill="#65C6F7"/>
<path d="M0.00195312 83.4436L146.515 83.0751C195.383 83.0751 244.221 83.075 293.059 83.4436C244.221 83.7814 195.383 83.72 146.515 83.8429L0.00195312 83.4436Z" fill="#65C6F7"/>
<path d="M0.00195312 64.7718L146.515 64.4033C195.383 64.4033 244.221 64.4033 293.059 64.7718C244.221 65.1097 195.383 65.0175 146.515 65.1711L0.00195312 64.7718Z" fill="#65C6F7"/>
<path d="M0 46.0995L146.513 45.731C195.382 45.731 244.219 45.7309 293.057 46.0995C244.219 46.4373 195.382 46.3452 146.513 46.4988L0 46.0995Z" fill="#65C6F7"/>
<path d="M0.000976562 27.4254L146.514 27.0262C195.382 27.0262 244.22 27.0262 293.058 27.4254C244.22 27.7633 195.382 27.6712 146.514 27.794L0.000976562 27.4254Z" fill="#65C6F7"/>
<path d="M0 8.75303L146.513 8.35376C195.382 8.50732 244.219 8.35377 293.057 8.75303C244.219 9.09086 195.382 8.99871 146.513 9.12156L0 8.75303Z" fill="#65C6F7"/>
<path d="M13.2197 149.537L52.3759 109.181L68.4195 117.136L110.711 76.6575L122.359 85.656L149.56 69.3786L187.241 95.3303L195.6 86.3317L217.115 105.035L250.892 78.5001L270.962 94.6546L293.091 88.4201V175.304H13.2197L13.2197 149.537Z" fill="#A6A6A6"/>
<path d="M13.2187 149.751L50.6846 141.736L85.9067 109.181L100.26 118.149L128.69 91.3987L151.372 100.182L161.33 92.3507L189.176 120.575L228.424 78.4996L259.036 109.181L293.09 93.4871V175.304H13.2187L13.2187 149.751Z" fill="white"/>
<path d="M14.0791 148.738L61.8718 122.91L87.6276 133.843L101.704 129.359L116.795 138.143L154.568 116.921L161.33 126.134L174.454 122.449L200.578 133.843L236.2 118.763L257.591 133.843L293.09 108.168V175.304H14.0791L14.0791 148.738Z" fill="#004EFF"/>
<path d="M14.0785 0L10.083 0L10.083 176.317H14.0785L14.0785 0Z" fill="white"/>
<path d="M293.09 176.317V172.539H10.0832V176.317H293.09Z" fill="white"/>
<path d="M560.302 153.743H545.242V168.638H560.302V153.743Z" fill="#004EFF"/>
<path d="M735.52 153.744H570.75V158.136H735.52V153.744Z" fill="white"/>
<path d="M677.217 164.248H570.752V168.64H677.217V164.248Z" fill="white"/>
<path d="M538.078 22.3275C585.594 22.0818 633.11 22.1432 680.626 22.051C728.143 21.9589 775.628 22.0511 823.144 22.3275C775.628 22.5732 728.143 22.5118 680.626 22.6039C633.11 22.696 585.686 22.5732 538.078 22.3275Z" fill="white"/>
<path d="M538.078 44.9016C585.686 44.748 633.11 44.748 680.626 44.748C728.143 44.748 775.628 44.748 823.144 45.0244C775.628 45.2394 728.143 45.178 680.626 45.3008C633.11 45.4237 585.686 45.1166 538.078 44.9016Z" fill="white"/>
<path d="M538.078 67.444C585.594 67.229 633.11 67.2903 680.626 67.1675C728.143 67.0446 775.628 67.1675 823.144 67.444C775.628 67.6896 728.143 67.6282 680.626 67.7203C633.11 67.8125 585.686 67.6896 538.078 67.444Z" fill="white"/>
<path d="M538.078 90.018C585.594 89.7723 633.11 89.8337 680.626 89.7416C728.143 89.6494 775.628 89.7416 823.144 90.018C775.628 90.2637 728.143 90.2022 680.626 90.2944C633.11 90.3865 585.686 90.2637 538.078 90.018Z" fill="white"/>
<path d="M538.078 112.591C585.686 112.314 633.11 112.314 680.626 112.314C728.143 112.314 775.628 112.314 823.144 112.591C775.628 112.806 728.143 112.744 680.626 112.867C633.11 112.99 585.686 112.806 538.078 112.591Z" fill="white"/>
<path d="M595.464 7.64771C595.894 28.7468 595.772 49.8151 595.956 70.9143C596.14 92.0134 595.956 113.082 595.464 134.15C595.065 113.082 595.157 91.9827 594.972 70.9143C594.788 49.8459 595.065 28.7468 595.464 7.64771Z" fill="white"/>
<path d="M644.763 7.64709C645.193 28.7462 645.07 49.8145 645.255 70.9136C645.439 92.0128 645.255 113.081 644.763 134.15C644.363 113.081 644.456 91.982 644.271 70.9136C644.087 49.8452 644.363 28.7462 644.763 7.64709Z" fill="white"/>
<path d="M694.062 7.64771C694.492 28.7468 694.369 49.8151 694.554 70.9143C694.738 92.0134 694.554 113.082 694.062 134.15C693.662 113.082 693.755 91.9827 693.57 70.9143C693.386 49.8459 693.662 28.7468 694.062 7.64771Z" fill="white"/>
<path d="M743.357 7.64697C743.787 28.7461 743.695 49.8144 743.848 70.9135C744.002 92.0126 743.848 113.081 743.357 134.149C742.957 113.081 743.049 91.9819 742.896 70.9135C742.742 49.8451 742.957 28.7461 743.357 7.64697Z" fill="white"/>
<path d="M792.657 7.64746C793.088 28.7466 792.995 49.8149 793.149 70.914C793.303 92.0131 793.149 113.082 792.657 134.15C792.258 113.082 792.35 91.9824 792.196 70.914C792.043 49.8456 792.258 28.7466 792.657 7.64746Z" fill="white"/>
<path opacity="0.5" d="M545.242 96.2199C553.94 96.2199 559.134 73.2781 571.459 73.2781C583.784 73.2781 585.105 90.016 595.463 90.016C605.821 90.016 605.513 60.6554 619.467 60.6554C633.42 60.6554 630.163 72.5717 644.762 72.5717C659.361 72.5717 653.982 44.9309 669.104 44.9309C684.225 44.9309 678.17 83.0445 694.06 83.0445C704.111 83.0445 708.014 70.9439 720.031 70.9439C727.961 70.9439 732.663 77.0863 743.052 77.0863C753.44 77.0863 755.684 53.8067 768.685 53.8067C781.685 53.8067 783.13 67.5656 792.658 67.5656C802.186 67.5656 805.659 45.023 823.147 45.023V134.272H545.242V96.2199Z" fill="#004EFF"/>
<path d="M545.242 97.3255V95.1142C547.885 95.1142 551.389 89.7703 554.155 85.9006C558.735 79.2054 563.376 72.2645 571.459 72.2645C579.542 72.2645 583.015 77.332 586.396 81.816C589.039 85.3478 591.805 88.9718 595.463 88.9718C599.12 88.9718 601.61 81.908 603.577 76.687C606.958 68.2412 610.431 59.519 619.467 59.519C622.157 59.3694 624.842 59.8788 627.29 61.0028C629.738 62.1269 631.874 63.8315 633.513 65.9686C634.79 67.7372 636.486 69.1621 638.449 70.116C640.412 71.0699 642.581 71.5232 644.762 71.4353C650.386 71.4353 652.568 64.955 654.689 58.7205C657.209 51.3496 659.791 43.7638 669.104 43.7638C678.416 43.7638 680.691 53.3153 683.211 63.4809C685.24 71.681 687.729 81.9081 694.06 81.9081C697.841 81.9081 700.945 79.3897 704.234 76.7178C708.449 72.521 714.086 70.0555 720.031 69.8076C723.909 70.0121 727.696 71.0603 731.127 72.8788C734.811 74.7804 738.876 75.8301 743.021 75.95C746.648 75.95 749.906 70.4218 752.549 65.9686C756.421 59.4269 760.448 52.6702 768.685 52.6702C776.922 52.6702 780.979 57.0621 784.421 60.9318C787.003 63.7573 789.461 66.4292 792.658 66.4292C795.854 66.4292 798.528 62.1603 801.264 58.3827C805.935 51.9025 811.775 43.8867 823.147 43.8867V46.0672C814.387 46.0672 809.347 53.0695 804.89 59.2119C801.048 64.4944 798.036 68.6405 792.596 68.6405C787.156 68.6405 784.052 65.3851 780.886 61.9453C777.721 58.5056 774.401 54.8815 768.592 54.8815C762.784 54.8815 759.372 61.024 756.298 66.675C752.641 72.8174 749.475 78.1612 743.052 78.1612C738.08 78.0645 733.195 76.8467 728.76 74.5986C726.072 73.1574 723.106 72.3092 720.062 72.111C714.806 72.111 711.057 75.1822 707.461 78.0691C703.865 80.956 699.931 84.2115 694.091 84.2115C684.379 84.2115 681.951 74.353 679.369 63.8802C677.402 55.9565 674.974 46.0672 669.134 46.0672C663.295 46.0672 660.652 53.0695 658.562 59.2426C656.011 66.7057 653.644 73.7694 644.792 73.7694C641.985 73.94 639.179 73.4218 636.619 72.2602C634.058 71.0986 631.82 69.3287 630.101 67.1049C628.903 65.4232 627.309 64.0619 625.459 63.1407C623.61 62.2195 621.563 61.7668 619.498 61.8224C613.566 61.8224 610.277 70.3911 607.419 77.1784C604.345 84.9793 601.856 91.1217 595.494 91.1217C589.132 91.1217 586.273 87.0062 582.831 82.6144C579.389 78.2226 576.684 74.3836 571.49 74.3836C566.296 74.3836 561.532 81.171 557.843 86.6684C553.756 92.5958 550.559 97.3255 545.242 97.3255Z" fill="#004EFF"/>
<path d="M545.239 9.02966C545.577 29.8831 545.823 50.7365 545.854 71.5899L546.161 134.15L545.239 133.628L684.191 133.782H753.683L823.144 134.058L753.683 134.334H684.191H545.239H544.348V133.812L544.624 71.2521C544.655 50.8901 544.932 29.8831 545.239 9.02966Z" fill="white"/>
<path d="M866.068 12.1621L985.104 11.8242C1024.81 11.8242 1025.06 11.8243 1064.65 12.1621C1024.97 12.4385 1024.69 12.3463 985.104 12.4691L866.068 12.1621Z" fill="white"/>
<path d="M318.268 18.5221L437.304 18.1842C477.013 18.1842 477.259 18.1843 516.846 18.5221C477.167 18.7985 476.89 18.7063 437.304 18.8291L318.268 18.5221Z" fill="white"/>
<path d="M866.068 21.99L985.104 21.6522C1024.81 21.6522 1025.06 21.6522 1064.65 21.99C1024.97 22.2664 1024.69 22.1743 985.104 22.2971L866.068 21.99Z" fill="white"/>
<path d="M318.27 28.349L437.306 28.0112C477.015 28.0112 477.261 28.0112 516.847 28.349C477.169 28.6254 476.892 28.5333 437.306 28.6562L318.27 28.349Z" fill="white"/>
<path d="M866.068 31.8176L985.104 31.4797C1024.81 31.4797 1025.06 31.4798 1064.65 31.8176C1024.97 32.094 1024.69 32.0019 985.104 32.1248L866.068 31.8176Z" fill="white"/>
<path d="M318.268 38.1776L437.304 37.8397C477.013 37.8397 477.259 37.8398 516.846 38.1776C477.167 38.454 476.89 38.3619 437.304 38.4847L318.268 38.1776Z" fill="white"/>
<path d="M866.07 41.676L985.106 41.3689C1024.82 41.3689 1025.06 41.3689 1064.65 41.676C1024.97 41.9524 1024.69 41.891 985.106 42.0138L866.07 41.676Z" fill="white"/>
<path d="M318.27 48.036L437.306 47.7289C477.015 47.7289 477.261 47.7289 516.847 48.036C477.169 48.3124 476.892 48.251 437.306 48.3738L318.27 48.036Z" fill="white"/>
<path d="M866.07 51.4426L985.106 51.1355C1024.82 51.1355 1025.06 51.1355 1064.65 51.4426C1024.97 51.719 1024.69 51.6577 985.106 51.7805L866.07 51.4426Z" fill="white"/>
<path d="M318.27 57.8026L437.306 57.4955C477.015 57.4955 477.261 57.4955 516.847 57.8026C477.169 58.079 476.892 58.0177 437.306 58.1405L318.27 57.8026Z" fill="white"/>
<path d="M866.068 61.2706L985.104 60.9635C1024.81 60.9635 1025.06 60.9635 1064.65 61.2706C1024.97 61.547 1024.69 61.4856 985.104 61.6084L866.068 61.2706Z" fill="white"/>
<path d="M318.268 67.6306L437.304 67.3235C477.013 67.3235 477.259 67.3235 516.846 67.6306C477.167 67.907 476.89 67.8455 437.304 67.9684L318.268 67.6306Z" fill="white"/>
<path d="M866.07 71.0977L985.106 70.7906C1024.82 70.7906 1025.06 70.7906 1064.65 71.0977C1024.97 71.3741 1024.69 71.3127 985.106 71.4356L866.07 71.0977Z" fill="white"/>
<path d="M318.268 77.4577L437.304 77.1506C477.013 77.1506 477.259 77.1505 516.846 77.4577C477.167 77.7341 476.89 77.6727 437.304 77.7955L318.268 77.4577Z" fill="white"/>
<path d="M866.07 80.9271L985.106 80.62C1024.82 80.62 1025.06 80.62 1064.65 80.9271C1024.97 81.2035 1024.69 81.1422 985.106 81.265L866.07 80.9271Z" fill="white"/>
<path d="M318.27 87.2862L437.306 86.9791C477.015 86.9791 477.261 86.9791 516.847 87.2862C477.169 87.5627 476.892 87.5013 437.306 87.6241L318.27 87.2862Z" fill="white"/>
<path d="M866.07 90.8147L985.106 90.5076C1024.82 90.5076 1025.06 90.5076 1064.65 90.8147C1024.97 91.0911 1024.69 91.0297 985.106 91.1218L866.07 90.8147Z" fill="white"/>
<path d="M318.27 97.1747L437.306 96.8675C477.015 96.8675 477.261 96.8676 516.847 97.1747C477.169 97.4511 476.892 97.3897 437.306 97.4818L318.27 97.1747Z" fill="white"/>
<path d="M866.07 100.581L985.106 100.274C1024.82 100.274 1025.06 100.274 1064.65 100.581C1024.97 100.858 1024.69 100.796 985.106 100.888L866.07 100.581Z" fill="white"/>
<path d="M318.27 106.941L437.306 106.634C477.015 106.634 477.261 106.634 516.847 106.941C477.169 107.218 476.892 107.156 437.306 107.249L318.27 106.941Z" fill="white"/>
<path d="M866.068 110.409L985.104 110.072C1024.81 110.072 1025.06 110.072 1064.65 110.409C1024.97 110.686 1024.69 110.624 985.104 110.717L866.068 110.409Z" fill="white"/>
<path d="M318.268 116.769L437.304 116.432C477.013 116.432 477.259 116.432 516.846 116.769C477.167 117.046 476.89 116.984 437.304 117.077L318.268 116.769Z" fill="white"/>
<path d="M866.068 120.238L985.104 119.9C1024.81 119.9 1025.06 119.9 1064.65 120.238C1024.97 120.514 1024.69 120.422 985.104 120.545L866.068 120.238Z" fill="white"/>
<path d="M318.268 126.598L437.304 126.26C477.013 126.26 477.259 126.26 516.846 126.598C477.167 126.874 476.89 126.782 437.304 126.905L318.268 126.598Z" fill="white"/>
<path d="M866.07 130.064L985.106 129.726C1024.82 129.726 1025.06 129.726 1064.65 130.064C1024.97 130.341 1024.69 130.249 985.106 130.371L866.07 130.064Z" fill="white"/>
<path d="M318.27 136.424L437.306 136.086C477.015 136.086 477.261 136.086 516.847 136.424C477.169 136.701 476.892 136.608 437.306 136.731L318.27 136.424Z" fill="white"/>
<path d="M866.07 139.954L985.106 139.616C1024.82 139.616 1025.06 139.616 1064.65 139.954C1024.97 140.23 1024.69 140.138 985.106 140.261L866.07 139.954Z" fill="white"/>
<path d="M318.27 146.314L437.306 145.976C477.015 145.976 477.261 145.976 516.847 146.314C477.169 146.59 476.892 146.498 437.306 146.621L318.27 146.314Z" fill="white"/>
<path d="M866.068 149.691L985.104 149.384C1024.81 149.384 1025.06 149.384 1064.65 149.691C1024.97 149.968 1024.69 149.906 985.104 150.029L866.068 149.691Z" fill="white"/>
<path d="M318.268 156.051L437.304 155.744C477.013 155.744 477.259 155.744 516.846 156.051C477.167 156.328 476.89 156.266 437.304 156.389L318.268 156.051Z" fill="white"/>
<path d="M909.285 80.9256H891.244V161.145H909.285V80.9256Z" fill="#004EFF"/>
<path d="M361.485 87.2848H343.443V167.504H361.485V87.2848Z" fill="#004EFF"/>
<path d="M942.787 46.9885H924.746V161.145H942.787V46.9885Z" fill="white"/>
<path d="M394.987 53.3485H376.945V167.505H394.987V53.3485Z" fill="white"/>
<path d="M976.284 71.4349H958.242V161.145H976.284V71.4349Z" fill="#A6A6A6"/>
<path d="M428.483 77.7949H410.441V167.505H428.483V77.7949Z" fill="#A6A6A6"/>
<path d="M1009.79 41.6146H991.744V161.146H1009.79V41.6146Z" fill="#004EFF"/>
<path d="M461.985 47.9745H443.943V167.505H461.985V47.9745Z" fill="#004EFF"/>
<path d="M1043.26 57.6458H1025.22V161.145H1043.26V57.6458Z" fill="white"/>
<path d="M495.457 64.0058H477.416V167.505H495.457V64.0058Z" fill="white"/>
<path d="M872.525 5.2511L873.017 44.2245L873.355 83.198C873.601 109.18 873.662 135.163 873.693 161.145L872.525 159.978H930.43L988.365 160.131L1046.27 160.5L1064.71 161.206L1046.27 161.913L988.365 162.312L930.43 162.466H872.525H871.357V161.268C871.357 135.285 871.357 109.303 871.695 83.3208L872.034 44.3474L872.525 5.2511Z" fill="white"/>
<path d="M324.724 11.6111L325.216 50.5845L325.554 89.5579C325.8 115.54 325.862 141.523 325.892 167.505L324.724 166.338H382.629L440.564 166.491L498.469 166.86L516.91 167.566L498.469 168.273L440.564 168.672L382.629 168.825H324.724H323.557V167.628C323.557 141.645 323.557 115.663 323.895 89.6808L324.233 50.7073L324.724 11.6111Z" fill="white"/>
<path d="M909.285 169.407H891.244V171.066H909.285V169.407Z" fill="white"/>
<path d="M361.485 175.767H343.443V177.426H361.485V175.767Z" fill="white"/>
<path d="M942.785 169.408H924.744V171.066H942.785V169.408Z" fill="white"/>
<path d="M394.985 175.768H376.943V177.426H394.985V175.768Z" fill="white"/>
<path d="M976.284 169.408H958.242V171.067H976.284V169.408Z" fill="white"/>
<path d="M428.483 175.768H410.441V177.427H428.483V175.768Z" fill="white"/>
<path d="M1009.79 169.407H991.744V171.065H1009.79V169.407Z" fill="white"/>
<path d="M461.985 175.767H443.943V177.425H461.985V175.767Z" fill="white"/>
<path d="M1043.26 169.407H1025.21V171.066H1043.26V169.407Z" fill="white"/>
<path d="M495.457 175.767H477.416V177.425H495.457V175.767Z" fill="white"/>
</svg>
