<svg width="41" height="40" viewBox="0 0 41 40" fill="none" xmlns="http://www.w3.org/2000/svg">
<path d="M17.167 21.6667C17.8827 22.6236 18.7959 23.4153 19.8446 23.9883C20.8932 24.5612 22.0528 24.9019 23.2447 24.9872C24.4366 25.0726 25.633 24.9006 26.7526 24.483C27.8722 24.0653 28.8889 23.4118 29.7337 22.5667L34.7337 17.5667C36.2516 15.995 37.0916 13.89 37.0726 11.705C37.0536 9.52004 36.1772 7.42994 34.6321 5.88487C33.0871 4.3398 30.997 3.46339 28.812 3.44441C26.627 3.42542 24.522 4.26537 22.9503 5.78336L20.0837 8.63336" stroke="#004EFF" stroke-width="3" stroke-linecap="round" stroke-linejoin="round"/>
<path d="M23.8337 18.3333C23.1179 17.3764 22.2047 16.5847 21.1561 16.0117C20.1074 15.4388 18.9478 15.0981 17.7559 15.0127C16.564 14.9274 15.3677 15.0994 14.2481 15.517C13.1285 15.9346 12.1118 16.5882 11.267 17.4333L6.267 22.4333C4.74902 24.005 3.90906 26.11 3.92805 28.295C3.94704 30.48 4.82344 32.5701 6.36851 34.1151C7.91358 35.6602 10.0037 36.5366 12.1887 36.5556C14.3736 36.5746 16.4786 35.7346 18.0503 34.2166L20.9003 31.3666" stroke="#004EFF" stroke-width="3" stroke-linecap="round" stroke-linejoin="round"/>
</svg>
