<svg width="420" height="420" viewBox="0 0 420 420" fill="none" xmlns="http://www.w3.org/2000/svg">
<path d="M93.0145 331.798H87.6973V332.008H93.0145V331.798Z" fill="#EBEBEB"/>
<path d="M209.868 362.138C299.817 362.138 372.735 357.881 372.735 352.63C372.735 347.378 299.817 343.121 209.868 343.121C119.918 343.121 47 347.378 47 352.63C47 357.881 119.918 362.138 209.868 362.138Z" fill="#F5F5F5"/>
<path d="M377.454 226.487H43.9408L43 57H376.514L377.454 226.487Z" fill="#004EFF"/>
<path opacity="0.7" d="M377.454 226.487H43.9408L43 57H376.514L377.454 226.487Z" fill="black"/>
<path d="M370.532 62.1827H47.8379V190.157H370.532V62.1827Z" fill="white"/>
<path opacity="0.5" d="M47.8379 190.157H370.524L199.592 225.017L47.8379 190.157Z" fill="white"/>
<path d="M181.423 175.86L127.999 106.736L75.5662 131.785L74.8438 130.265L128.503 104.636L181.885 173.71L234.183 145.914L287.498 153.634L287.263 155.297L234.486 147.661L181.423 175.86Z" fill="#263238"/>
<path d="M75.2059 135.473C77.6647 135.473 79.6579 133.48 79.6579 131.021C79.6579 128.562 77.6647 126.569 75.2059 126.569C72.7471 126.569 70.7539 128.562 70.7539 131.021C70.7539 133.48 72.7471 135.473 75.2059 135.473Z" fill="#004EFF"/>
<path d="M132.703 106.148C132.703 107.029 132.442 107.89 131.953 108.622C131.463 109.354 130.768 109.925 129.955 110.262C129.141 110.598 128.246 110.687 127.382 110.515C126.519 110.343 125.725 109.919 125.103 109.296C124.48 108.674 124.056 107.881 123.884 107.017C123.713 106.153 123.801 105.258 124.138 104.445C124.475 103.631 125.045 102.936 125.777 102.447C126.51 101.958 127.37 101.696 128.251 101.696C128.835 101.696 129.414 101.812 129.955 102.035C130.495 102.259 130.985 102.587 131.399 103C131.812 103.414 132.14 103.905 132.364 104.445C132.588 104.985 132.703 105.564 132.703 106.148Z" fill="#004EFF"/>
<path d="M185.742 174.281C185.742 175.162 185.481 176.023 184.991 176.755C184.501 177.487 183.806 178.058 182.992 178.395C182.178 178.731 181.282 178.819 180.418 178.647C179.554 178.474 178.761 178.049 178.139 177.426C177.517 176.802 177.093 176.008 176.922 175.144C176.752 174.28 176.841 173.385 177.179 172.571C177.517 171.758 178.089 171.063 178.823 170.575C179.556 170.087 180.417 169.827 181.298 169.829C181.883 169.829 182.461 169.944 183.001 170.168C183.54 170.392 184.031 170.72 184.443 171.133C184.856 171.547 185.183 172.038 185.406 172.578C185.629 173.118 185.743 173.697 185.742 174.281Z" fill="#004EFF"/>
<path d="M238.787 147.686C238.787 148.567 238.526 149.428 238.037 150.16C237.547 150.892 236.852 151.463 236.039 151.799C235.225 152.136 234.33 152.225 233.466 152.053C232.603 151.881 231.809 151.457 231.187 150.834C230.564 150.212 230.14 149.419 229.968 148.555C229.797 147.691 229.885 146.796 230.222 145.983C230.559 145.169 231.129 144.474 231.861 143.985C232.594 143.495 233.454 143.234 234.335 143.234C234.92 143.233 235.499 143.348 236.04 143.571C236.58 143.794 237.072 144.122 237.485 144.536C237.899 144.949 238.227 145.441 238.45 145.981C238.674 146.522 238.788 147.101 238.787 147.686Z" fill="#004EFF"/>
<path d="M291.834 154.91C291.834 155.791 291.573 156.652 291.083 157.384C290.594 158.116 289.899 158.687 289.085 159.023C288.272 159.36 287.377 159.449 286.513 159.277C285.65 159.105 284.856 158.681 284.234 158.058C283.611 157.436 283.187 156.643 283.015 155.779C282.843 154.915 282.932 154.02 283.269 153.207C283.606 152.393 284.176 151.698 284.908 151.209C285.64 150.719 286.501 150.458 287.382 150.458C287.966 150.458 288.545 150.574 289.085 150.797C289.626 151.021 290.116 151.349 290.53 151.762C290.943 152.176 291.271 152.667 291.495 153.207C291.719 153.747 291.834 154.326 291.834 154.91Z" fill="#004EFF"/>
<path d="M344.871 97.9416C344.871 98.8225 344.609 99.6836 344.12 100.416C343.63 101.148 342.935 101.719 342.121 102.056C341.307 102.392 340.411 102.48 339.547 102.307C338.683 102.135 337.89 101.71 337.268 101.087C336.646 100.463 336.222 99.6692 336.051 98.805C335.88 97.9409 335.97 97.0454 336.308 96.2321C336.646 95.4187 337.218 94.724 337.952 94.2358C338.685 93.7477 339.546 93.488 340.427 93.4896C341.011 93.4896 341.59 93.6048 342.13 93.8287C342.669 94.0525 343.16 94.3806 343.572 94.7941C343.985 95.2076 344.312 95.6985 344.535 96.2386C344.758 96.7786 344.872 97.3574 344.871 97.9416Z" fill="#004EFF"/>
<path d="M329.104 124.612L325.105 120.412L287.381 154.902L317.713 112.667L313.715 108.467L335.395 103.208L329.104 124.612Z" fill="#263238"/>
<path d="M69.0226 68.8691C70.1314 68.8691 70.6018 69.5243 70.6018 70.5911V71.4311C70.6018 72.5567 70.081 73.1111 68.9218 73.1111H68.233V75.8915H67.4434V68.8691H69.0226ZM68.9554 72.4307C69.5434 72.4307 69.7954 72.1619 69.7954 71.4815V70.5491C69.7954 69.9023 69.5602 69.5831 68.9554 69.5831H68.1994V72.4307H68.9554Z" fill="#004EFF"/>
<path d="M71.9137 74.4971L71.6449 75.9167H70.9141L72.2665 68.8691H73.4089L74.7529 75.9167H73.9717L73.6945 74.4971H71.9137ZM72.0145 73.8251H73.5853L72.7873 69.7511L72.0145 73.8251Z" fill="#004EFF"/>
<path d="M78.4229 70.5576V70.7508H77.6753V70.5156C77.6753 69.8856 77.4401 69.5076 76.8353 69.5076C76.2305 69.5076 75.9953 69.8856 75.9953 70.5072C75.9953 72.0864 78.3641 72.2376 78.3641 74.2284C78.3641 75.2952 77.8517 75.984 76.7765 75.984C75.7013 75.984 75.1973 75.2952 75.1973 74.2284V73.8252H75.9281V74.262C75.9281 74.9004 76.1885 75.27 76.7681 75.27C77.3477 75.27 77.6081 74.9004 77.6081 74.262C77.6081 72.6912 75.2477 72.582 75.2477 70.5576C75.2477 69.474 75.7517 68.7936 76.8101 68.7936C77.8685 68.7936 78.4229 69.4908 78.4229 70.5576Z" fill="#004EFF"/>
<path d="M80.1374 75.9167V69.5831H78.8438V68.8691H82.2037V69.5831H80.9186V75.9167H80.1374Z" fill="#004EFF"/>
<path d="M202.071 75.9167H201.365V68.8691H202.365L204.003 73.9595V68.8691H204.7V75.9167H203.86L202.054 70.2131L202.071 75.9167Z" fill="#004EFF"/>
<path d="M205.439 70.566C205.439 69.4908 205.969 68.7936 207.052 68.7936C208.136 68.7936 208.673 69.4908 208.673 70.566V74.2116C208.673 75.2868 208.136 75.984 207.052 75.984C205.969 75.984 205.439 75.2868 205.439 74.2116V70.566ZM206.212 74.2536C206.212 74.9004 206.489 75.27 207.052 75.27C207.615 75.27 207.892 74.9004 207.892 74.2536V70.524C207.892 69.894 207.632 69.5076 207.052 69.5076C206.473 69.5076 206.212 69.894 206.212 70.524V74.2536Z" fill="#004EFF"/>
<path d="M211.294 75.9167H210.219L209.244 68.8691H210.017L210.857 74.8667L211.647 68.8775H212.403L213.175 74.8835L214.015 68.8691H214.704L213.747 75.9167H212.705L212.033 71.1287L211.294 75.9167Z" fill="#004EFF"/>
<path d="M333.036 71.8345V72.5485H331.415V75.6061H330.625V68.55H333.431V69.264H331.415V71.8345H333.036Z" fill="#004EFF"/>
<path d="M334.8 73.9428C334.8 74.5728 335.052 74.9592 335.64 74.9592C336.228 74.9592 336.48 74.5728 336.48 73.9428V68.55H337.211V73.9009C337.211 74.9677 336.715 75.6816 335.631 75.6816C334.548 75.6816 334.061 74.9677 334.061 73.9009V68.55H334.833L334.8 73.9428Z" fill="#004EFF"/>
<path d="M338.974 75.6061V69.264H337.672V68.55H341.032V69.264H339.747V75.6061H338.974Z" fill="#004EFF"/>
<path d="M342.335 73.9428C342.335 74.5728 342.587 74.9592 343.175 74.9592C343.763 74.9592 344.015 74.5728 344.015 73.9428V68.55H344.754V73.9009C344.754 74.9677 344.259 75.6816 343.167 75.6816C342.075 75.6816 341.596 74.9677 341.596 73.9009V68.55H342.377L342.335 73.9428Z" fill="#004EFF"/>
<path d="M347.055 68.55C348.164 68.55 348.626 69.1128 348.626 70.1628V70.734C348.626 71.5152 348.357 71.9941 347.786 72.1873C348.432 72.3805 348.676 72.9013 348.676 73.6573V74.7576C348.655 75.0443 348.701 75.3319 348.81 75.5976H348.021C347.91 75.3322 347.864 75.0443 347.886 74.7576V73.6404C347.886 72.8004 347.517 72.5904 346.862 72.5904H346.307V75.6061H345.518V68.55H347.055ZM346.853 71.91C347.483 71.91 347.853 71.7084 347.853 70.944V70.23C347.853 69.6 347.618 69.264 347.013 69.264H346.248V71.8764L346.853 71.91Z" fill="#004EFF"/>
<path d="M351.97 71.6748V72.3804H350.29V74.9004H352.398V75.6145H349.5V68.55H352.398V69.264H350.248V71.6748H351.97Z" fill="#004EFF"/>
<path d="M186.583 242.413L137.082 242.64L139.686 211.241L189.196 211.022L186.583 242.413Z" fill="#004EFF"/>
<path d="M185.912 244.874L137.133 245.093C136.81 245.101 136.488 245.04 136.19 244.913C135.893 244.786 135.626 244.597 135.408 244.358C135.189 244.119 135.025 243.836 134.926 243.528C134.826 243.22 134.794 242.894 134.832 242.573L137.427 211.375C137.493 210.696 137.805 210.064 138.305 209.6C138.805 209.136 139.458 208.871 140.14 208.855L188.919 208.637C189.243 208.629 189.564 208.69 189.862 208.817C190.16 208.944 190.427 209.133 190.645 209.372C190.863 209.611 191.027 209.894 191.127 210.202C191.226 210.51 191.258 210.835 191.221 211.157L188.625 242.354C188.558 243.033 188.245 243.664 187.745 244.128C187.246 244.592 186.594 244.857 185.912 244.874Z" fill="#004EFF"/>
<g opacity="0.7">
<path d="M186.583 242.413L137.082 242.64L139.686 211.241L189.196 211.022L186.583 242.413Z" fill="#004EFF"/>
<path opacity="0.9" d="M184.358 242.422L139.737 242.623C139.4 242.624 139.066 242.555 138.756 242.42C138.447 242.286 138.168 242.088 137.939 241.84C137.71 241.592 137.535 241.299 137.426 240.98C137.316 240.661 137.273 240.322 137.301 239.986L139.502 213.45C139.553 212.842 139.829 212.276 140.277 211.862C140.725 211.448 141.312 211.218 141.921 211.216L186.534 211.014C186.871 211.013 187.205 211.082 187.515 211.217C187.824 211.351 188.103 211.549 188.332 211.797C188.561 212.045 188.736 212.338 188.846 212.657C188.955 212.977 188.998 213.315 188.97 213.652L186.769 240.179C186.722 240.787 186.449 241.356 186.002 241.771C185.555 242.187 184.968 242.419 184.358 242.422Z" fill="white"/>
</g>
<path opacity="0.1" d="M178.343 208.654L168.834 244.866L172.085 244.849L181.484 208.645L178.343 208.654Z" fill="white"/>
<path opacity="0.1" d="M183.358 208.637L173.857 244.841L180.309 244.816L189.708 208.612L183.358 208.637Z" fill="white"/>
<path d="M170.438 244.698L186.902 244.841C187.112 246.756 186.272 247.445 185.222 247.436L124.96 247.344C124.645 247.344 124.333 247.282 124.042 247.161C123.751 247.04 123.487 246.863 123.265 246.64C123.042 246.417 122.866 246.152 122.746 245.86C122.626 245.569 122.565 245.257 122.566 244.942L170.438 244.698Z" fill="#004EFF"/>
<path opacity="0.2" d="M186.944 244.841C187.154 246.756 186.314 247.445 185.264 247.436H164.398C165.776 247.436 167.515 246.101 167.515 244.732L186.944 244.841Z" fill="white"/>
<path opacity="0.2" d="M170.438 244.698L186.902 244.841C187.112 246.756 186.272 247.445 185.222 247.436L124.96 247.344C124.645 247.344 124.333 247.282 124.042 247.161C123.751 247.04 123.487 246.863 123.265 246.64C123.042 246.417 122.866 246.152 122.746 245.86C122.626 245.569 122.565 245.257 122.566 244.942L170.438 244.698Z" fill="white"/>
<path d="M131.395 250.443V353.209H134.066L137.426 250.443H131.395Z" fill="#004EFF"/>
<path d="M162.93 253.803V349.009H165.601L168.961 253.803H162.93Z" fill="#004EFF"/>
<path opacity="0.5" d="M162.93 253.803V349.009H165.601L168.961 253.803H162.93Z" fill="black"/>
<path d="M291.584 250.443V349.009H288.913L285.553 250.443H291.584Z" fill="#004EFF"/>
<path opacity="0.5" d="M291.584 250.443V349.009H288.913L285.553 250.443H291.584Z" fill="black"/>
<path d="M260.049 253.803V352.587H257.378L254.018 253.803H260.049Z" fill="#004EFF"/>
<path d="M310.03 247.352H111V251.661H310.03V247.352Z" fill="#004EFF"/>
<path d="M296.942 256.273H125.095L118.123 251.661H303.914L296.942 256.273Z" fill="#004EFF"/>
<path opacity="0.5" d="M296.942 256.273H125.095L118.123 251.661H303.914L296.942 256.273Z" fill="black"/>
<path d="M289.769 245.992H285.334V247.747H289.769V245.992Z" fill="#263238"/>
<path d="M289.483 246.857L255.959 246.496C251.834 246.496 250.49 238.709 250.49 235.702C250.49 233.251 251.464 230.901 253.197 229.168C254.929 227.435 257.28 226.462 259.73 226.462H291.944C293.392 226.466 294.779 227.042 295.803 228.065C296.827 229.088 297.406 230.474 297.413 231.922C297.413 231.922 296.732 246.857 289.483 246.857Z" fill="#004EFF"/>
<g opacity="0.5">
<g opacity="0.7">
<path d="M289.483 246.857L255.959 246.496C251.834 246.496 250.49 238.709 250.49 235.702C250.49 233.251 251.464 230.901 253.197 229.168C254.929 227.435 257.28 226.462 259.73 226.462H291.944C293.392 226.466 294.779 227.042 295.803 228.065C296.827 229.088 297.406 230.474 297.413 231.922C297.413 231.922 296.732 246.857 289.483 246.857Z" fill="white"/>
</g>
</g>
<path d="M292.851 226.554L260.234 226.487C255.651 226.468 251.187 227.942 247.516 230.687L243.577 233.61C243.382 233.758 243.238 233.963 243.167 234.198C243.096 234.432 243.101 234.683 243.181 234.914C243.261 235.145 243.413 235.345 243.614 235.485C243.814 235.625 244.054 235.698 244.299 235.693L276.975 234.853L292.851 226.554Z" fill="#004EFF"/>
<path opacity="0.5" d="M292.852 226.554L260.932 226.487C255.699 226.487 251.356 227.537 246.929 231.124L242.553 234.45C242.424 234.546 242.33 234.68 242.283 234.833C242.236 234.987 242.239 235.151 242.291 235.302C242.344 235.453 242.443 235.584 242.574 235.676C242.706 235.767 242.863 235.814 243.023 235.811L276.43 235.214L292.852 226.554Z" fill="white"/>
<path d="M248.836 245.992H244.4V247.747H248.836V245.992Z" fill="#263238"/>
<path d="M278.32 245.992H273.885V247.747H278.32V245.992Z" fill="#263238"/>
<path d="M261.201 245.992H256.766V247.747H261.201V245.992Z" fill="#263238"/>
<path d="M276.137 246.857H246.266C244.458 246.852 242.726 246.132 241.448 244.854C240.17 243.576 239.45 241.844 239.445 240.036C239.452 238.23 240.173 236.5 241.451 235.223C242.729 233.947 244.46 233.228 246.266 233.224H276.137C277.942 233.228 279.672 233.947 280.949 235.224C282.225 236.5 282.944 238.231 282.949 240.036C282.944 241.842 282.226 243.573 280.949 244.851C279.673 246.129 277.943 246.85 276.137 246.857Z" fill="#004EFF"/>
<mask id="mask0_2218_4715" style="mask-type:luminance" maskUnits="userSpaceOnUse" x="248" y="236" width="26" height="9">
<path d="M269.946 244.656H252.465C251.405 244.654 250.39 244.232 249.64 243.482C248.891 242.733 248.469 241.717 248.467 240.658C248.469 239.598 248.891 238.582 249.64 237.833C250.39 237.083 251.405 236.661 252.465 236.659H269.962C271.022 236.661 272.038 237.083 272.787 237.833C273.537 238.582 273.959 239.598 273.961 240.658C273.96 241.184 273.855 241.705 273.653 242.19C273.45 242.676 273.154 243.117 272.781 243.488C272.408 243.86 271.966 244.154 271.48 244.354C270.993 244.555 270.472 244.657 269.946 244.656Z" fill="white"/>
</mask>
<g mask="url(#mask0_2218_4715)">
<path d="M276.23 237.457H247.199V238.6H276.23V237.457Z" fill="#263238"/>
<path d="M276.23 239.246H247.199V240.389H276.23V239.246Z" fill="#263238"/>
<path d="M276.23 241.027H247.199V242.17H276.23V241.027Z" fill="#263238"/>
<path d="M276.23 242.816H247.199V243.959H276.23V242.816Z" fill="#263238"/>
</g>
<path d="M284.98 226.369L284.795 226.554L279.419 228.973C274.22 231.384 271.381 231.14 272.263 228.973C272.263 228.973 273.195 220.321 278.932 220.321C280.536 220.323 282.073 220.961 283.206 222.095C284.34 223.229 284.978 224.766 284.98 226.369Z" fill="#004EFF"/>
<g opacity="0.7">
<path d="M284.98 226.369L284.795 226.554L279.419 228.973C274.22 231.384 271.381 231.14 272.263 228.973C272.263 228.973 273.195 220.321 278.932 220.321C280.536 220.323 282.073 220.961 283.206 222.095C284.34 223.229 284.978 224.766 284.98 226.369Z" fill="white"/>
</g>
</svg>
