<svg width="475" height="317" viewBox="0 0 475 317" fill="none" xmlns="http://www.w3.org/2000/svg">
<path d="M384.563 39.4099H90.4355V248.165H384.563V39.4099Z" fill="white"/>
<path d="M384.563 248.165C384.489 248.261 90.2879 248.328 90.2056 248.397C90.0518 248.306 90.2338 39.5532 90.123 39.41L90.1233 39.0973L90.4357 39.0974C90.5216 39.0301 384.652 39.2741 384.747 39.2255C384.818 39.4076 384.512 247.972 384.563 248.165ZM384.563 248.165C384.593 248.244 384.137 38.6094 384.562 39.5938L90.4357 39.7225L90.7479 39.41C90.7297 39.3217 90.954 249.164 90.4367 247.935L384.563 248.165Z" fill="#C7C7C7"/>
<path d="M384.563 39.4099H90.4355V73.4217H384.563V39.4099Z" fill="#004EFF"/>
<path d="M111.833 61.5089H104.746V62.694H111.833V61.5089Z" fill="white"/>
<path d="M111.833 66.8191H104.746V68.0042H111.833V66.8191Z" fill="white"/>
<path d="M111.833 64.1949H104.746V65.38H111.833V64.1949Z" fill="white"/>
<path d="M384.563 39.4099H90.4355V44.8123H384.563V39.4099Z" fill="#37474F"/>
<path d="M94.7257 42.1112C94.7257 42.851 94.1264 43.451 93.3873 43.451C92.6481 43.451 92.0488 42.851 92.0488 42.1112C92.0488 41.3712 92.6481 40.7715 93.3873 40.7715C94.1264 40.7715 94.7257 41.3712 94.7257 42.1112Z" fill="#C7C7C7"/>
<path d="M100.19 42.1112C100.19 42.851 99.5913 43.451 98.852 43.451C98.1129 43.451 97.5137 42.851 97.5137 42.1112C97.5137 41.3712 98.1129 40.7715 98.852 40.7715C99.5913 40.7715 100.19 41.3712 100.19 42.1112Z" fill="white"/>
<path d="M105.655 42.1112C105.655 42.851 105.056 43.451 104.317 43.451C103.578 43.451 102.979 42.851 102.979 42.1112C102.979 41.3712 103.578 40.7715 104.317 40.7715C105.056 40.7715 105.655 41.3712 105.655 42.1112Z" fill="#004EFF"/>
<path d="M384.562 73.4217H378.639V248.165H384.562V73.4217Z" fill="#DBDBDB"/>
<path d="M381.596 134.003C380.751 134.003 380.066 133.414 380.066 132.687V75.7608C380.066 75.0338 380.751 74.4447 381.596 74.4447C382.441 74.4447 383.126 75.0338 383.126 75.7608V132.687C383.126 133.414 382.441 134.003 381.596 134.003Z" fill="#A6A6A6"/>
<path d="M137.648 173.229C139.517 170.944 142.942 170.631 145.225 172.502C149.792 176.242 157.68 180.606 165.049 180.502C170.238 180.502 174.909 178.943 178.023 176.657C181.137 174.372 182.486 171.774 182.486 169.177C182.486 167.826 182.174 166.891 181.552 165.852C180.929 164.813 179.995 163.774 178.438 162.736C175.428 160.761 170.342 158.995 164.219 157.852H164.011C159.133 156.917 154.566 155.67 150.622 153.8C146.678 151.93 143.253 149.332 140.97 145.696C139.413 143.202 138.583 140.293 138.583 137.176C138.583 130.942 142.111 125.539 146.886 122.007C151.764 118.474 158.095 116.5 164.842 116.5C174.805 116.5 182.174 121.383 187.468 124.812C189.855 126.474 190.582 129.799 188.921 132.189C187.364 134.682 184.043 135.41 181.552 133.747C176.259 130.215 171.173 127.098 164.842 127.098C160.171 127.098 156.019 128.552 153.217 130.63C150.415 132.708 149.273 134.994 149.273 137.176C149.273 138.423 149.481 139.254 150 140.085C150.519 140.916 151.452 141.851 152.802 142.786C155.501 144.657 160.171 146.319 165.776 147.358H165.983C171.277 148.397 176.155 149.748 180.306 151.722C184.562 153.8 188.298 156.501 190.685 160.346C192.242 162.839 193.176 165.956 193.176 169.177C193.176 175.827 189.44 181.541 184.25 185.282C179.165 189.022 172.418 191.204 165.049 191.204C153.84 191.1 144.395 185.49 138.479 180.814C136.196 178.943 135.884 175.515 137.648 173.229Z" fill="#004EFF"/>
<path d="M209.16 185.593V124.292C209.16 121.072 211.651 118.578 214.869 118.578H248.808C251.818 118.578 254.517 121.072 254.517 124.292C254.517 127.513 251.818 130.111 248.808 130.111H220.681V149.124H244.864C247.978 149.124 250.573 151.826 250.573 154.839C250.573 158.06 247.978 160.657 244.864 160.657H220.681V179.775H248.808C251.818 179.775 254.517 182.372 254.517 185.593C254.517 188.71 251.818 191.308 248.808 191.308H215.18C214.972 191.308 214.972 191.204 214.972 191.204L214.869 191.308C211.651 191.308 209.16 188.71 209.16 185.593Z" fill="#004EFF"/>
<path d="M328 127.617C334.435 134.475 338.483 143.618 338.483 153.904C338.483 164.19 334.435 173.437 328 180.19C321.877 186.944 312.743 191.308 303.194 191.308C293.231 191.308 284.097 186.944 277.766 180.19C271.33 173.437 267.49 164.19 267.49 153.904C267.49 143.618 271.33 134.475 277.766 127.617C284.097 120.76 293.231 116.5 303.194 116.5C312.743 116.5 321.877 120.76 328 127.617ZM326.651 153.904C326.651 146.838 323.849 140.293 319.593 135.722C315.234 131.046 309.422 128.344 303.194 128.344C296.552 128.344 290.739 131.046 286.38 135.722C282.021 140.293 279.323 146.838 279.323 153.904C279.323 160.969 282.021 167.515 286.38 171.982C290.739 176.658 296.552 179.463 303.194 179.463C309.422 179.463 315.234 176.658 319.593 171.982C323.849 167.515 326.651 160.969 326.651 153.904Z" fill="#004EFF"/>
<path d="M158.104 76.2861H41.3516V137.301H158.104V76.2861Z" fill="white"/>
<path d="M158.115 137.286C158.048 137.309 41.3317 137.403 41.2591 137.419C41.1801 137.376 41.2386 76.3665 41.1817 76.3006L41.1816 76.1425L41.3397 76.1425C41.3552 76.1222 158.125 76.2318 158.146 76.2171C158.153 76.2679 158.11 137.231 158.115 137.286ZM158.115 137.286L158.037 76.2718C158.354 76.4291 41.2822 76.405 41.3399 76.4586C41.6887 75.475 41.3884 137.527 41.4661 137.315C40.7534 137.087 158.302 137.336 158.115 137.286Z" fill="#C7C7C7"/>
<g opacity="0.5">
<path d="M54.8563 116.649H49.1309V128.841H54.8563V116.649Z" fill="#004EFF"/>
<path d="M66.7899 107.756H61.0645V128.841H66.7899V107.756Z" fill="#004EFF"/>
<path d="M78.7235 109.997H72.998V128.841H78.7235V109.997Z" fill="#004EFF"/>
<path d="M90.6571 105.742H84.9316V128.841H90.6571V105.742Z" fill="#004EFF"/>
<path d="M102.591 114.201H96.8652V128.841H102.591V114.201Z" fill="#004EFF"/>
<path d="M114.524 107.131H108.799V128.841H114.524V107.131Z" fill="#004EFF"/>
<path d="M126.456 98.1344H120.73V128.841H126.456V98.1344Z" fill="#004EFF"/>
<path d="M138.39 103.423H132.664V128.841H138.39V103.423Z" fill="#004EFF"/>
<path d="M150.323 92.526H144.598V128.841H150.323V92.526Z" fill="#004EFF"/>
</g>
<path d="M51.9941 109.997L63.9275 98.6772L75.861 103.308L87.7944 97.5761L99.7242 108.204L111.661 100.442L123.595 89.7151L135.528 96.8909L147.462 85.8813" stroke="#263238" stroke-width="0.75" stroke-miterlimit="10"/>
<path d="M54.8563 109.997C54.8563 111.579 53.5746 112.862 51.9936 112.862C50.4126 112.862 49.1309 111.579 49.1309 109.997C49.1309 108.414 50.4125 107.131 51.9936 107.131C53.5746 107.131 54.8563 108.414 54.8563 109.997Z" fill="#004EFF"/>
<path d="M63.9272 101.543C65.5082 101.543 66.7899 100.26 66.7899 98.6772C66.7899 97.0944 65.5082 95.8114 63.9272 95.8114C62.3461 95.8114 61.0645 97.0944 61.0645 98.6772C61.0645 100.26 62.3461 101.543 63.9272 101.543Z" fill="#004EFF"/>
<path d="M87.7944 100.442C89.3754 100.442 90.6571 99.1589 90.6571 97.5761C90.6571 95.9934 89.3754 94.7104 87.7944 94.7104C86.2133 94.7104 84.9316 95.9934 84.9316 97.5761C84.9316 99.1589 86.2133 100.442 87.7944 100.442Z" fill="#004EFF"/>
<path d="M75.8608 106.173C77.4418 106.173 78.7235 104.89 78.7235 103.308C78.7235 101.725 77.4418 100.442 75.8608 100.442C74.2797 100.442 72.998 101.725 72.998 103.308C72.998 104.89 74.2797 106.173 75.8608 106.173Z" fill="#004EFF"/>
<path d="M99.7241 111.07C101.305 111.07 102.587 109.787 102.587 108.204C102.587 106.622 101.305 105.339 99.7241 105.339C98.143 105.339 96.8613 106.622 96.8613 108.204C96.8613 109.787 98.143 111.07 99.7241 111.07Z" fill="#004EFF"/>
<path d="M111.662 103.308C113.243 103.308 114.524 102.025 114.524 100.442C114.524 98.8592 113.243 97.5761 111.662 97.5761C110.081 97.5761 108.799 98.8592 108.799 100.442C108.799 102.025 110.081 103.308 111.662 103.308Z" fill="#004EFF"/>
<path d="M126.456 89.7151C126.456 91.2978 125.174 92.5808 123.593 92.5808C122.012 92.5808 120.73 91.2978 120.73 89.7151C120.73 88.1325 122.012 86.8494 123.593 86.8494C125.174 86.8494 126.456 88.1324 126.456 89.7151Z" fill="#004EFF"/>
<path d="M135.527 99.7566C137.108 99.7566 138.39 98.4736 138.39 96.8909C138.39 95.3082 137.108 94.0251 135.527 94.0251C133.946 94.0251 132.664 95.3082 132.664 96.8909C132.664 98.4736 133.946 99.7566 135.527 99.7566Z" fill="#004EFF"/>
<path d="M147.46 88.747C149.041 88.747 150.323 87.464 150.323 85.8813C150.323 84.2986 149.041 83.0155 147.46 83.0155C145.879 83.0155 144.598 84.2986 144.598 85.8813C144.598 87.464 145.879 88.747 147.46 88.747Z" fill="#004EFF"/>
<path d="M346.942 216.49H128.059V260.466H346.942V216.49Z" fill="white"/>
<path d="M346.942 216.49L346.968 260.466C347.017 260.545 128.07 260.596 128.058 260.624L127.9 260.624L127.9 260.466L127.926 216.49C127.75 216.106 346.833 216.621 346.942 216.49ZM346.942 216.49C346.981 216.377 127.496 216.863 128.19 216.491C128.165 216.367 128.421 261.189 128.059 260.308C128.054 260.33 347.051 260.392 346.916 260.466L346.942 216.49Z" fill="#C7C7C7"/>
<path opacity="0.4" d="M159.427 253.073C167.479 250.137 171.629 241.223 168.696 233.162C165.763 225.102 156.858 220.947 148.806 223.883C140.754 226.819 136.604 235.734 139.537 243.794C142.47 251.855 151.375 256.009 159.427 253.073Z" fill="#004EFF"/>
<path d="M164.552 240.963C165.923 235.194 162.362 229.405 156.599 228.032C150.836 226.66 145.053 230.224 143.682 235.993C142.311 241.763 145.871 247.552 151.634 248.924C157.398 250.297 163.181 246.733 164.552 240.963Z" stroke="white" stroke-width="3" stroke-miterlimit="10"/>
<path d="M154.117 250.167C147.678 250.167 142.439 244.923 142.439 238.478C142.439 232.033 147.678 226.789 154.117 226.789V228.691C148.725 228.691 144.339 233.081 144.339 238.478C144.339 243.875 148.725 248.265 154.117 248.265C159.508 248.265 163.894 243.875 163.894 238.478C163.894 235.496 162.495 232.618 160.151 230.778L161.324 229.281C164.164 231.512 165.794 234.864 165.794 238.478C165.794 244.923 160.555 250.167 154.117 250.167Z" fill="#004EFF"/>
<path opacity="0.4" d="M201.658 252.865C209.595 249.631 213.41 240.567 210.179 232.622C206.948 224.676 197.895 220.857 189.957 224.092C182.02 227.326 178.205 236.389 181.436 244.335C184.667 252.28 193.721 256.099 201.658 252.865Z" fill="#004EFF"/>
<path d="M206.243 240.963C207.614 235.194 204.054 229.405 198.291 228.032C192.527 226.66 186.744 230.224 185.373 235.993C184.002 241.763 187.563 247.552 193.326 248.924C199.089 250.297 204.872 246.733 206.243 240.963Z" stroke="white" stroke-width="3" stroke-miterlimit="10"/>
<path d="M195.808 250.167C189.369 250.167 184.131 244.923 184.131 238.478C184.131 232.033 189.369 226.789 195.808 226.789V228.691C190.417 228.691 186.031 233.081 186.031 238.478C186.031 243.875 190.417 248.265 195.808 248.265C197.437 248.265 199.055 247.853 200.486 247.072L201.395 248.743C199.686 249.675 197.754 250.167 195.808 250.167Z" fill="#004EFF"/>
<path opacity="0.4" d="M243.349 252.865C251.286 249.631 255.102 240.568 251.871 232.622C248.64 224.676 239.586 220.857 231.649 224.092C223.712 227.326 219.897 236.389 223.128 244.335C226.359 252.28 235.412 256.099 243.349 252.865Z" fill="#004EFF"/>
<path d="M247.935 240.963C249.306 235.194 245.745 229.405 239.982 228.032C234.219 226.66 228.435 230.224 227.064 235.993C225.693 241.763 229.254 247.552 235.017 248.924C240.78 250.297 246.564 246.733 247.935 240.963Z" stroke="white" stroke-width="3" stroke-miterlimit="10"/>
<path d="M237.499 250.167C231.061 250.167 225.822 244.923 225.822 238.478C225.822 232.033 231.061 226.789 237.499 226.789V228.691C232.108 228.691 227.722 233.081 227.722 238.478C227.722 243.875 232.108 248.265 237.499 248.265C241.781 248.265 245.526 245.52 246.82 241.434L248.631 242.009C247.087 246.889 242.613 250.167 237.499 250.167Z" fill="#004EFF"/>
<path opacity="0.4" d="M285.043 252.865C292.98 249.631 296.795 240.567 293.564 232.622C290.333 224.676 281.279 220.857 273.342 224.092C265.405 227.326 261.59 236.389 264.821 244.335C268.052 252.28 277.105 256.099 285.043 252.865Z" fill="#004EFF"/>
<path d="M289.655 240.846C290.962 235.062 287.337 229.313 281.558 228.005C275.78 226.697 270.037 230.326 268.731 236.11C267.424 241.895 271.049 247.644 276.828 248.952C282.606 250.259 288.349 246.63 289.655 240.846Z" stroke="white" stroke-width="3" stroke-miterlimit="10"/>
<path d="M279.192 250.167C272.754 250.167 267.516 244.923 267.516 238.478C267.516 232.033 272.754 226.789 279.192 226.789V228.691C273.801 228.691 269.416 233.081 269.416 238.478C269.416 243.875 273.801 248.265 279.192 248.265C284.583 248.265 288.969 243.875 288.969 238.478C288.969 237.323 288.768 236.188 288.37 235.104L290.154 234.449C290.629 235.743 290.869 237.099 290.869 238.478C290.869 244.923 285.631 250.167 279.192 250.167Z" fill="#004EFF"/>
<path opacity="0.4" d="M326.734 252.865C334.671 249.631 338.486 240.567 335.255 232.622C332.024 224.676 322.971 220.857 315.034 224.092C307.096 227.326 303.281 236.389 306.512 244.335C309.743 252.28 318.797 256.099 326.734 252.865Z" fill="#004EFF"/>
<path d="M331.2 241.422C332.824 235.718 329.522 229.777 323.825 228.152C318.128 226.526 312.193 229.832 310.569 235.535C308.945 241.238 312.247 247.179 317.944 248.805C323.642 250.43 329.576 247.125 331.2 241.422Z" stroke="white" stroke-width="3" stroke-miterlimit="10"/>
<path d="M317.115 249.542C312.385 247.927 309.207 243.481 309.207 238.478C309.207 232.033 314.446 226.789 320.884 226.789V228.691C315.493 228.691 311.107 233.081 311.107 238.478C311.107 242.667 313.768 246.39 317.729 247.742L317.115 249.542Z" fill="#004EFF"/>
<path d="M304.917 117.423L304.68 153.944L338.927 142.881C334.121 127.501 320.794 117.526 304.917 117.423Z" fill="#37474F"/>
<path d="M305.969 117.443L304.91 119.236L304.911 119.026L305.852 117.438C305.891 117.443 305.93 117.443 305.969 117.443ZM307.055 117.494L304.89 122.318L304.888 122.601L307.177 117.505C307.138 117.5 307.094 117.5 307.055 117.494ZM311.003 117.959L304.852 128.053L304.851 128.317L311.154 117.984C311.105 117.974 311.052 117.969 311.003 117.959ZM311.859 118.121L304.819 133.154L304.817 133.52L312.005 118.146C311.957 118.136 311.908 118.126 311.859 118.121ZM315.212 122.41L317.121 119.584C317.068 119.559 317.009 119.539 316.951 119.519L315.067 122.311L309.444 130.639L304.791 137.529L304.789 137.836L309.59 130.732L315.212 122.41ZM317.374 119.673L304.763 141.752L304.761 142.147L317.544 119.738C317.486 119.718 317.432 119.693 317.374 119.673ZM321.663 121.608L304.75 143.825L304.748 144.161L321.852 121.712L321.663 121.608ZM322.056 121.82L304.721 148.365L304.718 148.789L322.246 121.929C322.182 121.894 322.119 121.86 322.056 121.82ZM325.748 124.18L304.713 149.467L304.711 149.847L325.957 124.333C325.889 124.279 325.816 124.23 325.748 124.18ZM326.185 124.505L306.544 153.341L306.964 153.207L326.393 124.663C326.325 124.609 326.253 124.554 326.185 124.505ZM329.407 127.257L307.511 153.031L307.999 152.873L329.591 127.434C329.528 127.375 329.47 127.316 329.407 127.257ZM329.765 127.606L312.554 151.4L312.93 151.281L329.944 127.787C329.881 127.728 329.823 127.665 329.765 127.606ZM332.589 130.775L314.351 150.822L314.79 150.679L332.725 130.946C332.681 130.887 332.633 130.829 332.589 130.775ZM333.034 131.348L319.877 149.034L320.204 148.929L333.164 131.525C333.121 131.466 333.077 131.407 333.034 131.348ZM335.292 134.704L322.821 148.088L323.182 147.968L335.384 134.86C335.355 134.806 335.326 134.753 335.292 134.704ZM335.629 135.276L326.6 146.864L326.873 146.778L335.721 135.433C335.687 135.379 335.658 135.325 335.629 135.276ZM337.519 139.063L331.287 145.353L331.589 145.253L337.577 139.2C337.558 139.156 337.539 139.107 337.519 139.063ZM337.841 139.841L334.113 144.44L334.343 144.363L337.898 139.983C337.884 139.934 337.865 139.89 337.841 139.841Z" fill="#263238"/>
<path d="M304.68 153.944L270.436 165.011C275.269 180.475 289.292 190.381 304.438 190.48C308.118 190.504 311.863 189.949 315.56 188.755C326.906 185.089 335.028 176.94 338.781 165.456L304.68 153.944Z" fill="#004EFF"/>
<path d="M270.435 165.011L267.58 164.992C272.414 180.457 286.436 190.363 301.582 190.461L304.437 190.48C289.292 190.381 275.269 180.475 270.435 165.011Z" fill="#004EFF"/>
<g opacity="0.1">
<path d="M270.435 165.011L267.58 164.992C272.414 180.457 286.436 190.363 301.582 190.461L304.437 190.48C289.292 190.381 275.269 180.475 270.435 165.011Z" fill="black"/>
</g>
<path opacity="0.1" d="M272 164.504L271.605 168.213C271.595 168.198 271.591 168.188 271.586 168.174L271.98 164.514L272 164.504ZM275.871 163.256L273.008 171.212C273.018 171.221 273.023 171.231 273.028 171.241L275.905 163.242L275.871 163.256ZM277.248 162.812L275.505 175.281C275.52 175.3 275.53 175.315 275.544 175.334L277.287 162.797L277.248 162.812ZM279.703 162.018L276.07 176.055C276.085 176.074 276.095 176.089 276.104 176.104L279.762 161.994L279.703 162.018ZM280.66 161.708L278.744 179.232C278.763 179.257 278.783 179.277 278.807 179.296L280.724 161.688L280.66 161.708ZM283.555 160.77L279.315 179.821C279.334 179.846 279.358 179.866 279.378 179.885L283.643 160.742L283.555 160.77ZM284.263 160.541L282.536 182.715C282.565 182.735 282.594 182.759 282.628 182.784L284.351 160.512L284.263 160.541ZM283.059 183.118C283.088 183.143 283.118 183.167 283.151 183.187L287.144 159.609L287.026 159.652L283.059 183.118ZM287.964 159.346L287.654 186.108C287.692 186.133 287.736 186.158 287.78 186.177L288.081 159.308L287.964 159.346ZM288.047 186.321C288.09 186.345 288.129 186.365 288.173 186.385L291.288 158.27L291.137 158.323L288.047 186.321ZM291.967 158.05L291.821 158.103L292.059 188.146C292.112 188.166 292.171 188.186 292.224 188.211L291.967 158.05ZM292.375 188.265L292.535 188.325L295.028 157.061L294.847 157.123L292.375 188.265ZM295.565 156.889L295.384 156.946L296.372 189.486C296.435 189.501 296.503 189.521 296.571 189.531L295.565 156.889ZM296.736 189.572C296.805 189.591 296.868 189.607 296.936 189.617L299.236 155.703L299.017 155.775L296.736 189.572ZM301.287 190.255L299.754 155.536L299.534 155.607L301.053 190.297C301.131 190.302 301.209 190.308 301.287 190.318H301.292C301.37 190.324 301.447 190.334 301.525 190.339L302.732 154.575L302.473 154.656L301.287 190.255ZM305.886 190.231L303.289 154.393L303.035 154.474L305.656 190.464C305.729 190.464 305.807 190.464 305.88 190.455C305.89 190.46 305.895 190.46 305.904 190.455C305.977 190.456 306.05 190.452 306.124 190.447L306.969 154.715L306.736 154.64L305.886 190.231ZM307.426 154.869L307.193 154.794L310.448 189.997C310.516 189.988 310.584 189.979 310.653 189.964L307.426 154.869ZM309.993 155.739L310.653 189.964C310.721 189.955 310.789 189.941 310.857 189.927L310.187 155.804L309.993 155.739ZM310.62 155.948L310.416 155.878L315.454 188.786C315.488 188.777 315.527 188.762 315.561 188.753C315.581 188.748 315.601 188.738 315.62 188.734L310.62 155.948ZM315.32 182.392L314.588 172.799L313.367 156.878L313.206 156.823L314.423 172.808L315.155 182.405L315.523 187.202L315.64 188.729C315.698 188.71 315.752 188.691 315.806 188.671L315.693 187.193L315.32 182.392ZM313.935 157.067L313.765 157.012L320.793 186.636C320.837 186.617 320.876 186.593 320.92 186.574L313.935 157.067ZM317.761 158.36L321.218 186.419C321.262 186.4 321.306 186.376 321.345 186.357L317.888 158.404L317.761 158.36ZM318.456 158.593L318.325 158.549L324.857 184.283C324.891 184.263 324.92 184.244 324.95 184.22L318.456 158.593ZM326.963 161.468L329.318 180.722C329.343 180.698 329.362 180.679 329.387 180.659L327.031 161.487L326.963 161.468ZM327.785 161.746L327.717 161.721L332.679 177.033C332.694 177.013 332.709 176.999 332.723 176.979L327.785 161.746ZM322.199 159.856L325.478 183.853C325.507 183.838 325.542 183.814 325.571 183.79L322.292 159.891L322.199 159.856ZM325.406 168.758L323.191 160.955L322.953 160.115L322.856 160.08L323.108 160.979L325.323 168.782L328.847 181.153C328.867 181.139 328.892 181.119 328.911 181.1L325.406 168.758ZM330.089 162.522L333.057 176.543C333.072 176.528 333.082 176.509 333.097 176.489L330.138 162.537L330.089 162.522ZM330.808 162.765L330.755 162.746L334.956 173.756C334.971 173.741 334.981 173.731 334.981 173.717L330.808 162.765ZM333.025 163.511L335.404 173.017C335.414 173.003 335.424 172.993 335.424 172.978L333.054 163.521L333.025 163.511ZM334.25 163.924L334.221 163.914L337.25 169.42C337.254 169.416 337.259 169.406 337.259 169.401L334.25 163.924ZM336.472 164.675L337.764 168.219C337.769 168.214 337.774 168.205 337.774 168.2L336.486 164.68L336.472 164.675ZM338.543 165.376L338.528 165.371C338.596 165.459 338.658 165.548 338.716 165.641C338.716 165.641 338.721 165.636 338.721 165.631C338.663 165.548 338.605 165.459 338.543 165.376Z" fill="black"/>
<path d="M304.917 117.423C285.075 117.294 268.882 133.542 268.751 153.711C268.725 157.746 269.233 161.166 270.435 165.011L304.68 153.944L304.917 117.423Z" fill="#455A64"/>
<path d="M304.727 146.36L304.726 146.638L273.095 136.532L273.214 136.299L304.727 146.36ZM272.888 136.926L304.7 150.584L304.702 150.325L273.002 136.703C272.962 136.775 272.923 136.848 272.888 136.926ZM275.823 132.19C275.769 132.258 275.714 132.331 275.67 132.404L304.752 142.615L304.753 142.366L275.823 132.19ZM275.39 132.797L304.731 145.751L304.733 145.458L275.537 132.583C275.488 132.651 275.434 132.724 275.39 132.797ZM282.807 124.969C282.753 125.008 282.704 125.051 282.655 125.09L304.809 133.774L304.81 133.608L282.807 124.969ZM282.028 125.598L304.789 136.924L304.79 136.714L282.18 125.472C282.126 125.511 282.077 125.554 282.028 125.598ZM279.136 128.266C279.078 128.32 279.024 128.378 278.975 128.431L304.782 137.885L304.784 137.675L279.136 128.266ZM278.435 129.003L304.758 141.718L304.759 141.464L278.587 128.843C278.533 128.896 278.484 128.95 278.435 129.003ZM293.611 119.192C293.567 119.201 293.523 119.216 293.479 119.23L304.867 124.864L304.868 124.761L293.611 119.192ZM292.009 119.757L304.849 127.634L304.85 127.497L292.141 119.709C292.097 119.723 292.053 119.743 292.009 119.757ZM287.362 121.941C287.308 121.965 287.26 121.994 287.211 122.023L304.838 129.336L304.839 129.199L287.362 121.941ZM286.228 122.602L304.817 132.574L304.818 132.408L286.369 122.52C286.321 122.544 286.272 122.573 286.228 122.602ZM299.705 117.768C299.666 117.773 299.632 117.778 299.598 117.782L304.895 120.611L304.895 120.543L299.705 117.768ZM297.31 118.197L304.877 123.391L304.877 123.289L297.418 118.173C297.379 118.178 297.345 118.182 297.31 118.197ZM303.225 117.455C303.195 117.45 303.166 117.455 303.137 117.454L304.907 118.763L304.907 118.695L303.225 117.455ZM268.883 157.305L283.192 160.89L283.373 160.828L268.874 157.193C268.878 157.232 268.878 157.271 268.883 157.305ZM268.829 156.539C268.829 156.578 268.834 156.617 268.833 156.656L288.24 159.255L288.509 159.169L268.829 156.539ZM269.617 161.992L275.196 163.471L275.327 163.429L269.598 161.909C269.603 161.938 269.608 161.962 269.617 161.992ZM269.523 161.567C269.527 161.596 269.532 161.625 269.541 161.65L278.066 162.544L278.266 162.482L269.523 161.567ZM268.783 152.384L291.165 158.308L291.394 158.237L268.789 152.242C268.784 152.286 268.784 152.335 268.783 152.384ZM268.816 151.769C268.811 151.818 268.806 151.867 268.806 151.92L297.575 156.238L297.917 156.128L268.816 151.769ZM275.165 147.958L270.376 146.449L269.564 146.195C269.549 146.253 269.539 146.312 269.529 146.37L270.321 146.619L275.11 148.123L284.688 151.141L299.196 155.717L299.464 155.626L284.738 150.98L275.165 147.958ZM269.619 145.942C269.604 146 269.589 146.059 269.579 146.117L303.965 154.173L304.322 154.058L269.619 145.942ZM270.935 141.385L304.351 154.049L304.654 153.953L271.009 141.186C270.98 141.254 270.955 141.317 270.935 141.385ZM271.123 140.875C271.094 140.943 271.069 141.016 271.049 141.084L304.696 151.125L304.698 150.881L271.123 140.875Z" fill="#37474F"/>
<path d="M304.917 117.423L302.062 117.404C282.22 117.275 266.026 133.523 265.895 153.692C265.869 157.728 266.378 161.147 267.58 164.992L270.435 165.011C269.233 161.166 268.725 157.746 268.751 153.711C268.882 133.542 285.075 117.294 304.917 117.423Z" fill="#37474F"/>
<path d="M357.144 165.603L357.035 165.567L356.936 165.532L354.957 164.839L354.839 164.802L353.71 164.406L353.578 164.363L351.788 163.739L351.642 163.684L350.546 163.302L350.385 163.25L350.385 163.245L348.321 162.528L348.146 162.465L346.909 162.033L346.715 161.968L345.175 161.43L344.967 161.359L343.612 160.885L343.394 160.813L341.524 160.161L341.33 160.091L339.909 159.595L339.72 159.531L338.355 159.056L338.194 158.999L336.636 158.454L336.48 158.398L335.129 157.93L334.997 157.881L333.093 157.221L332.956 157.172L330.958 156.477L330.85 156.436L329.314 155.903L329.215 155.868L327.232 155.174L327.147 155.146L325.474 154.564L325.399 154.536L323.646 153.926L325.316 153.389L325.387 153.368L327.31 152.745L327.396 152.72L329.046 152.186L329.142 152.157L331.248 151.48L331.365 151.439L332.776 150.987L332.902 150.947L336.003 149.945L336.155 149.898L336.932 149.648L337.094 149.596L340.119 148.621L340.306 148.563L340.307 148.558L340.971 148.345L341.169 148.283L344.28 147.282L344.28 147.277L344.518 147.205L345.213 146.98L345.442 146.907L348.71 145.855L348.948 145.777L349.329 145.656L349.552 145.582L353.155 144.423L353.363 144.357L353.364 144.353L353.693 144.251L353.886 144.188L357.469 143.032C357.497 143.133 357.53 143.235 357.559 143.336L357.558 143.341C357.583 143.427 357.609 143.508 357.634 143.594L357.633 143.599L357.655 143.675L357.654 143.68C357.687 143.782 357.716 143.883 357.744 143.984C358.471 146.622 358.909 149.215 359.06 151.786L359.059 151.791C359.068 151.895 359.071 151.998 359.079 152.107L359.079 152.112C359.14 153.32 359.138 154.532 359.068 155.736C359.058 155.97 359.043 156.199 359.023 156.432L359.022 156.442C358.796 159.468 358.167 162.501 357.144 165.603Z" fill="#C7C7C7"/>
<path d="M325.387 153.368L325.475 154.564L325.399 154.536L325.316 153.389L325.387 153.368ZM327.311 152.745L327.147 155.146L327.232 155.174L327.397 152.72L327.311 152.745ZM329.143 152.157L329.046 152.186L329.216 155.868L329.315 155.903L329.143 152.157ZM331.248 151.48L330.85 156.436L330.958 156.477L331.366 151.439L331.248 151.48ZM332.903 150.947L332.776 150.987L332.957 157.172L333.093 157.221L332.903 150.947ZM335.495 153.962L334.997 157.881L335.129 157.93L335.635 153.982L336.156 149.898L336.004 149.945L335.495 153.962ZM337.094 149.596L336.932 149.648L336.48 158.398L336.636 158.454L337.094 149.596ZM338.195 158.999L338.355 159.056L340.307 148.563L340.119 148.621L338.195 158.999ZM340.972 148.345L339.72 159.531L339.909 159.595L341.169 148.283L340.972 148.345ZM344.28 147.282L341.331 160.091L341.524 160.161L344.519 147.205L344.281 147.277L344.28 147.282ZM345.214 146.98L343.395 160.813L343.612 160.885L345.442 146.907L345.214 146.98ZM348.71 145.855L344.968 161.359L345.176 161.43L348.949 145.777L348.71 145.855ZM349.329 145.656L346.716 161.968L346.909 162.033L349.553 145.582L349.329 145.656ZM353.156 144.423L348.147 162.465L348.321 162.528L353.364 144.357L353.156 144.423ZM353.693 144.251L350.386 163.245L350.385 163.25L350.546 163.302L353.886 144.188L353.693 144.251ZM357.634 143.594C357.609 143.508 357.584 143.427 357.559 143.341L351.642 163.684L351.788 163.739L357.634 143.599L357.634 143.594ZM357.655 143.68L353.578 164.363L353.711 164.406L357.744 143.984C357.716 143.883 357.688 143.782 357.655 143.68ZM359.08 152.107C359.072 151.998 359.068 151.895 359.059 151.791L354.839 164.802L354.958 164.839L359.079 152.112L359.08 152.107ZM359.068 155.736L356.937 165.532L357.036 165.567L359.022 156.442L359.023 156.432C359.043 156.199 359.058 155.97 359.068 155.736Z" fill="#DBDBDB"/>
<path d="M357.143 165.602L354.304 165.297L320.809 153.622L323.648 153.926L357.143 165.602Z" fill="#A6A6A6"/>
<path d="M323.648 153.926L320.809 153.622L354.63 142.729L357.47 143.034L323.648 153.926Z" fill="#A6A6A6"/>
<path d="M426.907 50.6804H155.473V70.3878H426.907V50.6804Z" fill="white"/>
<path d="M426.908 70.3878C426.68 70.1605 155.004 71.0501 155.248 70.3883L155.236 50.6805L155.236 50.443C155.487 50.4749 426.735 50.5882 426.94 50.6804L426.908 70.3878ZM426.908 70.3878L426.877 50.6805C427.109 50.5469 154.446 51.3316 155.71 50.6812L155.7 70.3877C154.13 69.7559 427.329 70.5933 426.908 70.3878Z" fill="#263238"/>
<path d="M426.909 50.6804H407.223V70.3878H426.909V50.6804Z" fill="#004EFF"/>
<path d="M422.059 64.9556L420.604 66.0591L417.908 62.4959L416.922 61.1927C417.119 61.1159 417.31 61.0084 417.487 60.8724C417.829 60.6113 418.079 60.2734 418.235 59.9025L419.282 61.2848L422.059 64.9556Z" fill="white"/>
<path d="M419.194 56.5654C417.859 54.8232 415.365 54.4941 413.625 55.8304C411.885 57.1664 411.556 59.6633 412.891 61.4054C414.09 62.9721 416.224 63.3956 417.908 62.4959C418.098 62.3928 418.282 62.2764 418.458 62.1404C418.782 61.8904 419.058 61.6009 419.282 61.2848C420.264 59.9003 420.279 57.9848 419.194 56.5654ZM417.487 60.8724C417.309 61.0084 417.119 61.1159 416.921 61.1927C415.957 61.5788 414.819 61.298 414.158 60.4335C413.36 59.3913 413.555 57.8972 414.596 57.0985C415.637 56.2997 417.127 56.4974 417.927 57.5395C418.462 58.2394 418.55 59.1433 418.234 59.9025C418.079 60.2734 417.829 60.6113 417.487 60.8724Z" fill="white"/>
<path d="M160.854 54.5542H160.326V66.5138H160.854V54.5542Z" fill="#263238"/>
<path d="M381.459 123.747L386.805 119.623L360.911 85.9878L355.565 90.112L381.459 123.747Z" fill="#C7C7C7"/>
<path d="M390.877 138.816L398.962 132.58L398.962 132.579L382.171 110.768L382.171 110.768L374.086 117.005L390.877 138.816Z" fill="#263238"/>
<g opacity="0.2">
<path d="M325.485 89.9281C305.91 84.4856 294.416 64.1087 299.852 44.5204C302.487 35.0447 308.658 27.1539 317.237 22.2971C325.815 17.4477 335.754 16.2238 345.22 18.8614C354.686 21.4915 362.568 27.6764 367.419 36.2645C372.264 44.8519 373.479 54.8 370.852 64.2763C368.217 73.7521 362.046 81.6428 353.467 86.4923C344.889 91.3417 334.951 92.5655 325.485 89.9281Z" fill="white"/>
</g>
<path d="M323.827 95.9274C300.95 89.5614 287.512 65.7506 293.871 42.8496C300.23 19.9484 324.016 6.49603 346.893 12.8622C369.77 19.2281 383.208 43.0388 376.849 65.9401C370.489 88.841 346.703 102.293 323.827 95.9274ZM325.149 91.1662C345.403 96.8024 366.462 84.8923 372.092 64.6165C377.723 44.3408 365.825 23.2597 345.571 17.6234C325.316 11.9872 304.257 23.8975 298.627 44.1733C292.997 64.449 304.894 85.53 325.149 91.1662Z" fill="#37474F"/>
<path d="M379.111 47.1235C378.277 42.0772 376.544 37.1633 373.95 32.5672C368.115 22.2361 358.629 14.799 347.237 11.6269C323.672 5.07054 299.188 18.9248 292.632 42.501C289.47 53.9182 290.932 65.8852 296.767 76.2229C302.608 86.554 312.088 93.9911 323.48 97.1633C334.872 100.335 346.84 98.8653 357.16 93.0242C367.487 87.1898 374.916 77.6865 378.085 66.2825C379.845 59.9447 380.169 53.4348 379.111 47.1235ZM317.248 22.2957C325.822 17.448 335.765 16.2294 345.232 18.8586C354.693 21.4944 362.578 27.6732 367.421 36.2626C372.263 44.852 373.487 54.799 370.854 64.2759C365.416 83.8719 345.06 95.3752 325.491 89.9315C316.031 87.2957 308.145 81.1169 303.296 72.5275C298.447 63.9447 297.23 53.9911 299.863 44.5209C302.489 35.044 308.668 27.15 317.248 22.2957Z" fill="#263238"/>
<path d="M308.077 67.9589C306.214 64.539 305.234 60.6353 304.917 56.6698C304.744 54.6815 304.827 52.6648 305.053 50.6579C305.304 48.652 305.778 46.6659 306.41 44.7271C307.745 40.8685 309.903 37.2743 312.678 34.3006C315.451 31.3256 318.743 28.899 322.323 27.1729C319.308 29.7729 316.524 32.5127 314.179 35.5444C313.055 37.091 311.935 38.6348 311.079 40.3239C310.181 41.9827 309.375 43.6936 308.807 45.4842C307.574 49.032 306.979 52.7814 306.888 56.5636C306.831 60.3482 307.208 64.169 308.077 67.9589Z" fill="white"/>
<path d="M364.302 50.3466C365.161 54.1457 365.038 58.1689 364.261 62.0703C363.885 64.0303 363.254 65.9474 362.489 67.8163C361.7 69.6771 360.703 71.4582 359.566 73.1505C357.228 76.497 354.171 79.3645 350.69 81.466C347.21 83.5692 343.382 85.0032 339.467 85.6846C343.077 84.0081 346.502 82.1339 349.585 79.8587C351.089 78.6786 352.587 77.4997 353.872 76.109C355.189 74.759 356.431 73.3335 357.466 71.7665C359.621 68.6909 361.216 65.2468 362.336 61.6334C363.423 58.0084 364.103 54.2299 364.302 50.3466Z" fill="white"/>
</svg>
