<svg width="456" height="734" viewBox="0 0 456 734" fill="none" xmlns="http://www.w3.org/2000/svg">
<path d="M47.3707 287.822L66.3758 277.853L16.2793 261.22L47.3707 287.822Z" fill="#004EFF"/>
<path d="M16.2793 261.22L40.9756 308.305L42.5782 303.187L47.3707 287.822L16.2793 261.22Z" fill="#004EFF"/>
<g opacity="0.1">
<path d="M47.3726 287.821L66.3777 277.852L16.2812 261.219L47.3726 287.821Z" fill="black"/>
</g>
<path opacity="0.3" d="M16.2812 261.22L40.9775 308.305L42.5801 303.187L47.3726 287.821L16.2812 261.22Z" fill="#FAFAFA"/>
<path d="M179.916 299.264C181.29 297.582 183.811 297.353 185.491 298.729C188.851 301.481 194.655 304.692 200.077 304.616C203.896 304.616 207.333 303.469 209.624 301.787C211.915 300.105 212.908 298.194 212.908 296.283C212.908 295.289 212.679 294.601 212.221 293.836C211.762 293.072 211.075 292.307 209.929 291.543C207.715 290.09 203.972 288.791 199.466 287.95H199.314C195.724 287.261 192.364 286.344 189.462 284.968C186.56 283.592 184.04 281.681 182.359 279.005C181.214 277.17 180.603 275.029 180.603 272.736C180.603 268.149 183.2 264.173 186.713 261.574C190.302 258.975 194.961 257.522 199.925 257.522C207.256 257.522 212.679 261.115 216.574 263.638C218.33 264.861 218.865 267.308 217.643 269.066C216.497 270.901 214.053 271.436 212.221 270.213C208.326 267.613 204.583 265.32 199.925 265.32C196.488 265.32 193.433 266.39 191.371 267.919C189.309 269.448 188.469 271.13 188.469 272.736C188.469 273.653 188.622 274.265 189.004 274.876C189.386 275.488 190.073 276.176 191.066 276.864C193.051 278.24 196.488 279.463 200.612 280.228H200.765C204.66 280.992 208.249 281.986 211.304 283.439C214.435 284.968 217.185 286.956 218.941 289.784C220.087 291.619 220.774 293.913 220.774 296.283C220.774 301.176 218.025 305.381 214.206 308.133C210.464 310.885 205.5 312.49 200.077 312.49C191.83 312.414 184.88 308.286 180.527 304.845C178.847 303.469 178.617 300.946 179.916 299.264Z" fill="#004EFF"/>
<path d="M232.535 308.362V263.256C232.535 260.886 234.368 259.051 236.735 259.051H261.709C263.923 259.051 265.909 260.886 265.909 263.256C265.909 265.626 263.923 267.538 261.709 267.538H241.012V281.528H258.807C261.098 281.528 263.007 283.516 263.007 285.733C263.007 288.103 261.098 290.014 258.807 290.014H241.012V304.081H261.709C263.923 304.081 265.909 305.992 265.909 308.362C265.909 310.656 263.923 312.567 261.709 312.567H236.965C236.812 312.567 236.812 312.491 236.812 312.491L236.735 312.567C234.368 312.567 232.535 310.656 232.535 308.362Z" fill="#004EFF"/>
<path d="M319.979 265.702C324.714 270.747 327.693 277.475 327.693 285.044C327.693 292.612 324.714 299.416 319.979 304.386C315.474 309.355 308.753 312.566 301.727 312.566C294.395 312.566 287.674 309.355 283.016 304.386C278.281 299.416 275.455 292.612 275.455 285.044C275.455 277.475 278.281 270.747 283.016 265.702C287.674 260.656 294.395 257.521 301.727 257.521C308.753 257.521 315.474 260.656 319.979 265.702ZM318.986 285.044C318.986 279.845 316.925 275.029 313.793 271.665C310.586 268.225 306.309 266.237 301.727 266.237C296.839 266.237 292.562 268.225 289.355 271.665C286.147 275.029 284.162 279.845 284.162 285.044C284.162 290.243 286.147 295.059 289.355 298.346C292.562 301.786 296.839 303.851 301.727 303.851C306.309 303.851 310.586 301.786 313.793 298.346C316.925 295.059 318.986 290.242 318.986 285.044Z" fill="#004EFF"/>
<path d="M3.79447 364.384C5.16932 362.702 7.68942 362.473 9.36964 363.849C12.7298 366.601 18.5341 369.812 23.9564 369.735C27.7748 369.735 31.2117 368.589 33.5027 366.907C35.7939 365.225 36.7867 363.314 36.7867 361.402C36.7867 360.408 36.5575 359.721 36.0995 358.956C35.6412 358.192 34.9538 357.427 33.8083 356.663C31.5936 355.21 27.8513 353.91 23.3454 353.069H23.1927C19.6034 352.381 16.2429 351.464 13.3408 350.088C10.4389 348.711 7.91855 346.8 6.23832 344.125C5.09284 342.29 4.48189 340.149 4.48189 337.855C4.48189 333.268 7.07846 329.293 10.5915 326.694C14.1809 324.094 18.8395 322.642 23.8037 322.642C31.1353 322.642 36.5575 326.235 40.4525 328.758C42.2091 329.981 42.7437 332.427 41.5217 334.186C40.3762 336.021 37.9324 336.556 36.0995 335.333C32.2045 332.733 28.4623 330.44 23.8037 330.44C20.367 330.44 17.3122 331.51 15.2501 333.039C13.1881 334.568 12.348 336.25 12.348 337.855C12.348 338.773 12.5009 339.385 12.8827 339.996C13.2646 340.608 13.9518 341.296 14.9448 341.984C16.9304 343.36 20.367 344.583 24.4911 345.348H24.6438C28.5387 346.112 32.1281 347.106 35.1829 348.559C38.3142 350.088 41.0634 352.075 42.8201 354.904C43.9656 356.739 44.653 359.033 44.653 361.402C44.653 366.295 41.9036 370.5 38.085 373.252C34.3428 376.005 29.3788 377.61 23.9564 377.61C15.7084 377.533 8.75864 373.405 4.40542 369.965C2.72543 368.589 2.49628 366.066 3.79447 364.384Z" fill="#004EFF"/>
<path d="M56.4141 373.482L56.4141 328.376C56.4141 326.006 58.247 324.171 60.6144 324.171H85.5878C87.8023 324.171 89.7884 326.006 89.7884 328.376C89.7884 330.746 87.8023 332.657 85.5878 332.657H64.8912V346.648H82.6857C84.9766 346.648 86.8862 348.636 86.8862 350.853C86.8862 353.223 84.9766 355.134 82.6857 355.134H64.8912V369.201H85.5878C87.8023 369.201 89.7884 371.112 89.7884 373.482C89.7884 375.776 87.8023 377.687 85.5878 377.687H60.8435C60.6909 377.687 60.6909 377.611 60.6909 377.611L60.6144 377.687C58.247 377.687 56.4141 375.776 56.4141 373.482Z" fill="#004EFF"/>
<path d="M143.858 330.821C148.593 335.867 151.572 342.595 151.572 350.163C151.572 357.732 148.593 364.536 143.858 369.506C139.352 374.475 132.632 377.686 125.606 377.686C118.274 377.686 111.553 374.475 106.895 369.506C102.16 364.536 99.334 357.732 99.334 350.163C99.334 342.595 102.16 335.867 106.895 330.821C111.553 325.776 118.274 322.641 125.606 322.641C132.632 322.641 139.352 325.776 143.858 330.821ZM142.865 350.163C142.865 344.965 140.804 340.148 137.672 336.785C134.465 333.344 130.188 331.356 125.606 331.356C120.718 331.356 116.441 333.344 113.234 336.785C110.026 340.148 108.04 344.965 108.04 350.163C108.04 355.362 110.026 360.179 113.234 363.466C116.441 366.906 120.718 368.97 125.606 368.97C130.188 368.97 134.465 366.906 137.672 363.466C140.804 360.179 142.865 355.362 142.865 350.163Z" fill="#004EFF"/>
<path d="M187.758 52.0309L3.22852 52.0309L3.22852 148.466L187.758 148.466L187.758 52.0309Z" fill="white"/>
<path d="M187.776 148.443C187.67 148.479 3.19817 148.627 3.08336 148.653C2.95853 148.585 3.05093 52.1578 2.96104 52.0537L2.96094 51.8037L3.21079 51.8038C3.23521 51.7717 187.792 51.9449 187.826 51.9217C187.836 52.002 187.769 148.356 187.776 148.443ZM187.776 148.443L187.654 52.0081C188.155 52.2567 3.1199 52.2186 3.21109 52.3034C3.76234 50.7488 3.28777 148.823 3.41049 148.488C2.28417 148.128 188.073 148.521 187.776 148.443Z" fill="#C7C7C7"/>
<g opacity="0.5">
<path d="M24.5745 115.825H15.5254L15.5254 135.094H24.5745L24.5745 115.825Z" fill="#004EFF"/>
<path d="M43.4359 101.768H34.3867L34.3867 135.094H43.4359L43.4359 101.768Z" fill="#004EFF"/>
<path d="M62.2933 105.312H53.2441L53.2441 135.096H62.2933L62.2933 105.312Z" fill="#004EFF"/>
<path d="M81.1586 98.5867H72.1094L72.1094 135.095H81.1586L81.1586 98.5867Z" fill="#004EFF"/>
<path d="M100.02 111.956H90.9707V135.094H100.02V111.956Z" fill="#004EFF"/>
<path d="M118.879 100.782H109.83L109.83 135.095H118.879L118.879 100.782Z" fill="#004EFF"/>
<path d="M137.737 86.5634H128.688V135.095H137.737V86.5634Z" fill="#004EFF"/>
<path d="M156.6 94.923H147.551V135.096H156.6V94.923Z" fill="#004EFF"/>
<path d="M175.461 77.6992H166.412V135.095H175.461V77.6992Z" fill="#004EFF"/>
</g>
<path d="M20.0508 105.312L38.9117 87.4213L57.7728 94.7399L76.6338 85.6811L95.489 102.479L114.356 90.2105L133.217 73.2566L152.078 84.598L170.939 67.1971" stroke="#263238" stroke-width="0.75" stroke-miterlimit="10"/>
<path d="M24.5725 105.313C24.5725 107.814 22.5468 109.842 20.048 109.842C17.5493 109.842 15.5234 107.814 15.5234 105.313C15.5234 102.811 17.5492 100.783 20.048 100.783C22.5469 100.783 24.5725 102.811 24.5725 105.313Z" fill="#004EFF"/>
<path d="M38.9113 91.9501C41.4102 91.9501 43.4359 89.9222 43.4359 87.4207C43.4359 84.9192 41.4102 82.8914 38.9113 82.8914C36.4125 82.8914 34.3867 84.9192 34.3867 87.4207C34.3867 89.9222 36.4125 91.9501 38.9113 91.9501Z" fill="#004EFF"/>
<path d="M76.632 90.2111C79.1309 90.2111 81.1566 88.1832 81.1566 85.6817C81.1566 83.1802 79.1309 81.1524 76.632 81.1524C74.1332 81.1524 72.1074 83.1802 72.1074 85.6817C72.1074 88.1832 74.1332 90.2111 76.632 90.2111Z" fill="#004EFF"/>
<path d="M57.7707 99.269C60.2696 99.269 62.2953 97.2411 62.2953 94.7396C62.2953 92.2381 60.2696 90.2103 57.7707 90.2103C55.2718 90.2103 53.2461 92.2381 53.2461 94.7396C53.2461 97.2411 55.2718 99.269 57.7707 99.269Z" fill="#004EFF"/>
<path d="M95.4875 107.01C97.9864 107.01 100.012 104.982 100.012 102.48C100.012 99.9789 97.9864 97.951 95.4875 97.951C92.9886 97.951 90.9629 99.9789 90.9629 102.48C90.9629 104.982 92.9886 107.01 95.4875 107.01Z" fill="#004EFF"/>
<path d="M114.355 94.7405C116.854 94.7405 118.879 92.7126 118.879 90.2111C118.879 87.7096 116.854 85.6817 114.355 85.6817C111.856 85.6817 109.83 87.7096 109.83 90.2111C109.83 92.7126 111.856 94.7405 114.355 94.7405Z" fill="#004EFF"/>
<path d="M137.739 73.2559C137.739 75.7573 135.713 77.7852 133.214 77.7852C130.715 77.7852 128.689 75.7573 128.689 73.2559C128.689 70.7545 130.715 68.7265 133.214 68.7265C135.713 68.7265 137.739 70.7544 137.739 73.2559Z" fill="#004EFF"/>
<path d="M152.075 89.1275C154.574 89.1275 156.6 87.0996 156.6 84.5981C156.6 82.0966 154.574 80.0687 152.075 80.0687C149.577 80.0687 147.551 82.0966 147.551 84.5981C147.551 87.0996 149.577 89.1275 152.075 89.1275Z" fill="#004EFF"/>
<path d="M170.935 71.7274C173.434 71.7274 175.459 69.6995 175.459 67.198C175.459 64.6965 173.434 62.6687 170.935 62.6687C168.436 62.6687 166.41 64.6965 166.41 67.198C166.41 69.6995 168.436 71.7274 170.935 71.7274Z" fill="#004EFF"/>
<path d="M405.554 617.357H250.348V698.467H405.554V617.357Z" fill="white"/>
<path d="M405.567 698.449C405.478 698.479 250.321 698.603 250.224 698.625C250.119 698.568 250.197 617.464 250.121 617.377L250.121 617.167L250.331 617.167C250.352 617.14 405.581 617.285 405.609 617.266C405.618 617.333 405.561 698.376 405.567 698.449ZM405.567 698.449L405.465 617.338C405.886 617.548 250.255 617.516 250.331 617.587C250.795 616.279 250.396 698.769 250.499 698.487C249.552 698.184 405.817 698.515 405.567 698.449Z" fill="#C7C7C7"/>
<g opacity="0.5">
<path d="M268.299 671.014H260.688V687.221H268.299V671.014Z" fill="#004EFF"/>
<path d="M284.162 659.193H276.551V687.222H284.162V659.193Z" fill="#004EFF"/>
<path d="M300.023 662.171H292.412V687.221H300.023V662.171Z" fill="#004EFF"/>
<path d="M315.887 656.516H308.275V687.223H315.887V656.516Z" fill="#004EFF"/>
<path d="M331.754 667.76H324.143V687.221H331.754V667.76Z" fill="#004EFF"/>
<path d="M347.619 658.361H340.008V687.222H347.619V658.361Z" fill="#004EFF"/>
<path d="M363.478 646.402H355.867V687.222H363.478V646.402Z" fill="#004EFF"/>
<path d="M379.344 653.432H371.732V687.221H379.344V653.432Z" fill="#004EFF"/>
<path d="M395.209 638.947H387.598V687.222H395.209V638.947Z" fill="#004EFF"/>
</g>
<path d="M264.492 662.172L280.356 647.124L296.22 653.28L312.084 645.661L327.943 659.789L343.811 649.47L359.675 635.21L375.539 644.75L391.403 630.114" stroke="#263238" stroke-width="0.75" stroke-miterlimit="10"/>
<path d="M268.295 662.173C268.295 664.277 266.591 665.982 264.489 665.982C262.387 665.982 260.684 664.277 260.684 662.173C260.684 660.069 262.387 658.363 264.489 658.363C266.591 658.363 268.295 660.069 268.295 662.173Z" fill="#004EFF"/>
<path d="M280.356 650.934C282.458 650.934 284.162 649.228 284.162 647.124C284.162 645.02 282.458 643.314 280.356 643.314C278.255 643.314 276.551 645.02 276.551 647.124C276.551 649.228 278.255 650.934 280.356 650.934Z" fill="#004EFF"/>
<path d="M312.081 649.47C314.183 649.47 315.887 647.764 315.887 645.66C315.887 643.556 314.183 641.85 312.081 641.85C309.979 641.85 308.275 643.556 308.275 645.66C308.275 647.764 309.979 649.47 312.081 649.47Z" fill="#004EFF"/>
<path d="M296.216 657.09C298.318 657.09 300.021 655.384 300.021 653.28C300.021 651.176 298.318 649.471 296.216 649.471C294.114 649.471 292.41 651.176 292.41 653.28C292.41 655.384 294.114 657.09 296.216 657.09Z" fill="#004EFF"/>
<path d="M327.94 663.599C330.042 663.599 331.746 661.894 331.746 659.79C331.746 657.686 330.042 655.98 327.94 655.98C325.839 655.98 324.135 657.686 324.135 659.79C324.135 661.894 325.839 663.599 327.94 663.599Z" fill="#004EFF"/>
<path d="M343.81 653.281C345.911 653.281 347.615 651.575 347.615 649.471C347.615 647.367 345.911 645.662 343.81 645.662C341.708 645.662 340.004 647.367 340.004 649.471C340.004 651.575 341.708 653.281 343.81 653.281Z" fill="#004EFF"/>
<path d="M363.474 635.211C363.474 637.315 361.771 639.021 359.669 639.021C357.567 639.021 355.863 637.315 355.863 635.211C355.863 633.108 357.567 631.402 359.669 631.402C361.771 631.402 363.474 633.107 363.474 635.211Z" fill="#004EFF"/>
<path d="M375.536 648.56C377.638 648.56 379.342 646.854 379.342 644.75C379.342 642.646 377.638 640.94 375.536 640.94C373.434 640.94 371.73 642.646 371.73 644.75C371.73 646.854 373.434 648.56 375.536 648.56Z" fill="#004EFF"/>
<path d="M391.399 633.924C393.501 633.924 395.205 632.218 395.205 630.114C395.205 628.01 393.501 626.305 391.399 626.305C389.298 626.305 387.594 628.01 387.594 630.114C387.594 632.218 389.298 633.924 391.399 633.924Z" fill="#004EFF"/>
<path d="M405.475 168.988L3.25195 168.988L3.25195 249.798L405.475 249.798V168.988Z" fill="white"/>
<path d="M405.474 168.987L405.523 249.797C405.613 249.942 3.27318 250.037 3.25118 250.088L2.96094 250.088L2.96106 249.797L3.00807 168.987C2.68511 168.281 405.274 169.228 405.474 168.987ZM405.474 168.987C405.547 168.779 2.2183 169.672 3.49327 168.988C3.44671 168.761 3.91724 251.127 3.25246 249.508C3.24373 249.547 405.675 249.662 405.426 249.797L405.474 168.987Z" fill="#C7C7C7"/>
<path opacity="0.4" d="M60.8986 236.212C75.6952 230.817 83.3211 214.436 77.9316 199.624C72.5422 184.812 56.1781 177.178 41.3815 182.573C26.5849 187.968 18.9589 204.349 24.3484 219.161C29.7379 233.974 46.1019 241.608 60.8986 236.212Z" fill="#004EFF"/>
<path d="M70.3158 213.958C72.8351 203.356 66.2922 192.718 55.7016 190.196C45.1111 187.674 34.4834 194.223 31.9641 204.825C29.4447 215.427 35.9876 226.066 46.5782 228.588C57.1687 231.11 67.7964 224.56 70.3158 213.958Z" stroke="white" stroke-width="3" stroke-miterlimit="10"/>
<path d="M51.1396 230.873C39.3076 230.873 29.6816 221.236 29.6816 209.392C29.6816 197.548 39.3076 187.912 51.1396 187.912V191.407C41.2329 191.407 33.1731 199.475 33.1731 209.392C33.1731 219.31 41.2329 227.378 51.1396 227.378C61.0463 227.378 69.1061 219.31 69.1061 209.392C69.1061 203.913 66.5352 198.624 62.2294 195.243L64.3844 192.492C69.6039 196.592 72.5976 202.751 72.5976 209.392C72.5976 221.236 62.9716 230.873 51.1396 230.873Z" fill="#004EFF"/>
<path opacity="0.4" d="M138.502 235.828C153.087 229.885 160.098 213.23 154.161 198.629C148.223 184.029 131.586 177.011 117.001 182.954C102.416 188.898 95.4049 205.552 101.342 220.153C107.279 234.754 123.916 241.772 138.502 235.828Z" fill="#004EFF"/>
<path d="M146.931 213.957C149.45 203.355 142.907 192.716 132.317 190.194C121.726 187.672 111.099 194.222 108.579 204.824C106.06 215.425 112.603 226.064 123.193 228.586C133.784 231.108 144.412 224.558 146.931 213.957Z" stroke="white" stroke-width="3" stroke-miterlimit="10"/>
<path d="M127.753 230.87C115.921 230.87 106.295 221.233 106.295 209.389C106.295 197.546 115.921 187.909 127.753 187.909V191.404C117.846 191.404 109.786 199.472 109.786 209.389C109.786 219.307 117.846 227.375 127.753 227.375C130.747 227.375 133.719 226.617 136.349 225.183L138.019 228.252C134.879 229.964 131.329 230.87 127.753 230.87Z" fill="#004EFF"/>
<path opacity="0.4" d="M215.113 235.83C229.699 229.887 236.709 213.232 230.772 198.632C224.835 184.031 208.198 177.013 193.612 182.956C179.027 188.9 172.016 205.554 177.954 220.155C183.891 234.756 200.528 241.774 215.113 235.83Z" fill="#004EFF"/>
<path d="M223.542 213.959C226.062 203.357 219.519 192.718 208.928 190.196C198.338 187.674 187.71 194.224 185.191 204.826C182.671 215.428 189.214 226.066 199.805 228.589C210.395 231.111 221.023 224.561 223.542 213.959Z" stroke="white" stroke-width="3" stroke-miterlimit="10"/>
<path d="M204.364 230.872C192.532 230.872 182.906 221.236 182.906 209.392C182.906 197.548 192.532 187.911 204.364 187.911V191.406C194.457 191.406 186.398 199.474 186.398 209.392C186.398 219.309 194.457 227.377 204.364 227.377C212.232 227.377 219.115 222.332 221.491 214.824L224.819 215.88C221.982 224.848 213.762 230.872 204.364 230.872Z" fill="#004EFF"/>
<path opacity="0.4" d="M291.728 235.83C306.314 229.886 313.325 213.232 307.387 198.631C301.45 184.03 284.813 177.012 270.228 182.956C255.642 188.899 248.631 205.554 254.569 220.154C260.506 234.755 277.143 241.773 291.728 235.83Z" fill="#004EFF"/>
<path d="M300.206 213.743C302.607 203.114 295.945 192.549 285.327 190.146C274.709 187.743 264.155 194.412 261.755 205.041C259.354 215.67 266.016 226.235 276.634 228.638C287.252 231.041 297.806 224.373 300.206 213.743Z" stroke="white" stroke-width="3" stroke-miterlimit="10"/>
<path d="M280.976 230.873C269.145 230.873 259.52 221.236 259.52 209.392C259.52 197.548 269.145 187.912 280.976 187.912V191.407C271.07 191.407 263.011 199.475 263.011 209.392C263.011 219.31 271.07 227.378 280.976 227.378C290.884 227.378 298.943 219.31 298.943 209.392C298.943 207.269 298.572 205.184 297.843 203.193L301.12 201.989C301.992 204.366 302.434 206.857 302.434 209.392C302.434 221.236 292.808 230.873 280.976 230.873Z" fill="#004EFF"/>
<path opacity="0.4" d="M368.344 235.83C382.929 229.887 389.94 213.232 384.003 198.632C378.065 184.031 361.428 177.013 346.843 182.956C332.257 188.9 325.247 205.554 331.184 220.155C337.121 234.756 353.758 241.774 368.344 235.83Z" fill="#004EFF"/>
<path d="M376.553 214.801C379.537 204.321 373.469 193.404 363 190.417C352.531 187.429 341.625 193.504 338.641 203.984C335.657 214.464 341.725 225.381 352.194 228.369C362.663 231.356 373.569 225.281 376.553 214.801Z" stroke="white" stroke-width="3" stroke-miterlimit="10"/>
<path d="M350.669 229.723C341.976 226.755 336.137 218.585 336.137 209.392C336.137 197.548 345.763 187.911 357.595 187.911V191.406C347.687 191.406 339.628 199.474 339.628 209.392C339.628 217.088 344.518 223.93 351.796 226.415L350.669 229.723Z" fill="#004EFF"/>
<path d="M361.286 42.9522L360.898 102.67L416.898 84.5794C409.039 59.4309 387.248 43.1211 361.286 42.9522Z" fill="#37474F"/>
<path d="M363.006 42.9862L361.274 45.9173L361.277 45.5745L362.815 42.9769C362.878 42.9853 362.942 42.9857 363.006 42.9862ZM364.782 43.0694L361.242 50.957L361.238 51.4195L364.981 43.0867C364.917 43.0783 364.846 43.0779 364.782 43.0694ZM371.237 43.8292L361.181 60.3346L361.178 60.7651L371.484 43.8707C371.404 43.8542 371.317 43.8457 371.237 43.8292ZM372.638 44.0935L361.126 68.6755L361.123 69.2735L372.876 44.1349C372.797 44.1184 372.717 44.1019 372.638 44.0935ZM378.121 51.1067L381.241 46.486C381.154 46.4454 381.059 46.413 380.963 46.3805L377.883 50.9458L368.689 64.562L361.08 75.8282L361.077 76.3306L368.927 64.7152L378.121 51.1067ZM381.655 46.6321L361.035 82.7337L361.031 83.3797L381.933 46.7377C381.837 46.7051 381.75 46.6648 381.655 46.6321ZM388.668 49.7958L361.013 86.1227L361.01 86.673L388.978 49.9653L388.668 49.7958ZM389.311 50.143L360.965 93.5466L360.961 94.2403L389.621 50.3204C389.517 50.2639 389.414 50.2074 389.311 50.143ZM395.348 54.002L360.953 95.3487L360.949 95.9707L395.689 54.2514C395.578 54.163 395.459 54.0825 395.348 54.002ZM396.062 54.533L363.947 101.684L364.634 101.465L396.403 54.7903C396.292 54.7019 396.173 54.6134 396.062 54.533ZM401.33 59.0329L365.528 101.176L366.326 100.918L401.631 59.3219C401.528 59.2256 401.433 59.1292 401.33 59.0329ZM401.916 59.6029L373.774 98.5103L374.389 98.315L402.208 59.8999C402.106 59.8035 402.011 59.6991 401.916 59.6029ZM406.534 64.7844L376.712 97.5645L377.43 97.3299L406.756 65.0649C406.684 64.9687 406.605 64.8725 406.534 64.7844ZM407.261 65.7222L385.748 94.641L386.283 94.469L407.474 66.0106C407.403 65.9145 407.332 65.8183 407.261 65.7222ZM410.954 71.2087L390.562 93.0933L391.152 92.8978L411.103 71.4649C411.056 71.3768 411.009 71.2887 410.954 71.2087ZM411.505 72.1452L396.74 91.0921L397.187 90.9514L411.655 72.4014C411.6 72.3133 411.552 72.2254 411.505 72.1452ZM414.596 78.3375L404.404 88.6221L404.899 88.4577L414.69 78.5614C414.658 78.4895 414.627 78.4096 414.596 78.3375ZM415.121 79.609L409.026 87.129L409.401 87.0038L415.215 79.8408C415.192 79.761 415.16 79.6889 415.121 79.609Z" fill="#263238"/>
<path d="M360.905 102.669L304.91 120.765C312.814 146.051 335.743 162.249 360.508 162.41C366.526 162.449 372.649 161.542 378.695 159.589C397.247 153.595 410.527 140.27 416.664 121.492L360.905 102.669Z" fill="#004EFF"/>
<path d="M304.909 120.767L300.24 120.736C308.144 146.023 331.073 162.22 355.838 162.381L360.507 162.412C335.742 162.251 312.813 146.053 304.909 120.767Z" fill="#004EFF"/>
<g opacity="0.1">
<path d="M304.909 120.768L300.24 120.737C308.144 146.024 331.073 162.221 355.838 162.382L360.507 162.413C335.742 162.252 312.813 146.054 304.909 120.768Z" fill="black"/>
</g>
<path opacity="0.1" d="M307.465 119.937L306.821 126.001C306.805 125.977 306.797 125.961 306.789 125.937L307.433 119.952L307.465 119.937ZM313.796 117.897L309.115 130.904C309.131 130.92 309.139 130.936 309.146 130.952L313.852 117.873L313.796 117.897ZM316.047 117.17L313.198 137.558C313.222 137.59 313.237 137.614 313.261 137.646L316.111 117.146L316.047 117.17ZM320.062 115.872L314.122 138.824C314.145 138.856 314.161 138.88 314.177 138.904L320.158 115.833L320.062 115.872ZM321.627 115.364L318.493 144.019C318.525 144.059 318.557 144.092 318.596 144.124L321.73 115.333L321.627 115.364ZM326.361 113.832L319.427 144.982C319.459 145.023 319.498 145.055 319.53 145.087L326.504 113.785L326.361 113.832ZM327.518 113.456L324.694 149.714C324.741 149.746 324.789 149.786 324.844 149.826L327.662 113.41L327.518 113.456ZM325.55 150.373C325.597 150.413 325.645 150.453 325.7 150.486L332.228 111.932L332.036 112.003L325.55 150.373ZM333.569 111.502L333.062 155.262C333.125 155.303 333.197 155.343 333.268 155.375L333.761 111.44L333.569 111.502ZM333.705 155.609C333.776 155.65 333.84 155.682 333.911 155.715L339.005 109.743L338.758 109.829L333.705 155.609ZM340.115 109.384L339.875 109.47L340.265 158.595C340.353 158.627 340.448 158.66 340.535 158.7L340.115 109.384ZM340.782 158.79L341.044 158.887L345.12 107.766L344.825 107.867L340.782 158.79ZM345.998 107.484L345.703 107.578L347.317 160.786C347.42 160.81 347.532 160.843 347.643 160.86L345.998 107.484ZM347.914 160.925C348.025 160.958 348.128 160.982 348.24 160.999L352.001 105.546L351.642 105.663L347.914 160.925ZM355.354 162.042L352.848 105.272L352.488 105.389L354.972 162.112C355.099 162.12 355.227 162.129 355.354 162.146H355.362C355.489 162.155 355.617 162.172 355.744 162.18L357.717 103.701L357.294 103.834L355.354 162.042ZM362.875 162.003L358.627 103.404L358.212 103.537L362.498 162.384C362.617 162.385 362.745 162.385 362.864 162.37C362.88 162.378 362.888 162.378 362.904 162.37C363.024 162.371 363.143 162.364 363.263 162.357L364.646 103.929L364.264 103.807L362.875 162.003ZM365.393 104.181L365.012 104.059L370.333 161.621C370.445 161.606 370.557 161.591 370.668 161.568L365.393 104.181ZM369.59 105.604L370.668 161.568C370.78 161.553 370.892 161.529 371.003 161.506L369.908 105.71L369.59 105.604ZM370.615 105.946L370.282 105.832L378.519 159.641C378.575 159.626 378.639 159.602 378.695 159.587C378.727 159.579 378.759 159.563 378.791 159.555L370.615 105.946ZM378.301 149.185L377.104 133.5L375.106 107.466L374.844 107.377L376.833 133.514L378.03 149.207L378.632 157.05L378.823 159.548C378.919 159.516 379.006 159.485 379.094 159.454L378.911 157.036L378.301 149.185ZM376.036 107.775L375.758 107.686L387.249 156.126C387.321 156.094 387.385 156.055 387.457 156.023L376.036 107.775ZM382.292 109.89L387.944 155.771C388.016 155.74 388.088 155.7 388.152 155.669L382.498 109.963L382.292 109.89ZM383.428 110.272L383.214 110.199L393.894 152.277C393.95 152.246 393.998 152.214 394.046 152.175L383.428 110.272ZM397.338 114.971L401.189 146.456C401.229 146.416 401.261 146.384 401.301 146.353L397.45 115.004L397.338 114.971ZM398.682 115.427L398.571 115.386L406.685 140.423C406.709 140.391 406.733 140.367 406.757 140.336L398.682 115.427ZM389.549 112.337L394.91 151.574C394.958 151.551 395.014 151.511 395.062 151.471L389.7 112.394L389.549 112.337ZM394.792 126.893L391.17 114.134L390.781 112.76L390.622 112.703L391.035 114.173L394.656 126.932L400.419 147.16C400.451 147.137 400.492 147.105 400.524 147.073L394.792 126.893ZM402.449 116.695L407.303 139.621C407.327 139.598 407.343 139.566 407.367 139.534L402.529 116.72L402.449 116.695ZM403.626 117.094L403.539 117.061L410.408 135.064C410.432 135.04 410.448 135.025 410.448 135.001L403.626 117.094ZM407.25 118.313L411.14 133.857C411.157 133.833 411.173 133.817 411.173 133.793L407.298 118.33L407.25 118.313ZM409.254 118.988L409.206 118.972L414.158 127.975C414.166 127.968 414.174 127.952 414.174 127.944L409.254 118.988ZM412.886 120.216L414.999 126.011C415.007 126.003 415.015 125.987 415.015 125.98L412.91 120.224L412.886 120.216ZM416.272 121.363L416.248 121.354C416.359 121.499 416.461 121.643 416.556 121.795C416.556 121.795 416.564 121.787 416.564 121.779C416.469 121.643 416.375 121.499 416.272 121.363Z" fill="black"/>
<path d="M361.292 42.9516C328.848 42.7404 302.37 69.3079 302.156 102.287C302.113 108.886 302.944 114.477 304.91 120.764L360.904 102.669L361.292 42.9516Z" fill="#455A64"/>
<path d="M360.985 90.2683L360.982 90.7229L309.262 74.198L309.456 73.8165L360.985 90.2683ZM308.923 74.8418L360.94 97.1738L360.943 96.7511L309.109 74.4763C309.044 74.5954 308.98 74.7145 308.923 74.8418ZM313.721 67.098C313.633 67.2091 313.544 67.3281 313.472 67.4473L361.024 84.1441L361.027 83.7375L313.721 67.098ZM313.014 68.0902L360.991 89.2714L360.994 88.793L313.255 67.7409C313.175 67.8519 313.086 67.9709 313.014 68.0902ZM325.142 55.2904C325.053 55.3537 324.973 55.4249 324.893 55.4882L361.118 69.6871L361.12 69.4161L325.142 55.2904ZM323.868 56.3188L361.085 74.8385L361.087 74.4955L324.117 56.113C324.029 56.1763 323.948 56.2476 323.868 56.3188ZM319.14 60.6819C319.044 60.7691 318.956 60.8642 318.875 60.9513L361.075 76.4093L361.077 76.0663L319.14 60.6819ZM317.993 61.8866L361.034 82.677L361.037 82.2623L318.242 61.625C318.153 61.7122 318.073 61.7994 317.993 61.8866ZM342.808 45.8441C342.736 45.8596 342.664 45.883 342.592 45.9065L361.213 55.1185L361.214 54.951L342.808 45.8441ZM340.189 46.768L361.183 59.6478L361.185 59.4245L340.405 46.6897C340.333 46.7131 340.261 46.7445 340.189 46.768ZM332.59 50.339C332.502 50.3782 332.422 50.4256 332.342 50.473L361.165 62.4307L361.167 62.2074L332.59 50.339ZM330.735 51.4194L361.131 67.7255L361.133 67.4544L330.967 51.2853C330.887 51.3246 330.807 51.372 330.735 51.4194ZM352.772 43.5166C352.709 43.5242 352.653 43.5318 352.597 43.5394L361.258 48.1651L361.259 48.0534L352.772 43.5166ZM348.857 44.2168L361.229 52.7104L361.23 52.5429L349.032 44.178C348.968 44.1856 348.913 44.1932 348.857 44.2168ZM358.527 43.0039C358.48 42.9956 358.432 43.0032 358.384 43.0029L361.278 45.1429L361.278 45.0313L358.527 43.0039ZM302.374 108.164L325.772 114.026L326.067 113.924L302.359 107.981C302.367 108.045 302.366 108.108 302.374 108.164ZM302.286 106.912C302.286 106.975 302.293 107.039 302.293 107.103L334.026 111.353L334.465 111.212L302.286 106.912ZM303.575 115.827L312.696 118.247L312.911 118.177L303.544 115.692C303.551 115.739 303.559 115.779 303.575 115.827ZM303.42 115.133C303.428 115.181 303.435 115.229 303.451 115.268L317.39 116.731L317.717 116.629L303.42 115.133ZM302.211 100.117L338.808 109.805L339.183 109.688L302.22 99.8858C302.212 99.9575 302.211 100.037 302.211 100.117ZM302.265 99.1126C302.257 99.1923 302.248 99.2718 302.248 99.3596L349.289 106.42L349.848 106.24L302.265 99.1126ZM312.646 92.8803L304.815 90.4131L303.488 89.9977C303.463 90.0932 303.446 90.1888 303.43 90.2844L304.726 90.6917L312.556 93.1508L328.217 98.0852L351.939 105.568L352.378 105.419L328.299 97.8226L312.646 92.8803ZM303.578 89.5837C303.553 89.6791 303.529 89.7747 303.512 89.8703L359.739 103.043L360.321 102.856L303.578 89.5837ZM305.729 82.1336L360.369 102.84L360.864 102.684L305.851 81.8075C305.802 81.9187 305.762 82.0221 305.729 82.1336ZM306.037 81.2982C305.989 81.4096 305.948 81.529 305.916 81.6403L360.934 98.059L360.937 97.6603L306.037 81.2982Z" fill="#37474F"/>
<path d="M361.289 42.952L356.62 42.9216C324.177 42.7105 297.698 69.278 297.484 102.257C297.441 108.856 298.272 114.447 300.238 120.734L304.907 120.765C302.941 114.478 302.11 108.886 302.153 102.287C302.367 69.3083 328.846 42.7408 361.289 42.952Z" fill="#37474F"/>
<path d="M446.687 121.734L446.509 121.675L446.347 121.617L443.112 120.484L442.918 120.424L441.072 119.776L440.856 119.705L437.929 118.685L437.69 118.595L435.898 117.97L435.635 117.886L435.636 117.878L432.26 116.705L431.975 116.603L429.951 115.896L429.634 115.79L427.117 114.911L426.777 114.794L424.56 114.019L424.205 113.9L421.146 112.834L420.83 112.72L418.505 111.91L418.196 111.804L415.964 111.027L415.701 110.935L413.153 110.044L412.898 109.953L410.689 109.186L410.473 109.107L407.36 108.027L407.137 107.947L403.869 106.81L403.692 106.743L401.182 105.872L401.02 105.815L397.776 104.681L397.637 104.634L394.903 103.683L394.78 103.638L391.914 102.64L394.644 101.762L394.76 101.727L397.905 100.709L398.046 100.668L400.743 99.7943L400.9 99.747L404.344 98.6409L404.535 98.5731L406.841 97.8341L407.049 97.7682L412.119 96.1307L412.368 96.0532L413.637 95.6441L413.903 95.5603L418.848 93.9656L419.155 93.8701L419.156 93.8622L420.242 93.5137L420.566 93.4121L425.652 91.7764L425.653 91.7684L426.042 91.6499L427.179 91.2825L427.552 91.1622L432.896 89.442L433.286 89.3154L433.908 89.1174L434.274 88.9962L440.165 87.102L440.505 86.9941L440.505 86.9862L441.044 86.8194L441.359 86.717L447.218 84.8273C447.264 84.9925 447.319 85.1588 447.365 85.3243L447.364 85.3322C447.405 85.4728 447.447 85.6057 447.488 85.7464L447.487 85.7543L447.522 85.8784L447.521 85.8864C447.575 86.0525 447.622 86.2179 447.668 86.3832C448.857 90.6972 449.572 94.9363 449.819 99.1412L449.818 99.1491C449.832 99.3191 449.838 99.4881 449.851 99.6659L449.85 99.6738C449.951 101.65 449.947 103.63 449.833 105.599C449.816 105.982 449.792 106.356 449.759 106.738L449.757 106.753C449.388 111.702 448.36 116.661 446.687 121.734Z" fill="#C7C7C7"/>
<path d="M394.761 101.727L394.904 103.684L394.78 103.638L394.645 101.763L394.761 101.727ZM397.906 100.71L397.638 104.635L397.777 104.682L398.046 100.669L397.906 100.71ZM400.901 99.7477L400.744 99.795L401.02 105.816L401.182 105.873L400.901 99.7477ZM404.344 98.6416L403.693 106.744L403.87 106.811L404.536 98.5738L404.344 98.6416ZM407.049 97.7689L406.842 97.8349L407.137 107.948L407.361 108.028L407.049 97.7689ZM411.288 102.699L410.474 109.108L410.69 109.187L411.517 102.731L412.368 96.054L412.12 96.1314L411.288 102.699ZM413.903 95.561L413.638 95.6448L412.899 109.953L413.154 110.045L413.903 95.561ZM415.702 110.936L415.965 111.028L419.155 93.8708L418.849 93.9663L415.702 110.936ZM420.243 93.5144L418.197 111.805L418.506 111.91L420.566 93.4128L420.243 93.5144ZM425.653 91.7772L420.83 112.721L421.147 112.835L426.043 91.6506L425.654 91.7691L425.653 91.7772ZM427.18 91.2832L424.205 113.901L424.561 114.02L427.553 91.1629L427.18 91.2832ZM432.897 89.4427L426.777 114.795L427.117 114.911L433.287 89.3161L432.897 89.4427ZM433.909 89.1181L429.635 115.791L429.952 115.897L434.274 88.9969L433.909 89.1181ZM440.165 87.1027L431.976 116.603L432.261 116.706L440.505 86.9948L440.165 87.1027ZM441.045 86.8201L435.636 117.878L435.635 117.886L435.899 117.971L441.36 86.7177L441.045 86.8201ZM447.489 85.7471C447.448 85.6065 447.406 85.4736 447.365 85.3329L437.691 118.596L437.929 118.686L447.488 85.755L447.489 85.7471ZM447.522 85.8871L440.857 119.706L441.073 119.777L447.669 86.384C447.622 86.2186 447.576 86.0533 447.522 85.8871ZM449.852 99.6667C449.839 99.4888 449.833 99.3198 449.819 99.1498L442.919 120.424L443.112 120.485L449.851 99.6746L449.852 99.6667ZM449.833 105.599L446.348 121.618L446.51 121.676L449.758 106.754L449.76 106.738C449.792 106.357 449.817 105.983 449.833 105.599Z" fill="#DBDBDB"/>
<path d="M446.688 121.731L442.045 121.233L387.275 102.142L391.918 102.64L446.688 121.731Z" fill="#A6A6A6"/>
<path d="M391.914 102.642L387.271 102.144L442.575 84.3328L447.217 84.8309L391.914 102.642Z" fill="#A6A6A6"/>
<path d="M146.138 693.404L183.642 661.01L141.741 635.926C130.331 654.578 132.055 677.1 146.138 693.404Z" fill="#37474F"/>
<path d="M145.218 692.312L147.995 691.791L147.779 691.977L145.316 692.436C145.287 692.392 145.252 692.352 145.218 692.312ZM144.299 691.158L151.16 689.058L151.45 688.807L144.201 691.024C144.231 691.068 144.27 691.113 144.299 691.158ZM141.245 686.711L157.049 683.971L157.319 683.737L141.137 686.534C141.17 686.593 141.212 686.652 141.245 686.711ZM140.645 685.692L162.288 679.446L162.663 679.122L140.541 685.52C140.574 685.579 140.607 685.638 140.645 685.692ZM142.028 678.435L137.437 679.012C137.46 679.088 137.491 679.165 137.523 679.243L142.058 678.672L155.586 676.971L166.78 675.566L167.095 675.293L155.551 676.739L142.028 678.435ZM137.303 678.674L171.117 671.82L171.522 671.47L137.217 678.442C137.248 678.52 137.271 678.596 137.303 678.674ZM135.445 672.565L173.245 669.982L173.591 669.683L135.382 672.279L135.445 672.565ZM135.311 671.973L177.907 665.954L178.343 665.578L135.252 671.683C135.273 671.778 135.295 671.874 135.311 671.973ZM134.421 666.094L179.039 664.977L179.43 664.639L134.391 665.745C134.396 665.863 134.411 665.981 134.421 666.094ZM134.363 665.359L181.359 659.645L180.847 659.336L134.337 665.005C134.343 665.123 134.352 665.245 134.363 665.359ZM134.294 659.609L180.178 658.935L179.581 658.578L134.31 659.264C134.306 659.38 134.298 659.493 134.294 659.609ZM134.33 658.932L174.007 655.243L173.549 654.966L134.355 658.587C134.351 658.704 134.338 658.82 134.33 658.932ZM135.041 653.216L171.811 653.925L171.272 653.605L135.096 652.925C135.074 653.022 135.058 653.124 135.041 653.216ZM135.23 652.25L165.046 649.88L164.647 649.639L135.293 651.959C135.272 652.056 135.251 652.153 135.23 652.25ZM136.638 646.945L161.449 647.719L161.004 647.457L136.716 646.712C136.687 646.789 136.658 646.867 136.638 646.945ZM136.921 646.089L156.823 644.955L156.49 644.752L137 645.856C136.975 645.938 136.946 646.016 136.921 646.089ZM139.099 640.775L151.092 641.519L150.719 641.3L139.188 640.594C139.16 640.653 139.127 640.716 139.099 640.775ZM139.606 639.752L147.634 639.448L147.35 639.282L139.7 639.566C139.663 639.625 139.635 639.684 139.606 639.752Z" fill="#263238"/>
<path d="M183.642 661.008L225.544 686.086C237.016 667.331 234.6 644.159 221.166 628.606C217.901 624.826 213.989 621.498 209.465 618.79C195.583 610.481 180.004 609.47 164.923 615.9L183.642 661.008Z" fill="#004EFF"/>
<path d="M225.544 686.086L228.076 689.018C239.548 670.263 237.132 647.091 223.698 631.538L221.165 628.606C234.599 644.159 237.015 667.33 225.544 686.086Z" fill="#004EFF"/>
<g opacity="0.1">
<path d="M225.544 686.085L228.076 689.018C239.548 670.262 237.132 647.091 223.698 631.538L221.165 628.605C234.599 644.159 237.015 667.33 225.544 686.085Z" fill="black"/>
</g>
<path opacity="0.1" d="M223.627 684.943L227.766 682.031C227.76 682.054 227.754 682.068 227.744 682.086L223.654 684.954L223.627 684.943ZM218.893 682.105L229.575 677.919C229.576 677.9 229.582 677.886 229.587 677.873L218.848 682.083L218.893 682.105ZM217.209 681.096L231.498 671.733C231.505 671.7 231.511 671.678 231.518 671.645L217.159 681.069L217.209 681.096ZM214.204 679.298L231.784 670.464C231.791 670.432 231.797 670.409 231.803 670.386L214.127 679.259L214.204 679.298ZM213.032 678.598L232.639 664.895C232.647 664.853 232.65 664.815 232.648 664.773L212.955 678.551L213.032 678.598ZM209.488 676.48L232.73 663.785C232.738 663.743 232.737 663.701 232.739 663.664L209.38 676.416L209.488 676.48ZM208.621 675.962L232.807 657.91C232.801 657.863 232.8 657.811 232.795 657.755L208.513 675.898L208.621 675.962ZM232.751 657.015C232.75 656.964 232.749 656.912 232.739 656.86L205.095 673.854L205.244 673.935L232.751 657.015ZM204.093 673.251L231.698 649.652C231.689 649.59 231.675 649.524 231.656 649.461L203.95 673.166L204.093 673.251ZM231.564 649.061C231.55 648.994 231.535 648.937 231.517 648.875L200.024 670.817L200.213 670.925L231.564 649.061ZM199.193 670.321L199.378 670.424L229.843 643.332C229.815 643.26 229.783 643.183 229.761 643.106L199.193 670.321ZM229.682 642.903L229.599 642.686L195.447 668.08L195.672 668.209L229.682 642.903ZM194.791 667.685L195.011 667.818L227.357 637.731C227.316 637.653 227.275 637.566 227.225 637.487L194.791 667.685ZM227.118 637.283C227.078 637.195 227.036 637.117 226.986 637.038L190.3 664.996L190.57 665.156L227.118 637.283ZM223.749 632.025L189.667 664.617L189.936 664.777L224.001 632.226C223.937 632.142 223.873 632.058 223.814 631.969L223.81 631.964C223.746 631.88 223.686 631.791 223.622 631.707L186.024 662.435L186.338 662.626L223.749 632.025ZM219.615 627.35L185.341 662.029L185.651 662.215L220.058 627.378C219.993 627.303 219.924 627.223 219.849 627.156C219.846 627.142 219.841 627.137 219.828 627.131C219.763 627.056 219.693 626.985 219.623 626.915L182.38 657.983L182.513 658.288L219.615 627.35ZM182.129 657.378L182.262 657.683L215.3 622.901C215.229 622.84 215.159 622.778 215.083 622.721L182.129 657.378ZM180.724 653.98L215.083 622.721C215.013 622.66 214.937 622.603 214.862 622.546L180.617 653.724L180.724 653.98ZM180.377 653.153L180.489 653.423L209.589 618.871C209.549 618.845 209.5 618.818 209.459 618.792C209.437 618.776 209.41 618.764 209.387 618.749L180.377 653.153ZM203.179 624.722L194.038 634.042L178.872 649.517L178.96 649.73L194.195 634.203L203.341 624.879L207.91 620.217L209.365 618.733C209.293 618.69 209.226 618.653 209.158 618.615L207.749 620.051L203.179 624.722ZM178.557 648.768L178.653 648.99L202.623 615.341C202.564 615.313 202.504 615.295 202.446 615.267L178.557 648.768ZM176.458 643.706L202.022 615.101C201.963 615.073 201.899 615.049 201.844 615.027L176.391 643.537L176.458 643.706ZM176.076 642.787L176.148 642.961L196.588 613.295C196.538 613.277 196.492 613.264 196.441 613.256L176.076 642.787ZM171.409 631.532L188.966 611.921C188.919 611.917 188.882 611.915 188.84 611.907L171.368 631.445L171.409 631.532ZM170.959 630.444L170.994 630.536L182.195 611.786C182.162 611.788 182.134 611.786 182.101 611.788L170.959 630.444ZM174.021 637.836L195.594 613.044C195.553 613.027 195.498 613.014 195.447 613.006L173.974 637.711L174.021 637.836ZM180.245 626.607L174.257 635.842L173.612 636.836L173.663 636.966L174.355 635.905L180.344 626.671L189.826 612.016C189.794 612.009 189.752 612.001 189.715 611.999L180.245 626.607ZM169.692 627.398L181.356 611.837C181.328 611.835 181.3 611.843 181.267 611.845L169.664 627.335L169.692 627.398ZM169.298 626.446L169.325 626.518L176.814 612.389C176.786 612.387 176.767 612.386 176.752 612.399L169.298 626.446ZM168.079 623.516L175.66 612.592C175.636 612.594 175.617 612.593 175.602 612.606L168.063 623.477L168.079 623.516ZM167.405 621.896L167.421 621.935L170.337 613.921C170.328 613.921 170.314 613.924 170.309 613.929L167.405 621.896ZM166.187 618.956L168.651 614.47C168.642 614.469 168.627 614.473 168.622 614.477L166.179 618.937L166.187 618.956ZM165.052 616.215L165.06 616.235C165.09 616.087 165.124 615.944 165.167 615.802C165.167 615.802 165.158 615.801 165.153 615.805C165.12 615.939 165.081 616.077 165.052 616.215Z" fill="black"/>
<path d="M146.136 693.402C163.735 713.779 194.797 715.794 215.509 697.904C219.653 694.325 222.691 690.75 225.543 686.086L183.641 661.008L146.136 693.402Z" fill="#455A64"/>
<path d="M175.855 667.736L176.14 667.49L194.086 708.819L193.742 708.906L175.855 667.736ZM194.673 708.679L180.191 663.99L179.926 664.219L194.344 708.762C194.453 708.738 194.563 708.713 194.673 708.679ZM187.215 709.914C187.333 709.909 187.456 709.899 187.57 709.879L172.008 671.058L171.753 671.279L187.215 709.914ZM188.221 709.814L175.228 668.277L174.928 668.536L187.872 709.854C187.985 709.844 188.107 709.834 188.221 709.814ZM173.6 709.236C173.688 709.256 173.776 709.267 173.859 709.283L162.929 678.901L162.759 679.048L173.6 709.236ZM174.938 709.469L166.164 676.106L165.949 676.292L174.674 709.426C174.762 709.447 174.85 709.458 174.938 709.469ZM180.247 710.037C180.354 710.049 180.462 710.052 180.56 710.055L167.151 675.254L166.935 675.44L180.247 710.037ZM181.626 710.095L171.087 671.854L170.827 672.079L181.327 710.083C181.43 710.09 181.528 710.092 181.626 710.095ZM158.046 703.366C158.095 703.402 158.149 703.434 158.203 703.466L153.779 686.804L153.674 686.894L158.046 703.366ZM160.054 704.496L156.624 684.347L156.484 684.468L159.888 704.405C159.942 704.437 160 704.464 160.054 704.496ZM166.437 707.29C166.51 707.324 166.583 707.348 166.656 707.372L158.372 682.837L158.231 682.958L166.437 707.29ZM168.126 707.858L161.697 679.965L161.527 680.112L167.915 707.787C167.984 707.815 168.057 707.839 168.126 707.858ZM151.147 698.415C151.186 698.451 151.222 698.481 151.257 698.512L149.412 690.576L149.342 690.636L151.147 698.415ZM153.724 700.478L152.267 688.11L152.162 688.201L153.604 700.389C153.644 700.425 153.679 700.456 153.724 700.478ZM147.682 695.102C147.702 695.136 147.733 695.162 147.759 695.192L147.514 692.215L147.444 692.276L147.682 695.102ZM219.062 694.557L209.935 676.742L209.71 676.613L218.956 694.667C218.991 694.627 219.031 694.593 219.062 694.557ZM218.328 695.296C218.368 695.262 218.403 695.222 218.444 695.188L203.755 673.048L203.427 672.851L218.328 695.296ZM223.191 689.619L219.718 682.601L219.556 682.505L223.124 689.713C223.149 689.682 223.17 689.655 223.191 689.619ZM222.842 690.096C222.868 690.065 222.894 690.034 222.91 690.002L216.205 680.498L215.963 680.349L222.842 690.096ZM214.126 699.057L200.175 670.908L199.897 670.738L213.976 699.177C214.026 699.143 214.076 699.1 214.126 699.057ZM213.469 699.572C213.523 699.534 213.578 699.496 213.633 699.448L192.333 666.213L191.915 665.962L213.469 699.572ZM203.904 696.496L206.643 702.734L207.109 703.79C207.182 703.753 207.251 703.711 207.319 703.669L206.865 702.638L204.122 696.404L198.644 683.927L190.352 665.023L190.02 664.83L198.436 684.019L203.904 696.496ZM206.801 703.96C206.874 703.923 206.947 703.886 207.016 703.844L184.513 661.533L184.078 661.271L206.801 703.96ZM200.973 706.688L184.042 661.25L183.674 661.026L200.702 706.79C200.798 706.76 200.885 706.729 200.973 706.688ZM200.283 706.952C200.379 706.922 200.475 706.882 200.563 706.841L180.747 663.51L180.497 663.726L200.283 706.952Z" fill="#37474F"/>
<path d="M146.136 693.404L148.669 696.337C166.268 716.713 197.33 718.729 218.042 700.839C222.186 697.259 225.224 693.684 228.076 689.02L225.543 686.088C222.691 690.752 219.654 694.327 215.509 697.906C194.798 715.796 163.736 713.78 146.136 693.404Z" fill="#37474F"/>
<path d="M148.664 597.017L148.724 597.16L148.777 597.293L149.838 599.933L149.906 600.087L150.51 601.593L150.584 601.768L151.547 604.153L151.621 604.351L152.21 605.812L152.301 606.022L152.296 606.026L153.408 608.775L153.5 609.009L154.165 610.659L154.272 610.915L155.098 612.968L155.211 613.244L155.939 615.051L156.059 615.338L157.065 617.831L157.167 618.091L157.931 619.986L158.034 620.236L158.769 622.055L158.854 622.269L159.691 624.348L159.773 624.557L160.502 626.355L160.57 626.533L161.597 629.067L161.669 629.251L162.745 631.912L162.8 632.06L163.628 634.103L163.681 634.236L164.745 636.881L164.792 636.994L165.692 639.221L165.732 639.323L166.675 641.657L164.635 640.432L164.549 640.379L162.194 638.971L162.092 638.906L160.072 637.699L159.957 637.627L157.384 636.081L157.237 635.998L155.515 634.962L155.361 634.868L151.567 632.597L151.383 632.484L150.434 631.915L150.236 631.795L146.538 629.578L146.31 629.439L146.305 629.443L145.493 628.954L145.253 628.808L141.452 626.526L141.446 626.529L141.16 626.351L140.309 625.842L140.03 625.675L136.035 623.278L135.743 623.103L135.279 622.823L135.004 622.661L130.601 620.017L130.348 619.864L130.343 619.868L129.944 619.623L129.708 619.482L125.326 616.856C125.404 616.737 125.478 616.612 125.556 616.492L125.562 616.489C125.627 616.386 125.687 616.287 125.753 616.185L125.758 616.181L125.816 616.092L125.822 616.088C125.896 615.963 125.974 615.844 126.052 615.724C128.096 612.625 130.352 609.861 132.843 607.409L132.849 607.405C132.947 607.303 133.05 607.207 133.154 607.102L133.159 607.098C134.338 605.955 135.577 604.875 136.869 603.871C137.117 603.672 137.364 603.483 137.62 603.295L137.631 603.287C140.923 600.813 144.581 598.745 148.664 597.017Z" fill="#C7C7C7"/>
<path d="M164.55 640.378L165.693 639.22L165.732 639.322L164.635 640.431L164.55 640.378ZM162.195 638.97L164.793 636.993L164.746 636.88L162.093 638.905L162.195 638.97ZM159.958 637.626L160.073 637.698L163.682 634.235L163.629 634.102L159.958 637.626ZM157.385 636.08L162.801 632.059L162.746 631.911L157.238 635.997L157.385 636.08ZM155.362 634.867L155.516 634.961L161.67 629.25L161.598 629.066L155.362 634.867ZM156.124 629.526L160.571 626.532L160.502 626.354L156.019 629.365L151.384 632.483L151.568 632.596L156.124 629.526ZM150.237 631.794L150.434 631.914L159.774 624.556L159.692 624.347L150.237 631.794ZM158.855 622.268L158.769 622.054L146.311 629.438L146.538 629.577L158.855 622.268ZM145.494 628.953L158.035 620.235L157.931 619.985L145.254 628.807L145.494 628.953ZM141.453 626.525L157.167 618.09L157.066 617.83L141.161 626.35L141.447 626.528L141.453 626.525ZM140.31 625.841L156.06 615.337L155.94 615.05L140.031 625.674L140.31 625.841ZM136.036 623.277L155.212 613.243L155.099 612.967L135.744 623.102L136.036 623.277ZM135.28 622.822L154.273 610.914L154.166 610.658L135.005 622.66L135.28 622.822ZM130.602 620.016L153.501 609.008L153.409 608.774L130.349 619.863L130.602 620.016ZM129.945 619.622L152.297 606.025L152.302 606.021L152.211 605.811L129.709 619.481L129.945 619.622ZM125.753 616.184C125.688 616.286 125.628 616.385 125.562 616.488L151.622 604.35L151.548 604.152L125.759 616.18L125.753 616.184ZM125.823 616.087L150.585 601.767L150.511 601.592L126.053 615.723C125.975 615.843 125.897 615.962 125.823 616.087ZM133.154 607.101C133.05 607.206 132.948 607.302 132.85 607.404L149.906 600.086L149.839 599.932L133.16 607.097L133.154 607.101ZM136.869 603.87L148.778 597.292L148.725 597.159L137.632 603.286L137.621 603.294C137.365 603.482 137.118 603.671 136.869 603.87Z" fill="#DBDBDB"/>
<path d="M148.664 597.02L150.89 600.191L168.9 644.828L166.674 641.657L148.664 597.02Z" fill="#A6A6A6"/>
<path d="M166.674 641.656L168.9 644.827L127.553 620.025L125.327 616.854L166.674 641.656Z" fill="#A6A6A6"/>
<path d="M405.04 4.79028L3.31445 4.79028L3.31445 33.9573L405.04 33.9573V4.79028Z" fill="white"/>
<path d="M405.039 33.9573C404.702 33.6209 2.61963 34.9376 2.97985 33.9581L2.96308 4.79046L2.96289 4.43896C3.33426 4.48616 404.783 4.65384 405.086 4.79036L405.039 33.9573ZM405.039 33.9573L404.993 4.79046C405.337 4.59275 1.79337 5.75412 3.66336 4.79149L3.64865 33.9572C1.3248 33.0222 405.662 34.2615 405.039 33.9573Z" fill="#263238"/>
<path d="M405.038 4.79187L375.902 4.79187V33.9588L405.038 33.9588V4.79187Z" fill="#004EFF"/>
<path d="M397.861 25.9188L395.707 27.552L391.717 22.2785L390.258 20.3498C390.55 20.2361 390.832 20.0769 391.095 19.8757C391.601 19.4893 391.97 18.9891 392.201 18.4403L393.751 20.486L397.861 25.9188Z" fill="white"/>
<path d="M393.623 13.5004C391.648 10.922 387.957 10.4349 385.381 12.4126C382.805 14.3899 382.319 18.0852 384.294 20.6636C386.069 22.9823 389.228 23.609 391.719 22.2776C392.002 22.125 392.274 21.9527 392.534 21.7514C393.014 21.3815 393.422 20.9529 393.753 20.4851C395.207 18.4361 395.229 15.6011 393.623 13.5004ZM391.097 19.8747C390.834 20.076 390.552 20.2351 390.26 20.3488C388.832 20.9202 387.149 20.5047 386.169 19.2252C384.988 17.6827 385.277 15.4714 386.818 14.2893C388.359 13.1071 390.565 13.3997 391.749 14.942C392.54 15.9779 392.67 17.3157 392.203 18.4394C391.972 18.9882 391.603 19.4883 391.097 19.8747Z" fill="white"/>
<path d="M11.2797 10.5234H10.498L10.498 28.2237H11.2797L11.2797 10.5234Z" fill="#263238"/>
<path d="M318.188 331.653L163.432 331.653V342.889L318.188 342.889V331.653Z" fill="white"/>
<path d="M318.188 342.89C318.058 342.76 163.165 343.267 163.303 342.89L163.297 331.654L163.297 331.518C163.44 331.536 318.089 331.601 318.206 331.654L318.188 342.89ZM318.188 342.89L318.17 331.654C318.303 331.577 162.846 332.025 163.567 331.654L163.561 342.89C162.666 342.529 318.428 343.007 318.188 342.89Z" fill="#263238"/>
<path d="M318.185 331.655H306.961V342.891H318.185V331.655Z" fill="#004EFF"/>
<path d="M315.419 339.794L314.59 340.423L313.052 338.392L312.49 337.649C312.603 337.605 312.711 337.543 312.813 337.466C313.008 337.317 313.15 337.124 313.239 336.913L313.836 337.701L315.419 339.794Z" fill="white"/>
<path d="M313.784 335.011C313.023 334.018 311.601 333.83 310.609 334.592C309.617 335.354 309.429 336.777 310.19 337.771C310.874 338.664 312.091 338.905 313.051 338.392C313.159 338.334 313.264 338.267 313.364 338.19C313.549 338.047 313.707 337.882 313.834 337.702C314.394 336.912 314.403 335.82 313.784 335.011ZM312.811 337.467C312.71 337.544 312.601 337.606 312.488 337.649C311.939 337.869 311.29 337.709 310.913 337.216C310.458 336.622 310.569 335.77 311.163 335.315C311.756 334.86 312.606 334.972 313.062 335.566C313.367 335.966 313.417 336.481 313.237 336.914C313.148 337.125 313.006 337.318 312.811 337.467Z" fill="white"/>
<path d="M166.498 333.862H166.197V340.681H166.498V333.862Z" fill="#263238"/>
<path d="M337.124 366.692L342.031 370.739L367.505 339.915L362.598 335.868L337.124 366.692Z" fill="#C7C7C7"/>
<path d="M325.256 378.498L332.677 384.618L332.677 384.618L349.196 364.63L349.196 364.63L341.775 358.51L325.256 378.498Z" fill="#0098E4"/>
<g opacity="0.2">
<path d="M356.469 308.204C357.37 289.085 373.68 274.263 392.81 275.156C402.065 275.592 410.605 279.609 416.861 286.472C423.111 293.336 426.316 302.208 425.874 311.455C425.44 320.7 421.409 329.234 414.536 335.488C407.663 341.735 398.78 344.934 389.526 344.504C380.271 344.067 371.731 340.051 365.482 333.187C359.232 326.322 356.027 317.45 356.469 308.204Z" fill="white"/>
</g>
<path d="M350.608 307.935C351.667 285.59 370.724 268.263 393.09 269.31C415.456 270.358 432.79 289.389 431.732 311.734C430.673 334.079 411.616 351.406 389.25 350.359C366.884 349.312 349.549 330.28 350.608 307.935ZM355.258 308.153C354.321 327.936 369.668 344.786 389.47 345.713C409.272 346.641 426.144 331.3 427.082 311.517C428.019 291.733 412.671 274.884 392.87 273.956C373.068 273.029 356.195 288.369 355.258 308.153Z" fill="#37474F"/>
<path d="M407.007 348.498C411.468 346.676 415.618 344.055 419.297 340.711C427.565 333.189 432.41 322.919 432.939 311.792C434.029 288.775 416.179 269.186 393.151 268.1C382.003 267.585 371.317 271.433 363.043 278.956C354.777 286.484 349.93 296.748 349.401 307.876C348.872 319.003 352.728 329.688 360.253 337.944C367.773 346.208 378.057 351.043 389.195 351.566C395.385 351.856 401.432 350.791 407.007 348.498ZM416.863 286.48C423.11 293.341 426.311 302.218 425.877 311.464C425.437 320.705 421.412 329.242 414.536 335.487C407.66 341.733 398.78 344.939 389.525 344.505C370.387 343.612 355.561 327.323 356.465 308.209C356.905 298.968 360.93 290.432 367.804 284.18C374.673 277.929 383.56 274.728 392.81 275.164C402.064 275.592 410.608 279.615 416.863 286.48Z" fill="#0098E4"/>
<path d="M373 287.613C375.751 285.187 379.132 283.469 382.708 282.348C384.498 281.773 386.368 281.427 388.258 281.214C390.153 281.026 392.076 281.045 393.99 281.219C397.813 281.638 401.566 282.868 404.878 284.794C408.191 286.719 411.109 289.234 413.444 292.161C410.425 289.936 407.326 287.952 404.05 286.434C402.394 285.724 400.742 285.019 399.011 284.587C397.3 284.109 395.56 283.727 393.796 283.58C390.279 283.19 386.711 283.428 383.218 284.136C379.73 284.876 376.299 286.022 373 287.613Z" fill="white"/>
<path d="M400.947 335.571C397.637 337.154 393.916 337.884 390.17 337.987C388.291 338.052 386.398 337.873 384.521 337.562C382.647 337.227 380.802 336.683 379.01 335.993C375.447 334.546 372.173 332.339 369.514 329.582C366.854 326.826 364.735 323.609 363.29 320.156C365.586 323.121 368.024 325.875 370.759 328.23C372.158 329.365 373.554 330.494 375.101 331.383C376.616 332.31 378.185 333.152 379.841 333.775C383.117 335.11 386.615 335.855 390.168 336.127C393.725 336.367 397.338 336.201 400.947 335.571Z" fill="white"/>
<path d="M101.301 387.762H16.119C10.4873 387.762 5.92188 392.327 5.92188 397.959L5.92188 525.565C5.92188 531.197 10.4873 535.762 16.119 535.762H101.301C106.933 535.762 111.498 531.197 111.498 525.565L111.498 397.959C111.498 392.327 106.933 387.762 101.301 387.762Z" fill="#004EFF"/>
<path opacity="0.4" d="M101.301 387.762H16.119C10.4873 387.762 5.92188 392.327 5.92188 397.959L5.92188 525.565C5.92188 531.197 10.4873 535.762 16.119 535.762H101.301C106.933 535.762 111.498 531.197 111.498 525.565L111.498 397.959C111.498 392.327 106.933 387.762 101.301 387.762Z" fill="black"/>
<path d="M97.3905 403.201H20.007C18.9719 403.201 18.1328 404.04 18.1328 405.076V407.887C18.1328 408.922 18.9719 409.761 20.007 409.761H97.3905C98.4257 409.761 99.2648 408.922 99.2648 407.887V405.076C99.2648 404.04 98.4257 403.201 97.3905 403.201Z" fill="#FAFAFA"/>
<path d="M72.7555 418.989H20.007C18.9719 418.989 18.1328 419.828 18.1328 420.863V423.675C18.1328 424.71 18.9719 425.549 20.007 425.549H72.7555C73.7906 425.549 74.6297 424.71 74.6297 423.675V420.863C74.6297 419.828 73.7906 418.989 72.7555 418.989Z" fill="#FAFAFA"/>
<path d="M97.3905 434.793H20.007C18.9719 434.793 18.1328 435.632 18.1328 436.667V439.478C18.1328 440.514 18.9719 441.353 20.007 441.353H97.3905C98.4257 441.353 99.2648 440.514 99.2648 439.478V436.667C99.2648 435.632 98.4257 434.793 97.3905 434.793Z" fill="#FAFAFA"/>
<path d="M48.7717 450.582H20.007C18.9719 450.582 18.1328 451.421 18.1328 452.456V455.267C18.1328 456.302 18.9719 457.142 20.007 457.142H48.7717C49.8068 457.142 50.646 456.302 50.646 455.267V452.456C50.646 451.421 49.8068 450.582 48.7717 450.582Z" fill="#FAFAFA"/>
<path d="M89.0217 450.581H60.257C59.2219 450.581 58.3828 451.42 58.3828 452.455V455.267C58.3828 456.302 59.2219 457.141 60.257 457.141H89.0217C90.0568 457.141 90.896 456.302 90.896 455.267V452.455C90.896 451.42 90.0568 450.581 89.0217 450.581Z" fill="#FAFAFA"/>
<path d="M97.3925 466.384H20.009C18.9739 466.384 18.1348 467.223 18.1348 468.258V471.07C18.1348 472.105 18.9739 472.944 20.009 472.944H97.3925C98.4276 472.944 99.2667 472.105 99.2667 471.07V468.258C99.2667 467.223 98.4276 466.384 97.3925 466.384Z" fill="#FAFAFA"/>
<path d="M97.3905 482.173H20.007C18.9719 482.173 18.1328 483.012 18.1328 484.048V486.859C18.1328 487.894 18.9719 488.733 20.007 488.733H97.3905C98.4257 488.733 99.2648 487.894 99.2648 486.859V484.048C99.2648 483.012 98.4257 482.173 97.3905 482.173Z" fill="#FAFAFA"/>
<path d="M83.6693 497.976H20.009C18.9739 497.976 18.1348 498.815 18.1348 499.85V502.661C18.1348 503.696 18.9739 504.535 20.009 504.535H83.6693C84.7044 504.535 85.5436 503.696 85.5436 502.661V499.85C85.5436 498.815 84.7044 497.976 83.6693 497.976Z" fill="#FAFAFA"/>
<path d="M49.7088 513.765H20.007C18.9719 513.765 18.1328 514.604 18.1328 515.639V518.45C18.1328 519.485 18.9719 520.325 20.007 520.325H49.7088C50.7439 520.325 51.5831 519.485 51.5831 518.45V515.639C51.5831 514.604 50.7439 513.765 49.7088 513.765Z" fill="#FAFAFA"/>
<path opacity="0.8" d="M278.241 422.521C278.248 418.924 277.958 415.333 277.372 411.784C274.785 396.098 266.752 381.827 254.687 371.479C242.621 361.13 227.295 355.367 211.403 355.202H210.824C200.161 355.209 189.653 357.751 180.167 362.62C170.681 367.489 162.488 374.544 156.264 383.203C155.241 384.613 154.334 386.062 153.407 387.51C153.331 387.605 153.267 387.709 153.214 387.819C146.876 398.303 143.537 410.327 143.561 422.579V422.714C143.6 436.954 148.151 450.815 156.559 462.306C164.966 473.797 176.798 482.327 190.356 486.672C203.913 491.016 218.499 490.951 232.017 486.486C245.535 482.02 257.29 473.385 265.595 461.819C266.599 460.409 267.526 458.98 268.433 457.513C268.509 457.417 268.573 457.313 268.626 457.204C274.956 446.746 278.283 434.746 278.241 422.521ZM146.437 420.995C146.66 409.969 149.74 399.19 155.376 389.711H176.439C173.22 399.831 171.535 410.376 171.439 420.995H146.437ZM179.393 389.711H209.433V420.995H174.335C174.399 410.369 176.105 399.816 179.393 389.711ZM212.329 386.815V358.002C216.505 358.381 220.504 359.868 223.913 362.309C231.076 367.214 237.08 375.827 241.289 386.815H212.329ZM242.331 389.711C244.72 396.945 246.274 404.429 246.965 412.016C247.254 415.028 247.389 418.021 247.428 420.995H212.329V389.711H242.331ZM205.186 358.814C206.572 358.42 207.996 358.174 209.433 358.08V386.873H180.474C185.88 372.312 194.645 361.73 205.186 358.756V358.814ZM209.433 423.95V455.234H179.451C177.062 447.982 175.52 440.478 174.856 432.872C174.586 429.859 174.431 426.866 174.393 423.892L209.433 423.95ZM209.433 458.131V486.943C205.258 486.561 201.26 485.075 197.85 482.636C190.706 477.731 184.702 469.119 180.474 458.131H209.433ZM216.577 486.19C215.191 486.585 213.767 486.831 212.329 486.923V458.073H241.289C235.883 472.575 227.118 483.177 216.577 486.132V486.19ZM212.329 455.292V423.911H247.428C247.374 434.539 245.667 445.093 242.37 455.195L212.329 455.292ZM250.324 423.911H275.422C275.188 434.936 272.109 445.712 266.483 455.195H245.324C248.542 445.075 250.228 434.531 250.324 423.911ZM275.422 421.015H250.324C250.324 417.963 250.131 414.874 249.841 411.765C249.182 404.28 247.7 396.89 245.42 389.731H266.445C270.508 396.631 273.251 404.227 274.534 412.132C274.994 415.066 275.265 418.026 275.345 420.995L275.422 421.015ZM248.644 370.168C254.955 374.715 260.396 380.36 264.707 386.834H244.358C240.034 374.88 233.528 365.418 225.554 359.934L224.936 359.528C233.45 361.435 241.489 365.048 248.567 370.149L248.644 370.168ZM196.769 359.567C188.641 364.916 181.961 374.649 177.462 386.834H157.191L158.6 384.768C167.769 371.966 181.328 362.988 196.691 359.547L196.769 359.567ZM146.572 423.911H171.574C171.574 426.962 171.767 430.052 172.057 433.161C172.725 440.645 174.207 448.033 176.478 455.195H155.337C151.266 448.299 148.523 440.701 147.248 432.794C146.768 429.856 146.497 426.888 146.437 423.911H146.572ZM157.268 458.092H177.462C181.787 470.046 188.293 479.508 196.267 484.992L196.904 485.398C180.682 481.713 166.494 471.938 157.268 458.092ZM225.052 485.34C233.161 480.01 239.841 470.258 244.358 458.073H264.591C264.128 458.768 263.665 459.463 263.182 460.139C254.006 472.947 240.43 481.92 225.052 485.34Z" fill="#FAFAFA"/>
<path d="M425.837 515.043L152.91 515.043V581.173L425.837 581.173V515.043Z" fill="#004EFF"/>
<path opacity="0.6" d="M425.837 515.043L152.91 515.043V581.173L425.837 581.173V515.043Z" fill="#FAFAFA"/>
<path d="M419.681 521.197L146.754 521.197V587.328L419.681 587.328V521.197Z" fill="#004EFF"/>
<path opacity="0.3" d="M419.681 521.197L146.754 521.197V587.328L419.681 587.328V521.197Z" fill="black"/>
<path d="M413.528 527.351L140.602 527.351V593.482L413.528 593.482V527.351Z" fill="#004EFF"/>
<path opacity="0.1" d="M413.528 527.351L140.602 527.351V593.482L413.528 593.482V527.351Z" fill="#FAFAFA"/>
<path d="M400.51 580.462V540.374L153.626 540.374V580.462L400.51 580.462Z" fill="#004EFF"/>
<path d="M400.51 580.462V540.374L153.626 540.374V580.462L400.51 580.462Z" fill="#FAFAFA"/>
<path d="M358.98 540.373V580.462H360.43V540.373H358.98Z" fill="#004EFF"/>
<path opacity="0.6" d="M358.98 540.373V580.462H360.43V540.373H358.98Z" fill="#FAFAFA"/>
<path d="M159.775 545.903V574.931H161.225V545.903H159.775Z" fill="#004EFF"/>
<path opacity="0.6" d="M159.775 545.903V574.931H161.225V545.903H159.775Z" fill="#FAFAFA"/>
<path d="M379.083 565.478C378.03 565.478 376.993 565.217 376.064 564.721C375.136 564.224 374.344 563.505 373.759 562.629C373.174 561.753 372.814 560.747 372.71 559.698C372.607 558.65 372.764 557.593 373.168 556.619C373.571 555.646 374.208 554.788 375.022 554.119C375.836 553.451 376.803 552.994 377.836 552.788C378.869 552.583 379.937 552.635 380.945 552.941C381.953 553.246 382.87 553.795 383.615 554.54C384.511 555.436 385.122 556.578 385.369 557.821C385.617 559.064 385.49 560.353 385.005 561.524C384.52 562.694 383.698 563.695 382.644 564.399C381.59 565.103 380.351 565.479 379.083 565.478ZM379.083 554.41C378.003 554.41 376.956 554.785 376.12 555.471C375.285 556.157 374.714 557.112 374.504 558.172C374.293 559.232 374.457 560.332 374.968 561.285C375.478 562.238 376.303 562.984 377.301 563.397C378.3 563.809 379.411 563.863 380.445 563.548C381.479 563.233 382.372 562.57 382.971 561.67C383.571 560.771 383.839 559.691 383.732 558.616C383.625 557.541 383.148 556.536 382.382 555.773C381.954 555.331 381.441 554.979 380.875 554.737C380.308 554.496 379.699 554.37 379.083 554.366V554.41Z" fill="#004EFF"/>
<path d="M387.392 568.204C387.277 568.204 387.163 568.181 387.057 568.136C386.951 568.091 386.856 568.026 386.775 567.944L382.391 563.56C382.3 563.482 382.227 563.387 382.175 563.279C382.122 563.171 382.093 563.054 382.089 562.934C382.084 562.815 382.104 562.696 382.148 562.584C382.191 562.473 382.258 562.372 382.342 562.287C382.427 562.202 382.528 562.136 382.639 562.093C382.751 562.049 382.87 562.029 382.989 562.033C383.109 562.038 383.226 562.067 383.334 562.119C383.442 562.172 383.537 562.245 383.615 562.336L387.999 566.72C388.161 566.883 388.252 567.103 388.252 567.332C388.252 567.561 388.161 567.781 387.999 567.944C387.839 568.108 387.62 568.201 387.392 568.204Z" fill="#004EFF"/>
<g opacity="0.6">
<path d="M379.082 565.478C378.028 565.478 376.991 565.218 376.062 564.721C375.134 564.224 374.342 563.506 373.757 562.63C373.172 561.754 372.812 560.747 372.708 559.699C372.605 558.65 372.762 557.593 373.166 556.62C373.569 555.647 374.206 554.788 375.02 554.12C375.834 553.451 376.801 552.994 377.834 552.789C378.867 552.583 379.935 552.635 380.943 552.941C381.951 553.246 382.868 553.796 383.613 554.54C384.509 555.436 385.12 556.578 385.367 557.821C385.615 559.064 385.488 560.353 385.003 561.524C384.518 562.695 383.696 563.695 382.642 564.399C381.588 565.103 380.349 565.479 379.082 565.478ZM379.082 554.41C378.001 554.41 376.954 554.786 376.118 555.472C375.283 556.158 374.712 557.112 374.502 558.172C374.292 559.232 374.455 560.332 374.966 561.285C375.476 562.238 376.301 562.984 377.3 563.397C378.298 563.81 379.409 563.863 380.443 563.548C381.477 563.233 382.37 562.57 382.969 561.67C383.569 560.771 383.837 559.692 383.73 558.616C383.623 557.541 383.146 556.536 382.38 555.773C381.952 555.331 381.439 554.979 380.873 554.737C380.306 554.496 379.697 554.37 379.082 554.367V554.41Z" fill="#FAFAFA"/>
<path d="M387.39 568.205C387.275 568.204 387.161 568.181 387.055 568.136C386.949 568.092 386.854 568.026 386.773 567.944L382.389 563.56C382.298 563.483 382.225 563.387 382.173 563.279C382.12 563.171 382.091 563.054 382.087 562.935C382.082 562.815 382.102 562.696 382.146 562.584C382.189 562.473 382.256 562.372 382.34 562.287C382.425 562.203 382.526 562.136 382.637 562.093C382.749 562.049 382.868 562.029 382.988 562.034C383.107 562.038 383.224 562.068 383.332 562.12C383.44 562.172 383.536 562.246 383.613 562.336L387.997 566.72C388.159 566.883 388.25 567.103 388.25 567.332C388.25 567.562 388.159 567.782 387.997 567.944C387.837 568.108 387.619 568.201 387.39 568.205Z" fill="#FAFAFA"/>
</g>
<path d="M113.755 618.643H11.8418V621.172H113.755V618.643Z" fill="#004EFF"/>
<path d="M113.755 629.373H11.8418V631.901H113.755V629.373Z" fill="#004EFF"/>
<path d="M113.755 640.135H11.8418V642.663H113.755V640.135Z" fill="#004EFF"/>
<path d="M113.755 650.864H11.8418V653.392H113.755V650.864Z" fill="#004EFF"/>
<path d="M113.753 661.594H11.8398V664.123H113.753V661.594Z" fill="#004EFF"/>
<path d="M78.2926 672.355H11.8418V674.883H78.2926V672.355Z" fill="#004EFF"/>
<g opacity="0.5">
<path d="M113.753 618.644H11.8398V621.172H113.753V618.644Z" fill="#FAFAFA"/>
<path d="M113.753 629.373H11.8398V631.902H113.753V629.373Z" fill="#FAFAFA"/>
<path d="M113.753 640.135H11.8398V642.664H113.753V640.135Z" fill="#FAFAFA"/>
<path d="M113.753 650.864H11.8398V653.393H113.753V650.864Z" fill="#FAFAFA"/>
<path d="M113.753 661.594H11.8398V664.122H113.753V661.594Z" fill="#FAFAFA"/>
<path d="M78.2906 672.355H11.8398V674.884H78.2906V672.355Z" fill="#FAFAFA"/>
</g>
<path d="M213.946 93.097C211.372 93.097 208.902 94.1198 207.082 95.9404C205.261 97.7611 204.238 100.23 204.238 102.805V134.833C204.238 137.408 205.261 139.877 207.082 141.698C208.902 143.518 211.372 144.541 213.946 144.541C216.521 144.541 218.991 143.518 220.811 141.698C222.632 139.877 223.655 137.408 223.655 134.833V102.805C223.655 100.23 222.632 97.7611 220.811 95.9404C218.991 94.1198 216.521 93.097 213.946 93.097Z" fill="#004EFF"/>
<path opacity="0.2" d="M213.946 93.097C211.372 93.097 208.902 94.1198 207.082 95.9404C205.261 97.7611 204.238 100.23 204.238 102.805V134.833C204.238 137.408 205.261 139.877 207.082 141.698C208.902 143.518 211.372 144.541 213.946 144.541C216.521 144.541 218.991 143.518 220.811 141.698C222.632 139.877 223.655 137.408 223.655 134.833V102.805C223.655 100.23 222.632 97.7611 220.811 95.9404C218.991 94.1198 216.521 93.097 213.946 93.097Z" fill="#FAFAFA"/>
<path d="M238.281 74.0024C235.714 74.0146 233.257 75.0428 231.446 76.8621C229.636 78.6814 228.619 81.1438 228.619 83.7106L228.619 134.832C228.619 137.407 229.642 139.876 231.463 141.697C233.283 143.518 235.753 144.541 238.327 144.541C240.902 144.541 243.371 143.518 245.192 141.697C247.013 139.876 248.036 137.407 248.036 134.832V83.7106C248.036 82.4318 247.783 81.1656 247.292 79.9847C246.801 78.8039 246.082 77.7316 245.176 76.8295C244.269 75.9274 243.194 75.2133 242.011 74.7281C240.827 74.2429 239.56 73.9963 238.281 74.0024Z" fill="#004EFF"/>
<path opacity="0.3" d="M238.281 74.0024C235.714 74.0146 233.257 75.0428 231.446 76.8621C229.636 78.6814 228.619 81.1438 228.619 83.7106L228.619 134.832C228.619 137.407 229.642 139.876 231.463 141.697C233.283 143.518 235.753 144.541 238.327 144.541C240.902 144.541 243.371 143.518 245.192 141.697C247.013 139.876 248.036 137.407 248.036 134.832V83.7106C248.036 82.4318 247.783 81.1656 247.292 79.9847C246.801 78.8039 246.082 77.7316 245.176 76.8295C244.269 75.9274 243.194 75.2133 242.011 74.7281C240.827 74.2429 239.56 73.9963 238.281 74.0024Z" fill="black"/>
<path d="M262.593 112.191C260.018 112.191 257.549 113.214 255.728 115.034C253.908 116.855 252.885 119.324 252.885 121.899V134.833C252.885 137.408 253.908 139.877 255.728 141.698C257.549 143.518 260.018 144.541 262.593 144.541C263.869 144.543 265.133 144.294 266.313 143.807C267.493 143.32 268.565 142.605 269.468 141.703C270.371 140.801 271.087 139.731 271.576 138.552C272.065 137.373 272.317 136.109 272.317 134.833V121.899C272.317 120.623 272.065 119.359 271.576 118.18C271.087 117.001 270.371 115.93 269.468 115.029C268.565 114.127 267.493 113.412 266.313 112.925C265.133 112.438 263.869 112.189 262.593 112.191Z" fill="#004EFF"/>
<path opacity="0.6" d="M262.593 112.191C260.018 112.191 257.549 113.214 255.728 115.034C253.908 116.855 252.885 119.324 252.885 121.899V134.833C252.885 137.408 253.908 139.877 255.728 141.698C257.549 143.518 260.018 144.541 262.593 144.541C263.869 144.543 265.133 144.294 266.313 143.807C267.493 143.32 268.565 142.605 269.468 141.703C270.371 140.801 271.087 139.731 271.576 138.552C272.065 137.373 272.317 136.109 272.317 134.833V121.899C272.317 120.623 272.065 119.359 271.576 118.18C271.087 117.001 270.371 115.93 269.468 115.029C268.565 114.127 267.493 113.412 266.313 112.925C265.133 112.438 263.869 112.189 262.593 112.191Z" fill="#FAFAFA"/>
<path d="M97.8179 270.864C95.8191 270.864 93.9021 271.658 92.4887 273.072C91.0753 274.485 90.2812 276.402 90.2812 278.401V303.265C90.2812 305.264 91.0753 307.181 92.4887 308.594C93.9021 310.007 95.8191 310.801 97.8179 310.801C99.8168 310.801 101.734 310.007 103.147 308.594C104.561 307.181 105.355 305.264 105.355 303.265V278.401C105.355 276.402 104.561 274.485 103.147 273.072C101.734 271.658 99.8168 270.864 97.8179 270.864Z" fill="#004EFF"/>
<path opacity="0.2" d="M97.8179 270.864C95.8191 270.864 93.9021 271.658 92.4887 273.072C91.0753 274.485 90.2812 276.402 90.2812 278.401V303.265C90.2812 305.264 91.0753 307.181 92.4887 308.594C93.9021 310.007 95.8191 310.801 97.8179 310.801C99.8168 310.801 101.734 310.007 103.147 308.594C104.561 307.181 105.355 305.264 105.355 303.265V278.401C105.355 276.402 104.561 274.485 103.147 273.072C101.734 271.658 99.8168 270.864 97.8179 270.864Z" fill="#FAFAFA"/>
<path d="M116.708 256.041C114.715 256.051 112.807 256.849 111.402 258.261C109.996 259.674 109.207 261.585 109.207 263.578L109.207 303.265C109.207 305.264 110.001 307.181 111.414 308.594C112.828 310.007 114.745 310.801 116.744 310.801C118.743 310.801 120.66 310.007 122.073 308.594C123.486 307.181 124.28 305.264 124.28 303.265V263.578C124.28 262.585 124.084 261.602 123.703 260.686C123.322 259.769 122.764 258.936 122.06 258.236C121.357 257.536 120.522 256.981 119.603 256.605C118.685 256.228 117.701 256.037 116.708 256.041Z" fill="#004EFF"/>
<path opacity="0.3" d="M116.708 256.041C114.715 256.051 112.807 256.849 111.402 258.261C109.996 259.674 109.207 261.585 109.207 263.578L109.207 303.265C109.207 305.264 110.001 307.181 111.414 308.594C112.828 310.007 114.745 310.801 116.744 310.801C118.743 310.801 120.66 310.007 122.073 308.594C123.486 307.181 124.28 305.264 124.28 303.265V263.578C124.28 262.585 124.084 261.602 123.703 260.686C123.322 259.769 122.764 258.936 122.06 258.236C121.357 257.536 120.522 256.981 119.603 256.605C118.685 256.228 117.701 256.037 116.708 256.041Z" fill="black"/>
<path d="M135.584 285.687C133.585 285.687 131.668 286.481 130.254 287.894C128.841 289.308 128.047 291.225 128.047 293.223V303.264C128.047 305.263 128.841 307.18 130.254 308.594C131.668 310.007 133.585 310.801 135.584 310.801C136.574 310.803 137.556 310.609 138.471 310.231C139.387 309.853 140.219 309.298 140.92 308.598C141.622 307.898 142.178 307.066 142.557 306.151C142.937 305.236 143.132 304.255 143.132 303.264V293.223C143.132 292.233 142.937 291.252 142.557 290.337C142.178 289.421 141.622 288.59 140.92 287.89C140.219 287.19 139.387 286.635 138.471 286.257C137.556 285.879 136.574 285.685 135.584 285.687Z" fill="#004EFF"/>
<path opacity="0.6" d="M135.584 285.687C133.585 285.687 131.668 286.481 130.254 287.894C128.841 289.308 128.047 291.225 128.047 293.223V303.264C128.047 305.263 128.841 307.18 130.254 308.594C131.668 310.007 133.585 310.801 135.584 310.801C136.574 310.803 137.556 310.609 138.471 310.231C139.387 309.853 140.219 309.298 140.92 308.598C141.622 307.898 142.178 307.066 142.557 306.151C142.937 305.236 143.132 304.255 143.132 303.264V293.223C143.132 292.233 142.937 291.252 142.557 290.337C142.178 289.421 141.622 288.59 140.92 287.89C140.219 287.19 139.387 286.635 138.471 286.257C137.556 285.879 136.574 285.685 135.584 285.687Z" fill="#FAFAFA"/>
<path d="M299.516 374.489L312.044 369.986L282.682 355.491L299.516 374.489Z" fill="#004EFF"/>
<path d="M282.682 355.491L293.839 386.53L295.26 383.521L299.516 374.489L282.682 355.491Z" fill="#004EFF"/>
<g opacity="0.1">
<path d="M299.516 374.489L312.044 369.986L282.682 355.491L299.516 374.489Z" fill="black"/>
</g>
<path opacity="0.3" d="M282.682 355.491L293.839 386.53L295.26 383.522L299.516 374.489L282.682 355.491Z" fill="#FAFAFA"/>
<path d="M440.118 207.248L452.646 202.744L423.283 188.249L440.118 207.248Z" fill="#004EFF"/>
<path d="M423.283 188.249L434.44 219.288L435.862 216.28L440.118 207.248L423.283 188.249Z" fill="#004EFF"/>
<g opacity="0.1">
<path d="M440.116 207.248L452.644 202.745L423.281 188.25L440.116 207.248Z" fill="black"/>
</g>
<path opacity="0.3" d="M423.281 188.25L434.438 219.289L435.86 216.28L440.116 207.248L423.281 188.25Z" fill="#FAFAFA"/>
<path d="M133.957 483.859L133.276 497.154L157.98 475.661L133.957 483.859Z" fill="#004EFF"/>
<path d="M157.98 475.661L125.041 473.974L127.267 476.446L133.957 483.859L157.98 475.661Z" fill="#004EFF"/>
<g opacity="0.1">
<path d="M133.957 483.859L133.276 497.154L157.98 475.661L133.957 483.859Z" fill="black"/>
</g>
<path opacity="0.3" d="M157.98 475.662L125.041 473.974L127.267 476.447L133.957 483.859L157.98 475.662Z" fill="#FAFAFA"/>
<path d="M274.063 53.4475L297.085 40.7638L235.322 21.6543L274.063 53.4475Z" fill="#004EFF"/>
<path d="M235.322 21.6543L266.746 78.691L268.58 72.3834L274.063 53.4475L235.322 21.6543Z" fill="#004EFF"/>
<g opacity="0.1">
<path d="M274.061 53.4482L297.083 40.7644L235.32 21.655L274.061 53.4482Z" fill="black"/>
</g>
<path opacity="0.3" d="M235.32 21.6553L266.744 78.6921L268.578 72.3845L274.061 53.4486L235.32 21.6553Z" fill="#FAFAFA"/>
<path d="M396.819 407.002H315.927C311.827 407.017 307.899 408.652 304.999 411.549C302.098 414.447 300.46 418.373 300.441 422.473V464.248C300.46 468.345 302.096 472.269 304.994 475.166C307.891 478.064 311.815 479.7 315.912 479.719H375.267L374.833 494.323L389.813 479.719H396.79C400.89 479.703 404.817 478.069 407.718 475.172C410.618 472.274 412.256 468.348 412.275 464.248V422.473C412.256 418.378 410.622 414.456 407.728 411.56C404.834 408.663 400.914 407.025 396.819 407.002ZM314.106 424.799C314.106 423.649 314.563 422.547 315.376 421.734C316.188 420.922 317.291 420.465 318.44 420.465H337.06C338.209 420.465 339.311 420.922 340.124 421.734C340.937 422.547 341.393 423.649 341.393 424.799C341.393 425.948 340.937 427.05 340.124 427.863C339.311 428.676 338.209 429.132 337.06 429.132H318.426C317.279 429.128 316.18 428.67 315.371 427.858C314.561 427.045 314.106 425.945 314.106 424.799ZM392.225 465.245H360.042C359.419 465.354 358.78 465.325 358.169 465.161C357.558 464.997 356.991 464.701 356.507 464.294C356.022 463.888 355.633 463.38 355.366 462.807C355.099 462.233 354.96 461.609 354.96 460.976C354.96 460.344 355.099 459.719 355.366 459.146C355.633 458.573 356.022 458.065 356.507 457.658C356.991 457.251 357.558 456.955 358.169 456.791C358.78 456.627 359.419 456.599 360.042 456.708H392.225C392.848 456.599 393.488 456.627 394.098 456.791C394.709 456.955 395.276 457.251 395.76 457.658C396.245 458.065 396.634 458.573 396.901 459.146C397.168 459.719 397.307 460.344 397.307 460.976C397.307 461.609 397.168 462.233 396.901 462.807C396.634 463.38 396.245 463.888 395.76 464.294C395.276 464.701 394.709 464.997 394.098 465.161C393.488 465.325 392.848 465.354 392.225 465.245ZM392.225 447.174H322.759C322.136 447.283 321.497 447.255 320.886 447.09C320.275 446.926 319.708 446.63 319.224 446.224C318.74 445.817 318.35 445.309 318.083 444.736C317.816 444.163 317.678 443.538 317.678 442.905C317.678 442.273 317.816 441.648 318.083 441.075C318.35 440.502 318.74 439.994 319.224 439.587C319.708 439.181 320.275 438.885 320.886 438.721C321.497 438.556 322.136 438.528 322.759 438.637H392.225C392.848 438.528 393.488 438.556 394.098 438.721C394.709 438.885 395.276 439.181 395.76 439.587C396.245 439.994 396.634 440.502 396.901 441.075C397.168 441.648 397.307 442.273 397.307 442.905C397.307 443.538 397.168 444.163 396.901 444.736C396.634 445.309 396.245 445.817 395.76 446.224C395.276 446.63 394.709 446.926 394.098 447.09C393.488 447.255 392.848 447.283 392.225 447.174ZM392.225 429.103H351.1C349.951 429.103 348.849 428.647 348.036 427.834C347.223 427.021 346.767 425.919 346.767 424.77C346.767 423.62 347.223 422.518 348.036 421.705C348.849 420.893 349.951 420.436 351.1 420.436H392.225C393.375 420.436 394.477 420.893 395.29 421.705C396.102 422.518 396.559 423.62 396.559 424.77C396.559 425.919 396.102 427.021 395.29 427.834C394.477 428.647 393.375 429.103 392.225 429.103Z" fill="#004EFF"/>
<path opacity="0.4" d="M40.4014 599.786C52.701 594.774 58.613 580.73 53.6062 568.417C48.5994 556.105 34.5699 550.187 22.2703 555.199C9.97075 560.211 4.05879 574.255 9.06557 586.567C14.0723 598.88 28.1019 604.798 40.4014 599.786Z" fill="#004EFF"/>
<path d="M47.5497 581.162C49.574 572.199 43.9564 563.29 35.0024 561.264C26.0485 559.237 17.1488 564.861 15.1244 573.824C13.1001 582.787 18.7176 591.696 27.6716 593.723C36.6256 595.749 45.5253 590.126 47.5497 581.162Z" stroke="white" stroke-width="3" stroke-miterlimit="10"/>
<path d="M31.3362 595.605C21.359 595.605 13.2422 587.479 13.2422 577.491C13.2422 567.503 21.359 559.377 31.3362 559.377V562.324C22.9826 562.324 16.1865 569.128 16.1865 577.491C16.1865 585.854 22.9826 592.658 31.3362 592.658C39.6908 592.658 46.4869 585.854 46.4869 577.491C46.4869 575.701 46.1745 573.942 45.5592 572.263L48.3233 571.248C49.0584 573.252 49.4312 575.354 49.4312 577.491C49.4312 587.479 41.3134 595.605 31.3362 595.605Z" fill="#004EFF"/>
<path opacity="0.4" d="M105.011 599.786C117.31 594.774 123.222 580.73 118.216 568.417C113.209 556.105 99.1793 550.186 86.8797 555.198C74.5802 560.21 68.6682 574.255 73.6749 586.567C78.6817 598.88 92.7113 604.798 105.011 599.786Z" fill="#004EFF"/>
<path d="M111.931 582.055C114.447 573.217 109.33 564.011 100.502 561.492C91.6734 558.973 82.4767 564.095 79.9604 572.933C77.4441 581.77 82.5611 590.977 91.3895 593.496C100.218 596.015 109.415 590.892 111.931 582.055Z" stroke="white" stroke-width="3" stroke-miterlimit="10"/>
<path d="M90.106 594.636C82.7759 592.133 77.8516 585.243 77.8516 577.491C77.8516 567.503 85.9694 559.377 95.9466 559.377V562.324C87.592 562.324 80.7958 569.128 80.7958 577.491C80.7958 583.982 84.919 589.751 91.0567 591.846L90.106 594.636Z" fill="#004EFF"/>
</svg>
