<svg width="40" height="40" viewBox="0 0 40 40" fill="none" xmlns="http://www.w3.org/2000/svg">
<path d="M35.0005 3.33337L31.6671 6.66671M31.6671 6.66671L36.6671 11.6667L30.8338 17.5L25.8338 12.5M31.6671 6.66671L25.8338 12.5M18.9838 19.35C19.8444 20.1992 20.5285 21.2101 20.9967 22.3247C21.465 23.4393 21.7081 24.6355 21.7122 25.8444C21.7162 27.0534 21.4811 28.2512 21.0203 29.3689C20.5595 30.4866 19.8822 31.5021 19.0274 32.3569C18.1725 33.2118 17.157 33.8891 16.0393 34.3499C14.9216 34.8107 13.7238 35.0458 12.5148 35.0418C11.3059 35.0377 10.1097 34.7946 8.99511 34.3263C7.88052 33.858 6.86957 33.1739 6.02046 32.3134C4.35067 30.5845 3.42673 28.269 3.44761 25.8655C3.4685 23.4621 4.43255 21.1629 6.13212 19.4634C7.83169 17.7638 10.1308 16.7997 12.5343 16.7789C14.9378 16.758 17.2533 17.6819 18.9821 19.3517L18.9838 19.35ZM18.9838 19.35L25.8338 12.5" stroke="#004EFF" stroke-width="3" stroke-linecap="round" stroke-linejoin="round"/>
</svg>
