<svg width="10" height="6" viewBox="0 0 10 6" fill="none" xmlns="http://www.w3.org/2000/svg">
<path d="M5.24922 5.38191L8.90493 1.13891C8.96596 1.06811 9 0.974051 9 0.87624C9 0.778429 8.96596 0.684371 8.90493 0.613575L8.9008 0.609006C8.87121 0.574566 8.8356 0.547143 8.79613 0.528403C8.75666 0.509664 8.71415 0.5 8.6712 0.5C8.62824 0.5 8.58574 0.509664 8.54626 0.528403C8.50679 0.547143 8.47118 0.574566 8.4416 0.609006L4.99931 4.60458L1.5584 0.609006C1.52882 0.574566 1.49321 0.547143 1.45374 0.528403C1.41427 0.509664 1.37176 0.5 1.3288 0.5C1.28585 0.5 1.24334 0.509664 1.20387 0.528403C1.1644 0.547143 1.12879 0.574566 1.0992 0.609006L1.09507 0.613575C1.03404 0.684371 1 0.778429 1 0.87624C1 0.974051 1.03404 1.06811 1.09507 1.13891L4.75078 5.38191C4.78293 5.41923 4.82159 5.44894 4.86443 5.46924C4.90727 5.48953 4.95339 5.5 5 5.5C5.04661 5.5 5.09273 5.48953 5.13557 5.46924C5.17841 5.44894 5.21707 5.41923 5.24922 5.38191Z" fill="#011222" stroke="#011222"/>
</svg>
