<svg width="18" height="18" viewBox="0 0 18 18" fill="none" xmlns="http://www.w3.org/2000/svg">
<path d="M17.4851 0.514719C17.6727 0.702255 17.778 0.956609 17.778 1.22183C17.778 1.48704 17.6727 1.7414 17.4851 1.92893L10.4141 9L17.4851 16.0711C17.6727 16.2586 17.778 16.513 17.778 16.7782C17.778 17.0434 17.6727 17.2977 17.4851 17.4853C17.2976 17.6728 17.0433 17.7782 16.778 17.7782C16.5128 17.7782 16.2585 17.6728 16.0709 17.4853L8.99986 10.4142L1.92879 17.4853C1.74126 17.6728 1.4869 17.7782 1.22169 17.7782C0.956469 17.7782 0.702115 17.6728 0.514578 17.4853C0.327041 17.2977 0.221685 17.0434 0.221685 16.7782C0.221685 16.513 0.327042 16.2586 0.514578 16.0711L7.58565 9L0.514578 1.92893C0.327042 1.7414 0.221685 1.48704 0.221685 1.22183C0.221685 0.956609 0.327041 0.702255 0.514578 0.514719C0.702115 0.327182 0.956469 0.221825 1.22169 0.221825C1.4869 0.221825 1.74126 0.327182 1.92879 0.514719L8.99986 7.58579L16.0709 0.514719C16.2585 0.327182 16.5128 0.221825 16.778 0.221825C17.0433 0.221825 17.2976 0.327182 17.4851 0.514719Z" fill="#011222"/>
</svg>
