<svg width="20" height="17" viewBox="0 0 20 17" fill="none" xmlns="http://www.w3.org/2000/svg">
<path d="M16.7965 1.92827C15.5528 1.32605 14.2063 0.888945 12.8036 0.636397C12.7913 0.635989 12.7791 0.638386 12.7678 0.643421C12.7565 0.648455 12.7464 0.656005 12.7382 0.665538C12.5699 0.986079 12.3735 1.40375 12.2426 1.72429C10.7549 1.49117 9.24189 1.49117 7.75416 1.72429C7.62325 1.39404 7.42688 0.986079 7.24921 0.665538C7.23986 0.646111 7.2118 0.636397 7.18375 0.636397C5.78112 0.888945 4.44394 1.32605 3.19092 1.92827C3.18156 1.92827 3.17221 1.93799 3.16286 1.9477C0.619417 5.90104 -0.0819015 9.74753 0.264082 13.5552C0.264082 13.5746 0.273433 13.594 0.292135 13.6037C1.9753 14.8859 3.593 15.663 5.19201 16.1778C5.22006 16.1875 5.24812 16.1778 5.25747 16.1584C5.6315 15.6241 5.96813 15.0607 6.25801 14.4682C6.27671 14.4294 6.25801 14.3905 6.22061 14.3808C5.68761 14.1671 5.18266 13.9146 4.68706 13.6232C4.64966 13.6037 4.64966 13.5455 4.67771 13.5163C4.78057 13.4386 4.88343 13.3512 4.98629 13.2735C5.00499 13.2541 5.03304 13.2541 5.05175 13.2638C8.26846 14.7888 11.7376 14.7888 14.917 13.2638C14.9357 13.2541 14.9637 13.2541 14.9824 13.2735C15.0853 13.3609 15.1881 13.4386 15.291 13.526C15.3284 13.5552 15.3284 13.6135 15.2816 13.6329C14.7954 13.934 14.2811 14.1768 13.7481 14.3905C13.7107 14.4002 13.7013 14.4488 13.7107 14.4779C14.0099 15.0705 14.3465 15.6338 14.7112 16.1681C14.7393 16.1778 14.7673 16.1875 14.7954 16.1778C16.4037 15.663 18.0215 14.8859 19.7046 13.6037C19.7233 13.594 19.7327 13.5746 19.7327 13.5552C20.1441 9.15502 19.0501 5.33767 16.8339 1.9477C16.8245 1.93799 16.8152 1.92827 16.7965 1.92827ZM6.74426 11.2337C5.78112 11.2337 4.97694 10.3109 4.97694 9.17445C4.97694 8.03798 5.76242 7.11521 6.74426 7.11521C7.73546 7.11521 8.52093 8.0477 8.51158 9.17445C8.51158 10.3109 7.72611 11.2337 6.74426 11.2337ZM13.2618 11.2337C12.2987 11.2337 11.4945 10.3109 11.4945 9.17445C11.4945 8.03798 12.28 7.11521 13.2618 7.11521C14.253 7.11521 15.0385 8.0477 15.0292 9.17445C15.0292 10.3109 14.253 11.2337 13.2618 11.2337Z" fill="white"/>
</svg>
