<svg width="24" height="24" viewBox="0 0 24 24" fill="none" xmlns="http://www.w3.org/2000/svg">
<rect width="24" height="24" rx="4" fill="#202AE9"/>
<path d="M4.95407 16.0902L7.12736 17.637L7.98362 16.6555L6.18648 15.3764L4.92143 12.0897L10.823 5.32498L14.1639 5.54894L15.5862 9.97553L12.5037 13.5089L13.5815 14.276L17.0066 10.3501L15.2292 4.31236L10.2567 3.95515L3.40665 11.807L4.95407 16.0902Z" fill="white"/>
<path d="M19.5762 7.40582L17.4029 5.85903L16.5467 6.84052L18.3438 8.11959L19.6088 11.4063L13.7072 18.171L10.3664 17.9471L8.94408 13.5205L12.0266 9.98712L10.9487 9.21996L7.52369 13.1459L9.3011 19.1836L14.2736 19.5408L21.1236 11.689L19.5762 7.40582Z" fill="white"/>
</svg>
