<svg width="372" height="169" viewBox="0 0 372 169" fill="none" xmlns="http://www.w3.org/2000/svg">
<path opacity="0.15" d="M156.99 168.243H84.0511C60.7963 168.243 40.9776 160.046 24.5948 143.651C8.19826 127.257 0 107.417 0 84.1318C0 60.8742 8.19826 41.0344 24.5948 24.6124C40.9776 8.20412 60.7963 0 84.0511 0L156.99 0V20.6307L84.0511 20.6307C66.5963 20.6307 51.6635 26.8474 39.2527 39.2808C26.8419 51.7142 20.6297 66.6645 20.6159 84.1318C20.6159 101.599 26.8282 116.543 39.2527 128.962C51.6772 141.382 66.61 147.599 84.0511 147.612H156.99V168.243ZM113.388 94.4472V73.8165L257.699 73.8165V94.4472L113.388 94.4472ZM214.096 168.243V147.612L287.035 147.612C304.49 147.612 319.423 141.396 331.834 128.962C344.245 116.529 350.457 101.585 350.471 84.1318C350.471 66.6645 344.258 51.7211 331.834 39.3014C319.409 26.8817 304.476 20.6651 287.035 20.6513L214.096 20.6513V0.0206292L287.035 0.0206292C310.29 0.0206292 330.116 8.21788 346.512 24.6124C362.895 41.0069 371.086 60.8467 371.086 84.1318C371.086 107.389 362.888 127.229 346.492 143.651C330.109 160.06 310.29 168.264 287.035 168.264L214.096 168.243Z" fill="#202AE9"/>
</svg>
