<svg width="140" height="34" viewBox="0 0 140 34" fill="none" xmlns="http://www.w3.org/2000/svg">
<path d="M0 11.3602V1.76512H2.60572V9.43053H13.0286V11.3602H0Z" fill="#011222"/>
<path d="M14.8073 11.3602V1.77843H17.3949V11.3602H14.8073Z" fill="#011222"/>
<path d="M20.1249 11.3602V1.77843H22.8935L30.5116 8.45905V1.77843H33.1535V11.3602H30.3849L22.7306 4.65296V11.3602H20.1249Z" fill="#011222"/>
<path d="M36.2845 11.3602V1.77843H38.9084V5.59783H41.7131L46.056 1.77843H48.8427V2.3906L44.0655 6.56931L48.8427 10.748V11.3602H46.056L41.7131 7.54079H38.9084V11.3602H36.2845Z" fill="#011222"/>
<path d="M54.3233 11.3602C53.8528 11.3602 53.4185 11.2759 53.0204 11.1073C52.6223 10.9299 52.3087 10.6992 52.0795 10.4153C51.8503 10.1225 51.7356 9.79872 51.7356 9.44384V8.63205H54.3414V9.35068C54.3414 9.3773 54.3474 9.39948 54.3595 9.41722C54.3836 9.42609 54.4077 9.43053 54.4318 9.43053H62.0138C62.0379 9.43053 62.062 9.42609 62.0861 9.41722C62.1103 9.39948 62.1223 9.3773 62.1223 9.35068V7.60733C62.1223 7.58959 62.1103 7.57628 62.0861 7.56741C62.062 7.54967 62.0379 7.54079 62.0138 7.54079H54.3233C53.8528 7.54079 53.4185 7.45651 53.0204 7.28794C52.6223 7.1105 52.3087 6.87539 52.0795 6.58262C51.8503 6.28984 51.7356 5.97045 51.7356 5.62444V3.69478C51.7356 3.3399 51.8503 3.02051 52.0795 2.73661C52.3087 2.44383 52.6223 2.21316 53.0204 2.04459C53.4185 1.86715 53.8528 1.77843 54.3233 1.77843H62.1585C62.629 1.77843 63.0573 1.86715 63.4433 2.04459C63.8414 2.21316 64.1611 2.44383 64.4023 2.73661C64.6436 3.02051 64.7642 3.3399 64.7642 3.69478V4.50657H62.1223V3.78794C62.1223 3.76132 62.1103 3.74358 62.0861 3.73471C62.062 3.71696 62.0379 3.70809 62.0138 3.70809H54.4318C54.4077 3.70809 54.3836 3.71696 54.3595 3.73471C54.3474 3.74358 54.3414 3.76132 54.3414 3.78794V5.53129C54.3414 5.54903 54.3474 5.56677 54.3595 5.58452C54.3836 5.59339 54.4077 5.59783 54.4318 5.59783H62.1585C62.629 5.59783 63.0573 5.68655 63.4433 5.86399C63.8414 6.03255 64.1611 6.26323 64.4023 6.556C64.6436 6.84878 64.7642 7.16817 64.7642 7.51418V9.44384C64.7642 9.79872 64.6436 10.1225 64.4023 10.4153C64.1611 10.6992 63.8414 10.9299 63.4433 11.1073C63.0573 11.2759 62.629 11.3602 62.1585 11.3602H54.3233Z" fill="#011222"/>
<path d="M75.2358 34V24.4049H85.6988V26.3373H77.5364V28.2296H84.1073V30.1753H77.5364V34H75.2358Z" fill="#011222"/>
<path d="M89.7746 34C89.3544 34 88.971 33.9156 88.6243 33.7468C88.2881 33.5691 88.015 33.3381 87.8049 33.0538C87.6053 32.7606 87.5055 32.4364 87.5055 32.081V26.3239C87.5055 25.9686 87.6053 25.6487 87.8049 25.3644C88.015 25.0713 88.2881 24.8403 88.6243 24.6715C88.971 24.4938 89.3544 24.4049 89.7746 24.4049H96.5819C96.9916 24.4049 97.3645 24.4938 97.7006 24.6715C98.0473 24.8403 98.3257 25.0713 98.5358 25.3644C98.7459 25.6487 98.8509 25.9686 98.8509 26.3239V32.081C98.8509 32.4364 98.7459 32.7606 98.5358 33.0538C98.3257 33.3381 98.0473 33.5691 97.7006 33.7468C97.3645 33.9156 96.9916 34 96.5819 34H89.7746ZM89.8692 32.0677H96.4558C96.4873 32.0677 96.5083 32.0632 96.5188 32.0543C96.5398 32.0366 96.5503 32.0144 96.5503 31.9877V26.4172C96.5503 26.3906 96.5398 26.3728 96.5188 26.3639C96.5083 26.3462 96.4873 26.3373 96.4558 26.3373H89.8692C89.8376 26.3373 89.8114 26.3462 89.7904 26.3639C89.7799 26.3728 89.7746 26.3906 89.7746 26.4172V31.9877C89.7746 32.0144 89.7799 32.0366 89.7904 32.0543C89.8114 32.0632 89.8376 32.0677 89.8692 32.0677Z" fill="#011222"/>
<path d="M110.45 34L107.094 30.6151H110.072L112.846 33.4003V34H110.45ZM101.532 34V24.4183H110.592C111.012 24.4183 111.391 24.5071 111.727 24.6848C112.073 24.8536 112.352 25.0846 112.562 25.3778C112.772 25.6709 112.877 25.9908 112.877 26.3373V28.8693C112.877 29.2158 112.772 29.5356 112.562 29.8288C112.352 30.1131 112.073 30.3441 111.727 30.5218C111.391 30.6906 111.012 30.775 110.592 30.775L103.801 30.7883V34H101.532ZM103.895 28.8426H110.482C110.513 28.8426 110.534 28.8382 110.545 28.8293C110.566 28.8116 110.576 28.7938 110.576 28.776V26.4172C110.576 26.3906 110.566 26.3728 110.545 26.3639C110.534 26.3462 110.513 26.3373 110.482 26.3373H103.895C103.864 26.3373 103.838 26.3462 103.817 26.3639C103.806 26.3728 103.801 26.3906 103.801 26.4172V28.776C103.801 28.7938 103.806 28.8116 103.817 28.8293C103.838 28.8382 103.864 28.8426 103.895 28.8426Z" fill="#011222"/>
<path d="M117.749 34C117.329 34 116.946 33.9156 116.599 33.7468C116.263 33.5691 115.99 33.3381 115.78 33.0538C115.58 32.7606 115.48 32.4364 115.48 32.081V26.3239C115.48 25.9686 115.58 25.6487 115.78 25.3644C115.99 25.0713 116.263 24.8403 116.599 24.6715C116.946 24.4938 117.329 24.4049 117.749 24.4049H124.541C124.961 24.4049 125.339 24.4938 125.675 24.6715C126.022 24.8403 126.3 25.0713 126.51 25.3644C126.721 25.6487 126.826 25.9686 126.826 26.3239V27.1502H124.525V26.4172C124.525 26.3906 124.514 26.3728 124.493 26.3639C124.483 26.3462 124.462 26.3373 124.43 26.3373H117.844C117.812 26.3373 117.786 26.3462 117.765 26.3639C117.754 26.3728 117.749 26.3906 117.749 26.4172V31.9877C117.749 32.0144 117.754 32.0366 117.765 32.0543C117.786 32.0632 117.812 32.0677 117.844 32.0677H124.43C124.462 32.0677 124.483 32.0632 124.493 32.0543C124.514 32.0366 124.525 32.0144 124.525 31.9877V30.4152H122.02V28.4828H126.826V32.081C126.826 32.4364 126.721 32.7606 126.51 33.0538C126.3 33.3381 126.022 33.5691 125.675 33.7468C125.339 33.9156 124.961 34 124.541 34H117.749Z" fill="#011222"/>
<path d="M129.537 34V24.4049H140V26.3373H131.838V28.2296H138.409V30.1753H131.838V32.0677H140V34H129.537Z" fill="#011222"/>
<path d="M60.0279 22.1596L63.5632 24.5909L64.9561 23.0482L62.0326 21.0377L59.9748 15.8715L69.5749 5.2386L75.0095 5.59062L77.3232 12.5485L72.3088 18.1023L74.0622 19.3081L79.6337 13.1372L76.7424 3.64693L68.6537 3.08545L57.5107 15.4273L60.0279 22.1596Z" fill="#202AE9"/>
<path d="M83.8115 8.50929L80.2762 6.078L78.8833 7.62073L81.8067 9.63122L83.8646 14.7974L74.2644 25.4303L68.8298 25.0783L66.5162 18.1205L71.5306 12.5666L69.7772 11.3608L64.2057 17.5317L67.097 27.022L75.1857 27.5835L86.3287 15.2417L83.8115 8.50929Z" fill="#202AE9"/>
</svg>
