<svg width="140" height="34" viewBox="0 0 140 34" fill="none" xmlns="http://www.w3.org/2000/svg">
<path d="M0 11.3602V1.76514H2.60572V9.43054H13.0286V11.3602H0Z" fill="white"/>
<path d="M14.8073 11.3602V1.77844H17.3949V11.3602H14.8073Z" fill="white"/>
<path d="M20.1249 11.3602V1.77844H22.8935L30.5116 8.45906V1.77844H33.1535V11.3602H30.3849L22.7306 4.65297V11.3602H20.1249Z" fill="white"/>
<path d="M36.2845 11.3602V1.77844H38.9084V5.59784H41.7131L46.056 1.77844H48.8427V2.39061L44.0655 6.56932L48.8427 10.748V11.3602H46.056L41.7131 7.54081H38.9084V11.3602H36.2845Z" fill="white"/>
<path d="M54.3233 11.3602C53.8528 11.3602 53.4185 11.2759 53.0204 11.1074C52.6223 10.9299 52.3087 10.6992 52.0795 10.4153C51.8503 10.1226 51.7356 9.79873 51.7356 9.44385V8.63206H54.3414V9.3507C54.3414 9.37731 54.3474 9.39949 54.3595 9.41724C54.3836 9.42611 54.4077 9.43054 54.4318 9.43054H62.0138C62.0379 9.43054 62.062 9.42611 62.0861 9.41724C62.1103 9.39949 62.1223 9.37731 62.1223 9.3507V7.60735C62.1223 7.5896 62.1103 7.5763 62.0861 7.56742C62.062 7.54968 62.0379 7.54081 62.0138 7.54081H54.3233C53.8528 7.54081 53.4185 7.45652 53.0204 7.28796C52.6223 7.11052 52.3087 6.87541 52.0795 6.58263C51.8503 6.28986 51.7356 5.97046 51.7356 5.62446V3.6948C51.7356 3.33992 51.8503 3.02052 52.0795 2.73662C52.3087 2.44384 52.6223 2.21317 53.0204 2.0446C53.4185 1.86716 53.8528 1.77844 54.3233 1.77844H62.1585C62.629 1.77844 63.0573 1.86716 63.4433 2.0446C63.8414 2.21317 64.1611 2.44384 64.4023 2.73662C64.6436 3.02052 64.7642 3.33992 64.7642 3.6948V4.50658H62.1223V3.78795C62.1223 3.76134 62.1103 3.74359 62.0861 3.73472C62.062 3.71698 62.0379 3.7081 62.0138 3.7081H54.4318C54.4077 3.7081 54.3836 3.71698 54.3595 3.73472C54.3474 3.74359 54.3414 3.76134 54.3414 3.78795V5.5313C54.3414 5.54904 54.3474 5.56679 54.3595 5.58453C54.3836 5.5934 54.4077 5.59784 54.4318 5.59784H62.1585C62.629 5.59784 63.0573 5.68656 63.4433 5.864C63.8414 6.03257 64.1611 6.26324 64.4023 6.55602C64.6436 6.84879 64.7642 7.16818 64.7642 7.51419V9.44385C64.7642 9.79873 64.6436 10.1226 64.4023 10.4153C64.1611 10.6992 63.8414 10.9299 63.4433 11.1074C63.0573 11.2759 62.629 11.3602 62.1585 11.3602H54.3233Z" fill="white"/>
<path d="M75.2358 33.9999V24.4048H85.6988V26.3371H77.5364V28.2295H84.1073V30.1752H77.5364V33.9999H75.2358Z" fill="white"/>
<path d="M89.7746 33.9999C89.3544 33.9999 88.971 33.9155 88.6243 33.7466C88.2881 33.569 88.015 33.338 87.8049 33.0537C87.6053 32.7605 87.5055 32.4362 87.5055 32.0808V26.3238C87.5055 25.9684 87.6053 25.6486 87.8049 25.3643C88.015 25.0711 88.2881 24.8401 88.6243 24.6713C88.971 24.4936 89.3544 24.4048 89.7746 24.4048H96.5819C96.9916 24.4048 97.3645 24.4936 97.7006 24.6713C98.0473 24.8401 98.3257 25.0711 98.5358 25.3643C98.7459 25.6486 98.8509 25.9684 98.8509 26.3238V32.0808C98.8509 32.4362 98.7459 32.7605 98.5358 33.0537C98.3257 33.338 98.0473 33.569 97.7006 33.7466C97.3645 33.9155 96.9916 33.9999 96.5819 33.9999H89.7746ZM89.8692 32.0675H96.4558C96.4873 32.0675 96.5083 32.0631 96.5188 32.0542C96.5398 32.0364 96.5503 32.0142 96.5503 31.9876V26.4171C96.5503 26.3904 96.5398 26.3727 96.5188 26.3638C96.5083 26.346 96.4873 26.3371 96.4558 26.3371H89.8692C89.8376 26.3371 89.8114 26.346 89.7904 26.3638C89.7799 26.3727 89.7746 26.3904 89.7746 26.4171V31.9876C89.7746 32.0142 89.7799 32.0364 89.7904 32.0542C89.8114 32.0631 89.8376 32.0675 89.8692 32.0675Z" fill="white"/>
<path d="M110.45 33.9999L107.094 30.6149H110.072L112.846 33.4002V33.9999H110.45ZM101.532 33.9999V24.4181H110.592C111.012 24.4181 111.391 24.507 111.727 24.6846C112.073 24.8534 112.352 25.0844 112.562 25.3776C112.772 25.6708 112.877 25.9906 112.877 26.3371V28.8692C112.877 29.2156 112.772 29.5355 112.562 29.8287C112.352 30.113 112.073 30.344 111.727 30.5216C111.391 30.6904 111.012 30.7748 110.592 30.7748L103.801 30.7882V33.9999H101.532ZM103.895 28.8425H110.482C110.513 28.8425 110.534 28.8381 110.545 28.8292C110.566 28.8114 110.576 28.7936 110.576 28.7759V26.4171C110.576 26.3904 110.566 26.3727 110.545 26.3638C110.534 26.346 110.513 26.3371 110.482 26.3371H103.895C103.864 26.3371 103.838 26.346 103.817 26.3638C103.806 26.3727 103.801 26.3904 103.801 26.4171V28.7759C103.801 28.7936 103.806 28.8114 103.817 28.8292C103.838 28.8381 103.864 28.8425 103.895 28.8425Z" fill="white"/>
<path d="M117.749 33.9999C117.329 33.9999 116.946 33.9155 116.599 33.7466C116.263 33.569 115.99 33.338 115.78 33.0537C115.58 32.7605 115.48 32.4362 115.48 32.0808V26.3238C115.48 25.9684 115.58 25.6486 115.78 25.3643C115.99 25.0711 116.263 24.8401 116.599 24.6713C116.946 24.4936 117.329 24.4048 117.749 24.4048H124.541C124.961 24.4048 125.339 24.4936 125.675 24.6713C126.022 24.8401 126.3 25.0711 126.51 25.3643C126.721 25.6486 126.826 25.9684 126.826 26.3238V27.15H124.525V26.4171C124.525 26.3904 124.514 26.3727 124.493 26.3638C124.483 26.346 124.462 26.3371 124.43 26.3371H117.844C117.812 26.3371 117.786 26.346 117.765 26.3638C117.754 26.3727 117.749 26.3904 117.749 26.4171V31.9876C117.749 32.0142 117.754 32.0364 117.765 32.0542C117.786 32.0631 117.812 32.0675 117.844 32.0675H124.43C124.462 32.0675 124.483 32.0631 124.493 32.0542C124.514 32.0364 124.525 32.0142 124.525 31.9876V30.415H122.02V28.4827H126.826V32.0808C126.826 32.4362 126.721 32.7605 126.51 33.0537C126.3 33.338 126.022 33.569 125.675 33.7466C125.339 33.9155 124.961 33.9999 124.541 33.9999H117.749Z" fill="white"/>
<path d="M129.537 33.9999V24.4048H140V26.3371H131.838V28.2295H138.409V30.1752H131.838V32.0675H140V33.9999H129.537Z" fill="white"/>
<path d="M60.0279 22.1596L63.5632 24.5909L64.9561 23.0482L62.0326 21.0377L59.9748 15.8715L69.5749 5.2386L75.0095 5.59062L77.3232 12.5485L72.3088 18.1023L74.0622 19.3081L79.6337 13.1372L76.7424 3.64693L68.6537 3.08545L57.5107 15.4273L60.0279 22.1596Z" fill="#202AE9"/>
<path d="M83.8117 8.5093L80.2764 6.07801L78.8835 7.62074L81.807 9.63122L83.8648 14.7974L74.2647 25.4303L68.8301 25.0783L66.5164 18.1205L71.5308 12.5667L69.7774 11.3608L64.2059 17.5317L67.0972 27.022L75.1859 27.5835L86.3289 15.2417L83.8117 8.5093Z" fill="#202AE9"/>
</svg>
