<svg width="20" height="16" viewBox="0 0 20 16" fill="none" xmlns="http://www.w3.org/2000/svg">
<path d="M17.4354 0.0650024H2.56543C1.90239 0.0650024 1.2665 0.328395 0.797663 0.797235C0.328822 1.26608 0.0654297 1.90196 0.0654297 2.565V13.435C0.0654297 14.098 0.328822 14.7339 0.797663 15.2028C1.2665 15.6716 1.90239 15.935 2.56543 15.935H17.4354C18.0985 15.935 18.7344 15.6716 19.2032 15.2028C19.672 14.7339 19.9354 14.098 19.9354 13.435V2.565C19.9354 1.90196 19.672 1.26608 19.2032 0.797235C18.7344 0.328395 18.0985 0.0650024 17.4354 0.0650024ZM2.56543 1.065H17.4354C17.8139 1.06415 18.1785 1.20733 18.4552 1.46548C18.7319 1.72364 18.9 2.07741 18.9254 2.455C16.4554 3.775 13.9754 5.085 11.4954 6.405C11.1605 6.61622 10.8054 6.79375 10.4354 6.935C10.1453 6.99245 9.84634 6.98737 9.55836 6.92012C9.27039 6.85287 9.00007 6.72499 8.76543 6.545C7.34543 5.795 5.92543 5.035 4.51543 4.285C3.37543 3.685 2.21543 3.075 1.07543 2.465C1.09839 2.08563 1.26545 1.72938 1.54243 1.46913C1.81941 1.20888 2.18537 1.06431 2.56543 1.065ZM18.9354 13.435C18.9354 13.8328 18.7774 14.2144 18.4961 14.4957C18.2148 14.777 17.8333 14.935 17.4354 14.935H2.56543C2.1676 14.935 1.78607 14.777 1.50477 14.4957C1.22346 14.2144 1.06543 13.8328 1.06543 13.435V3.6C3.42543 4.84 5.77543 6.1 8.13543 7.35C8.55696 7.60874 9.01091 7.8105 9.48543 7.95C10.1798 8.06309 10.8915 7.91718 11.4854 7.54C12.9354 6.78 14.3754 6.01 15.8254 5.25C16.8654 4.69 17.8954 4.15 18.9354 3.6V13.435Z" fill="white"/>
</svg>
