<svg width="20" height="20" viewBox="0 0 20 20" fill="none" xmlns="http://www.w3.org/2000/svg">
<path d="M5.29529 7.90445C5.05527 8.02446 4.95279 8.31254 5.06308 8.55717C6.33792 11.3847 8.6153 13.6621 11.4428 14.9369C11.6875 15.0472 11.9755 14.9447 12.0956 14.7047L13.3496 12.1966C13.4856 11.9246 13.8009 11.794 14.0894 11.8902L19.0821 13.5544C19.3317 13.6376 19.5 13.8711 19.5 14.1342V17.7778C19.5 18.7289 18.7289 19.5 17.7778 19.5H16.6667C7.73806 19.5 0.5 12.2619 0.5 3.33333V2.22222C0.5 1.27107 1.27107 0.5 2.22222 0.5H5.86582C6.12886 0.5 6.36239 0.668319 6.44557 0.917861L6.91992 0.759747L6.44557 0.917861L8.10981 5.91057C8.20598 6.19908 8.07537 6.51441 7.80336 6.65042L5.29529 7.90445Z" stroke="white" stroke-linecap="round" stroke-linejoin="round"/>
</svg>
