<svg width="125" height="108" viewBox="0 0 125 108" fill="none" xmlns="http://www.w3.org/2000/svg">
<path d="M0.199951 54L31.2 0.306458H93.2L124.2 54L93.2 107.694H31.2L0.199951 54Z" fill="#010948"/>
<path fill-rule="evenodd" clip-rule="evenodd" d="M4.81875 54L33.5093 103.694H90.8905L119.581 54L90.8905 4.30646H33.5093L4.81875 54ZM31.2 0.306458L0.199951 54L31.2 107.694H93.2L124.2 54L93.2 0.306458H31.2Z" fill="white"/>
<path d="M57.7999 70C57.3755 70 56.9685 69.8314 56.6685 69.5314C56.3684 69.2313 56.1999 68.8243 56.1999 68.4V63.6H49.7999C48.9512 63.6 48.1372 63.2629 47.5371 62.6627C46.937 62.0626 46.5999 61.2487 46.5999 60.4V41.2C46.5999 40.3513 46.937 39.5374 47.5371 38.9373C48.1372 38.3371 48.9512 38 49.7999 38H75.3999C76.2485 38 77.0625 38.3371 77.6626 38.9373C78.2627 39.5374 78.5999 40.3513 78.5999 41.2V60.4C78.5999 61.2487 78.2627 62.0626 77.6626 62.6627C77.0625 63.2629 76.2485 63.6 75.3999 63.6H65.6399L59.7199 69.536C59.3999 69.84 58.9999 70 58.5999 70H57.7999Z" fill="white"/>
</svg>
