<svg width="125" height="108" viewBox="0 0 125 108" fill="none" xmlns="http://www.w3.org/2000/svg">
<path d="M0.600098 54L31.6001 0.306458H93.6001L124.6 54L93.6001 107.694H31.6001L0.600098 54Z" fill="#010948"/>
<path fill-rule="evenodd" clip-rule="evenodd" d="M5.2189 54L33.9095 103.694H91.2907L119.981 54L91.2907 4.30646H33.9095L5.2189 54ZM31.6001 0.306458L0.600098 54L31.6001 107.694H93.6001L124.6 54L93.6001 0.306458H31.6001Z" fill="white"/>
<path d="M78.0555 45.2363L58.369 65.4428C58.1976 65.6194 57.9938 65.7596 57.7695 65.8552C57.5452 65.9508 57.3046 66 57.0617 66C56.8188 66 56.5783 65.9508 56.354 65.8552C56.1296 65.7596 55.9259 65.6194 55.7544 65.4428L47.1416 56.6025C46.9699 56.4263 46.8337 56.2171 46.7408 55.9868C46.6479 55.7566 46.6001 55.5098 46.6001 55.2606C46.6001 55.0114 46.6479 54.7647 46.7408 54.5344C46.8337 54.3042 46.9699 54.095 47.1416 53.9188C47.3133 53.7426 47.5171 53.6028 47.7414 53.5074C47.9657 53.4121 48.2061 53.363 48.4489 53.363C48.6917 53.363 48.9321 53.4121 49.1564 53.5074C49.3807 53.6028 49.5845 53.7426 49.7562 53.9188L57.0633 61.4189L75.444 42.5558C75.7907 42.1999 76.261 42 76.7513 42C77.2416 42 77.7119 42.1999 78.0586 42.5558C78.4053 42.9117 78.6001 43.3944 78.6001 43.8976C78.6001 44.4009 78.4053 44.8836 78.0586 45.2395L78.0555 45.2363Z" fill="white"/>
</svg>
