<svg width="124" height="108" viewBox="0 0 124 108" fill="none" xmlns="http://www.w3.org/2000/svg">
<path d="M0 54L31 0.306458H93L124 54L93 107.694H31L0 54Z" fill="#010948"/>
<path fill-rule="evenodd" clip-rule="evenodd" d="M4.6188 54L33.3094 103.694H90.6906L119.381 54L90.6906 4.30646H33.3094L4.6188 54ZM31 0.306458L0 54L31 107.694H93L124 54L93 0.306458H31Z" fill="white"/>
<path d="M69.4773 37.6875C69.4773 37.2399 69.6457 36.8107 69.9453 36.4943C70.245 36.1778 70.6515 36 71.0753 36H76.402C76.8258 36 77.2323 36.1778 77.532 36.4943C77.8316 36.8107 78 37.2399 78 37.6875V43.3125C78 43.7601 77.8316 44.1893 77.532 44.5057C77.2323 44.8222 76.8258 45 76.402 45C75.9782 45 75.5717 44.8222 75.272 44.5057C74.9723 44.1893 74.804 43.7601 74.804 43.3125V41.76L65.2799 51.8175C64.9802 52.1335 64.5741 52.311 64.1506 52.311C63.7271 52.311 63.321 52.1335 63.0213 51.8175L57.7586 46.26L48.7671 55.755C48.6208 55.9208 48.4444 56.0538 48.2484 56.146C48.0524 56.2382 47.8408 56.2878 47.6262 56.2918C47.4116 56.2958 47.1985 56.2541 46.9995 56.1693C46.8005 56.0844 46.6198 55.9581 46.468 55.7978C46.3163 55.6376 46.1967 55.4467 46.1163 55.2366C46.0359 55.0265 45.9965 54.8014 46.0002 54.5748C46.004 54.3482 46.051 54.1248 46.1383 53.9178C46.2257 53.7108 46.3516 53.5245 46.5086 53.37L56.6293 42.6825C56.9289 42.3665 57.3351 42.189 57.7586 42.189C58.1821 42.189 58.5882 42.3665 58.8878 42.6825L64.1506 48.24L72.5455 39.375H71.0753C70.6515 39.375 70.245 39.1972 69.9453 38.8807C69.6457 38.5643 69.4773 38.1351 69.4773 37.6875ZM47.6379 63C48.0617 63 48.4681 63.1778 48.7678 63.4943C49.0675 63.8107 49.2359 64.2399 49.2359 64.6875V70.3125C49.2359 70.7601 49.0675 71.1893 48.7678 71.5057C48.4681 71.8222 48.0617 72 47.6379 72C47.2141 72 46.8076 71.8222 46.5079 71.5057C46.2082 71.1893 46.0399 70.7601 46.0399 70.3125V64.6875C46.0399 64.2399 46.2082 63.8107 46.5079 63.4943C46.8076 63.1778 47.2141 63 47.6379 63ZM57.7586 57.9375C57.7586 57.4899 57.5902 57.0607 57.2905 56.7443C56.9908 56.4278 56.5844 56.25 56.1606 56.25C55.7368 56.25 55.3303 56.4278 55.0306 56.7443C54.7309 57.0607 54.5626 57.4899 54.5626 57.9375V70.3125C54.5626 70.7601 54.7309 71.1893 55.0306 71.5057C55.3303 71.8222 55.7368 72 56.1606 72C56.5844 72 56.9908 71.8222 57.2905 71.5057C57.5902 71.1893 57.7586 70.7601 57.7586 70.3125V57.9375ZM64.6833 60.75C65.1071 60.75 65.5136 60.9278 65.8132 61.2443C66.1129 61.5607 66.2813 61.9899 66.2813 62.4375V70.3125C66.2813 70.7601 66.1129 71.1893 65.8132 71.5057C65.5136 71.8222 65.1071 72 64.6833 72C64.2595 72 63.853 71.8222 63.5533 71.5057C63.2536 71.1893 63.0853 70.7601 63.0853 70.3125V62.4375C63.0853 61.9899 63.2536 61.5607 63.5533 61.2443C63.853 60.9278 64.2595 60.75 64.6833 60.75ZM74.804 53.4375C74.804 52.9899 74.6356 52.5607 74.3359 52.2443C74.0363 51.9278 73.6298 51.75 73.206 51.75C72.7822 51.75 72.3757 51.9278 72.076 52.2443C71.7763 52.5607 71.608 52.9899 71.608 53.4375V70.3125C71.608 70.7601 71.7763 71.1893 72.076 71.5057C72.3757 71.8222 72.7822 72 73.206 72C73.6298 72 74.0363 71.8222 74.3359 71.5057C74.6356 71.1893 74.804 70.7601 74.804 70.3125V53.4375Z" fill="white"/>
</svg>
