<svg width="125" height="108" viewBox="0 0 125 108" fill="none" xmlns="http://www.w3.org/2000/svg">
<path d="M0.399902 54L31.3999 0.306458H93.3999L124.4 54L93.3999 107.694H31.3999L0.399902 54Z" fill="#010948"/>
<path fill-rule="evenodd" clip-rule="evenodd" d="M5.0187 54L33.7093 103.694H91.0905L119.781 54L91.0905 4.30646H33.7093L5.0187 54ZM31.3999 0.306458L0.399902 54L31.3999 107.694H93.3999L124.4 54L93.3999 0.306458H31.3999Z" fill="white"/>
<path d="M69.6718 57H63.357C62.6707 59.0016 61.3202 60.6886 59.5443 61.7629C57.7684 62.8371 55.6814 63.2294 53.6521 62.8704C51.6228 62.5114 49.7819 61.4242 48.4549 59.801C47.1278 58.1778 46.3999 56.1231 46.3999 54C46.3999 51.8769 47.1278 49.8222 48.4549 48.199C49.7819 46.5758 51.6228 45.4886 53.6521 45.1296C55.6814 44.7706 57.7684 45.1629 59.5443 46.2371C61.3202 47.3114 62.6707 48.9984 63.357 51H78.3999V57H75.4905V63H69.6718V57ZM55.1249 57C55.8965 57 56.6365 56.6839 57.1821 56.1213C57.7278 55.5587 58.0343 54.7956 58.0343 54C58.0343 53.2044 57.7278 52.4413 57.1821 51.8787C56.6365 51.3161 55.8965 51 55.1249 51C54.3533 51 53.6133 51.3161 53.0677 51.8787C52.5221 52.4413 52.2155 53.2044 52.2155 54C52.2155 54.7956 52.5221 55.5587 53.0677 56.1213C53.6133 56.6839 54.3533 57 55.1249 57Z" fill="white"/>
</svg>
