<svg width="125" height="108" viewBox="0 0 125 108" fill="none" xmlns="http://www.w3.org/2000/svg">
<path d="M0.800049 54L31.8 0.306458H93.8L124.8 54L93.8 107.694H31.8L0.800049 54Z" fill="#010948"/>
<path fill-rule="evenodd" clip-rule="evenodd" d="M5.41885 54L34.1094 103.694H91.4906L120.181 54L91.4906 4.30646H34.1094L5.41885 54ZM31.8 0.306458L0.800049 54L31.8 107.694H93.8L124.8 54L93.8 0.306458H31.8Z" fill="white"/>
<path d="M69.6572 58.1143L78.8 67.2571L76.0572 70L66.9143 60.8571V59.4126L66.4206 58.9006C64.2703 60.7545 61.525 61.7734 58.6858 61.7714C55.5335 61.7714 52.5103 60.5192 50.2813 58.2902C48.0523 56.0612 46.8 53.038 46.8 49.8857C46.8 46.7334 48.0523 43.7102 50.2813 41.4812C52.5103 39.2522 55.5335 38 58.6858 38C61.8381 38 64.8612 39.2522 67.0902 41.4812C69.3192 43.7102 70.5715 46.7334 70.5715 49.8857C70.5715 52.8297 69.4926 55.536 67.7006 57.6206L68.2126 58.1143H69.6572ZM58.6858 40.7429L57.68 40.7977C57.2412 41.7486 56.5646 43.3577 56.0709 45.3143H61.3006C60.8069 43.3577 60.1303 41.7486 59.6915 40.7977C59.3623 40.7429 59.0332 40.7429 58.6858 40.7429ZM66.6035 45.3143C65.516 43.4118 63.7745 41.9692 61.7029 41.2549C62.1418 42.224 62.7086 43.632 63.1292 45.3143H66.6035ZM50.768 45.3143H54.2423C54.6629 43.632 55.2298 42.224 55.6686 41.2549C53.597 41.9692 51.8555 43.4118 50.768 45.3143ZM49.5429 49.8857C49.5429 50.8 49.6892 51.7691 49.9635 52.6286H53.8766L53.6572 49.8857L53.8766 47.1429H49.9635C49.6892 48.0023 49.5429 48.9714 49.5429 49.8857ZM67.4081 52.6286C67.6823 51.7691 67.8286 50.8 67.8286 49.8857C67.8286 48.9714 67.6823 48.0023 67.4081 47.1429H63.4949C63.7861 48.9598 63.7861 50.8116 63.4949 52.6286H67.4081ZM55.7052 47.1429L55.4858 49.8857L55.7052 52.6286H61.6663C61.9575 50.8116 61.9575 48.9598 61.6663 47.1429H55.7052ZM58.6858 59.0286C59.0149 59.0286 59.344 59.0286 59.6549 58.9737C60.112 58.0229 60.8069 56.4137 61.3006 54.4571H56.0709C56.5646 56.4137 57.2595 58.0229 57.7166 58.9737L58.6858 59.0286ZM66.6035 54.4571H63.1292C62.7086 56.1394 62.1418 57.5474 61.7029 58.5166C63.7745 57.8022 65.516 56.3596 66.6035 54.4571ZM50.768 54.4571C51.8555 56.3596 53.597 57.8022 55.6686 58.5166C55.2298 57.5474 54.6629 56.1394 54.2423 54.4571H50.768Z" fill="white"/>
</svg>
