<svg width="124" height="108" viewBox="0 0 124 108" fill="none" xmlns="http://www.w3.org/2000/svg">
<path d="M0 54L31 0.306458H93L124 54L93 107.694H31L0 54Z" fill="#010948"/>
<path fill-rule="evenodd" clip-rule="evenodd" d="M4.6188 54L33.3094 103.694H90.6906L119.381 54L90.6906 4.30646H33.3094L4.6188 54ZM31 0.306458L0 54L31 107.694H93L124 54L93 0.306458H31Z" fill="white"/>
<path d="M78 53.15C78 52.4339 77.6935 51.7472 77.1479 51.2408C76.6024 50.7345 75.8624 50.45 75.0909 50.45H65.8982L67.2945 44.2805C67.3236 44.1455 67.3382 43.997 67.3382 43.8485C67.3382 43.295 67.0909 42.782 66.6982 42.4175L65.1564 41L55.5855 49.883C55.0473 50.3825 54.7273 51.0575 54.7273 51.8V65.3C54.7273 66.0161 55.0338 66.7028 55.5793 67.2092C56.1249 67.7155 56.8648 68 57.6364 68H70.7273C71.9345 68 72.9673 67.325 73.4036 66.353L77.7964 56.8355C77.9273 56.525 78 56.201 78 55.85V53.15ZM46 68H51.8182V51.8H46V68Z" fill="white"/>
</svg>
