<svg width="60" height="60" viewBox="0 0 60 60" fill="none" xmlns="http://www.w3.org/2000/svg">
<circle cx="30" cy="30" r="30" fill="#004EFF"/>
<path d="M20.1307 37.4483C18.7443 36.0086 18 34.3937 18 31.776C18 27.1698 21.307 23.0412 26.1162 21L27.3182 22.8136C22.8293 25.1878 21.9518 28.2687 21.6018 30.2112C22.3246 29.8454 23.2708 29.7177 24.1982 29.8019C26.6263 30.0217 28.5403 31.9708 28.5403 34.3937C28.5403 35.6154 28.044 36.787 27.1605 37.6509C26.277 38.5147 25.0788 39 23.8294 39C23.1385 38.9941 22.4556 38.8539 21.8206 38.5875C21.1856 38.3211 20.6112 37.9339 20.1307 37.4483ZM33.5904 37.4483C32.204 36.0086 31.4597 34.3937 31.4597 31.776C31.4597 27.1698 34.7668 23.0412 39.5759 21L40.7779 22.8136C36.289 25.1878 35.4115 28.2687 35.0615 30.2112C35.7843 29.8454 36.7305 29.7177 37.6579 29.8019C40.086 30.0217 42 31.9708 42 34.3937C42 35.6154 41.5037 36.787 40.6202 37.6509C39.7367 38.5147 38.5385 39 37.2891 39C36.5982 38.9941 35.9153 38.8539 35.2803 38.5875C34.6453 38.3211 34.0709 37.9339 33.5904 37.4483Z" fill="white"/>
</svg>
