<svg width="20" height="20" viewBox="0 0 20 20" fill="none" xmlns="http://www.w3.org/2000/svg">
<path d="M16.5453 3.45449C18.8035 5.67994 19.6544 8.78904 19.1198 11.6909C19.5671 12.4763 19.818 13.3927 19.818 14.3636C19.818 15.8102 19.2433 17.1976 18.2204 18.2205C17.1975 19.2435 15.8101 19.8181 14.3635 19.8181C13.3926 19.8181 12.4762 19.5672 11.6907 19.1199C8.78891 19.6545 5.67982 18.8036 3.45437 16.5454C1.19619 14.3199 0.345277 11.2109 0.879823 8.30904C0.43255 7.52358 0.181641 6.60722 0.181641 5.63631C0.181641 4.18967 0.756314 2.80229 1.77924 1.77936C2.80217 0.756436 4.18955 0.181763 5.63619 0.181763C6.6071 0.181763 7.52346 0.432672 8.30891 0.879945C11.2107 0.345399 14.3198 1.19631 16.5453 3.45449ZM10.0435 15.629C13.1744 15.629 14.7344 14.1236 14.7344 12.0945C14.7344 10.7963 14.1235 9.41085 11.7562 8.87631L9.58528 8.39631C8.75619 8.21085 7.818 7.95994 7.818 7.1854C7.818 6.39994 8.47255 5.85449 9.67255 5.85449C12.1053 5.85449 11.8762 7.52358 13.0871 7.52358C13.7198 7.52358 14.2653 7.15267 14.2653 6.50904C14.2653 5.01449 11.8762 3.89085 9.8471 3.89085C7.65437 3.89085 5.30891 4.82904 5.30891 7.31631C5.30891 8.51631 5.73437 9.79267 8.09073 10.3818L11.0253 11.1236C11.9089 11.3418 12.1271 11.8327 12.1271 12.2909C12.1271 13.0327 11.3853 13.7636 10.0435 13.7636C7.41437 13.7636 7.77437 11.7454 6.3671 11.7454C5.73437 11.7454 5.27619 12.1818 5.27619 12.8036C5.27619 14.0145 6.7271 15.629 10.0435 15.629Z" fill="white"/>
</svg>
