<svg width="20" height="20" viewBox="0 0 20 20" fill="none" xmlns="http://www.w3.org/2000/svg">
<path d="M9.99982 0.181763C4.58019 0.181763 0.181641 4.58031 0.181641 9.99994C0.181641 15.4196 4.58019 19.8181 9.99982 19.8181C15.4195 19.8181 19.818 15.4196 19.818 9.99994C19.818 4.58031 15.4195 0.181763 9.99982 0.181763ZM14.5555 6.85813C14.4082 8.4094 13.77 12.1796 13.446 13.9174C13.3085 14.6538 13.0336 14.8992 12.7784 14.9287C12.2089 14.9778 11.7769 14.5556 11.2271 14.1923C10.3631 13.6229 9.87219 13.2694 9.03764 12.7196C8.06564 12.0814 8.694 11.7279 9.25364 11.1585C9.40091 11.0112 11.9144 8.72358 11.9635 8.5174C11.9703 8.48617 11.9694 8.45375 11.9608 8.42295C11.9523 8.39215 11.9363 8.36391 11.9144 8.34067C11.8555 8.29158 11.7769 8.31122 11.7082 8.32104C11.6198 8.34067 10.2453 9.25376 7.56491 11.0603C7.17219 11.3254 6.81873 11.4629 6.50455 11.453C6.15109 11.4432 5.48346 11.2567 4.98273 11.0898C4.36419 10.8934 3.8831 10.7854 3.92237 10.4418C3.942 10.265 4.18746 10.0883 4.64891 9.90176C7.51582 8.65485 9.42055 7.83013 10.3729 7.4374C13.1024 6.29849 13.662 6.10213 14.0351 6.10213C14.1136 6.10213 14.3002 6.12176 14.418 6.21994C14.5162 6.29849 14.5456 6.40649 14.5555 6.48504C14.5456 6.54394 14.5653 6.72067 14.5555 6.85813Z" fill="white"/>
</svg>
