<svg width="20" height="21" viewBox="0 0 20 21" fill="none" xmlns="http://www.w3.org/2000/svg">
<path fill-rule="evenodd" clip-rule="evenodd" d="M14.9167 0.70203C11.6787 0.00834031 8.32094 0.00834031 5.08301 0.70203L4.73806 0.775173C3.79153 0.977976 2.9222 1.42832 2.22667 2.07617C1.53113 2.72403 1.03662 3.54401 0.798086 4.44503C-0.0238411 7.54913 -0.0238411 10.8008 0.798086 13.9049C1.01879 14.7383 1.45881 15.5035 2.0761 16.1274C2.69339 16.7513 3.46732 17.213 4.32392 17.4685L4.77062 20.0256C4.79317 20.1547 4.85146 20.2757 4.93942 20.3758C5.02738 20.476 5.14179 20.5517 5.2707 20.5951C5.3996 20.6384 5.53828 20.6478 5.67227 20.6222C5.80625 20.5967 5.93062 20.5371 6.03239 20.4498L8.73197 18.1346C10.8067 18.2463 12.8877 18.0826 14.9157 17.6479L15.2616 17.5748C16.2081 17.372 17.0775 16.9216 17.773 16.2738C18.4685 15.6259 18.9631 14.8059 19.2016 13.9049C20.0235 10.8008 20.0235 7.54913 19.2016 4.44503C18.9631 3.54401 18.4685 2.72403 17.773 2.07617C17.0775 1.42832 16.2081 0.977976 15.2616 0.775173L14.9167 0.70203ZM5.41575 2.12882C8.43456 1.48204 11.5651 1.48204 14.5839 2.12882L14.9289 2.20293C15.5999 2.34678 16.2162 2.6661 16.7093 3.12543C17.2024 3.58475 17.553 4.16611 17.7221 4.80489C18.4812 7.6731 18.4812 10.6778 17.7221 13.5451C17.553 14.1838 17.2024 14.7652 16.7093 15.2245C16.2162 15.6839 15.5999 16.0032 14.9289 16.147L14.5839 16.2211C12.5937 16.6472 10.5494 16.7934 8.51523 16.6551C8.41327 16.6483 8.31092 16.6612 8.21426 16.693C8.11759 16.7249 8.02859 16.775 7.95252 16.8404L6.04765 18.474L5.74849 16.7595C5.72341 16.616 5.65424 16.4829 5.54984 16.3773C5.44543 16.2717 5.31053 16.1983 5.16238 16.1665L5.0708 16.147C4.39976 16.0032 3.78346 15.6839 3.29038 15.2245C2.79729 14.7652 2.44672 14.1838 2.27761 13.5451C1.51822 10.6771 1.51822 7.67283 2.27761 4.80489C2.44664 4.16623 2.79706 3.58496 3.28995 3.12565C3.78285 2.66633 4.39893 2.34694 5.06978 2.20293L5.41575 2.12882ZM5.45021 4.52856C5.61468 4.43529 5.80752 4.39881 5.99664 4.42519L5.9946 4.42421C6.1707 4.4565 6.32926 4.54733 6.44232 4.6807C6.96071 5.2474 7.41979 5.8615 7.81297 6.51417C8.07041 6.95108 7.90353 7.39384 7.66339 7.58109L7.16275 7.96729C6.90531 8.15453 6.93991 8.52123 6.93991 8.52123C6.93991 8.52123 7.68171 11.2178 10.4607 11.8975L10.4708 11.8917C10.4708 11.8917 10.8433 11.9248 11.0488 11.6849L11.4487 11.2012C11.6359 10.9613 12.0989 10.8179 12.5548 11.0549C13.2351 11.4343 13.8761 11.8751 14.4688 12.3715C14.7639 12.6085 14.8331 12.9576 14.6286 13.3282V13.335C14.4108 13.7027 14.131 14.0333 13.8003 14.3142C13.5295 14.55 13.1842 14.6921 12.8193 14.7179C12.7044 14.7179 12.5904 14.7014 12.4652 14.6643V14.6585C12.0368 14.5375 11.3235 14.2479 10.1483 13.6344C9.12014 13.0895 8.16884 12.4209 7.31742 11.6449L7.28893 11.6215L7.26553 11.5952L7.22686 11.5679L7.20244 11.5347C6.39527 10.7216 5.70099 9.81196 5.1368 8.82843C4.69925 8.1282 4.34107 7.38409 4.06633 6.61072L4.04802 6.60096C4.00019 6.45175 3.98595 6.29376 4.0063 6.13772C4.04089 5.87441 4.17318 5.60134 4.41739 5.33119C4.71045 5.01326 5.05438 4.74312 5.43596 4.52856H5.45021ZM10.3329 3.39576C10.4283 3.30432 10.5577 3.25294 10.6927 3.25294C12.2251 3.25294 13.552 3.74252 14.6011 4.70313L14.6113 4.71289C15.1444 5.22891 15.5614 5.84431 15.8364 6.52099C16.1102 7.19449 16.2353 7.9151 16.2037 8.63728C16.1981 8.76661 16.139 8.88848 16.0396 8.97608C15.9402 9.06369 15.8085 9.10986 15.6736 9.10442C15.5387 9.09899 15.4115 9.04241 15.3201 8.94712C15.2287 8.85183 15.1805 8.72565 15.1862 8.59632C15.2126 8.00922 15.1109 7.4231 14.888 6.87403C14.6662 6.32595 14.3274 5.82564 13.8929 5.40336C13.0473 4.63097 11.9788 4.22819 10.6927 4.22819C10.5577 4.22819 10.4283 4.17681 10.3329 4.08537C10.2375 3.99392 10.1839 3.86989 10.1839 3.74056C10.1839 3.61124 10.2375 3.48721 10.3329 3.39576ZM10.2975 4.99933C10.3929 4.90788 10.5223 4.8565 10.6572 4.8565L10.7081 4.85553L10.7254 4.85748C11.863 4.93062 12.8083 5.30512 13.4972 6.01315V6.0151C14.1708 6.71142 14.5107 7.58427 14.4863 8.5956C14.4832 8.72493 14.4266 8.84778 14.329 8.93712C14.2314 9.02646 14.1007 9.07498 13.9658 9.07201C13.8309 9.06904 13.7027 9.01481 13.6095 8.92126C13.5162 8.82771 13.4656 8.7025 13.4687 8.57317C13.4881 7.80273 13.2367 7.17954 12.7513 6.67827C12.2782 6.19162 11.6025 5.89514 10.6745 5.83175H10.6572C10.5223 5.83175 10.3929 5.78038 10.2975 5.68893C10.202 5.59748 10.1484 5.47345 10.1484 5.34413C10.1484 5.2148 10.202 5.09077 10.2975 4.99933ZM10.6378 6.48997C10.5697 6.48421 10.5011 6.49166 10.4361 6.51188C10.3711 6.53209 10.311 6.56465 10.2594 6.60762C10.2078 6.65059 10.1658 6.70308 10.1358 6.76196C10.1058 6.82085 10.0886 6.88491 10.085 6.95033C10.0815 7.01575 10.0917 7.08119 10.1151 7.14274C10.1385 7.20429 10.1746 7.26068 10.2213 7.30856C10.2679 7.35643 10.3242 7.39481 10.3867 7.42139C10.4491 7.44797 10.5166 7.46221 10.5849 7.46327C11.0102 7.48472 11.2819 7.6076 11.4529 7.77242C11.6248 7.93821 11.7531 8.20445 11.7765 8.62088C11.7777 8.68632 11.7927 8.75085 11.8206 8.81061C11.8484 8.87037 11.8885 8.92416 11.9385 8.96875C11.9885 9.01334 12.0473 9.04783 12.1115 9.07017C12.1757 9.0925 12.2439 9.10222 12.3121 9.09875C12.3803 9.09528 12.4471 9.07869 12.5084 9.04996C12.5698 9.02124 12.6245 8.98097 12.6693 8.93155C12.7141 8.88214 12.748 8.82459 12.7691 8.76233C12.7902 8.70008 12.7979 8.6344 12.792 8.5692C12.7594 7.98405 12.5681 7.46717 12.1764 7.08682C11.7826 6.70647 11.2463 6.52118 10.6378 6.48997Z" fill="white"/>
</svg>
