<svg width="20" height="20" viewBox="0 0 20 20" fill="none" xmlns="http://www.w3.org/2000/svg">
<path d="M16.9564 3.0389C16.0518 2.12967 14.9742 1.40876 13.7866 0.918233C12.599 0.427701 11.3251 0.177364 10.0393 0.181821C4.65163 0.181821 0.260581 4.5509 0.260581 9.91161C0.260581 11.6298 0.714487 13.2989 1.56309 14.7716L0.181641 19.8181L5.36209 18.4632C6.79288 19.2389 8.40128 19.6512 10.0393 19.6512C15.427 19.6512 19.818 15.2821 19.818 9.92143C19.818 7.31962 18.8016 4.8749 16.9564 3.0389ZM10.0393 18.0018C8.5789 18.0018 7.14811 17.609 5.89493 16.8727L5.59891 16.696L2.52024 17.501L3.33925 14.5163L3.1419 14.212C2.33054 12.9228 1.89971 11.4327 1.89859 9.91161C1.89859 5.45417 5.54957 1.82145 10.0294 1.82145C12.2003 1.82145 14.2429 2.66581 15.7723 4.19745C16.5296 4.94752 17.1298 5.83969 17.538 6.82226C17.9462 7.80482 18.1544 8.85823 18.1504 9.92143C18.1701 14.3789 14.5191 18.0018 10.0393 18.0018ZM14.4994 11.9538C14.2527 11.836 13.0489 11.2469 12.8318 11.1585C12.6048 11.08 12.447 11.0407 12.2792 11.2763C12.1115 11.5218 11.6477 12.0716 11.5096 12.2287C11.3714 12.3956 11.2234 12.4152 10.9767 12.2876C10.73 12.1698 9.94062 11.9047 9.01307 11.08C8.28287 10.432 7.79936 9.6367 7.65135 9.39125C7.51321 9.14579 7.63162 9.01816 7.75989 8.89052C7.86844 8.78252 8.00658 8.6058 8.12499 8.46834C8.2434 8.33089 8.29274 8.22289 8.37168 8.0658C8.45062 7.89889 8.41115 7.76144 8.35195 7.64362C8.29274 7.5258 7.79936 6.32799 7.60201 5.83708C7.40466 5.36581 7.19745 5.42471 7.04943 5.4149H6.57579C6.40804 5.4149 6.15149 5.47381 5.92454 5.71926C5.70745 5.96471 5.07593 6.5538 5.07593 7.75162C5.07593 8.94943 5.95414 10.108 6.07255 10.2651C6.19096 10.432 7.79936 12.8865 10.2465 13.9371C10.8287 14.1923 11.2826 14.3396 11.6378 14.4476C12.22 14.6341 12.7529 14.6047 13.1772 14.5458C13.6508 14.4771 14.6277 13.9567 14.825 13.3872C15.0323 12.8178 15.0323 12.3367 14.9632 12.2287C14.8941 12.1207 14.7461 12.0716 14.4994 11.9538Z" fill="white"/>
</svg>
