<svg width="54" height="45" viewBox="0 0 54 45" fill="none" xmlns="http://www.w3.org/2000/svg">
<path fill-rule="evenodd" clip-rule="evenodd" d="M21.821 0H32.1745C36.8037 0 40.4684 3.06538e-07 43.3368 0.393429C46.2857 0.799715 48.6744 1.65343 50.5582 3.57686C53.1453 6.21771 53.7733 9.85114 53.9717 14.6777V14.7394C53.9918 15.1611 54.0094 15.5906 53.9918 15.9531C53.984 16.4736 53.8557 16.9847 53.6175 17.4446C53.4434 17.7522 53.2152 18.0243 52.9444 18.2469C52.7411 18.4143 52.5281 18.5689 52.3064 18.7097C51.897 18.9746 51.3393 19.2934 50.6888 19.6663L50.6386 19.692C50.1493 19.9701 49.7416 20.3771 49.4577 20.8708C49.1738 21.3646 49.0241 21.9271 49.0241 22.5C49.0241 23.0729 49.1738 23.6354 49.4577 24.1292C49.7416 24.6229 50.1493 25.0299 50.6386 25.308L50.6888 25.3337C51.3419 25.7066 51.8945 26.0254 52.3064 26.2903C52.5199 26.4291 52.7434 26.5834 52.9444 26.7531C53.1302 26.91 53.409 27.1749 53.6175 27.5554C53.9189 28.1057 53.9767 28.6611 53.9943 29.0469C54.0094 29.4069 53.9918 29.8389 53.9742 30.2606L53.9717 30.3223C53.7707 35.1463 53.1428 38.7823 50.5582 41.4231C48.6744 43.3466 46.2882 44.2003 43.3368 44.6066C40.4684 45 36.8037 45 32.1745 45H21.8235C17.1943 45 13.5296 45 10.6611 44.6066C7.7098 44.2003 5.32362 43.3466 3.43978 41.4231C0.852655 38.7823 0.22471 35.1489 0.02628 30.3223V30.2606C0.00274928 29.8565 -0.00479208 29.4516 0.00367415 29.0469C0.0212566 28.6611 0.0790274 28.1057 0.38044 27.5554C0.554526 27.2478 0.782759 26.9757 1.0536 26.7531C1.25685 26.5857 1.46991 26.4311 1.69159 26.2903C2.10101 26.0254 2.65862 25.7066 3.30917 25.3337L3.35941 25.308C3.84869 25.0299 4.25641 24.6229 4.54028 24.1292C4.82416 23.6354 4.97385 23.0729 4.97385 22.5C4.97385 21.9271 4.82416 21.3646 4.54028 20.8708C4.25641 20.3771 3.84869 19.9701 3.35941 19.692L3.30917 19.6663C2.65611 19.2934 2.10352 18.9746 1.69159 18.7097C1.46952 18.5695 1.25643 18.4149 1.0536 18.2469C0.782759 18.0243 0.554526 17.7522 0.38044 17.4446C0.141379 16.9849 0.012254 16.4738 0.00367415 15.9531C-0.00563409 15.5278 0.00274606 15.1023 0.0287919 14.6777C0.22471 9.85371 0.852655 6.21771 3.43978 3.57686C5.32362 1.65343 7.7098 0.799715 10.6611 0.393429C13.5271 3.06538e-07 17.1892 0 21.821 0ZM50.2317 29.5097V29.5611L50.209 30.1603C50.0131 34.9329 49.3776 37.1854 47.8982 38.6923C46.8332 39.7826 45.3714 40.4357 42.837 40.7829C40.2499 41.1377 36.8364 41.1429 32.0364 41.1429H21.9641C17.1641 41.1429 13.7506 41.1377 11.1635 40.7829C8.6266 40.4357 7.16726 39.7826 6.09975 38.6923C4.62283 37.1854 3.98735 34.9329 3.78892 30.1603C3.78045 29.9435 3.77375 29.7266 3.76883 29.5097C4.08029 29.3117 4.52989 29.0546 5.19551 28.674C6.26944 28.061 7.16399 27.1655 7.78673 26.0801C8.40946 24.9947 8.73779 23.7588 8.73779 22.5C8.73779 21.2412 8.40946 20.0053 7.78673 18.9199C7.16399 17.8345 6.26944 16.939 5.19551 16.326C4.71483 16.0567 4.23919 15.7781 3.76883 15.4903V15.4389L3.79143 14.8397C3.98735 10.0671 4.62283 7.81457 6.10227 6.30771C7.16726 5.21743 8.6266 4.56429 11.1635 4.21714C13.7506 3.86229 17.1641 3.85714 21.9641 3.85714H32.0364C36.8364 3.85714 40.2499 3.86229 42.837 4.21714C45.3739 4.56429 46.8332 5.21743 47.9007 6.30771C49.3751 7.81457 50.0131 10.0671 50.209 14.8397L50.2317 15.4389V15.4903C49.9202 15.6883 49.4706 15.9454 48.805 16.326C47.7304 16.9384 46.8351 17.8337 46.2119 18.9192C45.5887 20.0047 45.26 21.2409 45.26 22.5C45.26 23.7591 45.5887 24.9953 46.2119 26.0808C46.8351 27.1663 47.7304 28.0615 48.805 28.674C49.4681 29.0546 49.9202 29.3117 50.2317 29.5097ZM35.8643 13.4229C36.2171 13.7845 36.4152 14.2746 36.4152 14.7857C36.4152 15.2968 36.2171 15.787 35.8643 16.1486L20.7936 31.5771C20.4365 31.9178 19.9642 32.1033 19.4762 32.0945C18.9881 32.0856 18.5225 31.8832 18.1773 31.5299C17.8322 31.1765 17.6345 30.6998 17.6259 30.2002C17.6172 29.7006 17.7984 29.217 18.1312 28.8514L33.2018 13.4229C33.555 13.0617 34.0338 12.8588 34.5331 12.8588C35.0323 12.8588 35.5111 13.0617 35.8643 13.4229Z" fill="#010948"/>
<path d="M35.789 28.9286C35.789 29.6106 35.5243 30.2646 35.0533 30.7468C34.5822 31.2291 33.9434 31.5 33.2772 31.5C32.611 31.5 31.9722 31.2291 31.5011 30.7468C31.0301 30.2646 30.7654 29.6106 30.7654 28.9286C30.7654 28.2466 31.0301 27.5925 31.5011 27.1103C31.9722 26.6281 32.611 26.3571 33.2772 26.3571C33.9434 26.3571 34.5822 26.6281 35.0533 27.1103C35.5243 27.5925 35.789 28.2466 35.789 28.9286ZM23.2301 16.0714C23.2301 16.7534 22.9655 17.4075 22.4944 17.8897C22.0234 18.3719 21.3845 18.6429 20.7183 18.6429C20.0522 18.6429 19.4133 18.3719 18.9422 17.8897C18.4712 17.4075 18.2065 16.7534 18.2065 16.0714C18.2065 15.3894 18.4712 14.7354 18.9422 14.2532C19.4133 13.7709 20.0522 13.5 20.7183 13.5C21.3845 13.5 22.0234 13.7709 22.4944 14.2532C22.9655 14.7354 23.2301 15.3894 23.2301 16.0714Z" fill="#010948"/>
</svg>
