<svg width="54" height="50" viewBox="0 0 54 50" fill="none" xmlns="http://www.w3.org/2000/svg">
<path d="M35.5488 37.9574C35.5488 38.415 35.3705 38.8539 35.053 39.1774C34.7355 39.501 34.305 39.6828 33.856 39.6828H10.1568C9.78439 39.6828 9.4289 40.0279 9.12419 40.2522L3.3856 44.8588V17.2533C3.3856 16.7957 3.56395 16.3569 3.88141 16.0333C4.19887 15.7097 4.62944 15.528 5.0784 15.528H11.6126V12.0773H5.0784C3.73153 12.0773 2.43981 12.6226 1.48743 13.5933C0.535044 14.564 0 15.8805 0 17.2533V48.3095C0.0025194 48.6299 0.0925403 48.9433 0.259974 49.2145C0.427408 49.4858 0.665638 49.7041 0.947968 49.8451C1.21997 49.9711 1.51986 50.0216 1.81718 49.9913C2.1145 49.961 2.39865 49.851 2.64077 49.6725L11.3587 43.1335H34.1099C34.7515 43.1528 35.3902 43.0377 35.9863 42.7952C36.5825 42.5528 37.1234 42.1881 37.5757 41.7239C38.028 41.2597 38.382 40.7058 38.6157 40.0965C38.8494 39.4872 38.9579 38.8355 38.9344 38.1817V36.2321H35.5488V37.9574Z" fill="#010948"/>
<path d="M49.0911 0H20.3135C18.9666 0 17.6749 0.545331 16.7225 1.51603C15.7702 2.48672 15.2351 3.80327 15.2351 5.17604V25.8802C15.2351 27.2529 15.7702 28.5695 16.7225 29.5402C17.6749 30.5109 18.9666 31.0562 20.3135 31.0562H43.251L51.3426 37.4572C51.5831 37.6385 51.8665 37.7516 52.1638 37.7849C52.4612 37.8182 52.7619 37.7707 53.0354 37.647C53.3234 37.5072 53.5668 37.2872 53.7376 37.0125C53.9083 36.7377 53.9993 36.4194 54.0002 36.0942V5.17604C54.001 3.83264 53.4892 2.54158 52.5732 1.5757C51.6571 0.609816 50.4084 0.0447796 49.0911 0ZM50.7839 32.678L44.8591 27.9678C44.5636 27.7341 44.2005 27.6067 43.8265 27.6055H20.3135C19.8646 27.6055 19.434 27.4237 19.1165 27.1002C18.7991 26.7766 18.6207 26.3378 18.6207 25.8802V5.17604C18.6207 4.71845 18.7991 4.2796 19.1165 3.95603C19.434 3.63247 19.8646 3.45069 20.3135 3.45069H49.0911C49.5436 3.49255 49.9655 3.70159 50.2773 4.03844C50.5891 4.37529 50.7693 4.8167 50.7839 5.27956V32.678Z" fill="#010948"/>
</svg>
