<svg width="54" height="54" viewBox="0 0 54 54" fill="none" xmlns="http://www.w3.org/2000/svg">
<path d="M26.973 0C12.069 0 0 12.096 0 27C0 41.904 12.069 54 26.973 54C41.904 54 54 41.904 54 27C54 12.096 41.904 0 26.973 0ZM27 48.6C15.066 48.6 5.4 38.934 5.4 27C5.4 15.066 15.066 5.4 27 5.4C38.934 5.4 48.6 15.066 48.6 27C48.6 38.934 38.934 48.6 27 48.6ZM26.406 13.5H26.244C25.164 13.5 24.3 14.364 24.3 15.444V28.188C24.3 29.133 24.786 30.024 25.623 30.51L36.828 37.233C37.746 37.773 38.934 37.503 39.474 36.585C39.6096 36.3664 39.6998 36.1227 39.7392 35.8685C39.7786 35.6143 39.7665 35.3547 39.7035 35.1053C39.6405 34.8559 39.528 34.6217 39.3726 34.4167C39.2172 34.2117 39.0221 34.04 38.799 33.912L28.35 27.702V15.444C28.35 14.364 27.486 13.5 26.406 13.5Z" fill="#010948"/>
</svg>
