<svg width="54" height="61" viewBox="0 0 54 61" fill="none" xmlns="http://www.w3.org/2000/svg">
<path d="M29.106 0.390576L50.106 8.44771C51.2499 8.88642 52.2357 9.67195 52.9315 10.6993C53.6274 11.7266 54.0002 12.9468 54 14.1967V30.6578C54.0001 35.788 52.6039 40.8169 49.9678 45.181C47.3317 49.5451 43.5599 53.0719 39.075 55.3663L29.013 60.5137C28.388 60.8335 27.6988 61 27 61C26.3012 61 25.612 60.8335 24.987 60.5137L14.925 55.3663C10.4401 53.0719 6.6683 49.5451 4.03221 45.181C1.39611 40.8169 -0.000108095 35.788 4.65534e-08 30.6578V14.1967C-0.000152095 12.9468 0.372611 11.7266 1.06846 10.6993C1.76431 9.67195 2.75008 8.88642 3.894 8.44771L24.894 0.390576C26.2519 -0.130192 27.7481 -0.130192 29.106 0.390576ZM27 6.13953L6 14.1967V30.6578C6.00069 34.6476 7.08718 38.5583 9.13774 41.952C11.1883 45.3456 14.122 48.0881 17.61 49.8721L27 54.6818L36.39 49.8783C39.879 48.0938 42.8132 45.3504 44.8638 41.9555C46.9145 38.5607 48.0004 34.6486 48 30.6578V14.1967L27 6.13953ZM27 18.2083C28.2806 18.2078 29.5278 18.6265 30.5591 19.4031C31.5905 20.1798 32.3519 21.2737 32.732 22.5249C33.1122 23.776 33.0911 25.1188 32.6718 26.3568C32.2526 27.5948 31.4572 28.6631 30.402 29.4055L30 29.6664V39.694C29.9992 40.4764 29.7064 41.2288 29.1815 41.7977C28.6565 42.3666 27.9391 42.7089 27.1758 42.7547C26.4125 42.8006 25.6609 42.5465 25.0745 42.0444C24.4881 41.5422 24.1113 40.83 24.021 40.0532L24 39.694V29.6664C22.8547 28.9913 21.9594 27.9483 21.4529 26.6992C20.9465 25.4501 20.8574 24.0649 21.1994 22.7587C21.5414 21.4524 22.2954 20.2983 23.3443 19.4755C24.3932 18.6527 25.6783 18.2072 27 18.2083Z" fill="#010948"/>
</svg>
