<svg width="54" height="54" viewBox="0 0 54 54" fill="none" xmlns="http://www.w3.org/2000/svg">
<path d="M27 54C23.284 54 19.784 53.29 16.5 51.87C13.216 50.45 10.356 48.52 7.92001 46.08C5.48401 43.64 3.55402 40.78 2.13002 37.5C0.706017 34.22 -0.00398319 30.72 1.68067e-05 27C1.68067e-05 23.274 0.710017 19.771 2.13002 16.491C3.55002 13.211 5.48001 10.354 7.92001 7.92C10.36 5.486 13.22 3.557 16.5 2.133C19.78 0.709004 23.28 -0.00199579 27 4.20757e-06C30.726 4.20757e-06 34.229 0.710004 37.509 2.13C40.789 3.55 43.647 5.48 46.083 7.92C48.519 10.36 50.447 13.217 51.867 16.491C53.287 19.765 53.998 23.268 54 27C54 30.716 53.29 34.216 51.87 37.5C50.45 40.784 48.52 43.644 46.08 46.08C43.64 48.516 40.783 50.446 37.509 51.87C34.235 53.294 30.732 54.004 27 54ZM27 51.024C28.76 48.762 30.212 46.541 31.356 44.361C32.5 42.181 33.429 39.741 34.143 37.041H19.857C20.649 39.893 21.597 42.409 22.701 44.589C23.805 46.769 25.238 48.914 27 51.024ZM23.181 50.574C21.781 48.924 20.503 46.884 19.347 44.454C18.191 42.026 17.331 39.554 16.767 37.038H5.25902C6.97901 40.77 9.41602 43.83 12.57 46.218C15.724 48.606 19.26 50.058 23.178 50.574M30.816 50.574C34.732 50.058 38.268 48.606 41.424 46.218C44.58 43.83 47.017 40.77 48.735 37.038H37.233C36.473 39.592 35.516 42.084 34.362 44.514C33.206 46.942 32.024 48.962 30.816 50.574ZM4.03502 34.038H16.14C15.912 32.808 15.752 31.609 15.66 30.441C15.564 29.273 15.516 28.126 15.516 27C15.516 25.874 15.563 24.727 15.657 23.559C15.751 22.391 15.911 21.191 16.137 19.959H4.04102C3.71502 20.999 3.46002 22.132 3.27602 23.358C3.09202 24.584 3.00002 25.798 3.00002 27C3.00002 28.202 3.09102 29.416 3.27302 30.642C3.45502 31.868 3.71002 33 4.03802 34.038M19.143 34.038H34.857C35.085 32.808 35.245 31.628 35.337 30.498C35.429 29.368 35.478 28.202 35.484 27C35.49 25.798 35.443 24.632 35.343 23.502C35.243 22.372 35.083 21.192 34.863 19.962H19.14C18.914 21.192 18.754 22.372 18.66 23.502C18.566 24.632 18.519 25.798 18.519 27C18.519 28.202 18.566 29.368 18.66 30.498C18.754 31.628 18.917 32.808 19.143 34.038ZM37.86 34.038H49.962C50.288 32.998 50.543 31.866 50.727 30.642C50.911 29.418 51.002 28.204 51 27C50.998 25.796 50.907 24.582 50.727 23.358C50.547 22.134 50.292 21.002 49.962 19.962H37.857C38.085 21.192 38.245 22.391 38.337 23.559C38.433 24.727 38.481 25.874 38.481 27C38.481 28.126 38.434 29.273 38.34 30.441C38.246 31.609 38.086 32.809 37.86 34.041M37.236 16.962H48.738C46.98 13.154 44.572 10.094 41.514 7.782C38.454 5.47 34.889 4 30.819 3.372C32.219 5.212 33.478 7.318 34.596 9.69C35.714 12.062 36.594 14.486 37.236 16.962ZM19.857 16.962H34.143C33.351 14.146 32.374 11.6 31.212 9.324C30.05 7.048 28.646 4.932 27 2.976C25.354 4.93 23.95 7.046 22.788 9.324C21.628 11.6 20.651 14.146 19.857 16.962ZM5.26202 16.962H16.764C17.408 14.484 18.288 12.06 19.404 9.69C20.52 7.32 21.779 5.213 23.181 3.369C19.073 3.999 15.499 5.479 12.459 7.809C9.41901 10.139 7.01901 13.189 5.25902 16.959" fill="#010948"/>
</svg>
