<svg width="54" height="55" viewBox="0 0 54 55" fill="none" xmlns="http://www.w3.org/2000/svg">
<path d="M2.88415 0.504006C2.72727 0.344216 2.54102 0.217465 2.33604 0.130987C2.13106 0.0445095 1.91137 1.68366e-09 1.6895 0C1.46763 -1.68366e-09 1.24793 0.0445096 1.04296 0.130987C0.837976 0.217465 0.651727 0.344216 0.494842 0.504006C0.337958 0.663796 0.213511 0.853494 0.128606 1.06227C0.0437003 1.27104 -1.65305e-09 1.49481 0 1.72079C1.65305e-09 1.94676 0.0437003 2.17053 0.128606 2.3793C0.213511 2.58808 0.337958 2.77777 0.494842 2.93756L4.40953 6.92131C3.19093 7.0832 2.07176 7.69106 1.2608 8.63152C0.449835 9.57197 0.00246054 10.7808 0.00213138 12.0325V36.0931C0.00213138 37.4605 0.535458 38.7719 1.48479 39.7388C2.43411 40.7057 3.72168 41.2489 5.06423 41.2489H38.113L41.4877 44.6861H7.03845C7.38754 45.6918 8.03428 46.5624 8.88952 47.178C9.74477 47.7936 10.7664 48.1239 11.8137 48.1234H42.1863C43.0187 48.1234 43.8275 48.0386 44.6127 47.869L51.1158 54.496C51.4327 54.8187 51.8624 55 52.3105 55C52.7586 55 53.1883 54.8187 53.5052 54.496C53.822 54.1733 54 53.7356 54 53.2792C54 52.8228 53.822 52.3851 53.5052 52.0624L2.88415 0.504006ZM33.7495 36.8046V37.8117H13.5011V34.3745C13.5011 32.5512 12.79 30.8027 11.5242 29.5135C10.2584 28.2243 8.54167 27.5 6.7516 27.5H3.37687V20.6255H6.7516C8.18114 20.6262 9.57398 20.1646 10.7294 19.3072C11.8848 18.4498 12.743 17.2408 13.1805 15.8547L17.8106 20.5705C17.047 21.8839 16.7342 23.4187 16.9215 24.9331C17.1089 26.4475 17.7858 27.8553 18.8454 28.9346C19.9051 30.0138 21.2873 30.7033 22.7742 30.8941C24.261 31.0849 25.7679 30.7663 27.0574 29.9886L33.7495 36.8046ZM7.7404 10.3139L10.1263 12.744V13.7511C10.1263 14.6627 9.77078 15.537 9.1379 16.1816C8.50501 16.8262 7.64663 17.1883 6.7516 17.1883H3.37687V12.0325C3.37687 11.5767 3.55464 11.1395 3.87108 10.8172C4.18753 10.4949 4.61671 10.3139 5.06423 10.3139H7.7404ZM20.3619 23.1725L24.5027 27.3831C23.9303 27.5396 23.3277 27.5397 22.7552 27.3836C22.1828 27.2275 21.6608 26.9206 21.2418 26.4938C20.8228 26.067 20.5214 25.5354 20.3682 24.9524C20.2149 24.3693 20.2151 23.7555 20.3686 23.1725M5.06423 37.8117C4.61671 37.8117 4.18753 37.6306 3.87108 37.3083C3.55464 36.986 3.37687 36.5489 3.37687 36.0931V30.9372H6.7516C7.64663 30.9372 8.50501 31.2994 9.1379 31.944C9.77078 32.5886 10.1263 33.4628 10.1263 34.3745V37.8117H5.06423ZM40.4989 27.5C38.7339 27.5 37.131 28.1874 35.9295 29.3149L38.3189 31.7519C38.9281 31.2262 39.7005 30.9376 40.4989 30.9372H43.8737V36.0931C43.8734 36.4505 43.7637 36.7989 43.5598 37.0899L45.9559 39.5303C46.7591 38.6194 47.2484 37.413 47.2484 36.0931V12.0325C47.2484 10.6651 46.7151 9.35365 45.7657 8.38674C44.8164 7.41983 43.5289 6.87663 42.1863 6.87663H13.8959L17.2706 10.3139H33.7495V13.7511C33.7495 15.5743 34.4606 17.3229 35.7263 18.6121C36.9921 19.9013 38.7089 20.6255 40.4989 20.6255H43.8737V27.5H40.4989ZM42.1863 10.3139C42.6338 10.3139 43.063 10.4949 43.3795 10.8172C43.6959 11.1395 43.8737 11.5767 43.8737 12.0325V17.1883H40.4989C39.6039 17.1883 38.7455 16.8262 38.1126 16.1816C37.4798 15.537 37.1242 14.6627 37.1242 13.7511V10.3139H42.1863ZM48.3486 41.9639L50.7345 44.3974C52.7593 42.2354 53.9979 39.3103 53.9979 36.0931V18.9069C53.9984 17.8403 53.6741 16.7997 53.0697 15.9286C52.4653 15.0575 51.6105 14.3988 50.6231 14.0432V36.0931C50.6231 38.3616 49.7592 40.4274 48.3486 41.9639Z" fill="#010948"/>
</svg>
